%TF.GenerationSoftware,KiCad,Pcbnew,(6.0.0-0)*%
%TF.CreationDate,2022-03-07T03:13:55-05:00*%
%TF.ProjectId,color,636f6c6f-722e-46b6-9963-61645f706362,rev?*%
%TF.SameCoordinates,Original*%
%TF.FileFunction,Copper,L1,Top*%
%TF.FilePolarity,Positive*%
%FSLAX46Y46*%
G04 Gerber Fmt 4.6, Leading zero omitted, Abs format (unit mm)*
G04 Created by KiCad (PCBNEW (6.0.0-0)) date 2022-03-07 03:13:55*
%MOMM*%
%LPD*%
G01*
G04 APERTURE LIST*
G04 Aperture macros list*
%AMRoundRect*
0 Rectangle with rounded corners*
0 $1 Rounding radius*
0 $2 $3 $4 $5 $6 $7 $8 $9 X,Y pos of 4 corners*
0 Add a 4 corners polygon primitive as box body*
4,1,4,$2,$3,$4,$5,$6,$7,$8,$9,$2,$3,0*
0 Add four circle primitives for the rounded corners*
1,1,$1+$1,$2,$3*
1,1,$1+$1,$4,$5*
1,1,$1+$1,$6,$7*
1,1,$1+$1,$8,$9*
0 Add four rect primitives between the rounded corners*
20,1,$1+$1,$2,$3,$4,$5,0*
20,1,$1+$1,$4,$5,$6,$7,0*
20,1,$1+$1,$6,$7,$8,$9,0*
20,1,$1+$1,$8,$9,$2,$3,0*%
G04 Aperture macros list end*
%TA.AperFunction,ComponentPad*%
%ADD10C,4.500000*%
%TD*%
%TA.AperFunction,SMDPad,CuDef*%
%ADD11RoundRect,0.135000X0.135000X0.185000X-0.135000X0.185000X-0.135000X-0.185000X0.135000X-0.185000X0*%
%TD*%
%TA.AperFunction,ComponentPad*%
%ADD12C,1.400000*%
%TD*%
%TA.AperFunction,ComponentPad*%
%ADD13O,1.400000X1.400000*%
%TD*%
%TA.AperFunction,SMDPad,CuDef*%
%ADD14R,1.000000X0.400000*%
%TD*%
%TA.AperFunction,SMDPad,CuDef*%
%ADD15RoundRect,0.140000X0.140000X0.170000X-0.140000X0.170000X-0.140000X-0.170000X0.140000X-0.170000X0*%
%TD*%
%TA.AperFunction,SMDPad,CuDef*%
%ADD16RoundRect,0.135000X0.185000X-0.135000X0.185000X0.135000X-0.185000X0.135000X-0.185000X-0.135000X0*%
%TD*%
%TA.AperFunction,SMDPad,CuDef*%
%ADD17RoundRect,0.150000X0.150000X-0.825000X0.150000X0.825000X-0.150000X0.825000X-0.150000X-0.825000X0*%
%TD*%
%TA.AperFunction,SMDPad,CuDef*%
%ADD18RoundRect,0.135000X-0.135000X-0.185000X0.135000X-0.185000X0.135000X0.185000X-0.135000X0.185000X0*%
%TD*%
%TA.AperFunction,SMDPad,CuDef*%
%ADD19RoundRect,0.218750X-0.256250X0.218750X-0.256250X-0.218750X0.256250X-0.218750X0.256250X0.218750X0*%
%TD*%
%TA.AperFunction,ViaPad*%
%ADD20C,0.685800*%
%TD*%
%TA.AperFunction,Conductor*%
%ADD21C,0.508000*%
%TD*%
%TA.AperFunction,Conductor*%
%ADD22C,0.254000*%
%TD*%
G04 APERTURE END LIST*
D10*
%TO.P,H1,1,1*%
%TO.N,GND*%
X95000000Y-64000000D03*
%TD*%
%TO.P,H2,1,1*%
%TO.N,GND*%
X119000000Y-64000000D03*
%TD*%
D11*
%TO.P,R5,1*%
%TO.N,/3V3*%
X99062000Y-63754000D03*
%TO.P,R5,2*%
%TO.N,Net-(D1-Pad2)*%
X98042000Y-63754000D03*
%TD*%
D12*
%TO.P,R1,1*%
%TO.N,/5V*%
X111379000Y-82804000D03*
D13*
%TO.P,R1,2*%
%TO.N,/A1*%
X111379000Y-85344000D03*
%TD*%
D14*
%TO.P,U2,1,VDD*%
%TO.N,/3V3*%
X107684000Y-75326000D03*
%TO.P,U2,2,SCL*%
%TO.N,/SCL*%
X107684000Y-74676000D03*
%TO.P,U2,3,GND*%
%TO.N,GND*%
X107684000Y-74026000D03*
%TO.P,U2,4*%
%TO.N,N/C*%
X106184000Y-74026000D03*
%TO.P,U2,5,INT*%
%TO.N,unconnected-(U2-Pad5)*%
X106184000Y-74676000D03*
%TO.P,U2,6,SDA*%
%TO.N,/SDA*%
X106184000Y-75326000D03*
%TD*%
D15*
%TO.P,C1,1*%
%TO.N,/3V3*%
X107386000Y-76708000D03*
%TO.P,C1,2*%
%TO.N,GND*%
X106426000Y-76708000D03*
%TD*%
D16*
%TO.P,R2,1*%
%TO.N,/A1*%
X114173000Y-84584000D03*
%TO.P,R2,2*%
%TO.N,GND*%
X114173000Y-83564000D03*
%TD*%
D17*
%TO.P,U3,1,E0*%
%TO.N,unconnected-(U3-Pad1)*%
X94107000Y-75627000D03*
%TO.P,U3,2,E1*%
%TO.N,unconnected-(U3-Pad2)*%
X95377000Y-75627000D03*
%TO.P,U3,3,E2*%
%TO.N,unconnected-(U3-Pad3)*%
X96647000Y-75627000D03*
%TO.P,U3,4,VSS*%
%TO.N,GND*%
X97917000Y-75627000D03*
%TO.P,U3,5,SDA*%
%TO.N,/SDA_EEPROM*%
X97917000Y-70677000D03*
%TO.P,U3,6,SCL*%
%TO.N,/SCL_EEPROM*%
X96647000Y-70677000D03*
%TO.P,U3,7,~{WC}*%
%TO.N,unconnected-(U3-Pad7)*%
X95377000Y-70677000D03*
%TO.P,U3,8,VCC*%
%TO.N,/3V3*%
X94107000Y-70677000D03*
%TD*%
D18*
%TO.P,R4,1*%
%TO.N,/A0*%
X115566000Y-77216000D03*
%TO.P,R4,2*%
%TO.N,GND*%
X116586000Y-77216000D03*
%TD*%
D19*
%TO.P,D1,1,K*%
%TO.N,GND*%
X98552000Y-66827500D03*
%TO.P,D1,2,A*%
%TO.N,Net-(D1-Pad2)*%
X98552000Y-65252500D03*
%TD*%
D12*
%TO.P,R3,1*%
%TO.N,/5V*%
X117298000Y-74676000D03*
D13*
%TO.P,R3,2*%
%TO.N,/A0*%
X114758000Y-74676000D03*
%TD*%
D20*
%TO.N,GND*%
X96012000Y-73152000D03*
X113538000Y-72009000D03*
X118364000Y-80391000D03*
X115189000Y-80391000D03*
X107950000Y-82804000D03*
X111252000Y-73914000D03*
X104013000Y-66675000D03*
X116459000Y-68961000D03*
X109855000Y-68707000D03*
X104013000Y-67564000D03*
X111125000Y-69977000D03*
X97282000Y-73152000D03*
X94742000Y-73152000D03*
X109220000Y-72263000D03*
X118237000Y-70104000D03*
X118364000Y-77597000D03*
X104013000Y-65786000D03*
%TO.N,/3V3*%
X106553000Y-78994000D03*
X104496500Y-63397500D03*
X104496500Y-62635500D03*
X94996000Y-68072000D03*
%TO.N,/SDA_EEPROM*%
X98806000Y-70358000D03*
%TO.N,/SDA*%
X110998000Y-66802000D03*
%TO.N,/SCL*%
X112014000Y-66802000D03*
%TO.N,/SCL_EEPROM*%
X100330000Y-70358000D03*
%TO.N,/5V*%
X108839000Y-69342000D03*
X102489000Y-63296800D03*
%TO.N,/A0*%
X107569000Y-63881000D03*
%TO.N,/A1*%
X106426000Y-62865000D03*
%TD*%
D21*
%TO.N,/A1*%
X106426000Y-62865000D02*
X106426000Y-62230000D01*
X113413000Y-85344000D02*
X111379000Y-85344000D01*
X106426000Y-62230000D02*
X106807000Y-61849000D01*
X106807000Y-61849000D02*
X114046000Y-61849000D01*
X114046000Y-61849000D02*
X115443000Y-63246000D01*
X115443000Y-63246000D02*
X115443000Y-65405000D01*
X115443000Y-65405000D02*
X119761000Y-69723000D01*
X119761000Y-69723000D02*
X119761000Y-83693000D01*
X119761000Y-83693000D02*
X118872000Y-84582000D01*
X118872000Y-84582000D02*
X114175000Y-84582000D01*
X114175000Y-84582000D02*
X113413000Y-85344000D01*
D22*
%TO.N,Net-(D1-Pad2)*%
X98042000Y-64514000D02*
X98042000Y-63754000D01*
X98552000Y-65024000D02*
X98042000Y-64514000D01*
X98552000Y-65252500D02*
X98552000Y-65024000D01*
%TO.N,/3V3*%
X99314000Y-68072000D02*
X94996000Y-68072000D01*
X107386000Y-76256000D02*
X107696000Y-75946000D01*
X104496500Y-62635500D02*
X103684600Y-61823600D01*
X107386000Y-76708000D02*
X107386000Y-76256000D01*
X94107000Y-68961000D02*
X94107000Y-70677000D01*
X100076000Y-67310000D02*
X99314000Y-68072000D01*
X99062000Y-62990000D02*
X99062000Y-63754000D01*
X100076000Y-64516000D02*
X100076000Y-67310000D01*
X103684600Y-61823600D02*
X100228400Y-61823600D01*
X99314000Y-63754000D02*
X100076000Y-64516000D01*
X104496500Y-63397500D02*
X104496500Y-62635500D01*
X99062000Y-63754000D02*
X99314000Y-63754000D01*
X107696000Y-75946000D02*
X107684000Y-75934000D01*
X107386000Y-78161000D02*
X106553000Y-78994000D01*
X94996000Y-68072000D02*
X94107000Y-68961000D01*
X107386000Y-76708000D02*
X107386000Y-78161000D01*
X100228400Y-61823600D02*
X99062000Y-62990000D01*
X107684000Y-75934000D02*
X107684000Y-75326000D01*
%TO.N,/SDA_EEPROM*%
X98806000Y-70358000D02*
X98236000Y-70358000D01*
X98236000Y-70358000D02*
X97917000Y-70677000D01*
%TO.N,/SDA*%
X104648000Y-73152000D02*
X106680000Y-71120000D01*
X106184000Y-75326000D02*
X105430000Y-75326000D01*
X104648000Y-74544000D02*
X104648000Y-73152000D01*
X106680000Y-71120000D02*
X106934000Y-71120000D01*
X110998000Y-68580000D02*
X110998000Y-66802000D01*
X106934000Y-71120000D02*
X108458000Y-71120000D01*
X105430000Y-75326000D02*
X104648000Y-74544000D01*
X108458000Y-71120000D02*
X110998000Y-68580000D01*
%TO.N,/SCL*%
X107684000Y-74676000D02*
X108438000Y-74676000D01*
X112014000Y-71100000D02*
X112014000Y-66802000D01*
X108438000Y-74676000D02*
X112014000Y-71100000D01*
%TO.N,/SCL_EEPROM*%
X97282000Y-68834000D02*
X96647000Y-69469000D01*
X100330000Y-70358000D02*
X98806000Y-68834000D01*
X96647000Y-69469000D02*
X96647000Y-70677000D01*
X98806000Y-68834000D02*
X97282000Y-68834000D01*
%TO.N,/5V*%
X103835200Y-64643000D02*
X105664000Y-64643000D01*
X108839000Y-67818000D02*
X108839000Y-69342000D01*
X102489000Y-63296800D02*
X103835200Y-64643000D01*
X105664000Y-64643000D02*
X108839000Y-67818000D01*
D21*
%TO.N,/A0*%
X112395000Y-65024000D02*
X114758000Y-67387000D01*
X107569000Y-63881000D02*
X107569000Y-64643000D01*
X107569000Y-64643000D02*
X107950000Y-65024000D01*
X114758000Y-74676000D02*
X114758000Y-76408000D01*
X114758000Y-76408000D02*
X115566000Y-77216000D01*
X107950000Y-65024000D02*
X112395000Y-65024000D01*
X114758000Y-67387000D02*
X114758000Y-74676000D01*
%TD*%
%TA.AperFunction,Conductor*%
%TO.N,GND*%
G36*
X93508556Y-61466002D02*
G01*
X93555049Y-61519658D01*
X93565153Y-61589932D01*
X93535659Y-61654512D01*
X93504858Y-61680285D01*
X93450196Y-61712805D01*
X93443945Y-61717053D01*
X93250733Y-61866115D01*
X93242267Y-61877773D01*
X93248871Y-61889661D01*
X94987188Y-63627978D01*
X95001132Y-63635592D01*
X95002965Y-63635461D01*
X95009580Y-63631210D01*
X96750162Y-61890628D01*
X96757174Y-61877787D01*
X96749379Y-61867098D01*
X96579886Y-61733481D01*
X96573663Y-61729156D01*
X96492326Y-61679605D01*
X96444557Y-61627082D01*
X96432767Y-61557071D01*
X96460699Y-61491800D01*
X96519485Y-61451992D01*
X96557879Y-61446000D01*
X99403077Y-61446000D01*
X99471198Y-61466002D01*
X99517691Y-61519658D01*
X99527795Y-61589932D01*
X99498301Y-61654512D01*
X99492172Y-61661095D01*
X98668517Y-62484750D01*
X98660191Y-62492326D01*
X98653697Y-62496447D01*
X98648274Y-62502222D01*
X98606915Y-62546265D01*
X98604160Y-62549107D01*
X98584361Y-62568906D01*
X98581937Y-62572031D01*
X98581929Y-62572040D01*
X98581863Y-62572126D01*
X98574155Y-62581151D01*
X98543783Y-62613494D01*
X98539965Y-62620438D01*
X98539964Y-62620440D01*
X98533978Y-62631329D01*
X98523127Y-62647847D01*
X98510650Y-62663933D01*
X98493024Y-62704666D01*
X98487807Y-62715314D01*
X98466431Y-62754197D01*
X98464460Y-62761872D01*
X98464458Y-62761878D01*
X98461369Y-62773911D01*
X98454966Y-62792613D01*
X98446883Y-62811292D01*
X98445644Y-62819114D01*
X98445643Y-62819118D01*
X98444104Y-62828838D01*
X98413692Y-62892991D01*
X98353425Y-62930518D01*
X98291191Y-62930161D01*
X98290979Y-62931323D01*
X98284643Y-62930165D01*
X98278466Y-62928371D01*
X98272059Y-62927867D01*
X98272055Y-62927866D01*
X98244444Y-62925693D01*
X98244438Y-62925693D01*
X98241989Y-62925500D01*
X98042122Y-62925500D01*
X97842012Y-62925501D01*
X97805534Y-62928371D01*
X97752806Y-62943690D01*
X97677727Y-62965502D01*
X97606730Y-62965299D01*
X97547114Y-62926745D01*
X97527602Y-62896055D01*
X97450172Y-62723363D01*
X97446655Y-62716636D01*
X97279054Y-62438252D01*
X97274757Y-62431999D01*
X97133617Y-62251022D01*
X97121823Y-62242551D01*
X97110113Y-62249097D01*
X95372022Y-63987188D01*
X95364408Y-64001132D01*
X95364539Y-64002965D01*
X95368790Y-64009580D01*
X97108825Y-65749615D01*
X97121948Y-65756781D01*
X97132250Y-65749391D01*
X97241429Y-65615285D01*
X97245842Y-65609144D01*
X97336608Y-65465287D01*
X97389874Y-65418349D01*
X97460062Y-65407659D01*
X97524886Y-65436613D01*
X97563766Y-65496018D01*
X97567934Y-65519631D01*
X97568500Y-65519572D01*
X97579022Y-65620982D01*
X97632692Y-65781849D01*
X97721929Y-65926055D01*
X97746906Y-65950988D01*
X97747159Y-65951241D01*
X97781238Y-66013523D01*
X97776235Y-66084343D01*
X97747314Y-66129432D01*
X97726702Y-66150080D01*
X97717690Y-66161491D01*
X97636447Y-66293291D01*
X97630303Y-66306468D01*
X97581421Y-66453843D01*
X97578555Y-66467210D01*
X97569386Y-66556700D01*
X97573475Y-66570624D01*
X97574865Y-66571829D01*
X97582548Y-66573500D01*
X98680000Y-66573500D01*
X98748121Y-66593502D01*
X98794614Y-66647158D01*
X98806000Y-66699500D01*
X98806000Y-66955500D01*
X98785998Y-67023621D01*
X98732342Y-67070114D01*
X98680000Y-67081500D01*
X97587115Y-67081500D01*
X97571876Y-67085975D01*
X97570671Y-67087365D01*
X97569158Y-67094321D01*
X97569337Y-67097782D01*
X97578804Y-67189021D01*
X97581697Y-67202417D01*
X97604453Y-67270624D01*
X97607037Y-67341573D01*
X97570854Y-67402657D01*
X97507390Y-67434482D01*
X97484929Y-67436500D01*
X95610738Y-67436500D01*
X95542617Y-67416498D01*
X95536677Y-67412436D01*
X95429387Y-67334485D01*
X95429386Y-67334484D01*
X95424045Y-67330604D01*
X95418017Y-67327920D01*
X95418015Y-67327919D01*
X95266577Y-67260495D01*
X95266576Y-67260495D01*
X95260546Y-67257810D01*
X95160638Y-67236574D01*
X95091943Y-67221972D01*
X95091939Y-67221972D01*
X95085486Y-67220600D01*
X94906514Y-67220600D01*
X94900061Y-67221972D01*
X94900057Y-67221972D01*
X94831362Y-67236574D01*
X94731454Y-67257810D01*
X94725424Y-67260495D01*
X94725423Y-67260495D01*
X94573985Y-67327919D01*
X94573983Y-67327920D01*
X94567955Y-67330604D01*
X94562614Y-67334484D01*
X94562613Y-67334485D01*
X94445200Y-67419791D01*
X94423164Y-67435801D01*
X94418743Y-67440711D01*
X94418742Y-67440712D01*
X94368981Y-67495978D01*
X94303409Y-67568803D01*
X94213923Y-67723797D01*
X94201463Y-67762144D01*
X94161494Y-67885159D01*
X94158618Y-67894009D01*
X94157928Y-67900572D01*
X94157928Y-67900573D01*
X94149582Y-67979976D01*
X94122568Y-68045633D01*
X94113367Y-68055900D01*
X93713517Y-68455750D01*
X93705191Y-68463326D01*
X93698697Y-68467447D01*
X93693274Y-68473222D01*
X93651915Y-68517265D01*
X93649160Y-68520107D01*
X93629361Y-68539906D01*
X93626937Y-68543031D01*
X93626929Y-68543040D01*
X93626863Y-68543126D01*
X93619155Y-68552151D01*
X93588783Y-68584494D01*
X93584965Y-68591438D01*
X93584964Y-68591440D01*
X93578978Y-68602329D01*
X93568127Y-68618847D01*
X93555650Y-68634933D01*
X93538024Y-68675666D01*
X93532807Y-68686314D01*
X93511431Y-68725197D01*
X93509460Y-68732872D01*
X93509458Y-68732878D01*
X93506369Y-68744911D01*
X93499966Y-68763613D01*
X93491883Y-68782292D01*
X93490644Y-68790117D01*
X93484940Y-68826127D01*
X93482535Y-68837740D01*
X93471500Y-68880718D01*
X93471500Y-68901065D01*
X93469949Y-68920776D01*
X93466765Y-68940879D01*
X93467511Y-68948771D01*
X93470941Y-68985056D01*
X93471500Y-68996914D01*
X93471500Y-69354050D01*
X93451498Y-69422171D01*
X93442702Y-69433085D01*
X93443011Y-69433325D01*
X93438155Y-69439585D01*
X93432547Y-69445193D01*
X93428511Y-69452017D01*
X93428509Y-69452020D01*
X93392193Y-69513427D01*
X93347855Y-69588399D01*
X93301438Y-69748169D01*
X93300934Y-69754574D01*
X93300933Y-69754579D01*
X93298693Y-69783042D01*
X93298500Y-69785498D01*
X93298500Y-71568502D01*
X93298693Y-71570950D01*
X93298693Y-71570958D01*
X93300899Y-71598977D01*
X93301438Y-71605831D01*
X93322016Y-71676660D01*
X93345490Y-71757459D01*
X93347855Y-71765601D01*
X93351892Y-71772427D01*
X93428509Y-71901980D01*
X93428511Y-71901983D01*
X93432547Y-71908807D01*
X93550193Y-72026453D01*
X93557017Y-72030489D01*
X93557020Y-72030491D01*
X93664589Y-72094107D01*
X93693399Y-72111145D01*
X93701010Y-72113356D01*
X93701012Y-72113357D01*
X93753231Y-72128528D01*
X93853169Y-72157562D01*
X93859574Y-72158066D01*
X93859579Y-72158067D01*
X93888042Y-72160307D01*
X93888050Y-72160307D01*
X93890498Y-72160500D01*
X94323502Y-72160500D01*
X94325950Y-72160307D01*
X94325958Y-72160307D01*
X94354421Y-72158067D01*
X94354426Y-72158066D01*
X94360831Y-72157562D01*
X94460769Y-72128528D01*
X94512988Y-72113357D01*
X94512990Y-72113356D01*
X94520601Y-72111145D01*
X94663807Y-72026453D01*
X94666489Y-72023771D01*
X94730861Y-71998498D01*
X94800484Y-72012400D01*
X94816312Y-72022572D01*
X94820193Y-72026453D01*
X94963399Y-72111145D01*
X94971010Y-72113356D01*
X94971012Y-72113357D01*
X95023231Y-72128528D01*
X95123169Y-72157562D01*
X95129574Y-72158066D01*
X95129579Y-72158067D01*
X95158042Y-72160307D01*
X95158050Y-72160307D01*
X95160498Y-72160500D01*
X95593502Y-72160500D01*
X95595950Y-72160307D01*
X95595958Y-72160307D01*
X95624421Y-72158067D01*
X95624426Y-72158066D01*
X95630831Y-72157562D01*
X95730769Y-72128528D01*
X95782988Y-72113357D01*
X95782990Y-72113356D01*
X95790601Y-72111145D01*
X95933807Y-72026453D01*
X95936489Y-72023771D01*
X96000861Y-71998498D01*
X96070484Y-72012400D01*
X96086312Y-72022572D01*
X96090193Y-72026453D01*
X96233399Y-72111145D01*
X96241010Y-72113356D01*
X96241012Y-72113357D01*
X96293231Y-72128528D01*
X96393169Y-72157562D01*
X96399574Y-72158066D01*
X96399579Y-72158067D01*
X96428042Y-72160307D01*
X96428050Y-72160307D01*
X96430498Y-72160500D01*
X96863502Y-72160500D01*
X96865950Y-72160307D01*
X96865958Y-72160307D01*
X96894421Y-72158067D01*
X96894426Y-72158066D01*
X96900831Y-72157562D01*
X97000769Y-72128528D01*
X97052988Y-72113357D01*
X97052990Y-72113356D01*
X97060601Y-72111145D01*
X97203807Y-72026453D01*
X97206489Y-72023771D01*
X97270861Y-71998498D01*
X97340484Y-72012400D01*
X97356312Y-72022572D01*
X97360193Y-72026453D01*
X97503399Y-72111145D01*
X97511010Y-72113356D01*
X97511012Y-72113357D01*
X97563231Y-72128528D01*
X97663169Y-72157562D01*
X97669574Y-72158066D01*
X97669579Y-72158067D01*
X97698042Y-72160307D01*
X97698050Y-72160307D01*
X97700498Y-72160500D01*
X98133502Y-72160500D01*
X98135950Y-72160307D01*
X98135958Y-72160307D01*
X98164421Y-72158067D01*
X98164426Y-72158066D01*
X98170831Y-72157562D01*
X98270769Y-72128528D01*
X98322988Y-72113357D01*
X98322990Y-72113356D01*
X98330601Y-72111145D01*
X98359411Y-72094107D01*
X98466980Y-72030491D01*
X98466983Y-72030489D01*
X98473807Y-72026453D01*
X98591453Y-71908807D01*
X98595489Y-71901983D01*
X98595491Y-71901980D01*
X98672108Y-71772427D01*
X98676145Y-71765601D01*
X98678511Y-71757459D01*
X98701984Y-71676660D01*
X98722562Y-71605831D01*
X98723102Y-71598977D01*
X98725307Y-71570958D01*
X98725307Y-71570950D01*
X98725500Y-71568502D01*
X98725500Y-71335400D01*
X98745502Y-71267279D01*
X98799158Y-71220786D01*
X98851500Y-71209400D01*
X98895486Y-71209400D01*
X98901939Y-71208028D01*
X98901943Y-71208028D01*
X98996372Y-71187956D01*
X99070546Y-71172190D01*
X99076577Y-71169505D01*
X99228015Y-71102081D01*
X99228017Y-71102080D01*
X99234045Y-71099396D01*
X99266324Y-71075944D01*
X99373492Y-70998082D01*
X99373494Y-70998080D01*
X99378836Y-70994199D01*
X99474364Y-70888104D01*
X99534810Y-70850864D01*
X99605793Y-70852216D01*
X99661636Y-70888104D01*
X99757164Y-70994199D01*
X99762506Y-70998080D01*
X99762508Y-70998082D01*
X99869676Y-71075944D01*
X99901955Y-71099396D01*
X99907983Y-71102080D01*
X99907985Y-71102081D01*
X100059423Y-71169505D01*
X100065454Y-71172190D01*
X100139628Y-71187956D01*
X100234057Y-71208028D01*
X100234061Y-71208028D01*
X100240514Y-71209400D01*
X100419486Y-71209400D01*
X100425939Y-71208028D01*
X100425943Y-71208028D01*
X100520372Y-71187956D01*
X100594546Y-71172190D01*
X100600577Y-71169505D01*
X100752015Y-71102081D01*
X100752017Y-71102080D01*
X100758045Y-71099396D01*
X100790324Y-71075944D01*
X100897492Y-70998082D01*
X100897494Y-70998080D01*
X100902836Y-70994199D01*
X101022591Y-70861197D01*
X101112077Y-70706203D01*
X101160010Y-70558681D01*
X101165342Y-70542270D01*
X101165342Y-70542269D01*
X101167382Y-70535991D01*
X101171609Y-70495780D01*
X101185400Y-70364565D01*
X101186090Y-70358000D01*
X101185400Y-70351435D01*
X101168072Y-70186573D01*
X101168072Y-70186572D01*
X101167382Y-70180009D01*
X101151367Y-70130718D01*
X101114119Y-70016082D01*
X101112077Y-70009797D01*
X101090999Y-69973288D01*
X101025892Y-69860521D01*
X101022591Y-69854803D01*
X100957978Y-69783042D01*
X100907258Y-69726712D01*
X100907257Y-69726711D01*
X100902836Y-69721801D01*
X100867223Y-69695926D01*
X100763387Y-69620485D01*
X100763386Y-69620484D01*
X100758045Y-69616604D01*
X100752017Y-69613920D01*
X100752015Y-69613919D01*
X100600577Y-69546495D01*
X100600576Y-69546495D01*
X100594546Y-69543810D01*
X100419486Y-69506600D01*
X100416347Y-69506600D01*
X100351878Y-69480079D01*
X100341607Y-69470874D01*
X99659507Y-68788774D01*
X99625481Y-68726462D01*
X99630546Y-68655647D01*
X99673093Y-68598811D01*
X99684460Y-68591227D01*
X99699771Y-68582172D01*
X99699774Y-68582170D01*
X99706598Y-68578134D01*
X99720982Y-68563750D01*
X99736016Y-68550909D01*
X99746073Y-68543602D01*
X99752487Y-68538942D01*
X99780773Y-68504750D01*
X99788763Y-68495969D01*
X100469488Y-67815245D01*
X100477807Y-67807675D01*
X100484303Y-67803553D01*
X100531086Y-67753734D01*
X100533840Y-67750893D01*
X100553639Y-67731094D01*
X100556063Y-67727969D01*
X100556071Y-67727960D01*
X100556137Y-67727874D01*
X100563845Y-67718849D01*
X100588790Y-67692285D01*
X100594217Y-67686506D01*
X100604023Y-67668669D01*
X100614873Y-67652153D01*
X100627350Y-67636067D01*
X100644976Y-67595334D01*
X100650193Y-67584686D01*
X100667749Y-67552751D01*
X100671569Y-67545803D01*
X100673540Y-67538128D01*
X100673542Y-67538122D01*
X100676631Y-67526089D01*
X100683034Y-67507387D01*
X100691117Y-67488708D01*
X100698060Y-67444873D01*
X100700467Y-67433251D01*
X100700729Y-67432232D01*
X100711500Y-67390282D01*
X100711500Y-67369935D01*
X100713051Y-67350224D01*
X100714995Y-67337950D01*
X100716235Y-67330121D01*
X100712059Y-67285944D01*
X100711500Y-67274086D01*
X100711500Y-64690687D01*
X100731502Y-64622566D01*
X100785158Y-64576073D01*
X100855432Y-64565969D01*
X100921810Y-64597051D01*
X100945463Y-64618348D01*
X100945467Y-64618351D01*
X100950376Y-64622771D01*
X100956097Y-64626074D01*
X101089062Y-64702841D01*
X101112124Y-64716156D01*
X101118410Y-64718198D01*
X101118409Y-64718198D01*
X101283474Y-64771831D01*
X101283475Y-64771831D01*
X101289753Y-64773871D01*
X101296316Y-64774561D01*
X101296317Y-64774561D01*
X101319097Y-64776955D01*
X101428937Y-64788500D01*
X101522063Y-64788500D01*
X101631903Y-64776955D01*
X101654683Y-64774561D01*
X101654684Y-64774561D01*
X101661247Y-64773871D01*
X101667525Y-64771831D01*
X101667526Y-64771831D01*
X101832591Y-64718198D01*
X101832590Y-64718198D01*
X101838876Y-64716156D01*
X101861939Y-64702841D01*
X101994903Y-64626074D01*
X102000624Y-64622771D01*
X102007913Y-64616208D01*
X102134518Y-64502212D01*
X102134519Y-64502210D01*
X102139421Y-64497797D01*
X102171446Y-64453719D01*
X102245321Y-64352039D01*
X102245322Y-64352038D01*
X102249202Y-64346697D01*
X102287087Y-64261607D01*
X102295078Y-64243658D01*
X102341058Y-64189562D01*
X102408986Y-64168913D01*
X102477294Y-64188265D01*
X102499280Y-64205812D01*
X103329945Y-65036477D01*
X103337522Y-65044803D01*
X103341647Y-65051303D01*
X103347425Y-65056729D01*
X103347426Y-65056730D01*
X103391481Y-65098100D01*
X103394323Y-65100855D01*
X103414106Y-65120638D01*
X103417314Y-65123126D01*
X103426343Y-65130837D01*
X103458694Y-65161217D01*
X103465643Y-65165037D01*
X103476529Y-65171022D01*
X103493053Y-65181876D01*
X103509133Y-65194349D01*
X103516410Y-65197498D01*
X103549850Y-65211969D01*
X103560511Y-65217192D01*
X103592447Y-65234749D01*
X103592452Y-65234751D01*
X103599397Y-65238569D01*
X103607071Y-65240539D01*
X103607078Y-65240542D01*
X103619113Y-65243632D01*
X103637818Y-65250036D01*
X103649213Y-65254967D01*
X103656492Y-65258117D01*
X103683542Y-65262401D01*
X103700327Y-65265060D01*
X103711940Y-65267465D01*
X103754918Y-65278500D01*
X103775265Y-65278500D01*
X103794977Y-65280051D01*
X103815079Y-65283235D01*
X103822971Y-65282489D01*
X103859256Y-65279059D01*
X103871114Y-65278500D01*
X105348578Y-65278500D01*
X105416699Y-65298502D01*
X105437673Y-65315405D01*
X108166595Y-68044328D01*
X108200621Y-68106640D01*
X108203500Y-68133423D01*
X108203500Y-68727031D01*
X108183498Y-68795152D01*
X108171142Y-68811335D01*
X108146409Y-68838803D01*
X108143108Y-68844521D01*
X108061970Y-68985056D01*
X108056923Y-68993797D01*
X108045775Y-69028107D01*
X108024855Y-69092494D01*
X108001618Y-69164009D01*
X108000928Y-69170572D01*
X108000928Y-69170573D01*
X107993563Y-69240643D01*
X107982910Y-69342000D01*
X107983600Y-69348565D01*
X108000211Y-69506600D01*
X108001618Y-69519991D01*
X108056923Y-69690203D01*
X108060226Y-69695925D01*
X108060227Y-69695926D01*
X108086823Y-69741992D01*
X108146409Y-69845197D01*
X108266164Y-69978199D01*
X108398707Y-70074497D01*
X108442060Y-70130718D01*
X108448135Y-70201454D01*
X108413740Y-70265527D01*
X108231672Y-70447595D01*
X108169360Y-70481621D01*
X108142577Y-70484500D01*
X106759032Y-70484500D01*
X106747793Y-70483970D01*
X106740281Y-70482291D01*
X106732356Y-70482540D01*
X106732355Y-70482540D01*
X106671970Y-70484438D01*
X106668012Y-70484500D01*
X106640017Y-70484500D01*
X106636083Y-70484997D01*
X106636081Y-70484997D01*
X106635994Y-70485008D01*
X106624160Y-70485940D01*
X106579795Y-70487335D01*
X106572182Y-70489547D01*
X106572181Y-70489547D01*
X106560252Y-70493013D01*
X106540888Y-70497023D01*
X106528560Y-70498580D01*
X106528558Y-70498580D01*
X106520701Y-70499573D01*
X106513337Y-70502489D01*
X106513332Y-70502490D01*
X106479444Y-70515907D01*
X106468215Y-70519752D01*
X106451535Y-70524598D01*
X106425607Y-70532131D01*
X106418780Y-70536169D01*
X106418777Y-70536170D01*
X106408094Y-70542488D01*
X106390336Y-70551188D01*
X106378785Y-70555761D01*
X106378779Y-70555765D01*
X106371412Y-70558681D01*
X106365001Y-70563339D01*
X106364999Y-70563340D01*
X106335512Y-70584764D01*
X106325590Y-70591281D01*
X106294232Y-70609826D01*
X106294228Y-70609829D01*
X106287402Y-70613866D01*
X106273018Y-70628250D01*
X106257984Y-70641091D01*
X106241513Y-70653058D01*
X106236460Y-70659166D01*
X106213223Y-70687255D01*
X106205233Y-70696035D01*
X104254517Y-72646750D01*
X104246191Y-72654326D01*
X104239697Y-72658447D01*
X104234274Y-72664222D01*
X104192915Y-72708265D01*
X104190160Y-72711107D01*
X104170361Y-72730906D01*
X104167937Y-72734031D01*
X104167929Y-72734040D01*
X104167863Y-72734126D01*
X104160155Y-72743151D01*
X104129783Y-72775494D01*
X104125965Y-72782438D01*
X104125964Y-72782440D01*
X104119978Y-72793329D01*
X104109127Y-72809847D01*
X104096650Y-72825933D01*
X104079024Y-72866666D01*
X104073807Y-72877314D01*
X104052431Y-72916197D01*
X104050460Y-72923872D01*
X104050458Y-72923878D01*
X104047369Y-72935911D01*
X104040966Y-72954613D01*
X104032883Y-72973292D01*
X104031644Y-72981117D01*
X104025940Y-73017127D01*
X104023535Y-73028740D01*
X104012500Y-73071718D01*
X104012500Y-73092065D01*
X104010949Y-73111776D01*
X104007765Y-73131879D01*
X104008511Y-73139771D01*
X104011941Y-73176056D01*
X104012500Y-73187914D01*
X104012500Y-74464980D01*
X104011970Y-74476214D01*
X104010292Y-74483719D01*
X104010541Y-74491638D01*
X104012438Y-74552012D01*
X104012500Y-74555969D01*
X104012500Y-74583983D01*
X104012996Y-74587908D01*
X104012996Y-74587909D01*
X104013008Y-74588004D01*
X104013941Y-74599849D01*
X104015335Y-74644205D01*
X104017547Y-74651817D01*
X104021013Y-74663748D01*
X104025023Y-74683112D01*
X104027573Y-74703299D01*
X104030489Y-74710663D01*
X104030490Y-74710668D01*
X104043907Y-74744556D01*
X104047752Y-74755785D01*
X104060131Y-74798393D01*
X104064169Y-74805220D01*
X104064170Y-74805223D01*
X104070488Y-74815906D01*
X104079188Y-74833664D01*
X104083761Y-74845215D01*
X104083765Y-74845221D01*
X104086681Y-74852588D01*
X104091339Y-74858999D01*
X104091340Y-74859001D01*
X104112764Y-74888488D01*
X104119281Y-74898410D01*
X104137826Y-74929768D01*
X104137829Y-74929772D01*
X104141866Y-74936598D01*
X104156250Y-74950982D01*
X104169091Y-74966016D01*
X104181058Y-74982487D01*
X104201228Y-74999173D01*
X104215250Y-75010773D01*
X104224031Y-75018763D01*
X104924755Y-75719488D01*
X104932325Y-75727807D01*
X104936447Y-75734303D01*
X104984994Y-75779891D01*
X104986265Y-75781085D01*
X104989107Y-75783840D01*
X105008906Y-75803639D01*
X105012031Y-75806063D01*
X105012040Y-75806071D01*
X105012126Y-75806137D01*
X105021151Y-75813845D01*
X105053494Y-75844217D01*
X105060438Y-75848035D01*
X105060440Y-75848036D01*
X105071329Y-75854022D01*
X105087847Y-75864873D01*
X105103933Y-75877350D01*
X105144666Y-75894976D01*
X105155314Y-75900193D01*
X105194197Y-75921569D01*
X105201872Y-75923540D01*
X105201878Y-75923542D01*
X105213911Y-75926631D01*
X105232613Y-75933034D01*
X105251292Y-75941117D01*
X105285128Y-75946476D01*
X105295127Y-75948060D01*
X105306740Y-75950465D01*
X105349718Y-75961500D01*
X105370065Y-75961500D01*
X105389776Y-75963051D01*
X105403900Y-75965288D01*
X105437270Y-75976682D01*
X105437295Y-75976615D01*
X105573684Y-76027745D01*
X105581536Y-76028598D01*
X105581540Y-76028599D01*
X105616774Y-76032426D01*
X105624784Y-76033296D01*
X105690346Y-76060538D01*
X105730773Y-76118900D01*
X105733229Y-76189854D01*
X105719631Y-76222698D01*
X105690604Y-76271780D01*
X105684357Y-76286216D01*
X105642688Y-76429641D01*
X105641232Y-76437609D01*
X105644052Y-76451031D01*
X105655513Y-76454000D01*
X106471500Y-76454000D01*
X106539621Y-76474002D01*
X106586114Y-76527658D01*
X106597500Y-76580000D01*
X106597500Y-76943484D01*
X106597693Y-76945932D01*
X106597693Y-76945940D01*
X106599468Y-76968484D01*
X106600394Y-76980254D01*
X106629084Y-77079005D01*
X106638178Y-77110307D01*
X106646106Y-77137597D01*
X106650141Y-77144419D01*
X106650141Y-77144420D01*
X106662454Y-77165240D01*
X106680000Y-77229379D01*
X106680000Y-77501558D01*
X106684475Y-77516797D01*
X106707013Y-77536327D01*
X106745396Y-77596053D01*
X106750500Y-77631551D01*
X106750500Y-77845577D01*
X106730498Y-77913698D01*
X106713595Y-77934673D01*
X106541392Y-78106875D01*
X106479080Y-78140900D01*
X106468506Y-78142600D01*
X106463514Y-78142600D01*
X106457060Y-78143972D01*
X106457058Y-78143972D01*
X106399536Y-78156199D01*
X106288454Y-78179810D01*
X106282424Y-78182495D01*
X106282423Y-78182495D01*
X106130985Y-78249919D01*
X106130983Y-78249920D01*
X106124955Y-78252604D01*
X106119614Y-78256484D01*
X106119613Y-78256485D01*
X105995061Y-78346978D01*
X105980164Y-78357801D01*
X105975743Y-78362711D01*
X105975742Y-78362712D01*
X105938791Y-78403751D01*
X105860409Y-78490803D01*
X105770923Y-78645797D01*
X105715618Y-78816009D01*
X105696910Y-78994000D01*
X105715618Y-79171991D01*
X105770923Y-79342203D01*
X105860409Y-79497197D01*
X105980164Y-79630199D01*
X106124955Y-79735396D01*
X106130983Y-79738080D01*
X106130985Y-79738081D01*
X106282423Y-79805505D01*
X106288454Y-79808190D01*
X106375984Y-79826795D01*
X106457057Y-79844028D01*
X106457061Y-79844028D01*
X106463514Y-79845400D01*
X106642486Y-79845400D01*
X106648939Y-79844028D01*
X106648943Y-79844028D01*
X106730016Y-79826795D01*
X106817546Y-79808190D01*
X106823577Y-79805505D01*
X106975015Y-79738081D01*
X106975017Y-79738080D01*
X106981045Y-79735396D01*
X107125836Y-79630199D01*
X107245591Y-79497197D01*
X107335077Y-79342203D01*
X107390382Y-79171991D01*
X107399418Y-79086024D01*
X107426432Y-79020367D01*
X107435633Y-79010100D01*
X107779483Y-78666250D01*
X107787809Y-78658674D01*
X107794303Y-78654553D01*
X107841086Y-78604734D01*
X107843840Y-78601893D01*
X107863639Y-78582094D01*
X107866063Y-78578969D01*
X107866071Y-78578960D01*
X107866137Y-78578874D01*
X107873845Y-78569849D01*
X107898790Y-78543285D01*
X107904217Y-78537506D01*
X107914023Y-78519669D01*
X107924873Y-78503153D01*
X107937350Y-78487067D01*
X107954976Y-78446334D01*
X107960193Y-78435686D01*
X107977749Y-78403751D01*
X107981569Y-78396803D01*
X107983540Y-78389128D01*
X107983542Y-78389122D01*
X107986631Y-78377089D01*
X107993034Y-78358387D01*
X108001117Y-78339708D01*
X108008060Y-78295873D01*
X108010467Y-78284251D01*
X108021500Y-78241282D01*
X108021500Y-78220935D01*
X108023051Y-78201224D01*
X108024995Y-78188950D01*
X108026235Y-78181121D01*
X108022059Y-78136944D01*
X108021500Y-78125086D01*
X108021500Y-77347205D01*
X108041281Y-77279836D01*
X108042488Y-77278629D01*
X108125894Y-77137597D01*
X108133823Y-77110307D01*
X108142916Y-77079005D01*
X108171606Y-76980254D01*
X108172533Y-76968484D01*
X108174307Y-76945940D01*
X108174307Y-76945932D01*
X108174500Y-76943484D01*
X108174500Y-76472516D01*
X108171606Y-76435746D01*
X108172158Y-76435703D01*
X108179143Y-76369359D01*
X108201144Y-76333996D01*
X108220544Y-76311991D01*
X108225787Y-76306044D01*
X108229557Y-76298645D01*
X108242263Y-76278623D01*
X108242489Y-76278332D01*
X108247349Y-76272067D01*
X108268714Y-76222698D01*
X108269731Y-76220347D01*
X108273101Y-76213186D01*
X108295084Y-76170042D01*
X108295085Y-76170041D01*
X108298682Y-76162980D01*
X108300410Y-76155247D01*
X108300413Y-76155240D01*
X108300495Y-76154872D01*
X108307819Y-76132329D01*
X108307968Y-76131985D01*
X108307968Y-76131984D01*
X108311117Y-76124708D01*
X108317021Y-76087431D01*
X108347433Y-76023279D01*
X108397239Y-75989161D01*
X108430705Y-75976615D01*
X108547261Y-75889261D01*
X108634615Y-75772705D01*
X108685745Y-75636316D01*
X108692500Y-75574134D01*
X108692500Y-75340436D01*
X108712502Y-75272315D01*
X108747962Y-75239211D01*
X108746588Y-75237319D01*
X108782488Y-75211236D01*
X108792410Y-75204719D01*
X108823768Y-75186174D01*
X108823772Y-75186171D01*
X108830598Y-75182134D01*
X108844982Y-75167750D01*
X108860016Y-75154909D01*
X108870073Y-75147602D01*
X108876487Y-75142942D01*
X108904778Y-75108744D01*
X108912767Y-75099965D01*
X112407483Y-71605250D01*
X112415809Y-71597674D01*
X112422303Y-71593553D01*
X112469086Y-71543734D01*
X112471840Y-71540893D01*
X112491639Y-71521094D01*
X112494063Y-71517969D01*
X112494071Y-71517960D01*
X112494137Y-71517874D01*
X112501845Y-71508849D01*
X112526790Y-71482285D01*
X112532217Y-71476506D01*
X112542023Y-71458669D01*
X112552873Y-71442153D01*
X112565350Y-71426067D01*
X112582976Y-71385334D01*
X112588193Y-71374686D01*
X112605749Y-71342751D01*
X112609569Y-71335803D01*
X112611540Y-71328128D01*
X112611542Y-71328122D01*
X112614631Y-71316089D01*
X112621034Y-71297387D01*
X112629117Y-71278708D01*
X112636060Y-71234873D01*
X112638467Y-71223251D01*
X112639100Y-71220786D01*
X112649500Y-71180282D01*
X112649500Y-71159935D01*
X112651051Y-71140224D01*
X112652995Y-71127950D01*
X112654235Y-71120121D01*
X112650059Y-71075944D01*
X112649500Y-71064086D01*
X112649500Y-67416969D01*
X112669502Y-67348848D01*
X112681858Y-67332665D01*
X112706591Y-67305197D01*
X112796077Y-67150203D01*
X112851382Y-66979991D01*
X112863836Y-66861503D01*
X112890850Y-66795846D01*
X112949071Y-66755217D01*
X113020016Y-66752514D01*
X113078241Y-66785579D01*
X113958595Y-67665933D01*
X113992621Y-67728245D01*
X113995500Y-67755028D01*
X113995500Y-73677233D01*
X113975498Y-73745354D01*
X113958595Y-73766328D01*
X113828699Y-73896224D01*
X113707411Y-74069442D01*
X113705090Y-74074420D01*
X113705088Y-74074423D01*
X113620367Y-74256108D01*
X113618044Y-74261090D01*
X113616622Y-74266398D01*
X113616621Y-74266400D01*
X113582111Y-74395193D01*
X113563314Y-74465345D01*
X113544884Y-74676000D01*
X113563314Y-74886655D01*
X113564738Y-74891968D01*
X113564738Y-74891970D01*
X113578200Y-74942209D01*
X113618044Y-75090910D01*
X113620366Y-75095891D01*
X113620367Y-75095892D01*
X113702635Y-75272315D01*
X113707411Y-75282558D01*
X113828699Y-75455776D01*
X113958595Y-75585672D01*
X113992621Y-75647984D01*
X113995500Y-75674767D01*
X113995500Y-76340624D01*
X113994067Y-76359574D01*
X113991876Y-76373973D01*
X113991876Y-76373979D01*
X113990776Y-76381208D01*
X113991369Y-76388500D01*
X113991369Y-76388503D01*
X113995085Y-76434183D01*
X113995500Y-76444398D01*
X113995500Y-76452525D01*
X113998811Y-76480924D01*
X113999238Y-76485244D01*
X114005191Y-76558426D01*
X114007447Y-76565388D01*
X114008643Y-76571376D01*
X114010051Y-76577333D01*
X114010899Y-76584607D01*
X114013397Y-76591489D01*
X114013398Y-76591493D01*
X114035945Y-76653607D01*
X114037355Y-76657711D01*
X114059987Y-76727575D01*
X114063787Y-76733838D01*
X114066325Y-76739380D01*
X114069067Y-76744856D01*
X114071566Y-76751741D01*
X114075581Y-76757865D01*
X114111815Y-76813132D01*
X114114130Y-76816800D01*
X114152227Y-76879581D01*
X114155941Y-76883786D01*
X114155943Y-76883789D01*
X114159667Y-76888005D01*
X114159638Y-76888031D01*
X114162238Y-76890962D01*
X114165042Y-76894316D01*
X114169054Y-76900435D01*
X114199772Y-76929534D01*
X114225586Y-76953988D01*
X114228028Y-76956366D01*
X114774145Y-77502483D01*
X114806047Y-77556424D01*
X114835731Y-77658596D01*
X114918494Y-77798541D01*
X115033459Y-77913506D01*
X115040280Y-77917540D01*
X115165797Y-77991770D01*
X115173404Y-77996269D01*
X115181015Y-77998480D01*
X115181017Y-77998481D01*
X115247858Y-78017900D01*
X115329534Y-78041629D01*
X115335941Y-78042133D01*
X115335945Y-78042134D01*
X115363556Y-78044307D01*
X115363562Y-78044307D01*
X115366011Y-78044500D01*
X115565878Y-78044500D01*
X115765988Y-78044499D01*
X115802466Y-78041629D01*
X115899270Y-78013505D01*
X115950983Y-77998481D01*
X115950985Y-77998480D01*
X115958596Y-77996269D01*
X116012353Y-77964477D01*
X116081166Y-77947018D01*
X116140630Y-77964478D01*
X116186780Y-77991771D01*
X116201217Y-77998019D01*
X116314605Y-78030961D01*
X116328705Y-78030921D01*
X116332000Y-78023651D01*
X116332000Y-78017900D01*
X116840000Y-78017900D01*
X116843973Y-78031431D01*
X116851871Y-78032566D01*
X116970783Y-77998019D01*
X116985222Y-77991770D01*
X117111405Y-77917146D01*
X117123841Y-77907499D01*
X117227499Y-77803841D01*
X117237146Y-77791405D01*
X117311770Y-77665222D01*
X117318019Y-77650783D01*
X117359338Y-77508564D01*
X117361637Y-77495977D01*
X117362260Y-77488057D01*
X117359090Y-77472970D01*
X117347626Y-77470000D01*
X116858115Y-77470000D01*
X116842876Y-77474475D01*
X116841671Y-77475865D01*
X116840000Y-77483548D01*
X116840000Y-78017900D01*
X116332000Y-78017900D01*
X116332000Y-77553542D01*
X116337003Y-77518390D01*
X116339834Y-77508647D01*
X116339835Y-77508640D01*
X116341629Y-77502466D01*
X116343426Y-77479643D01*
X116344307Y-77468444D01*
X116344307Y-77468438D01*
X116344500Y-77465989D01*
X116344499Y-76966012D01*
X116342758Y-76943885D01*
X116840000Y-76943885D01*
X116844475Y-76959124D01*
X116845865Y-76960329D01*
X116853548Y-76962000D01*
X117345566Y-76962000D01*
X117360361Y-76957656D01*
X117362421Y-76945997D01*
X117361637Y-76936023D01*
X117359338Y-76923436D01*
X117318019Y-76781217D01*
X117311770Y-76766778D01*
X117237146Y-76640595D01*
X117227499Y-76628159D01*
X117123841Y-76524501D01*
X117111405Y-76514854D01*
X116985222Y-76440230D01*
X116970783Y-76433981D01*
X116857395Y-76401039D01*
X116843295Y-76401079D01*
X116840000Y-76408349D01*
X116840000Y-76943885D01*
X116342758Y-76943885D01*
X116341629Y-76929534D01*
X116337003Y-76913610D01*
X116332000Y-76878458D01*
X116332000Y-76414100D01*
X116328027Y-76400569D01*
X116320129Y-76399434D01*
X116201217Y-76433981D01*
X116186780Y-76440229D01*
X116140630Y-76467522D01*
X116071813Y-76484982D01*
X116012354Y-76467523D01*
X115958596Y-76435731D01*
X115856424Y-76406047D01*
X115802483Y-76374145D01*
X115557405Y-76129067D01*
X115523379Y-76066755D01*
X115520500Y-76039972D01*
X115520500Y-75674767D01*
X115540502Y-75606646D01*
X115557405Y-75585672D01*
X115687301Y-75455776D01*
X115808589Y-75282558D01*
X115813366Y-75272315D01*
X115895633Y-75095892D01*
X115895634Y-75095891D01*
X115897956Y-75090910D01*
X115906293Y-75059796D01*
X115943245Y-74999173D01*
X116007106Y-74968152D01*
X116077600Y-74976580D01*
X116132347Y-75021783D01*
X116149707Y-75059796D01*
X116158044Y-75090910D01*
X116160366Y-75095891D01*
X116160367Y-75095892D01*
X116242635Y-75272315D01*
X116247411Y-75282558D01*
X116368699Y-75455776D01*
X116518224Y-75605301D01*
X116691442Y-75726589D01*
X116696420Y-75728910D01*
X116696423Y-75728912D01*
X116862033Y-75806137D01*
X116883090Y-75815956D01*
X116888398Y-75817378D01*
X116888400Y-75817379D01*
X117082030Y-75869262D01*
X117082032Y-75869262D01*
X117087345Y-75870686D01*
X117298000Y-75889116D01*
X117508655Y-75870686D01*
X117513968Y-75869262D01*
X117513970Y-75869262D01*
X117707600Y-75817379D01*
X117707602Y-75817378D01*
X117712910Y-75815956D01*
X117733967Y-75806137D01*
X117899577Y-75728912D01*
X117899580Y-75728910D01*
X117904558Y-75726589D01*
X118077776Y-75605301D01*
X118227301Y-75455776D01*
X118348589Y-75282558D01*
X118353366Y-75272315D01*
X118435633Y-75095892D01*
X118435634Y-75095891D01*
X118437956Y-75090910D01*
X118477801Y-74942209D01*
X118491262Y-74891970D01*
X118491262Y-74891968D01*
X118492686Y-74886655D01*
X118511116Y-74676000D01*
X118492686Y-74465345D01*
X118473889Y-74395193D01*
X118439379Y-74266400D01*
X118439378Y-74266398D01*
X118437956Y-74261090D01*
X118435633Y-74256108D01*
X118350912Y-74074423D01*
X118350910Y-74074420D01*
X118348589Y-74069442D01*
X118227301Y-73896224D01*
X118077776Y-73746699D01*
X117904558Y-73625411D01*
X117899580Y-73623090D01*
X117899577Y-73623088D01*
X117717892Y-73538367D01*
X117717891Y-73538366D01*
X117712910Y-73536044D01*
X117707602Y-73534622D01*
X117707600Y-73534621D01*
X117513970Y-73482738D01*
X117513968Y-73482738D01*
X117508655Y-73481314D01*
X117298000Y-73462884D01*
X117087345Y-73481314D01*
X117082032Y-73482738D01*
X117082030Y-73482738D01*
X116888400Y-73534621D01*
X116888398Y-73534622D01*
X116883090Y-73536044D01*
X116878109Y-73538366D01*
X116878108Y-73538367D01*
X116696423Y-73623088D01*
X116696420Y-73623090D01*
X116691442Y-73625411D01*
X116518224Y-73746699D01*
X116368699Y-73896224D01*
X116247411Y-74069442D01*
X116245090Y-74074420D01*
X116245088Y-74074423D01*
X116160367Y-74256108D01*
X116158044Y-74261090D01*
X116156622Y-74266398D01*
X116156621Y-74266400D01*
X116149707Y-74292204D01*
X116112755Y-74352827D01*
X116048894Y-74383848D01*
X115978400Y-74375420D01*
X115923653Y-74330217D01*
X115906293Y-74292204D01*
X115899379Y-74266400D01*
X115899378Y-74266398D01*
X115897956Y-74261090D01*
X115895633Y-74256108D01*
X115810912Y-74074423D01*
X115810910Y-74074420D01*
X115808589Y-74069442D01*
X115687301Y-73896224D01*
X115557405Y-73766328D01*
X115523379Y-73704016D01*
X115520500Y-73677233D01*
X115520500Y-67454377D01*
X115521933Y-67435427D01*
X115524124Y-67421028D01*
X115524124Y-67421022D01*
X115525224Y-67413793D01*
X115524319Y-67402657D01*
X115520915Y-67360818D01*
X115520500Y-67350603D01*
X115520500Y-67342475D01*
X115520078Y-67338853D01*
X115520077Y-67338840D01*
X115517191Y-67314086D01*
X115516758Y-67309710D01*
X115511402Y-67243867D01*
X115510809Y-67236574D01*
X115508553Y-67229612D01*
X115507357Y-67223624D01*
X115505949Y-67217667D01*
X115505101Y-67210393D01*
X115502603Y-67203511D01*
X115502602Y-67203507D01*
X115480055Y-67141393D01*
X115478645Y-67137289D01*
X115456013Y-67067425D01*
X115452213Y-67061162D01*
X115449675Y-67055620D01*
X115446933Y-67050144D01*
X115444434Y-67043259D01*
X115404185Y-66981868D01*
X115401870Y-66978200D01*
X115363773Y-66915419D01*
X115356333Y-66906995D01*
X115356362Y-66906969D01*
X115353762Y-66904038D01*
X115350958Y-66900684D01*
X115346946Y-66894565D01*
X115290413Y-66841011D01*
X115287972Y-66838634D01*
X113155343Y-64706005D01*
X113121317Y-64643693D01*
X113126382Y-64572878D01*
X113160126Y-64523275D01*
X113183517Y-64502213D01*
X113183519Y-64502211D01*
X113188421Y-64497797D01*
X113220446Y-64453719D01*
X113294321Y-64352039D01*
X113294322Y-64352038D01*
X113298202Y-64346697D01*
X113336087Y-64261607D01*
X113371483Y-64182105D01*
X113371483Y-64182104D01*
X113374168Y-64176074D01*
X113396361Y-64071667D01*
X113411628Y-63999842D01*
X113411628Y-63999837D01*
X113413000Y-63993385D01*
X113413000Y-63806615D01*
X113374168Y-63623926D01*
X113355399Y-63581770D01*
X113300887Y-63459333D01*
X113300886Y-63459331D01*
X113298202Y-63453303D01*
X113188421Y-63302203D01*
X113120358Y-63240918D01*
X113054532Y-63181648D01*
X113054531Y-63181647D01*
X113049624Y-63177229D01*
X112991178Y-63143485D01*
X112893599Y-63087148D01*
X112893598Y-63087147D01*
X112887876Y-63083844D01*
X112762143Y-63042991D01*
X112716526Y-63028169D01*
X112716525Y-63028169D01*
X112710247Y-63026129D01*
X112703684Y-63025439D01*
X112703683Y-63025439D01*
X112680903Y-63023045D01*
X112571063Y-63011500D01*
X112477937Y-63011500D01*
X112368097Y-63023045D01*
X112345317Y-63025439D01*
X112345316Y-63025439D01*
X112338753Y-63026129D01*
X112332475Y-63028169D01*
X112332474Y-63028169D01*
X112286857Y-63042991D01*
X112161124Y-63083844D01*
X112155402Y-63087147D01*
X112155401Y-63087148D01*
X112057822Y-63143485D01*
X111999376Y-63177229D01*
X111994469Y-63181647D01*
X111994468Y-63181648D01*
X111928643Y-63240918D01*
X111860579Y-63302203D01*
X111750798Y-63453303D01*
X111748114Y-63459331D01*
X111748113Y-63459333D01*
X111693601Y-63581770D01*
X111674832Y-63623926D01*
X111636000Y-63806615D01*
X111636000Y-63993385D01*
X111637372Y-63999837D01*
X111637372Y-63999842D01*
X111660639Y-64109303D01*
X111655237Y-64180094D01*
X111612420Y-64236727D01*
X111545782Y-64261220D01*
X111537392Y-64261500D01*
X108514007Y-64261500D01*
X108445886Y-64241498D01*
X108399393Y-64187842D01*
X108389289Y-64117568D01*
X108394174Y-64096564D01*
X108404342Y-64065270D01*
X108404342Y-64065269D01*
X108406382Y-64058991D01*
X108425090Y-63881000D01*
X108410209Y-63739418D01*
X108407072Y-63709573D01*
X108407072Y-63709572D01*
X108406382Y-63703009D01*
X108382785Y-63630383D01*
X108353119Y-63539082D01*
X108351077Y-63532797D01*
X108329999Y-63496288D01*
X108264892Y-63383521D01*
X108261591Y-63377803D01*
X108240379Y-63354244D01*
X108146258Y-63249712D01*
X108146257Y-63249711D01*
X108141836Y-63244801D01*
X108122302Y-63230608D01*
X108002387Y-63143485D01*
X108002386Y-63143484D01*
X107997045Y-63139604D01*
X107991017Y-63136920D01*
X107991015Y-63136919D01*
X107839577Y-63069495D01*
X107839576Y-63069495D01*
X107833546Y-63066810D01*
X107746016Y-63048205D01*
X107664943Y-63030972D01*
X107664939Y-63030972D01*
X107658486Y-63029600D01*
X107479514Y-63029600D01*
X107473061Y-63030972D01*
X107473057Y-63030972D01*
X107429518Y-63040227D01*
X107358727Y-63034825D01*
X107302095Y-62992008D01*
X107277601Y-62925370D01*
X107278011Y-62903809D01*
X107281400Y-62871565D01*
X107282090Y-62865000D01*
X107270073Y-62750670D01*
X107282845Y-62680833D01*
X107331347Y-62628986D01*
X107395383Y-62611500D01*
X113677972Y-62611500D01*
X113746093Y-62631502D01*
X113767067Y-62648405D01*
X114643595Y-63524933D01*
X114677621Y-63587245D01*
X114680500Y-63614028D01*
X114680500Y-65337624D01*
X114679067Y-65356574D01*
X114676876Y-65370973D01*
X114676876Y-65370979D01*
X114675776Y-65378208D01*
X114676369Y-65385500D01*
X114676369Y-65385503D01*
X114680085Y-65431183D01*
X114680500Y-65441398D01*
X114680500Y-65449525D01*
X114683811Y-65477924D01*
X114684238Y-65482244D01*
X114690191Y-65555426D01*
X114692447Y-65562388D01*
X114693643Y-65568376D01*
X114695051Y-65574333D01*
X114695899Y-65581607D01*
X114698397Y-65588489D01*
X114698398Y-65588493D01*
X114720945Y-65650607D01*
X114722355Y-65654711D01*
X114744987Y-65724575D01*
X114748787Y-65730838D01*
X114751325Y-65736380D01*
X114754067Y-65741856D01*
X114756566Y-65748741D01*
X114760581Y-65754865D01*
X114796815Y-65810132D01*
X114799130Y-65813800D01*
X114837227Y-65876581D01*
X114840941Y-65880786D01*
X114840943Y-65880789D01*
X114844667Y-65885005D01*
X114844638Y-65885031D01*
X114847238Y-65887962D01*
X114850042Y-65891316D01*
X114854054Y-65897435D01*
X114859366Y-65902467D01*
X114910586Y-65950988D01*
X114913028Y-65953366D01*
X118961595Y-70001933D01*
X118995621Y-70064245D01*
X118998500Y-70091028D01*
X118998500Y-83324972D01*
X118978498Y-83393093D01*
X118961595Y-83414067D01*
X118593067Y-83782595D01*
X118530755Y-83816621D01*
X118503972Y-83819500D01*
X115011193Y-83819500D01*
X115001890Y-83817490D01*
X115001789Y-83818925D01*
X114988603Y-83818000D01*
X114510542Y-83818000D01*
X114475390Y-83812997D01*
X114465647Y-83810166D01*
X114465640Y-83810165D01*
X114459466Y-83808371D01*
X114453059Y-83807867D01*
X114453055Y-83807866D01*
X114425444Y-83805693D01*
X114425438Y-83805693D01*
X114422989Y-83805500D01*
X114173152Y-83805500D01*
X113923012Y-83805501D01*
X113886534Y-83808371D01*
X113880352Y-83810167D01*
X113880347Y-83810168D01*
X113870610Y-83812997D01*
X113835458Y-83818000D01*
X113371100Y-83818000D01*
X113357569Y-83821973D01*
X113356434Y-83829871D01*
X113390981Y-83948783D01*
X113397229Y-83963220D01*
X113424522Y-84009370D01*
X113441982Y-84078187D01*
X113424523Y-84137646D01*
X113392731Y-84191404D01*
X113389059Y-84204044D01*
X113363047Y-84293576D01*
X113331145Y-84347517D01*
X113134067Y-84544595D01*
X113071755Y-84578621D01*
X113044972Y-84581500D01*
X112377767Y-84581500D01*
X112309646Y-84561498D01*
X112288672Y-84544595D01*
X112158776Y-84414699D01*
X111985558Y-84293411D01*
X111980580Y-84291090D01*
X111980577Y-84291088D01*
X111798892Y-84206367D01*
X111798891Y-84206366D01*
X111793910Y-84204044D01*
X111788602Y-84202622D01*
X111788600Y-84202621D01*
X111762796Y-84195707D01*
X111702173Y-84158755D01*
X111671152Y-84094894D01*
X111679580Y-84024400D01*
X111724783Y-83969653D01*
X111762796Y-83952293D01*
X111788600Y-83945379D01*
X111788602Y-83945378D01*
X111793910Y-83943956D01*
X111798892Y-83941633D01*
X111980577Y-83856912D01*
X111980580Y-83856910D01*
X111985558Y-83854589D01*
X112158776Y-83733301D01*
X112308301Y-83583776D01*
X112429589Y-83410558D01*
X112469499Y-83324972D01*
X112484592Y-83292605D01*
X113358039Y-83292605D01*
X113358079Y-83306705D01*
X113365349Y-83310000D01*
X113900885Y-83310000D01*
X113916124Y-83305525D01*
X113917329Y-83304135D01*
X113919000Y-83296452D01*
X113919000Y-83291885D01*
X114427000Y-83291885D01*
X114431475Y-83307124D01*
X114432865Y-83308329D01*
X114440548Y-83310000D01*
X114974900Y-83310000D01*
X114988431Y-83306027D01*
X114989566Y-83298129D01*
X114955019Y-83179217D01*
X114948770Y-83164778D01*
X114874146Y-83038595D01*
X114864499Y-83026159D01*
X114760841Y-82922501D01*
X114748405Y-82912854D01*
X114622222Y-82838230D01*
X114607783Y-82831981D01*
X114465564Y-82790662D01*
X114452977Y-82788363D01*
X114445057Y-82787740D01*
X114429970Y-82790910D01*
X114427000Y-82802374D01*
X114427000Y-83291885D01*
X113919000Y-83291885D01*
X113919000Y-82804434D01*
X113914656Y-82789639D01*
X113902997Y-82787579D01*
X113893023Y-82788363D01*
X113880436Y-82790662D01*
X113738217Y-82831981D01*
X113723778Y-82838230D01*
X113597595Y-82912854D01*
X113585159Y-82922501D01*
X113481501Y-83026159D01*
X113471854Y-83038595D01*
X113397230Y-83164778D01*
X113390981Y-83179217D01*
X113358039Y-83292605D01*
X112484592Y-83292605D01*
X112516633Y-83223892D01*
X112516634Y-83223891D01*
X112518956Y-83218910D01*
X112573686Y-83014655D01*
X112592116Y-82804000D01*
X112573686Y-82593345D01*
X112518956Y-82389090D01*
X112429589Y-82197442D01*
X112308301Y-82024224D01*
X112158776Y-81874699D01*
X111985558Y-81753411D01*
X111980580Y-81751090D01*
X111980577Y-81751088D01*
X111798892Y-81666367D01*
X111798891Y-81666366D01*
X111793910Y-81664044D01*
X111788602Y-81662622D01*
X111788600Y-81662621D01*
X111594970Y-81610738D01*
X111594968Y-81610738D01*
X111589655Y-81609314D01*
X111379000Y-81590884D01*
X111168345Y-81609314D01*
X111163032Y-81610738D01*
X111163030Y-81610738D01*
X110969400Y-81662621D01*
X110969398Y-81662622D01*
X110964090Y-81664044D01*
X110959109Y-81666366D01*
X110959108Y-81666367D01*
X110777423Y-81751088D01*
X110777420Y-81751090D01*
X110772442Y-81753411D01*
X110599224Y-81874699D01*
X110449699Y-82024224D01*
X110328411Y-82197442D01*
X110239044Y-82389090D01*
X110184314Y-82593345D01*
X110165884Y-82804000D01*
X110184314Y-83014655D01*
X110239044Y-83218910D01*
X110241366Y-83223891D01*
X110241367Y-83223892D01*
X110288502Y-83324972D01*
X110328411Y-83410558D01*
X110449699Y-83583776D01*
X110599224Y-83733301D01*
X110772442Y-83854589D01*
X110777420Y-83856910D01*
X110777423Y-83856912D01*
X110959108Y-83941633D01*
X110964090Y-83943956D01*
X110969398Y-83945378D01*
X110969400Y-83945379D01*
X110995204Y-83952293D01*
X111055827Y-83989245D01*
X111086848Y-84053106D01*
X111078420Y-84123600D01*
X111033217Y-84178347D01*
X110995204Y-84195707D01*
X110969400Y-84202621D01*
X110969398Y-84202622D01*
X110964090Y-84204044D01*
X110959109Y-84206366D01*
X110959108Y-84206367D01*
X110777423Y-84291088D01*
X110777420Y-84291090D01*
X110772442Y-84293411D01*
X110599224Y-84414699D01*
X110449699Y-84564224D01*
X110328411Y-84737442D01*
X110239044Y-84929090D01*
X110237622Y-84934398D01*
X110237621Y-84934400D01*
X110185738Y-85128030D01*
X110184314Y-85133345D01*
X110165884Y-85344000D01*
X110184314Y-85554655D01*
X110239044Y-85758910D01*
X110241366Y-85763891D01*
X110241367Y-85763892D01*
X110324576Y-85942333D01*
X110328411Y-85950558D01*
X110449699Y-86123776D01*
X110540828Y-86214905D01*
X110574854Y-86277217D01*
X110569789Y-86348032D01*
X110527242Y-86404868D01*
X110460722Y-86429679D01*
X110451733Y-86430000D01*
X92629000Y-86430000D01*
X92560879Y-86409998D01*
X92514386Y-86356342D01*
X92503000Y-86304000D01*
X92503000Y-76518502D01*
X93298500Y-76518502D01*
X93298693Y-76520950D01*
X93298693Y-76520958D01*
X93300927Y-76549333D01*
X93301438Y-76555831D01*
X93308460Y-76580000D01*
X93345586Y-76707790D01*
X93347855Y-76715601D01*
X93361745Y-76739087D01*
X93428509Y-76851980D01*
X93428511Y-76851983D01*
X93432547Y-76858807D01*
X93550193Y-76976453D01*
X93557016Y-76980488D01*
X93557020Y-76980491D01*
X93664589Y-77044107D01*
X93693399Y-77061145D01*
X93701010Y-77063356D01*
X93701012Y-77063357D01*
X93753231Y-77078528D01*
X93853169Y-77107562D01*
X93859574Y-77108066D01*
X93859579Y-77108067D01*
X93888042Y-77110307D01*
X93888050Y-77110307D01*
X93890498Y-77110500D01*
X94323502Y-77110500D01*
X94325950Y-77110307D01*
X94325958Y-77110307D01*
X94354421Y-77108067D01*
X94354426Y-77108066D01*
X94360831Y-77107562D01*
X94460769Y-77078528D01*
X94512988Y-77063357D01*
X94512990Y-77063356D01*
X94520601Y-77061145D01*
X94663807Y-76976453D01*
X94666489Y-76973771D01*
X94730861Y-76948498D01*
X94800484Y-76962400D01*
X94816312Y-76972572D01*
X94820193Y-76976453D01*
X94963399Y-77061145D01*
X94971010Y-77063356D01*
X94971012Y-77063357D01*
X95023231Y-77078528D01*
X95123169Y-77107562D01*
X95129574Y-77108066D01*
X95129579Y-77108067D01*
X95158042Y-77110307D01*
X95158050Y-77110307D01*
X95160498Y-77110500D01*
X95593502Y-77110500D01*
X95595950Y-77110307D01*
X95595958Y-77110307D01*
X95624421Y-77108067D01*
X95624426Y-77108066D01*
X95630831Y-77107562D01*
X95730769Y-77078528D01*
X95782988Y-77063357D01*
X95782990Y-77063356D01*
X95790601Y-77061145D01*
X95933807Y-76976453D01*
X95936489Y-76973771D01*
X96000861Y-76948498D01*
X96070484Y-76962400D01*
X96086312Y-76972572D01*
X96090193Y-76976453D01*
X96233399Y-77061145D01*
X96241010Y-77063356D01*
X96241012Y-77063357D01*
X96293231Y-77078528D01*
X96393169Y-77107562D01*
X96399574Y-77108066D01*
X96399579Y-77108067D01*
X96428042Y-77110307D01*
X96428050Y-77110307D01*
X96430498Y-77110500D01*
X96863502Y-77110500D01*
X96865950Y-77110307D01*
X96865958Y-77110307D01*
X96894421Y-77108067D01*
X96894426Y-77108066D01*
X96900831Y-77107562D01*
X97000769Y-77078528D01*
X97052988Y-77063357D01*
X97052990Y-77063356D01*
X97060601Y-77061145D01*
X97203807Y-76976453D01*
X97206747Y-76973513D01*
X97271271Y-76948179D01*
X97340894Y-76962080D01*
X97359640Y-76974129D01*
X97367323Y-76980089D01*
X97496779Y-77056648D01*
X97511210Y-77062893D01*
X97645605Y-77101939D01*
X97659706Y-77101899D01*
X97663000Y-77094630D01*
X97663000Y-77088878D01*
X98171000Y-77088878D01*
X98174973Y-77102409D01*
X98182871Y-77103544D01*
X98322790Y-77062893D01*
X98337221Y-77056648D01*
X98466678Y-76980089D01*
X98470950Y-76976775D01*
X105640937Y-76976775D01*
X105642688Y-76986359D01*
X105684357Y-77129784D01*
X105690604Y-77144220D01*
X105765876Y-77271499D01*
X105775516Y-77283926D01*
X105880074Y-77388484D01*
X105892501Y-77398124D01*
X106019780Y-77473396D01*
X106034216Y-77479643D01*
X106154605Y-77514619D01*
X106168705Y-77514579D01*
X106172000Y-77507309D01*
X106172000Y-76980115D01*
X106167525Y-76964876D01*
X106166135Y-76963671D01*
X106158452Y-76962000D01*
X105657576Y-76962000D01*
X105642781Y-76966344D01*
X105640937Y-76976775D01*
X98470950Y-76976775D01*
X98479104Y-76970449D01*
X98585449Y-76864104D01*
X98595089Y-76851678D01*
X98671648Y-76722221D01*
X98677893Y-76707790D01*
X98720269Y-76561935D01*
X98722570Y-76549333D01*
X98724807Y-76520916D01*
X98725000Y-76515986D01*
X98725000Y-75899115D01*
X98720525Y-75883876D01*
X98719135Y-75882671D01*
X98711452Y-75881000D01*
X98189115Y-75881000D01*
X98173876Y-75885475D01*
X98172671Y-75886865D01*
X98171000Y-75894548D01*
X98171000Y-77088878D01*
X97663000Y-77088878D01*
X97663000Y-75354885D01*
X98171000Y-75354885D01*
X98175475Y-75370124D01*
X98176865Y-75371329D01*
X98184548Y-75373000D01*
X98706884Y-75373000D01*
X98722123Y-75368525D01*
X98723328Y-75367135D01*
X98724999Y-75359452D01*
X98724999Y-74738017D01*
X98724805Y-74733080D01*
X98722570Y-74704664D01*
X98720270Y-74692069D01*
X98677893Y-74546210D01*
X98671648Y-74531779D01*
X98595089Y-74402322D01*
X98585449Y-74389896D01*
X98479104Y-74283551D01*
X98466678Y-74273911D01*
X98337221Y-74197352D01*
X98322790Y-74191107D01*
X98188395Y-74152061D01*
X98174294Y-74152101D01*
X98171000Y-74159370D01*
X98171000Y-75354885D01*
X97663000Y-75354885D01*
X97663000Y-74165122D01*
X97659027Y-74151591D01*
X97651129Y-74150456D01*
X97511210Y-74191107D01*
X97496779Y-74197352D01*
X97367324Y-74273910D01*
X97359636Y-74279874D01*
X97293551Y-74305821D01*
X97223928Y-74291920D01*
X97207842Y-74281582D01*
X97203807Y-74277547D01*
X97184959Y-74266400D01*
X97067427Y-74196892D01*
X97067428Y-74196892D01*
X97060601Y-74192855D01*
X97052990Y-74190644D01*
X97052988Y-74190643D01*
X96965142Y-74165122D01*
X96900831Y-74146438D01*
X96894426Y-74145934D01*
X96894421Y-74145933D01*
X96865958Y-74143693D01*
X96865950Y-74143693D01*
X96863502Y-74143500D01*
X96430498Y-74143500D01*
X96428050Y-74143693D01*
X96428042Y-74143693D01*
X96399579Y-74145933D01*
X96399574Y-74145934D01*
X96393169Y-74146438D01*
X96328858Y-74165122D01*
X96241012Y-74190643D01*
X96241010Y-74190644D01*
X96233399Y-74192855D01*
X96090193Y-74277547D01*
X96087511Y-74280229D01*
X96023139Y-74305502D01*
X95953516Y-74291600D01*
X95937688Y-74281428D01*
X95933807Y-74277547D01*
X95790601Y-74192855D01*
X95782990Y-74190644D01*
X95782988Y-74190643D01*
X95695142Y-74165122D01*
X95630831Y-74146438D01*
X95624426Y-74145934D01*
X95624421Y-74145933D01*
X95595958Y-74143693D01*
X95595950Y-74143693D01*
X95593502Y-74143500D01*
X95160498Y-74143500D01*
X95158050Y-74143693D01*
X95158042Y-74143693D01*
X95129579Y-74145933D01*
X95129574Y-74145934D01*
X95123169Y-74146438D01*
X95058858Y-74165122D01*
X94971012Y-74190643D01*
X94971010Y-74190644D01*
X94963399Y-74192855D01*
X94820193Y-74277547D01*
X94817511Y-74280229D01*
X94753139Y-74305502D01*
X94683516Y-74291600D01*
X94667688Y-74281428D01*
X94663807Y-74277547D01*
X94520601Y-74192855D01*
X94512990Y-74190644D01*
X94512988Y-74190643D01*
X94425142Y-74165122D01*
X94360831Y-74146438D01*
X94354426Y-74145934D01*
X94354421Y-74145933D01*
X94325958Y-74143693D01*
X94325950Y-74143693D01*
X94323502Y-74143500D01*
X93890498Y-74143500D01*
X93888050Y-74143693D01*
X93888042Y-74143693D01*
X93859579Y-74145933D01*
X93859574Y-74145934D01*
X93853169Y-74146438D01*
X93788858Y-74165122D01*
X93701012Y-74190643D01*
X93701010Y-74190644D01*
X93693399Y-74192855D01*
X93686572Y-74196892D01*
X93686573Y-74196892D01*
X93557020Y-74273509D01*
X93557017Y-74273511D01*
X93550193Y-74277547D01*
X93432547Y-74395193D01*
X93428511Y-74402017D01*
X93428509Y-74402020D01*
X93384260Y-74476841D01*
X93347855Y-74538399D01*
X93345644Y-74546010D01*
X93345643Y-74546012D01*
X93343900Y-74552012D01*
X93301438Y-74698169D01*
X93300934Y-74704574D01*
X93300933Y-74704579D01*
X93300454Y-74710668D01*
X93298500Y-74735498D01*
X93298500Y-76518502D01*
X92503000Y-76518502D01*
X92503000Y-66121982D01*
X93243142Y-66121982D01*
X93250668Y-66132415D01*
X93396463Y-66249848D01*
X93402648Y-66254244D01*
X93678363Y-66426195D01*
X93685034Y-66429817D01*
X93979414Y-66567402D01*
X93986468Y-66570195D01*
X94295257Y-66671420D01*
X94302570Y-66673339D01*
X94621298Y-66736738D01*
X94628789Y-66737764D01*
X94952823Y-66762413D01*
X94960386Y-66762531D01*
X95285021Y-66748074D01*
X95292562Y-66747282D01*
X95613115Y-66693926D01*
X95620479Y-66692240D01*
X95932315Y-66600757D01*
X95939424Y-66598198D01*
X96238003Y-66469919D01*
X96244770Y-66466515D01*
X96525764Y-66303301D01*
X96532071Y-66299111D01*
X96750005Y-66134588D01*
X96758461Y-66123197D01*
X96751743Y-66110953D01*
X95012812Y-64372022D01*
X94998868Y-64364408D01*
X94997035Y-64364539D01*
X94990420Y-64368790D01*
X93250257Y-66108953D01*
X93243142Y-66121982D01*
X92503000Y-66121982D01*
X92503000Y-65647024D01*
X92523002Y-65578903D01*
X92576658Y-65532410D01*
X92646932Y-65522306D01*
X92711512Y-65551800D01*
X92729163Y-65570582D01*
X92865792Y-65749608D01*
X92877316Y-65758069D01*
X92889382Y-65751408D01*
X94627978Y-64012812D01*
X94635592Y-63998868D01*
X94635461Y-63997035D01*
X94631210Y-63990420D01*
X92890864Y-62250074D01*
X92877929Y-62243011D01*
X92867367Y-62250671D01*
X92741785Y-62408268D01*
X92737427Y-62414469D01*
X92736261Y-62416360D01*
X92735816Y-62416760D01*
X92735245Y-62417573D01*
X92735059Y-62417442D01*
X92683489Y-62463855D01*
X92613418Y-62475279D01*
X92548294Y-62447006D01*
X92508793Y-62388012D01*
X92503000Y-62350246D01*
X92503000Y-61572000D01*
X92523002Y-61503879D01*
X92576658Y-61457386D01*
X92629000Y-61446000D01*
X93440435Y-61446000D01*
X93508556Y-61466002D01*
G37*
%TD.AperFunction*%
%TA.AperFunction,Conductor*%
G36*
X117508556Y-61466002D02*
G01*
X117555049Y-61519658D01*
X117565153Y-61589932D01*
X117535659Y-61654512D01*
X117504858Y-61680285D01*
X117450196Y-61712805D01*
X117443945Y-61717053D01*
X117250733Y-61866115D01*
X117242267Y-61877773D01*
X117248871Y-61889661D01*
X118987188Y-63627978D01*
X119001132Y-63635592D01*
X119002965Y-63635461D01*
X119009580Y-63631210D01*
X120750162Y-61890628D01*
X120757174Y-61877787D01*
X120749379Y-61867098D01*
X120579886Y-61733481D01*
X120573663Y-61729156D01*
X120492326Y-61679605D01*
X120444557Y-61627082D01*
X120432767Y-61557071D01*
X120460699Y-61491800D01*
X120519485Y-61451992D01*
X120557879Y-61446000D01*
X121361000Y-61446000D01*
X121429121Y-61466002D01*
X121475614Y-61519658D01*
X121487000Y-61572000D01*
X121487000Y-62337698D01*
X121466998Y-62405819D01*
X121413342Y-62452312D01*
X121343068Y-62462416D01*
X121278488Y-62432922D01*
X121261643Y-62415184D01*
X121133617Y-62251022D01*
X121121823Y-62242551D01*
X121110113Y-62249097D01*
X119372022Y-63987188D01*
X119364408Y-64001132D01*
X119364539Y-64002965D01*
X119368790Y-64009580D01*
X121108825Y-65749615D01*
X121121948Y-65756781D01*
X121132250Y-65749391D01*
X121241429Y-65615285D01*
X121245838Y-65609149D01*
X121254437Y-65595520D01*
X121307703Y-65548581D01*
X121377891Y-65537891D01*
X121442715Y-65566844D01*
X121481596Y-65626248D01*
X121487000Y-65662754D01*
X121487000Y-86304000D01*
X121466998Y-86372121D01*
X121413342Y-86418614D01*
X121361000Y-86430000D01*
X112306267Y-86430000D01*
X112238146Y-86409998D01*
X112191653Y-86356342D01*
X112181549Y-86286068D01*
X112211043Y-86221488D01*
X112217172Y-86214905D01*
X112288672Y-86143405D01*
X112350984Y-86109379D01*
X112377767Y-86106500D01*
X113345624Y-86106500D01*
X113364574Y-86107933D01*
X113378973Y-86110124D01*
X113378979Y-86110124D01*
X113386208Y-86111224D01*
X113393500Y-86110631D01*
X113393503Y-86110631D01*
X113439183Y-86106915D01*
X113449398Y-86106500D01*
X113457525Y-86106500D01*
X113461161Y-86106076D01*
X113461163Y-86106076D01*
X113464615Y-86105673D01*
X113485924Y-86103189D01*
X113490244Y-86102762D01*
X113563426Y-86096809D01*
X113570388Y-86094553D01*
X113576376Y-86093357D01*
X113582333Y-86091949D01*
X113589607Y-86091101D01*
X113596489Y-86088603D01*
X113596493Y-86088602D01*
X113658607Y-86066055D01*
X113662711Y-86064645D01*
X113732575Y-86042013D01*
X113738838Y-86038213D01*
X113744380Y-86035675D01*
X113749856Y-86032933D01*
X113756741Y-86030434D01*
X113818132Y-85990185D01*
X113821800Y-85987870D01*
X113884581Y-85949773D01*
X113888786Y-85946059D01*
X113888789Y-85946057D01*
X113893005Y-85942333D01*
X113893031Y-85942362D01*
X113895962Y-85939762D01*
X113899316Y-85936958D01*
X113905435Y-85932946D01*
X113958989Y-85876413D01*
X113961366Y-85873972D01*
X114453933Y-85381405D01*
X114516245Y-85347379D01*
X114543028Y-85344500D01*
X118804624Y-85344500D01*
X118823574Y-85345933D01*
X118837973Y-85348124D01*
X118837979Y-85348124D01*
X118845208Y-85349224D01*
X118852500Y-85348631D01*
X118852503Y-85348631D01*
X118898183Y-85344915D01*
X118908398Y-85344500D01*
X118916525Y-85344500D01*
X118920161Y-85344076D01*
X118920163Y-85344076D01*
X118923615Y-85343673D01*
X118944924Y-85341189D01*
X118949244Y-85340762D01*
X119022426Y-85334809D01*
X119029388Y-85332553D01*
X119035376Y-85331357D01*
X119041333Y-85329949D01*
X119048607Y-85329101D01*
X119055489Y-85326603D01*
X119055493Y-85326602D01*
X119117607Y-85304055D01*
X119121711Y-85302645D01*
X119191575Y-85280013D01*
X119197838Y-85276213D01*
X119203380Y-85273675D01*
X119208856Y-85270933D01*
X119215741Y-85268434D01*
X119277132Y-85228185D01*
X119280800Y-85225870D01*
X119343581Y-85187773D01*
X119347786Y-85184059D01*
X119347789Y-85184057D01*
X119352005Y-85180333D01*
X119352031Y-85180362D01*
X119354962Y-85177762D01*
X119358316Y-85174958D01*
X119364435Y-85170946D01*
X119417989Y-85114413D01*
X119420366Y-85111972D01*
X120252528Y-84279810D01*
X120266941Y-84267423D01*
X120278665Y-84258795D01*
X120284564Y-84254454D01*
X120318979Y-84213945D01*
X120325909Y-84206429D01*
X120331653Y-84200685D01*
X120333927Y-84197811D01*
X120333933Y-84197804D01*
X120349372Y-84178289D01*
X120352163Y-84174885D01*
X120394945Y-84124528D01*
X120394948Y-84124524D01*
X120399684Y-84118949D01*
X120403012Y-84112432D01*
X120406389Y-84107368D01*
X120409616Y-84102144D01*
X120414160Y-84096400D01*
X120445242Y-84029896D01*
X120447147Y-84025999D01*
X120480543Y-83960596D01*
X120482284Y-83953482D01*
X120484416Y-83947748D01*
X120486344Y-83941952D01*
X120489444Y-83935320D01*
X120504395Y-83863440D01*
X120505365Y-83859156D01*
X120505914Y-83856912D01*
X120522804Y-83787888D01*
X120523500Y-83776670D01*
X120523537Y-83776672D01*
X120523773Y-83772773D01*
X120524163Y-83768402D01*
X120525652Y-83761243D01*
X120523546Y-83683423D01*
X120523500Y-83680014D01*
X120523500Y-69790368D01*
X120524933Y-69771417D01*
X120527123Y-69757024D01*
X120527123Y-69757022D01*
X120528223Y-69749792D01*
X120525947Y-69721801D01*
X120523915Y-69696825D01*
X120523500Y-69686611D01*
X120523500Y-69678475D01*
X120520186Y-69650056D01*
X120519757Y-69645711D01*
X120514403Y-69579874D01*
X120514403Y-69579872D01*
X120513809Y-69572574D01*
X120511552Y-69565607D01*
X120510353Y-69559607D01*
X120508949Y-69553667D01*
X120508101Y-69546393D01*
X120505603Y-69539511D01*
X120505602Y-69539507D01*
X120483055Y-69477393D01*
X120481645Y-69473289D01*
X120459013Y-69403425D01*
X120455213Y-69397162D01*
X120452675Y-69391620D01*
X120449933Y-69386144D01*
X120447434Y-69379259D01*
X120443419Y-69373135D01*
X120407185Y-69317868D01*
X120404870Y-69314200D01*
X120366773Y-69251419D01*
X120363057Y-69247212D01*
X120363054Y-69247208D01*
X120359332Y-69242995D01*
X120359362Y-69242969D01*
X120356764Y-69240041D01*
X120353960Y-69236687D01*
X120349946Y-69230565D01*
X120293395Y-69176994D01*
X120290954Y-69174617D01*
X117913515Y-66797178D01*
X117879490Y-66734867D01*
X117884555Y-66664052D01*
X117927102Y-66607216D01*
X117993622Y-66582405D01*
X118041861Y-66588353D01*
X118295262Y-66671421D01*
X118302570Y-66673339D01*
X118621298Y-66736738D01*
X118628789Y-66737764D01*
X118952823Y-66762413D01*
X118960386Y-66762531D01*
X119285021Y-66748074D01*
X119292562Y-66747282D01*
X119613115Y-66693926D01*
X119620479Y-66692240D01*
X119932315Y-66600757D01*
X119939424Y-66598198D01*
X120238003Y-66469919D01*
X120244770Y-66466515D01*
X120525764Y-66303301D01*
X120532071Y-66299111D01*
X120750005Y-66134588D01*
X120758461Y-66123197D01*
X120751743Y-66110953D01*
X116890864Y-62250074D01*
X116877929Y-62243011D01*
X116867367Y-62250671D01*
X116741785Y-62408268D01*
X116737428Y-62414467D01*
X116566913Y-62691094D01*
X116563333Y-62697770D01*
X116427287Y-62992878D01*
X116424536Y-62999933D01*
X116415281Y-63028673D01*
X116375361Y-63087384D01*
X116310037Y-63115193D01*
X116240049Y-63103270D01*
X116187617Y-63055401D01*
X116176908Y-63033045D01*
X116165054Y-63000389D01*
X116163625Y-62996227D01*
X116143268Y-62933387D01*
X116143266Y-62933382D01*
X116141012Y-62926425D01*
X116137218Y-62920173D01*
X116134666Y-62914598D01*
X116131930Y-62909135D01*
X116129434Y-62902259D01*
X116089181Y-62840863D01*
X116086834Y-62837144D01*
X116081794Y-62828838D01*
X116048772Y-62774419D01*
X116041332Y-62765994D01*
X116041360Y-62765969D01*
X116038766Y-62763044D01*
X116035961Y-62759690D01*
X116031946Y-62753565D01*
X116004458Y-62727525D01*
X115975414Y-62700012D01*
X115972972Y-62697634D01*
X114936433Y-61661095D01*
X114902407Y-61598783D01*
X114907472Y-61527968D01*
X114950019Y-61471132D01*
X115016539Y-61446321D01*
X115025528Y-61446000D01*
X117440435Y-61446000D01*
X117508556Y-61466002D01*
G37*
%TD.AperFunction*%
%TA.AperFunction,Conductor*%
G36*
X111296532Y-69284366D02*
G01*
X111353368Y-69326913D01*
X111378179Y-69393433D01*
X111378500Y-69402422D01*
X111378500Y-70784577D01*
X111358498Y-70852698D01*
X111341595Y-70873672D01*
X108737603Y-73477664D01*
X108675291Y-73511690D01*
X108604476Y-73506625D01*
X108561092Y-73474169D01*
X108558635Y-73476626D01*
X108539724Y-73457715D01*
X108437649Y-73381214D01*
X108422054Y-73372676D01*
X108301606Y-73327522D01*
X108286351Y-73323895D01*
X108235486Y-73318369D01*
X108228672Y-73318000D01*
X107902115Y-73318000D01*
X107886876Y-73322475D01*
X107885671Y-73323865D01*
X107884000Y-73331548D01*
X107884000Y-73841500D01*
X107863998Y-73909621D01*
X107810342Y-73956114D01*
X107758000Y-73967500D01*
X107610000Y-73967500D01*
X107541879Y-73947498D01*
X107495386Y-73893842D01*
X107484000Y-73841500D01*
X107484000Y-73336116D01*
X107479525Y-73320877D01*
X107478135Y-73319672D01*
X107470452Y-73318001D01*
X107139331Y-73318001D01*
X107132510Y-73318371D01*
X107081648Y-73323895D01*
X107066394Y-73327522D01*
X106978941Y-73360306D01*
X106908134Y-73365489D01*
X106890483Y-73360306D01*
X106801718Y-73327029D01*
X106801712Y-73327027D01*
X106794316Y-73324255D01*
X106732134Y-73317500D01*
X105685422Y-73317500D01*
X105617301Y-73297498D01*
X105570808Y-73243842D01*
X105560704Y-73173568D01*
X105590198Y-73108988D01*
X105596327Y-73102405D01*
X106906328Y-71792405D01*
X106968640Y-71758379D01*
X106995423Y-71755500D01*
X108378980Y-71755500D01*
X108390214Y-71756030D01*
X108397719Y-71757708D01*
X108466012Y-71755562D01*
X108469969Y-71755500D01*
X108497983Y-71755500D01*
X108501908Y-71755004D01*
X108501909Y-71755004D01*
X108502004Y-71754992D01*
X108513849Y-71754059D01*
X108543670Y-71753122D01*
X108550282Y-71752914D01*
X108550283Y-71752914D01*
X108558205Y-71752665D01*
X108577749Y-71746987D01*
X108597112Y-71742977D01*
X108609440Y-71741420D01*
X108609442Y-71741420D01*
X108617299Y-71740427D01*
X108624663Y-71737511D01*
X108624668Y-71737510D01*
X108658556Y-71724093D01*
X108669785Y-71720248D01*
X108686465Y-71715402D01*
X108712393Y-71707869D01*
X108719220Y-71703831D01*
X108719223Y-71703830D01*
X108729906Y-71697512D01*
X108747664Y-71688812D01*
X108759215Y-71684239D01*
X108759221Y-71684235D01*
X108766588Y-71681319D01*
X108802491Y-71655234D01*
X108812410Y-71648719D01*
X108843768Y-71630174D01*
X108843772Y-71630171D01*
X108850598Y-71626134D01*
X108864982Y-71611750D01*
X108880016Y-71598909D01*
X108890073Y-71591602D01*
X108896487Y-71586942D01*
X108924778Y-71552744D01*
X108932767Y-71543965D01*
X111163405Y-69313327D01*
X111225717Y-69279301D01*
X111296532Y-69284366D01*
G37*
%TD.AperFunction*%
%TA.AperFunction,Conductor*%
G36*
X110660940Y-65806502D02*
G01*
X110707433Y-65860158D01*
X110717537Y-65930432D01*
X110688043Y-65995012D01*
X110644068Y-66027607D01*
X110575985Y-66057919D01*
X110575983Y-66057920D01*
X110569955Y-66060604D01*
X110564614Y-66064484D01*
X110564613Y-66064485D01*
X110467766Y-66134849D01*
X110425164Y-66165801D01*
X110305409Y-66298803D01*
X110215923Y-66453797D01*
X110160618Y-66624009D01*
X110141910Y-66802000D01*
X110160618Y-66979991D01*
X110215923Y-67150203D01*
X110305409Y-67305197D01*
X110330137Y-67332660D01*
X110360853Y-67396666D01*
X110362500Y-67416969D01*
X110362500Y-68264577D01*
X110342498Y-68332698D01*
X110325595Y-68353672D01*
X109760758Y-68918509D01*
X109698446Y-68952535D01*
X109627631Y-68947470D01*
X109570795Y-68904923D01*
X109562544Y-68892415D01*
X109534892Y-68844521D01*
X109531591Y-68838803D01*
X109506863Y-68811340D01*
X109476147Y-68747334D01*
X109474500Y-68727031D01*
X109474500Y-67897020D01*
X109475030Y-67885786D01*
X109476708Y-67878281D01*
X109474562Y-67809988D01*
X109474500Y-67806031D01*
X109474500Y-67778017D01*
X109473992Y-67773996D01*
X109473058Y-67762144D01*
X109471914Y-67725718D01*
X109471914Y-67725717D01*
X109471665Y-67717795D01*
X109465987Y-67698251D01*
X109461977Y-67678888D01*
X109460420Y-67666560D01*
X109460420Y-67666558D01*
X109459427Y-67658701D01*
X109456511Y-67651337D01*
X109456510Y-67651332D01*
X109443093Y-67617444D01*
X109439248Y-67606215D01*
X109429081Y-67571222D01*
X109426869Y-67563607D01*
X109422830Y-67556777D01*
X109416512Y-67546094D01*
X109407812Y-67528336D01*
X109403239Y-67516785D01*
X109403235Y-67516779D01*
X109400319Y-67509412D01*
X109374234Y-67473509D01*
X109367719Y-67463590D01*
X109349174Y-67432232D01*
X109349171Y-67432228D01*
X109345134Y-67425402D01*
X109330750Y-67411018D01*
X109317909Y-67395984D01*
X109310602Y-67385927D01*
X109305942Y-67379513D01*
X109271744Y-67351222D01*
X109262965Y-67343233D01*
X107921327Y-66001595D01*
X107887301Y-65939283D01*
X107892366Y-65868468D01*
X107934913Y-65811632D01*
X108001433Y-65786821D01*
X108010422Y-65786500D01*
X110592819Y-65786500D01*
X110660940Y-65806502D01*
G37*
%TD.AperFunction*%
%TD*%
M02*
