%TF.GenerationSoftware,KiCad,Pcbnew,(6.0.0-0)*%
%TF.CreationDate,2022-03-07T03:13:55-05:00*%
%TF.ProjectId,color,636f6c6f-722e-46b6-9963-61645f706362,rev?*%
%TF.SameCoordinates,Original*%
%TF.FileFunction,Copper,L4,Bot*%
%TF.FilePolarity,Positive*%
%FSLAX46Y46*%
G04 Gerber Fmt 4.6, Leading zero omitted, Abs format (unit mm)*
G04 Created by KiCad (PCBNEW (6.0.0-0)) date 2022-03-07 03:13:55*
%MOMM*%
%LPD*%
G01*
G04 APERTURE LIST*
%TA.AperFunction,ComponentPad*%
%ADD10C,4.500000*%
%TD*%
%TA.AperFunction,ComponentPad*%
%ADD11C,1.400000*%
%TD*%
%TA.AperFunction,ComponentPad*%
%ADD12O,1.400000X1.400000*%
%TD*%
%TA.AperFunction,SMDPad,CuDef*%
%ADD13R,1.000000X5.850000*%
%TD*%
%TA.AperFunction,SMDPad,CuDef*%
%ADD14R,0.610000X2.410000*%
%TD*%
%TA.AperFunction,ViaPad*%
%ADD15C,0.685800*%
%TD*%
%TA.AperFunction,Conductor*%
%ADD16C,0.254000*%
%TD*%
G04 APERTURE END LIST*
D10*
%TO.P,H1,1,1*%
%TO.N,GND*%
X95000000Y-64000000D03*
%TD*%
%TO.P,H2,1,1*%
%TO.N,GND*%
X119000000Y-64000000D03*
%TD*%
D11*
%TO.P,R1,1*%
%TO.N,/5V*%
X111379000Y-82804000D03*
D12*
%TO.P,R1,2*%
%TO.N,/A1*%
X111379000Y-85344000D03*
%TD*%
D11*
%TO.P,R3,1*%
%TO.N,/5V*%
X117298000Y-74676000D03*
D12*
%TO.P,R3,2*%
%TO.N,/A0*%
X114758000Y-74676000D03*
%TD*%
D13*
%TO.P,J1,*%
%TO.N,*%
X100173500Y-65000000D03*
X113826500Y-65000000D03*
D14*
%TO.P,J1,1,SDA(E)*%
%TO.N,/SDA_EEPROM*%
X101996500Y-66720000D03*
%TO.P,J1,2,SCL(E)*%
%TO.N,/SCL_EEPROM*%
X102996500Y-66720000D03*
%TO.P,J1,3,GND*%
%TO.N,GND*%
X103996500Y-66720000D03*
%TO.P,J1,4,NC*%
%TO.N,unconnected-(J1-Pad4)*%
X104996500Y-66720000D03*
%TO.P,J1,5,~{RST}*%
%TO.N,/~{RST}*%
X105996500Y-66720000D03*
%TO.P,J1,6,SCK*%
%TO.N,/SCK*%
X106996500Y-66720000D03*
%TO.P,J1,7,MISO*%
%TO.N,/MISO*%
X107996500Y-66720000D03*
%TO.P,J1,8,MOSI*%
%TO.N,/MOSI*%
X108996500Y-66720000D03*
%TO.P,J1,9,CE*%
%TO.N,/CS*%
X109996500Y-66720000D03*
%TO.P,J1,10,SDA*%
%TO.N,/SDA*%
X110996500Y-66720000D03*
%TO.P,J1,11,SCL*%
%TO.N,/SCL*%
X111996500Y-66720000D03*
%TO.P,J1,12,NC*%
%TO.N,unconnected-(J1-Pad12)*%
X111496500Y-63280000D03*
%TO.P,J1,13,RX*%
%TO.N,/RXD*%
X110496500Y-63280000D03*
%TO.P,J1,14,TX*%
%TO.N,/TXD*%
X109496500Y-63280000D03*
%TO.P,J1,15,STAT*%
%TO.N,/Status*%
X108496500Y-63280000D03*
%TO.P,J1,16,A0*%
%TO.N,/A0*%
X107496500Y-63280000D03*
%TO.P,J1,17,A1*%
%TO.N,/A1*%
X106496500Y-63280000D03*
%TO.P,J1,18,NC*%
%TO.N,unconnected-(J1-Pad18)*%
X105496500Y-63280000D03*
%TO.P,J1,19,3V3*%
%TO.N,/3V3*%
X104496500Y-63280000D03*
%TO.P,J1,20,NC*%
%TO.N,unconnected-(J1-Pad20)*%
X103496500Y-63320000D03*
%TO.P,J1,21,5V*%
%TO.N,/5V*%
X102496500Y-63320000D03*
%TD*%
D15*
%TO.N,GND*%
X96012000Y-73152000D03*
X113538000Y-72009000D03*
X118364000Y-80391000D03*
X115189000Y-80391000D03*
X107950000Y-82804000D03*
X111252000Y-73914000D03*
X104013000Y-66675000D03*
X116459000Y-68961000D03*
X109855000Y-68707000D03*
X104013000Y-67564000D03*
X111125000Y-69977000D03*
X97282000Y-73152000D03*
X94742000Y-73152000D03*
X109220000Y-72263000D03*
X118237000Y-70104000D03*
X118364000Y-77597000D03*
X104013000Y-65786000D03*
%TO.N,/3V3*%
X106553000Y-78994000D03*
X104496500Y-63397500D03*
X104496500Y-62635500D03*
X94996000Y-68072000D03*
%TO.N,/SDA_EEPROM*%
X98806000Y-70358000D03*
%TO.N,/SDA*%
X110998000Y-66802000D03*
%TO.N,/SCL*%
X112014000Y-66802000D03*
%TO.N,/SCL_EEPROM*%
X100330000Y-70358000D03*
%TO.N,/5V*%
X108839000Y-69342000D03*
X102489000Y-63296800D03*
%TO.N,/A0*%
X107569000Y-63881000D03*
%TO.N,/A1*%
X106426000Y-62865000D03*
%TD*%
D16*
%TO.N,/5V*%
X111379000Y-82804000D02*
X113030000Y-82804000D01*
X113919000Y-78055000D02*
X115012000Y-76962000D01*
X113030000Y-82804000D02*
X113919000Y-81915000D01*
X113919000Y-81915000D02*
X113919000Y-78055000D01*
%TO.N,/3V3*%
X101981000Y-74041000D02*
X101981000Y-77470000D01*
X94996000Y-70612000D02*
X96520000Y-72136000D01*
X100076000Y-72136000D02*
X101981000Y-74041000D01*
X96520000Y-72136000D02*
X100076000Y-72136000D01*
X94996000Y-68072000D02*
X94996000Y-70612000D01*
X101981000Y-77470000D02*
X103505000Y-78994000D01*
X103505000Y-78994000D02*
X106553000Y-78994000D01*
%TO.N,/SDA_EEPROM*%
X101996500Y-66720000D02*
X101996500Y-67620000D01*
X101996500Y-67620000D02*
X99258500Y-70358000D01*
X99258500Y-70358000D02*
X98806000Y-70358000D01*
%TO.N,/SCL_EEPROM*%
X100330000Y-70358000D02*
X102996500Y-67691500D01*
X102996500Y-67691500D02*
X102996500Y-66720000D01*
%TO.N,/5V*%
X115012000Y-76962000D02*
X117298000Y-74676000D01*
X112268000Y-72771000D02*
X112268000Y-76073000D01*
X112268000Y-76073000D02*
X113157000Y-76962000D01*
X113157000Y-76962000D02*
X115012000Y-76962000D01*
X108839000Y-69342000D02*
X112268000Y-72771000D01*
%TD*%
%TA.AperFunction,Conductor*%
%TO.N,GND*%
G36*
X93508556Y-61466002D02*
G01*
X93555049Y-61519658D01*
X93565153Y-61589932D01*
X93535659Y-61654512D01*
X93504858Y-61680285D01*
X93450196Y-61712805D01*
X93443945Y-61717053D01*
X93250733Y-61866115D01*
X93242267Y-61877773D01*
X93248871Y-61889661D01*
X94987188Y-63627978D01*
X95001132Y-63635592D01*
X95002965Y-63635461D01*
X95009580Y-63631210D01*
X96750162Y-61890628D01*
X96757174Y-61877787D01*
X96749379Y-61867098D01*
X96579886Y-61733481D01*
X96573663Y-61729156D01*
X96492326Y-61679605D01*
X96444557Y-61627082D01*
X96432767Y-61557071D01*
X96460699Y-61491800D01*
X96519485Y-61451992D01*
X96557879Y-61446000D01*
X99286595Y-61446000D01*
X99354716Y-61466002D01*
X99401209Y-61519658D01*
X99411313Y-61589932D01*
X99381819Y-61654512D01*
X99362163Y-61672824D01*
X99310239Y-61711739D01*
X99222885Y-61828295D01*
X99171755Y-61964684D01*
X99165000Y-62026866D01*
X99165000Y-67973134D01*
X99171755Y-68035316D01*
X99222885Y-68171705D01*
X99310239Y-68288261D01*
X99426795Y-68375615D01*
X99563184Y-68426745D01*
X99625366Y-68433500D01*
X99980078Y-68433500D01*
X100048199Y-68453502D01*
X100094692Y-68507158D01*
X100104796Y-68577432D01*
X100075302Y-68642012D01*
X100069173Y-68648595D01*
X99202648Y-69515120D01*
X99140336Y-69549146D01*
X99075213Y-69545888D01*
X99070546Y-69543810D01*
X98983016Y-69525205D01*
X98901943Y-69507972D01*
X98901939Y-69507972D01*
X98895486Y-69506600D01*
X98716514Y-69506600D01*
X98710061Y-69507972D01*
X98710057Y-69507972D01*
X98628984Y-69525205D01*
X98541454Y-69543810D01*
X98535424Y-69546495D01*
X98535423Y-69546495D01*
X98383985Y-69613919D01*
X98383983Y-69613920D01*
X98377955Y-69616604D01*
X98372614Y-69620484D01*
X98372613Y-69620485D01*
X98268778Y-69695926D01*
X98233164Y-69721801D01*
X98113409Y-69854803D01*
X98110108Y-69860521D01*
X98045002Y-69973288D01*
X98023923Y-70009797D01*
X97968618Y-70180009D01*
X97967928Y-70186572D01*
X97967928Y-70186573D01*
X97964423Y-70219921D01*
X97949910Y-70358000D01*
X97950600Y-70364565D01*
X97952819Y-70385672D01*
X97968618Y-70535991D01*
X97970658Y-70542269D01*
X97970658Y-70542270D01*
X97973728Y-70551719D01*
X98023923Y-70706203D01*
X98113409Y-70861197D01*
X98117827Y-70866104D01*
X98117828Y-70866105D01*
X98203538Y-70961296D01*
X98233164Y-70994199D01*
X98238506Y-70998080D01*
X98238508Y-70998082D01*
X98372613Y-71095515D01*
X98377955Y-71099396D01*
X98383983Y-71102080D01*
X98383985Y-71102081D01*
X98535423Y-71169505D01*
X98541454Y-71172190D01*
X98628984Y-71190795D01*
X98710057Y-71208028D01*
X98710061Y-71208028D01*
X98716514Y-71209400D01*
X98895486Y-71209400D01*
X98901939Y-71208028D01*
X98901943Y-71208028D01*
X98983016Y-71190795D01*
X99070546Y-71172190D01*
X99076577Y-71169505D01*
X99228015Y-71102081D01*
X99228017Y-71102080D01*
X99234045Y-71099396D01*
X99373854Y-70997818D01*
X99414061Y-70978899D01*
X99417799Y-70978427D01*
X99425172Y-70975508D01*
X99425175Y-70975507D01*
X99459056Y-70962093D01*
X99470285Y-70958248D01*
X99486965Y-70953402D01*
X99512893Y-70945869D01*
X99519720Y-70941831D01*
X99519723Y-70941830D01*
X99530406Y-70935512D01*
X99548164Y-70926812D01*
X99559719Y-70922237D01*
X99559723Y-70922235D01*
X99562005Y-70921332D01*
X99562007Y-70921331D01*
X99567087Y-70919320D01*
X99567411Y-70920140D01*
X99630269Y-70906279D01*
X99696859Y-70930902D01*
X99715272Y-70947673D01*
X99757164Y-70994199D01*
X99762506Y-70998080D01*
X99762508Y-70998082D01*
X99896613Y-71095515D01*
X99901955Y-71099396D01*
X99907983Y-71102080D01*
X99907985Y-71102081D01*
X100059423Y-71169505D01*
X100065454Y-71172190D01*
X100152984Y-71190795D01*
X100234057Y-71208028D01*
X100234061Y-71208028D01*
X100240514Y-71209400D01*
X100419486Y-71209400D01*
X100425939Y-71208028D01*
X100425943Y-71208028D01*
X100507016Y-71190795D01*
X100594546Y-71172190D01*
X100600577Y-71169505D01*
X100752015Y-71102081D01*
X100752017Y-71102080D01*
X100758045Y-71099396D01*
X100763387Y-71095515D01*
X100897492Y-70998082D01*
X100897494Y-70998080D01*
X100902836Y-70994199D01*
X100932462Y-70961296D01*
X101018172Y-70866105D01*
X101018173Y-70866104D01*
X101022591Y-70861197D01*
X101112077Y-70706203D01*
X101162272Y-70551719D01*
X101165342Y-70542270D01*
X101165342Y-70542269D01*
X101167382Y-70535991D01*
X101176418Y-70450023D01*
X101203432Y-70384366D01*
X101212633Y-70374099D01*
X103116327Y-68470405D01*
X103178639Y-68436379D01*
X103205422Y-68433500D01*
X103349634Y-68433500D01*
X103411816Y-68426745D01*
X103419217Y-68423970D01*
X103419219Y-68423970D01*
X103452981Y-68411313D01*
X103523788Y-68406129D01*
X103541443Y-68411313D01*
X103573890Y-68423477D01*
X103589149Y-68427105D01*
X103640014Y-68432631D01*
X103646828Y-68433000D01*
X103724385Y-68433000D01*
X103739624Y-68428525D01*
X103740829Y-68427135D01*
X103742500Y-68419452D01*
X103742500Y-68218852D01*
X103754347Y-68172542D01*
X103752115Y-68171705D01*
X103755267Y-68163297D01*
X103803245Y-68035316D01*
X103810000Y-67973134D01*
X103810000Y-66592000D01*
X103830002Y-66523879D01*
X103883658Y-66477386D01*
X103936000Y-66466000D01*
X104057000Y-66466000D01*
X104125121Y-66486002D01*
X104171614Y-66539658D01*
X104183000Y-66592000D01*
X104183000Y-67973134D01*
X104189755Y-68035316D01*
X104237733Y-68163297D01*
X104240885Y-68171705D01*
X104238653Y-68172542D01*
X104250500Y-68218852D01*
X104250500Y-68414884D01*
X104254975Y-68430123D01*
X104256365Y-68431328D01*
X104264048Y-68432999D01*
X104346169Y-68432999D01*
X104352990Y-68432629D01*
X104403852Y-68427105D01*
X104419107Y-68423478D01*
X104451557Y-68411313D01*
X104522364Y-68406129D01*
X104540019Y-68411313D01*
X104573781Y-68423970D01*
X104573783Y-68423970D01*
X104581184Y-68426745D01*
X104643366Y-68433500D01*
X105349634Y-68433500D01*
X105411816Y-68426745D01*
X105452271Y-68411579D01*
X105523076Y-68406396D01*
X105540723Y-68411577D01*
X105581184Y-68426745D01*
X105643366Y-68433500D01*
X106349634Y-68433500D01*
X106411816Y-68426745D01*
X106452271Y-68411579D01*
X106523076Y-68406396D01*
X106540723Y-68411577D01*
X106581184Y-68426745D01*
X106643366Y-68433500D01*
X107349634Y-68433500D01*
X107411816Y-68426745D01*
X107452271Y-68411579D01*
X107523076Y-68406396D01*
X107540723Y-68411577D01*
X107581184Y-68426745D01*
X107643366Y-68433500D01*
X108253166Y-68433500D01*
X108321287Y-68453502D01*
X108367780Y-68507158D01*
X108377884Y-68577432D01*
X108348390Y-68642012D01*
X108327227Y-68661436D01*
X108320029Y-68666666D01*
X108266164Y-68705801D01*
X108146409Y-68838803D01*
X108056923Y-68993797D01*
X108001618Y-69164009D01*
X107982910Y-69342000D01*
X107983600Y-69348565D01*
X108000211Y-69506600D01*
X108001618Y-69519991D01*
X108056923Y-69690203D01*
X108060226Y-69695925D01*
X108060227Y-69695926D01*
X108091832Y-69750668D01*
X108146409Y-69845197D01*
X108266164Y-69978199D01*
X108271506Y-69982080D01*
X108271508Y-69982082D01*
X108318305Y-70016082D01*
X108410955Y-70083396D01*
X108416983Y-70086080D01*
X108416985Y-70086081D01*
X108568423Y-70153505D01*
X108574454Y-70156190D01*
X108749514Y-70193400D01*
X108752653Y-70193400D01*
X108817122Y-70219921D01*
X108827394Y-70229126D01*
X111595595Y-72997327D01*
X111629621Y-73059639D01*
X111632500Y-73086422D01*
X111632500Y-75993980D01*
X111631970Y-76005214D01*
X111630292Y-76012719D01*
X111630541Y-76020638D01*
X111632438Y-76081012D01*
X111632500Y-76084969D01*
X111632500Y-76112983D01*
X111632996Y-76116908D01*
X111632996Y-76116909D01*
X111633008Y-76117004D01*
X111633941Y-76128849D01*
X111635335Y-76173205D01*
X111637547Y-76180817D01*
X111641013Y-76192748D01*
X111645023Y-76212112D01*
X111647573Y-76232299D01*
X111650489Y-76239663D01*
X111650490Y-76239668D01*
X111663907Y-76273556D01*
X111667752Y-76284785D01*
X111680131Y-76327393D01*
X111684169Y-76334220D01*
X111684170Y-76334223D01*
X111690488Y-76344906D01*
X111699188Y-76362664D01*
X111703761Y-76374215D01*
X111703765Y-76374221D01*
X111706681Y-76381588D01*
X111711339Y-76387999D01*
X111711340Y-76388001D01*
X111732764Y-76417488D01*
X111739281Y-76427410D01*
X111757826Y-76458768D01*
X111757829Y-76458772D01*
X111761866Y-76465598D01*
X111776250Y-76479982D01*
X111789091Y-76495016D01*
X111801058Y-76511487D01*
X111833264Y-76538130D01*
X111835250Y-76539773D01*
X111844031Y-76547763D01*
X112651755Y-77355488D01*
X112659325Y-77363807D01*
X112663447Y-77370303D01*
X112669225Y-77375729D01*
X112669226Y-77375730D01*
X112713265Y-77417085D01*
X112716107Y-77419840D01*
X112735906Y-77439639D01*
X112739031Y-77442063D01*
X112739040Y-77442071D01*
X112739126Y-77442137D01*
X112748151Y-77449845D01*
X112780494Y-77480217D01*
X112787438Y-77484035D01*
X112787440Y-77484036D01*
X112798329Y-77490022D01*
X112814847Y-77500873D01*
X112830933Y-77513350D01*
X112871666Y-77530976D01*
X112882314Y-77536193D01*
X112921197Y-77557569D01*
X112928872Y-77559540D01*
X112928878Y-77559542D01*
X112940911Y-77562631D01*
X112959613Y-77569034D01*
X112978292Y-77577117D01*
X113012128Y-77582476D01*
X113022127Y-77584060D01*
X113033740Y-77586465D01*
X113076718Y-77597500D01*
X113097065Y-77597500D01*
X113116776Y-77599051D01*
X113129050Y-77600995D01*
X113136879Y-77602235D01*
X113144771Y-77601489D01*
X113181056Y-77598059D01*
X113192914Y-77597500D01*
X113232255Y-77597500D01*
X113300376Y-77617502D01*
X113346869Y-77671158D01*
X113356973Y-77741432D01*
X113342670Y-77784200D01*
X113327251Y-77812247D01*
X113327249Y-77812252D01*
X113323431Y-77819197D01*
X113321460Y-77826872D01*
X113321458Y-77826878D01*
X113318369Y-77838911D01*
X113311966Y-77857613D01*
X113303883Y-77876292D01*
X113302644Y-77884117D01*
X113296940Y-77920127D01*
X113294535Y-77931740D01*
X113283500Y-77974718D01*
X113283500Y-77995065D01*
X113281949Y-78014776D01*
X113278765Y-78034879D01*
X113279511Y-78042771D01*
X113282941Y-78079056D01*
X113283500Y-78090914D01*
X113283500Y-81599577D01*
X113263498Y-81667698D01*
X113246595Y-81688673D01*
X112803671Y-82131596D01*
X112741359Y-82165621D01*
X112714576Y-82168500D01*
X112474916Y-82168500D01*
X112406795Y-82148498D01*
X112371703Y-82114771D01*
X112311460Y-82028735D01*
X112311458Y-82028732D01*
X112308301Y-82024224D01*
X112158776Y-81874699D01*
X111985558Y-81753411D01*
X111980580Y-81751090D01*
X111980577Y-81751088D01*
X111798892Y-81666367D01*
X111798891Y-81666366D01*
X111793910Y-81664044D01*
X111788602Y-81662622D01*
X111788600Y-81662621D01*
X111594970Y-81610738D01*
X111594968Y-81610738D01*
X111589655Y-81609314D01*
X111379000Y-81590884D01*
X111168345Y-81609314D01*
X111163032Y-81610738D01*
X111163030Y-81610738D01*
X110969400Y-81662621D01*
X110969398Y-81662622D01*
X110964090Y-81664044D01*
X110959109Y-81666366D01*
X110959108Y-81666367D01*
X110777423Y-81751088D01*
X110777420Y-81751090D01*
X110772442Y-81753411D01*
X110599224Y-81874699D01*
X110449699Y-82024224D01*
X110328411Y-82197442D01*
X110326090Y-82202420D01*
X110326088Y-82202423D01*
X110253199Y-82358735D01*
X110239044Y-82389090D01*
X110237622Y-82394398D01*
X110237621Y-82394400D01*
X110230696Y-82420245D01*
X110184314Y-82593345D01*
X110165884Y-82804000D01*
X110184314Y-83014655D01*
X110239044Y-83218910D01*
X110241366Y-83223891D01*
X110241367Y-83223892D01*
X110325469Y-83404248D01*
X110328411Y-83410558D01*
X110449699Y-83583776D01*
X110599224Y-83733301D01*
X110772442Y-83854589D01*
X110777420Y-83856910D01*
X110777423Y-83856912D01*
X110959108Y-83941633D01*
X110964090Y-83943956D01*
X110969398Y-83945378D01*
X110969400Y-83945379D01*
X110995204Y-83952293D01*
X111055827Y-83989245D01*
X111086848Y-84053106D01*
X111078420Y-84123600D01*
X111033217Y-84178347D01*
X110995204Y-84195707D01*
X110969400Y-84202621D01*
X110969398Y-84202622D01*
X110964090Y-84204044D01*
X110959109Y-84206366D01*
X110959108Y-84206367D01*
X110777423Y-84291088D01*
X110777420Y-84291090D01*
X110772442Y-84293411D01*
X110599224Y-84414699D01*
X110449699Y-84564224D01*
X110328411Y-84737442D01*
X110239044Y-84929090D01*
X110184314Y-85133345D01*
X110165884Y-85344000D01*
X110184314Y-85554655D01*
X110239044Y-85758910D01*
X110328411Y-85950558D01*
X110449699Y-86123776D01*
X110540828Y-86214905D01*
X110574854Y-86277217D01*
X110569789Y-86348032D01*
X110527242Y-86404868D01*
X110460722Y-86429679D01*
X110451733Y-86430000D01*
X92629000Y-86430000D01*
X92560879Y-86409998D01*
X92514386Y-86356342D01*
X92503000Y-86304000D01*
X92503000Y-68072000D01*
X94139910Y-68072000D01*
X94158618Y-68249991D01*
X94213923Y-68420203D01*
X94217226Y-68425925D01*
X94217227Y-68425926D01*
X94218193Y-68427599D01*
X94303409Y-68575197D01*
X94328137Y-68602660D01*
X94358853Y-68666666D01*
X94360500Y-68686969D01*
X94360500Y-70532980D01*
X94359970Y-70544214D01*
X94358292Y-70551719D01*
X94358541Y-70559638D01*
X94360438Y-70620012D01*
X94360500Y-70623969D01*
X94360500Y-70651983D01*
X94360996Y-70655908D01*
X94360996Y-70655909D01*
X94361008Y-70656004D01*
X94361941Y-70667849D01*
X94363335Y-70712205D01*
X94365547Y-70719817D01*
X94369013Y-70731748D01*
X94373023Y-70751112D01*
X94375573Y-70771299D01*
X94378489Y-70778663D01*
X94378490Y-70778668D01*
X94391907Y-70812556D01*
X94395752Y-70823785D01*
X94408131Y-70866393D01*
X94412169Y-70873220D01*
X94412170Y-70873223D01*
X94418488Y-70883906D01*
X94427188Y-70901664D01*
X94431761Y-70913215D01*
X94431765Y-70913221D01*
X94434681Y-70920588D01*
X94439339Y-70926999D01*
X94439340Y-70927001D01*
X94460764Y-70956488D01*
X94467281Y-70966410D01*
X94485826Y-70997768D01*
X94485829Y-70997772D01*
X94489866Y-71004598D01*
X94504250Y-71018982D01*
X94517091Y-71034016D01*
X94529058Y-71050487D01*
X94535166Y-71055540D01*
X94563255Y-71078777D01*
X94572035Y-71086767D01*
X96014745Y-72529477D01*
X96022322Y-72537803D01*
X96026447Y-72544303D01*
X96032225Y-72549729D01*
X96032226Y-72549730D01*
X96076281Y-72591100D01*
X96079123Y-72593855D01*
X96098906Y-72613638D01*
X96102114Y-72616126D01*
X96111143Y-72623837D01*
X96143494Y-72654217D01*
X96150443Y-72658037D01*
X96161329Y-72664022D01*
X96177853Y-72674876D01*
X96193933Y-72687349D01*
X96201210Y-72690498D01*
X96234650Y-72704969D01*
X96245311Y-72710192D01*
X96277247Y-72727749D01*
X96277252Y-72727751D01*
X96284197Y-72731569D01*
X96291871Y-72733539D01*
X96291878Y-72733542D01*
X96303913Y-72736632D01*
X96322618Y-72743036D01*
X96334013Y-72747967D01*
X96341292Y-72751117D01*
X96368342Y-72755401D01*
X96385127Y-72758060D01*
X96396740Y-72760465D01*
X96439718Y-72771500D01*
X96460065Y-72771500D01*
X96479777Y-72773051D01*
X96499879Y-72776235D01*
X96507771Y-72775489D01*
X96544056Y-72772059D01*
X96555914Y-72771500D01*
X99760578Y-72771500D01*
X99828699Y-72791502D01*
X99849673Y-72808405D01*
X101308595Y-74267328D01*
X101342621Y-74329640D01*
X101345500Y-74356423D01*
X101345500Y-77390980D01*
X101344970Y-77402214D01*
X101343292Y-77409719D01*
X101344144Y-77436833D01*
X101345438Y-77478012D01*
X101345500Y-77481969D01*
X101345500Y-77509983D01*
X101345996Y-77513908D01*
X101345996Y-77513909D01*
X101346008Y-77514004D01*
X101346941Y-77525849D01*
X101348335Y-77570205D01*
X101352630Y-77584988D01*
X101354013Y-77589748D01*
X101358023Y-77609112D01*
X101360573Y-77629299D01*
X101363489Y-77636663D01*
X101363490Y-77636668D01*
X101376907Y-77670556D01*
X101380752Y-77681785D01*
X101393131Y-77724393D01*
X101397169Y-77731220D01*
X101397170Y-77731223D01*
X101403488Y-77741906D01*
X101412188Y-77759664D01*
X101416761Y-77771215D01*
X101416765Y-77771221D01*
X101419681Y-77778588D01*
X101424339Y-77784999D01*
X101424340Y-77785001D01*
X101445764Y-77814488D01*
X101452281Y-77824410D01*
X101470826Y-77855768D01*
X101470829Y-77855772D01*
X101474866Y-77862598D01*
X101489250Y-77876982D01*
X101502091Y-77892016D01*
X101514058Y-77908487D01*
X101520166Y-77913540D01*
X101548255Y-77936777D01*
X101557035Y-77944767D01*
X102999745Y-79387477D01*
X103007322Y-79395803D01*
X103011447Y-79402303D01*
X103017225Y-79407729D01*
X103017226Y-79407730D01*
X103061281Y-79449100D01*
X103064123Y-79451855D01*
X103083906Y-79471638D01*
X103087114Y-79474126D01*
X103096143Y-79481837D01*
X103128494Y-79512217D01*
X103135443Y-79516037D01*
X103146329Y-79522022D01*
X103162853Y-79532876D01*
X103178933Y-79545349D01*
X103186210Y-79548498D01*
X103219650Y-79562969D01*
X103230311Y-79568192D01*
X103262247Y-79585749D01*
X103262252Y-79585751D01*
X103269197Y-79589569D01*
X103276871Y-79591539D01*
X103276878Y-79591542D01*
X103288913Y-79594632D01*
X103307618Y-79601036D01*
X103319013Y-79605967D01*
X103326292Y-79609117D01*
X103353342Y-79613401D01*
X103370127Y-79616060D01*
X103381740Y-79618465D01*
X103424718Y-79629500D01*
X103445065Y-79629500D01*
X103464777Y-79631051D01*
X103484879Y-79634235D01*
X103492771Y-79633489D01*
X103529056Y-79630059D01*
X103540914Y-79629500D01*
X105938262Y-79629500D01*
X106006383Y-79649502D01*
X106012323Y-79653564D01*
X106124955Y-79735396D01*
X106130983Y-79738080D01*
X106130985Y-79738081D01*
X106282423Y-79805505D01*
X106288454Y-79808190D01*
X106375984Y-79826795D01*
X106457057Y-79844028D01*
X106457061Y-79844028D01*
X106463514Y-79845400D01*
X106642486Y-79845400D01*
X106648939Y-79844028D01*
X106648943Y-79844028D01*
X106730016Y-79826795D01*
X106817546Y-79808190D01*
X106823577Y-79805505D01*
X106975015Y-79738081D01*
X106975017Y-79738080D01*
X106981045Y-79735396D01*
X107125836Y-79630199D01*
X107130258Y-79625288D01*
X107241172Y-79502105D01*
X107241173Y-79502104D01*
X107245591Y-79497197D01*
X107335077Y-79342203D01*
X107390382Y-79171991D01*
X107409090Y-78994000D01*
X107390382Y-78816009D01*
X107335077Y-78645797D01*
X107245591Y-78490803D01*
X107125836Y-78357801D01*
X106981045Y-78252604D01*
X106975017Y-78249920D01*
X106975015Y-78249919D01*
X106823577Y-78182495D01*
X106823576Y-78182495D01*
X106817546Y-78179810D01*
X106730016Y-78161205D01*
X106648943Y-78143972D01*
X106648939Y-78143972D01*
X106642486Y-78142600D01*
X106463514Y-78142600D01*
X106457061Y-78143972D01*
X106457057Y-78143972D01*
X106375984Y-78161205D01*
X106288454Y-78179810D01*
X106282424Y-78182495D01*
X106282423Y-78182495D01*
X106130985Y-78249919D01*
X106130983Y-78249920D01*
X106124955Y-78252604D01*
X106119614Y-78256484D01*
X106119613Y-78256485D01*
X106012323Y-78334436D01*
X105945455Y-78358295D01*
X105938262Y-78358500D01*
X103820423Y-78358500D01*
X103752302Y-78338498D01*
X103731328Y-78321595D01*
X102653405Y-77243672D01*
X102619379Y-77181360D01*
X102616500Y-77154577D01*
X102616500Y-74120032D01*
X102617030Y-74108793D01*
X102618709Y-74101281D01*
X102616562Y-74032969D01*
X102616500Y-74029012D01*
X102616500Y-74001017D01*
X102615992Y-73996994D01*
X102615059Y-73985152D01*
X102613914Y-73948720D01*
X102613665Y-73940795D01*
X102607987Y-73921251D01*
X102603977Y-73901888D01*
X102602420Y-73889560D01*
X102602420Y-73889558D01*
X102601427Y-73881701D01*
X102598511Y-73874337D01*
X102598510Y-73874332D01*
X102585093Y-73840444D01*
X102581248Y-73829215D01*
X102571081Y-73794222D01*
X102568869Y-73786607D01*
X102564830Y-73779777D01*
X102558512Y-73769094D01*
X102549812Y-73751336D01*
X102545239Y-73739785D01*
X102545235Y-73739779D01*
X102542319Y-73732412D01*
X102516234Y-73696509D01*
X102509719Y-73686590D01*
X102491174Y-73655232D01*
X102491171Y-73655228D01*
X102487134Y-73648402D01*
X102472750Y-73634018D01*
X102459909Y-73618984D01*
X102452602Y-73608927D01*
X102447942Y-73602513D01*
X102413744Y-73574222D01*
X102404965Y-73566233D01*
X100581250Y-71742517D01*
X100573674Y-71734191D01*
X100569553Y-71727697D01*
X100519734Y-71680914D01*
X100516893Y-71678160D01*
X100497094Y-71658361D01*
X100493969Y-71655937D01*
X100493960Y-71655929D01*
X100493874Y-71655863D01*
X100484849Y-71648155D01*
X100458285Y-71623210D01*
X100452506Y-71617783D01*
X100434669Y-71607977D01*
X100418153Y-71597127D01*
X100402067Y-71584650D01*
X100361334Y-71567024D01*
X100350686Y-71561807D01*
X100339058Y-71555415D01*
X100311803Y-71540431D01*
X100304128Y-71538460D01*
X100304122Y-71538458D01*
X100292089Y-71535369D01*
X100273387Y-71528966D01*
X100254708Y-71520883D01*
X100220872Y-71515524D01*
X100210873Y-71513940D01*
X100199260Y-71511535D01*
X100156282Y-71500500D01*
X100135935Y-71500500D01*
X100116224Y-71498949D01*
X100103950Y-71497005D01*
X100096121Y-71495765D01*
X100088229Y-71496511D01*
X100051944Y-71499941D01*
X100040086Y-71500500D01*
X96835423Y-71500500D01*
X96767302Y-71480498D01*
X96746328Y-71463595D01*
X95668405Y-70385672D01*
X95634379Y-70323360D01*
X95631500Y-70296577D01*
X95631500Y-68686969D01*
X95651502Y-68618848D01*
X95663858Y-68602665D01*
X95688591Y-68575197D01*
X95773807Y-68427599D01*
X95774773Y-68425926D01*
X95774774Y-68425925D01*
X95778077Y-68420203D01*
X95833382Y-68249991D01*
X95852090Y-68072000D01*
X95833382Y-67894009D01*
X95778077Y-67723797D01*
X95688591Y-67568803D01*
X95568836Y-67435801D01*
X95424045Y-67330604D01*
X95418017Y-67327920D01*
X95418015Y-67327919D01*
X95266577Y-67260495D01*
X95266576Y-67260495D01*
X95260546Y-67257810D01*
X95173016Y-67239205D01*
X95091943Y-67221972D01*
X95091939Y-67221972D01*
X95085486Y-67220600D01*
X94906514Y-67220600D01*
X94900061Y-67221972D01*
X94900057Y-67221972D01*
X94818984Y-67239205D01*
X94731454Y-67257810D01*
X94725424Y-67260495D01*
X94725423Y-67260495D01*
X94573985Y-67327919D01*
X94573983Y-67327920D01*
X94567955Y-67330604D01*
X94423164Y-67435801D01*
X94303409Y-67568803D01*
X94213923Y-67723797D01*
X94158618Y-67894009D01*
X94139910Y-68072000D01*
X92503000Y-68072000D01*
X92503000Y-66121982D01*
X93243142Y-66121982D01*
X93250668Y-66132415D01*
X93396463Y-66249848D01*
X93402648Y-66254244D01*
X93678363Y-66426195D01*
X93685034Y-66429817D01*
X93979414Y-66567402D01*
X93986468Y-66570195D01*
X94295257Y-66671420D01*
X94302570Y-66673339D01*
X94621298Y-66736738D01*
X94628789Y-66737764D01*
X94952823Y-66762413D01*
X94960386Y-66762531D01*
X95285021Y-66748074D01*
X95292562Y-66747282D01*
X95613115Y-66693926D01*
X95620479Y-66692240D01*
X95932315Y-66600757D01*
X95939424Y-66598198D01*
X96238003Y-66469919D01*
X96244770Y-66466515D01*
X96525764Y-66303301D01*
X96532071Y-66299111D01*
X96750005Y-66134588D01*
X96758461Y-66123197D01*
X96751743Y-66110953D01*
X95012812Y-64372022D01*
X94998868Y-64364408D01*
X94997035Y-64364539D01*
X94990420Y-64368790D01*
X93250257Y-66108953D01*
X93243142Y-66121982D01*
X92503000Y-66121982D01*
X92503000Y-65647024D01*
X92523002Y-65578903D01*
X92576658Y-65532410D01*
X92646932Y-65522306D01*
X92711512Y-65551800D01*
X92729163Y-65570582D01*
X92865792Y-65749608D01*
X92877316Y-65758069D01*
X92889382Y-65751408D01*
X94627978Y-64012812D01*
X94634356Y-64001132D01*
X95364408Y-64001132D01*
X95364539Y-64002965D01*
X95368790Y-64009580D01*
X97108825Y-65749615D01*
X97121948Y-65756781D01*
X97132250Y-65749391D01*
X97241429Y-65615285D01*
X97245842Y-65609144D01*
X97419248Y-65334312D01*
X97422895Y-65327677D01*
X97562025Y-65034011D01*
X97564850Y-65026984D01*
X97667696Y-64718715D01*
X97669650Y-64711424D01*
X97734716Y-64393033D01*
X97735784Y-64385529D01*
X97762253Y-64060100D01*
X97762458Y-64055625D01*
X97763018Y-64002221D01*
X97762908Y-63997789D01*
X97743257Y-63671835D01*
X97742349Y-63664333D01*
X97683967Y-63344663D01*
X97682154Y-63337284D01*
X97585797Y-63026966D01*
X97583116Y-63019869D01*
X97450172Y-62723363D01*
X97446655Y-62716636D01*
X97279054Y-62438252D01*
X97274757Y-62431999D01*
X97133617Y-62251022D01*
X97121823Y-62242551D01*
X97110113Y-62249097D01*
X95372022Y-63987188D01*
X95364408Y-64001132D01*
X94634356Y-64001132D01*
X94635592Y-63998868D01*
X94635461Y-63997035D01*
X94631210Y-63990420D01*
X92890864Y-62250074D01*
X92877929Y-62243011D01*
X92867367Y-62250671D01*
X92741785Y-62408268D01*
X92737427Y-62414469D01*
X92736261Y-62416360D01*
X92735816Y-62416760D01*
X92735245Y-62417573D01*
X92735059Y-62417442D01*
X92683489Y-62463855D01*
X92613418Y-62475279D01*
X92548294Y-62447006D01*
X92508793Y-62388012D01*
X92503000Y-62350246D01*
X92503000Y-61572000D01*
X92523002Y-61503879D01*
X92576658Y-61457386D01*
X92629000Y-61446000D01*
X93440435Y-61446000D01*
X93508556Y-61466002D01*
G37*
%TD.AperFunction*%
%TA.AperFunction,Conductor*%
G36*
X117508556Y-61466002D02*
G01*
X117555049Y-61519658D01*
X117565153Y-61589932D01*
X117535659Y-61654512D01*
X117504858Y-61680285D01*
X117450196Y-61712805D01*
X117443945Y-61717053D01*
X117250733Y-61866115D01*
X117242267Y-61877773D01*
X117248871Y-61889661D01*
X118987188Y-63627978D01*
X119001132Y-63635592D01*
X119002965Y-63635461D01*
X119009580Y-63631210D01*
X120750162Y-61890628D01*
X120757174Y-61877787D01*
X120749379Y-61867098D01*
X120579886Y-61733481D01*
X120573663Y-61729156D01*
X120492326Y-61679605D01*
X120444557Y-61627082D01*
X120432767Y-61557071D01*
X120460699Y-61491800D01*
X120519485Y-61451992D01*
X120557879Y-61446000D01*
X121361000Y-61446000D01*
X121429121Y-61466002D01*
X121475614Y-61519658D01*
X121487000Y-61572000D01*
X121487000Y-62337698D01*
X121466998Y-62405819D01*
X121413342Y-62452312D01*
X121343068Y-62462416D01*
X121278488Y-62432922D01*
X121261643Y-62415184D01*
X121133617Y-62251022D01*
X121121823Y-62242551D01*
X121110113Y-62249097D01*
X119372022Y-63987188D01*
X119364408Y-64001132D01*
X119364539Y-64002965D01*
X119368790Y-64009580D01*
X121108825Y-65749615D01*
X121121948Y-65756781D01*
X121132250Y-65749391D01*
X121241429Y-65615285D01*
X121245838Y-65609149D01*
X121254437Y-65595520D01*
X121307703Y-65548581D01*
X121377891Y-65537891D01*
X121442715Y-65566844D01*
X121481596Y-65626248D01*
X121487000Y-65662754D01*
X121487000Y-86304000D01*
X121466998Y-86372121D01*
X121413342Y-86418614D01*
X121361000Y-86430000D01*
X112306267Y-86430000D01*
X112238146Y-86409998D01*
X112191653Y-86356342D01*
X112181549Y-86286068D01*
X112211043Y-86221488D01*
X112217172Y-86214905D01*
X112308301Y-86123776D01*
X112429589Y-85950558D01*
X112518956Y-85758910D01*
X112573686Y-85554655D01*
X112592116Y-85344000D01*
X112573686Y-85133345D01*
X112518956Y-84929090D01*
X112429589Y-84737442D01*
X112308301Y-84564224D01*
X112158776Y-84414699D01*
X111985558Y-84293411D01*
X111980580Y-84291090D01*
X111980577Y-84291088D01*
X111798892Y-84206367D01*
X111798891Y-84206366D01*
X111793910Y-84204044D01*
X111788602Y-84202622D01*
X111788600Y-84202621D01*
X111762796Y-84195707D01*
X111702173Y-84158755D01*
X111671152Y-84094894D01*
X111679580Y-84024400D01*
X111724783Y-83969653D01*
X111762796Y-83952293D01*
X111788600Y-83945379D01*
X111788602Y-83945378D01*
X111793910Y-83943956D01*
X111798892Y-83941633D01*
X111980577Y-83856912D01*
X111980580Y-83856910D01*
X111985558Y-83854589D01*
X112158776Y-83733301D01*
X112308301Y-83583776D01*
X112311460Y-83579265D01*
X112371703Y-83493229D01*
X112427160Y-83448901D01*
X112474916Y-83439500D01*
X112950980Y-83439500D01*
X112962214Y-83440030D01*
X112969719Y-83441708D01*
X113038012Y-83439562D01*
X113041969Y-83439500D01*
X113069983Y-83439500D01*
X113073908Y-83439004D01*
X113073909Y-83439004D01*
X113074004Y-83438992D01*
X113085849Y-83438059D01*
X113115670Y-83437122D01*
X113122282Y-83436914D01*
X113122283Y-83436914D01*
X113130205Y-83436665D01*
X113149749Y-83430987D01*
X113169112Y-83426977D01*
X113181440Y-83425420D01*
X113181442Y-83425420D01*
X113189299Y-83424427D01*
X113196663Y-83421511D01*
X113196668Y-83421510D01*
X113230556Y-83408093D01*
X113241785Y-83404248D01*
X113258465Y-83399402D01*
X113284393Y-83391869D01*
X113291220Y-83387831D01*
X113291223Y-83387830D01*
X113301906Y-83381512D01*
X113319664Y-83372812D01*
X113331215Y-83368239D01*
X113331221Y-83368235D01*
X113338588Y-83365319D01*
X113374491Y-83339234D01*
X113384410Y-83332719D01*
X113415768Y-83314174D01*
X113415772Y-83314171D01*
X113422598Y-83310134D01*
X113436982Y-83295750D01*
X113452016Y-83282909D01*
X113462073Y-83275602D01*
X113468487Y-83270942D01*
X113496773Y-83236750D01*
X113504763Y-83227969D01*
X114312488Y-82420245D01*
X114320807Y-82412675D01*
X114327303Y-82408553D01*
X114340594Y-82394400D01*
X114374085Y-82358735D01*
X114376840Y-82355893D01*
X114396639Y-82336094D01*
X114399063Y-82332969D01*
X114399071Y-82332960D01*
X114399137Y-82332874D01*
X114406845Y-82323849D01*
X114431790Y-82297285D01*
X114437217Y-82291506D01*
X114447023Y-82273669D01*
X114457873Y-82257153D01*
X114470350Y-82241067D01*
X114487976Y-82200334D01*
X114493193Y-82189686D01*
X114510749Y-82157751D01*
X114514569Y-82150803D01*
X114516540Y-82143128D01*
X114516542Y-82143122D01*
X114519631Y-82131089D01*
X114526034Y-82112387D01*
X114534117Y-82093708D01*
X114541060Y-82049873D01*
X114543467Y-82038251D01*
X114545910Y-82028736D01*
X114554500Y-81995282D01*
X114554500Y-81974935D01*
X114556051Y-81955224D01*
X114557995Y-81942950D01*
X114559235Y-81935121D01*
X114555059Y-81890944D01*
X114554500Y-81879086D01*
X114554500Y-78370422D01*
X114574502Y-78302301D01*
X114591405Y-78281327D01*
X115418982Y-77453750D01*
X115434016Y-77440909D01*
X115444073Y-77433602D01*
X115450487Y-77428942D01*
X115478778Y-77394744D01*
X115486767Y-77385965D01*
X116968865Y-75903867D01*
X117031177Y-75869841D01*
X117079840Y-75868876D01*
X117082033Y-75869263D01*
X117087345Y-75870686D01*
X117298000Y-75889116D01*
X117508655Y-75870686D01*
X117513968Y-75869262D01*
X117513970Y-75869262D01*
X117707600Y-75817379D01*
X117707602Y-75817378D01*
X117712910Y-75815956D01*
X117717892Y-75813633D01*
X117899577Y-75728912D01*
X117899580Y-75728910D01*
X117904558Y-75726589D01*
X118077776Y-75605301D01*
X118227301Y-75455776D01*
X118348589Y-75282558D01*
X118437956Y-75090910D01*
X118492686Y-74886655D01*
X118511116Y-74676000D01*
X118492686Y-74465345D01*
X118468591Y-74375420D01*
X118439379Y-74266400D01*
X118439378Y-74266398D01*
X118437956Y-74261090D01*
X118348589Y-74069442D01*
X118227301Y-73896224D01*
X118077776Y-73746699D01*
X117904558Y-73625411D01*
X117899580Y-73623090D01*
X117899577Y-73623088D01*
X117717892Y-73538367D01*
X117717891Y-73538366D01*
X117712910Y-73536044D01*
X117707602Y-73534622D01*
X117707600Y-73534621D01*
X117513970Y-73482738D01*
X117513968Y-73482738D01*
X117508655Y-73481314D01*
X117298000Y-73462884D01*
X117087345Y-73481314D01*
X117082032Y-73482738D01*
X117082030Y-73482738D01*
X116888400Y-73534621D01*
X116888398Y-73534622D01*
X116883090Y-73536044D01*
X116878109Y-73538366D01*
X116878108Y-73538367D01*
X116696423Y-73623088D01*
X116696420Y-73623090D01*
X116691442Y-73625411D01*
X116518224Y-73746699D01*
X116368699Y-73896224D01*
X116247411Y-74069442D01*
X116158044Y-74261090D01*
X116156622Y-74266398D01*
X116156621Y-74266400D01*
X116149707Y-74292204D01*
X116112755Y-74352827D01*
X116048894Y-74383848D01*
X115978400Y-74375420D01*
X115923653Y-74330217D01*
X115906293Y-74292204D01*
X115899379Y-74266400D01*
X115899378Y-74266398D01*
X115897956Y-74261090D01*
X115808589Y-74069442D01*
X115687301Y-73896224D01*
X115537776Y-73746699D01*
X115364558Y-73625411D01*
X115359580Y-73623090D01*
X115359577Y-73623088D01*
X115177892Y-73538367D01*
X115177891Y-73538366D01*
X115172910Y-73536044D01*
X115167602Y-73534622D01*
X115167600Y-73534621D01*
X114973970Y-73482738D01*
X114973968Y-73482738D01*
X114968655Y-73481314D01*
X114758000Y-73462884D01*
X114547345Y-73481314D01*
X114542032Y-73482738D01*
X114542030Y-73482738D01*
X114348400Y-73534621D01*
X114348398Y-73534622D01*
X114343090Y-73536044D01*
X114338109Y-73538366D01*
X114338108Y-73538367D01*
X114156423Y-73623088D01*
X114156420Y-73623090D01*
X114151442Y-73625411D01*
X113978224Y-73746699D01*
X113828699Y-73896224D01*
X113707411Y-74069442D01*
X113618044Y-74261090D01*
X113616622Y-74266398D01*
X113616621Y-74266400D01*
X113587409Y-74375420D01*
X113563314Y-74465345D01*
X113544884Y-74676000D01*
X113563314Y-74886655D01*
X113618044Y-75090910D01*
X113707411Y-75282558D01*
X113828699Y-75455776D01*
X113978224Y-75605301D01*
X114151442Y-75726589D01*
X114156420Y-75728910D01*
X114156423Y-75728912D01*
X114338108Y-75813633D01*
X114343090Y-75815956D01*
X114348398Y-75817378D01*
X114348400Y-75817379D01*
X114542030Y-75869262D01*
X114542032Y-75869262D01*
X114547345Y-75870686D01*
X114758000Y-75889116D01*
X114763475Y-75888637D01*
X114882336Y-75878238D01*
X114951941Y-75892227D01*
X115002934Y-75941627D01*
X115019124Y-76010753D01*
X114995372Y-76077658D01*
X114982413Y-76092854D01*
X114785672Y-76289595D01*
X114723360Y-76323621D01*
X114696577Y-76326500D01*
X113472423Y-76326500D01*
X113404302Y-76306498D01*
X113383327Y-76289595D01*
X112940404Y-75846671D01*
X112906379Y-75784359D01*
X112903500Y-75757576D01*
X112903500Y-72850020D01*
X112904029Y-72838791D01*
X112905708Y-72831281D01*
X112903562Y-72763001D01*
X112903500Y-72759044D01*
X112903500Y-72731017D01*
X112902989Y-72726971D01*
X112902057Y-72715136D01*
X112901032Y-72682491D01*
X112900664Y-72670795D01*
X112894987Y-72651254D01*
X112890978Y-72631894D01*
X112889421Y-72619566D01*
X112889420Y-72619563D01*
X112888427Y-72611701D01*
X112885510Y-72604335D01*
X112885509Y-72604329D01*
X112872091Y-72570439D01*
X112868246Y-72559210D01*
X112863915Y-72544303D01*
X112855869Y-72516607D01*
X112851836Y-72509788D01*
X112851834Y-72509783D01*
X112845510Y-72499091D01*
X112836813Y-72481341D01*
X112829319Y-72462412D01*
X112803240Y-72426517D01*
X112796722Y-72416595D01*
X112778170Y-72385224D01*
X112778166Y-72385219D01*
X112774134Y-72378401D01*
X112759747Y-72364014D01*
X112746906Y-72348980D01*
X112739602Y-72338927D01*
X112734942Y-72332513D01*
X112700750Y-72304227D01*
X112691971Y-72296238D01*
X109721633Y-69325900D01*
X109687607Y-69263588D01*
X109685418Y-69249976D01*
X109677072Y-69170573D01*
X109677072Y-69170572D01*
X109676382Y-69164009D01*
X109621077Y-68993797D01*
X109531591Y-68838803D01*
X109411836Y-68705801D01*
X109341879Y-68654974D01*
X109298525Y-68598751D01*
X109292450Y-68528015D01*
X109325582Y-68465224D01*
X109387402Y-68430312D01*
X109402336Y-68427775D01*
X109403959Y-68427599D01*
X109403963Y-68427598D01*
X109411816Y-68426745D01*
X109452271Y-68411579D01*
X109523076Y-68406396D01*
X109540723Y-68411577D01*
X109581184Y-68426745D01*
X109643366Y-68433500D01*
X110349634Y-68433500D01*
X110411816Y-68426745D01*
X110452271Y-68411579D01*
X110523076Y-68406396D01*
X110540723Y-68411577D01*
X110581184Y-68426745D01*
X110643366Y-68433500D01*
X111349634Y-68433500D01*
X111411816Y-68426745D01*
X111452271Y-68411579D01*
X111523076Y-68406396D01*
X111540723Y-68411577D01*
X111581184Y-68426745D01*
X111643366Y-68433500D01*
X112349634Y-68433500D01*
X112411816Y-68426745D01*
X112548205Y-68375615D01*
X112664761Y-68288261D01*
X112713174Y-68223664D01*
X112770033Y-68181149D01*
X112840852Y-68176123D01*
X112903145Y-68210183D01*
X112914826Y-68223664D01*
X112963239Y-68288261D01*
X113079795Y-68375615D01*
X113216184Y-68426745D01*
X113278366Y-68433500D01*
X114374634Y-68433500D01*
X114436816Y-68426745D01*
X114573205Y-68375615D01*
X114689761Y-68288261D01*
X114777115Y-68171705D01*
X114828245Y-68035316D01*
X114835000Y-67973134D01*
X114835000Y-66121982D01*
X117243142Y-66121982D01*
X117250668Y-66132415D01*
X117396463Y-66249848D01*
X117402648Y-66254244D01*
X117678363Y-66426195D01*
X117685034Y-66429817D01*
X117979414Y-66567402D01*
X117986468Y-66570195D01*
X118295257Y-66671420D01*
X118302570Y-66673339D01*
X118621298Y-66736738D01*
X118628789Y-66737764D01*
X118952823Y-66762413D01*
X118960386Y-66762531D01*
X119285021Y-66748074D01*
X119292562Y-66747282D01*
X119613115Y-66693926D01*
X119620479Y-66692240D01*
X119932315Y-66600757D01*
X119939424Y-66598198D01*
X120238003Y-66469919D01*
X120244770Y-66466515D01*
X120525764Y-66303301D01*
X120532071Y-66299111D01*
X120750005Y-66134588D01*
X120758461Y-66123197D01*
X120751743Y-66110953D01*
X119012812Y-64372022D01*
X118998868Y-64364408D01*
X118997035Y-64364539D01*
X118990420Y-64368790D01*
X117250257Y-66108953D01*
X117243142Y-66121982D01*
X114835000Y-66121982D01*
X114835000Y-63974858D01*
X116237299Y-63974858D01*
X116253456Y-64299410D01*
X116254287Y-64306939D01*
X116309318Y-64627198D01*
X116311051Y-64634585D01*
X116404156Y-64945909D01*
X116406759Y-64953022D01*
X116536595Y-65250913D01*
X116540037Y-65257669D01*
X116704720Y-65537803D01*
X116708943Y-65544088D01*
X116865792Y-65749608D01*
X116877316Y-65758069D01*
X116889382Y-65751408D01*
X118627978Y-64012812D01*
X118635592Y-63998868D01*
X118635461Y-63997035D01*
X118631210Y-63990420D01*
X116890864Y-62250074D01*
X116877929Y-62243011D01*
X116867367Y-62250671D01*
X116741785Y-62408268D01*
X116737428Y-62414467D01*
X116566913Y-62691094D01*
X116563333Y-62697770D01*
X116427287Y-62992878D01*
X116424537Y-62999929D01*
X116324927Y-63309251D01*
X116323044Y-63316584D01*
X116261316Y-63635632D01*
X116260329Y-63643132D01*
X116237378Y-63967277D01*
X116237299Y-63974858D01*
X114835000Y-63974858D01*
X114835000Y-62026866D01*
X114828245Y-61964684D01*
X114777115Y-61828295D01*
X114689761Y-61711739D01*
X114637838Y-61672825D01*
X114595325Y-61615966D01*
X114590300Y-61545148D01*
X114624359Y-61482855D01*
X114686691Y-61448865D01*
X114713405Y-61446000D01*
X117440435Y-61446000D01*
X117508556Y-61466002D01*
G37*
%TD.AperFunction*%
%TD*%
M02*
