%TF.GenerationSoftware,KiCad,Pcbnew,(6.0.0-0)*%
%TF.CreationDate,2022-03-07T03:13:55-05:00*%
%TF.ProjectId,color,636f6c6f-722e-46b6-9963-61645f706362,rev?*%
%TF.SameCoordinates,Original*%
%TF.FileFunction,Legend,Top*%
%TF.FilePolarity,Positive*%
%FSLAX46Y46*%
G04 Gerber Fmt 4.6, Leading zero omitted, Abs format (unit mm)*
G04 Created by KiCad (PCBNEW (6.0.0-0)) date 2022-03-07 03:13:55*
%MOMM*%
%LPD*%
G01*
G04 APERTURE LIST*
%ADD10C,0.152400*%
%ADD11C,0.080000*%
%ADD12C,0.150000*%
%ADD13C,0.200000*%
%ADD14C,0.120000*%
%ADD15C,0.127000*%
%ADD16C,0.100000*%
%ADD17C,0.500000*%
%ADD18C,1.000000*%
G04 APERTURE END LIST*
D10*
X114173000Y-69342000D02*
X115316000Y-70485000D01*
X111315500Y-80137000D02*
X111696500Y-79629000D01*
X110553500Y-80137000D02*
X110934500Y-79629000D01*
X116141500Y-72136000D02*
X116522500Y-71628000D01*
X115125500Y-71882000D02*
X114676123Y-71882000D01*
X112395000Y-80010000D02*
X112649000Y-80010000D01*
X117221000Y-72009000D02*
X117475000Y-72009000D01*
X112522000Y-79883000D02*
G75*
G03*
X112522000Y-79883000I-1270000J0D01*
G01*
X112014000Y-80010000D02*
X112395000Y-80010000D01*
X108712000Y-77978000D02*
X109855000Y-79121000D01*
X116840000Y-72009000D02*
X117221000Y-72009000D01*
X110490000Y-78486000D02*
X109982000Y-78359000D01*
X109982000Y-78359000D02*
X110363000Y-77978000D01*
X110363000Y-77978000D02*
X110490000Y-78486000D01*
G36*
X110490000Y-78486000D02*
G01*
X109982000Y-78359000D01*
X110363000Y-77978000D01*
X110490000Y-78486000D01*
G37*
X110490000Y-78486000D02*
X109982000Y-78359000D01*
X110363000Y-77978000D01*
X110490000Y-78486000D01*
X115316000Y-70485000D02*
X114808000Y-70358000D01*
X114808000Y-70358000D02*
X115189000Y-69977000D01*
X115189000Y-69977000D02*
X115316000Y-70485000D01*
G36*
X115316000Y-70485000D02*
G01*
X114808000Y-70358000D01*
X115189000Y-69977000D01*
X115316000Y-70485000D01*
G37*
X115316000Y-70485000D02*
X114808000Y-70358000D01*
X115189000Y-69977000D01*
X115316000Y-70485000D01*
X110299500Y-79883000D02*
X109850123Y-79883000D01*
X113538000Y-69977000D02*
X114681000Y-71120000D01*
X117348000Y-71882000D02*
G75*
G03*
X117348000Y-71882000I-1270000J0D01*
G01*
X115125500Y-71882000D02*
X115379500Y-72136000D01*
X110934500Y-79629000D02*
X111315500Y-80137000D01*
X114681000Y-71120000D02*
X114173000Y-70993000D01*
X114173000Y-70993000D02*
X114554000Y-70612000D01*
X114554000Y-70612000D02*
X114681000Y-71120000D01*
G36*
X114681000Y-71120000D02*
G01*
X114173000Y-70993000D01*
X114554000Y-70612000D01*
X114681000Y-71120000D01*
G37*
X114681000Y-71120000D02*
X114173000Y-70993000D01*
X114554000Y-70612000D01*
X114681000Y-71120000D01*
X115379500Y-72136000D02*
X115760500Y-71628000D01*
X110299500Y-79883000D02*
X110553500Y-80137000D01*
X115760500Y-71628000D02*
X116141500Y-72136000D01*
X109347000Y-77343000D02*
X110490000Y-78486000D01*
X111696500Y-79629000D02*
X112014000Y-80010000D01*
X109855000Y-79121000D02*
X109347000Y-78994000D01*
X109347000Y-78994000D02*
X109728000Y-78613000D01*
X109728000Y-78613000D02*
X109855000Y-79121000D01*
G36*
X109855000Y-79121000D02*
G01*
X109347000Y-78994000D01*
X109728000Y-78613000D01*
X109855000Y-79121000D01*
G37*
X109855000Y-79121000D02*
X109347000Y-78994000D01*
X109728000Y-78613000D01*
X109855000Y-79121000D01*
X116522500Y-71628000D02*
X116840000Y-72009000D01*
D11*
X93952571Y-78299428D02*
X93666857Y-78299428D01*
X93666857Y-77699428D01*
X94152571Y-78299428D02*
X94152571Y-77899428D01*
X94152571Y-77699428D02*
X94124000Y-77728000D01*
X94152571Y-77756571D01*
X94181142Y-77728000D01*
X94152571Y-77699428D01*
X94152571Y-77756571D01*
X94695428Y-77899428D02*
X94695428Y-78385142D01*
X94666857Y-78442285D01*
X94638285Y-78470857D01*
X94581142Y-78499428D01*
X94495428Y-78499428D01*
X94438285Y-78470857D01*
X94695428Y-78270857D02*
X94638285Y-78299428D01*
X94524000Y-78299428D01*
X94466857Y-78270857D01*
X94438285Y-78242285D01*
X94409714Y-78185142D01*
X94409714Y-78013714D01*
X94438285Y-77956571D01*
X94466857Y-77928000D01*
X94524000Y-77899428D01*
X94638285Y-77899428D01*
X94695428Y-77928000D01*
X94981142Y-78299428D02*
X94981142Y-77699428D01*
X95238285Y-78299428D02*
X95238285Y-77985142D01*
X95209714Y-77928000D01*
X95152571Y-77899428D01*
X95066857Y-77899428D01*
X95009714Y-77928000D01*
X94981142Y-77956571D01*
X95438285Y-77899428D02*
X95666857Y-77899428D01*
X95524000Y-77699428D02*
X95524000Y-78213714D01*
X95552571Y-78270857D01*
X95609714Y-78299428D01*
X95666857Y-78299428D01*
X96295428Y-78270857D02*
X96381142Y-78299428D01*
X96524000Y-78299428D01*
X96581142Y-78270857D01*
X96609714Y-78242285D01*
X96638285Y-78185142D01*
X96638285Y-78128000D01*
X96609714Y-78070857D01*
X96581142Y-78042285D01*
X96524000Y-78013714D01*
X96409714Y-77985142D01*
X96352571Y-77956571D01*
X96324000Y-77928000D01*
X96295428Y-77870857D01*
X96295428Y-77813714D01*
X96324000Y-77756571D01*
X96352571Y-77728000D01*
X96409714Y-77699428D01*
X96552571Y-77699428D01*
X96638285Y-77728000D01*
X97124000Y-78270857D02*
X97066857Y-78299428D01*
X96952571Y-78299428D01*
X96895428Y-78270857D01*
X96866857Y-78213714D01*
X96866857Y-77985142D01*
X96895428Y-77928000D01*
X96952571Y-77899428D01*
X97066857Y-77899428D01*
X97124000Y-77928000D01*
X97152571Y-77985142D01*
X97152571Y-78042285D01*
X96866857Y-78099428D01*
X97409714Y-77899428D02*
X97409714Y-78299428D01*
X97409714Y-77956571D02*
X97438285Y-77928000D01*
X97495428Y-77899428D01*
X97581142Y-77899428D01*
X97638285Y-77928000D01*
X97666857Y-77985142D01*
X97666857Y-78299428D01*
X97924000Y-78270857D02*
X97981142Y-78299428D01*
X98095428Y-78299428D01*
X98152571Y-78270857D01*
X98181142Y-78213714D01*
X98181142Y-78185142D01*
X98152571Y-78128000D01*
X98095428Y-78099428D01*
X98009714Y-78099428D01*
X97952571Y-78070857D01*
X97924000Y-78013714D01*
X97924000Y-77985142D01*
X97952571Y-77928000D01*
X98009714Y-77899428D01*
X98095428Y-77899428D01*
X98152571Y-77928000D01*
X98524000Y-78299428D02*
X98466857Y-78270857D01*
X98438285Y-78242285D01*
X98409714Y-78185142D01*
X98409714Y-78013714D01*
X98438285Y-77956571D01*
X98466857Y-77928000D01*
X98524000Y-77899428D01*
X98609714Y-77899428D01*
X98666857Y-77928000D01*
X98695428Y-77956571D01*
X98724000Y-78013714D01*
X98724000Y-78185142D01*
X98695428Y-78242285D01*
X98666857Y-78270857D01*
X98609714Y-78299428D01*
X98524000Y-78299428D01*
X98981142Y-78299428D02*
X98981142Y-77899428D01*
X98981142Y-78013714D02*
X99009714Y-77956571D01*
X99038285Y-77928000D01*
X99095428Y-77899428D01*
X99152571Y-77899428D01*
X99809714Y-78299428D02*
X99809714Y-77699428D01*
X100009714Y-78128000D01*
X100209714Y-77699428D01*
X100209714Y-78299428D01*
X100581142Y-78299428D02*
X100524000Y-78270857D01*
X100495428Y-78242285D01*
X100466857Y-78185142D01*
X100466857Y-78013714D01*
X100495428Y-77956571D01*
X100524000Y-77928000D01*
X100581142Y-77899428D01*
X100666857Y-77899428D01*
X100724000Y-77928000D01*
X100752571Y-77956571D01*
X100781142Y-78013714D01*
X100781142Y-78185142D01*
X100752571Y-78242285D01*
X100724000Y-78270857D01*
X100666857Y-78299428D01*
X100581142Y-78299428D01*
X101295428Y-78299428D02*
X101295428Y-77699428D01*
X101295428Y-78270857D02*
X101238285Y-78299428D01*
X101124000Y-78299428D01*
X101066857Y-78270857D01*
X101038285Y-78242285D01*
X101009714Y-78185142D01*
X101009714Y-78013714D01*
X101038285Y-77956571D01*
X101066857Y-77928000D01*
X101124000Y-77899428D01*
X101238285Y-77899428D01*
X101295428Y-77928000D01*
X101838285Y-77899428D02*
X101838285Y-78299428D01*
X101581142Y-77899428D02*
X101581142Y-78213714D01*
X101609714Y-78270857D01*
X101666857Y-78299428D01*
X101752571Y-78299428D01*
X101809714Y-78270857D01*
X101838285Y-78242285D01*
X102209714Y-78299428D02*
X102152571Y-78270857D01*
X102124000Y-78213714D01*
X102124000Y-77699428D01*
X102666857Y-78270857D02*
X102609714Y-78299428D01*
X102495428Y-78299428D01*
X102438285Y-78270857D01*
X102409714Y-78213714D01*
X102409714Y-77985142D01*
X102438285Y-77928000D01*
X102495428Y-77899428D01*
X102609714Y-77899428D01*
X102666857Y-77928000D01*
X102695428Y-77985142D01*
X102695428Y-78042285D01*
X102409714Y-78099428D01*
X103324000Y-77699428D02*
X103524000Y-78299428D01*
X103724000Y-77699428D01*
X104238285Y-78299428D02*
X103895428Y-78299428D01*
X104066857Y-78299428D02*
X104066857Y-77699428D01*
X104009714Y-77785142D01*
X103952571Y-77842285D01*
X103895428Y-77870857D01*
X104495428Y-78242285D02*
X104524000Y-78270857D01*
X104495428Y-78299428D01*
X104466857Y-78270857D01*
X104495428Y-78242285D01*
X104495428Y-78299428D01*
X104895428Y-77699428D02*
X104952571Y-77699428D01*
X105009714Y-77728000D01*
X105038285Y-77756571D01*
X105066857Y-77813714D01*
X105095428Y-77928000D01*
X105095428Y-78070857D01*
X105066857Y-78185142D01*
X105038285Y-78242285D01*
X105009714Y-78270857D01*
X104952571Y-78299428D01*
X104895428Y-78299428D01*
X104838285Y-78270857D01*
X104809714Y-78242285D01*
X104781142Y-78185142D01*
X104752571Y-78070857D01*
X104752571Y-77928000D01*
X104781142Y-77813714D01*
X104809714Y-77756571D01*
X104838285Y-77728000D01*
X104895428Y-77699428D01*
X93638285Y-79236857D02*
X93724000Y-79265428D01*
X93866857Y-79265428D01*
X93924000Y-79236857D01*
X93952571Y-79208285D01*
X93981142Y-79151142D01*
X93981142Y-79094000D01*
X93952571Y-79036857D01*
X93924000Y-79008285D01*
X93866857Y-78979714D01*
X93752571Y-78951142D01*
X93695428Y-78922571D01*
X93666857Y-78894000D01*
X93638285Y-78836857D01*
X93638285Y-78779714D01*
X93666857Y-78722571D01*
X93695428Y-78694000D01*
X93752571Y-78665428D01*
X93895428Y-78665428D01*
X93981142Y-78694000D01*
X94495428Y-79236857D02*
X94438285Y-79265428D01*
X94324000Y-79265428D01*
X94266857Y-79236857D01*
X94238285Y-79208285D01*
X94209714Y-79151142D01*
X94209714Y-78979714D01*
X94238285Y-78922571D01*
X94266857Y-78894000D01*
X94324000Y-78865428D01*
X94438285Y-78865428D01*
X94495428Y-78894000D01*
X94838285Y-79265428D02*
X94781142Y-79236857D01*
X94752571Y-79208285D01*
X94724000Y-79151142D01*
X94724000Y-78979714D01*
X94752571Y-78922571D01*
X94781142Y-78894000D01*
X94838285Y-78865428D01*
X94924000Y-78865428D01*
X94981142Y-78894000D01*
X95009714Y-78922571D01*
X95038285Y-78979714D01*
X95038285Y-79151142D01*
X95009714Y-79208285D01*
X94981142Y-79236857D01*
X94924000Y-79265428D01*
X94838285Y-79265428D01*
X95209714Y-78865428D02*
X95438285Y-78865428D01*
X95295428Y-78665428D02*
X95295428Y-79179714D01*
X95324000Y-79236857D01*
X95381142Y-79265428D01*
X95438285Y-79265428D01*
X95552571Y-78865428D02*
X95781142Y-78865428D01*
X95638285Y-78665428D02*
X95638285Y-79179714D01*
X95666857Y-79236857D01*
X95724000Y-79265428D01*
X95781142Y-79265428D01*
X96381142Y-78665428D02*
X96781142Y-78665428D01*
X96381142Y-79265428D01*
X96781142Y-79265428D01*
X97009714Y-79265428D02*
X97009714Y-78665428D01*
X97266857Y-79265428D02*
X97266857Y-78951142D01*
X97238285Y-78894000D01*
X97181142Y-78865428D01*
X97095428Y-78865428D01*
X97038285Y-78894000D01*
X97009714Y-78922571D01*
X97809714Y-79265428D02*
X97809714Y-78951142D01*
X97781142Y-78894000D01*
X97724000Y-78865428D01*
X97609714Y-78865428D01*
X97552571Y-78894000D01*
X97809714Y-79236857D02*
X97752571Y-79265428D01*
X97609714Y-79265428D01*
X97552571Y-79236857D01*
X97524000Y-79179714D01*
X97524000Y-79122571D01*
X97552571Y-79065428D01*
X97609714Y-79036857D01*
X97752571Y-79036857D01*
X97809714Y-79008285D01*
X98181142Y-79265428D02*
X98124000Y-79236857D01*
X98095428Y-79208285D01*
X98066857Y-79151142D01*
X98066857Y-78979714D01*
X98095428Y-78922571D01*
X98124000Y-78894000D01*
X98181142Y-78865428D01*
X98266857Y-78865428D01*
X98324000Y-78894000D01*
X98352571Y-78922571D01*
X98381142Y-78979714D01*
X98381142Y-79151142D01*
X98352571Y-79208285D01*
X98324000Y-79236857D01*
X98266857Y-79265428D01*
X98181142Y-79265428D01*
X93666857Y-80231428D02*
X93666857Y-79631428D01*
X93866857Y-80060000D01*
X94066857Y-79631428D01*
X94066857Y-80231428D01*
X94609714Y-80231428D02*
X94609714Y-79917142D01*
X94581142Y-79860000D01*
X94524000Y-79831428D01*
X94409714Y-79831428D01*
X94352571Y-79860000D01*
X94609714Y-80202857D02*
X94552571Y-80231428D01*
X94409714Y-80231428D01*
X94352571Y-80202857D01*
X94324000Y-80145714D01*
X94324000Y-80088571D01*
X94352571Y-80031428D01*
X94409714Y-80002857D01*
X94552571Y-80002857D01*
X94609714Y-79974285D01*
X94895428Y-80231428D02*
X94895428Y-79831428D01*
X94895428Y-79945714D02*
X94924000Y-79888571D01*
X94952571Y-79860000D01*
X95009714Y-79831428D01*
X95066857Y-79831428D01*
X95266857Y-80174285D02*
X95295428Y-80202857D01*
X95266857Y-80231428D01*
X95238285Y-80202857D01*
X95266857Y-80174285D01*
X95266857Y-80231428D01*
X96324000Y-80231428D02*
X95981142Y-80231428D01*
X96152571Y-80231428D02*
X96152571Y-79631428D01*
X96095428Y-79717142D01*
X96038285Y-79774285D01*
X95981142Y-79802857D01*
X96609714Y-80202857D02*
X96609714Y-80231428D01*
X96581142Y-80288571D01*
X96552571Y-80317142D01*
X97295428Y-79688571D02*
X97324000Y-79660000D01*
X97381142Y-79631428D01*
X97524000Y-79631428D01*
X97581142Y-79660000D01*
X97609714Y-79688571D01*
X97638285Y-79745714D01*
X97638285Y-79802857D01*
X97609714Y-79888571D01*
X97266857Y-80231428D01*
X97638285Y-80231428D01*
X98009714Y-79631428D02*
X98066857Y-79631428D01*
X98124000Y-79660000D01*
X98152571Y-79688571D01*
X98181142Y-79745714D01*
X98209714Y-79860000D01*
X98209714Y-80002857D01*
X98181142Y-80117142D01*
X98152571Y-80174285D01*
X98124000Y-80202857D01*
X98066857Y-80231428D01*
X98009714Y-80231428D01*
X97952571Y-80202857D01*
X97924000Y-80174285D01*
X97895428Y-80117142D01*
X97866857Y-80002857D01*
X97866857Y-79860000D01*
X97895428Y-79745714D01*
X97924000Y-79688571D01*
X97952571Y-79660000D01*
X98009714Y-79631428D01*
X98438285Y-79688571D02*
X98466857Y-79660000D01*
X98524000Y-79631428D01*
X98666857Y-79631428D01*
X98724000Y-79660000D01*
X98752571Y-79688571D01*
X98781142Y-79745714D01*
X98781142Y-79802857D01*
X98752571Y-79888571D01*
X98409714Y-80231428D01*
X98781142Y-80231428D01*
X99009714Y-79688571D02*
X99038285Y-79660000D01*
X99095428Y-79631428D01*
X99238285Y-79631428D01*
X99295428Y-79660000D01*
X99324000Y-79688571D01*
X99352571Y-79745714D01*
X99352571Y-79802857D01*
X99324000Y-79888571D01*
X98981142Y-80231428D01*
X99352571Y-80231428D01*
D12*
X118395714Y-73096380D02*
X117824285Y-73096380D01*
X118110000Y-73096380D02*
X118110000Y-72096380D01*
X118014761Y-72239238D01*
X117919523Y-72334476D01*
X117824285Y-72382095D01*
X112998285Y-80192619D02*
X113045904Y-80145000D01*
X113141142Y-80097380D01*
X113379238Y-80097380D01*
X113474476Y-80145000D01*
X113522095Y-80192619D01*
X113569714Y-80287857D01*
X113569714Y-80383095D01*
X113522095Y-80525952D01*
X112950666Y-81097380D01*
X113569714Y-81097380D01*
X106243523Y-72334380D02*
X105910190Y-71858190D01*
X105672095Y-72334380D02*
X105672095Y-71334380D01*
X106053047Y-71334380D01*
X106148285Y-71382000D01*
X106195904Y-71429619D01*
X106243523Y-71524857D01*
X106243523Y-71667714D01*
X106195904Y-71762952D01*
X106148285Y-71810571D01*
X106053047Y-71858190D01*
X105672095Y-71858190D01*
X107195904Y-71382000D02*
X107100666Y-71334380D01*
X106957809Y-71334380D01*
X106814952Y-71382000D01*
X106719714Y-71477238D01*
X106672095Y-71572476D01*
X106624476Y-71762952D01*
X106624476Y-71905809D01*
X106672095Y-72096285D01*
X106719714Y-72191523D01*
X106814952Y-72286761D01*
X106957809Y-72334380D01*
X107053047Y-72334380D01*
X107195904Y-72286761D01*
X107243523Y-72239142D01*
X107243523Y-71905809D01*
X107053047Y-71905809D01*
X108005428Y-71810571D02*
X108148285Y-71858190D01*
X108195904Y-71905809D01*
X108243523Y-72001047D01*
X108243523Y-72143904D01*
X108195904Y-72239142D01*
X108148285Y-72286761D01*
X108053047Y-72334380D01*
X107672095Y-72334380D01*
X107672095Y-71334380D01*
X108005428Y-71334380D01*
X108100666Y-71382000D01*
X108148285Y-71429619D01*
X108195904Y-71524857D01*
X108195904Y-71620095D01*
X108148285Y-71715333D01*
X108100666Y-71762952D01*
X108005428Y-71810571D01*
X107672095Y-71810571D01*
D13*
%TO.C,U1*%
X98755047Y-84710380D02*
X98755047Y-83710380D01*
X99802666Y-84615142D02*
X99755047Y-84662761D01*
X99612190Y-84710380D01*
X99516952Y-84710380D01*
X99374095Y-84662761D01*
X99278857Y-84567523D01*
X99231238Y-84472285D01*
X99183619Y-84281809D01*
X99183619Y-84138952D01*
X99231238Y-83948476D01*
X99278857Y-83853238D01*
X99374095Y-83758000D01*
X99516952Y-83710380D01*
X99612190Y-83710380D01*
X99755047Y-83758000D01*
X99802666Y-83805619D01*
X100183619Y-84662761D02*
X100326476Y-84710380D01*
X100564571Y-84710380D01*
X100659809Y-84662761D01*
X100707428Y-84615142D01*
X100755047Y-84519904D01*
X100755047Y-84424666D01*
X100707428Y-84329428D01*
X100659809Y-84281809D01*
X100564571Y-84234190D01*
X100374095Y-84186571D01*
X100278857Y-84138952D01*
X100231238Y-84091333D01*
X100183619Y-83996095D01*
X100183619Y-83900857D01*
X100231238Y-83805619D01*
X100278857Y-83758000D01*
X100374095Y-83710380D01*
X100612190Y-83710380D01*
X100755047Y-83758000D01*
X101659809Y-84710380D02*
X101183619Y-84710380D01*
X101183619Y-83710380D01*
X97469333Y-82415142D02*
X97421714Y-82462761D01*
X97278857Y-82510380D01*
X97183619Y-82510380D01*
X97040761Y-82462761D01*
X96945523Y-82367523D01*
X96897904Y-82272285D01*
X96850285Y-82081809D01*
X96850285Y-81938952D01*
X96897904Y-81748476D01*
X96945523Y-81653238D01*
X97040761Y-81558000D01*
X97183619Y-81510380D01*
X97278857Y-81510380D01*
X97421714Y-81558000D01*
X97469333Y-81605619D01*
X98040761Y-82510380D02*
X97945523Y-82462761D01*
X97897904Y-82415142D01*
X97850285Y-82319904D01*
X97850285Y-82034190D01*
X97897904Y-81938952D01*
X97945523Y-81891333D01*
X98040761Y-81843714D01*
X98183619Y-81843714D01*
X98278857Y-81891333D01*
X98326476Y-81938952D01*
X98374095Y-82034190D01*
X98374095Y-82319904D01*
X98326476Y-82415142D01*
X98278857Y-82462761D01*
X98183619Y-82510380D01*
X98040761Y-82510380D01*
X98945523Y-82510380D02*
X98850285Y-82462761D01*
X98802666Y-82367523D01*
X98802666Y-81510380D01*
X99755047Y-81843714D02*
X99755047Y-82510380D01*
X99326476Y-81843714D02*
X99326476Y-82367523D01*
X99374095Y-82462761D01*
X99469333Y-82510380D01*
X99612190Y-82510380D01*
X99707428Y-82462761D01*
X99755047Y-82415142D01*
X100231238Y-82510380D02*
X100231238Y-81843714D01*
X100231238Y-81938952D02*
X100278857Y-81891333D01*
X100374095Y-81843714D01*
X100516952Y-81843714D01*
X100612190Y-81891333D01*
X100659809Y-81986571D01*
X100659809Y-82510380D01*
X100659809Y-81986571D02*
X100707428Y-81891333D01*
X100802666Y-81843714D01*
X100945523Y-81843714D01*
X101040761Y-81891333D01*
X101088380Y-81986571D01*
X101088380Y-82510380D01*
X101564571Y-82510380D02*
X101564571Y-81510380D01*
X101564571Y-81891333D02*
X101659809Y-81843714D01*
X101850285Y-81843714D01*
X101945523Y-81891333D01*
X101993142Y-81938952D01*
X102040761Y-82034190D01*
X102040761Y-82319904D01*
X101993142Y-82415142D01*
X101945523Y-82462761D01*
X101850285Y-82510380D01*
X101659809Y-82510380D01*
X101564571Y-82462761D01*
X102469333Y-82510380D02*
X102469333Y-81843714D01*
X102469333Y-81510380D02*
X102421714Y-81558000D01*
X102469333Y-81605619D01*
X102516952Y-81558000D01*
X102469333Y-81510380D01*
X102469333Y-81605619D01*
X103374095Y-82510380D02*
X103374095Y-81986571D01*
X103326476Y-81891333D01*
X103231238Y-81843714D01*
X103040761Y-81843714D01*
X102945523Y-81891333D01*
X103374095Y-82462761D02*
X103278857Y-82510380D01*
X103040761Y-82510380D01*
X102945523Y-82462761D01*
X102897904Y-82367523D01*
X102897904Y-82272285D01*
X102945523Y-82177047D01*
X103040761Y-82129428D01*
X103278857Y-82129428D01*
X103374095Y-82081809D01*
D14*
%TO.C,R5*%
X98705641Y-64134000D02*
X98398359Y-64134000D01*
X98705641Y-63374000D02*
X98398359Y-63374000D01*
%TO.C,R1*%
X111379000Y-83724000D02*
X111379000Y-84344000D01*
X112299000Y-82804000D02*
G75*
G03*
X112299000Y-82804000I-920000J0D01*
G01*
D15*
%TO.C,U2*%
X105934000Y-73576000D02*
X105934000Y-73476000D01*
X105934000Y-73476000D02*
X107934000Y-73476000D01*
X107934000Y-75776000D02*
X107934000Y-75876000D01*
X105934000Y-75876000D02*
X105934000Y-75776000D01*
X107934000Y-73476000D02*
X107934000Y-73576000D01*
X107934000Y-75876000D02*
X105934000Y-75876000D01*
D16*
X108684000Y-75276000D02*
G75*
G03*
X108684000Y-75276000I-50000J0D01*
G01*
D14*
%TO.C,C1*%
X107013836Y-76348000D02*
X106798164Y-76348000D01*
X107013836Y-77068000D02*
X106798164Y-77068000D01*
%TO.C,R2*%
X113793000Y-84227641D02*
X113793000Y-83920359D01*
X114553000Y-84227641D02*
X114553000Y-83920359D01*
%TO.C,U3*%
X93452000Y-73152000D02*
X93452000Y-76602000D01*
X98572000Y-73152000D02*
X98572000Y-71202000D01*
X93452000Y-73152000D02*
X93452000Y-71202000D01*
X98572000Y-73152000D02*
X98572000Y-75102000D01*
D17*
%TO.C,U1*%
X95936000Y-84258000D02*
G75*
G03*
X95936000Y-84258000I0J0D01*
G01*
X94736000Y-84258000D02*
G75*
G03*
X94736000Y-84258000I0J0D01*
G01*
X94336000Y-83858000D02*
G75*
G03*
X94336000Y-83858000I0J0D01*
G01*
X96336000Y-83858000D02*
G75*
G03*
X96336000Y-83858000I0J0D01*
G01*
X95136000Y-82658000D02*
G75*
G03*
X95136000Y-82658000I0J0D01*
G01*
X95936000Y-82058000D02*
G75*
G03*
X95936000Y-82058000I0J0D01*
G01*
X94336000Y-82658000D02*
G75*
G03*
X94336000Y-82658000I0J0D01*
G01*
D18*
X93736000Y-83258000D02*
G75*
G03*
X93736000Y-83258000I0J0D01*
G01*
D17*
X96336000Y-82458000D02*
G75*
G03*
X96336000Y-82458000I0J0D01*
G01*
D18*
X96936000Y-83258000D02*
G75*
G03*
X96936000Y-83258000I0J0D01*
G01*
D17*
X94736000Y-82058000D02*
G75*
G03*
X94736000Y-82058000I0J0D01*
G01*
X95336000Y-83658000D02*
G75*
G03*
X95336000Y-83658000I0J0D01*
G01*
X94736000Y-83258000D02*
G75*
G03*
X94736000Y-83258000I0J0D01*
G01*
D18*
X95336000Y-84858000D02*
G75*
G03*
X95336000Y-84858000I0J0D01*
G01*
D17*
X95736000Y-83058000D02*
G75*
G03*
X95736000Y-83058000I0J0D01*
G01*
D18*
X95336000Y-81458000D02*
G75*
G03*
X95336000Y-81458000I0J0D01*
G01*
D14*
%TO.C,R4*%
X115922359Y-77596000D02*
X116229641Y-77596000D01*
X115922359Y-76836000D02*
X116229641Y-76836000D01*
%TO.C,D1*%
X99287000Y-67310000D02*
X99060000Y-67564000D01*
X98552000Y-65913000D02*
X98552000Y-66167000D01*
X98171000Y-65913000D02*
X98933000Y-65913000D01*
X99287000Y-65786000D02*
X99287000Y-64555000D01*
X97817000Y-66294000D02*
X97817000Y-67310000D01*
X97817000Y-64555000D02*
X97817000Y-65786000D01*
X98044000Y-67564000D02*
X97817000Y-67310000D01*
X99060000Y-67564000D02*
X98044000Y-67564000D01*
X99287000Y-67310000D02*
X99287000Y-66294000D01*
X99287000Y-64555000D02*
X97817000Y-64555000D01*
%TO.C,R3*%
X116378000Y-74676000D02*
X115758000Y-74676000D01*
X118218000Y-74676000D02*
G75*
G03*
X118218000Y-74676000I-920000J0D01*
G01*
%TD*%
M02*
