%TF.GenerationSoftware,KiCad,Pcbnew,(6.0.0-0)*%
%TF.CreationDate,2022-03-04T22:18:36-05:00*%
%TF.ProjectId,thermalcouple,74686572-6d61-46c6-936f-75706c652e6b,rev?*%
%TF.SameCoordinates,Original*%
%TF.FileFunction,Copper,L1,Top*%
%TF.FilePolarity,Positive*%
%FSLAX46Y46*%
G04 Gerber Fmt 4.6, Leading zero omitted, Abs format (unit mm)*
G04 Created by KiCad (PCBNEW (6.0.0-0)) date 2022-03-04 22:18:36*
%MOMM*%
%LPD*%
G01*
G04 APERTURE LIST*
G04 Aperture macros list*
%AMRoundRect*
0 Rectangle with rounded corners*
0 $1 Rounding radius*
0 $2 $3 $4 $5 $6 $7 $8 $9 X,Y pos of 4 corners*
0 Add a 4 corners polygon primitive as box body*
4,1,4,$2,$3,$4,$5,$6,$7,$8,$9,$2,$3,0*
0 Add four circle primitives for the rounded corners*
1,1,$1+$1,$2,$3*
1,1,$1+$1,$4,$5*
1,1,$1+$1,$6,$7*
1,1,$1+$1,$8,$9*
0 Add four rect primitives between the rounded corners*
20,1,$1+$1,$2,$3,$4,$5,0*
20,1,$1+$1,$4,$5,$6,$7,0*
20,1,$1+$1,$6,$7,$8,$9,0*
20,1,$1+$1,$8,$9,$2,$3,0*%
G04 Aperture macros list end*
%TA.AperFunction,SMDPad,CuDef*%
%ADD10RoundRect,0.150000X0.150000X-0.825000X0.150000X0.825000X-0.150000X0.825000X-0.150000X-0.825000X0*%
%TD*%
%TA.AperFunction,ComponentPad*%
%ADD11C,2.400000*%
%TD*%
%TA.AperFunction,SMDPad,CuDef*%
%ADD12RoundRect,0.218750X0.381250X-0.218750X0.381250X0.218750X-0.381250X0.218750X-0.381250X-0.218750X0*%
%TD*%
%TA.AperFunction,SMDPad,CuDef*%
%ADD13RoundRect,0.140000X-0.140000X-0.170000X0.140000X-0.170000X0.140000X0.170000X-0.140000X0.170000X0*%
%TD*%
%TA.AperFunction,SMDPad,CuDef*%
%ADD14RoundRect,0.250000X0.250000X0.475000X-0.250000X0.475000X-0.250000X-0.475000X0.250000X-0.475000X0*%
%TD*%
%TA.AperFunction,ComponentPad*%
%ADD15C,4.500000*%
%TD*%
%TA.AperFunction,SMDPad,CuDef*%
%ADD16RoundRect,0.135000X0.135000X0.185000X-0.135000X0.185000X-0.135000X-0.185000X0.135000X-0.185000X0*%
%TD*%
%TA.AperFunction,SMDPad,CuDef*%
%ADD17RoundRect,0.218750X-0.256250X0.218750X-0.256250X-0.218750X0.256250X-0.218750X0.256250X0.218750X0*%
%TD*%
%TA.AperFunction,ViaPad*%
%ADD18C,0.685800*%
%TD*%
%TA.AperFunction,Conductor*%
%ADD19C,0.254000*%
%TD*%
%TA.AperFunction,Conductor*%
%ADD20C,0.508000*%
%TD*%
G04 APERTURE END LIST*
D10*
%TO.P,U1,1,GND*%
%TO.N,GND*%
X109093000Y-75119000D03*
%TO.P,U1,2,T-*%
%TO.N,Net-(C1-Pad2)*%
X110363000Y-75119000D03*
%TO.P,U1,3,T+*%
%TO.N,Net-(C1-Pad1)*%
X111633000Y-75119000D03*
%TO.P,U1,4,VCC*%
%TO.N,/3V3*%
X112903000Y-75119000D03*
%TO.P,U1,5,SCK*%
%TO.N,/SCK*%
X112903000Y-70169000D03*
%TO.P,U1,6,~{CS}*%
%TO.N,/CS*%
X111633000Y-70169000D03*
%TO.P,U1,7,SO*%
%TO.N,/MISO*%
X110363000Y-70169000D03*
%TO.P,U1,8*%
%TO.N,N/C*%
X109093000Y-70169000D03*
%TD*%
D11*
%TO.P,J1,1,Pin_1*%
%TO.N,Net-(FB1-Pad1)*%
X109502000Y-82804000D03*
%TO.P,J1,2,Pin_2*%
%TO.N,Net-(FB2-Pad1)*%
X113002000Y-82804000D03*
%TD*%
D12*
%TO.P,FB2,2*%
%TO.N,Net-(C1-Pad2)*%
X105918000Y-79201500D03*
%TO.P,FB2,1*%
%TO.N,Net-(FB2-Pad1)*%
X105918000Y-81326500D03*
%TD*%
%TO.P,FB1,1*%
%TO.N,Net-(FB1-Pad1)*%
X116586000Y-81326500D03*
%TO.P,FB1,2*%
%TO.N,Net-(C1-Pad1)*%
X116586000Y-79201500D03*
%TD*%
D13*
%TO.P,C3,1*%
%TO.N,/3V3*%
X114582000Y-74676000D03*
%TO.P,C3,2*%
%TO.N,GND*%
X115542000Y-74676000D03*
%TD*%
%TO.P,C2,1*%
%TO.N,/3V3*%
X114582000Y-73660000D03*
%TO.P,C2,2*%
%TO.N,GND*%
X115542000Y-73660000D03*
%TD*%
D14*
%TO.P,C1,1*%
%TO.N,Net-(C1-Pad1)*%
X111948000Y-77470000D03*
%TO.P,C1,2*%
%TO.N,Net-(C1-Pad2)*%
X110048000Y-77470000D03*
%TD*%
D15*
%TO.P,H1,1,1*%
%TO.N,GND*%
X95000000Y-64000000D03*
%TD*%
%TO.P,H2,1,1*%
%TO.N,GND*%
X119000000Y-64000000D03*
%TD*%
D16*
%TO.P,R1,1*%
%TO.N,/3V3*%
X99062000Y-63754000D03*
%TO.P,R1,2*%
%TO.N,Net-(D1-Pad2)*%
X98042000Y-63754000D03*
%TD*%
D10*
%TO.P,U3,1,E0*%
%TO.N,unconnected-(U3-Pad1)*%
X94107000Y-75627000D03*
%TO.P,U3,2,E1*%
%TO.N,unconnected-(U3-Pad2)*%
X95377000Y-75627000D03*
%TO.P,U3,3,E2*%
%TO.N,unconnected-(U3-Pad3)*%
X96647000Y-75627000D03*
%TO.P,U3,4,VSS*%
%TO.N,GND*%
X97917000Y-75627000D03*
%TO.P,U3,5,SDA*%
%TO.N,/SDA_EEPROM*%
X97917000Y-70677000D03*
%TO.P,U3,6,SCL*%
%TO.N,/SCL_EEPROM*%
X96647000Y-70677000D03*
%TO.P,U3,7,~{WC}*%
%TO.N,unconnected-(U3-Pad7)*%
X95377000Y-70677000D03*
%TO.P,U3,8,VCC*%
%TO.N,/3V3*%
X94107000Y-70677000D03*
%TD*%
D17*
%TO.P,D1,1,K*%
%TO.N,GND*%
X98552000Y-66827500D03*
%TO.P,D1,2,A*%
%TO.N,Net-(D1-Pad2)*%
X98552000Y-65252500D03*
%TD*%
D18*
%TO.N,/3V3*%
X104496500Y-63397500D03*
X104496500Y-62635500D03*
X104496500Y-64159500D03*
%TO.N,GND*%
X115062000Y-76708000D03*
X107188000Y-76708000D03*
X108458000Y-73406000D03*
X112776000Y-68326000D03*
X105410000Y-70866000D03*
X105410000Y-69342000D03*
X107696000Y-70866000D03*
X107696000Y-69342000D03*
X116586000Y-67818000D03*
X116586000Y-70104000D03*
X116586000Y-72136000D03*
X113030000Y-73406000D03*
X110744000Y-73406000D03*
X111506000Y-71882000D03*
X109982000Y-71882000D03*
X103632000Y-80264000D03*
X114300000Y-78740000D03*
X108204000Y-78740000D03*
X107696000Y-84582000D03*
X111252000Y-84582000D03*
X111252000Y-81280000D03*
X114300000Y-80264000D03*
%TO.N,/CS*%
X109982000Y-66802000D03*
%TO.N,/MISO*%
X107950000Y-66802000D03*
%TO.N,/SCK*%
X106934000Y-66802000D03*
%TO.N,GND*%
X96012000Y-73152000D03*
X104013000Y-66675000D03*
X104013000Y-67564000D03*
X97282000Y-73152000D03*
X94742000Y-73152000D03*
X104013000Y-65786000D03*
%TO.N,/SDA_EEPROM*%
X98806000Y-70358000D03*
%TO.N,/SCL_EEPROM*%
X102108000Y-68834000D03*
%TD*%
D19*
%TO.N,/3V3*%
X104496500Y-62635500D02*
X104091000Y-62230000D01*
X99062000Y-62990000D02*
X99062000Y-63754000D01*
X104091000Y-62230000D02*
X99822000Y-62230000D01*
X99822000Y-62230000D02*
X99062000Y-62990000D01*
D20*
X104496500Y-63397500D02*
X104496500Y-62635500D01*
X104496500Y-64159500D02*
X104496500Y-63397500D01*
X104496500Y-64159500D02*
X104496500Y-64618500D01*
D19*
X102870000Y-65532000D02*
X103783500Y-64618500D01*
X103783500Y-64618500D02*
X104496500Y-64618500D01*
D20*
X114582000Y-74902000D02*
X114300000Y-75184000D01*
X114300000Y-75184000D02*
X112968000Y-75184000D01*
X114582000Y-74676000D02*
X114582000Y-74902000D01*
X112968000Y-75184000D02*
X112903000Y-75119000D01*
X114582000Y-73660000D02*
X114582000Y-74676000D01*
X111506000Y-65024000D02*
X114582000Y-68100000D01*
X104496500Y-64618500D02*
X104902000Y-65024000D01*
X104902000Y-65024000D02*
X111506000Y-65024000D01*
X114582000Y-68100000D02*
X114582000Y-73660000D01*
D19*
%TO.N,/SCK*%
X106934000Y-71628000D02*
X106934000Y-66802000D01*
X107696000Y-72390000D02*
X106934000Y-71628000D01*
X112903000Y-71755000D02*
X112014000Y-72644000D01*
X112903000Y-70169000D02*
X112903000Y-71755000D01*
X112014000Y-72644000D02*
X107950000Y-72644000D01*
X107950000Y-72644000D02*
X107696000Y-72390000D01*
%TO.N,/MISO*%
X110363000Y-69215000D02*
X107950000Y-66802000D01*
X110363000Y-70169000D02*
X110363000Y-69215000D01*
%TO.N,/CS*%
X111633000Y-68453000D02*
X109982000Y-66802000D01*
X111633000Y-70169000D02*
X111633000Y-68453000D01*
D20*
%TO.N,Net-(C1-Pad1)*%
X111633000Y-75119000D02*
X111633000Y-77155000D01*
X111633000Y-77155000D02*
X111948000Y-77470000D01*
%TO.N,Net-(C1-Pad2)*%
X110363000Y-75119000D02*
X110363000Y-77155000D01*
X110363000Y-77155000D02*
X110048000Y-77470000D01*
%TO.N,Net-(C1-Pad1)*%
X116586000Y-79201500D02*
X114854500Y-77470000D01*
X114854500Y-77470000D02*
X111948000Y-77470000D01*
%TO.N,Net-(C1-Pad2)*%
X105918000Y-79201500D02*
X107649500Y-77470000D01*
X107649500Y-77470000D02*
X110048000Y-77470000D01*
%TO.N,Net-(FB1-Pad1)*%
X109502000Y-82804000D02*
X109502000Y-84864000D01*
X110236000Y-85598000D02*
X114300000Y-85598000D01*
X109502000Y-84864000D02*
X110236000Y-85598000D01*
X114300000Y-85598000D02*
X116586000Y-83312000D01*
X116586000Y-83312000D02*
X116586000Y-81326500D01*
%TO.N,Net-(FB2-Pad1)*%
X113002000Y-82804000D02*
X113002000Y-80998000D01*
X113002000Y-80998000D02*
X112014000Y-80010000D01*
X112014000Y-80010000D02*
X107234500Y-80010000D01*
X107234500Y-80010000D02*
X105918000Y-81326500D01*
D19*
%TO.N,Net-(D1-Pad2)*%
X98042000Y-64514000D02*
X98042000Y-63754000D01*
X98552000Y-65024000D02*
X98042000Y-64514000D01*
X98552000Y-65252500D02*
X98552000Y-65024000D01*
%TO.N,/3V3*%
X101346000Y-68072000D02*
X102870000Y-66548000D01*
X102870000Y-66548000D02*
X102870000Y-65532000D01*
X94107000Y-70677000D02*
X94107000Y-70401337D01*
X96436337Y-68072000D02*
X101346000Y-68072000D01*
X94107000Y-70401337D02*
X96436337Y-68072000D01*
%TO.N,/SDA_EEPROM*%
X98806000Y-70358000D02*
X98236000Y-70358000D01*
X98236000Y-70358000D02*
X97917000Y-70677000D01*
%TO.N,/SCL_EEPROM*%
X97282000Y-68834000D02*
X96647000Y-69469000D01*
X102108000Y-68834000D02*
X97282000Y-68834000D01*
X96647000Y-69469000D02*
X96647000Y-70677000D01*
%TD*%
%TA.AperFunction,Conductor*%
%TO.N,GND*%
G36*
X93508556Y-61466002D02*
G01*
X93555049Y-61519658D01*
X93565153Y-61589932D01*
X93535659Y-61654512D01*
X93504858Y-61680285D01*
X93450196Y-61712805D01*
X93443945Y-61717053D01*
X93250733Y-61866115D01*
X93242267Y-61877773D01*
X93248871Y-61889661D01*
X94987188Y-63627978D01*
X95001132Y-63635592D01*
X95002965Y-63635461D01*
X95009580Y-63631210D01*
X96750162Y-61890628D01*
X96757174Y-61877787D01*
X96749379Y-61867098D01*
X96579886Y-61733481D01*
X96573663Y-61729156D01*
X96492326Y-61679605D01*
X96444557Y-61627082D01*
X96432767Y-61557071D01*
X96460699Y-61491800D01*
X96519485Y-61451992D01*
X96557879Y-61446000D01*
X99432118Y-61446000D01*
X99500239Y-61466002D01*
X99546732Y-61519658D01*
X99556836Y-61589932D01*
X99527342Y-61654512D01*
X99506180Y-61673935D01*
X99477519Y-61694759D01*
X99467595Y-61701278D01*
X99436224Y-61719830D01*
X99436219Y-61719834D01*
X99429401Y-61723866D01*
X99415014Y-61738253D01*
X99399980Y-61751094D01*
X99383513Y-61763058D01*
X99378460Y-61769166D01*
X99355228Y-61797249D01*
X99347238Y-61806029D01*
X98668517Y-62484750D01*
X98660191Y-62492326D01*
X98653697Y-62496447D01*
X98648274Y-62502222D01*
X98606915Y-62546265D01*
X98604160Y-62549107D01*
X98584361Y-62568906D01*
X98581937Y-62572031D01*
X98581929Y-62572040D01*
X98581863Y-62572126D01*
X98574155Y-62581151D01*
X98543783Y-62613494D01*
X98539965Y-62620438D01*
X98539964Y-62620440D01*
X98533978Y-62631329D01*
X98523127Y-62647847D01*
X98510650Y-62663933D01*
X98493024Y-62704666D01*
X98487807Y-62715314D01*
X98466431Y-62754197D01*
X98464460Y-62761872D01*
X98464458Y-62761878D01*
X98461369Y-62773911D01*
X98454966Y-62792613D01*
X98446883Y-62811292D01*
X98445644Y-62819114D01*
X98445643Y-62819118D01*
X98444104Y-62828838D01*
X98413692Y-62892991D01*
X98353425Y-62930518D01*
X98291191Y-62930161D01*
X98290979Y-62931323D01*
X98284643Y-62930165D01*
X98278466Y-62928371D01*
X98272059Y-62927867D01*
X98272055Y-62927866D01*
X98244444Y-62925693D01*
X98244438Y-62925693D01*
X98241989Y-62925500D01*
X98042122Y-62925500D01*
X97842012Y-62925501D01*
X97805534Y-62928371D01*
X97765562Y-62939984D01*
X97677727Y-62965502D01*
X97606730Y-62965299D01*
X97547114Y-62926745D01*
X97527602Y-62896055D01*
X97450172Y-62723363D01*
X97446655Y-62716636D01*
X97279054Y-62438252D01*
X97274757Y-62431999D01*
X97133617Y-62251022D01*
X97121823Y-62242551D01*
X97110113Y-62249097D01*
X95372022Y-63987188D01*
X95364408Y-64001132D01*
X95364539Y-64002965D01*
X95368790Y-64009580D01*
X97108825Y-65749615D01*
X97121948Y-65756781D01*
X97132250Y-65749391D01*
X97241429Y-65615285D01*
X97245842Y-65609144D01*
X97336608Y-65465287D01*
X97389874Y-65418349D01*
X97460062Y-65407659D01*
X97524886Y-65436613D01*
X97563766Y-65496018D01*
X97567934Y-65519631D01*
X97568500Y-65519572D01*
X97579022Y-65620982D01*
X97632692Y-65781849D01*
X97721929Y-65926055D01*
X97727107Y-65931224D01*
X97747159Y-65951241D01*
X97781238Y-66013523D01*
X97776235Y-66084343D01*
X97747314Y-66129432D01*
X97726702Y-66150080D01*
X97717690Y-66161491D01*
X97636447Y-66293291D01*
X97630303Y-66306468D01*
X97581421Y-66453843D01*
X97578555Y-66467210D01*
X97569386Y-66556700D01*
X97573475Y-66570624D01*
X97574865Y-66571829D01*
X97582548Y-66573500D01*
X99516885Y-66573500D01*
X99532124Y-66569025D01*
X99533329Y-66567635D01*
X99534842Y-66560679D01*
X99534663Y-66557218D01*
X99525196Y-66465979D01*
X99522303Y-66452583D01*
X99473170Y-66305313D01*
X99466996Y-66292134D01*
X99385530Y-66160486D01*
X99376494Y-66149085D01*
X99356842Y-66129467D01*
X99322763Y-66067184D01*
X99327766Y-65996364D01*
X99356686Y-65951277D01*
X99377692Y-65930234D01*
X99382864Y-65925053D01*
X99471849Y-65780692D01*
X99505162Y-65680259D01*
X99523072Y-65626262D01*
X99523072Y-65626260D01*
X99525238Y-65619731D01*
X99535500Y-65519572D01*
X99535500Y-64985428D01*
X99524978Y-64884018D01*
X99471308Y-64723151D01*
X99467458Y-64716929D01*
X99467454Y-64716921D01*
X99448910Y-64686953D01*
X99430073Y-64618501D01*
X99451235Y-64550732D01*
X99491916Y-64512198D01*
X99587720Y-64455540D01*
X99594541Y-64451506D01*
X99709506Y-64336541D01*
X99792269Y-64196596D01*
X99803047Y-64159500D01*
X99835834Y-64046644D01*
X99837629Y-64040466D01*
X99838578Y-64028419D01*
X99840307Y-64006444D01*
X99840307Y-64006438D01*
X99840500Y-64003989D01*
X99840499Y-63504012D01*
X99837629Y-63467534D01*
X99792269Y-63311404D01*
X99785182Y-63299420D01*
X99767725Y-63230603D01*
X99790244Y-63163272D01*
X99804543Y-63146189D01*
X100048327Y-62902405D01*
X100110639Y-62868379D01*
X100137422Y-62865500D01*
X101020069Y-62865500D01*
X101088190Y-62885502D01*
X101134683Y-62939158D01*
X101144787Y-63009432D01*
X101115293Y-63074012D01*
X101083070Y-63100619D01*
X100950376Y-63177229D01*
X100945469Y-63181647D01*
X100945468Y-63181648D01*
X100896130Y-63226073D01*
X100811579Y-63302203D01*
X100701798Y-63453303D01*
X100699114Y-63459331D01*
X100699113Y-63459333D01*
X100644601Y-63581770D01*
X100625832Y-63623926D01*
X100587000Y-63806615D01*
X100587000Y-63993385D01*
X100588372Y-63999837D01*
X100588372Y-63999842D01*
X100599940Y-64054261D01*
X100625832Y-64176074D01*
X100628517Y-64182104D01*
X100628517Y-64182105D01*
X100684097Y-64306939D01*
X100701798Y-64346697D01*
X100705678Y-64352038D01*
X100705679Y-64352039D01*
X100773873Y-64445900D01*
X100811579Y-64497797D01*
X100816481Y-64502210D01*
X100816482Y-64502212D01*
X100945468Y-64618352D01*
X100950376Y-64622771D01*
X100956097Y-64626074D01*
X100970839Y-64634585D01*
X101112124Y-64716156D01*
X101155021Y-64730094D01*
X101283474Y-64771831D01*
X101283475Y-64771831D01*
X101289753Y-64773871D01*
X101296316Y-64774561D01*
X101296317Y-64774561D01*
X101319097Y-64776955D01*
X101428937Y-64788500D01*
X101522063Y-64788500D01*
X101631903Y-64776955D01*
X101654683Y-64774561D01*
X101654684Y-64774561D01*
X101661247Y-64773871D01*
X101667525Y-64771831D01*
X101667526Y-64771831D01*
X101795979Y-64730094D01*
X101838876Y-64716156D01*
X101980162Y-64634585D01*
X101994903Y-64626074D01*
X102000624Y-64622771D01*
X102005532Y-64618352D01*
X102134518Y-64502212D01*
X102134519Y-64502210D01*
X102139421Y-64497797D01*
X102177127Y-64445900D01*
X102245321Y-64352039D01*
X102245322Y-64352038D01*
X102249202Y-64346697D01*
X102266904Y-64306939D01*
X102322483Y-64182105D01*
X102322483Y-64182104D01*
X102325168Y-64176074D01*
X102351060Y-64054261D01*
X102362628Y-63999842D01*
X102362628Y-63999837D01*
X102364000Y-63993385D01*
X102364000Y-63806615D01*
X102325168Y-63623926D01*
X102306399Y-63581770D01*
X102251887Y-63459333D01*
X102251886Y-63459331D01*
X102249202Y-63453303D01*
X102139421Y-63302203D01*
X102054871Y-63226073D01*
X102005532Y-63181648D01*
X102005531Y-63181647D01*
X102000624Y-63177229D01*
X101867931Y-63100619D01*
X101818938Y-63049237D01*
X101805502Y-62979523D01*
X101831888Y-62913612D01*
X101889720Y-62872430D01*
X101930931Y-62865500D01*
X103584472Y-62865500D01*
X103652593Y-62885502D01*
X103699086Y-62939158D01*
X103704305Y-62952564D01*
X103712428Y-62977564D01*
X103712428Y-63055436D01*
X103671420Y-63181648D01*
X103659118Y-63219509D01*
X103658428Y-63226072D01*
X103658428Y-63226073D01*
X103649459Y-63311404D01*
X103640410Y-63397500D01*
X103659118Y-63575491D01*
X103661158Y-63581769D01*
X103661158Y-63581770D01*
X103712428Y-63739564D01*
X103712428Y-63817435D01*
X103676419Y-63928262D01*
X103636346Y-63986868D01*
X103602967Y-64006480D01*
X103582942Y-64014408D01*
X103571715Y-64018252D01*
X103555035Y-64023098D01*
X103529107Y-64030631D01*
X103522280Y-64034669D01*
X103522277Y-64034670D01*
X103511594Y-64040988D01*
X103493836Y-64049688D01*
X103482285Y-64054261D01*
X103482279Y-64054265D01*
X103474912Y-64057181D01*
X103468501Y-64061839D01*
X103468499Y-64061840D01*
X103439012Y-64083264D01*
X103429090Y-64089781D01*
X103397732Y-64108326D01*
X103397728Y-64108329D01*
X103390902Y-64112366D01*
X103376518Y-64126750D01*
X103361484Y-64139591D01*
X103345013Y-64151558D01*
X103324732Y-64176074D01*
X103316727Y-64185750D01*
X103308737Y-64194531D01*
X102476512Y-65026755D01*
X102468193Y-65034325D01*
X102461697Y-65038447D01*
X102456271Y-65044225D01*
X102456270Y-65044226D01*
X102414915Y-65088265D01*
X102412160Y-65091107D01*
X102392361Y-65110906D01*
X102389937Y-65114031D01*
X102389929Y-65114040D01*
X102389863Y-65114126D01*
X102382155Y-65123151D01*
X102351783Y-65155494D01*
X102347965Y-65162438D01*
X102347964Y-65162440D01*
X102341978Y-65173329D01*
X102331127Y-65189847D01*
X102318650Y-65205933D01*
X102301024Y-65246666D01*
X102295807Y-65257314D01*
X102274431Y-65296197D01*
X102272460Y-65303872D01*
X102272458Y-65303878D01*
X102269369Y-65315911D01*
X102262966Y-65334613D01*
X102254883Y-65353292D01*
X102253644Y-65361117D01*
X102247940Y-65397127D01*
X102245535Y-65408740D01*
X102234500Y-65451718D01*
X102234500Y-65472065D01*
X102232949Y-65491776D01*
X102229765Y-65511879D01*
X102230511Y-65519771D01*
X102233941Y-65556056D01*
X102234500Y-65567914D01*
X102234500Y-66232577D01*
X102214498Y-66300698D01*
X102197595Y-66321672D01*
X101119672Y-67399595D01*
X101057360Y-67433621D01*
X101030577Y-67436500D01*
X99619062Y-67436500D01*
X99550941Y-67416498D01*
X99504448Y-67362842D01*
X99494344Y-67292568D01*
X99499469Y-67270834D01*
X99522578Y-67201160D01*
X99525445Y-67187790D01*
X99534614Y-67098300D01*
X99530525Y-67084376D01*
X99529135Y-67083171D01*
X99521452Y-67081500D01*
X97587115Y-67081500D01*
X97571876Y-67085975D01*
X97570671Y-67087365D01*
X97569158Y-67094321D01*
X97569337Y-67097782D01*
X97578804Y-67189021D01*
X97581697Y-67202417D01*
X97604453Y-67270624D01*
X97607037Y-67341573D01*
X97570854Y-67402657D01*
X97507390Y-67434482D01*
X97484929Y-67436500D01*
X96515369Y-67436500D01*
X96504130Y-67435970D01*
X96496618Y-67434291D01*
X96488693Y-67434540D01*
X96488692Y-67434540D01*
X96428307Y-67436438D01*
X96424349Y-67436500D01*
X96396354Y-67436500D01*
X96392420Y-67436997D01*
X96392418Y-67436997D01*
X96392331Y-67437008D01*
X96380497Y-67437940D01*
X96336132Y-67439335D01*
X96328519Y-67441547D01*
X96328518Y-67441547D01*
X96316589Y-67445013D01*
X96297225Y-67449023D01*
X96284897Y-67450580D01*
X96284895Y-67450580D01*
X96277038Y-67451573D01*
X96269674Y-67454489D01*
X96269669Y-67454490D01*
X96235781Y-67467907D01*
X96224552Y-67471752D01*
X96207872Y-67476598D01*
X96181944Y-67484131D01*
X96175117Y-67488169D01*
X96175114Y-67488170D01*
X96164431Y-67494488D01*
X96146673Y-67503188D01*
X96135122Y-67507761D01*
X96135116Y-67507765D01*
X96127749Y-67510681D01*
X96121338Y-67515339D01*
X96121336Y-67515340D01*
X96091849Y-67536764D01*
X96081927Y-67543281D01*
X96050569Y-67561826D01*
X96050565Y-67561829D01*
X96043739Y-67565866D01*
X96029355Y-67580250D01*
X96014321Y-67593091D01*
X95997850Y-67605058D01*
X95992797Y-67611166D01*
X95969560Y-67639255D01*
X95961570Y-67648035D01*
X94450423Y-69159182D01*
X94388111Y-69193208D01*
X94351442Y-69195699D01*
X94325958Y-69193693D01*
X94325950Y-69193693D01*
X94323502Y-69193500D01*
X93890498Y-69193500D01*
X93888050Y-69193693D01*
X93888042Y-69193693D01*
X93859579Y-69195933D01*
X93859574Y-69195934D01*
X93853169Y-69196438D01*
X93753231Y-69225472D01*
X93701012Y-69240643D01*
X93701010Y-69240644D01*
X93693399Y-69242855D01*
X93686572Y-69246892D01*
X93686573Y-69246892D01*
X93557020Y-69323509D01*
X93557017Y-69323511D01*
X93550193Y-69327547D01*
X93432547Y-69445193D01*
X93428511Y-69452017D01*
X93428509Y-69452020D01*
X93403940Y-69493564D01*
X93347855Y-69588399D01*
X93301438Y-69748169D01*
X93298500Y-69785498D01*
X93298500Y-71568502D01*
X93298693Y-71570950D01*
X93298693Y-71570958D01*
X93300909Y-71599108D01*
X93301438Y-71605831D01*
X93319495Y-71667983D01*
X93336991Y-71728205D01*
X93347855Y-71765601D01*
X93351892Y-71772427D01*
X93428509Y-71901980D01*
X93428511Y-71901983D01*
X93432547Y-71908807D01*
X93550193Y-72026453D01*
X93557017Y-72030489D01*
X93557020Y-72030491D01*
X93630237Y-72073791D01*
X93693399Y-72111145D01*
X93701010Y-72113356D01*
X93701012Y-72113357D01*
X93739574Y-72124560D01*
X93853169Y-72157562D01*
X93859574Y-72158066D01*
X93859579Y-72158067D01*
X93888042Y-72160307D01*
X93888050Y-72160307D01*
X93890498Y-72160500D01*
X94323502Y-72160500D01*
X94325950Y-72160307D01*
X94325958Y-72160307D01*
X94354421Y-72158067D01*
X94354426Y-72158066D01*
X94360831Y-72157562D01*
X94474426Y-72124560D01*
X94512988Y-72113357D01*
X94512990Y-72113356D01*
X94520601Y-72111145D01*
X94663807Y-72026453D01*
X94666489Y-72023771D01*
X94730861Y-71998498D01*
X94800484Y-72012400D01*
X94816312Y-72022572D01*
X94820193Y-72026453D01*
X94963399Y-72111145D01*
X94971010Y-72113356D01*
X94971012Y-72113357D01*
X95009574Y-72124560D01*
X95123169Y-72157562D01*
X95129574Y-72158066D01*
X95129579Y-72158067D01*
X95158042Y-72160307D01*
X95158050Y-72160307D01*
X95160498Y-72160500D01*
X95593502Y-72160500D01*
X95595950Y-72160307D01*
X95595958Y-72160307D01*
X95624421Y-72158067D01*
X95624426Y-72158066D01*
X95630831Y-72157562D01*
X95744426Y-72124560D01*
X95782988Y-72113357D01*
X95782990Y-72113356D01*
X95790601Y-72111145D01*
X95933807Y-72026453D01*
X95936489Y-72023771D01*
X96000861Y-71998498D01*
X96070484Y-72012400D01*
X96086312Y-72022572D01*
X96090193Y-72026453D01*
X96233399Y-72111145D01*
X96241010Y-72113356D01*
X96241012Y-72113357D01*
X96279574Y-72124560D01*
X96393169Y-72157562D01*
X96399574Y-72158066D01*
X96399579Y-72158067D01*
X96428042Y-72160307D01*
X96428050Y-72160307D01*
X96430498Y-72160500D01*
X96863502Y-72160500D01*
X96865950Y-72160307D01*
X96865958Y-72160307D01*
X96894421Y-72158067D01*
X96894426Y-72158066D01*
X96900831Y-72157562D01*
X97014426Y-72124560D01*
X97052988Y-72113357D01*
X97052990Y-72113356D01*
X97060601Y-72111145D01*
X97203807Y-72026453D01*
X97206489Y-72023771D01*
X97270861Y-71998498D01*
X97340484Y-72012400D01*
X97356312Y-72022572D01*
X97360193Y-72026453D01*
X97503399Y-72111145D01*
X97511010Y-72113356D01*
X97511012Y-72113357D01*
X97549574Y-72124560D01*
X97663169Y-72157562D01*
X97669574Y-72158066D01*
X97669579Y-72158067D01*
X97698042Y-72160307D01*
X97698050Y-72160307D01*
X97700498Y-72160500D01*
X98133502Y-72160500D01*
X98135950Y-72160307D01*
X98135958Y-72160307D01*
X98164421Y-72158067D01*
X98164426Y-72158066D01*
X98170831Y-72157562D01*
X98284426Y-72124560D01*
X98322988Y-72113357D01*
X98322990Y-72113356D01*
X98330601Y-72111145D01*
X98393763Y-72073791D01*
X98466980Y-72030491D01*
X98466983Y-72030489D01*
X98473807Y-72026453D01*
X98591453Y-71908807D01*
X98595489Y-71901983D01*
X98595491Y-71901980D01*
X98672108Y-71772427D01*
X98676145Y-71765601D01*
X98687010Y-71728205D01*
X98704505Y-71667983D01*
X98722562Y-71605831D01*
X98723092Y-71599108D01*
X98725307Y-71570958D01*
X98725307Y-71570950D01*
X98725500Y-71568502D01*
X98725500Y-71335400D01*
X98745502Y-71267279D01*
X98799158Y-71220786D01*
X98851500Y-71209400D01*
X98895486Y-71209400D01*
X98901939Y-71208028D01*
X98901943Y-71208028D01*
X98983016Y-71190795D01*
X99070546Y-71172190D01*
X99076577Y-71169505D01*
X99228015Y-71102081D01*
X99228017Y-71102080D01*
X99234045Y-71099396D01*
X99287578Y-71060502D01*
X99373492Y-70998082D01*
X99373494Y-70998080D01*
X99378836Y-70994199D01*
X99498591Y-70861197D01*
X99588077Y-70706203D01*
X99643382Y-70535991D01*
X99662090Y-70358000D01*
X99643382Y-70180009D01*
X99588077Y-70009797D01*
X99498591Y-69854803D01*
X99433978Y-69783042D01*
X99383258Y-69726712D01*
X99383257Y-69726711D01*
X99378836Y-69721801D01*
X99345299Y-69697435D01*
X99301947Y-69641213D01*
X99295872Y-69570477D01*
X99329004Y-69507685D01*
X99390824Y-69472774D01*
X99419362Y-69469500D01*
X101493262Y-69469500D01*
X101561383Y-69489502D01*
X101567323Y-69493564D01*
X101673185Y-69570477D01*
X101679955Y-69575396D01*
X101685983Y-69578080D01*
X101685985Y-69578081D01*
X101772510Y-69616604D01*
X101843454Y-69648190D01*
X101930984Y-69666795D01*
X102012057Y-69684028D01*
X102012061Y-69684028D01*
X102018514Y-69685400D01*
X102197486Y-69685400D01*
X102203939Y-69684028D01*
X102203943Y-69684028D01*
X102285016Y-69666795D01*
X102372546Y-69648190D01*
X102443490Y-69616604D01*
X102530015Y-69578081D01*
X102530017Y-69578080D01*
X102536045Y-69575396D01*
X102541387Y-69571515D01*
X102675492Y-69474082D01*
X102675494Y-69474080D01*
X102680836Y-69470199D01*
X102685258Y-69465288D01*
X102796172Y-69342105D01*
X102796173Y-69342104D01*
X102800591Y-69337197D01*
X102880822Y-69198233D01*
X102886773Y-69187926D01*
X102886774Y-69187925D01*
X102890077Y-69182203D01*
X102945382Y-69011991D01*
X102964090Y-68834000D01*
X102962571Y-68819547D01*
X102946072Y-68662573D01*
X102946072Y-68662572D01*
X102945382Y-68656009D01*
X102890077Y-68485797D01*
X102866506Y-68444970D01*
X102828379Y-68378933D01*
X102800591Y-68330803D01*
X102767185Y-68293701D01*
X102685258Y-68202712D01*
X102685257Y-68202711D01*
X102680836Y-68197801D01*
X102672551Y-68191781D01*
X102541387Y-68096485D01*
X102541386Y-68096484D01*
X102536045Y-68092604D01*
X102487701Y-68071080D01*
X102433605Y-68025101D01*
X102412955Y-67957174D01*
X102432307Y-67888865D01*
X102449854Y-67866878D01*
X103263477Y-67053255D01*
X103271803Y-67045678D01*
X103278303Y-67041553D01*
X103325101Y-66991718D01*
X103327855Y-66988877D01*
X103347638Y-66969094D01*
X103350129Y-66965883D01*
X103357838Y-66956856D01*
X103382789Y-66930286D01*
X103388217Y-66924506D01*
X103398022Y-66906671D01*
X103408876Y-66890147D01*
X103416491Y-66880330D01*
X103416492Y-66880329D01*
X103421349Y-66874067D01*
X103438969Y-66833350D01*
X103444192Y-66822689D01*
X103461749Y-66790753D01*
X103461751Y-66790748D01*
X103465569Y-66783803D01*
X103467539Y-66776129D01*
X103467542Y-66776122D01*
X103470632Y-66764087D01*
X103477036Y-66745382D01*
X103481967Y-66733987D01*
X103485117Y-66726708D01*
X103492060Y-66682873D01*
X103494467Y-66671251D01*
X103505500Y-66628282D01*
X103505500Y-66607935D01*
X103507051Y-66588224D01*
X103508995Y-66575950D01*
X103510235Y-66568121D01*
X103506059Y-66523944D01*
X103505500Y-66512086D01*
X103505500Y-65847423D01*
X103525502Y-65779302D01*
X103542405Y-65758327D01*
X103961103Y-65339630D01*
X104023415Y-65305605D01*
X104094231Y-65310670D01*
X104139293Y-65339631D01*
X104315190Y-65515528D01*
X104327577Y-65529941D01*
X104340546Y-65547564D01*
X104367640Y-65570582D01*
X104381055Y-65581979D01*
X104388571Y-65588909D01*
X104394315Y-65594653D01*
X104397189Y-65596927D01*
X104397196Y-65596933D01*
X104416711Y-65612372D01*
X104420115Y-65615163D01*
X104470472Y-65657945D01*
X104470476Y-65657948D01*
X104476051Y-65662684D01*
X104482568Y-65666012D01*
X104487632Y-65669389D01*
X104492856Y-65672616D01*
X104498600Y-65677160D01*
X104565104Y-65708242D01*
X104569001Y-65710147D01*
X104634404Y-65743543D01*
X104641518Y-65745284D01*
X104647252Y-65747416D01*
X104653048Y-65749344D01*
X104659680Y-65752444D01*
X104731555Y-65767394D01*
X104735839Y-65768364D01*
X104807112Y-65785804D01*
X104812714Y-65786152D01*
X104812717Y-65786152D01*
X104818330Y-65786500D01*
X104818328Y-65786537D01*
X104822227Y-65786773D01*
X104826598Y-65787163D01*
X104833757Y-65788652D01*
X104911577Y-65786546D01*
X104914986Y-65786500D01*
X106528819Y-65786500D01*
X106596940Y-65806502D01*
X106643433Y-65860158D01*
X106653537Y-65930432D01*
X106624043Y-65995012D01*
X106580068Y-66027607D01*
X106511985Y-66057919D01*
X106511983Y-66057920D01*
X106505955Y-66060604D01*
X106500614Y-66064484D01*
X106500613Y-66064485D01*
X106384172Y-66149085D01*
X106361164Y-66165801D01*
X106241409Y-66298803D01*
X106151923Y-66453797D01*
X106149881Y-66460082D01*
X106105064Y-66598016D01*
X106096618Y-66624009D01*
X106095928Y-66630572D01*
X106095928Y-66630573D01*
X106091635Y-66671420D01*
X106077910Y-66802000D01*
X106096618Y-66979991D01*
X106098658Y-66986269D01*
X106098658Y-66986270D01*
X106114743Y-67035774D01*
X106151923Y-67150203D01*
X106241409Y-67305197D01*
X106266137Y-67332660D01*
X106296853Y-67396666D01*
X106298500Y-67416969D01*
X106298500Y-71548980D01*
X106297970Y-71560214D01*
X106296292Y-71567719D01*
X106296541Y-71575638D01*
X106298438Y-71636012D01*
X106298500Y-71639969D01*
X106298500Y-71667983D01*
X106298996Y-71671908D01*
X106298996Y-71671909D01*
X106299008Y-71672004D01*
X106299942Y-71683856D01*
X106301049Y-71719086D01*
X106301335Y-71728205D01*
X106303547Y-71735817D01*
X106307013Y-71747748D01*
X106311023Y-71767112D01*
X106313573Y-71787299D01*
X106316489Y-71794663D01*
X106316490Y-71794668D01*
X106329907Y-71828556D01*
X106333752Y-71839785D01*
X106338598Y-71856465D01*
X106346131Y-71882393D01*
X106350169Y-71889220D01*
X106350170Y-71889223D01*
X106356488Y-71899906D01*
X106365188Y-71917664D01*
X106369761Y-71929215D01*
X106369765Y-71929221D01*
X106372681Y-71936588D01*
X106397748Y-71971089D01*
X106398764Y-71972488D01*
X106405281Y-71982410D01*
X106423826Y-72013768D01*
X106423829Y-72013772D01*
X106427866Y-72020598D01*
X106442250Y-72034982D01*
X106455091Y-72050016D01*
X106467058Y-72066487D01*
X106492254Y-72087331D01*
X106501250Y-72094773D01*
X106510031Y-72102763D01*
X107274905Y-72867638D01*
X107274920Y-72867652D01*
X107444745Y-73037477D01*
X107452322Y-73045803D01*
X107456447Y-73052303D01*
X107462225Y-73057729D01*
X107462226Y-73057730D01*
X107506281Y-73099100D01*
X107509123Y-73101855D01*
X107528906Y-73121638D01*
X107532114Y-73124126D01*
X107541143Y-73131837D01*
X107573494Y-73162217D01*
X107580443Y-73166037D01*
X107591329Y-73172022D01*
X107607853Y-73182876D01*
X107623933Y-73195349D01*
X107631210Y-73198498D01*
X107664650Y-73212969D01*
X107675311Y-73218192D01*
X107707247Y-73235749D01*
X107707252Y-73235751D01*
X107714197Y-73239569D01*
X107721871Y-73241539D01*
X107721878Y-73241542D01*
X107733913Y-73244632D01*
X107752618Y-73251036D01*
X107764013Y-73255967D01*
X107771292Y-73259117D01*
X107786401Y-73261510D01*
X107815127Y-73266060D01*
X107826740Y-73268465D01*
X107869718Y-73279500D01*
X107890065Y-73279500D01*
X107909777Y-73281051D01*
X107929879Y-73284235D01*
X107937771Y-73283489D01*
X107974056Y-73280059D01*
X107985914Y-73279500D01*
X111934980Y-73279500D01*
X111946214Y-73280030D01*
X111953719Y-73281708D01*
X112022012Y-73279562D01*
X112025969Y-73279500D01*
X112053983Y-73279500D01*
X112057908Y-73279004D01*
X112057909Y-73279004D01*
X112058004Y-73278992D01*
X112069849Y-73278059D01*
X112099670Y-73277122D01*
X112106282Y-73276914D01*
X112106283Y-73276914D01*
X112114205Y-73276665D01*
X112133749Y-73270987D01*
X112153112Y-73266977D01*
X112165440Y-73265420D01*
X112165442Y-73265420D01*
X112173299Y-73264427D01*
X112180663Y-73261511D01*
X112180668Y-73261510D01*
X112214556Y-73248093D01*
X112225785Y-73244248D01*
X112246546Y-73238216D01*
X112268393Y-73231869D01*
X112275220Y-73227831D01*
X112275223Y-73227830D01*
X112285906Y-73221512D01*
X112303664Y-73212812D01*
X112315215Y-73208239D01*
X112315221Y-73208235D01*
X112322588Y-73205319D01*
X112331977Y-73198498D01*
X112358488Y-73179236D01*
X112368410Y-73172719D01*
X112399768Y-73154174D01*
X112399772Y-73154171D01*
X112406598Y-73150134D01*
X112420982Y-73135750D01*
X112436016Y-73122909D01*
X112446073Y-73115602D01*
X112452487Y-73110942D01*
X112480773Y-73076750D01*
X112488763Y-73067969D01*
X113296488Y-72260245D01*
X113304807Y-72252675D01*
X113311303Y-72248553D01*
X113358086Y-72198734D01*
X113360840Y-72195893D01*
X113380639Y-72176094D01*
X113383063Y-72172969D01*
X113383071Y-72172960D01*
X113383137Y-72172874D01*
X113390845Y-72163849D01*
X113415790Y-72137285D01*
X113421217Y-72131506D01*
X113431023Y-72113669D01*
X113441873Y-72097153D01*
X113454350Y-72081067D01*
X113471976Y-72040334D01*
X113477193Y-72029686D01*
X113490423Y-72005621D01*
X113498569Y-71990803D01*
X113500540Y-71983128D01*
X113500542Y-71983122D01*
X113503631Y-71971089D01*
X113510034Y-71952387D01*
X113518117Y-71933708D01*
X113525060Y-71889873D01*
X113527467Y-71878251D01*
X113530203Y-71867595D01*
X113538500Y-71835282D01*
X113538500Y-71814935D01*
X113540051Y-71795224D01*
X113541995Y-71782950D01*
X113543235Y-71775121D01*
X113539059Y-71730944D01*
X113538500Y-71719086D01*
X113538500Y-71491950D01*
X113558502Y-71423829D01*
X113567298Y-71412915D01*
X113566989Y-71412675D01*
X113571844Y-71406416D01*
X113577453Y-71400807D01*
X113585047Y-71387966D01*
X113636938Y-71339514D01*
X113706789Y-71326808D01*
X113772420Y-71353883D01*
X113812995Y-71412143D01*
X113819500Y-71452105D01*
X113819500Y-73290282D01*
X113814497Y-73325435D01*
X113798188Y-73381569D01*
X113798187Y-73381574D01*
X113796394Y-73387746D01*
X113795890Y-73394151D01*
X113795889Y-73394156D01*
X113794957Y-73406000D01*
X113793500Y-73424516D01*
X113793500Y-73799325D01*
X113773498Y-73867446D01*
X113719842Y-73913939D01*
X113649568Y-73924043D01*
X113584988Y-73894549D01*
X113577744Y-73886902D01*
X113577453Y-73887193D01*
X113459807Y-73769547D01*
X113452983Y-73765511D01*
X113452980Y-73765509D01*
X113323427Y-73688892D01*
X113323428Y-73688892D01*
X113316601Y-73684855D01*
X113308990Y-73682644D01*
X113308988Y-73682643D01*
X113221142Y-73657122D01*
X113156831Y-73638438D01*
X113150426Y-73637934D01*
X113150421Y-73637933D01*
X113121958Y-73635693D01*
X113121950Y-73635693D01*
X113119502Y-73635500D01*
X112686498Y-73635500D01*
X112684050Y-73635693D01*
X112684042Y-73635693D01*
X112655579Y-73637933D01*
X112655574Y-73637934D01*
X112649169Y-73638438D01*
X112584858Y-73657122D01*
X112497012Y-73682643D01*
X112497010Y-73682644D01*
X112489399Y-73684855D01*
X112346193Y-73769547D01*
X112343511Y-73772229D01*
X112279139Y-73797502D01*
X112209516Y-73783600D01*
X112193688Y-73773428D01*
X112189807Y-73769547D01*
X112046601Y-73684855D01*
X112038990Y-73682644D01*
X112038988Y-73682643D01*
X111951142Y-73657122D01*
X111886831Y-73638438D01*
X111880426Y-73637934D01*
X111880421Y-73637933D01*
X111851958Y-73635693D01*
X111851950Y-73635693D01*
X111849502Y-73635500D01*
X111416498Y-73635500D01*
X111414050Y-73635693D01*
X111414042Y-73635693D01*
X111385579Y-73637933D01*
X111385574Y-73637934D01*
X111379169Y-73638438D01*
X111314858Y-73657122D01*
X111227012Y-73682643D01*
X111227010Y-73682644D01*
X111219399Y-73684855D01*
X111076193Y-73769547D01*
X111073511Y-73772229D01*
X111009139Y-73797502D01*
X110939516Y-73783600D01*
X110923688Y-73773428D01*
X110919807Y-73769547D01*
X110776601Y-73684855D01*
X110768990Y-73682644D01*
X110768988Y-73682643D01*
X110681142Y-73657122D01*
X110616831Y-73638438D01*
X110610426Y-73637934D01*
X110610421Y-73637933D01*
X110581958Y-73635693D01*
X110581950Y-73635693D01*
X110579502Y-73635500D01*
X110146498Y-73635500D01*
X110144050Y-73635693D01*
X110144042Y-73635693D01*
X110115579Y-73637933D01*
X110115574Y-73637934D01*
X110109169Y-73638438D01*
X110044858Y-73657122D01*
X109957012Y-73682643D01*
X109957010Y-73682644D01*
X109949399Y-73684855D01*
X109806193Y-73769547D01*
X109803253Y-73772487D01*
X109738729Y-73797821D01*
X109669106Y-73783920D01*
X109650360Y-73771871D01*
X109642677Y-73765911D01*
X109513221Y-73689352D01*
X109498790Y-73683107D01*
X109364395Y-73644061D01*
X109350294Y-73644101D01*
X109347000Y-73651370D01*
X109347000Y-75247000D01*
X109326998Y-75315121D01*
X109273342Y-75361614D01*
X109221000Y-75373000D01*
X108303116Y-75373000D01*
X108287877Y-75377475D01*
X108286672Y-75378865D01*
X108285001Y-75386548D01*
X108285001Y-76007984D01*
X108285195Y-76012920D01*
X108287430Y-76041336D01*
X108289730Y-76053931D01*
X108332107Y-76199790D01*
X108338352Y-76214221D01*
X108414911Y-76343678D01*
X108424551Y-76356104D01*
X108530896Y-76462449D01*
X108543328Y-76472093D01*
X108544943Y-76473048D01*
X108545951Y-76474128D01*
X108549592Y-76476952D01*
X108549136Y-76477539D01*
X108593395Y-76524941D01*
X108606099Y-76594792D01*
X108579022Y-76660423D01*
X108520761Y-76700996D01*
X108480802Y-76707500D01*
X107716876Y-76707500D01*
X107697926Y-76706067D01*
X107683527Y-76703876D01*
X107683521Y-76703876D01*
X107676292Y-76702776D01*
X107669000Y-76703369D01*
X107668997Y-76703369D01*
X107623317Y-76707085D01*
X107613102Y-76707500D01*
X107604975Y-76707500D01*
X107601339Y-76707924D01*
X107601337Y-76707924D01*
X107597885Y-76708327D01*
X107576576Y-76710811D01*
X107572256Y-76711238D01*
X107499074Y-76717191D01*
X107492112Y-76719447D01*
X107486124Y-76720643D01*
X107480167Y-76722051D01*
X107472893Y-76722899D01*
X107466011Y-76725397D01*
X107466007Y-76725398D01*
X107403893Y-76747945D01*
X107399789Y-76749355D01*
X107329925Y-76771987D01*
X107323662Y-76775787D01*
X107318120Y-76778325D01*
X107312644Y-76781067D01*
X107305759Y-76783566D01*
X107299635Y-76787581D01*
X107244368Y-76823815D01*
X107240700Y-76826130D01*
X107177919Y-76864227D01*
X107173714Y-76867941D01*
X107173711Y-76867943D01*
X107169495Y-76871667D01*
X107169469Y-76871638D01*
X107166538Y-76874238D01*
X107163184Y-76877042D01*
X107157065Y-76881054D01*
X107127730Y-76912021D01*
X107103512Y-76937586D01*
X107101134Y-76940028D01*
X105822567Y-78218595D01*
X105760255Y-78252621D01*
X105733472Y-78255500D01*
X105488428Y-78255500D01*
X105485182Y-78255837D01*
X105485178Y-78255837D01*
X105451397Y-78259342D01*
X105387018Y-78266022D01*
X105226151Y-78319692D01*
X105081945Y-78408929D01*
X104962136Y-78528947D01*
X104873151Y-78673308D01*
X104870846Y-78680256D01*
X104870846Y-78680257D01*
X104866777Y-78692526D01*
X104819762Y-78834269D01*
X104809500Y-78934428D01*
X104809500Y-79468572D01*
X104809837Y-79471818D01*
X104809837Y-79471822D01*
X104813182Y-79504059D01*
X104820022Y-79569982D01*
X104873692Y-79730849D01*
X104962929Y-79875055D01*
X105082947Y-79994864D01*
X105227308Y-80083849D01*
X105234256Y-80086154D01*
X105234257Y-80086154D01*
X105381738Y-80135072D01*
X105381740Y-80135072D01*
X105388269Y-80137238D01*
X105402656Y-80138712D01*
X105468383Y-80165554D01*
X105509164Y-80223669D01*
X105512052Y-80294607D01*
X105476130Y-80355845D01*
X105412802Y-80387941D01*
X105402814Y-80389383D01*
X105393876Y-80390310D01*
X105393872Y-80390311D01*
X105387018Y-80391022D01*
X105226151Y-80444692D01*
X105081945Y-80533929D01*
X104962136Y-80653947D01*
X104873151Y-80798308D01*
X104870846Y-80805256D01*
X104870846Y-80805257D01*
X104831819Y-80922920D01*
X104819762Y-80959269D01*
X104809500Y-81059428D01*
X104809500Y-81593572D01*
X104820022Y-81694982D01*
X104873692Y-81855849D01*
X104962929Y-82000055D01*
X105082947Y-82119864D01*
X105089177Y-82123704D01*
X105089178Y-82123705D01*
X105095614Y-82127672D01*
X105227308Y-82208849D01*
X105234256Y-82211154D01*
X105234257Y-82211154D01*
X105381738Y-82260072D01*
X105381740Y-82260072D01*
X105388269Y-82262238D01*
X105488428Y-82272500D01*
X106347572Y-82272500D01*
X106350818Y-82272163D01*
X106350822Y-82272163D01*
X106384603Y-82268658D01*
X106448982Y-82261978D01*
X106609849Y-82208308D01*
X106754055Y-82119071D01*
X106873864Y-81999053D01*
X106962849Y-81854692D01*
X107016238Y-81693731D01*
X107026500Y-81593572D01*
X107026500Y-81348528D01*
X107046502Y-81280407D01*
X107063405Y-81259433D01*
X107513433Y-80809405D01*
X107575745Y-80775379D01*
X107602528Y-80772500D01*
X111645972Y-80772500D01*
X111714093Y-80792502D01*
X111735067Y-80809405D01*
X112097968Y-81172306D01*
X112131994Y-81234618D01*
X112126929Y-81305433D01*
X112084382Y-81362269D01*
X112077973Y-81366763D01*
X112012848Y-81409460D01*
X111962928Y-81442189D01*
X111962923Y-81442193D01*
X111959015Y-81444755D01*
X111864289Y-81529301D01*
X111795884Y-81590355D01*
X111769562Y-81613848D01*
X111607183Y-81809087D01*
X111475447Y-82026182D01*
X111473638Y-82030496D01*
X111473637Y-82030498D01*
X111387911Y-82234933D01*
X111377246Y-82260365D01*
X111374248Y-82272172D01*
X111374016Y-82273084D01*
X111337861Y-82334185D01*
X111274412Y-82366039D01*
X111203813Y-82358534D01*
X111148479Y-82314051D01*
X111134460Y-82287735D01*
X111050084Y-82070762D01*
X111050083Y-82070760D01*
X111048391Y-82066409D01*
X111027866Y-82030498D01*
X110924702Y-81849997D01*
X110924700Y-81849995D01*
X110922383Y-81845940D01*
X110765171Y-81646517D01*
X110580209Y-81472523D01*
X110427771Y-81366773D01*
X110375393Y-81330437D01*
X110375390Y-81330435D01*
X110371561Y-81327779D01*
X110367384Y-81325719D01*
X110367377Y-81325715D01*
X110147996Y-81217528D01*
X110147992Y-81217527D01*
X110143810Y-81215464D01*
X109901960Y-81138047D01*
X109897355Y-81137297D01*
X109655935Y-81097980D01*
X109655934Y-81097980D01*
X109651323Y-81097229D01*
X109524364Y-81095567D01*
X109402083Y-81093966D01*
X109402080Y-81093966D01*
X109397406Y-81093905D01*
X109145787Y-81128149D01*
X108901993Y-81199208D01*
X108671380Y-81305522D01*
X108667471Y-81308085D01*
X108462928Y-81442189D01*
X108462923Y-81442193D01*
X108459015Y-81444755D01*
X108364289Y-81529301D01*
X108295884Y-81590355D01*
X108269562Y-81613848D01*
X108107183Y-81809087D01*
X107975447Y-82026182D01*
X107973638Y-82030496D01*
X107973637Y-82030498D01*
X107887911Y-82234933D01*
X107877246Y-82260365D01*
X107876095Y-82264897D01*
X107876094Y-82264900D01*
X107874247Y-82272172D01*
X107814738Y-82506490D01*
X107789296Y-82759151D01*
X107801480Y-83012798D01*
X107851021Y-83261857D01*
X107852600Y-83266255D01*
X107852602Y-83266262D01*
X107903092Y-83406888D01*
X107936831Y-83500858D01*
X108057025Y-83724551D01*
X108059820Y-83728294D01*
X108059822Y-83728297D01*
X108206171Y-83924282D01*
X108206176Y-83924288D01*
X108208963Y-83928020D01*
X108212272Y-83931300D01*
X108212277Y-83931306D01*
X108310859Y-84029031D01*
X108389307Y-84106797D01*
X108393069Y-84109555D01*
X108393072Y-84109558D01*
X108498764Y-84187054D01*
X108594094Y-84256953D01*
X108598229Y-84259129D01*
X108598233Y-84259131D01*
X108672168Y-84298030D01*
X108723140Y-84347449D01*
X108739500Y-84409538D01*
X108739500Y-84796624D01*
X108738067Y-84815574D01*
X108735876Y-84829973D01*
X108735876Y-84829979D01*
X108734776Y-84837208D01*
X108735369Y-84844500D01*
X108735369Y-84844503D01*
X108739085Y-84890183D01*
X108739500Y-84900398D01*
X108739500Y-84908525D01*
X108742811Y-84936924D01*
X108743238Y-84941244D01*
X108749191Y-85014426D01*
X108751447Y-85021388D01*
X108752643Y-85027376D01*
X108754051Y-85033333D01*
X108754899Y-85040607D01*
X108757397Y-85047489D01*
X108757398Y-85047493D01*
X108779945Y-85109607D01*
X108781355Y-85113711D01*
X108803987Y-85183575D01*
X108807787Y-85189838D01*
X108810325Y-85195380D01*
X108813067Y-85200856D01*
X108815566Y-85207741D01*
X108819581Y-85213865D01*
X108855815Y-85269132D01*
X108858130Y-85272800D01*
X108896227Y-85335581D01*
X108899941Y-85339786D01*
X108899943Y-85339789D01*
X108903667Y-85344005D01*
X108903638Y-85344031D01*
X108906238Y-85346962D01*
X108909042Y-85350316D01*
X108913054Y-85356435D01*
X108918366Y-85361467D01*
X108969586Y-85409988D01*
X108972028Y-85412366D01*
X109649190Y-86089528D01*
X109661577Y-86103941D01*
X109674546Y-86121564D01*
X109680129Y-86126307D01*
X109715055Y-86155979D01*
X109722571Y-86162909D01*
X109728315Y-86168653D01*
X109731189Y-86170927D01*
X109731196Y-86170933D01*
X109750711Y-86186372D01*
X109754115Y-86189163D01*
X109776259Y-86207976D01*
X109815223Y-86267325D01*
X109815915Y-86338318D01*
X109778116Y-86398415D01*
X109713826Y-86428537D01*
X109694679Y-86430000D01*
X92629000Y-86430000D01*
X92560879Y-86409998D01*
X92514386Y-86356342D01*
X92503000Y-86304000D01*
X92503000Y-76518502D01*
X93298500Y-76518502D01*
X93298693Y-76520950D01*
X93298693Y-76520958D01*
X93300927Y-76549333D01*
X93301438Y-76555831D01*
X93324102Y-76633842D01*
X93345625Y-76707924D01*
X93347855Y-76715601D01*
X93351892Y-76722427D01*
X93428509Y-76851980D01*
X93428511Y-76851983D01*
X93432547Y-76858807D01*
X93550193Y-76976453D01*
X93557016Y-76980488D01*
X93557020Y-76980491D01*
X93664589Y-77044107D01*
X93693399Y-77061145D01*
X93701010Y-77063356D01*
X93701012Y-77063357D01*
X93753231Y-77078528D01*
X93853169Y-77107562D01*
X93859574Y-77108066D01*
X93859579Y-77108067D01*
X93888042Y-77110307D01*
X93888050Y-77110307D01*
X93890498Y-77110500D01*
X94323502Y-77110500D01*
X94325950Y-77110307D01*
X94325958Y-77110307D01*
X94354421Y-77108067D01*
X94354426Y-77108066D01*
X94360831Y-77107562D01*
X94460769Y-77078528D01*
X94512988Y-77063357D01*
X94512990Y-77063356D01*
X94520601Y-77061145D01*
X94663807Y-76976453D01*
X94666489Y-76973771D01*
X94730861Y-76948498D01*
X94800484Y-76962400D01*
X94816312Y-76972572D01*
X94820193Y-76976453D01*
X94963399Y-77061145D01*
X94971010Y-77063356D01*
X94971012Y-77063357D01*
X95023231Y-77078528D01*
X95123169Y-77107562D01*
X95129574Y-77108066D01*
X95129579Y-77108067D01*
X95158042Y-77110307D01*
X95158050Y-77110307D01*
X95160498Y-77110500D01*
X95593502Y-77110500D01*
X95595950Y-77110307D01*
X95595958Y-77110307D01*
X95624421Y-77108067D01*
X95624426Y-77108066D01*
X95630831Y-77107562D01*
X95730769Y-77078528D01*
X95782988Y-77063357D01*
X95782990Y-77063356D01*
X95790601Y-77061145D01*
X95933807Y-76976453D01*
X95936489Y-76973771D01*
X96000861Y-76948498D01*
X96070484Y-76962400D01*
X96086312Y-76972572D01*
X96090193Y-76976453D01*
X96233399Y-77061145D01*
X96241010Y-77063356D01*
X96241012Y-77063357D01*
X96293231Y-77078528D01*
X96393169Y-77107562D01*
X96399574Y-77108066D01*
X96399579Y-77108067D01*
X96428042Y-77110307D01*
X96428050Y-77110307D01*
X96430498Y-77110500D01*
X96863502Y-77110500D01*
X96865950Y-77110307D01*
X96865958Y-77110307D01*
X96894421Y-77108067D01*
X96894426Y-77108066D01*
X96900831Y-77107562D01*
X97000769Y-77078528D01*
X97052988Y-77063357D01*
X97052990Y-77063356D01*
X97060601Y-77061145D01*
X97203807Y-76976453D01*
X97206747Y-76973513D01*
X97271271Y-76948179D01*
X97340894Y-76962080D01*
X97359640Y-76974129D01*
X97367323Y-76980089D01*
X97496779Y-77056648D01*
X97511210Y-77062893D01*
X97645605Y-77101939D01*
X97659706Y-77101899D01*
X97663000Y-77094630D01*
X97663000Y-77088878D01*
X98171000Y-77088878D01*
X98174973Y-77102409D01*
X98182871Y-77103544D01*
X98322790Y-77062893D01*
X98337221Y-77056648D01*
X98466678Y-76980089D01*
X98479104Y-76970449D01*
X98585449Y-76864104D01*
X98595089Y-76851678D01*
X98671648Y-76722221D01*
X98677893Y-76707790D01*
X98720269Y-76561935D01*
X98722570Y-76549333D01*
X98724807Y-76520916D01*
X98725000Y-76515986D01*
X98725000Y-75899115D01*
X98720525Y-75883876D01*
X98719135Y-75882671D01*
X98711452Y-75881000D01*
X98189115Y-75881000D01*
X98173876Y-75885475D01*
X98172671Y-75886865D01*
X98171000Y-75894548D01*
X98171000Y-77088878D01*
X97663000Y-77088878D01*
X97663000Y-75354885D01*
X98171000Y-75354885D01*
X98175475Y-75370124D01*
X98176865Y-75371329D01*
X98184548Y-75373000D01*
X98706884Y-75373000D01*
X98722123Y-75368525D01*
X98723328Y-75367135D01*
X98724999Y-75359452D01*
X98724999Y-74846885D01*
X108285000Y-74846885D01*
X108289475Y-74862124D01*
X108290865Y-74863329D01*
X108298548Y-74865000D01*
X108820885Y-74865000D01*
X108836124Y-74860525D01*
X108837329Y-74859135D01*
X108839000Y-74851452D01*
X108839000Y-73657122D01*
X108835027Y-73643591D01*
X108827129Y-73642456D01*
X108687210Y-73683107D01*
X108672779Y-73689352D01*
X108543322Y-73765911D01*
X108530896Y-73775551D01*
X108424551Y-73881896D01*
X108414911Y-73894322D01*
X108338352Y-74023779D01*
X108332107Y-74038210D01*
X108289731Y-74184065D01*
X108287430Y-74196667D01*
X108285193Y-74225084D01*
X108285000Y-74230014D01*
X108285000Y-74846885D01*
X98724999Y-74846885D01*
X98724999Y-74738017D01*
X98724805Y-74733080D01*
X98722570Y-74704664D01*
X98720270Y-74692069D01*
X98677893Y-74546210D01*
X98671648Y-74531779D01*
X98595089Y-74402322D01*
X98585449Y-74389896D01*
X98479104Y-74283551D01*
X98466678Y-74273911D01*
X98337221Y-74197352D01*
X98322790Y-74191107D01*
X98188395Y-74152061D01*
X98174294Y-74152101D01*
X98171000Y-74159370D01*
X98171000Y-75354885D01*
X97663000Y-75354885D01*
X97663000Y-74165122D01*
X97659027Y-74151591D01*
X97651129Y-74150456D01*
X97511210Y-74191107D01*
X97496779Y-74197352D01*
X97367324Y-74273910D01*
X97359636Y-74279874D01*
X97293551Y-74305821D01*
X97223928Y-74291920D01*
X97207842Y-74281582D01*
X97203807Y-74277547D01*
X97060601Y-74192855D01*
X97052990Y-74190644D01*
X97052988Y-74190643D01*
X96965142Y-74165122D01*
X96900831Y-74146438D01*
X96894426Y-74145934D01*
X96894421Y-74145933D01*
X96865958Y-74143693D01*
X96865950Y-74143693D01*
X96863502Y-74143500D01*
X96430498Y-74143500D01*
X96428050Y-74143693D01*
X96428042Y-74143693D01*
X96399579Y-74145933D01*
X96399574Y-74145934D01*
X96393169Y-74146438D01*
X96328858Y-74165122D01*
X96241012Y-74190643D01*
X96241010Y-74190644D01*
X96233399Y-74192855D01*
X96090193Y-74277547D01*
X96087511Y-74280229D01*
X96023139Y-74305502D01*
X95953516Y-74291600D01*
X95937688Y-74281428D01*
X95933807Y-74277547D01*
X95790601Y-74192855D01*
X95782990Y-74190644D01*
X95782988Y-74190643D01*
X95695142Y-74165122D01*
X95630831Y-74146438D01*
X95624426Y-74145934D01*
X95624421Y-74145933D01*
X95595958Y-74143693D01*
X95595950Y-74143693D01*
X95593502Y-74143500D01*
X95160498Y-74143500D01*
X95158050Y-74143693D01*
X95158042Y-74143693D01*
X95129579Y-74145933D01*
X95129574Y-74145934D01*
X95123169Y-74146438D01*
X95058858Y-74165122D01*
X94971012Y-74190643D01*
X94971010Y-74190644D01*
X94963399Y-74192855D01*
X94820193Y-74277547D01*
X94817511Y-74280229D01*
X94753139Y-74305502D01*
X94683516Y-74291600D01*
X94667688Y-74281428D01*
X94663807Y-74277547D01*
X94520601Y-74192855D01*
X94512990Y-74190644D01*
X94512988Y-74190643D01*
X94425142Y-74165122D01*
X94360831Y-74146438D01*
X94354426Y-74145934D01*
X94354421Y-74145933D01*
X94325958Y-74143693D01*
X94325950Y-74143693D01*
X94323502Y-74143500D01*
X93890498Y-74143500D01*
X93888050Y-74143693D01*
X93888042Y-74143693D01*
X93859579Y-74145933D01*
X93859574Y-74145934D01*
X93853169Y-74146438D01*
X93788858Y-74165122D01*
X93701012Y-74190643D01*
X93701010Y-74190644D01*
X93693399Y-74192855D01*
X93686572Y-74196892D01*
X93686573Y-74196892D01*
X93557020Y-74273509D01*
X93557017Y-74273511D01*
X93550193Y-74277547D01*
X93432547Y-74395193D01*
X93428511Y-74402017D01*
X93428509Y-74402020D01*
X93416989Y-74421500D01*
X93347855Y-74538399D01*
X93345644Y-74546010D01*
X93345643Y-74546012D01*
X93330472Y-74598231D01*
X93301438Y-74698169D01*
X93300934Y-74704574D01*
X93300933Y-74704579D01*
X93298693Y-74733042D01*
X93298500Y-74735498D01*
X93298500Y-76518502D01*
X92503000Y-76518502D01*
X92503000Y-66121982D01*
X93243142Y-66121982D01*
X93250668Y-66132415D01*
X93396463Y-66249848D01*
X93402648Y-66254244D01*
X93678363Y-66426195D01*
X93685034Y-66429817D01*
X93979414Y-66567402D01*
X93986468Y-66570195D01*
X94295257Y-66671420D01*
X94302570Y-66673339D01*
X94621298Y-66736738D01*
X94628789Y-66737764D01*
X94952823Y-66762413D01*
X94960386Y-66762531D01*
X95285021Y-66748074D01*
X95292562Y-66747282D01*
X95613115Y-66693926D01*
X95620479Y-66692240D01*
X95932315Y-66600757D01*
X95939424Y-66598198D01*
X96238003Y-66469919D01*
X96244770Y-66466515D01*
X96525764Y-66303301D01*
X96532071Y-66299111D01*
X96750005Y-66134588D01*
X96758461Y-66123197D01*
X96751743Y-66110953D01*
X95012812Y-64372022D01*
X94998868Y-64364408D01*
X94997035Y-64364539D01*
X94990420Y-64368790D01*
X93250257Y-66108953D01*
X93243142Y-66121982D01*
X92503000Y-66121982D01*
X92503000Y-65647024D01*
X92523002Y-65578903D01*
X92576658Y-65532410D01*
X92646932Y-65522306D01*
X92711512Y-65551800D01*
X92729163Y-65570582D01*
X92865792Y-65749608D01*
X92877316Y-65758069D01*
X92889382Y-65751408D01*
X94627978Y-64012812D01*
X94635592Y-63998868D01*
X94635461Y-63997035D01*
X94631210Y-63990420D01*
X92890864Y-62250074D01*
X92877929Y-62243011D01*
X92867367Y-62250671D01*
X92741785Y-62408268D01*
X92737427Y-62414469D01*
X92736261Y-62416360D01*
X92735816Y-62416760D01*
X92735245Y-62417573D01*
X92735059Y-62417442D01*
X92683489Y-62463855D01*
X92613418Y-62475279D01*
X92548294Y-62447006D01*
X92508793Y-62388012D01*
X92503000Y-62350246D01*
X92503000Y-61572000D01*
X92523002Y-61503879D01*
X92576658Y-61457386D01*
X92629000Y-61446000D01*
X93440435Y-61446000D01*
X93508556Y-61466002D01*
G37*
%TD.AperFunction*%
%TA.AperFunction,Conductor*%
G36*
X117508556Y-61466002D02*
G01*
X117555049Y-61519658D01*
X117565153Y-61589932D01*
X117535659Y-61654512D01*
X117504858Y-61680285D01*
X117450196Y-61712805D01*
X117443945Y-61717053D01*
X117250733Y-61866115D01*
X117242267Y-61877773D01*
X117248871Y-61889661D01*
X118987188Y-63627978D01*
X119001132Y-63635592D01*
X119002965Y-63635461D01*
X119009580Y-63631210D01*
X120750162Y-61890628D01*
X120757174Y-61877787D01*
X120749379Y-61867098D01*
X120579886Y-61733481D01*
X120573663Y-61729156D01*
X120492326Y-61679605D01*
X120444557Y-61627082D01*
X120432767Y-61557071D01*
X120460699Y-61491800D01*
X120519485Y-61451992D01*
X120557879Y-61446000D01*
X121361000Y-61446000D01*
X121429121Y-61466002D01*
X121475614Y-61519658D01*
X121487000Y-61572000D01*
X121487000Y-62337698D01*
X121466998Y-62405819D01*
X121413342Y-62452312D01*
X121343068Y-62462416D01*
X121278488Y-62432922D01*
X121261643Y-62415184D01*
X121133617Y-62251022D01*
X121121823Y-62242551D01*
X121110113Y-62249097D01*
X119372022Y-63987188D01*
X119364408Y-64001132D01*
X119364539Y-64002965D01*
X119368790Y-64009580D01*
X121108825Y-65749615D01*
X121121948Y-65756781D01*
X121132250Y-65749391D01*
X121241429Y-65615285D01*
X121245838Y-65609149D01*
X121254437Y-65595520D01*
X121307703Y-65548581D01*
X121377891Y-65537891D01*
X121442715Y-65566844D01*
X121481596Y-65626248D01*
X121487000Y-65662754D01*
X121487000Y-86304000D01*
X121466998Y-86372121D01*
X121413342Y-86418614D01*
X121361000Y-86430000D01*
X114847126Y-86430000D01*
X114779005Y-86409998D01*
X114732512Y-86356342D01*
X114722408Y-86286068D01*
X114751902Y-86221488D01*
X114770137Y-86204649D01*
X114771581Y-86203773D01*
X114780005Y-86196333D01*
X114780031Y-86196362D01*
X114782962Y-86193762D01*
X114786316Y-86190958D01*
X114792435Y-86186946D01*
X114845989Y-86130413D01*
X114848366Y-86127972D01*
X117077528Y-83898810D01*
X117091941Y-83886423D01*
X117103665Y-83877795D01*
X117109564Y-83873454D01*
X117143979Y-83832945D01*
X117150909Y-83825429D01*
X117156653Y-83819685D01*
X117158927Y-83816811D01*
X117158933Y-83816804D01*
X117174372Y-83797289D01*
X117177163Y-83793885D01*
X117219945Y-83743528D01*
X117219948Y-83743524D01*
X117224684Y-83737949D01*
X117228012Y-83731432D01*
X117231389Y-83726368D01*
X117234616Y-83721144D01*
X117239160Y-83715400D01*
X117270232Y-83648918D01*
X117272163Y-83644967D01*
X117302213Y-83586117D01*
X117305543Y-83579596D01*
X117307284Y-83572481D01*
X117309421Y-83566735D01*
X117311345Y-83560952D01*
X117314444Y-83554321D01*
X117329394Y-83482443D01*
X117330363Y-83478162D01*
X117346470Y-83412339D01*
X117347804Y-83406888D01*
X117348500Y-83395670D01*
X117348539Y-83395672D01*
X117348772Y-83391771D01*
X117349161Y-83387412D01*
X117350652Y-83380244D01*
X117348546Y-83302423D01*
X117348500Y-83299014D01*
X117348500Y-82234792D01*
X117368502Y-82166671D01*
X117408195Y-82127649D01*
X117415829Y-82122924D01*
X117415830Y-82122923D01*
X117422055Y-82119071D01*
X117541864Y-81999053D01*
X117630849Y-81854692D01*
X117684238Y-81693731D01*
X117694500Y-81593572D01*
X117694500Y-81059428D01*
X117683978Y-80958018D01*
X117630308Y-80797151D01*
X117541071Y-80652945D01*
X117421053Y-80533136D01*
X117396448Y-80517969D01*
X117368161Y-80500533D01*
X117276692Y-80444151D01*
X117269743Y-80441846D01*
X117122262Y-80392928D01*
X117122260Y-80392928D01*
X117115731Y-80390762D01*
X117101344Y-80389288D01*
X117035617Y-80362446D01*
X116994836Y-80304331D01*
X116991948Y-80233393D01*
X117027870Y-80172155D01*
X117091198Y-80140059D01*
X117101186Y-80138617D01*
X117110124Y-80137690D01*
X117110128Y-80137689D01*
X117116982Y-80136978D01*
X117277849Y-80083308D01*
X117422055Y-79994071D01*
X117541864Y-79874053D01*
X117630849Y-79729692D01*
X117684238Y-79568731D01*
X117694500Y-79468572D01*
X117694500Y-78934428D01*
X117683978Y-78833018D01*
X117630308Y-78672151D01*
X117541071Y-78527945D01*
X117421053Y-78408136D01*
X117276692Y-78319151D01*
X117195993Y-78292384D01*
X117122262Y-78267928D01*
X117122260Y-78267928D01*
X117115731Y-78265762D01*
X117015572Y-78255500D01*
X116770528Y-78255500D01*
X116702407Y-78235498D01*
X116681433Y-78218595D01*
X115441310Y-76978472D01*
X115428923Y-76964059D01*
X115420295Y-76952335D01*
X115415954Y-76946436D01*
X115375445Y-76912021D01*
X115367929Y-76905091D01*
X115362185Y-76899347D01*
X115359311Y-76897073D01*
X115359304Y-76897067D01*
X115339789Y-76881628D01*
X115336385Y-76878837D01*
X115286028Y-76836055D01*
X115286024Y-76836052D01*
X115280449Y-76831316D01*
X115273932Y-76827988D01*
X115268868Y-76824611D01*
X115263644Y-76821384D01*
X115257900Y-76816840D01*
X115195297Y-76787581D01*
X115191418Y-76785768D01*
X115187467Y-76783837D01*
X115128617Y-76753787D01*
X115122096Y-76750457D01*
X115114981Y-76748716D01*
X115109235Y-76746579D01*
X115103452Y-76744655D01*
X115096821Y-76741556D01*
X115024943Y-76726606D01*
X115020671Y-76725639D01*
X114949388Y-76708196D01*
X114943789Y-76707849D01*
X114943785Y-76707848D01*
X114938170Y-76707500D01*
X114938172Y-76707461D01*
X114934271Y-76707228D01*
X114929912Y-76706839D01*
X114922744Y-76705348D01*
X114915427Y-76705546D01*
X114844923Y-76707454D01*
X114841514Y-76707500D01*
X113516178Y-76707500D01*
X113448057Y-76687498D01*
X113401564Y-76633842D01*
X113391460Y-76563568D01*
X113420954Y-76498988D01*
X113446785Y-76477432D01*
X113446719Y-76477347D01*
X113449092Y-76475506D01*
X113452039Y-76473047D01*
X113452980Y-76472491D01*
X113452983Y-76472489D01*
X113459807Y-76468453D01*
X113577453Y-76350807D01*
X113581489Y-76343983D01*
X113581491Y-76343980D01*
X113658108Y-76214427D01*
X113662145Y-76207601D01*
X113664415Y-76199790D01*
X113706767Y-76054009D01*
X113708562Y-76047831D01*
X113708565Y-76047794D01*
X113739442Y-75986442D01*
X113800578Y-75950347D01*
X113831474Y-75946500D01*
X114232624Y-75946500D01*
X114251574Y-75947933D01*
X114265973Y-75950124D01*
X114265979Y-75950124D01*
X114273208Y-75951224D01*
X114280500Y-75950631D01*
X114280503Y-75950631D01*
X114326183Y-75946915D01*
X114336398Y-75946500D01*
X114344525Y-75946500D01*
X114348161Y-75946076D01*
X114348163Y-75946076D01*
X114351615Y-75945673D01*
X114372924Y-75943189D01*
X114377244Y-75942762D01*
X114450426Y-75936809D01*
X114457388Y-75934553D01*
X114463376Y-75933357D01*
X114469333Y-75931949D01*
X114476607Y-75931101D01*
X114483489Y-75928603D01*
X114483493Y-75928602D01*
X114545607Y-75906055D01*
X114549711Y-75904645D01*
X114619575Y-75882013D01*
X114625838Y-75878213D01*
X114631380Y-75875675D01*
X114636856Y-75872933D01*
X114643741Y-75870434D01*
X114705132Y-75830185D01*
X114708800Y-75827870D01*
X114771581Y-75789773D01*
X114775786Y-75786059D01*
X114775789Y-75786057D01*
X114780005Y-75782333D01*
X114780031Y-75782362D01*
X114782962Y-75779762D01*
X114786316Y-75776958D01*
X114792435Y-75772946D01*
X114845989Y-75716413D01*
X114848366Y-75713972D01*
X115070001Y-75492337D01*
X115132313Y-75458311D01*
X115194250Y-75460435D01*
X115270606Y-75482619D01*
X115284705Y-75482579D01*
X115288000Y-75475309D01*
X115288000Y-75469558D01*
X115796000Y-75469558D01*
X115799973Y-75483089D01*
X115807871Y-75484224D01*
X115933784Y-75447643D01*
X115948220Y-75441396D01*
X116075499Y-75366124D01*
X116087926Y-75356484D01*
X116192484Y-75251926D01*
X116202124Y-75239499D01*
X116277396Y-75112220D01*
X116283643Y-75097784D01*
X116325312Y-74954359D01*
X116326768Y-74946391D01*
X116323948Y-74932969D01*
X116312487Y-74930000D01*
X115814115Y-74930000D01*
X115798876Y-74934475D01*
X115797671Y-74935865D01*
X115796000Y-74943548D01*
X115796000Y-75469558D01*
X115288000Y-75469558D01*
X115288000Y-75226252D01*
X115295902Y-75182333D01*
X115298215Y-75176114D01*
X115301543Y-75169596D01*
X115303283Y-75162485D01*
X115305418Y-75156744D01*
X115307345Y-75150952D01*
X115310444Y-75144321D01*
X115313741Y-75128471D01*
X115319938Y-75108905D01*
X115321894Y-75105597D01*
X115324104Y-75097989D01*
X115324106Y-75097985D01*
X115365811Y-74954431D01*
X115367606Y-74948254D01*
X115368582Y-74935865D01*
X115370307Y-74913940D01*
X115370307Y-74913932D01*
X115370500Y-74911484D01*
X115370500Y-74440516D01*
X115369043Y-74422000D01*
X115368111Y-74410156D01*
X115368110Y-74410151D01*
X115367617Y-74403885D01*
X115796000Y-74403885D01*
X115800475Y-74419124D01*
X115801865Y-74420329D01*
X115809548Y-74422000D01*
X116310424Y-74422000D01*
X116325219Y-74417656D01*
X116327063Y-74407225D01*
X116325312Y-74397641D01*
X116283643Y-74254216D01*
X116277393Y-74239774D01*
X116272878Y-74232139D01*
X116255418Y-74163323D01*
X116272878Y-74103861D01*
X116277393Y-74096226D01*
X116283643Y-74081784D01*
X116325312Y-73938359D01*
X116326768Y-73930391D01*
X116323948Y-73916969D01*
X116312487Y-73914000D01*
X115814115Y-73914000D01*
X115798876Y-73918475D01*
X115797671Y-73919865D01*
X115796000Y-73927548D01*
X115796000Y-74403885D01*
X115367617Y-74403885D01*
X115367606Y-74403746D01*
X115365813Y-74397574D01*
X115365812Y-74397569D01*
X115349503Y-74341435D01*
X115344500Y-74306282D01*
X115344500Y-74029718D01*
X115349503Y-73994565D01*
X115365812Y-73938431D01*
X115365813Y-73938426D01*
X115367606Y-73932254D01*
X115368253Y-73924043D01*
X115370307Y-73897940D01*
X115370307Y-73897932D01*
X115370500Y-73895484D01*
X115370500Y-73424516D01*
X115369043Y-73406000D01*
X115368111Y-73394156D01*
X115368110Y-73394151D01*
X115367617Y-73387885D01*
X115796000Y-73387885D01*
X115800475Y-73403124D01*
X115801865Y-73404329D01*
X115809548Y-73406000D01*
X116310424Y-73406000D01*
X116325219Y-73401656D01*
X116327063Y-73391225D01*
X116325312Y-73381641D01*
X116283643Y-73238216D01*
X116277396Y-73223780D01*
X116202124Y-73096501D01*
X116192484Y-73084074D01*
X116087926Y-72979516D01*
X116075499Y-72969876D01*
X115948220Y-72894604D01*
X115933784Y-72888357D01*
X115813395Y-72853381D01*
X115799295Y-72853421D01*
X115796000Y-72860691D01*
X115796000Y-73387885D01*
X115367617Y-73387885D01*
X115367606Y-73387746D01*
X115365813Y-73381574D01*
X115365812Y-73381569D01*
X115349503Y-73325435D01*
X115344500Y-73290282D01*
X115344500Y-68167376D01*
X115345933Y-68148426D01*
X115348124Y-68134027D01*
X115348124Y-68134021D01*
X115349224Y-68126792D01*
X115347738Y-68108514D01*
X115344915Y-68073817D01*
X115344500Y-68063602D01*
X115344500Y-68055475D01*
X115341189Y-68027076D01*
X115340760Y-68022736D01*
X115337791Y-67986228D01*
X115334809Y-67949574D01*
X115332553Y-67942612D01*
X115331357Y-67936624D01*
X115329949Y-67930667D01*
X115329101Y-67923393D01*
X115326603Y-67916511D01*
X115326602Y-67916507D01*
X115304055Y-67854393D01*
X115302645Y-67850289D01*
X115280013Y-67780425D01*
X115276213Y-67774162D01*
X115273675Y-67768620D01*
X115270933Y-67763144D01*
X115268434Y-67756259D01*
X115228185Y-67694868D01*
X115225870Y-67691200D01*
X115187773Y-67628419D01*
X115182478Y-67622423D01*
X115180333Y-67619995D01*
X115180362Y-67619969D01*
X115177762Y-67617038D01*
X115174958Y-67613684D01*
X115170946Y-67607565D01*
X115114413Y-67554011D01*
X115111972Y-67551634D01*
X113682320Y-66121982D01*
X117243142Y-66121982D01*
X117250668Y-66132415D01*
X117396463Y-66249848D01*
X117402648Y-66254244D01*
X117678363Y-66426195D01*
X117685034Y-66429817D01*
X117979414Y-66567402D01*
X117986468Y-66570195D01*
X118295257Y-66671420D01*
X118302570Y-66673339D01*
X118621298Y-66736738D01*
X118628789Y-66737764D01*
X118952823Y-66762413D01*
X118960386Y-66762531D01*
X119285021Y-66748074D01*
X119292562Y-66747282D01*
X119613115Y-66693926D01*
X119620479Y-66692240D01*
X119932315Y-66600757D01*
X119939424Y-66598198D01*
X120238003Y-66469919D01*
X120244770Y-66466515D01*
X120525764Y-66303301D01*
X120532071Y-66299111D01*
X120750005Y-66134588D01*
X120758461Y-66123197D01*
X120751743Y-66110953D01*
X119012812Y-64372022D01*
X118998868Y-64364408D01*
X118997035Y-64364539D01*
X118990420Y-64368790D01*
X117250257Y-66108953D01*
X117243142Y-66121982D01*
X113682320Y-66121982D01*
X112556766Y-64996428D01*
X112522740Y-64934116D01*
X112527805Y-64863301D01*
X112570352Y-64806465D01*
X112632690Y-64782023D01*
X112703683Y-64774561D01*
X112703684Y-64774561D01*
X112710247Y-64773871D01*
X112716525Y-64771831D01*
X112716526Y-64771831D01*
X112844979Y-64730094D01*
X112887876Y-64716156D01*
X113029162Y-64634585D01*
X113043903Y-64626074D01*
X113049624Y-64622771D01*
X113054532Y-64618352D01*
X113183518Y-64502212D01*
X113183519Y-64502210D01*
X113188421Y-64497797D01*
X113226127Y-64445900D01*
X113294321Y-64352039D01*
X113294322Y-64352038D01*
X113298202Y-64346697D01*
X113315904Y-64306939D01*
X113371483Y-64182105D01*
X113371483Y-64182104D01*
X113374168Y-64176074D01*
X113400060Y-64054261D01*
X113411628Y-63999842D01*
X113411628Y-63999837D01*
X113413000Y-63993385D01*
X113413000Y-63974858D01*
X116237299Y-63974858D01*
X116253456Y-64299410D01*
X116254287Y-64306939D01*
X116309318Y-64627198D01*
X116311051Y-64634585D01*
X116404156Y-64945909D01*
X116406759Y-64953022D01*
X116536595Y-65250913D01*
X116540037Y-65257669D01*
X116704720Y-65537803D01*
X116708943Y-65544088D01*
X116865792Y-65749608D01*
X116877316Y-65758069D01*
X116889382Y-65751408D01*
X118627978Y-64012812D01*
X118635592Y-63998868D01*
X118635461Y-63997035D01*
X118631210Y-63990420D01*
X116890864Y-62250074D01*
X116877929Y-62243011D01*
X116867367Y-62250671D01*
X116741785Y-62408268D01*
X116737428Y-62414467D01*
X116566913Y-62691094D01*
X116563333Y-62697770D01*
X116427287Y-62992878D01*
X116424537Y-62999929D01*
X116324927Y-63309251D01*
X116323044Y-63316584D01*
X116261316Y-63635632D01*
X116260329Y-63643132D01*
X116237378Y-63967277D01*
X116237299Y-63974858D01*
X113413000Y-63974858D01*
X113413000Y-63806615D01*
X113374168Y-63623926D01*
X113355399Y-63581770D01*
X113300887Y-63459333D01*
X113300886Y-63459331D01*
X113298202Y-63453303D01*
X113188421Y-63302203D01*
X113103871Y-63226073D01*
X113054532Y-63181648D01*
X113054531Y-63181647D01*
X113049624Y-63177229D01*
X112887876Y-63083844D01*
X112781366Y-63049237D01*
X112716526Y-63028169D01*
X112716525Y-63028169D01*
X112710247Y-63026129D01*
X112703684Y-63025439D01*
X112703683Y-63025439D01*
X112680903Y-63023045D01*
X112571063Y-63011500D01*
X112477937Y-63011500D01*
X112368097Y-63023045D01*
X112345317Y-63025439D01*
X112345316Y-63025439D01*
X112338753Y-63026129D01*
X112332475Y-63028169D01*
X112332474Y-63028169D01*
X112267634Y-63049237D01*
X112161124Y-63083844D01*
X111999376Y-63177229D01*
X111994469Y-63181647D01*
X111994468Y-63181648D01*
X111945130Y-63226073D01*
X111860579Y-63302203D01*
X111750798Y-63453303D01*
X111748114Y-63459331D01*
X111748113Y-63459333D01*
X111693601Y-63581770D01*
X111674832Y-63623926D01*
X111636000Y-63806615D01*
X111636000Y-63993385D01*
X111637372Y-63999837D01*
X111637372Y-63999842D01*
X111660385Y-64108109D01*
X111654983Y-64178900D01*
X111612166Y-64235533D01*
X111540546Y-64260260D01*
X111507613Y-64261151D01*
X111496422Y-64261454D01*
X111493014Y-64261500D01*
X105476762Y-64261500D01*
X105408641Y-64241498D01*
X105362148Y-64187842D01*
X105351452Y-64148671D01*
X105334572Y-63988073D01*
X105334572Y-63988072D01*
X105333882Y-63981509D01*
X105280572Y-63817436D01*
X105280572Y-63739564D01*
X105331842Y-63581770D01*
X105331842Y-63581769D01*
X105333882Y-63575491D01*
X105352590Y-63397500D01*
X105343541Y-63311404D01*
X105334572Y-63226073D01*
X105334572Y-63226072D01*
X105333882Y-63219509D01*
X105321580Y-63181648D01*
X105280572Y-63055436D01*
X105280572Y-62977564D01*
X105331842Y-62819770D01*
X105331842Y-62819769D01*
X105333882Y-62813491D01*
X105336076Y-62792622D01*
X105351900Y-62642065D01*
X105352590Y-62635500D01*
X105333882Y-62457509D01*
X105330470Y-62447006D01*
X105280619Y-62293582D01*
X105278577Y-62287297D01*
X105189091Y-62132303D01*
X105069336Y-61999301D01*
X104924545Y-61894104D01*
X104918517Y-61891420D01*
X104918515Y-61891419D01*
X104767077Y-61823995D01*
X104767076Y-61823995D01*
X104761046Y-61821310D01*
X104647847Y-61797249D01*
X104592442Y-61785472D01*
X104592440Y-61785472D01*
X104585986Y-61784100D01*
X104582459Y-61784100D01*
X104513609Y-61753876D01*
X104512094Y-61752361D01*
X104508959Y-61749930D01*
X104508952Y-61749923D01*
X104508874Y-61749863D01*
X104499849Y-61742155D01*
X104473285Y-61717210D01*
X104467506Y-61711783D01*
X104449669Y-61701977D01*
X104433153Y-61691127D01*
X104417067Y-61678650D01*
X104416083Y-61678224D01*
X104369712Y-61628563D01*
X104357006Y-61558712D01*
X104384080Y-61493081D01*
X104442340Y-61452506D01*
X104482303Y-61446000D01*
X117440435Y-61446000D01*
X117508556Y-61466002D01*
G37*
%TD.AperFunction*%
%TA.AperFunction,Conductor*%
G36*
X109081815Y-78252502D02*
G01*
X109120838Y-78292197D01*
X109137518Y-78319151D01*
X109199522Y-78419348D01*
X109324697Y-78544305D01*
X109330927Y-78548145D01*
X109330928Y-78548146D01*
X109468090Y-78632694D01*
X109475262Y-78637115D01*
X109555005Y-78663564D01*
X109636611Y-78690632D01*
X109636613Y-78690632D01*
X109643139Y-78692797D01*
X109649975Y-78693497D01*
X109649978Y-78693498D01*
X109693031Y-78697909D01*
X109747600Y-78703500D01*
X110348400Y-78703500D01*
X110351646Y-78703163D01*
X110351650Y-78703163D01*
X110447308Y-78693238D01*
X110447312Y-78693237D01*
X110454166Y-78692526D01*
X110460702Y-78690345D01*
X110460704Y-78690345D01*
X110592806Y-78646272D01*
X110621946Y-78636550D01*
X110772348Y-78543478D01*
X110897305Y-78418303D01*
X110899906Y-78414084D01*
X110957030Y-78373583D01*
X111027953Y-78370351D01*
X111089365Y-78405976D01*
X111095922Y-78413530D01*
X111099522Y-78419348D01*
X111224697Y-78544305D01*
X111230927Y-78548145D01*
X111230928Y-78548146D01*
X111368090Y-78632694D01*
X111375262Y-78637115D01*
X111455005Y-78663564D01*
X111536611Y-78690632D01*
X111536613Y-78690632D01*
X111543139Y-78692797D01*
X111549975Y-78693497D01*
X111549978Y-78693498D01*
X111593031Y-78697909D01*
X111647600Y-78703500D01*
X112248400Y-78703500D01*
X112251646Y-78703163D01*
X112251650Y-78703163D01*
X112347308Y-78693238D01*
X112347312Y-78693237D01*
X112354166Y-78692526D01*
X112360702Y-78690345D01*
X112360704Y-78690345D01*
X112492806Y-78646272D01*
X112521946Y-78636550D01*
X112672348Y-78543478D01*
X112797305Y-78418303D01*
X112858424Y-78319151D01*
X112874923Y-78292384D01*
X112927695Y-78244891D01*
X112982183Y-78232500D01*
X114486472Y-78232500D01*
X114554593Y-78252502D01*
X114575567Y-78269405D01*
X115440595Y-79134433D01*
X115474621Y-79196745D01*
X115477500Y-79223528D01*
X115477500Y-79468572D01*
X115477837Y-79471818D01*
X115477837Y-79471822D01*
X115481182Y-79504059D01*
X115488022Y-79569982D01*
X115541692Y-79730849D01*
X115630929Y-79875055D01*
X115750947Y-79994864D01*
X115895308Y-80083849D01*
X115902256Y-80086154D01*
X115902257Y-80086154D01*
X116049738Y-80135072D01*
X116049740Y-80135072D01*
X116056269Y-80137238D01*
X116070656Y-80138712D01*
X116136383Y-80165554D01*
X116177164Y-80223669D01*
X116180052Y-80294607D01*
X116144130Y-80355845D01*
X116080802Y-80387941D01*
X116070814Y-80389383D01*
X116061876Y-80390310D01*
X116061872Y-80390311D01*
X116055018Y-80391022D01*
X115894151Y-80444692D01*
X115749945Y-80533929D01*
X115630136Y-80653947D01*
X115541151Y-80798308D01*
X115538846Y-80805256D01*
X115538846Y-80805257D01*
X115499819Y-80922920D01*
X115487762Y-80959269D01*
X115477500Y-81059428D01*
X115477500Y-81593572D01*
X115488022Y-81694982D01*
X115541692Y-81855849D01*
X115630929Y-82000055D01*
X115750947Y-82119864D01*
X115763563Y-82127641D01*
X115763614Y-82127672D01*
X115811108Y-82180443D01*
X115823500Y-82234933D01*
X115823500Y-82943973D01*
X115803498Y-83012094D01*
X115786595Y-83033068D01*
X114021067Y-84798595D01*
X113958755Y-84832621D01*
X113931972Y-84835500D01*
X110604028Y-84835500D01*
X110535907Y-84815498D01*
X110514933Y-84798595D01*
X110301405Y-84585067D01*
X110267379Y-84522755D01*
X110264500Y-84495972D01*
X110264500Y-84411615D01*
X110284502Y-84343494D01*
X110324197Y-84304471D01*
X110505064Y-84192547D01*
X110505066Y-84192545D01*
X110509047Y-84190082D01*
X110607428Y-84106797D01*
X110699289Y-84029031D01*
X110699291Y-84029029D01*
X110702862Y-84026006D01*
X110870295Y-83835084D01*
X110874177Y-83829050D01*
X111005141Y-83625442D01*
X111007669Y-83621512D01*
X111111967Y-83389980D01*
X111130528Y-83324167D01*
X111168269Y-83264033D01*
X111232530Y-83233850D01*
X111302909Y-83243200D01*
X111357059Y-83289116D01*
X111370385Y-83315789D01*
X111436831Y-83500858D01*
X111557025Y-83724551D01*
X111559820Y-83728294D01*
X111559822Y-83728297D01*
X111706171Y-83924282D01*
X111706176Y-83924288D01*
X111708963Y-83928020D01*
X111712272Y-83931300D01*
X111712277Y-83931306D01*
X111810859Y-84029031D01*
X111889307Y-84106797D01*
X111893069Y-84109555D01*
X111893072Y-84109558D01*
X111998764Y-84187054D01*
X112094094Y-84256953D01*
X112098229Y-84259129D01*
X112098233Y-84259131D01*
X112216289Y-84321243D01*
X112318827Y-84375191D01*
X112558568Y-84458912D01*
X112808050Y-84506278D01*
X112928532Y-84511011D01*
X113057125Y-84516064D01*
X113057130Y-84516064D01*
X113061793Y-84516247D01*
X113160774Y-84505407D01*
X113309569Y-84489112D01*
X113309575Y-84489111D01*
X113314222Y-84488602D01*
X113423680Y-84459784D01*
X113555273Y-84425138D01*
X113559793Y-84423948D01*
X113737851Y-84347449D01*
X113788807Y-84325557D01*
X113788810Y-84325555D01*
X113793110Y-84323708D01*
X113797090Y-84321245D01*
X113797094Y-84321243D01*
X114005064Y-84192547D01*
X114005066Y-84192545D01*
X114009047Y-84190082D01*
X114107428Y-84106797D01*
X114199289Y-84029031D01*
X114199291Y-84029029D01*
X114202862Y-84026006D01*
X114370295Y-83835084D01*
X114374177Y-83829050D01*
X114505141Y-83625442D01*
X114507669Y-83621512D01*
X114611967Y-83389980D01*
X114680896Y-83145575D01*
X114712943Y-82893667D01*
X114715291Y-82804000D01*
X114696472Y-82550759D01*
X114640428Y-82303082D01*
X114634460Y-82287735D01*
X114550084Y-82070762D01*
X114550083Y-82070760D01*
X114548391Y-82066409D01*
X114527866Y-82030498D01*
X114424702Y-81849997D01*
X114424700Y-81849995D01*
X114422383Y-81845940D01*
X114265171Y-81646517D01*
X114080209Y-81472523D01*
X113927771Y-81366773D01*
X113875393Y-81330437D01*
X113875390Y-81330435D01*
X113871561Y-81327779D01*
X113834771Y-81309636D01*
X113782522Y-81261567D01*
X113764500Y-81196630D01*
X113764500Y-81065376D01*
X113765933Y-81046426D01*
X113768124Y-81032027D01*
X113768124Y-81032021D01*
X113769224Y-81024792D01*
X113764915Y-80971817D01*
X113764500Y-80961602D01*
X113764500Y-80953475D01*
X113761189Y-80925076D01*
X113760760Y-80920736D01*
X113755402Y-80854867D01*
X113754809Y-80847574D01*
X113752553Y-80840612D01*
X113751357Y-80834624D01*
X113749949Y-80828667D01*
X113749101Y-80821393D01*
X113746603Y-80814511D01*
X113746602Y-80814507D01*
X113724055Y-80752393D01*
X113722645Y-80748289D01*
X113700013Y-80678425D01*
X113696213Y-80672162D01*
X113693675Y-80666620D01*
X113690933Y-80661144D01*
X113688434Y-80654259D01*
X113648185Y-80592868D01*
X113645870Y-80589200D01*
X113607773Y-80526419D01*
X113600333Y-80517995D01*
X113600362Y-80517969D01*
X113597762Y-80515038D01*
X113594958Y-80511684D01*
X113590946Y-80505565D01*
X113534413Y-80452011D01*
X113531972Y-80449634D01*
X112600810Y-79518472D01*
X112588423Y-79504059D01*
X112579795Y-79492335D01*
X112575454Y-79486436D01*
X112534945Y-79452021D01*
X112527429Y-79445091D01*
X112521685Y-79439347D01*
X112518811Y-79437073D01*
X112518804Y-79437067D01*
X112499289Y-79421628D01*
X112495885Y-79418837D01*
X112445528Y-79376055D01*
X112445524Y-79376052D01*
X112439949Y-79371316D01*
X112433432Y-79367988D01*
X112428368Y-79364611D01*
X112423144Y-79361384D01*
X112417400Y-79356840D01*
X112391109Y-79344552D01*
X112350918Y-79325768D01*
X112346967Y-79323837D01*
X112288117Y-79293787D01*
X112281596Y-79290457D01*
X112274481Y-79288716D01*
X112268735Y-79286579D01*
X112262952Y-79284655D01*
X112256321Y-79281556D01*
X112184443Y-79266606D01*
X112180171Y-79265639D01*
X112108888Y-79248196D01*
X112103289Y-79247849D01*
X112103285Y-79247848D01*
X112097670Y-79247500D01*
X112097672Y-79247461D01*
X112093771Y-79247228D01*
X112089412Y-79246839D01*
X112082244Y-79245348D01*
X112074927Y-79245546D01*
X112004423Y-79247454D01*
X112001014Y-79247500D01*
X107301868Y-79247500D01*
X107282920Y-79246067D01*
X107277546Y-79245250D01*
X107268525Y-79243877D01*
X107268522Y-79243877D01*
X107261292Y-79242777D01*
X107254129Y-79243360D01*
X107186799Y-79221012D01*
X107142205Y-79165768D01*
X107134558Y-79095184D01*
X107169479Y-79028359D01*
X107928433Y-78269405D01*
X107990745Y-78235379D01*
X108017528Y-78232500D01*
X109013694Y-78232500D01*
X109081815Y-78252502D01*
G37*
%TD.AperFunction*%
%TA.AperFunction,Conductor*%
G36*
X107721696Y-67623894D02*
G01*
X107854057Y-67652028D01*
X107854061Y-67652028D01*
X107860514Y-67653400D01*
X107863653Y-67653400D01*
X107928122Y-67679921D01*
X107938394Y-67689126D01*
X108764871Y-68515603D01*
X108798897Y-68577915D01*
X108793832Y-68648730D01*
X108751285Y-68705566D01*
X108710928Y-68725695D01*
X108679399Y-68734855D01*
X108672575Y-68738891D01*
X108672573Y-68738892D01*
X108543020Y-68815509D01*
X108543017Y-68815511D01*
X108536193Y-68819547D01*
X108418547Y-68937193D01*
X108414511Y-68944017D01*
X108414509Y-68944020D01*
X108392569Y-68981119D01*
X108333855Y-69080399D01*
X108287438Y-69240169D01*
X108286934Y-69246574D01*
X108286933Y-69246579D01*
X108284693Y-69275042D01*
X108284500Y-69277498D01*
X108284500Y-71060502D01*
X108287438Y-71097831D01*
X108333855Y-71257601D01*
X108337892Y-71264427D01*
X108414509Y-71393980D01*
X108414511Y-71393982D01*
X108418547Y-71400807D01*
X108536193Y-71518453D01*
X108543017Y-71522489D01*
X108543020Y-71522491D01*
X108587811Y-71548980D01*
X108679399Y-71603145D01*
X108687010Y-71605356D01*
X108687012Y-71605357D01*
X108739231Y-71620528D01*
X108839169Y-71649562D01*
X108845574Y-71650066D01*
X108845579Y-71650067D01*
X108874042Y-71652307D01*
X108874050Y-71652307D01*
X108876498Y-71652500D01*
X109309502Y-71652500D01*
X109311950Y-71652307D01*
X109311958Y-71652307D01*
X109340421Y-71650067D01*
X109340426Y-71650066D01*
X109346831Y-71649562D01*
X109446769Y-71620528D01*
X109498988Y-71605357D01*
X109498990Y-71605356D01*
X109506601Y-71603145D01*
X109649807Y-71518453D01*
X109652489Y-71515771D01*
X109716861Y-71490498D01*
X109786484Y-71504400D01*
X109802312Y-71514572D01*
X109806193Y-71518453D01*
X109949399Y-71603145D01*
X109957010Y-71605356D01*
X109957012Y-71605357D01*
X110009231Y-71620528D01*
X110109169Y-71649562D01*
X110115574Y-71650066D01*
X110115579Y-71650067D01*
X110144042Y-71652307D01*
X110144050Y-71652307D01*
X110146498Y-71652500D01*
X110579502Y-71652500D01*
X110581950Y-71652307D01*
X110581958Y-71652307D01*
X110610421Y-71650067D01*
X110610426Y-71650066D01*
X110616831Y-71649562D01*
X110716769Y-71620528D01*
X110768988Y-71605357D01*
X110768990Y-71605356D01*
X110776601Y-71603145D01*
X110919807Y-71518453D01*
X110922489Y-71515771D01*
X110986861Y-71490498D01*
X111056484Y-71504400D01*
X111072312Y-71514572D01*
X111076193Y-71518453D01*
X111219399Y-71603145D01*
X111227010Y-71605356D01*
X111227012Y-71605357D01*
X111279231Y-71620528D01*
X111379169Y-71649562D01*
X111385574Y-71650066D01*
X111385579Y-71650067D01*
X111414042Y-71652307D01*
X111414050Y-71652307D01*
X111416498Y-71652500D01*
X111802576Y-71652500D01*
X111870697Y-71672502D01*
X111917190Y-71726158D01*
X111927294Y-71796432D01*
X111897800Y-71861012D01*
X111891671Y-71867595D01*
X111787671Y-71971595D01*
X111725359Y-72005621D01*
X111698576Y-72008500D01*
X108265423Y-72008500D01*
X108197302Y-71988498D01*
X108176328Y-71971595D01*
X107606404Y-71401671D01*
X107572379Y-71339359D01*
X107569500Y-71312576D01*
X107569500Y-67747141D01*
X107589502Y-67679020D01*
X107643158Y-67632527D01*
X107713432Y-67622423D01*
X107721696Y-67623894D01*
G37*
%TD.AperFunction*%
%TA.AperFunction,Conductor*%
G36*
X111206093Y-65806502D02*
G01*
X111227067Y-65823405D01*
X113782595Y-68378933D01*
X113816621Y-68441245D01*
X113819500Y-68468028D01*
X113819500Y-68885895D01*
X113799498Y-68954016D01*
X113745842Y-69000509D01*
X113675568Y-69010613D01*
X113610988Y-68981119D01*
X113585048Y-68950035D01*
X113577453Y-68937193D01*
X113459807Y-68819547D01*
X113452983Y-68815511D01*
X113452980Y-68815509D01*
X113323427Y-68738892D01*
X113323425Y-68738891D01*
X113316601Y-68734855D01*
X113308990Y-68732644D01*
X113308988Y-68732643D01*
X113252503Y-68716233D01*
X113156831Y-68688438D01*
X113150426Y-68687934D01*
X113150421Y-68687933D01*
X113121958Y-68685693D01*
X113121950Y-68685693D01*
X113119502Y-68685500D01*
X112686498Y-68685500D01*
X112684050Y-68685693D01*
X112684042Y-68685693D01*
X112655579Y-68687933D01*
X112655574Y-68687934D01*
X112649169Y-68688438D01*
X112553497Y-68716233D01*
X112497012Y-68732643D01*
X112497010Y-68732644D01*
X112489399Y-68734855D01*
X112482575Y-68738891D01*
X112458638Y-68753047D01*
X112389822Y-68770506D01*
X112322491Y-68747989D01*
X112278022Y-68692644D01*
X112268500Y-68644593D01*
X112268500Y-68532032D01*
X112269030Y-68520793D01*
X112270709Y-68513281D01*
X112268562Y-68444969D01*
X112268500Y-68441012D01*
X112268500Y-68413017D01*
X112267992Y-68408994D01*
X112267059Y-68397152D01*
X112266487Y-68378933D01*
X112265665Y-68352795D01*
X112259987Y-68333251D01*
X112255977Y-68313888D01*
X112254420Y-68301560D01*
X112254420Y-68301558D01*
X112253427Y-68293701D01*
X112250511Y-68286337D01*
X112250510Y-68286332D01*
X112237093Y-68252444D01*
X112233248Y-68241215D01*
X112223080Y-68206219D01*
X112220869Y-68198607D01*
X112210510Y-68181091D01*
X112201813Y-68163341D01*
X112194319Y-68144412D01*
X112168238Y-68108514D01*
X112161722Y-68098594D01*
X112143173Y-68067229D01*
X112143171Y-68067226D01*
X112139135Y-68060402D01*
X112124747Y-68046014D01*
X112111906Y-68030980D01*
X112104602Y-68020927D01*
X112099942Y-68014513D01*
X112065750Y-67986227D01*
X112056971Y-67978238D01*
X110864633Y-66785900D01*
X110830607Y-66723588D01*
X110828418Y-66709976D01*
X110820072Y-66630573D01*
X110820072Y-66630572D01*
X110819382Y-66624009D01*
X110810937Y-66598016D01*
X110766119Y-66460082D01*
X110764077Y-66453797D01*
X110674591Y-66298803D01*
X110554836Y-66165801D01*
X110531829Y-66149085D01*
X110415387Y-66064485D01*
X110415386Y-66064484D01*
X110410045Y-66060604D01*
X110404017Y-66057920D01*
X110404015Y-66057919D01*
X110335932Y-66027607D01*
X110281837Y-65981627D01*
X110261187Y-65913700D01*
X110280539Y-65845392D01*
X110333750Y-65798390D01*
X110387181Y-65786500D01*
X111137972Y-65786500D01*
X111206093Y-65806502D01*
G37*
%TD.AperFunction*%
%TD*%
M02*
