M48
; DRILL file {KiCad (6.0.0-0)} date Friday, March 04, 2022 at 10:18:36 PM
; FORMAT={-:-/ absolute / inch / decimal}
; #@! TF.CreationDate,2022-03-04T22:18:36-05:00
; #@! TF.GenerationSoftware,Kicad,Pcbnew,(6.0.0-0)
; #@! TF.FileFunction,Plated,1,4,PTH
FMAT,2
INCH
; #@! TA.AperFunction,Plated,PTH,ViaDrill
T1C0.0130
; #@! TA.AperFunction,Plated,PTH,ComponentDrill
T2C0.0472
; #@! TA.AperFunction,Plated,PTH,ComponentDrill
T3C0.1181
%
G90
G05
T1
X3.73Y-2.88
X3.78Y-2.88
X3.83Y-2.88
X3.89Y-2.77
X4.02Y-2.71
X4.08Y-3.16
X4.095Y-2.59
X4.095Y-2.625
X4.095Y-2.66
X4.114Y-2.466
X4.114Y-2.496
X4.114Y-2.526
X4.15Y-2.73
X4.15Y-2.79
X4.21Y-2.63
X4.22Y-3.02
X4.24Y-2.73
X4.24Y-2.79
X4.24Y-3.33
X4.25Y-2.63
X4.26Y-3.1
X4.27Y-2.89
X4.33Y-2.63
X4.33Y-2.83
X4.36Y-2.89
X4.38Y-3.2
X4.38Y-3.33
X4.39Y-2.83
X4.44Y-2.69
X4.45Y-2.89
X4.5Y-3.1
X4.5Y-3.16
X4.53Y-3.02
X4.59Y-2.67
X4.59Y-2.76
X4.59Y-2.84
T2
X4.3111Y-3.26
X4.4489Y-3.26
T3
X3.7402Y-2.5197
X4.685Y-2.5197
T0
M30
