M48
; DRILL file {KiCad (6.0.0-0)} date Wednesday, July 13, 2022 at 03:20:42 PM
; FORMAT={-:-/ absolute / inch / decimal}
; #@! TF.CreationDate,2022-07-13T15:20:42-04:00
; #@! TF.GenerationSoftware,Kicad,Pcbnew,(6.0.0-0)
; #@! TF.FileFunction,Plated,1,4,PTH
FMAT,2
INCH
; #@! TA.AperFunction,Plated,PTH,ViaDrill
T1C0.0130
; #@! TA.AperFunction,Plated,PTH,ComponentDrill
T2C0.0157
; #@! TA.AperFunction,Plated,PTH,ComponentDrill
T3C0.1181
%
G90
G05
T1
X3.68Y-2.89
X3.68Y-3.04
X3.68Y-3.15
X3.68Y-3.27
X3.68Y-3.39
X3.73Y-2.89
X3.78Y-2.89
X3.8Y-3.39
X3.83Y-2.89
X3.89Y-2.77
X3.92Y-3.39
X3.93Y-2.82
X4.02Y-2.71
X4.04Y-3.39
X4.095Y-2.59
X4.095Y-2.625
X4.095Y-2.66
X4.114Y-2.466
X4.114Y-2.496
X4.16Y-3.39
X4.17Y-2.75
X4.17Y-2.81
X4.17Y-2.87
X4.17Y-2.93
X4.17Y-2.99
X4.17Y-3.05
X4.21Y-3.14
X4.23Y-3.26
X4.2323Y-2.4764
X4.2323Y-2.5157
X4.28Y-3.39
X4.29Y-2.75
X4.29Y-2.81
X4.29Y-2.87
X4.29Y-2.93
X4.29Y-2.99
X4.29Y-3.05
X4.33Y-3.11
X4.37Y-3.18
X4.37Y-3.25
X4.4Y-3.39
X4.52Y-3.39
X4.64Y-3.39
X4.76Y-2.67
X4.76Y-2.79
X4.76Y-2.91
X4.76Y-3.03
X4.76Y-3.15
X4.76Y-3.27
X4.76Y-3.39
T3
X3.7402Y-2.5197
X4.685Y-2.5197
T2
G00X4.3447Y-3.3007
M15
G01X4.3093Y-3.3007
M16
G05
G00X4.4353Y-3.3007
M15
G01X4.3998Y-3.3007
M16
G05
T0
M30
