%TF.GenerationSoftware,KiCad,Pcbnew,(6.0.0-0)*%
%TF.CreationDate,2022-03-05T22:15:36-05:00*%
%TF.ProjectId,imu,696d752e-6b69-4636-9164-5f7063625858,rev?*%
%TF.SameCoordinates,Original*%
%TF.FileFunction,Copper,L1,Top*%
%TF.FilePolarity,Positive*%
%FSLAX46Y46*%
G04 Gerber Fmt 4.6, Leading zero omitted, Abs format (unit mm)*
G04 Created by KiCad (PCBNEW (6.0.0-0)) date 2022-03-05 22:15:36*
%MOMM*%
%LPD*%
G01*
G04 APERTURE LIST*
G04 Aperture macros list*
%AMRoundRect*
0 Rectangle with rounded corners*
0 $1 Rounding radius*
0 $2 $3 $4 $5 $6 $7 $8 $9 X,Y pos of 4 corners*
0 Add a 4 corners polygon primitive as box body*
4,1,4,$2,$3,$4,$5,$6,$7,$8,$9,$2,$3,0*
0 Add four circle primitives for the rounded corners*
1,1,$1+$1,$2,$3*
1,1,$1+$1,$4,$5*
1,1,$1+$1,$6,$7*
1,1,$1+$1,$8,$9*
0 Add four rect primitives between the rounded corners*
20,1,$1+$1,$2,$3,$4,$5,0*
20,1,$1+$1,$4,$5,$6,$7,0*
20,1,$1+$1,$6,$7,$8,$9,0*
20,1,$1+$1,$8,$9,$2,$3,0*%
G04 Aperture macros list end*
%TA.AperFunction,ComponentPad*%
%ADD10C,4.500000*%
%TD*%
%TA.AperFunction,SMDPad,CuDef*%
%ADD11RoundRect,0.140000X-0.140000X-0.170000X0.140000X-0.170000X0.140000X0.170000X-0.140000X0.170000X0*%
%TD*%
%TA.AperFunction,SMDPad,CuDef*%
%ADD12RoundRect,0.140000X0.140000X0.170000X-0.140000X0.170000X-0.140000X-0.170000X0.140000X-0.170000X0*%
%TD*%
%TA.AperFunction,SMDPad,CuDef*%
%ADD13RoundRect,0.135000X0.135000X0.185000X-0.135000X0.185000X-0.135000X-0.185000X0.135000X-0.185000X0*%
%TD*%
%TA.AperFunction,SMDPad,CuDef*%
%ADD14RoundRect,0.140000X0.170000X-0.140000X0.170000X0.140000X-0.170000X0.140000X-0.170000X-0.140000X0*%
%TD*%
%TA.AperFunction,SMDPad,CuDef*%
%ADD15RoundRect,0.070000X-0.330000X0.070000X-0.330000X-0.070000X0.330000X-0.070000X0.330000X0.070000X0*%
%TD*%
%TA.AperFunction,SMDPad,CuDef*%
%ADD16RoundRect,0.070000X-0.070000X-0.330000X0.070000X-0.330000X0.070000X0.330000X-0.070000X0.330000X0*%
%TD*%
%TA.AperFunction,SMDPad,CuDef*%
%ADD17RoundRect,0.070000X0.070000X0.330000X-0.070000X0.330000X-0.070000X-0.330000X0.070000X-0.330000X0*%
%TD*%
%TA.AperFunction,SMDPad,CuDef*%
%ADD18R,2.700000X2.700000*%
%TD*%
%TA.AperFunction,SMDPad,CuDef*%
%ADD19RoundRect,0.150000X0.150000X-0.825000X0.150000X0.825000X-0.150000X0.825000X-0.150000X-0.825000X0*%
%TD*%
%TA.AperFunction,SMDPad,CuDef*%
%ADD20RoundRect,0.218750X-0.256250X0.218750X-0.256250X-0.218750X0.256250X-0.218750X0.256250X0.218750X0*%
%TD*%
%TA.AperFunction,ViaPad*%
%ADD21C,0.685800*%
%TD*%
%TA.AperFunction,Conductor*%
%ADD22C,0.254000*%
%TD*%
G04 APERTURE END LIST*
D10*
%TO.P,H1,1,1*%
%TO.N,GND*%
X95000000Y-64000000D03*
%TD*%
%TO.P,H2,1,1*%
%TO.N,GND*%
X119000000Y-64000000D03*
%TD*%
D11*
%TO.P,C5,1*%
%TO.N,Net-(C5-Pad1)*%
X107978000Y-72136000D03*
%TO.P,C5,2*%
%TO.N,GND*%
X108938000Y-72136000D03*
%TD*%
D12*
%TO.P,C1,1*%
%TO.N,/3V3*%
X105890000Y-78740000D03*
%TO.P,C1,2*%
%TO.N,GND*%
X104930000Y-78740000D03*
%TD*%
D13*
%TO.P,R3,1*%
%TO.N,/3V3*%
X99062000Y-63754000D03*
%TO.P,R3,2*%
%TO.N,Net-(D1-Pad2)*%
X98042000Y-63754000D03*
%TD*%
D14*
%TO.P,C2,1*%
%TO.N,/3V3*%
X111808000Y-76680000D03*
%TO.P,C2,2*%
%TO.N,GND*%
X111808000Y-75720000D03*
%TD*%
D15*
%TO.P,U1,1,CLKIN*%
%TO.N,GND*%
X104934000Y-74188000D03*
%TO.P,U1,2*%
%TO.N,N/C*%
X104934000Y-74688000D03*
%TO.P,U1,3*%
X104934000Y-75188000D03*
%TO.P,U1,4*%
X104934000Y-75688000D03*
%TO.P,U1,5*%
X104934000Y-76188000D03*
%TO.P,U1,6,AUX_SDA*%
%TO.N,unconnected-(U1-Pad6)*%
X104934000Y-76688000D03*
D16*
%TO.P,U1,7,AUX_SCL*%
%TO.N,unconnected-(U1-Pad7)*%
X105684000Y-77438000D03*
%TO.P,U1,8,VDDIO*%
%TO.N,/3V3*%
X106184000Y-77438000D03*
%TO.P,U1,9,AD0*%
%TO.N,Net-(R1-Pad2)*%
X106684000Y-77438000D03*
%TO.P,U1,10,REGOUT*%
%TO.N,Net-(C4-Pad1)*%
X107184000Y-77438000D03*
%TO.P,U1,11,FSYNC*%
%TO.N,GND*%
X107684000Y-77438000D03*
%TO.P,U1,12,INT*%
%TO.N,unconnected-(U1-Pad12)*%
X108184000Y-77438000D03*
D15*
%TO.P,U1,13,VDD*%
%TO.N,/3V3*%
X108934000Y-76688000D03*
%TO.P,U1,14*%
%TO.N,N/C*%
X108934000Y-76188000D03*
%TO.P,U1,15*%
X108934000Y-75688000D03*
%TO.P,U1,16*%
X108934000Y-75188000D03*
%TO.P,U1,17*%
X108934000Y-74688000D03*
%TO.P,U1,18,GND*%
%TO.N,GND*%
X108934000Y-74188000D03*
D16*
%TO.P,U1,19*%
%TO.N,N/C*%
X108184000Y-73438000D03*
D17*
%TO.P,U1,20,CPOUT*%
%TO.N,Net-(C5-Pad1)*%
X107684000Y-73438000D03*
D16*
%TO.P,U1,21*%
%TO.N,N/C*%
X107184000Y-73438000D03*
%TO.P,U1,22*%
X106684000Y-73438000D03*
%TO.P,U1,23,SCL*%
%TO.N,/SCL*%
X106184000Y-73438000D03*
%TO.P,U1,24,SDA*%
%TO.N,/SDA*%
X105684000Y-73438000D03*
D18*
%TO.P,U1,25,GND*%
%TO.N,GND*%
X106934000Y-75438000D03*
%TD*%
D19*
%TO.P,U3,1,E0*%
%TO.N,unconnected-(U3-Pad1)*%
X94107000Y-75627000D03*
%TO.P,U3,2,E1*%
%TO.N,unconnected-(U3-Pad2)*%
X95377000Y-75627000D03*
%TO.P,U3,3,E2*%
%TO.N,unconnected-(U3-Pad3)*%
X96647000Y-75627000D03*
%TO.P,U3,4,VSS*%
%TO.N,GND*%
X97917000Y-75627000D03*
%TO.P,U3,5,SDA*%
%TO.N,/SDA_EEPROM*%
X97917000Y-70677000D03*
%TO.P,U3,6,SCL*%
%TO.N,/SCL_EEPROM*%
X96647000Y-70677000D03*
%TO.P,U3,7,~{WC}*%
%TO.N,unconnected-(U3-Pad7)*%
X95377000Y-70677000D03*
%TO.P,U3,8,VCC*%
%TO.N,/3V3*%
X94107000Y-70677000D03*
%TD*%
D20*
%TO.P,D1,1,K*%
%TO.N,GND*%
X98552000Y-66827500D03*
%TO.P,D1,2,A*%
%TO.N,Net-(D1-Pad2)*%
X98552000Y-65252500D03*
%TD*%
D11*
%TO.P,C4,1*%
%TO.N,Net-(C4-Pad1)*%
X107470000Y-78740000D03*
%TO.P,C4,2*%
%TO.N,GND*%
X108430000Y-78740000D03*
%TD*%
D14*
%TO.P,C3,1*%
%TO.N,/3V3*%
X110744000Y-76680000D03*
%TO.P,C3,2*%
%TO.N,GND*%
X110744000Y-75720000D03*
%TD*%
D13*
%TO.P,R2,1*%
%TO.N,Net-(R1-Pad2)*%
X106174000Y-80518000D03*
%TO.P,R2,2*%
%TO.N,GND*%
X105154000Y-80518000D03*
%TD*%
%TO.P,R1,1*%
%TO.N,/3V3*%
X108206000Y-80518000D03*
%TO.P,R1,2*%
%TO.N,Net-(R1-Pad2)*%
X107186000Y-80518000D03*
%TD*%
D21*
%TO.N,GND*%
X103124000Y-72644000D03*
X103124000Y-71374000D03*
X96012000Y-73152000D03*
X101854000Y-71374000D03*
X112776000Y-71374000D03*
X103124000Y-80264000D03*
X101854000Y-78994000D03*
X112776000Y-72644000D03*
X111506000Y-73914000D03*
X111506000Y-71374000D03*
X103124000Y-77724000D03*
X104394000Y-81534000D03*
X101854000Y-73914000D03*
X110236000Y-73914000D03*
X112776000Y-73914000D03*
X103124000Y-73914000D03*
X103124000Y-78994000D03*
X101854000Y-77724000D03*
X101854000Y-75184000D03*
X104013000Y-66675000D03*
X101854000Y-80264000D03*
X103124000Y-75184000D03*
X101854000Y-76454000D03*
X104013000Y-67564000D03*
X97282000Y-73152000D03*
X110236000Y-72644000D03*
X94742000Y-73152000D03*
X104394000Y-71374000D03*
X101854000Y-72644000D03*
X103124000Y-76454000D03*
X106934000Y-72136000D03*
X111506000Y-72644000D03*
X110236000Y-71374000D03*
X104013000Y-65786000D03*
%TO.N,/3V3*%
X105918000Y-79502000D03*
X104496500Y-63397500D03*
X110744000Y-78232000D03*
X108458000Y-81788000D03*
X104496500Y-62635500D03*
%TO.N,/SDA_EEPROM*%
X98806000Y-70358000D03*
%TO.N,/SDA*%
X110998000Y-67056000D03*
%TO.N,/SCL*%
X112014000Y-67056000D03*
%TO.N,/SCL_EEPROM*%
X102108000Y-68834000D03*
%TD*%
D22*
%TO.N,GND*%
X107684000Y-76188000D02*
X106934000Y-75438000D01*
X105684000Y-74188000D02*
X106934000Y-75438000D01*
X104934000Y-74188000D02*
X105684000Y-74188000D01*
X107684000Y-77438000D02*
X107684000Y-76188000D01*
X108430000Y-78740000D02*
X107684000Y-77994000D01*
X104934000Y-74188000D02*
X103652000Y-74188000D01*
X108934000Y-74188000D02*
X109962000Y-74188000D01*
X109962000Y-74188000D02*
X110236000Y-73914000D01*
X107684000Y-77994000D02*
X107684000Y-77438000D01*
%TO.N,Net-(D1-Pad2)*%
X98042000Y-64514000D02*
X98042000Y-63754000D01*
X98552000Y-65024000D02*
X98042000Y-64514000D01*
X98552000Y-65252500D02*
X98552000Y-65024000D01*
%TO.N,/3V3*%
X103783500Y-64618500D02*
X104496500Y-64618500D01*
X106184000Y-78446000D02*
X106184000Y-77438000D01*
X108942000Y-76680000D02*
X108934000Y-76688000D01*
X104496500Y-62635500D02*
X104091000Y-62230000D01*
X104496500Y-64159500D02*
X104496500Y-64618500D01*
X101346000Y-68072000D02*
X102870000Y-66548000D01*
X108204000Y-81534000D02*
X108204000Y-80520000D01*
X108204000Y-80520000D02*
X108206000Y-80518000D01*
X102870000Y-66548000D02*
X102870000Y-65532000D01*
X99822000Y-62230000D02*
X99062000Y-62990000D01*
X111354500Y-64618500D02*
X113538000Y-66802000D01*
X108458000Y-81788000D02*
X108204000Y-81534000D01*
X112804000Y-76680000D02*
X111808000Y-76680000D01*
X113538000Y-75946000D02*
X112804000Y-76680000D01*
X104496500Y-63397500D02*
X104496500Y-62635500D01*
X105890000Y-78740000D02*
X105890000Y-79474000D01*
X105890000Y-79474000D02*
X105918000Y-79502000D01*
X110744000Y-76680000D02*
X108942000Y-76680000D01*
X99062000Y-62990000D02*
X99062000Y-63754000D01*
X104496500Y-64159500D02*
X104496500Y-63397500D01*
X94107000Y-70677000D02*
X94107000Y-70401337D01*
X111808000Y-76680000D02*
X110744000Y-76680000D01*
X113538000Y-66802000D02*
X113538000Y-75946000D01*
X104091000Y-62230000D02*
X99822000Y-62230000D01*
X102870000Y-65532000D02*
X103783500Y-64618500D01*
X110744000Y-76680000D02*
X110744000Y-78232000D01*
X96436337Y-68072000D02*
X101346000Y-68072000D01*
X104496500Y-64618500D02*
X111354500Y-64618500D01*
X105890000Y-78740000D02*
X106184000Y-78446000D01*
X94107000Y-70401337D02*
X96436337Y-68072000D01*
%TO.N,/SDA_EEPROM*%
X98806000Y-70358000D02*
X98236000Y-70358000D01*
X98236000Y-70358000D02*
X97917000Y-70677000D01*
%TO.N,/SDA*%
X110998000Y-68834000D02*
X110998000Y-67056000D01*
X105684000Y-73438000D02*
X105684000Y-70338000D01*
X106680000Y-69342000D02*
X110490000Y-69342000D01*
X110490000Y-69342000D02*
X110998000Y-68834000D01*
X105684000Y-70338000D02*
X106680000Y-69342000D01*
%TO.N,/SCL*%
X106184000Y-71108000D02*
X106934000Y-70358000D01*
X106184000Y-73438000D02*
X106184000Y-71108000D01*
X112014000Y-69596000D02*
X112014000Y-67056000D01*
X106934000Y-70358000D02*
X111252000Y-70358000D01*
X111252000Y-70358000D02*
X112014000Y-69596000D01*
%TO.N,/SCL_EEPROM*%
X97282000Y-68834000D02*
X96647000Y-69469000D01*
X102108000Y-68834000D02*
X97282000Y-68834000D01*
X96647000Y-69469000D02*
X96647000Y-70677000D01*
%TO.N,Net-(C4-Pad1)*%
X107184000Y-78454000D02*
X107470000Y-78740000D01*
X107184000Y-77438000D02*
X107184000Y-78454000D01*
%TO.N,Net-(C5-Pad1)*%
X107684000Y-73438000D02*
X107684000Y-72430000D01*
X107684000Y-72430000D02*
X107978000Y-72136000D01*
%TO.N,Net-(R1-Pad2)*%
X106174000Y-80518000D02*
X106174000Y-80262000D01*
X106174000Y-80262000D02*
X106680000Y-79756000D01*
X106680000Y-77442000D02*
X106684000Y-77438000D01*
X107186000Y-80262000D02*
X106680000Y-79756000D01*
X106680000Y-79756000D02*
X106680000Y-77442000D01*
X107186000Y-80518000D02*
X107186000Y-80262000D01*
%TD*%
%TA.AperFunction,Conductor*%
%TO.N,GND*%
G36*
X93508556Y-61466002D02*
G01*
X93555049Y-61519658D01*
X93565153Y-61589932D01*
X93535659Y-61654512D01*
X93504858Y-61680285D01*
X93450196Y-61712805D01*
X93443945Y-61717053D01*
X93250733Y-61866115D01*
X93242267Y-61877773D01*
X93248871Y-61889661D01*
X94987188Y-63627978D01*
X95001132Y-63635592D01*
X95002965Y-63635461D01*
X95009580Y-63631210D01*
X96750162Y-61890628D01*
X96757174Y-61877787D01*
X96749379Y-61867098D01*
X96579886Y-61733481D01*
X96573663Y-61729156D01*
X96492326Y-61679605D01*
X96444557Y-61627082D01*
X96432767Y-61557071D01*
X96460699Y-61491800D01*
X96519485Y-61451992D01*
X96557879Y-61446000D01*
X99432118Y-61446000D01*
X99500239Y-61466002D01*
X99546732Y-61519658D01*
X99556836Y-61589932D01*
X99527342Y-61654512D01*
X99506180Y-61673935D01*
X99477519Y-61694759D01*
X99467595Y-61701278D01*
X99436224Y-61719830D01*
X99436219Y-61719834D01*
X99429401Y-61723866D01*
X99415014Y-61738253D01*
X99399980Y-61751094D01*
X99383513Y-61763058D01*
X99378460Y-61769166D01*
X99355228Y-61797249D01*
X99347238Y-61806029D01*
X98668517Y-62484750D01*
X98660191Y-62492326D01*
X98653697Y-62496447D01*
X98648274Y-62502222D01*
X98606915Y-62546265D01*
X98604160Y-62549107D01*
X98584361Y-62568906D01*
X98581937Y-62572031D01*
X98581929Y-62572040D01*
X98581863Y-62572126D01*
X98574155Y-62581151D01*
X98543783Y-62613494D01*
X98539965Y-62620438D01*
X98539964Y-62620440D01*
X98533978Y-62631329D01*
X98523127Y-62647847D01*
X98510650Y-62663933D01*
X98493024Y-62704666D01*
X98487807Y-62715314D01*
X98466431Y-62754197D01*
X98464460Y-62761872D01*
X98464458Y-62761878D01*
X98461369Y-62773911D01*
X98454966Y-62792613D01*
X98446883Y-62811292D01*
X98445644Y-62819114D01*
X98445643Y-62819118D01*
X98444104Y-62828838D01*
X98413692Y-62892991D01*
X98353425Y-62930518D01*
X98291191Y-62930161D01*
X98290979Y-62931323D01*
X98284643Y-62930165D01*
X98278466Y-62928371D01*
X98272059Y-62927867D01*
X98272055Y-62927866D01*
X98244444Y-62925693D01*
X98244438Y-62925693D01*
X98241989Y-62925500D01*
X98042122Y-62925500D01*
X97842012Y-62925501D01*
X97805534Y-62928371D01*
X97765562Y-62939984D01*
X97677727Y-62965502D01*
X97606730Y-62965299D01*
X97547114Y-62926745D01*
X97527602Y-62896055D01*
X97450172Y-62723363D01*
X97446655Y-62716636D01*
X97279054Y-62438252D01*
X97274757Y-62431999D01*
X97133617Y-62251022D01*
X97121823Y-62242551D01*
X97110113Y-62249097D01*
X95372022Y-63987188D01*
X95364408Y-64001132D01*
X95364539Y-64002965D01*
X95368790Y-64009580D01*
X97108825Y-65749615D01*
X97121948Y-65756781D01*
X97132250Y-65749391D01*
X97241429Y-65615285D01*
X97245842Y-65609144D01*
X97336608Y-65465287D01*
X97389874Y-65418349D01*
X97460062Y-65407659D01*
X97524886Y-65436613D01*
X97563766Y-65496018D01*
X97567934Y-65519631D01*
X97568500Y-65519572D01*
X97579022Y-65620982D01*
X97632692Y-65781849D01*
X97721929Y-65926055D01*
X97727107Y-65931224D01*
X97747159Y-65951241D01*
X97781238Y-66013523D01*
X97776235Y-66084343D01*
X97747314Y-66129432D01*
X97726702Y-66150080D01*
X97717690Y-66161491D01*
X97636447Y-66293291D01*
X97630303Y-66306468D01*
X97581421Y-66453843D01*
X97578555Y-66467210D01*
X97569386Y-66556700D01*
X97573475Y-66570624D01*
X97574865Y-66571829D01*
X97582548Y-66573500D01*
X99516885Y-66573500D01*
X99532124Y-66569025D01*
X99533329Y-66567635D01*
X99534842Y-66560679D01*
X99534663Y-66557218D01*
X99525196Y-66465979D01*
X99522303Y-66452583D01*
X99473170Y-66305313D01*
X99466996Y-66292134D01*
X99385530Y-66160486D01*
X99376494Y-66149085D01*
X99356842Y-66129467D01*
X99322763Y-66067184D01*
X99327766Y-65996364D01*
X99356686Y-65951277D01*
X99377692Y-65930234D01*
X99382864Y-65925053D01*
X99471849Y-65780692D01*
X99525238Y-65619731D01*
X99535500Y-65519572D01*
X99535500Y-64985428D01*
X99524978Y-64884018D01*
X99471308Y-64723151D01*
X99467458Y-64716929D01*
X99467454Y-64716921D01*
X99448910Y-64686953D01*
X99430073Y-64618501D01*
X99451235Y-64550732D01*
X99491916Y-64512198D01*
X99587720Y-64455540D01*
X99594541Y-64451506D01*
X99709506Y-64336541D01*
X99792269Y-64196596D01*
X99808831Y-64139591D01*
X99835834Y-64046644D01*
X99837629Y-64040466D01*
X99838578Y-64028419D01*
X99840307Y-64006444D01*
X99840307Y-64006438D01*
X99840500Y-64003989D01*
X99840499Y-63504012D01*
X99837629Y-63467534D01*
X99792269Y-63311404D01*
X99785182Y-63299420D01*
X99767725Y-63230603D01*
X99790244Y-63163272D01*
X99804543Y-63146189D01*
X100048327Y-62902405D01*
X100110639Y-62868379D01*
X100137422Y-62865500D01*
X101020069Y-62865500D01*
X101088190Y-62885502D01*
X101134683Y-62939158D01*
X101144787Y-63009432D01*
X101115293Y-63074012D01*
X101083070Y-63100619D01*
X100950376Y-63177229D01*
X100945469Y-63181647D01*
X100945468Y-63181648D01*
X100896130Y-63226073D01*
X100811579Y-63302203D01*
X100701798Y-63453303D01*
X100699114Y-63459331D01*
X100699113Y-63459333D01*
X100644601Y-63581770D01*
X100625832Y-63623926D01*
X100587000Y-63806615D01*
X100587000Y-63993385D01*
X100588372Y-63999837D01*
X100588372Y-63999842D01*
X100599753Y-64053383D01*
X100625832Y-64176074D01*
X100628517Y-64182104D01*
X100628517Y-64182105D01*
X100684097Y-64306939D01*
X100701798Y-64346697D01*
X100705678Y-64352038D01*
X100705679Y-64352039D01*
X100773873Y-64445900D01*
X100811579Y-64497797D01*
X100816481Y-64502210D01*
X100816482Y-64502212D01*
X100945468Y-64618352D01*
X100950376Y-64622771D01*
X100956097Y-64626074D01*
X100970839Y-64634585D01*
X101112124Y-64716156D01*
X101155021Y-64730094D01*
X101283474Y-64771831D01*
X101283475Y-64771831D01*
X101289753Y-64773871D01*
X101296316Y-64774561D01*
X101296317Y-64774561D01*
X101319097Y-64776955D01*
X101428937Y-64788500D01*
X101522063Y-64788500D01*
X101631903Y-64776955D01*
X101654683Y-64774561D01*
X101654684Y-64774561D01*
X101661247Y-64773871D01*
X101667525Y-64771831D01*
X101667526Y-64771831D01*
X101795979Y-64730094D01*
X101838876Y-64716156D01*
X101980162Y-64634585D01*
X101994903Y-64626074D01*
X102000624Y-64622771D01*
X102005532Y-64618352D01*
X102134518Y-64502212D01*
X102134519Y-64502210D01*
X102139421Y-64497797D01*
X102177127Y-64445900D01*
X102245321Y-64352039D01*
X102245322Y-64352038D01*
X102249202Y-64346697D01*
X102266904Y-64306939D01*
X102322483Y-64182105D01*
X102322483Y-64182104D01*
X102325168Y-64176074D01*
X102351247Y-64053383D01*
X102362628Y-63999842D01*
X102362628Y-63999837D01*
X102364000Y-63993385D01*
X102364000Y-63806615D01*
X102325168Y-63623926D01*
X102306399Y-63581770D01*
X102251887Y-63459333D01*
X102251886Y-63459331D01*
X102249202Y-63453303D01*
X102139421Y-63302203D01*
X102054871Y-63226073D01*
X102005532Y-63181648D01*
X102005531Y-63181647D01*
X102000624Y-63177229D01*
X101867931Y-63100619D01*
X101818938Y-63049237D01*
X101805502Y-62979523D01*
X101831888Y-62913612D01*
X101889720Y-62872430D01*
X101930931Y-62865500D01*
X103584472Y-62865500D01*
X103652593Y-62885502D01*
X103699086Y-62939158D01*
X103704305Y-62952564D01*
X103712428Y-62977564D01*
X103712428Y-63055436D01*
X103671420Y-63181648D01*
X103659118Y-63219509D01*
X103658428Y-63226072D01*
X103658428Y-63226073D01*
X103649459Y-63311404D01*
X103640410Y-63397500D01*
X103659118Y-63575491D01*
X103714423Y-63745703D01*
X103717726Y-63751425D01*
X103717727Y-63751426D01*
X103748330Y-63804432D01*
X103765068Y-63873428D01*
X103741847Y-63940519D01*
X103686040Y-63984406D01*
X103674371Y-63988427D01*
X103663758Y-63991511D01*
X103644388Y-63995523D01*
X103632060Y-63997080D01*
X103632058Y-63997080D01*
X103624201Y-63998073D01*
X103616837Y-64000989D01*
X103616832Y-64000990D01*
X103582944Y-64014407D01*
X103571715Y-64018252D01*
X103555611Y-64022931D01*
X103529107Y-64030631D01*
X103522280Y-64034669D01*
X103522277Y-64034670D01*
X103511594Y-64040988D01*
X103493836Y-64049688D01*
X103482285Y-64054261D01*
X103482279Y-64054265D01*
X103474912Y-64057181D01*
X103468501Y-64061839D01*
X103468499Y-64061840D01*
X103439012Y-64083264D01*
X103429090Y-64089781D01*
X103397732Y-64108326D01*
X103397728Y-64108329D01*
X103390902Y-64112366D01*
X103376518Y-64126750D01*
X103361484Y-64139591D01*
X103345013Y-64151558D01*
X103324732Y-64176074D01*
X103316727Y-64185750D01*
X103308737Y-64194531D01*
X102476512Y-65026755D01*
X102468193Y-65034325D01*
X102461697Y-65038447D01*
X102456271Y-65044225D01*
X102456270Y-65044226D01*
X102414915Y-65088265D01*
X102412160Y-65091107D01*
X102392361Y-65110906D01*
X102389937Y-65114031D01*
X102389929Y-65114040D01*
X102389863Y-65114126D01*
X102382155Y-65123151D01*
X102351783Y-65155494D01*
X102347965Y-65162438D01*
X102347964Y-65162440D01*
X102341978Y-65173329D01*
X102331127Y-65189847D01*
X102318650Y-65205933D01*
X102301024Y-65246666D01*
X102295807Y-65257314D01*
X102274431Y-65296197D01*
X102272460Y-65303872D01*
X102272458Y-65303878D01*
X102269369Y-65315911D01*
X102262966Y-65334613D01*
X102254883Y-65353292D01*
X102253644Y-65361117D01*
X102247940Y-65397127D01*
X102245535Y-65408740D01*
X102234500Y-65451718D01*
X102234500Y-65472065D01*
X102232949Y-65491776D01*
X102229765Y-65511879D01*
X102230511Y-65519771D01*
X102233941Y-65556056D01*
X102234500Y-65567914D01*
X102234500Y-66232577D01*
X102214498Y-66300698D01*
X102197595Y-66321672D01*
X101119672Y-67399595D01*
X101057360Y-67433621D01*
X101030577Y-67436500D01*
X99619062Y-67436500D01*
X99550941Y-67416498D01*
X99504448Y-67362842D01*
X99494344Y-67292568D01*
X99499469Y-67270834D01*
X99522578Y-67201160D01*
X99525445Y-67187790D01*
X99534614Y-67098300D01*
X99530525Y-67084376D01*
X99529135Y-67083171D01*
X99521452Y-67081500D01*
X97587115Y-67081500D01*
X97571876Y-67085975D01*
X97570671Y-67087365D01*
X97569158Y-67094321D01*
X97569337Y-67097782D01*
X97578804Y-67189021D01*
X97581697Y-67202417D01*
X97604453Y-67270624D01*
X97607037Y-67341573D01*
X97570854Y-67402657D01*
X97507390Y-67434482D01*
X97484929Y-67436500D01*
X96515369Y-67436500D01*
X96504130Y-67435970D01*
X96496618Y-67434291D01*
X96488693Y-67434540D01*
X96488692Y-67434540D01*
X96428307Y-67436438D01*
X96424349Y-67436500D01*
X96396354Y-67436500D01*
X96392420Y-67436997D01*
X96392418Y-67436997D01*
X96392331Y-67437008D01*
X96380497Y-67437940D01*
X96336132Y-67439335D01*
X96328519Y-67441547D01*
X96328518Y-67441547D01*
X96316589Y-67445013D01*
X96297225Y-67449023D01*
X96284897Y-67450580D01*
X96284895Y-67450580D01*
X96277038Y-67451573D01*
X96269674Y-67454489D01*
X96269669Y-67454490D01*
X96235781Y-67467907D01*
X96224552Y-67471752D01*
X96207872Y-67476598D01*
X96181944Y-67484131D01*
X96175117Y-67488169D01*
X96175114Y-67488170D01*
X96164431Y-67494488D01*
X96146673Y-67503188D01*
X96135122Y-67507761D01*
X96135116Y-67507765D01*
X96127749Y-67510681D01*
X96121338Y-67515339D01*
X96121336Y-67515340D01*
X96091849Y-67536764D01*
X96081927Y-67543281D01*
X96050569Y-67561826D01*
X96050565Y-67561829D01*
X96043739Y-67565866D01*
X96029355Y-67580250D01*
X96014321Y-67593091D01*
X95997850Y-67605058D01*
X95992797Y-67611166D01*
X95969560Y-67639255D01*
X95961570Y-67648035D01*
X94450423Y-69159182D01*
X94388111Y-69193208D01*
X94351442Y-69195699D01*
X94325958Y-69193693D01*
X94325950Y-69193693D01*
X94323502Y-69193500D01*
X93890498Y-69193500D01*
X93888050Y-69193693D01*
X93888042Y-69193693D01*
X93859579Y-69195933D01*
X93859574Y-69195934D01*
X93853169Y-69196438D01*
X93753231Y-69225472D01*
X93701012Y-69240643D01*
X93701010Y-69240644D01*
X93693399Y-69242855D01*
X93686572Y-69246892D01*
X93686573Y-69246892D01*
X93557020Y-69323509D01*
X93557017Y-69323511D01*
X93550193Y-69327547D01*
X93432547Y-69445193D01*
X93428511Y-69452017D01*
X93428509Y-69452020D01*
X93403940Y-69493564D01*
X93347855Y-69588399D01*
X93345644Y-69596010D01*
X93345643Y-69596012D01*
X93333960Y-69636225D01*
X93301438Y-69748169D01*
X93298500Y-69785498D01*
X93298500Y-71568502D01*
X93298693Y-71570950D01*
X93298693Y-71570958D01*
X93298815Y-71572501D01*
X93301438Y-71605831D01*
X93347855Y-71765601D01*
X93351892Y-71772427D01*
X93428509Y-71901980D01*
X93428511Y-71901983D01*
X93432547Y-71908807D01*
X93550193Y-72026453D01*
X93557017Y-72030489D01*
X93557020Y-72030491D01*
X93599584Y-72055663D01*
X93693399Y-72111145D01*
X93701010Y-72113356D01*
X93701012Y-72113357D01*
X93753231Y-72128528D01*
X93853169Y-72157562D01*
X93859574Y-72158066D01*
X93859579Y-72158067D01*
X93888042Y-72160307D01*
X93888050Y-72160307D01*
X93890498Y-72160500D01*
X94323502Y-72160500D01*
X94325950Y-72160307D01*
X94325958Y-72160307D01*
X94354421Y-72158067D01*
X94354426Y-72158066D01*
X94360831Y-72157562D01*
X94460769Y-72128528D01*
X94512988Y-72113357D01*
X94512990Y-72113356D01*
X94520601Y-72111145D01*
X94663807Y-72026453D01*
X94666489Y-72023771D01*
X94730861Y-71998498D01*
X94800484Y-72012400D01*
X94816312Y-72022572D01*
X94820193Y-72026453D01*
X94963399Y-72111145D01*
X94971010Y-72113356D01*
X94971012Y-72113357D01*
X95023231Y-72128528D01*
X95123169Y-72157562D01*
X95129574Y-72158066D01*
X95129579Y-72158067D01*
X95158042Y-72160307D01*
X95158050Y-72160307D01*
X95160498Y-72160500D01*
X95593502Y-72160500D01*
X95595950Y-72160307D01*
X95595958Y-72160307D01*
X95624421Y-72158067D01*
X95624426Y-72158066D01*
X95630831Y-72157562D01*
X95730769Y-72128528D01*
X95782988Y-72113357D01*
X95782990Y-72113356D01*
X95790601Y-72111145D01*
X95933807Y-72026453D01*
X95936489Y-72023771D01*
X96000861Y-71998498D01*
X96070484Y-72012400D01*
X96086312Y-72022572D01*
X96090193Y-72026453D01*
X96233399Y-72111145D01*
X96241010Y-72113356D01*
X96241012Y-72113357D01*
X96293231Y-72128528D01*
X96393169Y-72157562D01*
X96399574Y-72158066D01*
X96399579Y-72158067D01*
X96428042Y-72160307D01*
X96428050Y-72160307D01*
X96430498Y-72160500D01*
X96863502Y-72160500D01*
X96865950Y-72160307D01*
X96865958Y-72160307D01*
X96894421Y-72158067D01*
X96894426Y-72158066D01*
X96900831Y-72157562D01*
X97000769Y-72128528D01*
X97052988Y-72113357D01*
X97052990Y-72113356D01*
X97060601Y-72111145D01*
X97203807Y-72026453D01*
X97206489Y-72023771D01*
X97270861Y-71998498D01*
X97340484Y-72012400D01*
X97356312Y-72022572D01*
X97360193Y-72026453D01*
X97503399Y-72111145D01*
X97511010Y-72113356D01*
X97511012Y-72113357D01*
X97563231Y-72128528D01*
X97663169Y-72157562D01*
X97669574Y-72158066D01*
X97669579Y-72158067D01*
X97698042Y-72160307D01*
X97698050Y-72160307D01*
X97700498Y-72160500D01*
X98133502Y-72160500D01*
X98135950Y-72160307D01*
X98135958Y-72160307D01*
X98164421Y-72158067D01*
X98164426Y-72158066D01*
X98170831Y-72157562D01*
X98270769Y-72128528D01*
X98322988Y-72113357D01*
X98322990Y-72113356D01*
X98330601Y-72111145D01*
X98424416Y-72055663D01*
X98466980Y-72030491D01*
X98466983Y-72030489D01*
X98473807Y-72026453D01*
X98591453Y-71908807D01*
X98595489Y-71901983D01*
X98595491Y-71901980D01*
X98672108Y-71772427D01*
X98676145Y-71765601D01*
X98722562Y-71605831D01*
X98725186Y-71572501D01*
X98725307Y-71570958D01*
X98725307Y-71570950D01*
X98725500Y-71568502D01*
X98725500Y-71335400D01*
X98745502Y-71267279D01*
X98799158Y-71220786D01*
X98851500Y-71209400D01*
X98895486Y-71209400D01*
X98901939Y-71208028D01*
X98901943Y-71208028D01*
X98983016Y-71190795D01*
X99070546Y-71172190D01*
X99076577Y-71169505D01*
X99228015Y-71102081D01*
X99228017Y-71102080D01*
X99234045Y-71099396D01*
X99378836Y-70994199D01*
X99384010Y-70988453D01*
X99494172Y-70866105D01*
X99494173Y-70866104D01*
X99498591Y-70861197D01*
X99588077Y-70706203D01*
X99643382Y-70535991D01*
X99662090Y-70358000D01*
X99643382Y-70180009D01*
X99630585Y-70140622D01*
X99590119Y-70016082D01*
X99588077Y-70009797D01*
X99564200Y-69968440D01*
X99501892Y-69860521D01*
X99498591Y-69854803D01*
X99489267Y-69844447D01*
X99383258Y-69726712D01*
X99383257Y-69726711D01*
X99378836Y-69721801D01*
X99345299Y-69697435D01*
X99301947Y-69641213D01*
X99295872Y-69570477D01*
X99329004Y-69507685D01*
X99390824Y-69472774D01*
X99419362Y-69469500D01*
X101493262Y-69469500D01*
X101561383Y-69489502D01*
X101567323Y-69493564D01*
X101673185Y-69570477D01*
X101679955Y-69575396D01*
X101685983Y-69578080D01*
X101685985Y-69578081D01*
X101771425Y-69616121D01*
X101843454Y-69648190D01*
X101930984Y-69666795D01*
X102012057Y-69684028D01*
X102012061Y-69684028D01*
X102018514Y-69685400D01*
X102197486Y-69685400D01*
X102203939Y-69684028D01*
X102203943Y-69684028D01*
X102285016Y-69666795D01*
X102372546Y-69648190D01*
X102444575Y-69616121D01*
X102530015Y-69578081D01*
X102530017Y-69578080D01*
X102536045Y-69575396D01*
X102542557Y-69570665D01*
X102675492Y-69474082D01*
X102675494Y-69474080D01*
X102680836Y-69470199D01*
X102685258Y-69465288D01*
X102796172Y-69342105D01*
X102796173Y-69342104D01*
X102800591Y-69337197D01*
X102880822Y-69198233D01*
X102886773Y-69187926D01*
X102886774Y-69187925D01*
X102890077Y-69182203D01*
X102945382Y-69011991D01*
X102964090Y-68834000D01*
X102945382Y-68656009D01*
X102929677Y-68607672D01*
X102892119Y-68492082D01*
X102890077Y-68485797D01*
X102800591Y-68330803D01*
X102680836Y-68197801D01*
X102536045Y-68092604D01*
X102487701Y-68071080D01*
X102433605Y-68025101D01*
X102412955Y-67957174D01*
X102432307Y-67888865D01*
X102449854Y-67866878D01*
X103263477Y-67053255D01*
X103271803Y-67045678D01*
X103278303Y-67041553D01*
X103325101Y-66991718D01*
X103327855Y-66988877D01*
X103347638Y-66969094D01*
X103350129Y-66965883D01*
X103357838Y-66956856D01*
X103382789Y-66930286D01*
X103388217Y-66924506D01*
X103398022Y-66906671D01*
X103408876Y-66890147D01*
X103416491Y-66880330D01*
X103416492Y-66880329D01*
X103421349Y-66874067D01*
X103438969Y-66833350D01*
X103444192Y-66822689D01*
X103461749Y-66790753D01*
X103461751Y-66790748D01*
X103465569Y-66783803D01*
X103467539Y-66776129D01*
X103467542Y-66776122D01*
X103470632Y-66764087D01*
X103477036Y-66745382D01*
X103481967Y-66733987D01*
X103485117Y-66726708D01*
X103492060Y-66682873D01*
X103494467Y-66671251D01*
X103499778Y-66650566D01*
X103505500Y-66628282D01*
X103505500Y-66607935D01*
X103507051Y-66588224D01*
X103508995Y-66575950D01*
X103510235Y-66568121D01*
X103506059Y-66523944D01*
X103505500Y-66512086D01*
X103505500Y-65847423D01*
X103525502Y-65779302D01*
X103542405Y-65758327D01*
X104009829Y-65290904D01*
X104072141Y-65256879D01*
X104098924Y-65254000D01*
X104424517Y-65254000D01*
X104448126Y-65256232D01*
X104448491Y-65256302D01*
X104448496Y-65256302D01*
X104456279Y-65257787D01*
X104512514Y-65254249D01*
X104520425Y-65254000D01*
X111039078Y-65254000D01*
X111107199Y-65274002D01*
X111128173Y-65290905D01*
X111857203Y-66019935D01*
X111891229Y-66082247D01*
X111886164Y-66153062D01*
X111843617Y-66209898D01*
X111794305Y-66232277D01*
X111783535Y-66234566D01*
X111755912Y-66240437D01*
X111755909Y-66240438D01*
X111749454Y-66241810D01*
X111743424Y-66244495D01*
X111743423Y-66244495D01*
X111591985Y-66311919D01*
X111591983Y-66311920D01*
X111585955Y-66314604D01*
X111580613Y-66318485D01*
X111580610Y-66318487D01*
X111580058Y-66318888D01*
X111579684Y-66319021D01*
X111574896Y-66321786D01*
X111574390Y-66320910D01*
X111513190Y-66342745D01*
X111444039Y-66326662D01*
X111431942Y-66318888D01*
X111431390Y-66318487D01*
X111431387Y-66318485D01*
X111426045Y-66314604D01*
X111420017Y-66311920D01*
X111420015Y-66311919D01*
X111268577Y-66244495D01*
X111268576Y-66244495D01*
X111262546Y-66241810D01*
X111175016Y-66223205D01*
X111093943Y-66205972D01*
X111093939Y-66205972D01*
X111087486Y-66204600D01*
X110908514Y-66204600D01*
X110902061Y-66205972D01*
X110902057Y-66205972D01*
X110820984Y-66223205D01*
X110733454Y-66241810D01*
X110727424Y-66244495D01*
X110727423Y-66244495D01*
X110575985Y-66311919D01*
X110575983Y-66311920D01*
X110569955Y-66314604D01*
X110564614Y-66318484D01*
X110564613Y-66318485D01*
X110468936Y-66387999D01*
X110425164Y-66419801D01*
X110420743Y-66424711D01*
X110420742Y-66424712D01*
X110331394Y-66523944D01*
X110305409Y-66552803D01*
X110215923Y-66707797D01*
X110207413Y-66733987D01*
X110175129Y-66833350D01*
X110160618Y-66878009D01*
X110141910Y-67056000D01*
X110142600Y-67062565D01*
X110144893Y-67084376D01*
X110160618Y-67233991D01*
X110215923Y-67404203D01*
X110219226Y-67409925D01*
X110219227Y-67409926D01*
X110237484Y-67441547D01*
X110305409Y-67559197D01*
X110330137Y-67586660D01*
X110360853Y-67650666D01*
X110362500Y-67670969D01*
X110362500Y-68518577D01*
X110342498Y-68586698D01*
X110325595Y-68607672D01*
X110263672Y-68669595D01*
X110201360Y-68703621D01*
X110174577Y-68706500D01*
X106759032Y-68706500D01*
X106747793Y-68705970D01*
X106740281Y-68704291D01*
X106732356Y-68704540D01*
X106732355Y-68704540D01*
X106671970Y-68706438D01*
X106668012Y-68706500D01*
X106640017Y-68706500D01*
X106636083Y-68706997D01*
X106636081Y-68706997D01*
X106635994Y-68707008D01*
X106624160Y-68707940D01*
X106579795Y-68709335D01*
X106572182Y-68711547D01*
X106572181Y-68711547D01*
X106560252Y-68715013D01*
X106540888Y-68719023D01*
X106528560Y-68720580D01*
X106528558Y-68720580D01*
X106520701Y-68721573D01*
X106513337Y-68724489D01*
X106513332Y-68724490D01*
X106479444Y-68737907D01*
X106468215Y-68741752D01*
X106454241Y-68745812D01*
X106425607Y-68754131D01*
X106418781Y-68758168D01*
X106408091Y-68764490D01*
X106390341Y-68773187D01*
X106371412Y-68780681D01*
X106364998Y-68785341D01*
X106335514Y-68806762D01*
X106325594Y-68813278D01*
X106294229Y-68831827D01*
X106294226Y-68831829D01*
X106287402Y-68835865D01*
X106273014Y-68850253D01*
X106257980Y-68863094D01*
X106241513Y-68875058D01*
X106236460Y-68881166D01*
X106213228Y-68909249D01*
X106205238Y-68918029D01*
X105290517Y-69832750D01*
X105282191Y-69840326D01*
X105275697Y-69844447D01*
X105270274Y-69850222D01*
X105228915Y-69894265D01*
X105226160Y-69897107D01*
X105206361Y-69916906D01*
X105203937Y-69920031D01*
X105203929Y-69920040D01*
X105203863Y-69920126D01*
X105196155Y-69929151D01*
X105165783Y-69961494D01*
X105161965Y-69968438D01*
X105161964Y-69968440D01*
X105155978Y-69979329D01*
X105145127Y-69995847D01*
X105132650Y-70011933D01*
X105115024Y-70052666D01*
X105109807Y-70063314D01*
X105088431Y-70102197D01*
X105086460Y-70109872D01*
X105086458Y-70109878D01*
X105083369Y-70121911D01*
X105076966Y-70140613D01*
X105068883Y-70159292D01*
X105067644Y-70167117D01*
X105061940Y-70203127D01*
X105059535Y-70214740D01*
X105048500Y-70257718D01*
X105048500Y-70278065D01*
X105046949Y-70297776D01*
X105043765Y-70317879D01*
X105044511Y-70325771D01*
X105047941Y-70362056D01*
X105048500Y-70373914D01*
X105048500Y-72963079D01*
X105047422Y-72979525D01*
X105035500Y-73070082D01*
X105035500Y-73504241D01*
X105015498Y-73572362D01*
X104961842Y-73618855D01*
X104891568Y-73628959D01*
X104826988Y-73599465D01*
X104791997Y-73545019D01*
X104788135Y-73541672D01*
X104780452Y-73540001D01*
X104570237Y-73540001D01*
X104562025Y-73540539D01*
X104461299Y-73553799D01*
X104445484Y-73558037D01*
X104320136Y-73609958D01*
X104305955Y-73618145D01*
X104198310Y-73700743D01*
X104186743Y-73712310D01*
X104104145Y-73819955D01*
X104095958Y-73834136D01*
X104044037Y-73959483D01*
X104039799Y-73975300D01*
X104032592Y-74030040D01*
X104034804Y-74044221D01*
X104047962Y-74048000D01*
X104056691Y-74048000D01*
X104124812Y-74068002D01*
X104171305Y-74121658D01*
X104181409Y-74191932D01*
X104156655Y-74250700D01*
X104135166Y-74278706D01*
X104077831Y-74320571D01*
X104065667Y-74322691D01*
X104065727Y-74322896D01*
X104034573Y-74332044D01*
X104032544Y-74345583D01*
X104039799Y-74400699D01*
X104040794Y-74404412D01*
X104040794Y-74408258D01*
X104040877Y-74408888D01*
X104040794Y-74408899D01*
X104040795Y-74466003D01*
X104040390Y-74466981D01*
X104025500Y-74580082D01*
X104025500Y-74795918D01*
X104040390Y-74909019D01*
X104040533Y-74909364D01*
X104040533Y-74966636D01*
X104040390Y-74966981D01*
X104025500Y-75080082D01*
X104025500Y-75295918D01*
X104040390Y-75409019D01*
X104040533Y-75409364D01*
X104040533Y-75466636D01*
X104040390Y-75466981D01*
X104025500Y-75580082D01*
X104025500Y-75795918D01*
X104040390Y-75909019D01*
X104040533Y-75909364D01*
X104040533Y-75966636D01*
X104040390Y-75966981D01*
X104025500Y-76080082D01*
X104025500Y-76295918D01*
X104040390Y-76409019D01*
X104040533Y-76409364D01*
X104040533Y-76466636D01*
X104040390Y-76466981D01*
X104025500Y-76580082D01*
X104025500Y-76795918D01*
X104040390Y-76909019D01*
X104098681Y-77049746D01*
X104191409Y-77170591D01*
X104312254Y-77263319D01*
X104452981Y-77321610D01*
X104566082Y-77336500D01*
X104909500Y-77336500D01*
X104977621Y-77356502D01*
X105024114Y-77410158D01*
X105035500Y-77462500D01*
X105035500Y-77805918D01*
X105050390Y-77919019D01*
X105108681Y-78059746D01*
X105157630Y-78123537D01*
X105157962Y-78123970D01*
X105183563Y-78190190D01*
X105184000Y-78200674D01*
X105184000Y-78218621D01*
X105166454Y-78282760D01*
X105150106Y-78310403D01*
X105104394Y-78467746D01*
X105103890Y-78474151D01*
X105103889Y-78474156D01*
X105103299Y-78481656D01*
X105101500Y-78504516D01*
X105101500Y-78868000D01*
X105081498Y-78936121D01*
X105027842Y-78982614D01*
X104975500Y-78994000D01*
X104161576Y-78994000D01*
X104146781Y-78998344D01*
X104144937Y-79008775D01*
X104146688Y-79018359D01*
X104188357Y-79161784D01*
X104194604Y-79176220D01*
X104269876Y-79303499D01*
X104279516Y-79315926D01*
X104384074Y-79420484D01*
X104396501Y-79430124D01*
X104523780Y-79505396D01*
X104538214Y-79511642D01*
X104665290Y-79548562D01*
X104725125Y-79586776D01*
X104754802Y-79651272D01*
X104744898Y-79721575D01*
X104694275Y-79778013D01*
X104628590Y-79816859D01*
X104616159Y-79826501D01*
X104512501Y-79930159D01*
X104502854Y-79942595D01*
X104428230Y-80068778D01*
X104421981Y-80083217D01*
X104380662Y-80225436D01*
X104378363Y-80238023D01*
X104377740Y-80245943D01*
X104380910Y-80261030D01*
X104392374Y-80264000D01*
X105269500Y-80264000D01*
X105337621Y-80284002D01*
X105384114Y-80337658D01*
X105395500Y-80390000D01*
X105395501Y-80767988D01*
X105398371Y-80804466D01*
X105400166Y-80810644D01*
X105400168Y-80810653D01*
X105402997Y-80820390D01*
X105408000Y-80855542D01*
X105408000Y-81319900D01*
X105411973Y-81333431D01*
X105419871Y-81334566D01*
X105538783Y-81300019D01*
X105553220Y-81293771D01*
X105599370Y-81266478D01*
X105668187Y-81249018D01*
X105727646Y-81266477D01*
X105781404Y-81298269D01*
X105789015Y-81300480D01*
X105789017Y-81300481D01*
X105791499Y-81301202D01*
X105937534Y-81343629D01*
X105943941Y-81344133D01*
X105943945Y-81344134D01*
X105971556Y-81346307D01*
X105971562Y-81346307D01*
X105974011Y-81346500D01*
X106173878Y-81346500D01*
X106373988Y-81346499D01*
X106410466Y-81343629D01*
X106556501Y-81301202D01*
X106558983Y-81300481D01*
X106558985Y-81300480D01*
X106566596Y-81298269D01*
X106615863Y-81269132D01*
X106684677Y-81251674D01*
X106744137Y-81269132D01*
X106793404Y-81298269D01*
X106801015Y-81300480D01*
X106801017Y-81300481D01*
X106803499Y-81301202D01*
X106949534Y-81343629D01*
X106955941Y-81344133D01*
X106955945Y-81344134D01*
X106983556Y-81346307D01*
X106983562Y-81346307D01*
X106986011Y-81346500D01*
X107185878Y-81346500D01*
X107385988Y-81346499D01*
X107400861Y-81345329D01*
X107416052Y-81344134D01*
X107416055Y-81344133D01*
X107420143Y-81343812D01*
X107420145Y-81343812D01*
X107422466Y-81343629D01*
X107422500Y-81344060D01*
X107489273Y-81351092D01*
X107544650Y-81395521D01*
X107567216Y-81462836D01*
X107566998Y-81470560D01*
X107566292Y-81473719D01*
X107566541Y-81481642D01*
X107568438Y-81542012D01*
X107568500Y-81545969D01*
X107568500Y-81573983D01*
X107568996Y-81577908D01*
X107568996Y-81577909D01*
X107569008Y-81578004D01*
X107569941Y-81589849D01*
X107571335Y-81634205D01*
X107573547Y-81641817D01*
X107577013Y-81653748D01*
X107581023Y-81673112D01*
X107583573Y-81693299D01*
X107586488Y-81700662D01*
X107586489Y-81700665D01*
X107594535Y-81720985D01*
X107601910Y-81774828D01*
X107602600Y-81774828D01*
X107602600Y-81779867D01*
X107602693Y-81780546D01*
X107602600Y-81781431D01*
X107602600Y-81781435D01*
X107601910Y-81788000D01*
X107620618Y-81965991D01*
X107675923Y-82136203D01*
X107765409Y-82291197D01*
X107885164Y-82424199D01*
X108029955Y-82529396D01*
X108035983Y-82532080D01*
X108035985Y-82532081D01*
X108187423Y-82599505D01*
X108193454Y-82602190D01*
X108280984Y-82620795D01*
X108362057Y-82638028D01*
X108362061Y-82638028D01*
X108368514Y-82639400D01*
X108547486Y-82639400D01*
X108553939Y-82638028D01*
X108553943Y-82638028D01*
X108635016Y-82620795D01*
X108722546Y-82602190D01*
X108728577Y-82599505D01*
X108880015Y-82532081D01*
X108880017Y-82532080D01*
X108886045Y-82529396D01*
X109030836Y-82424199D01*
X109150591Y-82291197D01*
X109240077Y-82136203D01*
X109295382Y-81965991D01*
X109314090Y-81788000D01*
X109295382Y-81610009D01*
X109283677Y-81573983D01*
X109242119Y-81446082D01*
X109240077Y-81439797D01*
X109150591Y-81284803D01*
X109091474Y-81219146D01*
X109035258Y-81156712D01*
X109035257Y-81156711D01*
X109030836Y-81151801D01*
X108976780Y-81112527D01*
X108933428Y-81056305D01*
X108927353Y-80985569D01*
X108933974Y-80964477D01*
X108936269Y-80960596D01*
X108981629Y-80804466D01*
X108982135Y-80798047D01*
X108984307Y-80770444D01*
X108984307Y-80770438D01*
X108984500Y-80767989D01*
X108984499Y-80268012D01*
X108981629Y-80231534D01*
X108936269Y-80075404D01*
X108853506Y-79935459D01*
X108738541Y-79820494D01*
X108731721Y-79816461D01*
X108731715Y-79816456D01*
X108666385Y-79777820D01*
X108617932Y-79725928D01*
X108605227Y-79656077D01*
X108632302Y-79590446D01*
X108695370Y-79548370D01*
X108821786Y-79511642D01*
X108836220Y-79505396D01*
X108963499Y-79430124D01*
X108975926Y-79420484D01*
X109080484Y-79315926D01*
X109090124Y-79303499D01*
X109165396Y-79176220D01*
X109171643Y-79161784D01*
X109213312Y-79018359D01*
X109214768Y-79010391D01*
X109211948Y-78996969D01*
X109200487Y-78994000D01*
X108384500Y-78994000D01*
X108316379Y-78973998D01*
X108269886Y-78920342D01*
X108258500Y-78868000D01*
X108258500Y-78612000D01*
X108278502Y-78543879D01*
X108332158Y-78497386D01*
X108384500Y-78486000D01*
X109198424Y-78486000D01*
X109213219Y-78481656D01*
X109215063Y-78471225D01*
X109213312Y-78461641D01*
X109171643Y-78318216D01*
X109165396Y-78303780D01*
X109090124Y-78176501D01*
X109080484Y-78164074D01*
X108975926Y-78059516D01*
X108963499Y-78049876D01*
X108883813Y-78002750D01*
X108835360Y-77950857D01*
X108823030Y-77877850D01*
X108831962Y-77810005D01*
X108831962Y-77810004D01*
X108832500Y-77805918D01*
X108832500Y-77462500D01*
X108852502Y-77394379D01*
X108906158Y-77347886D01*
X108958500Y-77336500D01*
X109301918Y-77336500D01*
X109415019Y-77321610D01*
X109420231Y-77319451D01*
X109450245Y-77315500D01*
X109982500Y-77315500D01*
X110050621Y-77335502D01*
X110097114Y-77389158D01*
X110108500Y-77441500D01*
X110108500Y-77617031D01*
X110088498Y-77685152D01*
X110076142Y-77701335D01*
X110051409Y-77728803D01*
X110048108Y-77734521D01*
X109965357Y-77877850D01*
X109961923Y-77883797D01*
X109906618Y-78054009D01*
X109905928Y-78060572D01*
X109905928Y-78060573D01*
X109891901Y-78194033D01*
X109887910Y-78232000D01*
X109888600Y-78238565D01*
X109895455Y-78303780D01*
X109906618Y-78409991D01*
X109961923Y-78580203D01*
X110051409Y-78735197D01*
X110171164Y-78868199D01*
X110176506Y-78872080D01*
X110176508Y-78872082D01*
X110264650Y-78936121D01*
X110315955Y-78973396D01*
X110321983Y-78976080D01*
X110321985Y-78976081D01*
X110403232Y-79012254D01*
X110479454Y-79046190D01*
X110566984Y-79064795D01*
X110648057Y-79082028D01*
X110648061Y-79082028D01*
X110654514Y-79083400D01*
X110833486Y-79083400D01*
X110839939Y-79082028D01*
X110839943Y-79082028D01*
X110921016Y-79064795D01*
X111008546Y-79046190D01*
X111084768Y-79012254D01*
X111166015Y-78976081D01*
X111166017Y-78976080D01*
X111172045Y-78973396D01*
X111223350Y-78936121D01*
X111311492Y-78872082D01*
X111311494Y-78872080D01*
X111316836Y-78868199D01*
X111436591Y-78735197D01*
X111526077Y-78580203D01*
X111581382Y-78409991D01*
X111592546Y-78303780D01*
X111599400Y-78238565D01*
X111600090Y-78232000D01*
X111596099Y-78194033D01*
X111582072Y-78060573D01*
X111582072Y-78060572D01*
X111581382Y-78054009D01*
X111526077Y-77883797D01*
X111522644Y-77877850D01*
X111439892Y-77734521D01*
X111436591Y-77728803D01*
X111411863Y-77701340D01*
X111381147Y-77637334D01*
X111379500Y-77617031D01*
X111379500Y-77587499D01*
X111399502Y-77519378D01*
X111453158Y-77472885D01*
X111528141Y-77463550D01*
X111529564Y-77463810D01*
X111535746Y-77465606D01*
X111542160Y-77466111D01*
X111542161Y-77466111D01*
X111570060Y-77468307D01*
X111570068Y-77468307D01*
X111572516Y-77468500D01*
X112043484Y-77468500D01*
X112045932Y-77468307D01*
X112045940Y-77468307D01*
X112073844Y-77466111D01*
X112073849Y-77466110D01*
X112080254Y-77465606D01*
X112179005Y-77436916D01*
X112229984Y-77422106D01*
X112229986Y-77422105D01*
X112237597Y-77419894D01*
X112378629Y-77336488D01*
X112379616Y-77338158D01*
X112436059Y-77315994D01*
X112447205Y-77315500D01*
X112724980Y-77315500D01*
X112736214Y-77316030D01*
X112743719Y-77317708D01*
X112812012Y-77315562D01*
X112815969Y-77315500D01*
X112843983Y-77315500D01*
X112847908Y-77315004D01*
X112847909Y-77315004D01*
X112848004Y-77314992D01*
X112859849Y-77314059D01*
X112889670Y-77313122D01*
X112896282Y-77312914D01*
X112896283Y-77312914D01*
X112904205Y-77312665D01*
X112923749Y-77306987D01*
X112943112Y-77302977D01*
X112955440Y-77301420D01*
X112955442Y-77301420D01*
X112963299Y-77300427D01*
X112970663Y-77297511D01*
X112970668Y-77297510D01*
X113004556Y-77284093D01*
X113015785Y-77280248D01*
X113032465Y-77275402D01*
X113058393Y-77267869D01*
X113065220Y-77263831D01*
X113065223Y-77263830D01*
X113075906Y-77257512D01*
X113093664Y-77248812D01*
X113105215Y-77244239D01*
X113105221Y-77244235D01*
X113112588Y-77241319D01*
X113148491Y-77215234D01*
X113158410Y-77208719D01*
X113189768Y-77190174D01*
X113189772Y-77190171D01*
X113196598Y-77186134D01*
X113210982Y-77171750D01*
X113226016Y-77158909D01*
X113236073Y-77151602D01*
X113242487Y-77146942D01*
X113270773Y-77112750D01*
X113278763Y-77103969D01*
X113931488Y-76451245D01*
X113939807Y-76443675D01*
X113946303Y-76439553D01*
X113993086Y-76389734D01*
X113995840Y-76386893D01*
X114015639Y-76367094D01*
X114018063Y-76363969D01*
X114018071Y-76363960D01*
X114018137Y-76363874D01*
X114025845Y-76354849D01*
X114050790Y-76328285D01*
X114056217Y-76322506D01*
X114066023Y-76304669D01*
X114076873Y-76288153D01*
X114089350Y-76272067D01*
X114106976Y-76231334D01*
X114112193Y-76220686D01*
X114129749Y-76188751D01*
X114133569Y-76181803D01*
X114135540Y-76174128D01*
X114135542Y-76174122D01*
X114138631Y-76162089D01*
X114145034Y-76143387D01*
X114153117Y-76124708D01*
X114160060Y-76080873D01*
X114162467Y-76069251D01*
X114168822Y-76044500D01*
X114173500Y-76026282D01*
X114173500Y-76005935D01*
X114175051Y-75986224D01*
X114176995Y-75973950D01*
X114178235Y-75966121D01*
X114174059Y-75921944D01*
X114173500Y-75910086D01*
X114173500Y-66881020D01*
X114174029Y-66869791D01*
X114175708Y-66862281D01*
X114173562Y-66794001D01*
X114173500Y-66790044D01*
X114173500Y-66762017D01*
X114172989Y-66757971D01*
X114172057Y-66746136D01*
X114172034Y-66745382D01*
X114170664Y-66701795D01*
X114164987Y-66682254D01*
X114160978Y-66662894D01*
X114159421Y-66650566D01*
X114159420Y-66650563D01*
X114158427Y-66642701D01*
X114155510Y-66635335D01*
X114155509Y-66635329D01*
X114142091Y-66601439D01*
X114138246Y-66590210D01*
X114132091Y-66569025D01*
X114125869Y-66547607D01*
X114121836Y-66540788D01*
X114121834Y-66540783D01*
X114115510Y-66530091D01*
X114106813Y-66512341D01*
X114099319Y-66493412D01*
X114073240Y-66457517D01*
X114066722Y-66447595D01*
X114048170Y-66416224D01*
X114048166Y-66416219D01*
X114044134Y-66409401D01*
X114029747Y-66395014D01*
X114016906Y-66379980D01*
X114009602Y-66369927D01*
X114004942Y-66363513D01*
X113970750Y-66335227D01*
X113961971Y-66327238D01*
X113756715Y-66121982D01*
X117243142Y-66121982D01*
X117250668Y-66132415D01*
X117396463Y-66249848D01*
X117402648Y-66254244D01*
X117678363Y-66426195D01*
X117685034Y-66429817D01*
X117979414Y-66567402D01*
X117986468Y-66570195D01*
X118295257Y-66671420D01*
X118302570Y-66673339D01*
X118621298Y-66736738D01*
X118628789Y-66737764D01*
X118952823Y-66762413D01*
X118960386Y-66762531D01*
X119285021Y-66748074D01*
X119292562Y-66747282D01*
X119613115Y-66693926D01*
X119620479Y-66692240D01*
X119932315Y-66600757D01*
X119939424Y-66598198D01*
X120238003Y-66469919D01*
X120244770Y-66466515D01*
X120525764Y-66303301D01*
X120532071Y-66299111D01*
X120750005Y-66134588D01*
X120758461Y-66123197D01*
X120751743Y-66110953D01*
X119012812Y-64372022D01*
X118998868Y-64364408D01*
X118997035Y-64364539D01*
X118990420Y-64368790D01*
X117250257Y-66108953D01*
X117243142Y-66121982D01*
X113756715Y-66121982D01*
X112624085Y-64989352D01*
X112590059Y-64927040D01*
X112595124Y-64856225D01*
X112637671Y-64799389D01*
X112697240Y-64776033D01*
X112697219Y-64775935D01*
X112697811Y-64775809D01*
X112700010Y-64774947D01*
X112703682Y-64774561D01*
X112710247Y-64773871D01*
X112716525Y-64771831D01*
X112716526Y-64771831D01*
X112844979Y-64730094D01*
X112887876Y-64716156D01*
X113029162Y-64634585D01*
X113043903Y-64626074D01*
X113049624Y-64622771D01*
X113054532Y-64618352D01*
X113183518Y-64502212D01*
X113183519Y-64502210D01*
X113188421Y-64497797D01*
X113226127Y-64445900D01*
X113294321Y-64352039D01*
X113294322Y-64352038D01*
X113298202Y-64346697D01*
X113315904Y-64306939D01*
X113371483Y-64182105D01*
X113371483Y-64182104D01*
X113374168Y-64176074D01*
X113400247Y-64053383D01*
X113411628Y-63999842D01*
X113411628Y-63999837D01*
X113413000Y-63993385D01*
X113413000Y-63974858D01*
X116237299Y-63974858D01*
X116253456Y-64299410D01*
X116254287Y-64306939D01*
X116309318Y-64627198D01*
X116311051Y-64634585D01*
X116404156Y-64945909D01*
X116406759Y-64953022D01*
X116536595Y-65250913D01*
X116540037Y-65257669D01*
X116704720Y-65537803D01*
X116708943Y-65544088D01*
X116865792Y-65749608D01*
X116877316Y-65758069D01*
X116889382Y-65751408D01*
X118627978Y-64012812D01*
X118635592Y-63998868D01*
X118635461Y-63997035D01*
X118631210Y-63990420D01*
X116890864Y-62250074D01*
X116877929Y-62243011D01*
X116867367Y-62250671D01*
X116741785Y-62408268D01*
X116737428Y-62414467D01*
X116566913Y-62691094D01*
X116563333Y-62697770D01*
X116427287Y-62992878D01*
X116424537Y-62999929D01*
X116324927Y-63309251D01*
X116323044Y-63316584D01*
X116261316Y-63635632D01*
X116260329Y-63643132D01*
X116237378Y-63967277D01*
X116237299Y-63974858D01*
X113413000Y-63974858D01*
X113413000Y-63806615D01*
X113374168Y-63623926D01*
X113355399Y-63581770D01*
X113300887Y-63459333D01*
X113300886Y-63459331D01*
X113298202Y-63453303D01*
X113188421Y-63302203D01*
X113103871Y-63226073D01*
X113054532Y-63181648D01*
X113054531Y-63181647D01*
X113049624Y-63177229D01*
X112887876Y-63083844D01*
X112781366Y-63049237D01*
X112716526Y-63028169D01*
X112716525Y-63028169D01*
X112710247Y-63026129D01*
X112703684Y-63025439D01*
X112703683Y-63025439D01*
X112680903Y-63023045D01*
X112571063Y-63011500D01*
X112477937Y-63011500D01*
X112368097Y-63023045D01*
X112345317Y-63025439D01*
X112345316Y-63025439D01*
X112338753Y-63026129D01*
X112332475Y-63028169D01*
X112332474Y-63028169D01*
X112267634Y-63049237D01*
X112161124Y-63083844D01*
X111999376Y-63177229D01*
X111994469Y-63181647D01*
X111994468Y-63181648D01*
X111945130Y-63226073D01*
X111860579Y-63302203D01*
X111750798Y-63453303D01*
X111748114Y-63459331D01*
X111748113Y-63459333D01*
X111693601Y-63581770D01*
X111674832Y-63623926D01*
X111636000Y-63806615D01*
X111636000Y-63872136D01*
X111615998Y-63940257D01*
X111562342Y-63986750D01*
X111490279Y-63996583D01*
X111489364Y-63996438D01*
X111477760Y-63994035D01*
X111434782Y-63983000D01*
X111414435Y-63983000D01*
X111394724Y-63981449D01*
X111382450Y-63979505D01*
X111374621Y-63978265D01*
X111366729Y-63979011D01*
X111330444Y-63982441D01*
X111318586Y-63983000D01*
X105359812Y-63983000D01*
X105291691Y-63962998D01*
X105245198Y-63909342D01*
X105235094Y-63839068D01*
X105250693Y-63794000D01*
X105275273Y-63751426D01*
X105275274Y-63751425D01*
X105278577Y-63745703D01*
X105333882Y-63575491D01*
X105352590Y-63397500D01*
X105343541Y-63311404D01*
X105334572Y-63226073D01*
X105334572Y-63226072D01*
X105333882Y-63219509D01*
X105321580Y-63181648D01*
X105280572Y-63055436D01*
X105280572Y-62977564D01*
X105331842Y-62819770D01*
X105331842Y-62819769D01*
X105333882Y-62813491D01*
X105336076Y-62792622D01*
X105351900Y-62642065D01*
X105352590Y-62635500D01*
X105333882Y-62457509D01*
X105330470Y-62447006D01*
X105280619Y-62293582D01*
X105278577Y-62287297D01*
X105189091Y-62132303D01*
X105069336Y-61999301D01*
X104924545Y-61894104D01*
X104918517Y-61891420D01*
X104918515Y-61891419D01*
X104767077Y-61823995D01*
X104767076Y-61823995D01*
X104761046Y-61821310D01*
X104647847Y-61797249D01*
X104592442Y-61785472D01*
X104592440Y-61785472D01*
X104585986Y-61784100D01*
X104582459Y-61784100D01*
X104513609Y-61753876D01*
X104512094Y-61752361D01*
X104508959Y-61749930D01*
X104508952Y-61749923D01*
X104508874Y-61749863D01*
X104499849Y-61742155D01*
X104473285Y-61717210D01*
X104467506Y-61711783D01*
X104449669Y-61701977D01*
X104433153Y-61691127D01*
X104417067Y-61678650D01*
X104416083Y-61678224D01*
X104369712Y-61628563D01*
X104357006Y-61558712D01*
X104384080Y-61493081D01*
X104442340Y-61452506D01*
X104482303Y-61446000D01*
X117440435Y-61446000D01*
X117508556Y-61466002D01*
X117555049Y-61519658D01*
X117565153Y-61589932D01*
X117535659Y-61654512D01*
X117504858Y-61680285D01*
X117450196Y-61712805D01*
X117443945Y-61717053D01*
X117250733Y-61866115D01*
X117242267Y-61877773D01*
X117248871Y-61889661D01*
X118987188Y-63627978D01*
X119001132Y-63635592D01*
X119002965Y-63635461D01*
X119009580Y-63631210D01*
X120750162Y-61890628D01*
X120757174Y-61877787D01*
X120749379Y-61867098D01*
X120579886Y-61733481D01*
X120573663Y-61729156D01*
X120492326Y-61679605D01*
X120444557Y-61627082D01*
X120432767Y-61557071D01*
X120460699Y-61491800D01*
X120519485Y-61451992D01*
X120557879Y-61446000D01*
X121361000Y-61446000D01*
X121429121Y-61466002D01*
X121475614Y-61519658D01*
X121487000Y-61572000D01*
X121487000Y-62337698D01*
X121466998Y-62405819D01*
X121413342Y-62452312D01*
X121343068Y-62462416D01*
X121278488Y-62432922D01*
X121261643Y-62415184D01*
X121133617Y-62251022D01*
X121121823Y-62242551D01*
X121110113Y-62249097D01*
X119372022Y-63987188D01*
X119364408Y-64001132D01*
X119364539Y-64002965D01*
X119368790Y-64009580D01*
X121108825Y-65749615D01*
X121121948Y-65756781D01*
X121132250Y-65749391D01*
X121241429Y-65615285D01*
X121245838Y-65609149D01*
X121254437Y-65595520D01*
X121307703Y-65548581D01*
X121377891Y-65537891D01*
X121442715Y-65566844D01*
X121481596Y-65626248D01*
X121487000Y-65662754D01*
X121487000Y-86304000D01*
X121466998Y-86372121D01*
X121413342Y-86418614D01*
X121361000Y-86430000D01*
X92629000Y-86430000D01*
X92560879Y-86409998D01*
X92514386Y-86356342D01*
X92503000Y-86304000D01*
X92503000Y-80788003D01*
X104377579Y-80788003D01*
X104378363Y-80797977D01*
X104380662Y-80810564D01*
X104421981Y-80952783D01*
X104428230Y-80967222D01*
X104502854Y-81093405D01*
X104512501Y-81105841D01*
X104616159Y-81209499D01*
X104628595Y-81219146D01*
X104754778Y-81293770D01*
X104769217Y-81300019D01*
X104882605Y-81332961D01*
X104896705Y-81332921D01*
X104900000Y-81325651D01*
X104900000Y-80790115D01*
X104895525Y-80774876D01*
X104894135Y-80773671D01*
X104886452Y-80772000D01*
X104394434Y-80772000D01*
X104379639Y-80776344D01*
X104377579Y-80788003D01*
X92503000Y-80788003D01*
X92503000Y-78469609D01*
X104145232Y-78469609D01*
X104148052Y-78483031D01*
X104159513Y-78486000D01*
X104657885Y-78486000D01*
X104673124Y-78481525D01*
X104674329Y-78480135D01*
X104676000Y-78472452D01*
X104676000Y-77946442D01*
X104672027Y-77932911D01*
X104664129Y-77931776D01*
X104538216Y-77968357D01*
X104523780Y-77974604D01*
X104396501Y-78049876D01*
X104384074Y-78059516D01*
X104279516Y-78164074D01*
X104269876Y-78176501D01*
X104194604Y-78303780D01*
X104188357Y-78318216D01*
X104146688Y-78461641D01*
X104145232Y-78469609D01*
X92503000Y-78469609D01*
X92503000Y-76518502D01*
X93298500Y-76518502D01*
X93298693Y-76520950D01*
X93298693Y-76520958D01*
X93300927Y-76549333D01*
X93301438Y-76555831D01*
X93309681Y-76584204D01*
X93345586Y-76707790D01*
X93347855Y-76715601D01*
X93351892Y-76722427D01*
X93428509Y-76851980D01*
X93428511Y-76851983D01*
X93432547Y-76858807D01*
X93550193Y-76976453D01*
X93557016Y-76980488D01*
X93557020Y-76980491D01*
X93661223Y-77042116D01*
X93693399Y-77061145D01*
X93701010Y-77063356D01*
X93701012Y-77063357D01*
X93753231Y-77078528D01*
X93853169Y-77107562D01*
X93859574Y-77108066D01*
X93859579Y-77108067D01*
X93888042Y-77110307D01*
X93888050Y-77110307D01*
X93890498Y-77110500D01*
X94323502Y-77110500D01*
X94325950Y-77110307D01*
X94325958Y-77110307D01*
X94354421Y-77108067D01*
X94354426Y-77108066D01*
X94360831Y-77107562D01*
X94460769Y-77078528D01*
X94512988Y-77063357D01*
X94512990Y-77063356D01*
X94520601Y-77061145D01*
X94663807Y-76976453D01*
X94666489Y-76973771D01*
X94730861Y-76948498D01*
X94800484Y-76962400D01*
X94816312Y-76972572D01*
X94820193Y-76976453D01*
X94963399Y-77061145D01*
X94971010Y-77063356D01*
X94971012Y-77063357D01*
X95023231Y-77078528D01*
X95123169Y-77107562D01*
X95129574Y-77108066D01*
X95129579Y-77108067D01*
X95158042Y-77110307D01*
X95158050Y-77110307D01*
X95160498Y-77110500D01*
X95593502Y-77110500D01*
X95595950Y-77110307D01*
X95595958Y-77110307D01*
X95624421Y-77108067D01*
X95624426Y-77108066D01*
X95630831Y-77107562D01*
X95730769Y-77078528D01*
X95782988Y-77063357D01*
X95782990Y-77063356D01*
X95790601Y-77061145D01*
X95933807Y-76976453D01*
X95936489Y-76973771D01*
X96000861Y-76948498D01*
X96070484Y-76962400D01*
X96086312Y-76972572D01*
X96090193Y-76976453D01*
X96233399Y-77061145D01*
X96241010Y-77063356D01*
X96241012Y-77063357D01*
X96293231Y-77078528D01*
X96393169Y-77107562D01*
X96399574Y-77108066D01*
X96399579Y-77108067D01*
X96428042Y-77110307D01*
X96428050Y-77110307D01*
X96430498Y-77110500D01*
X96863502Y-77110500D01*
X96865950Y-77110307D01*
X96865958Y-77110307D01*
X96894421Y-77108067D01*
X96894426Y-77108066D01*
X96900831Y-77107562D01*
X97000769Y-77078528D01*
X97052988Y-77063357D01*
X97052990Y-77063356D01*
X97060601Y-77061145D01*
X97203807Y-76976453D01*
X97206747Y-76973513D01*
X97271271Y-76948179D01*
X97340894Y-76962080D01*
X97359640Y-76974129D01*
X97367323Y-76980089D01*
X97496779Y-77056648D01*
X97511210Y-77062893D01*
X97645605Y-77101939D01*
X97659706Y-77101899D01*
X97663000Y-77094630D01*
X97663000Y-77088878D01*
X98171000Y-77088878D01*
X98174973Y-77102409D01*
X98182871Y-77103544D01*
X98322790Y-77062893D01*
X98337221Y-77056648D01*
X98466678Y-76980089D01*
X98479104Y-76970449D01*
X98585449Y-76864104D01*
X98595089Y-76851678D01*
X98671648Y-76722221D01*
X98677893Y-76707790D01*
X98720269Y-76561935D01*
X98722570Y-76549333D01*
X98724807Y-76520916D01*
X98725000Y-76515986D01*
X98725000Y-75899115D01*
X98720525Y-75883876D01*
X98719135Y-75882671D01*
X98711452Y-75881000D01*
X98189115Y-75881000D01*
X98173876Y-75885475D01*
X98172671Y-75886865D01*
X98171000Y-75894548D01*
X98171000Y-77088878D01*
X97663000Y-77088878D01*
X97663000Y-75354885D01*
X98171000Y-75354885D01*
X98175475Y-75370124D01*
X98176865Y-75371329D01*
X98184548Y-75373000D01*
X98706884Y-75373000D01*
X98722123Y-75368525D01*
X98723328Y-75367135D01*
X98724999Y-75359452D01*
X98724999Y-74738017D01*
X98724805Y-74733080D01*
X98722570Y-74704664D01*
X98720270Y-74692069D01*
X98677893Y-74546210D01*
X98671648Y-74531779D01*
X98595089Y-74402322D01*
X98585449Y-74389896D01*
X98479104Y-74283551D01*
X98466678Y-74273911D01*
X98337221Y-74197352D01*
X98322790Y-74191107D01*
X98188395Y-74152061D01*
X98174294Y-74152101D01*
X98171000Y-74159370D01*
X98171000Y-75354885D01*
X97663000Y-75354885D01*
X97663000Y-74165122D01*
X97659027Y-74151591D01*
X97651129Y-74150456D01*
X97511210Y-74191107D01*
X97496779Y-74197352D01*
X97367324Y-74273910D01*
X97359636Y-74279874D01*
X97293551Y-74305821D01*
X97223928Y-74291920D01*
X97207842Y-74281582D01*
X97203807Y-74277547D01*
X97060601Y-74192855D01*
X97052990Y-74190644D01*
X97052988Y-74190643D01*
X96965142Y-74165122D01*
X96900831Y-74146438D01*
X96894426Y-74145934D01*
X96894421Y-74145933D01*
X96865958Y-74143693D01*
X96865950Y-74143693D01*
X96863502Y-74143500D01*
X96430498Y-74143500D01*
X96428050Y-74143693D01*
X96428042Y-74143693D01*
X96399579Y-74145933D01*
X96399574Y-74145934D01*
X96393169Y-74146438D01*
X96328858Y-74165122D01*
X96241012Y-74190643D01*
X96241010Y-74190644D01*
X96233399Y-74192855D01*
X96090193Y-74277547D01*
X96087511Y-74280229D01*
X96023139Y-74305502D01*
X95953516Y-74291600D01*
X95937688Y-74281428D01*
X95933807Y-74277547D01*
X95790601Y-74192855D01*
X95782990Y-74190644D01*
X95782988Y-74190643D01*
X95695142Y-74165122D01*
X95630831Y-74146438D01*
X95624426Y-74145934D01*
X95624421Y-74145933D01*
X95595958Y-74143693D01*
X95595950Y-74143693D01*
X95593502Y-74143500D01*
X95160498Y-74143500D01*
X95158050Y-74143693D01*
X95158042Y-74143693D01*
X95129579Y-74145933D01*
X95129574Y-74145934D01*
X95123169Y-74146438D01*
X95058858Y-74165122D01*
X94971012Y-74190643D01*
X94971010Y-74190644D01*
X94963399Y-74192855D01*
X94820193Y-74277547D01*
X94817511Y-74280229D01*
X94753139Y-74305502D01*
X94683516Y-74291600D01*
X94667688Y-74281428D01*
X94663807Y-74277547D01*
X94520601Y-74192855D01*
X94512990Y-74190644D01*
X94512988Y-74190643D01*
X94425142Y-74165122D01*
X94360831Y-74146438D01*
X94354426Y-74145934D01*
X94354421Y-74145933D01*
X94325958Y-74143693D01*
X94325950Y-74143693D01*
X94323502Y-74143500D01*
X93890498Y-74143500D01*
X93888050Y-74143693D01*
X93888042Y-74143693D01*
X93859579Y-74145933D01*
X93859574Y-74145934D01*
X93853169Y-74146438D01*
X93788858Y-74165122D01*
X93701012Y-74190643D01*
X93701010Y-74190644D01*
X93693399Y-74192855D01*
X93686572Y-74196892D01*
X93686573Y-74196892D01*
X93557020Y-74273509D01*
X93557017Y-74273511D01*
X93550193Y-74277547D01*
X93432547Y-74395193D01*
X93428511Y-74402017D01*
X93428509Y-74402020D01*
X93388521Y-74469636D01*
X93347855Y-74538399D01*
X93345644Y-74546010D01*
X93345643Y-74546012D01*
X93330472Y-74598231D01*
X93301438Y-74698169D01*
X93300934Y-74704574D01*
X93300933Y-74704579D01*
X93298693Y-74733042D01*
X93298500Y-74735498D01*
X93298500Y-76518502D01*
X92503000Y-76518502D01*
X92503000Y-66121982D01*
X93243142Y-66121982D01*
X93250668Y-66132415D01*
X93396463Y-66249848D01*
X93402648Y-66254244D01*
X93678363Y-66426195D01*
X93685034Y-66429817D01*
X93979414Y-66567402D01*
X93986468Y-66570195D01*
X94295257Y-66671420D01*
X94302570Y-66673339D01*
X94621298Y-66736738D01*
X94628789Y-66737764D01*
X94952823Y-66762413D01*
X94960386Y-66762531D01*
X95285021Y-66748074D01*
X95292562Y-66747282D01*
X95613115Y-66693926D01*
X95620479Y-66692240D01*
X95932315Y-66600757D01*
X95939424Y-66598198D01*
X96238003Y-66469919D01*
X96244770Y-66466515D01*
X96525764Y-66303301D01*
X96532071Y-66299111D01*
X96750005Y-66134588D01*
X96758461Y-66123197D01*
X96751743Y-66110953D01*
X95012812Y-64372022D01*
X94998868Y-64364408D01*
X94997035Y-64364539D01*
X94990420Y-64368790D01*
X93250257Y-66108953D01*
X93243142Y-66121982D01*
X92503000Y-66121982D01*
X92503000Y-65647024D01*
X92523002Y-65578903D01*
X92576658Y-65532410D01*
X92646932Y-65522306D01*
X92711512Y-65551800D01*
X92729163Y-65570582D01*
X92865792Y-65749608D01*
X92877316Y-65758069D01*
X92889382Y-65751408D01*
X94627978Y-64012812D01*
X94635592Y-63998868D01*
X94635461Y-63997035D01*
X94631210Y-63990420D01*
X92890864Y-62250074D01*
X92877929Y-62243011D01*
X92867367Y-62250671D01*
X92741785Y-62408268D01*
X92737427Y-62414469D01*
X92736261Y-62416360D01*
X92735816Y-62416760D01*
X92735245Y-62417573D01*
X92735059Y-62417442D01*
X92683489Y-62463855D01*
X92613418Y-62475279D01*
X92548294Y-62447006D01*
X92508793Y-62388012D01*
X92503000Y-62350246D01*
X92503000Y-61572000D01*
X92523002Y-61503879D01*
X92576658Y-61457386D01*
X92629000Y-61446000D01*
X93440435Y-61446000D01*
X93508556Y-61466002D01*
G37*
%TD.AperFunction*%
%TA.AperFunction,Conductor*%
G36*
X112814327Y-67549671D02*
G01*
X112873300Y-67589201D01*
X112901541Y-67654339D01*
X112902500Y-67669859D01*
X112902500Y-69570665D01*
X112891028Y-69609736D01*
X112901461Y-69633471D01*
X112902500Y-69649621D01*
X112902500Y-75630577D01*
X112882498Y-75698698D01*
X112865595Y-75719673D01*
X112648171Y-75937096D01*
X112585859Y-75971121D01*
X112559076Y-75974000D01*
X112329379Y-75974000D01*
X112265240Y-75956454D01*
X112244420Y-75944141D01*
X112244419Y-75944141D01*
X112237597Y-75940106D01*
X112229986Y-75937895D01*
X112229984Y-75937894D01*
X112175082Y-75921944D01*
X112080254Y-75894394D01*
X112073849Y-75893890D01*
X112073844Y-75893889D01*
X112045940Y-75891693D01*
X112045932Y-75891693D01*
X112043484Y-75891500D01*
X111572516Y-75891500D01*
X111570068Y-75891693D01*
X111570060Y-75891693D01*
X111542156Y-75893889D01*
X111542151Y-75893890D01*
X111535746Y-75894394D01*
X111440918Y-75921944D01*
X111386016Y-75937894D01*
X111386014Y-75937895D01*
X111378403Y-75940106D01*
X111371581Y-75944141D01*
X111371580Y-75944141D01*
X111350760Y-75956454D01*
X111286621Y-75974000D01*
X111265379Y-75974000D01*
X111201240Y-75956454D01*
X111180420Y-75944141D01*
X111180419Y-75944141D01*
X111173597Y-75940106D01*
X111165986Y-75937895D01*
X111165984Y-75937894D01*
X111111082Y-75921944D01*
X111016254Y-75894394D01*
X111009849Y-75893890D01*
X111009844Y-75893889D01*
X110981940Y-75891693D01*
X110981932Y-75891693D01*
X110979484Y-75891500D01*
X110616000Y-75891500D01*
X110547879Y-75871498D01*
X110501386Y-75817842D01*
X110490000Y-75765500D01*
X110490000Y-75447885D01*
X110998000Y-75447885D01*
X111002475Y-75463124D01*
X111003865Y-75464329D01*
X111011548Y-75466000D01*
X111535885Y-75466000D01*
X111551124Y-75461525D01*
X111552329Y-75460135D01*
X111554000Y-75452452D01*
X111554000Y-75447885D01*
X112062000Y-75447885D01*
X112066475Y-75463124D01*
X112067865Y-75464329D01*
X112075548Y-75466000D01*
X112601558Y-75466000D01*
X112615089Y-75462027D01*
X112616224Y-75454129D01*
X112579643Y-75328216D01*
X112573396Y-75313780D01*
X112498124Y-75186501D01*
X112488484Y-75174074D01*
X112383926Y-75069516D01*
X112371499Y-75059876D01*
X112244220Y-74984604D01*
X112229784Y-74978357D01*
X112086359Y-74936688D01*
X112078391Y-74935232D01*
X112064969Y-74938052D01*
X112062000Y-74949513D01*
X112062000Y-75447885D01*
X111554000Y-75447885D01*
X111554000Y-74951576D01*
X111549656Y-74936781D01*
X111539225Y-74934937D01*
X111529641Y-74936688D01*
X111386216Y-74978357D01*
X111371776Y-74984606D01*
X111340138Y-75003316D01*
X111271322Y-75020775D01*
X111211862Y-75003316D01*
X111180224Y-74984606D01*
X111165784Y-74978357D01*
X111022359Y-74936688D01*
X111014391Y-74935232D01*
X111000969Y-74938052D01*
X110998000Y-74949513D01*
X110998000Y-75447885D01*
X110490000Y-75447885D01*
X110490000Y-74951576D01*
X110485656Y-74936781D01*
X110475225Y-74934937D01*
X110465641Y-74936688D01*
X110322216Y-74978357D01*
X110307780Y-74984604D01*
X110180501Y-75059876D01*
X110168074Y-75069516D01*
X110057910Y-75179680D01*
X110055512Y-75177282D01*
X110010490Y-75209789D01*
X109939597Y-75213631D01*
X109877881Y-75178536D01*
X109844936Y-75115647D01*
X109842500Y-75090991D01*
X109842500Y-75080082D01*
X109827610Y-74966981D01*
X109827467Y-74966636D01*
X109827467Y-74909364D01*
X109827610Y-74909019D01*
X109842500Y-74795918D01*
X109842500Y-74580082D01*
X109827610Y-74466981D01*
X109827206Y-74466006D01*
X109827206Y-74408899D01*
X109827123Y-74408888D01*
X109827206Y-74408258D01*
X109827206Y-74404413D01*
X109828201Y-74400700D01*
X109835408Y-74345960D01*
X109833196Y-74331779D01*
X109802993Y-74323105D01*
X109804014Y-74319550D01*
X109764673Y-74307998D01*
X109732836Y-74278709D01*
X109711345Y-74250701D01*
X109685746Y-74184483D01*
X109700011Y-74114934D01*
X109749612Y-74064139D01*
X109811309Y-74048000D01*
X109819656Y-74048000D01*
X109833427Y-74043956D01*
X109835456Y-74030417D01*
X109828201Y-73975299D01*
X109823963Y-73959484D01*
X109772042Y-73834136D01*
X109763855Y-73819955D01*
X109681257Y-73712310D01*
X109669690Y-73700743D01*
X109562045Y-73618145D01*
X109547864Y-73609958D01*
X109422517Y-73558037D01*
X109406699Y-73553799D01*
X109305974Y-73540538D01*
X109297765Y-73540000D01*
X109092115Y-73540000D01*
X109076876Y-73544475D01*
X109054611Y-73570170D01*
X109053799Y-73569466D01*
X109047596Y-73580826D01*
X108985284Y-73614851D01*
X108914468Y-73609787D01*
X108857632Y-73567241D01*
X108832821Y-73500721D01*
X108832500Y-73491731D01*
X108832500Y-73070082D01*
X108817610Y-72956981D01*
X108806251Y-72929558D01*
X109192000Y-72929558D01*
X109195973Y-72943089D01*
X109203871Y-72944224D01*
X109329784Y-72907643D01*
X109344220Y-72901396D01*
X109471499Y-72826124D01*
X109483926Y-72816484D01*
X109588484Y-72711926D01*
X109598124Y-72699499D01*
X109673396Y-72572220D01*
X109679643Y-72557784D01*
X109721312Y-72414359D01*
X109722768Y-72406391D01*
X109719948Y-72392969D01*
X109708487Y-72390000D01*
X109210115Y-72390000D01*
X109194876Y-72394475D01*
X109193671Y-72395865D01*
X109192000Y-72403548D01*
X109192000Y-72929558D01*
X108806251Y-72929558D01*
X108759319Y-72816254D01*
X108710038Y-72752030D01*
X108684437Y-72685810D01*
X108684000Y-72675326D01*
X108684000Y-72657379D01*
X108701546Y-72593240D01*
X108713859Y-72572420D01*
X108713859Y-72572419D01*
X108717894Y-72565597D01*
X108763606Y-72408254D01*
X108764582Y-72395865D01*
X108766307Y-72373940D01*
X108766307Y-72373932D01*
X108766500Y-72371484D01*
X108766500Y-71900516D01*
X108765043Y-71882000D01*
X108764111Y-71870156D01*
X108764110Y-71870151D01*
X108763617Y-71863885D01*
X109192000Y-71863885D01*
X109196475Y-71879124D01*
X109197865Y-71880329D01*
X109205548Y-71882000D01*
X109706424Y-71882000D01*
X109721219Y-71877656D01*
X109723063Y-71867225D01*
X109721312Y-71857641D01*
X109679643Y-71714216D01*
X109673396Y-71699780D01*
X109598124Y-71572501D01*
X109588484Y-71560074D01*
X109483926Y-71455516D01*
X109471499Y-71445876D01*
X109344220Y-71370604D01*
X109329784Y-71364357D01*
X109209395Y-71329381D01*
X109195295Y-71329421D01*
X109192000Y-71336691D01*
X109192000Y-71863885D01*
X108763617Y-71863885D01*
X108763606Y-71863746D01*
X108717894Y-71706403D01*
X108701546Y-71678760D01*
X108684000Y-71614621D01*
X108684000Y-71342442D01*
X108680027Y-71328911D01*
X108672129Y-71327776D01*
X108546216Y-71364357D01*
X108531778Y-71370605D01*
X108522628Y-71376016D01*
X108453812Y-71393474D01*
X108394353Y-71376015D01*
X108384423Y-71370143D01*
X108384424Y-71370143D01*
X108377597Y-71366106D01*
X108369986Y-71363895D01*
X108369984Y-71363894D01*
X108296144Y-71342442D01*
X108220254Y-71320394D01*
X108213849Y-71319890D01*
X108213844Y-71319889D01*
X108185940Y-71317693D01*
X108185932Y-71317693D01*
X108183484Y-71317500D01*
X107772516Y-71317500D01*
X107770068Y-71317693D01*
X107770060Y-71317693D01*
X107742156Y-71319889D01*
X107742151Y-71319890D01*
X107735746Y-71320394D01*
X107659856Y-71342442D01*
X107586016Y-71363894D01*
X107586014Y-71363895D01*
X107578403Y-71366106D01*
X107571581Y-71370141D01*
X107571580Y-71370141D01*
X107569735Y-71371232D01*
X107437371Y-71449512D01*
X107321512Y-71565371D01*
X107238106Y-71706403D01*
X107192394Y-71863746D01*
X107191890Y-71870151D01*
X107191889Y-71870156D01*
X107190957Y-71882000D01*
X107189500Y-71900516D01*
X107189500Y-71981600D01*
X107169576Y-72049455D01*
X107165783Y-72053494D01*
X107161965Y-72060439D01*
X107155978Y-72071329D01*
X107145127Y-72087847D01*
X107132650Y-72103933D01*
X107115024Y-72144666D01*
X107109807Y-72155314D01*
X107088431Y-72194197D01*
X107086460Y-72201872D01*
X107086458Y-72201878D01*
X107083369Y-72213911D01*
X107076966Y-72232613D01*
X107068883Y-72251292D01*
X107067644Y-72259117D01*
X107066496Y-72263067D01*
X107028282Y-72322902D01*
X106963785Y-72352578D01*
X106893483Y-72342674D01*
X106839696Y-72296333D01*
X106819500Y-72227912D01*
X106819500Y-71423422D01*
X106839502Y-71355301D01*
X106856405Y-71334327D01*
X107160327Y-71030405D01*
X107222639Y-70996379D01*
X107249422Y-70993500D01*
X111172980Y-70993500D01*
X111184214Y-70994030D01*
X111191719Y-70995708D01*
X111260012Y-70993562D01*
X111263969Y-70993500D01*
X111291983Y-70993500D01*
X111295908Y-70993004D01*
X111295909Y-70993004D01*
X111296004Y-70992992D01*
X111307849Y-70992059D01*
X111337670Y-70991122D01*
X111344282Y-70990914D01*
X111344283Y-70990914D01*
X111352205Y-70990665D01*
X111371749Y-70984987D01*
X111391112Y-70980977D01*
X111403440Y-70979420D01*
X111403442Y-70979420D01*
X111411299Y-70978427D01*
X111418663Y-70975511D01*
X111418668Y-70975510D01*
X111452556Y-70962093D01*
X111463785Y-70958248D01*
X111480465Y-70953402D01*
X111506393Y-70945869D01*
X111513220Y-70941831D01*
X111513223Y-70941830D01*
X111523906Y-70935512D01*
X111541664Y-70926812D01*
X111553215Y-70922239D01*
X111553221Y-70922235D01*
X111560588Y-70919319D01*
X111596491Y-70893234D01*
X111606410Y-70886719D01*
X111637768Y-70868174D01*
X111637772Y-70868171D01*
X111644598Y-70864134D01*
X111658982Y-70849750D01*
X111674016Y-70836909D01*
X111684073Y-70829602D01*
X111690487Y-70824942D01*
X111718773Y-70790750D01*
X111726763Y-70781969D01*
X112407488Y-70101245D01*
X112415807Y-70093675D01*
X112422303Y-70089553D01*
X112469086Y-70039734D01*
X112471840Y-70036893D01*
X112491639Y-70017094D01*
X112494063Y-70013969D01*
X112494071Y-70013960D01*
X112494137Y-70013874D01*
X112501845Y-70004849D01*
X112526790Y-69978285D01*
X112532217Y-69972506D01*
X112542023Y-69954669D01*
X112552873Y-69938153D01*
X112565350Y-69922067D01*
X112582976Y-69881334D01*
X112588193Y-69870686D01*
X112604656Y-69840740D01*
X112609569Y-69831803D01*
X112611540Y-69824128D01*
X112611542Y-69824122D01*
X112614631Y-69812089D01*
X112621034Y-69793387D01*
X112629117Y-69774708D01*
X112636060Y-69730873D01*
X112638467Y-69719251D01*
X112649500Y-69676282D01*
X112649500Y-69655935D01*
X112651051Y-69636225D01*
X112652051Y-69629911D01*
X112660038Y-69613063D01*
X112655604Y-69606163D01*
X112651059Y-69582523D01*
X112650059Y-69571944D01*
X112649500Y-69560086D01*
X112649500Y-67670969D01*
X112669502Y-67602848D01*
X112681884Y-67586637D01*
X112682887Y-67585523D01*
X112743343Y-67548300D01*
X112814327Y-67549671D01*
G37*
%TD.AperFunction*%
%TD*%
M02*
