%TF.GenerationSoftware,KiCad,Pcbnew,(6.0.0-0)*%
%TF.CreationDate,2022-03-07T02:22:32-05:00*%
%TF.ProjectId,multi_gas,6d756c74-695f-4676-9173-2e6b69636164,rev?*%
%TF.SameCoordinates,Original*%
%TF.FileFunction,Legend,Bot*%
%TF.FilePolarity,Positive*%
%FSLAX46Y46*%
G04 Gerber Fmt 4.6, Leading zero omitted, Abs format (unit mm)*
G04 Created by KiCad (PCBNEW (6.0.0-0)) date 2022-03-07 02:22:32*
%MOMM*%
%LPD*%
G01*
G04 APERTURE LIST*
%ADD10C,0.080000*%
%ADD11C,0.100000*%
%ADD12C,0.120000*%
G04 APERTURE END LIST*
D10*
X103884857Y-77474000D02*
X103942000Y-77445428D01*
X104027714Y-77445428D01*
X104113428Y-77474000D01*
X104170571Y-77531142D01*
X104199142Y-77588285D01*
X104227714Y-77702571D01*
X104227714Y-77788285D01*
X104199142Y-77902571D01*
X104170571Y-77959714D01*
X104113428Y-78016857D01*
X104027714Y-78045428D01*
X103970571Y-78045428D01*
X103884857Y-78016857D01*
X103856285Y-77988285D01*
X103856285Y-77788285D01*
X103970571Y-77788285D01*
X103342000Y-78045428D02*
X103342000Y-77731142D01*
X103370571Y-77674000D01*
X103427714Y-77645428D01*
X103542000Y-77645428D01*
X103599142Y-77674000D01*
X103342000Y-78016857D02*
X103399142Y-78045428D01*
X103542000Y-78045428D01*
X103599142Y-78016857D01*
X103627714Y-77959714D01*
X103627714Y-77902571D01*
X103599142Y-77845428D01*
X103542000Y-77816857D01*
X103399142Y-77816857D01*
X103342000Y-77788285D01*
X103084857Y-78016857D02*
X103027714Y-78045428D01*
X102913428Y-78045428D01*
X102856285Y-78016857D01*
X102827714Y-77959714D01*
X102827714Y-77931142D01*
X102856285Y-77874000D01*
X102913428Y-77845428D01*
X102999142Y-77845428D01*
X103056285Y-77816857D01*
X103084857Y-77759714D01*
X103084857Y-77731142D01*
X103056285Y-77674000D01*
X102999142Y-77645428D01*
X102913428Y-77645428D01*
X102856285Y-77674000D01*
X102142000Y-78016857D02*
X102056285Y-78045428D01*
X101913428Y-78045428D01*
X101856285Y-78016857D01*
X101827714Y-77988285D01*
X101799142Y-77931142D01*
X101799142Y-77874000D01*
X101827714Y-77816857D01*
X101856285Y-77788285D01*
X101913428Y-77759714D01*
X102027714Y-77731142D01*
X102084857Y-77702571D01*
X102113428Y-77674000D01*
X102142000Y-77616857D01*
X102142000Y-77559714D01*
X102113428Y-77502571D01*
X102084857Y-77474000D01*
X102027714Y-77445428D01*
X101884857Y-77445428D01*
X101799142Y-77474000D01*
X101313428Y-78016857D02*
X101370571Y-78045428D01*
X101484857Y-78045428D01*
X101542000Y-78016857D01*
X101570571Y-77959714D01*
X101570571Y-77731142D01*
X101542000Y-77674000D01*
X101484857Y-77645428D01*
X101370571Y-77645428D01*
X101313428Y-77674000D01*
X101284857Y-77731142D01*
X101284857Y-77788285D01*
X101570571Y-77845428D01*
X101027714Y-77645428D02*
X101027714Y-78045428D01*
X101027714Y-77702571D02*
X100999142Y-77674000D01*
X100942000Y-77645428D01*
X100856285Y-77645428D01*
X100799142Y-77674000D01*
X100770571Y-77731142D01*
X100770571Y-78045428D01*
X100513428Y-78016857D02*
X100456285Y-78045428D01*
X100342000Y-78045428D01*
X100284857Y-78016857D01*
X100256285Y-77959714D01*
X100256285Y-77931142D01*
X100284857Y-77874000D01*
X100342000Y-77845428D01*
X100427714Y-77845428D01*
X100484857Y-77816857D01*
X100513428Y-77759714D01*
X100513428Y-77731142D01*
X100484857Y-77674000D01*
X100427714Y-77645428D01*
X100342000Y-77645428D01*
X100284857Y-77674000D01*
X99913428Y-78045428D02*
X99970571Y-78016857D01*
X99999142Y-77988285D01*
X100027714Y-77931142D01*
X100027714Y-77759714D01*
X99999142Y-77702571D01*
X99970571Y-77674000D01*
X99913428Y-77645428D01*
X99827714Y-77645428D01*
X99770571Y-77674000D01*
X99742000Y-77702571D01*
X99713428Y-77759714D01*
X99713428Y-77931142D01*
X99742000Y-77988285D01*
X99770571Y-78016857D01*
X99827714Y-78045428D01*
X99913428Y-78045428D01*
X99456285Y-78045428D02*
X99456285Y-77645428D01*
X99456285Y-77759714D02*
X99427714Y-77702571D01*
X99399142Y-77674000D01*
X99342000Y-77645428D01*
X99284857Y-77645428D01*
X98627714Y-78045428D02*
X98627714Y-77445428D01*
X98427714Y-77874000D01*
X98227714Y-77445428D01*
X98227714Y-78045428D01*
X97856285Y-78045428D02*
X97913428Y-78016857D01*
X97942000Y-77988285D01*
X97970571Y-77931142D01*
X97970571Y-77759714D01*
X97942000Y-77702571D01*
X97913428Y-77674000D01*
X97856285Y-77645428D01*
X97770571Y-77645428D01*
X97713428Y-77674000D01*
X97684857Y-77702571D01*
X97656285Y-77759714D01*
X97656285Y-77931142D01*
X97684857Y-77988285D01*
X97713428Y-78016857D01*
X97770571Y-78045428D01*
X97856285Y-78045428D01*
X97142000Y-78045428D02*
X97142000Y-77445428D01*
X97142000Y-78016857D02*
X97199142Y-78045428D01*
X97313428Y-78045428D01*
X97370571Y-78016857D01*
X97399142Y-77988285D01*
X97427714Y-77931142D01*
X97427714Y-77759714D01*
X97399142Y-77702571D01*
X97370571Y-77674000D01*
X97313428Y-77645428D01*
X97199142Y-77645428D01*
X97142000Y-77674000D01*
X96599142Y-77645428D02*
X96599142Y-78045428D01*
X96856285Y-77645428D02*
X96856285Y-77959714D01*
X96827714Y-78016857D01*
X96770571Y-78045428D01*
X96684857Y-78045428D01*
X96627714Y-78016857D01*
X96599142Y-77988285D01*
X96227714Y-78045428D02*
X96284857Y-78016857D01*
X96313428Y-77959714D01*
X96313428Y-77445428D01*
X95770571Y-78016857D02*
X95827714Y-78045428D01*
X95942000Y-78045428D01*
X95999142Y-78016857D01*
X96027714Y-77959714D01*
X96027714Y-77731142D01*
X95999142Y-77674000D01*
X95942000Y-77645428D01*
X95827714Y-77645428D01*
X95770571Y-77674000D01*
X95742000Y-77731142D01*
X95742000Y-77788285D01*
X96027714Y-77845428D01*
X95113428Y-77445428D02*
X94913428Y-78045428D01*
X94713428Y-77445428D01*
X94199142Y-78045428D02*
X94542000Y-78045428D01*
X94370571Y-78045428D02*
X94370571Y-77445428D01*
X94427714Y-77531142D01*
X94484857Y-77588285D01*
X94542000Y-77616857D01*
X93942000Y-77988285D02*
X93913428Y-78016857D01*
X93942000Y-78045428D01*
X93970571Y-78016857D01*
X93942000Y-77988285D01*
X93942000Y-78045428D01*
X93542000Y-77445428D02*
X93484857Y-77445428D01*
X93427714Y-77474000D01*
X93399142Y-77502571D01*
X93370571Y-77559714D01*
X93342000Y-77674000D01*
X93342000Y-77816857D01*
X93370571Y-77931142D01*
X93399142Y-77988285D01*
X93427714Y-78016857D01*
X93484857Y-78045428D01*
X93542000Y-78045428D01*
X93599142Y-78016857D01*
X93627714Y-77988285D01*
X93656285Y-77931142D01*
X93684857Y-77816857D01*
X93684857Y-77674000D01*
X93656285Y-77559714D01*
X93627714Y-77502571D01*
X93599142Y-77474000D01*
X93542000Y-77445428D01*
X104227714Y-78982857D02*
X104142000Y-79011428D01*
X103999142Y-79011428D01*
X103942000Y-78982857D01*
X103913428Y-78954285D01*
X103884857Y-78897142D01*
X103884857Y-78840000D01*
X103913428Y-78782857D01*
X103942000Y-78754285D01*
X103999142Y-78725714D01*
X104113428Y-78697142D01*
X104170571Y-78668571D01*
X104199142Y-78640000D01*
X104227714Y-78582857D01*
X104227714Y-78525714D01*
X104199142Y-78468571D01*
X104170571Y-78440000D01*
X104113428Y-78411428D01*
X103970571Y-78411428D01*
X103884857Y-78440000D01*
X103370571Y-78982857D02*
X103427714Y-79011428D01*
X103542000Y-79011428D01*
X103599142Y-78982857D01*
X103627714Y-78954285D01*
X103656285Y-78897142D01*
X103656285Y-78725714D01*
X103627714Y-78668571D01*
X103599142Y-78640000D01*
X103542000Y-78611428D01*
X103427714Y-78611428D01*
X103370571Y-78640000D01*
X103027714Y-79011428D02*
X103084857Y-78982857D01*
X103113428Y-78954285D01*
X103142000Y-78897142D01*
X103142000Y-78725714D01*
X103113428Y-78668571D01*
X103084857Y-78640000D01*
X103027714Y-78611428D01*
X102942000Y-78611428D01*
X102884857Y-78640000D01*
X102856285Y-78668571D01*
X102827714Y-78725714D01*
X102827714Y-78897142D01*
X102856285Y-78954285D01*
X102884857Y-78982857D01*
X102942000Y-79011428D01*
X103027714Y-79011428D01*
X102656285Y-78611428D02*
X102427714Y-78611428D01*
X102570571Y-78411428D02*
X102570571Y-78925714D01*
X102542000Y-78982857D01*
X102484857Y-79011428D01*
X102427714Y-79011428D01*
X102313428Y-78611428D02*
X102084857Y-78611428D01*
X102227714Y-78411428D02*
X102227714Y-78925714D01*
X102199142Y-78982857D01*
X102142000Y-79011428D01*
X102084857Y-79011428D01*
X101484857Y-78411428D02*
X101084857Y-78411428D01*
X101484857Y-79011428D01*
X101084857Y-79011428D01*
X100856285Y-79011428D02*
X100856285Y-78411428D01*
X100599142Y-79011428D02*
X100599142Y-78697142D01*
X100627714Y-78640000D01*
X100684857Y-78611428D01*
X100770571Y-78611428D01*
X100827714Y-78640000D01*
X100856285Y-78668571D01*
X100056285Y-79011428D02*
X100056285Y-78697142D01*
X100084857Y-78640000D01*
X100142000Y-78611428D01*
X100256285Y-78611428D01*
X100313428Y-78640000D01*
X100056285Y-78982857D02*
X100113428Y-79011428D01*
X100256285Y-79011428D01*
X100313428Y-78982857D01*
X100342000Y-78925714D01*
X100342000Y-78868571D01*
X100313428Y-78811428D01*
X100256285Y-78782857D01*
X100113428Y-78782857D01*
X100056285Y-78754285D01*
X99684857Y-79011428D02*
X99742000Y-78982857D01*
X99770571Y-78954285D01*
X99799142Y-78897142D01*
X99799142Y-78725714D01*
X99770571Y-78668571D01*
X99742000Y-78640000D01*
X99684857Y-78611428D01*
X99599142Y-78611428D01*
X99542000Y-78640000D01*
X99513428Y-78668571D01*
X99484857Y-78725714D01*
X99484857Y-78897142D01*
X99513428Y-78954285D01*
X99542000Y-78982857D01*
X99599142Y-79011428D01*
X99684857Y-79011428D01*
X104199142Y-79977428D02*
X104199142Y-79377428D01*
X103999142Y-79806000D01*
X103799142Y-79377428D01*
X103799142Y-79977428D01*
X103256285Y-79977428D02*
X103256285Y-79663142D01*
X103284857Y-79606000D01*
X103342000Y-79577428D01*
X103456285Y-79577428D01*
X103513428Y-79606000D01*
X103256285Y-79948857D02*
X103313428Y-79977428D01*
X103456285Y-79977428D01*
X103513428Y-79948857D01*
X103542000Y-79891714D01*
X103542000Y-79834571D01*
X103513428Y-79777428D01*
X103456285Y-79748857D01*
X103313428Y-79748857D01*
X103256285Y-79720285D01*
X102970571Y-79977428D02*
X102970571Y-79577428D01*
X102970571Y-79691714D02*
X102942000Y-79634571D01*
X102913428Y-79606000D01*
X102856285Y-79577428D01*
X102799142Y-79577428D01*
X102599142Y-79920285D02*
X102570571Y-79948857D01*
X102599142Y-79977428D01*
X102627714Y-79948857D01*
X102599142Y-79920285D01*
X102599142Y-79977428D01*
X101542000Y-79977428D02*
X101884857Y-79977428D01*
X101713428Y-79977428D02*
X101713428Y-79377428D01*
X101770571Y-79463142D01*
X101827714Y-79520285D01*
X101884857Y-79548857D01*
X101256285Y-79948857D02*
X101256285Y-79977428D01*
X101284857Y-80034571D01*
X101313428Y-80063142D01*
X100570571Y-79434571D02*
X100542000Y-79406000D01*
X100484857Y-79377428D01*
X100342000Y-79377428D01*
X100284857Y-79406000D01*
X100256285Y-79434571D01*
X100227714Y-79491714D01*
X100227714Y-79548857D01*
X100256285Y-79634571D01*
X100599142Y-79977428D01*
X100227714Y-79977428D01*
X99856285Y-79377428D02*
X99799142Y-79377428D01*
X99742000Y-79406000D01*
X99713428Y-79434571D01*
X99684857Y-79491714D01*
X99656285Y-79606000D01*
X99656285Y-79748857D01*
X99684857Y-79863142D01*
X99713428Y-79920285D01*
X99742000Y-79948857D01*
X99799142Y-79977428D01*
X99856285Y-79977428D01*
X99913428Y-79948857D01*
X99942000Y-79920285D01*
X99970571Y-79863142D01*
X99999142Y-79748857D01*
X99999142Y-79606000D01*
X99970571Y-79491714D01*
X99942000Y-79434571D01*
X99913428Y-79406000D01*
X99856285Y-79377428D01*
X99427714Y-79434571D02*
X99399142Y-79406000D01*
X99342000Y-79377428D01*
X99199142Y-79377428D01*
X99142000Y-79406000D01*
X99113428Y-79434571D01*
X99084857Y-79491714D01*
X99084857Y-79548857D01*
X99113428Y-79634571D01*
X99456285Y-79977428D01*
X99084857Y-79977428D01*
X98856285Y-79434571D02*
X98827714Y-79406000D01*
X98770571Y-79377428D01*
X98627714Y-79377428D01*
X98570571Y-79406000D01*
X98542000Y-79434571D01*
X98513428Y-79491714D01*
X98513428Y-79548857D01*
X98542000Y-79634571D01*
X98884857Y-79977428D01*
X98513428Y-79977428D01*
D11*
%TO.C,J1*%
X107166666Y-64726190D02*
X107166666Y-65083333D01*
X107190476Y-65154761D01*
X107238095Y-65202380D01*
X107309523Y-65226190D01*
X107357142Y-65226190D01*
X106666666Y-65226190D02*
X106952380Y-65226190D01*
X106809523Y-65226190D02*
X106809523Y-64726190D01*
X106857142Y-64797619D01*
X106904761Y-64845238D01*
X106952380Y-64869047D01*
D12*
X100000000Y-67500000D02*
X100000000Y-62500000D01*
X113996500Y-62500000D02*
X113996500Y-67500000D01*
X113996500Y-67500000D02*
X100000000Y-67500000D01*
X100000000Y-62500000D02*
X113996500Y-62500000D01*
%TD*%
M02*
