%TF.GenerationSoftware,KiCad,Pcbnew,(6.0.0-0)*%
%TF.CreationDate,2022-03-16T23:04:28-04:00*%
%TF.ProjectId,for_stencil,666f725f-7374-4656-9e63-696c2e6b6963,rev?*%
%TF.SameCoordinates,Original*%
%TF.FileFunction,Soldermask,Bot*%
%TF.FilePolarity,Negative*%
%FSLAX46Y46*%
G04 Gerber Fmt 4.6, Leading zero omitted, Abs format (unit mm)*
G04 Created by KiCad (PCBNEW (6.0.0-0)) date 2022-03-16 23:04:28*
%MOMM*%
%LPD*%
G01*
G04 APERTURE LIST*
%ADD10C,4.500000*%
%ADD11C,0.760000*%
%ADD12R,1.000000X5.850000*%
%ADD13R,0.610000X2.410000*%
G04 APERTURE END LIST*
D10*
%TO.C,H1*%
X95000000Y-38000000D03*
%TD*%
%TO.C,H1*%
X125000000Y-38000000D03*
%TD*%
D11*
%TO.C,J1*%
X101475500Y-37900000D03*
X112524500Y-37900000D03*
D12*
X100173500Y-39000000D03*
X113826500Y-39000000D03*
D13*
X101996500Y-40720000D03*
X102996500Y-40720000D03*
X103996500Y-40720000D03*
X104996500Y-40720000D03*
X105996500Y-40720000D03*
X106996500Y-40720000D03*
X107996500Y-40720000D03*
X108996500Y-40720000D03*
X109996500Y-40720000D03*
X110996500Y-40720000D03*
X111996500Y-40720000D03*
X111496500Y-37280000D03*
X110496500Y-37280000D03*
X109496500Y-37280000D03*
X108496500Y-37280000D03*
X107496500Y-37280000D03*
X106496500Y-37280000D03*
X105496500Y-37280000D03*
X104496500Y-37280000D03*
X103496500Y-37320000D03*
X102496500Y-37320000D03*
%TD*%
D11*
%TO.C,J1*%
X131475500Y-37900000D03*
X142524500Y-37900000D03*
D12*
X130173500Y-39000000D03*
X143826500Y-39000000D03*
D13*
X131996500Y-40720000D03*
X132996500Y-40720000D03*
X133996500Y-40720000D03*
X134996500Y-40720000D03*
X135996500Y-40720000D03*
X136996500Y-40720000D03*
X137996500Y-40720000D03*
X138996500Y-40720000D03*
X139996500Y-40720000D03*
X140996500Y-40720000D03*
X141996500Y-40720000D03*
X141496500Y-37280000D03*
X140496500Y-37280000D03*
X139496500Y-37280000D03*
X138496500Y-37280000D03*
X137496500Y-37280000D03*
X136496500Y-37280000D03*
X135496500Y-37280000D03*
X134496500Y-37280000D03*
X133496500Y-37320000D03*
X132496500Y-37320000D03*
%TD*%
D10*
%TO.C,H2*%
X149000000Y-38000000D03*
%TD*%
%TO.C,H2*%
X119000000Y-38000000D03*
%TD*%
%TO.C,H1*%
X125000000Y-64000000D03*
%TD*%
D11*
%TO.C,J1*%
X131475500Y-63900000D03*
X142524500Y-63900000D03*
D12*
X130173500Y-65000000D03*
X143826500Y-65000000D03*
D13*
X131996500Y-66720000D03*
X132996500Y-66720000D03*
X133996500Y-66720000D03*
X134996500Y-66720000D03*
X135996500Y-66720000D03*
X136996500Y-66720000D03*
X137996500Y-66720000D03*
X138996500Y-66720000D03*
X139996500Y-66720000D03*
X140996500Y-66720000D03*
X141996500Y-66720000D03*
X141496500Y-63280000D03*
X140496500Y-63280000D03*
X139496500Y-63280000D03*
X138496500Y-63280000D03*
X137496500Y-63280000D03*
X136496500Y-63280000D03*
X135496500Y-63280000D03*
X134496500Y-63280000D03*
X133496500Y-63320000D03*
X132496500Y-63320000D03*
%TD*%
D10*
%TO.C,H2*%
X149000000Y-64000000D03*
%TD*%
%TO.C,H1*%
X95000000Y-64000000D03*
%TD*%
%TO.C,H2*%
X119000000Y-64000000D03*
%TD*%
D11*
%TO.C,J1*%
X101475500Y-63900000D03*
X112524500Y-63900000D03*
D12*
X100173500Y-65000000D03*
X113826500Y-65000000D03*
D13*
X101996500Y-66720000D03*
X102996500Y-66720000D03*
X103996500Y-66720000D03*
X104996500Y-66720000D03*
X105996500Y-66720000D03*
X106996500Y-66720000D03*
X107996500Y-66720000D03*
X108996500Y-66720000D03*
X109996500Y-66720000D03*
X110996500Y-66720000D03*
X111996500Y-66720000D03*
X111496500Y-63280000D03*
X110496500Y-63280000D03*
X109496500Y-63280000D03*
X108496500Y-63280000D03*
X107496500Y-63280000D03*
X106496500Y-63280000D03*
X105496500Y-63280000D03*
X104496500Y-63280000D03*
X103496500Y-63320000D03*
X102496500Y-63320000D03*
%TD*%
M02*
