%TF.GenerationSoftware,KiCad,Pcbnew,(6.0.0-0)*%
%TF.CreationDate,2022-03-16T23:04:28-04:00*%
%TF.ProjectId,for_stencil,666f725f-7374-4656-9e63-696c2e6b6963,rev?*%
%TF.SameCoordinates,Original*%
%TF.FileFunction,Paste,Bot*%
%TF.FilePolarity,Positive*%
%FSLAX46Y46*%
G04 Gerber Fmt 4.6, Leading zero omitted, Abs format (unit mm)*
G04 Created by KiCad (PCBNEW (6.0.0-0)) date 2022-03-16 23:04:28*
%MOMM*%
%LPD*%
G01*
G04 APERTURE LIST*
%ADD10C,0.100000*%
%ADD11R,1.000000X5.850000*%
%ADD12R,0.610000X2.410000*%
%ADD13C,4.500000*%
G04 APERTURE END LIST*
D10*
X121000000Y-35000000D02*
X118000000Y-35000000D01*
X118000000Y-35000000D02*
X118000000Y-33940000D01*
X118000000Y-33940000D02*
X122000000Y-33940000D01*
X122000000Y-33940000D02*
X122000000Y-37940000D01*
X122000000Y-37940000D02*
X121000000Y-37940000D01*
X121000000Y-37940000D02*
X121000000Y-35000000D01*
G36*
X122000000Y-37940000D02*
G01*
X121000000Y-37940000D01*
X121000000Y-35000000D01*
X118000000Y-35000000D01*
X118000000Y-33940000D01*
X122000000Y-33940000D01*
X122000000Y-37940000D01*
G37*
X122000000Y-37940000D02*
X121000000Y-37940000D01*
X121000000Y-35000000D01*
X118000000Y-35000000D01*
X118000000Y-33940000D01*
X122000000Y-33940000D01*
X122000000Y-37940000D01*
X123060000Y-34940000D02*
X123060000Y-37940000D01*
X123060000Y-37940000D02*
X122000000Y-37940000D01*
X122000000Y-37940000D02*
X122000000Y-33940000D01*
X122000000Y-33940000D02*
X126000000Y-33940000D01*
X126000000Y-33940000D02*
X126000000Y-34940000D01*
X126000000Y-34940000D02*
X123060000Y-34940000D01*
G36*
X126000000Y-34940000D02*
G01*
X123060000Y-34940000D01*
X123060000Y-37940000D01*
X122000000Y-37940000D01*
X122000000Y-33940000D01*
X126000000Y-33940000D01*
X126000000Y-34940000D01*
G37*
X126000000Y-34940000D02*
X123060000Y-34940000D01*
X123060000Y-37940000D01*
X122000000Y-37940000D01*
X122000000Y-33940000D01*
X126000000Y-33940000D01*
X126000000Y-34940000D01*
X152000000Y-34940000D02*
X149000000Y-34940000D01*
X149000000Y-34940000D02*
X149000000Y-33880000D01*
X149000000Y-33880000D02*
X153000000Y-33880000D01*
X153000000Y-33880000D02*
X153000000Y-37880000D01*
X153000000Y-37880000D02*
X152000000Y-37880000D01*
X152000000Y-37880000D02*
X152000000Y-34940000D01*
G36*
X153000000Y-37880000D02*
G01*
X152000000Y-37880000D01*
X152000000Y-34940000D01*
X149000000Y-34940000D01*
X149000000Y-33880000D01*
X153000000Y-33880000D01*
X153000000Y-37880000D01*
G37*
X153000000Y-37880000D02*
X152000000Y-37880000D01*
X152000000Y-34940000D01*
X149000000Y-34940000D01*
X149000000Y-33880000D01*
X153000000Y-33880000D01*
X153000000Y-37880000D01*
X92000000Y-34940000D02*
X92000000Y-38040000D01*
X92000000Y-38040000D02*
X90940000Y-38040000D01*
X90940000Y-38040000D02*
X90940000Y-33940000D01*
X90940000Y-33940000D02*
X94940000Y-33940000D01*
X94940000Y-33940000D02*
X94940000Y-34940000D01*
X94940000Y-34940000D02*
X92000000Y-34940000D01*
G36*
X94940000Y-34940000D02*
G01*
X92000000Y-34940000D01*
X92000000Y-38040000D01*
X90940000Y-38040000D01*
X90940000Y-33940000D01*
X94940000Y-33940000D01*
X94940000Y-34940000D01*
G37*
X94940000Y-34940000D02*
X92000000Y-34940000D01*
X92000000Y-38040000D01*
X90940000Y-38040000D01*
X90940000Y-33940000D01*
X94940000Y-33940000D01*
X94940000Y-34940000D01*
X120940000Y-87000000D02*
X120940000Y-84000000D01*
X120940000Y-84000000D02*
X122000000Y-84000000D01*
X122000000Y-84000000D02*
X122000000Y-88000000D01*
X122000000Y-88000000D02*
X118000000Y-88000000D01*
X118000000Y-88000000D02*
X118000000Y-87000000D01*
X118000000Y-87000000D02*
X120940000Y-87000000D01*
G36*
X122000000Y-88000000D02*
G01*
X118000000Y-88000000D01*
X118000000Y-87000000D01*
X120940000Y-87000000D01*
X120940000Y-84000000D01*
X122000000Y-84000000D01*
X122000000Y-88000000D01*
G37*
X122000000Y-88000000D02*
X118000000Y-88000000D01*
X118000000Y-87000000D01*
X120940000Y-87000000D01*
X120940000Y-84000000D01*
X122000000Y-84000000D01*
X122000000Y-88000000D01*
X123000000Y-86940000D02*
X126000000Y-86940000D01*
X126000000Y-86940000D02*
X126000000Y-88000000D01*
X126000000Y-88000000D02*
X122000000Y-88000000D01*
X122000000Y-88000000D02*
X122000000Y-84000000D01*
X122000000Y-84000000D02*
X123000000Y-84000000D01*
X123000000Y-84000000D02*
X123000000Y-86940000D01*
G36*
X123000000Y-86940000D02*
G01*
X126000000Y-86940000D01*
X126000000Y-88000000D01*
X122000000Y-88000000D01*
X122000000Y-84000000D01*
X123000000Y-84000000D01*
X123000000Y-86940000D01*
G37*
X123000000Y-86940000D02*
X126000000Y-86940000D01*
X126000000Y-88000000D01*
X122000000Y-88000000D01*
X122000000Y-84000000D01*
X123000000Y-84000000D01*
X123000000Y-86940000D01*
X152000000Y-86940000D02*
X152000000Y-83940000D01*
X152000000Y-83940000D02*
X153060000Y-83940000D01*
X153060000Y-83940000D02*
X153060000Y-87940000D01*
X153060000Y-87940000D02*
X149060000Y-87940000D01*
X149060000Y-87940000D02*
X149060000Y-86940000D01*
X149060000Y-86940000D02*
X152000000Y-86940000D01*
G36*
X153060000Y-87940000D02*
G01*
X149060000Y-87940000D01*
X149060000Y-86940000D01*
X152000000Y-86940000D01*
X152000000Y-83940000D01*
X153060000Y-83940000D01*
X153060000Y-87940000D01*
G37*
X153060000Y-87940000D02*
X149060000Y-87940000D01*
X149060000Y-86940000D01*
X152000000Y-86940000D01*
X152000000Y-83940000D01*
X153060000Y-83940000D01*
X153060000Y-87940000D01*
X92000000Y-86940000D02*
X95000000Y-86940000D01*
X95000000Y-86940000D02*
X95000000Y-88000000D01*
X95000000Y-88000000D02*
X91000000Y-88000000D01*
X91000000Y-88000000D02*
X91000000Y-84000000D01*
X91000000Y-84000000D02*
X92000000Y-84000000D01*
X92000000Y-84000000D02*
X92000000Y-86940000D01*
G36*
X92000000Y-86940000D02*
G01*
X95000000Y-86940000D01*
X95000000Y-88000000D01*
X91000000Y-88000000D01*
X91000000Y-84000000D01*
X92000000Y-84000000D01*
X92000000Y-86940000D01*
G37*
X92000000Y-86940000D02*
X95000000Y-86940000D01*
X95000000Y-88000000D01*
X91000000Y-88000000D01*
X91000000Y-84000000D01*
X92000000Y-84000000D01*
X92000000Y-86940000D01*
D11*
%TO.C,J1*%
X100173500Y-39000000D03*
X113826500Y-39000000D03*
D12*
X101996500Y-40720000D03*
X102996500Y-40720000D03*
X103996500Y-40720000D03*
X104996500Y-40720000D03*
X105996500Y-40720000D03*
X106996500Y-40720000D03*
X107996500Y-40720000D03*
X108996500Y-40720000D03*
X109996500Y-40720000D03*
X110996500Y-40720000D03*
X111996500Y-40720000D03*
X111496500Y-37280000D03*
X110496500Y-37280000D03*
X109496500Y-37280000D03*
X108496500Y-37280000D03*
X107496500Y-37280000D03*
X106496500Y-37280000D03*
X105496500Y-37280000D03*
X104496500Y-37280000D03*
X103496500Y-37320000D03*
X102496500Y-37320000D03*
%TD*%
D11*
%TO.C,J1*%
X130173500Y-39000000D03*
X143826500Y-39000000D03*
D12*
X131996500Y-40720000D03*
X132996500Y-40720000D03*
X133996500Y-40720000D03*
X134996500Y-40720000D03*
X135996500Y-40720000D03*
X136996500Y-40720000D03*
X137996500Y-40720000D03*
X138996500Y-40720000D03*
X139996500Y-40720000D03*
X140996500Y-40720000D03*
X141996500Y-40720000D03*
X141496500Y-37280000D03*
X140496500Y-37280000D03*
X139496500Y-37280000D03*
X138496500Y-37280000D03*
X137496500Y-37280000D03*
X136496500Y-37280000D03*
X135496500Y-37280000D03*
X134496500Y-37280000D03*
X133496500Y-37320000D03*
X132496500Y-37320000D03*
%TD*%
D13*
%TO.C,H1*%
X125000000Y-64000000D03*
%TD*%
D11*
%TO.C,J1*%
X130173500Y-65000000D03*
X143826500Y-65000000D03*
D12*
X131996500Y-66720000D03*
X132996500Y-66720000D03*
X133996500Y-66720000D03*
X134996500Y-66720000D03*
X135996500Y-66720000D03*
X136996500Y-66720000D03*
X137996500Y-66720000D03*
X138996500Y-66720000D03*
X139996500Y-66720000D03*
X140996500Y-66720000D03*
X141996500Y-66720000D03*
X141496500Y-63280000D03*
X140496500Y-63280000D03*
X139496500Y-63280000D03*
X138496500Y-63280000D03*
X137496500Y-63280000D03*
X136496500Y-63280000D03*
X135496500Y-63280000D03*
X134496500Y-63280000D03*
X133496500Y-63320000D03*
X132496500Y-63320000D03*
%TD*%
D13*
%TO.C,H2*%
X149000000Y-64000000D03*
%TD*%
%TO.C,H1*%
X95000000Y-64000000D03*
%TD*%
%TO.C,H2*%
X119000000Y-64000000D03*
%TD*%
D11*
%TO.C,J1*%
X100173500Y-65000000D03*
X113826500Y-65000000D03*
D12*
X101996500Y-66720000D03*
X102996500Y-66720000D03*
X103996500Y-66720000D03*
X104996500Y-66720000D03*
X105996500Y-66720000D03*
X106996500Y-66720000D03*
X107996500Y-66720000D03*
X108996500Y-66720000D03*
X109996500Y-66720000D03*
X110996500Y-66720000D03*
X111996500Y-66720000D03*
X111496500Y-63280000D03*
X110496500Y-63280000D03*
X109496500Y-63280000D03*
X108496500Y-63280000D03*
X107496500Y-63280000D03*
X106496500Y-63280000D03*
X105496500Y-63280000D03*
X104496500Y-63280000D03*
X103496500Y-63320000D03*
X102496500Y-63320000D03*
%TD*%
M02*
