%TF.GenerationSoftware,KiCad,Pcbnew,(6.0.0-0)*%
%TF.CreationDate,2022-03-16T23:04:28-04:00*%
%TF.ProjectId,for_stencil,666f725f-7374-4656-9e63-696c2e6b6963,rev?*%
%TF.SameCoordinates,Original*%
%TF.FileFunction,Legend,Bot*%
%TF.FilePolarity,Positive*%
%FSLAX46Y46*%
G04 Gerber Fmt 4.6, Leading zero omitted, Abs format (unit mm)*
G04 Created by KiCad (PCBNEW (6.0.0-0)) date 2022-03-16 23:04:28*
%MOMM*%
%LPD*%
G01*
G04 APERTURE LIST*
%ADD10C,0.100000*%
%ADD11C,0.120000*%
G04 APERTURE END LIST*
D10*
%TO.C,J1*%
X107166666Y-38726190D02*
X107166666Y-39083333D01*
X107190476Y-39154761D01*
X107238095Y-39202380D01*
X107309523Y-39226190D01*
X107357142Y-39226190D01*
X106666666Y-39226190D02*
X106952380Y-39226190D01*
X106809523Y-39226190D02*
X106809523Y-38726190D01*
X106857142Y-38797619D01*
X106904761Y-38845238D01*
X106952380Y-38869047D01*
X137166666Y-38726190D02*
X137166666Y-39083333D01*
X137190476Y-39154761D01*
X137238095Y-39202380D01*
X137309523Y-39226190D01*
X137357142Y-39226190D01*
X136666666Y-39226190D02*
X136952380Y-39226190D01*
X136809523Y-39226190D02*
X136809523Y-38726190D01*
X136857142Y-38797619D01*
X136904761Y-38845238D01*
X136952380Y-38869047D01*
X137166666Y-64726190D02*
X137166666Y-65083333D01*
X137190476Y-65154761D01*
X137238095Y-65202380D01*
X137309523Y-65226190D01*
X137357142Y-65226190D01*
X136666666Y-65226190D02*
X136952380Y-65226190D01*
X136809523Y-65226190D02*
X136809523Y-64726190D01*
X136857142Y-64797619D01*
X136904761Y-64845238D01*
X136952380Y-64869047D01*
X107166666Y-64726190D02*
X107166666Y-65083333D01*
X107190476Y-65154761D01*
X107238095Y-65202380D01*
X107309523Y-65226190D01*
X107357142Y-65226190D01*
X106666666Y-65226190D02*
X106952380Y-65226190D01*
X106809523Y-65226190D02*
X106809523Y-64726190D01*
X106857142Y-64797619D01*
X106904761Y-64845238D01*
X106952380Y-64869047D01*
D11*
X100000000Y-41500000D02*
X100000000Y-36500000D01*
X113996500Y-36500000D02*
X113996500Y-41500000D01*
X113996500Y-41500000D02*
X100000000Y-41500000D01*
X100000000Y-36500000D02*
X113996500Y-36500000D01*
X130000000Y-41500000D02*
X130000000Y-36500000D01*
X143996500Y-36500000D02*
X143996500Y-41500000D01*
X143996500Y-41500000D02*
X130000000Y-41500000D01*
X130000000Y-36500000D02*
X143996500Y-36500000D01*
X130000000Y-67500000D02*
X130000000Y-62500000D01*
X143996500Y-62500000D02*
X143996500Y-67500000D01*
X143996500Y-67500000D02*
X130000000Y-67500000D01*
X130000000Y-62500000D02*
X143996500Y-62500000D01*
X100000000Y-67500000D02*
X100000000Y-62500000D01*
X113996500Y-62500000D02*
X113996500Y-67500000D01*
X113996500Y-67500000D02*
X100000000Y-67500000D01*
X100000000Y-62500000D02*
X113996500Y-62500000D01*
%TD*%
M02*
