M48
; DRILL file {KiCad (6.0.0-0)} date Thursday, March 03, 2022 at 10:17:19 PM
; FORMAT={-:-/ absolute / inch / decimal}
; #@! TF.CreationDate,2022-03-03T22:17:19-05:00
; #@! TF.GenerationSoftware,Kicad,Pcbnew,(6.0.0-0)
; #@! TF.FileFunction,Plated,1,4,PTH
FMAT,2
INCH
; #@! TA.AperFunction,Plated,PTH,ViaDrill
T1C0.0130
; #@! TA.AperFunction,Plated,PTH,ComponentDrill
T2C0.0394
; #@! TA.AperFunction,Plated,PTH,ComponentDrill
T3C0.1181
%
G90
G05
T1
X3.89Y-2.77
X3.98Y-2.8
X3.98Y-2.9
X4.02Y-2.71
X4.095Y-2.59
X4.095Y-2.625
X4.095Y-2.66
X4.11Y-3.29
X4.114Y-2.4913
X4.16Y-3.07
X4.18Y-2.76
X4.18Y-2.82
X4.19Y-2.47
X4.21Y-3.07
X4.23Y-2.52
X4.23Y-2.71
X4.33Y-2.83
X4.33Y-2.94
X4.37Y-2.63
X4.41Y-2.63
X4.43Y-2.86
X4.43Y-2.91
X4.45Y-2.81
X4.46Y-3.12
X4.53Y-2.8
X4.55Y-2.64
X4.55Y-2.75
X4.55Y-2.9
X4.56Y-3.12
X4.6Y-2.69
X4.65Y-2.74
X4.66Y-3.17
X4.67Y-2.86
X4.7Y-3.13
X4.73Y-2.69
T2
X4.2202Y-3.29
X4.3202Y-3.29
X4.4202Y-3.29
X4.5202Y-3.29
X4.6202Y-3.29
T3
X3.7402Y-2.5197
X4.685Y-2.5197
T0
M30
