%TF.GenerationSoftware,KiCad,Pcbnew,(6.0.0-0)*%
%TF.CreationDate,2022-03-03T22:17:19-05:00*%
%TF.ProjectId,temp_hum,74656d70-5f68-4756-9d2e-6b696361645f,rev?*%
%TF.SameCoordinates,Original*%
%TF.FileFunction,Paste,Top*%
%TF.FilePolarity,Positive*%
%FSLAX46Y46*%
G04 Gerber Fmt 4.6, Leading zero omitted, Abs format (unit mm)*
G04 Created by KiCad (PCBNEW (6.0.0-0)) date 2022-03-03 22:17:19*
%MOMM*%
%LPD*%
G01*
G04 APERTURE LIST*
G04 Aperture macros list*
%AMRoundRect*
0 Rectangle with rounded corners*
0 $1 Rounding radius*
0 $2 $3 $4 $5 $6 $7 $8 $9 X,Y pos of 4 corners*
0 Add a 4 corners polygon primitive as box body*
4,1,4,$2,$3,$4,$5,$6,$7,$8,$9,$2,$3,0*
0 Add four circle primitives for the rounded corners*
1,1,$1+$1,$2,$3*
1,1,$1+$1,$4,$5*
1,1,$1+$1,$6,$7*
1,1,$1+$1,$8,$9*
0 Add four rect primitives between the rounded corners*
20,1,$1+$1,$2,$3,$4,$5,0*
20,1,$1+$1,$4,$5,$6,$7,0*
20,1,$1+$1,$6,$7,$8,$9,0*
20,1,$1+$1,$8,$9,$2,$3,0*%
G04 Aperture macros list end*
%ADD10O,1.185000X0.560000*%
%ADD11RoundRect,0.135000X0.135000X0.185000X-0.135000X0.185000X-0.135000X-0.185000X0.135000X-0.185000X0*%
%ADD12RoundRect,0.140000X-0.170000X0.140000X-0.170000X-0.140000X0.170000X-0.140000X0.170000X0.140000X0*%
%ADD13RoundRect,0.140000X-0.140000X-0.170000X0.140000X-0.170000X0.140000X0.170000X-0.140000X0.170000X0*%
%ADD14RoundRect,0.218750X-0.381250X0.218750X-0.381250X-0.218750X0.381250X-0.218750X0.381250X0.218750X0*%
%ADD15RoundRect,0.150000X0.150000X-0.825000X0.150000X0.825000X-0.150000X0.825000X-0.150000X-0.825000X0*%
%ADD16RoundRect,0.140000X0.140000X0.170000X-0.140000X0.170000X-0.140000X-0.170000X0.140000X-0.170000X0*%
%ADD17RoundRect,0.218750X-0.256250X0.218750X-0.256250X-0.218750X0.256250X-0.218750X0.256250X0.218750X0*%
%ADD18R,0.450000X0.450000*%
G04 APERTURE END LIST*
D10*
%TO.C,U1*%
X117087000Y-74660000D03*
X117087000Y-73660000D03*
X117087000Y-72660000D03*
X114053000Y-72660000D03*
X114053000Y-73660000D03*
X114053000Y-74660000D03*
%TD*%
D11*
%TO.C,R1*%
X99062000Y-63754000D03*
X98042000Y-63754000D03*
%TD*%
D12*
%TO.C,C2*%
X115062000Y-76228000D03*
X115062000Y-77188000D03*
%TD*%
D13*
%TO.C,C3*%
X109728000Y-80264000D03*
X110688000Y-80264000D03*
%TD*%
D12*
%TO.C,C5*%
X116078000Y-76228000D03*
X116078000Y-77188000D03*
%TD*%
D14*
%TO.C,FB1*%
X108176000Y-77931500D03*
X108176000Y-80056500D03*
%TD*%
D15*
%TO.C,U4*%
X94107000Y-75627000D03*
X95377000Y-75627000D03*
X96647000Y-75627000D03*
X97917000Y-75627000D03*
X97917000Y-70677000D03*
X96647000Y-70677000D03*
X95377000Y-70677000D03*
X94107000Y-70677000D03*
%TD*%
D13*
%TO.C,C1*%
X109728000Y-79248000D03*
X110688000Y-79248000D03*
%TD*%
D16*
%TO.C,C4*%
X104620000Y-73152000D03*
X103660000Y-73152000D03*
%TD*%
D17*
%TO.C,D1*%
X98552000Y-66827500D03*
X98552000Y-65252500D03*
%TD*%
D18*
%TO.C,U2*%
X105959000Y-72935000D03*
X106609000Y-72935000D03*
X107259000Y-72935000D03*
X107909000Y-72935000D03*
X107909000Y-74385000D03*
X107259000Y-74385000D03*
X106609000Y-74385000D03*
X105959000Y-74385000D03*
%TD*%
D16*
%TO.C,C6*%
X104620000Y-74168000D03*
X103660000Y-74168000D03*
%TD*%
M02*
