%TF.GenerationSoftware,KiCad,Pcbnew,(6.0.0-0)*%
%TF.CreationDate,2022-03-03T22:17:19-05:00*%
%TF.ProjectId,temp_hum,74656d70-5f68-4756-9d2e-6b696361645f,rev?*%
%TF.SameCoordinates,Original*%
%TF.FileFunction,Copper,L1,Top*%
%TF.FilePolarity,Positive*%
%FSLAX46Y46*%
G04 Gerber Fmt 4.6, Leading zero omitted, Abs format (unit mm)*
G04 Created by KiCad (PCBNEW (6.0.0-0)) date 2022-03-03 22:17:19*
%MOMM*%
%LPD*%
G01*
G04 APERTURE LIST*
G04 Aperture macros list*
%AMRoundRect*
0 Rectangle with rounded corners*
0 $1 Rounding radius*
0 $2 $3 $4 $5 $6 $7 $8 $9 X,Y pos of 4 corners*
0 Add a 4 corners polygon primitive as box body*
4,1,4,$2,$3,$4,$5,$6,$7,$8,$9,$2,$3,0*
0 Add four circle primitives for the rounded corners*
1,1,$1+$1,$2,$3*
1,1,$1+$1,$4,$5*
1,1,$1+$1,$6,$7*
1,1,$1+$1,$8,$9*
0 Add four rect primitives between the rounded corners*
20,1,$1+$1,$2,$3,$4,$5,0*
20,1,$1+$1,$4,$5,$6,$7,0*
20,1,$1+$1,$6,$7,$8,$9,0*
20,1,$1+$1,$8,$9,$2,$3,0*%
G04 Aperture macros list end*
%TA.AperFunction,SMDPad,CuDef*%
%ADD10O,1.185000X0.560000*%
%TD*%
%TA.AperFunction,SMDPad,CuDef*%
%ADD11RoundRect,0.135000X0.135000X0.185000X-0.135000X0.185000X-0.135000X-0.185000X0.135000X-0.185000X0*%
%TD*%
%TA.AperFunction,ComponentPad*%
%ADD12C,4.500000*%
%TD*%
%TA.AperFunction,SMDPad,CuDef*%
%ADD13RoundRect,0.140000X-0.170000X0.140000X-0.170000X-0.140000X0.170000X-0.140000X0.170000X0.140000X0*%
%TD*%
%TA.AperFunction,SMDPad,CuDef*%
%ADD14RoundRect,0.140000X-0.140000X-0.170000X0.140000X-0.170000X0.140000X0.170000X-0.140000X0.170000X0*%
%TD*%
%TA.AperFunction,SMDPad,CuDef*%
%ADD15RoundRect,0.218750X-0.381250X0.218750X-0.381250X-0.218750X0.381250X-0.218750X0.381250X0.218750X0*%
%TD*%
%TA.AperFunction,SMDPad,CuDef*%
%ADD16RoundRect,0.150000X0.150000X-0.825000X0.150000X0.825000X-0.150000X0.825000X-0.150000X-0.825000X0*%
%TD*%
%TA.AperFunction,SMDPad,CuDef*%
%ADD17RoundRect,0.140000X0.140000X0.170000X-0.140000X0.170000X-0.140000X-0.170000X0.140000X-0.170000X0*%
%TD*%
%TA.AperFunction,SMDPad,CuDef*%
%ADD18RoundRect,0.218750X-0.256250X0.218750X-0.256250X-0.218750X0.256250X-0.218750X0.256250X0.218750X0*%
%TD*%
%TA.AperFunction,ComponentPad*%
%ADD19R,1.700000X1.700000*%
%TD*%
%TA.AperFunction,ComponentPad*%
%ADD20O,1.700000X1.700000*%
%TD*%
%TA.AperFunction,SMDPad,CuDef*%
%ADD21R,0.450000X0.450000*%
%TD*%
%TA.AperFunction,ViaPad*%
%ADD22C,0.685800*%
%TD*%
%TA.AperFunction,Conductor*%
%ADD23C,0.508000*%
%TD*%
%TA.AperFunction,Conductor*%
%ADD24C,0.254000*%
%TD*%
G04 APERTURE END LIST*
D10*
%TO.P,U1,1,NC*%
%TO.N,unconnected-(U1-Pad1)*%
X117087000Y-74660000D03*
%TO.P,U1,2,VDD*%
%TO.N,/3V3*%
X117087000Y-73660000D03*
%TO.P,U1,3,SCL*%
%TO.N,/SCL*%
X117087000Y-72660000D03*
%TO.P,U1,4,SDA*%
%TO.N,/SDA*%
X114053000Y-72660000D03*
%TO.P,U1,5,GND*%
%TO.N,GND*%
X114053000Y-73660000D03*
%TO.P,U1,6,NC*%
%TO.N,unconnected-(U1-Pad6)*%
X114053000Y-74660000D03*
%TD*%
D11*
%TO.P,R1,1*%
%TO.N,/3V3*%
X99062000Y-63754000D03*
%TO.P,R1,2*%
%TO.N,Net-(D1-Pad2)*%
X98042000Y-63754000D03*
%TD*%
D12*
%TO.P,H1,1,1*%
%TO.N,GND*%
X95000000Y-64000000D03*
%TD*%
%TO.P,H2,1,1*%
%TO.N,GND*%
X119000000Y-64000000D03*
%TD*%
D13*
%TO.P,C2,1*%
%TO.N,/3V3*%
X115062000Y-76228000D03*
%TO.P,C2,2*%
%TO.N,GND*%
X115062000Y-77188000D03*
%TD*%
D14*
%TO.P,C3,1*%
%TO.N,Net-(C1-Pad1)*%
X109728000Y-80264000D03*
%TO.P,C3,2*%
%TO.N,GND*%
X110688000Y-80264000D03*
%TD*%
D13*
%TO.P,C5,1*%
%TO.N,/3V3*%
X116078000Y-76228000D03*
%TO.P,C5,2*%
%TO.N,GND*%
X116078000Y-77188000D03*
%TD*%
D15*
%TO.P,FB1,1*%
%TO.N,/5V*%
X108176000Y-77931500D03*
%TO.P,FB1,2*%
%TO.N,Net-(C1-Pad1)*%
X108176000Y-80056500D03*
%TD*%
D16*
%TO.P,U4,1,E0*%
%TO.N,unconnected-(U4-Pad1)*%
X94107000Y-75627000D03*
%TO.P,U4,2,E1*%
%TO.N,unconnected-(U4-Pad2)*%
X95377000Y-75627000D03*
%TO.P,U4,3,E2*%
%TO.N,unconnected-(U4-Pad3)*%
X96647000Y-75627000D03*
%TO.P,U4,4,VSS*%
%TO.N,GND*%
X97917000Y-75627000D03*
%TO.P,U4,5,SDA*%
%TO.N,/SDA_EEPROM*%
X97917000Y-70677000D03*
%TO.P,U4,6,SCL*%
%TO.N,/SCL_EEPROM*%
X96647000Y-70677000D03*
%TO.P,U4,7,~{WC}*%
%TO.N,unconnected-(U4-Pad7)*%
X95377000Y-70677000D03*
%TO.P,U4,8,VCC*%
%TO.N,/3V3*%
X94107000Y-70677000D03*
%TD*%
D14*
%TO.P,C1,1*%
%TO.N,Net-(C1-Pad1)*%
X109728000Y-79248000D03*
%TO.P,C1,2*%
%TO.N,GND*%
X110688000Y-79248000D03*
%TD*%
D17*
%TO.P,C4,1*%
%TO.N,/3V3*%
X104620000Y-73152000D03*
%TO.P,C4,2*%
%TO.N,GND*%
X103660000Y-73152000D03*
%TD*%
D18*
%TO.P,D1,1,K*%
%TO.N,GND*%
X98552000Y-66827500D03*
%TO.P,D1,2,A*%
%TO.N,Net-(D1-Pad2)*%
X98552000Y-65252500D03*
%TD*%
D19*
%TO.P,J1,1,Pin_1*%
%TO.N,GND*%
X107193000Y-83566000D03*
D20*
%TO.P,J1,2,Pin_2*%
%TO.N,Net-(C1-Pad1)*%
X109733000Y-83566000D03*
%TO.P,J1,3,Pin_3*%
%TO.N,/A0*%
X112273000Y-83566000D03*
%TO.P,J1,4,Pin_4*%
%TO.N,unconnected-(J1-Pad4)*%
X114813000Y-83566000D03*
%TO.P,J1,5,Pin_5*%
%TO.N,/A1*%
X117353000Y-83566000D03*
%TD*%
D21*
%TO.P,U2,1,GND*%
%TO.N,GND*%
X105959000Y-72935000D03*
%TO.P,U2,2,CSB*%
%TO.N,unconnected-(U2-Pad2)*%
X106609000Y-72935000D03*
%TO.P,U2,3,SDI*%
%TO.N,/SDA*%
X107259000Y-72935000D03*
%TO.P,U2,4,SCK*%
%TO.N,/SCL*%
X107909000Y-72935000D03*
%TO.P,U2,5,SDO*%
%TO.N,unconnected-(U2-Pad5)*%
X107909000Y-74385000D03*
%TO.P,U2,6,VDDIO*%
%TO.N,/3V3*%
X107259000Y-74385000D03*
%TO.P,U2,7,GND*%
%TO.N,GND*%
X106609000Y-74385000D03*
%TO.P,U2,8,VDD*%
%TO.N,/3V3*%
X105959000Y-74385000D03*
%TD*%
D17*
%TO.P,C6,1*%
%TO.N,/3V3*%
X104620000Y-74168000D03*
%TO.P,C6,2*%
%TO.N,GND*%
X103660000Y-74168000D03*
%TD*%
D22*
%TO.N,GND*%
X106172000Y-71628000D03*
X115570000Y-67056000D03*
X109982000Y-74676000D03*
X120142000Y-68326000D03*
X112522000Y-73914000D03*
X104013000Y-66675000D03*
X101092000Y-71120000D03*
X112522000Y-72644000D03*
X118110000Y-69596000D03*
X118618000Y-72644000D03*
X101092000Y-73660000D03*
X109982000Y-71882000D03*
X104013000Y-67564000D03*
X115570000Y-73660000D03*
X116840000Y-68326000D03*
X115824000Y-79248000D03*
X119380000Y-79502000D03*
X113284000Y-79248000D03*
X107442000Y-68834000D03*
X115570000Y-69850000D03*
X106172000Y-70104000D03*
X104394000Y-83566000D03*
X104013000Y-65786000D03*
X118364000Y-80518000D03*
%TO.N,/3V3*%
X104496500Y-63280000D03*
%TO.N,/SDA_EEPROM*%
X98806000Y-70358000D03*
%TO.N,/SDA*%
X110998000Y-66802000D03*
X113030000Y-71374000D03*
%TO.N,/SCL*%
X112014000Y-66802000D03*
X115062000Y-71120000D03*
%TO.N,/SCL_EEPROM*%
X102108000Y-68834000D03*
%TO.N,/5V*%
X106934000Y-77978000D03*
X105664000Y-77978000D03*
%TO.N,/A0*%
X107442000Y-64008000D03*
%TO.N,/A1*%
X106426000Y-62738000D03*
%TD*%
D23*
%TO.N,/3V3*%
X116078000Y-76228000D02*
X117574000Y-76228000D01*
X117574000Y-76228000D02*
X118364000Y-75438000D01*
X118364000Y-75438000D02*
X118364000Y-74168000D01*
X118364000Y-74168000D02*
X117856000Y-73660000D01*
X117856000Y-73660000D02*
X117087000Y-73660000D01*
D24*
%TO.N,/SCL*%
X117087000Y-72660000D02*
X116602000Y-72660000D01*
X116602000Y-72660000D02*
X115062000Y-71120000D01*
%TO.N,/SDA*%
X113030000Y-71374000D02*
X114053000Y-72397000D01*
X114053000Y-72397000D02*
X114053000Y-72660000D01*
D23*
%TO.N,GND*%
X106609000Y-74385000D02*
X106609000Y-75255000D01*
X105959000Y-72935000D02*
X105959000Y-71841000D01*
X105959000Y-71841000D02*
X106172000Y-71628000D01*
D24*
%TO.N,Net-(D1-Pad2)*%
X98042000Y-64514000D02*
X98042000Y-63754000D01*
X98552000Y-65024000D02*
X98042000Y-64514000D01*
X98552000Y-65252500D02*
X98552000Y-65024000D01*
%TO.N,/3V3*%
X102870000Y-65532000D02*
X103378000Y-65024000D01*
D23*
X113030000Y-65278000D02*
X108712000Y-65278000D01*
X104620000Y-69370000D02*
X104620000Y-73152000D01*
X111252000Y-74168000D02*
X111252000Y-71120000D01*
D24*
X99062000Y-62990000D02*
X99062000Y-63754000D01*
X105959000Y-73873000D02*
X106172000Y-73660000D01*
D23*
X113792000Y-68580000D02*
X113792000Y-66040000D01*
D24*
X94107000Y-70677000D02*
X94107000Y-70401337D01*
D23*
X104555000Y-63280000D02*
X106553000Y-65278000D01*
X111252000Y-71120000D02*
X113792000Y-68580000D01*
D24*
X94107000Y-70401337D02*
X96436337Y-68072000D01*
X103446500Y-62230000D02*
X99822000Y-62230000D01*
D23*
X105119000Y-74385000D02*
X105959000Y-74385000D01*
X116078000Y-76228000D02*
X115062000Y-76228000D01*
D24*
X107259000Y-73985000D02*
X107259000Y-74385000D01*
X104394000Y-64770000D02*
X104394000Y-63382500D01*
D23*
X113312000Y-76228000D02*
X111252000Y-74168000D01*
D24*
X106172000Y-73660000D02*
X106934000Y-73660000D01*
D23*
X104620000Y-73886000D02*
X105119000Y-74385000D01*
D24*
X99822000Y-62230000D02*
X99062000Y-62990000D01*
D23*
X106553000Y-65278000D02*
X108712000Y-65278000D01*
D24*
X105959000Y-74385000D02*
X105959000Y-73873000D01*
X104140000Y-65024000D02*
X104394000Y-64770000D01*
D23*
X104620000Y-73152000D02*
X104620000Y-73886000D01*
D24*
X103378000Y-65024000D02*
X104140000Y-65024000D01*
X104496500Y-63280000D02*
X103446500Y-62230000D01*
D23*
X115062000Y-76228000D02*
X113312000Y-76228000D01*
X113792000Y-66040000D02*
X113030000Y-65278000D01*
D24*
X106934000Y-73660000D02*
X107259000Y-73985000D01*
X96436337Y-68072000D02*
X101346000Y-68072000D01*
X104394000Y-63382500D02*
X104496500Y-63280000D01*
X102870000Y-66548000D02*
X102870000Y-65532000D01*
D23*
X108712000Y-65278000D02*
X104620000Y-69370000D01*
X104496500Y-63280000D02*
X104555000Y-63280000D01*
X104620000Y-73886000D02*
X104620000Y-74168000D01*
D24*
X101346000Y-68072000D02*
X102870000Y-66548000D01*
%TO.N,/SDA_EEPROM*%
X98806000Y-70358000D02*
X98236000Y-70358000D01*
X98236000Y-70358000D02*
X97917000Y-70677000D01*
%TO.N,/SDA*%
X109474000Y-68580000D02*
X110490000Y-68580000D01*
X108712000Y-69342000D02*
X109474000Y-68580000D01*
X107259000Y-70795000D02*
X108712000Y-69342000D01*
X107259000Y-72935000D02*
X107259000Y-70795000D01*
X110998000Y-68072000D02*
X110998000Y-66802000D01*
X110490000Y-68580000D02*
X110998000Y-68072000D01*
%TO.N,/SCL*%
X107909000Y-72935000D02*
X107909000Y-71415000D01*
X108204000Y-71120000D02*
X109982000Y-69342000D01*
X110744000Y-69342000D02*
X111252000Y-69342000D01*
X112014000Y-68580000D02*
X112014000Y-66802000D01*
X107909000Y-71415000D02*
X108204000Y-71120000D01*
X111252000Y-69342000D02*
X112014000Y-68580000D01*
X109982000Y-69342000D02*
X110744000Y-69342000D01*
%TO.N,/SCL_EEPROM*%
X97282000Y-68834000D02*
X96647000Y-69469000D01*
X102108000Y-68834000D02*
X97282000Y-68834000D01*
X96647000Y-69469000D02*
X96647000Y-70677000D01*
D23*
%TO.N,/5V*%
X108129500Y-77978000D02*
X108176000Y-77931500D01*
X106934000Y-77978000D02*
X108129500Y-77978000D01*
X105664000Y-77978000D02*
X106934000Y-77978000D01*
%TO.N,Net-(C1-Pad1)*%
X109728000Y-80264000D02*
X109728000Y-83561000D01*
X109220000Y-79248000D02*
X109728000Y-79248000D01*
X108176000Y-80056500D02*
X108411500Y-80056500D01*
X109728000Y-79248000D02*
X109728000Y-80264000D01*
X108411500Y-80056500D02*
X109220000Y-79248000D01*
X109728000Y-83561000D02*
X109733000Y-83566000D01*
D24*
%TO.N,/A0*%
X111252000Y-62738000D02*
X113284000Y-62738000D01*
X119380000Y-72136000D02*
X119380000Y-77978000D01*
X112273000Y-82047000D02*
X112273000Y-83566000D01*
X115824000Y-81534000D02*
X112776000Y-81534000D01*
X109982000Y-64008000D02*
X111252000Y-62738000D01*
X114554000Y-64008000D02*
X114554000Y-67310000D01*
X112776000Y-81534000D02*
X112268000Y-82042000D01*
X119380000Y-77978000D02*
X115824000Y-81534000D01*
X112268000Y-82042000D02*
X112273000Y-82047000D01*
X114554000Y-67310000D02*
X119380000Y-72136000D01*
X107442000Y-64008000D02*
X109982000Y-64008000D01*
X113284000Y-62738000D02*
X114554000Y-64008000D01*
%TO.N,/A1*%
X120650000Y-70866000D02*
X120650000Y-80269000D01*
X106426000Y-62738000D02*
X107442000Y-61722000D01*
X113538000Y-61722000D02*
X115824000Y-64008000D01*
X120650000Y-80269000D02*
X117353000Y-83566000D01*
X107442000Y-61722000D02*
X113538000Y-61722000D01*
X115824000Y-66040000D02*
X120650000Y-70866000D01*
X115824000Y-64008000D02*
X115824000Y-66040000D01*
%TD*%
%TA.AperFunction,Conductor*%
%TO.N,GND*%
G36*
X93508556Y-61466002D02*
G01*
X93555049Y-61519658D01*
X93565153Y-61589932D01*
X93535659Y-61654512D01*
X93504858Y-61680285D01*
X93450196Y-61712805D01*
X93443945Y-61717053D01*
X93250733Y-61866115D01*
X93242267Y-61877773D01*
X93248871Y-61889661D01*
X94987188Y-63627978D01*
X95001132Y-63635592D01*
X95002965Y-63635461D01*
X95009580Y-63631210D01*
X96750162Y-61890628D01*
X96757174Y-61877787D01*
X96749379Y-61867098D01*
X96579886Y-61733481D01*
X96573663Y-61729156D01*
X96492326Y-61679605D01*
X96444557Y-61627082D01*
X96432767Y-61557071D01*
X96460699Y-61491800D01*
X96519485Y-61451992D01*
X96557879Y-61446000D01*
X99432118Y-61446000D01*
X99500239Y-61466002D01*
X99546732Y-61519658D01*
X99556836Y-61589932D01*
X99527342Y-61654512D01*
X99506180Y-61673935D01*
X99477519Y-61694759D01*
X99467595Y-61701278D01*
X99436224Y-61719830D01*
X99436219Y-61719834D01*
X99429401Y-61723866D01*
X99415014Y-61738253D01*
X99399980Y-61751094D01*
X99383513Y-61763058D01*
X99378460Y-61769166D01*
X99355228Y-61797249D01*
X99347238Y-61806029D01*
X98668517Y-62484750D01*
X98660191Y-62492326D01*
X98653697Y-62496447D01*
X98614109Y-62538604D01*
X98606915Y-62546265D01*
X98604160Y-62549107D01*
X98584361Y-62568906D01*
X98581937Y-62572031D01*
X98581929Y-62572040D01*
X98581863Y-62572126D01*
X98574155Y-62581151D01*
X98543783Y-62613494D01*
X98539965Y-62620438D01*
X98539964Y-62620440D01*
X98533978Y-62631329D01*
X98523127Y-62647847D01*
X98510650Y-62663933D01*
X98493024Y-62704666D01*
X98487807Y-62715314D01*
X98466431Y-62754197D01*
X98464460Y-62761872D01*
X98464458Y-62761878D01*
X98461369Y-62773911D01*
X98454966Y-62792613D01*
X98446883Y-62811292D01*
X98445644Y-62819114D01*
X98445643Y-62819118D01*
X98444104Y-62828838D01*
X98413692Y-62892991D01*
X98353425Y-62930518D01*
X98291191Y-62930161D01*
X98290979Y-62931323D01*
X98284643Y-62930165D01*
X98278466Y-62928371D01*
X98272059Y-62927867D01*
X98272055Y-62927866D01*
X98244444Y-62925693D01*
X98244438Y-62925693D01*
X98241989Y-62925500D01*
X98042122Y-62925500D01*
X97842012Y-62925501D01*
X97805534Y-62928371D01*
X97765562Y-62939984D01*
X97677727Y-62965502D01*
X97606730Y-62965299D01*
X97547114Y-62926745D01*
X97527602Y-62896055D01*
X97450172Y-62723363D01*
X97446655Y-62716636D01*
X97279054Y-62438252D01*
X97274757Y-62431999D01*
X97133617Y-62251022D01*
X97121823Y-62242551D01*
X97110113Y-62249097D01*
X95372022Y-63987188D01*
X95364408Y-64001132D01*
X95364539Y-64002965D01*
X95368790Y-64009580D01*
X97108825Y-65749615D01*
X97121948Y-65756781D01*
X97132250Y-65749391D01*
X97241429Y-65615285D01*
X97245842Y-65609144D01*
X97336608Y-65465287D01*
X97389874Y-65418349D01*
X97460062Y-65407659D01*
X97524886Y-65436613D01*
X97563766Y-65496018D01*
X97567934Y-65519631D01*
X97568500Y-65519572D01*
X97579022Y-65620982D01*
X97632692Y-65781849D01*
X97721929Y-65926055D01*
X97727107Y-65931224D01*
X97747159Y-65951241D01*
X97781238Y-66013523D01*
X97776235Y-66084343D01*
X97747314Y-66129432D01*
X97726702Y-66150080D01*
X97717690Y-66161491D01*
X97636447Y-66293291D01*
X97630303Y-66306468D01*
X97581421Y-66453843D01*
X97578555Y-66467210D01*
X97569386Y-66556700D01*
X97573475Y-66570624D01*
X97574865Y-66571829D01*
X97582548Y-66573500D01*
X99516885Y-66573500D01*
X99532124Y-66569025D01*
X99533329Y-66567635D01*
X99534842Y-66560679D01*
X99534663Y-66557218D01*
X99525196Y-66465979D01*
X99522303Y-66452583D01*
X99473170Y-66305313D01*
X99466996Y-66292134D01*
X99385530Y-66160486D01*
X99376494Y-66149085D01*
X99356842Y-66129467D01*
X99322763Y-66067184D01*
X99327766Y-65996364D01*
X99356686Y-65951277D01*
X99377692Y-65930234D01*
X99382864Y-65925053D01*
X99471849Y-65780692D01*
X99511315Y-65661708D01*
X99523072Y-65626262D01*
X99523072Y-65626260D01*
X99525238Y-65619731D01*
X99535500Y-65519572D01*
X99535500Y-64985428D01*
X99524978Y-64884018D01*
X99471308Y-64723151D01*
X99467458Y-64716929D01*
X99467454Y-64716921D01*
X99448910Y-64686953D01*
X99430073Y-64618501D01*
X99451235Y-64550732D01*
X99491916Y-64512198D01*
X99587720Y-64455540D01*
X99594541Y-64451506D01*
X99709506Y-64336541D01*
X99792269Y-64196596D01*
X99837629Y-64040466D01*
X99840185Y-64008000D01*
X99840307Y-64006444D01*
X99840307Y-64006438D01*
X99840500Y-64003989D01*
X99840499Y-63504012D01*
X99837629Y-63467534D01*
X99792269Y-63311404D01*
X99785182Y-63299420D01*
X99767725Y-63230603D01*
X99790244Y-63163272D01*
X99804543Y-63146189D01*
X100048327Y-62902405D01*
X100110639Y-62868379D01*
X100137422Y-62865500D01*
X101020069Y-62865500D01*
X101088190Y-62885502D01*
X101134683Y-62939158D01*
X101144787Y-63009432D01*
X101115293Y-63074012D01*
X101083070Y-63100619D01*
X100950376Y-63177229D01*
X100945469Y-63181647D01*
X100945468Y-63181648D01*
X100879333Y-63241197D01*
X100811579Y-63302203D01*
X100807700Y-63307542D01*
X100706263Y-63447158D01*
X100701798Y-63453303D01*
X100699114Y-63459331D01*
X100699113Y-63459333D01*
X100628519Y-63617891D01*
X100625832Y-63623926D01*
X100617514Y-63663058D01*
X100591831Y-63783888D01*
X100587000Y-63806615D01*
X100587000Y-63993385D01*
X100588372Y-63999837D01*
X100588372Y-63999842D01*
X100600625Y-64057486D01*
X100625832Y-64176074D01*
X100628517Y-64182104D01*
X100628517Y-64182105D01*
X100698038Y-64338251D01*
X100701798Y-64346697D01*
X100705678Y-64352038D01*
X100705679Y-64352039D01*
X100773873Y-64445900D01*
X100811579Y-64497797D01*
X100816481Y-64502210D01*
X100816482Y-64502212D01*
X100945468Y-64618352D01*
X100950376Y-64622771D01*
X100956097Y-64626074D01*
X101101363Y-64709943D01*
X101112124Y-64716156D01*
X101155021Y-64730094D01*
X101283474Y-64771831D01*
X101283475Y-64771831D01*
X101289753Y-64773871D01*
X101296316Y-64774561D01*
X101296317Y-64774561D01*
X101319097Y-64776955D01*
X101428937Y-64788500D01*
X101522063Y-64788500D01*
X101631903Y-64776955D01*
X101654683Y-64774561D01*
X101654684Y-64774561D01*
X101661247Y-64773871D01*
X101667525Y-64771831D01*
X101667526Y-64771831D01*
X101795979Y-64730094D01*
X101838876Y-64716156D01*
X101849638Y-64709943D01*
X101994903Y-64626074D01*
X102000624Y-64622771D01*
X102005532Y-64618352D01*
X102134518Y-64502212D01*
X102134519Y-64502210D01*
X102139421Y-64497797D01*
X102177127Y-64445900D01*
X102245321Y-64352039D01*
X102245322Y-64352038D01*
X102249202Y-64346697D01*
X102252963Y-64338251D01*
X102322483Y-64182105D01*
X102322483Y-64182104D01*
X102325168Y-64176074D01*
X102350375Y-64057486D01*
X102362628Y-63999842D01*
X102362628Y-63999837D01*
X102364000Y-63993385D01*
X102364000Y-63806615D01*
X102359170Y-63783888D01*
X102333486Y-63663058D01*
X102325168Y-63623926D01*
X102322481Y-63617891D01*
X102251887Y-63459333D01*
X102251886Y-63459331D01*
X102249202Y-63453303D01*
X102244738Y-63447158D01*
X102143300Y-63307542D01*
X102139421Y-63302203D01*
X102071668Y-63241197D01*
X102005532Y-63181648D01*
X102005531Y-63181647D01*
X102000624Y-63177229D01*
X101867931Y-63100619D01*
X101818938Y-63049237D01*
X101805502Y-62979523D01*
X101831888Y-62913612D01*
X101889720Y-62872430D01*
X101930931Y-62865500D01*
X103131078Y-62865500D01*
X103199199Y-62885502D01*
X103220173Y-62902405D01*
X103613867Y-63296099D01*
X103647893Y-63358411D01*
X103650082Y-63372023D01*
X103659118Y-63457991D01*
X103714423Y-63628203D01*
X103741620Y-63675309D01*
X103758500Y-63738307D01*
X103758500Y-64262500D01*
X103738498Y-64330621D01*
X103684842Y-64377114D01*
X103632500Y-64388500D01*
X103457020Y-64388500D01*
X103445791Y-64387971D01*
X103438281Y-64386292D01*
X103430355Y-64386541D01*
X103430354Y-64386541D01*
X103370002Y-64388438D01*
X103366044Y-64388500D01*
X103338017Y-64388500D01*
X103333971Y-64389011D01*
X103322143Y-64389942D01*
X103277795Y-64391336D01*
X103270178Y-64393549D01*
X103258253Y-64397013D01*
X103238894Y-64401022D01*
X103237633Y-64401181D01*
X103218701Y-64403573D01*
X103211337Y-64406489D01*
X103211332Y-64406490D01*
X103189421Y-64415166D01*
X103177428Y-64419914D01*
X103166224Y-64423751D01*
X103123607Y-64436132D01*
X103113952Y-64441842D01*
X103106094Y-64446489D01*
X103088343Y-64455185D01*
X103076785Y-64459761D01*
X103076780Y-64459764D01*
X103069412Y-64462681D01*
X103062997Y-64467342D01*
X103033507Y-64488767D01*
X103023585Y-64495284D01*
X102992228Y-64513828D01*
X102992225Y-64513830D01*
X102985401Y-64517866D01*
X102971014Y-64532253D01*
X102955980Y-64545094D01*
X102939513Y-64557058D01*
X102934460Y-64563166D01*
X102911228Y-64591249D01*
X102903238Y-64600029D01*
X102476517Y-65026750D01*
X102468191Y-65034326D01*
X102461697Y-65038447D01*
X102456274Y-65044222D01*
X102414915Y-65088265D01*
X102412160Y-65091107D01*
X102392361Y-65110906D01*
X102389937Y-65114031D01*
X102389929Y-65114040D01*
X102389863Y-65114126D01*
X102382155Y-65123151D01*
X102351783Y-65155494D01*
X102347965Y-65162438D01*
X102347964Y-65162440D01*
X102341978Y-65173329D01*
X102331127Y-65189847D01*
X102318650Y-65205933D01*
X102301024Y-65246666D01*
X102295807Y-65257314D01*
X102274431Y-65296197D01*
X102272460Y-65303872D01*
X102272458Y-65303878D01*
X102269369Y-65315911D01*
X102262966Y-65334613D01*
X102254883Y-65353292D01*
X102253644Y-65361117D01*
X102247940Y-65397127D01*
X102245535Y-65408740D01*
X102234500Y-65451718D01*
X102234500Y-65472065D01*
X102232949Y-65491776D01*
X102229765Y-65511879D01*
X102230511Y-65519771D01*
X102233941Y-65556056D01*
X102234500Y-65567914D01*
X102234500Y-66232577D01*
X102214498Y-66300698D01*
X102197595Y-66321672D01*
X101119672Y-67399595D01*
X101057360Y-67433621D01*
X101030577Y-67436500D01*
X99619062Y-67436500D01*
X99550941Y-67416498D01*
X99504448Y-67362842D01*
X99494344Y-67292568D01*
X99499469Y-67270834D01*
X99522578Y-67201160D01*
X99525445Y-67187790D01*
X99534614Y-67098300D01*
X99530525Y-67084376D01*
X99529135Y-67083171D01*
X99521452Y-67081500D01*
X97587115Y-67081500D01*
X97571876Y-67085975D01*
X97570671Y-67087365D01*
X97569158Y-67094321D01*
X97569337Y-67097782D01*
X97578804Y-67189021D01*
X97581697Y-67202417D01*
X97604453Y-67270624D01*
X97607037Y-67341573D01*
X97570854Y-67402657D01*
X97507390Y-67434482D01*
X97484929Y-67436500D01*
X96515369Y-67436500D01*
X96504130Y-67435970D01*
X96496618Y-67434291D01*
X96488693Y-67434540D01*
X96488692Y-67434540D01*
X96428307Y-67436438D01*
X96424349Y-67436500D01*
X96396354Y-67436500D01*
X96392420Y-67436997D01*
X96392418Y-67436997D01*
X96392331Y-67437008D01*
X96380497Y-67437940D01*
X96336132Y-67439335D01*
X96328519Y-67441547D01*
X96328518Y-67441547D01*
X96316589Y-67445013D01*
X96297225Y-67449023D01*
X96284897Y-67450580D01*
X96284895Y-67450580D01*
X96277038Y-67451573D01*
X96269674Y-67454489D01*
X96269669Y-67454490D01*
X96235781Y-67467907D01*
X96224552Y-67471752D01*
X96207872Y-67476598D01*
X96181944Y-67484131D01*
X96175117Y-67488169D01*
X96175114Y-67488170D01*
X96164431Y-67494488D01*
X96146673Y-67503188D01*
X96135122Y-67507761D01*
X96135116Y-67507765D01*
X96127749Y-67510681D01*
X96121338Y-67515339D01*
X96121336Y-67515340D01*
X96091849Y-67536764D01*
X96081927Y-67543281D01*
X96050569Y-67561826D01*
X96050565Y-67561829D01*
X96043739Y-67565866D01*
X96029355Y-67580250D01*
X96014321Y-67593091D01*
X95997850Y-67605058D01*
X95992797Y-67611166D01*
X95969560Y-67639255D01*
X95961570Y-67648035D01*
X94450423Y-69159182D01*
X94388111Y-69193208D01*
X94351442Y-69195699D01*
X94325958Y-69193693D01*
X94325950Y-69193693D01*
X94323502Y-69193500D01*
X93890498Y-69193500D01*
X93888050Y-69193693D01*
X93888042Y-69193693D01*
X93859579Y-69195933D01*
X93859574Y-69195934D01*
X93853169Y-69196438D01*
X93753231Y-69225472D01*
X93701012Y-69240643D01*
X93701010Y-69240644D01*
X93693399Y-69242855D01*
X93686572Y-69246892D01*
X93686573Y-69246892D01*
X93557020Y-69323509D01*
X93557017Y-69323511D01*
X93550193Y-69327547D01*
X93432547Y-69445193D01*
X93428511Y-69452017D01*
X93428509Y-69452020D01*
X93403940Y-69493564D01*
X93347855Y-69588399D01*
X93301438Y-69748169D01*
X93298500Y-69785498D01*
X93298500Y-71568502D01*
X93301438Y-71605831D01*
X93326558Y-71692295D01*
X93341406Y-71743402D01*
X93347855Y-71765601D01*
X93351892Y-71772427D01*
X93428509Y-71901980D01*
X93428511Y-71901983D01*
X93432547Y-71908807D01*
X93550193Y-72026453D01*
X93557017Y-72030489D01*
X93557020Y-72030491D01*
X93651030Y-72086088D01*
X93693399Y-72111145D01*
X93701010Y-72113356D01*
X93701012Y-72113357D01*
X93717273Y-72118081D01*
X93853169Y-72157562D01*
X93859574Y-72158066D01*
X93859579Y-72158067D01*
X93888042Y-72160307D01*
X93888050Y-72160307D01*
X93890498Y-72160500D01*
X94323502Y-72160500D01*
X94325950Y-72160307D01*
X94325958Y-72160307D01*
X94354421Y-72158067D01*
X94354426Y-72158066D01*
X94360831Y-72157562D01*
X94496727Y-72118081D01*
X94512988Y-72113357D01*
X94512990Y-72113356D01*
X94520601Y-72111145D01*
X94663807Y-72026453D01*
X94666489Y-72023771D01*
X94730861Y-71998498D01*
X94800484Y-72012400D01*
X94816312Y-72022572D01*
X94820193Y-72026453D01*
X94963399Y-72111145D01*
X94971010Y-72113356D01*
X94971012Y-72113357D01*
X94987273Y-72118081D01*
X95123169Y-72157562D01*
X95129574Y-72158066D01*
X95129579Y-72158067D01*
X95158042Y-72160307D01*
X95158050Y-72160307D01*
X95160498Y-72160500D01*
X95593502Y-72160500D01*
X95595950Y-72160307D01*
X95595958Y-72160307D01*
X95624421Y-72158067D01*
X95624426Y-72158066D01*
X95630831Y-72157562D01*
X95766727Y-72118081D01*
X95782988Y-72113357D01*
X95782990Y-72113356D01*
X95790601Y-72111145D01*
X95933807Y-72026453D01*
X95936489Y-72023771D01*
X96000861Y-71998498D01*
X96070484Y-72012400D01*
X96086312Y-72022572D01*
X96090193Y-72026453D01*
X96233399Y-72111145D01*
X96241010Y-72113356D01*
X96241012Y-72113357D01*
X96257273Y-72118081D01*
X96393169Y-72157562D01*
X96399574Y-72158066D01*
X96399579Y-72158067D01*
X96428042Y-72160307D01*
X96428050Y-72160307D01*
X96430498Y-72160500D01*
X96863502Y-72160500D01*
X96865950Y-72160307D01*
X96865958Y-72160307D01*
X96894421Y-72158067D01*
X96894426Y-72158066D01*
X96900831Y-72157562D01*
X97036727Y-72118081D01*
X97052988Y-72113357D01*
X97052990Y-72113356D01*
X97060601Y-72111145D01*
X97203807Y-72026453D01*
X97206489Y-72023771D01*
X97270861Y-71998498D01*
X97340484Y-72012400D01*
X97356312Y-72022572D01*
X97360193Y-72026453D01*
X97503399Y-72111145D01*
X97511010Y-72113356D01*
X97511012Y-72113357D01*
X97527273Y-72118081D01*
X97663169Y-72157562D01*
X97669574Y-72158066D01*
X97669579Y-72158067D01*
X97698042Y-72160307D01*
X97698050Y-72160307D01*
X97700498Y-72160500D01*
X98133502Y-72160500D01*
X98135950Y-72160307D01*
X98135958Y-72160307D01*
X98164421Y-72158067D01*
X98164426Y-72158066D01*
X98170831Y-72157562D01*
X98306727Y-72118081D01*
X98322988Y-72113357D01*
X98322990Y-72113356D01*
X98330601Y-72111145D01*
X98372970Y-72086088D01*
X98466980Y-72030491D01*
X98466983Y-72030489D01*
X98473807Y-72026453D01*
X98591453Y-71908807D01*
X98595489Y-71901983D01*
X98595491Y-71901980D01*
X98672108Y-71772427D01*
X98676145Y-71765601D01*
X98682595Y-71743402D01*
X98697442Y-71692295D01*
X98722562Y-71605831D01*
X98725500Y-71568502D01*
X98725500Y-71335400D01*
X98745502Y-71267279D01*
X98799158Y-71220786D01*
X98851500Y-71209400D01*
X98895486Y-71209400D01*
X98901939Y-71208028D01*
X98901943Y-71208028D01*
X98988026Y-71189730D01*
X99070546Y-71172190D01*
X99076577Y-71169505D01*
X99228015Y-71102081D01*
X99228017Y-71102080D01*
X99234045Y-71099396D01*
X99239387Y-71095515D01*
X99373492Y-70998082D01*
X99373494Y-70998080D01*
X99378836Y-70994199D01*
X99431092Y-70936163D01*
X99494172Y-70866105D01*
X99494173Y-70866104D01*
X99498591Y-70861197D01*
X99565687Y-70744984D01*
X99584773Y-70711926D01*
X99584774Y-70711925D01*
X99588077Y-70706203D01*
X99629437Y-70578911D01*
X99641342Y-70542270D01*
X99641342Y-70542269D01*
X99643382Y-70535991D01*
X99644790Y-70522600D01*
X99661400Y-70364565D01*
X99662090Y-70358000D01*
X99656753Y-70307226D01*
X99644072Y-70186573D01*
X99644072Y-70186572D01*
X99643382Y-70180009D01*
X99588077Y-70009797D01*
X99580979Y-69997502D01*
X99501892Y-69860521D01*
X99498591Y-69854803D01*
X99433978Y-69783042D01*
X99383258Y-69726712D01*
X99383257Y-69726711D01*
X99378836Y-69721801D01*
X99345299Y-69697435D01*
X99301947Y-69641213D01*
X99295872Y-69570477D01*
X99329004Y-69507685D01*
X99390824Y-69472774D01*
X99419362Y-69469500D01*
X101493262Y-69469500D01*
X101561383Y-69489502D01*
X101567323Y-69493564D01*
X101673185Y-69570477D01*
X101679955Y-69575396D01*
X101685983Y-69578080D01*
X101685985Y-69578081D01*
X101772510Y-69616604D01*
X101843454Y-69648190D01*
X101930984Y-69666795D01*
X102012057Y-69684028D01*
X102012061Y-69684028D01*
X102018514Y-69685400D01*
X102197486Y-69685400D01*
X102203939Y-69684028D01*
X102203943Y-69684028D01*
X102285016Y-69666795D01*
X102372546Y-69648190D01*
X102443490Y-69616604D01*
X102530015Y-69578081D01*
X102530017Y-69578080D01*
X102536045Y-69575396D01*
X102541387Y-69571515D01*
X102675492Y-69474082D01*
X102675494Y-69474080D01*
X102680836Y-69470199D01*
X102685258Y-69465288D01*
X102796172Y-69342105D01*
X102796173Y-69342104D01*
X102800591Y-69337197D01*
X102877586Y-69203838D01*
X102886773Y-69187926D01*
X102886774Y-69187925D01*
X102890077Y-69182203D01*
X102929171Y-69061885D01*
X102943342Y-69018270D01*
X102943342Y-69018269D01*
X102945382Y-69011991D01*
X102955373Y-68916940D01*
X102963400Y-68840565D01*
X102964090Y-68834000D01*
X102960958Y-68804205D01*
X102946072Y-68662573D01*
X102946072Y-68662572D01*
X102945382Y-68656009D01*
X102936937Y-68630016D01*
X102892119Y-68492082D01*
X102890077Y-68485797D01*
X102800591Y-68330803D01*
X102740588Y-68264162D01*
X102685258Y-68202712D01*
X102685257Y-68202711D01*
X102680836Y-68197801D01*
X102564198Y-68113058D01*
X102541387Y-68096485D01*
X102541386Y-68096484D01*
X102536045Y-68092604D01*
X102487701Y-68071080D01*
X102433605Y-68025101D01*
X102412955Y-67957174D01*
X102432307Y-67888865D01*
X102449854Y-67866878D01*
X103263477Y-67053255D01*
X103271803Y-67045678D01*
X103278303Y-67041553D01*
X103297266Y-67021360D01*
X103325100Y-66991719D01*
X103327855Y-66988877D01*
X103347638Y-66969094D01*
X103350129Y-66965883D01*
X103357838Y-66956856D01*
X103382789Y-66930286D01*
X103388217Y-66924506D01*
X103398022Y-66906671D01*
X103408876Y-66890147D01*
X103416491Y-66880330D01*
X103416492Y-66880329D01*
X103421349Y-66874067D01*
X103438969Y-66833350D01*
X103444192Y-66822689D01*
X103461749Y-66790753D01*
X103461751Y-66790748D01*
X103465569Y-66783803D01*
X103467539Y-66776129D01*
X103467542Y-66776122D01*
X103470632Y-66764087D01*
X103477036Y-66745382D01*
X103481967Y-66733987D01*
X103485117Y-66726708D01*
X103492060Y-66682873D01*
X103494467Y-66671251D01*
X103505500Y-66628282D01*
X103505500Y-66607935D01*
X103507051Y-66588224D01*
X103508995Y-66575950D01*
X103510235Y-66568121D01*
X103506059Y-66523944D01*
X103505500Y-66512086D01*
X103505500Y-65847422D01*
X103525502Y-65779301D01*
X103542405Y-65758327D01*
X103604327Y-65696405D01*
X103666639Y-65662379D01*
X103693422Y-65659500D01*
X104060980Y-65659500D01*
X104072214Y-65660030D01*
X104079719Y-65661708D01*
X104148012Y-65659562D01*
X104151969Y-65659500D01*
X104179983Y-65659500D01*
X104183908Y-65659004D01*
X104183909Y-65659004D01*
X104184004Y-65658992D01*
X104195849Y-65658059D01*
X104225670Y-65657122D01*
X104232282Y-65656914D01*
X104232283Y-65656914D01*
X104240205Y-65656665D01*
X104259749Y-65650987D01*
X104279112Y-65646977D01*
X104291440Y-65645420D01*
X104291442Y-65645420D01*
X104299299Y-65644427D01*
X104306663Y-65641511D01*
X104306668Y-65641510D01*
X104340556Y-65628093D01*
X104351785Y-65624248D01*
X104368465Y-65619402D01*
X104394393Y-65611869D01*
X104401220Y-65607831D01*
X104401223Y-65607830D01*
X104411906Y-65601512D01*
X104429664Y-65592812D01*
X104441215Y-65588239D01*
X104441221Y-65588235D01*
X104448588Y-65585319D01*
X104484491Y-65559234D01*
X104494410Y-65552719D01*
X104525768Y-65534174D01*
X104525772Y-65534171D01*
X104532598Y-65530134D01*
X104546982Y-65515750D01*
X104562016Y-65502909D01*
X104572073Y-65495602D01*
X104578487Y-65490942D01*
X104606778Y-65456744D01*
X104614767Y-65447965D01*
X104787477Y-65275255D01*
X104795803Y-65267678D01*
X104802303Y-65263553D01*
X104849101Y-65213718D01*
X104851855Y-65210877D01*
X104871638Y-65191094D01*
X104874129Y-65187883D01*
X104881838Y-65178856D01*
X104897254Y-65162440D01*
X104912217Y-65146506D01*
X104922022Y-65128671D01*
X104932876Y-65112147D01*
X104940491Y-65102330D01*
X104940492Y-65102329D01*
X104945349Y-65096067D01*
X104962969Y-65055350D01*
X104968191Y-65044689D01*
X104974605Y-65033023D01*
X104984246Y-65015487D01*
X105034591Y-64965428D01*
X105104008Y-64950535D01*
X105170457Y-64975536D01*
X105183755Y-64987093D01*
X105966190Y-65769528D01*
X105978577Y-65783941D01*
X105991546Y-65801564D01*
X105997129Y-65806307D01*
X106032055Y-65835979D01*
X106039571Y-65842909D01*
X106045315Y-65848653D01*
X106048189Y-65850927D01*
X106048196Y-65850933D01*
X106067711Y-65866372D01*
X106071115Y-65869163D01*
X106121472Y-65911945D01*
X106121476Y-65911948D01*
X106127051Y-65916684D01*
X106133568Y-65920012D01*
X106138632Y-65923389D01*
X106143856Y-65926616D01*
X106149600Y-65931160D01*
X106216104Y-65962242D01*
X106220001Y-65964147D01*
X106285404Y-65997543D01*
X106292518Y-65999284D01*
X106298252Y-66001416D01*
X106304048Y-66003344D01*
X106310680Y-66006444D01*
X106382555Y-66021394D01*
X106386839Y-66022364D01*
X106458112Y-66039804D01*
X106463714Y-66040152D01*
X106463717Y-66040152D01*
X106469330Y-66040500D01*
X106469328Y-66040537D01*
X106473227Y-66040773D01*
X106477598Y-66041163D01*
X106484757Y-66042652D01*
X106562577Y-66040546D01*
X106565986Y-66040500D01*
X106566972Y-66040500D01*
X106635093Y-66060502D01*
X106681586Y-66114158D01*
X106691690Y-66184432D01*
X106662196Y-66249012D01*
X106656067Y-66255595D01*
X104128472Y-68783190D01*
X104114059Y-68795577D01*
X104096436Y-68808546D01*
X104084733Y-68822321D01*
X104062021Y-68849055D01*
X104055091Y-68856571D01*
X104049347Y-68862315D01*
X104047073Y-68865189D01*
X104047067Y-68865196D01*
X104031628Y-68884711D01*
X104028837Y-68888115D01*
X103986055Y-68938472D01*
X103986052Y-68938476D01*
X103981316Y-68944051D01*
X103977988Y-68950568D01*
X103974611Y-68955632D01*
X103971384Y-68960856D01*
X103966840Y-68966600D01*
X103963741Y-68973231D01*
X103935768Y-69033082D01*
X103933837Y-69037033D01*
X103900457Y-69102404D01*
X103898716Y-69109519D01*
X103896579Y-69115265D01*
X103894655Y-69121048D01*
X103891556Y-69127679D01*
X103877255Y-69196438D01*
X103876608Y-69199547D01*
X103875639Y-69203829D01*
X103858196Y-69275112D01*
X103857500Y-69286330D01*
X103857461Y-69286328D01*
X103857228Y-69290229D01*
X103856839Y-69294588D01*
X103855348Y-69301756D01*
X103855546Y-69309073D01*
X103857454Y-69379577D01*
X103857500Y-69382986D01*
X103857500Y-72782282D01*
X103852497Y-72817435D01*
X103836188Y-72873569D01*
X103836187Y-72873574D01*
X103834394Y-72879746D01*
X103833890Y-72886151D01*
X103833889Y-72886156D01*
X103833191Y-72895031D01*
X103831500Y-72916516D01*
X103831500Y-73387484D01*
X103831693Y-73389932D01*
X103831693Y-73389940D01*
X103833509Y-73413008D01*
X103834394Y-73424254D01*
X103836187Y-73430426D01*
X103836188Y-73430431D01*
X103852497Y-73486565D01*
X103857500Y-73521718D01*
X103857500Y-73798282D01*
X103852497Y-73833435D01*
X103836188Y-73889569D01*
X103836187Y-73889574D01*
X103834394Y-73895746D01*
X103833890Y-73902151D01*
X103833889Y-73902156D01*
X103832351Y-73921703D01*
X103831500Y-73932516D01*
X103831500Y-74403484D01*
X103831693Y-74405932D01*
X103831693Y-74405940D01*
X103833184Y-74424876D01*
X103834394Y-74440254D01*
X103851572Y-74499380D01*
X103874538Y-74578430D01*
X103880106Y-74597597D01*
X103884141Y-74604419D01*
X103884141Y-74604420D01*
X103896454Y-74625240D01*
X103914000Y-74689379D01*
X103914000Y-74961558D01*
X103917973Y-74975089D01*
X103925871Y-74976224D01*
X104051784Y-74939643D01*
X104066222Y-74933395D01*
X104075372Y-74927984D01*
X104144188Y-74910526D01*
X104203647Y-74927985D01*
X104211531Y-74932647D01*
X104220403Y-74937894D01*
X104228014Y-74940105D01*
X104228016Y-74940106D01*
X104278995Y-74954916D01*
X104377746Y-74983606D01*
X104384151Y-74984110D01*
X104384156Y-74984111D01*
X104412060Y-74986307D01*
X104412068Y-74986307D01*
X104414516Y-74986500D01*
X104602986Y-74986500D01*
X104671107Y-75006502D01*
X104684567Y-75016476D01*
X104693051Y-75023684D01*
X104699568Y-75027012D01*
X104704632Y-75030389D01*
X104709856Y-75033616D01*
X104715600Y-75038160D01*
X104782104Y-75069242D01*
X104786001Y-75071147D01*
X104851404Y-75104543D01*
X104858518Y-75106284D01*
X104864252Y-75108416D01*
X104870048Y-75110344D01*
X104876680Y-75113444D01*
X104948555Y-75128394D01*
X104952839Y-75129364D01*
X105024112Y-75146804D01*
X105029714Y-75147152D01*
X105029717Y-75147152D01*
X105035330Y-75147500D01*
X105035328Y-75147537D01*
X105039227Y-75147773D01*
X105043598Y-75148163D01*
X105050757Y-75149652D01*
X105128577Y-75147546D01*
X105131986Y-75147500D01*
X106003525Y-75147500D01*
X106096402Y-75136672D01*
X106128335Y-75132949D01*
X106128337Y-75132949D01*
X106135607Y-75132101D01*
X106142484Y-75129605D01*
X106142487Y-75129604D01*
X106152247Y-75126061D01*
X106195238Y-75118500D01*
X106232134Y-75118500D01*
X106272720Y-75114091D01*
X106299933Y-75114091D01*
X106332517Y-75117631D01*
X106339328Y-75118000D01*
X106365885Y-75118000D01*
X106381124Y-75113525D01*
X106403389Y-75087830D01*
X106403918Y-75088288D01*
X106410682Y-75075900D01*
X106430839Y-75060793D01*
X106430705Y-75060615D01*
X106533435Y-74983623D01*
X106599941Y-74958775D01*
X106669324Y-74973828D01*
X106684565Y-74983623D01*
X106785295Y-75059116D01*
X106787295Y-75060615D01*
X106787079Y-75060904D01*
X106833139Y-75107065D01*
X106835353Y-75112418D01*
X106839865Y-75116328D01*
X106847548Y-75117999D01*
X106878670Y-75117999D01*
X106885488Y-75117630D01*
X106918067Y-75114091D01*
X106945280Y-75114091D01*
X106985866Y-75118500D01*
X107532134Y-75118500D01*
X107535529Y-75118131D01*
X107535533Y-75118131D01*
X107564962Y-75114934D01*
X107570394Y-75114344D01*
X107597606Y-75114344D01*
X107603038Y-75114934D01*
X107632467Y-75118131D01*
X107632471Y-75118131D01*
X107635866Y-75118500D01*
X108182134Y-75118500D01*
X108244316Y-75111745D01*
X108380705Y-75060615D01*
X108497261Y-74973261D01*
X108584615Y-74856705D01*
X108635745Y-74720316D01*
X108642500Y-74658134D01*
X108642500Y-74111866D01*
X108635745Y-74049684D01*
X108584615Y-73913295D01*
X108497261Y-73796739D01*
X108449340Y-73760824D01*
X108406827Y-73703967D01*
X108401801Y-73633149D01*
X108435861Y-73570855D01*
X108449330Y-73559183D01*
X108497261Y-73523261D01*
X108584615Y-73406705D01*
X108635745Y-73270316D01*
X108642500Y-73208134D01*
X108642500Y-72661866D01*
X108635745Y-72599684D01*
X108584615Y-72463295D01*
X108579232Y-72456112D01*
X108579230Y-72456109D01*
X108569673Y-72443358D01*
X108544826Y-72376852D01*
X108544500Y-72367794D01*
X108544500Y-71730423D01*
X108564502Y-71662302D01*
X108581405Y-71641328D01*
X108681639Y-71541094D01*
X108681642Y-71541090D01*
X110208328Y-70014405D01*
X110270640Y-69980379D01*
X110297423Y-69977500D01*
X111011972Y-69977500D01*
X111080093Y-69997502D01*
X111126586Y-70051158D01*
X111136690Y-70121432D01*
X111107196Y-70186012D01*
X111101067Y-70192595D01*
X110760472Y-70533190D01*
X110746059Y-70545577D01*
X110728436Y-70558546D01*
X110713326Y-70576332D01*
X110694021Y-70599055D01*
X110687091Y-70606571D01*
X110681347Y-70612315D01*
X110679073Y-70615189D01*
X110679067Y-70615196D01*
X110663628Y-70634711D01*
X110660837Y-70638115D01*
X110618055Y-70688472D01*
X110618052Y-70688476D01*
X110613316Y-70694051D01*
X110609988Y-70700568D01*
X110606611Y-70705632D01*
X110603384Y-70710856D01*
X110598840Y-70716600D01*
X110595741Y-70723231D01*
X110567768Y-70783082D01*
X110565837Y-70787033D01*
X110532457Y-70852404D01*
X110530716Y-70859519D01*
X110528579Y-70865265D01*
X110526655Y-70871048D01*
X110523556Y-70877679D01*
X110508811Y-70948573D01*
X110508608Y-70949547D01*
X110507639Y-70953829D01*
X110490196Y-71025112D01*
X110489849Y-71030711D01*
X110489848Y-71030715D01*
X110489500Y-71036328D01*
X110489500Y-71036330D01*
X110489461Y-71036328D01*
X110489228Y-71040229D01*
X110488839Y-71044588D01*
X110487348Y-71051756D01*
X110487546Y-71059073D01*
X110489454Y-71129577D01*
X110489500Y-71132986D01*
X110489500Y-74100624D01*
X110488067Y-74119574D01*
X110485876Y-74133973D01*
X110485876Y-74133979D01*
X110484776Y-74141208D01*
X110485369Y-74148500D01*
X110485369Y-74148503D01*
X110489085Y-74194183D01*
X110489500Y-74204398D01*
X110489500Y-74212525D01*
X110492811Y-74240924D01*
X110493238Y-74245244D01*
X110499191Y-74318426D01*
X110501446Y-74325386D01*
X110502640Y-74331363D01*
X110504051Y-74337333D01*
X110504899Y-74344607D01*
X110507397Y-74351489D01*
X110507398Y-74351493D01*
X110529945Y-74413607D01*
X110531355Y-74417711D01*
X110553987Y-74487575D01*
X110557787Y-74493838D01*
X110560325Y-74499380D01*
X110563067Y-74504856D01*
X110565566Y-74511741D01*
X110569581Y-74517865D01*
X110605815Y-74573132D01*
X110608130Y-74576800D01*
X110646227Y-74639581D01*
X110649941Y-74643786D01*
X110649943Y-74643789D01*
X110653667Y-74648005D01*
X110653638Y-74648031D01*
X110656238Y-74650962D01*
X110659042Y-74654316D01*
X110663054Y-74660435D01*
X110668366Y-74665467D01*
X110719586Y-74713988D01*
X110722028Y-74716366D01*
X112725190Y-76719528D01*
X112737577Y-76733941D01*
X112750546Y-76751564D01*
X112756129Y-76756307D01*
X112791055Y-76785979D01*
X112798571Y-76792909D01*
X112804315Y-76798653D01*
X112807189Y-76800927D01*
X112807196Y-76800933D01*
X112826711Y-76816372D01*
X112830115Y-76819163D01*
X112880472Y-76861945D01*
X112880476Y-76861948D01*
X112886051Y-76866684D01*
X112892568Y-76870012D01*
X112897632Y-76873389D01*
X112902856Y-76876616D01*
X112908600Y-76881160D01*
X112915231Y-76884259D01*
X112975082Y-76912232D01*
X112979033Y-76914163D01*
X113044404Y-76947543D01*
X113051519Y-76949284D01*
X113057265Y-76951421D01*
X113063048Y-76953345D01*
X113069679Y-76956444D01*
X113141557Y-76971394D01*
X113145829Y-76972361D01*
X113217112Y-76989804D01*
X113222711Y-76990151D01*
X113222715Y-76990152D01*
X113228330Y-76990500D01*
X113228328Y-76990539D01*
X113232229Y-76990772D01*
X113236588Y-76991161D01*
X113243756Y-76992652D01*
X113251073Y-76992454D01*
X113321577Y-76990546D01*
X113324986Y-76990500D01*
X114692282Y-76990500D01*
X114727435Y-76995503D01*
X114783569Y-77011812D01*
X114783574Y-77011813D01*
X114789746Y-77013606D01*
X114796151Y-77014110D01*
X114796156Y-77014111D01*
X114824060Y-77016307D01*
X114824068Y-77016307D01*
X114826516Y-77016500D01*
X115297484Y-77016500D01*
X115299932Y-77016307D01*
X115299940Y-77016307D01*
X115327844Y-77014111D01*
X115327849Y-77014110D01*
X115334254Y-77013606D01*
X115340426Y-77011813D01*
X115340431Y-77011812D01*
X115396565Y-76995503D01*
X115431718Y-76990500D01*
X115708282Y-76990500D01*
X115743435Y-76995503D01*
X115799569Y-77011812D01*
X115799574Y-77011813D01*
X115805746Y-77013606D01*
X115812151Y-77014110D01*
X115812156Y-77014111D01*
X115840060Y-77016307D01*
X115840068Y-77016307D01*
X115842516Y-77016500D01*
X116313484Y-77016500D01*
X116315932Y-77016307D01*
X116315940Y-77016307D01*
X116343844Y-77014111D01*
X116343849Y-77014110D01*
X116350254Y-77013606D01*
X116356426Y-77011813D01*
X116356431Y-77011812D01*
X116412565Y-76995503D01*
X116447718Y-76990500D01*
X117506624Y-76990500D01*
X117525574Y-76991933D01*
X117539973Y-76994124D01*
X117539979Y-76994124D01*
X117547208Y-76995224D01*
X117554500Y-76994631D01*
X117554503Y-76994631D01*
X117600183Y-76990915D01*
X117610398Y-76990500D01*
X117618525Y-76990500D01*
X117622161Y-76990076D01*
X117622163Y-76990076D01*
X117625615Y-76989673D01*
X117646924Y-76987189D01*
X117651244Y-76986762D01*
X117724426Y-76980809D01*
X117731388Y-76978553D01*
X117737376Y-76977357D01*
X117743333Y-76975949D01*
X117750607Y-76975101D01*
X117757489Y-76972603D01*
X117757493Y-76972602D01*
X117819607Y-76950055D01*
X117823711Y-76948645D01*
X117893575Y-76926013D01*
X117899838Y-76922213D01*
X117905380Y-76919675D01*
X117910856Y-76916933D01*
X117917741Y-76914434D01*
X117979132Y-76874185D01*
X117982800Y-76871870D01*
X118045581Y-76833773D01*
X118049786Y-76830059D01*
X118049789Y-76830057D01*
X118054005Y-76826333D01*
X118054031Y-76826362D01*
X118056962Y-76823762D01*
X118060316Y-76820958D01*
X118066435Y-76816946D01*
X118119989Y-76760413D01*
X118122366Y-76757972D01*
X118529405Y-76350933D01*
X118591717Y-76316907D01*
X118662532Y-76321972D01*
X118719368Y-76364519D01*
X118744179Y-76431039D01*
X118744500Y-76440028D01*
X118744500Y-77662577D01*
X118724498Y-77730698D01*
X118707595Y-77751672D01*
X115597672Y-80861595D01*
X115535360Y-80895621D01*
X115508577Y-80898500D01*
X112855020Y-80898500D01*
X112843791Y-80897971D01*
X112836281Y-80896292D01*
X112828355Y-80896541D01*
X112828354Y-80896541D01*
X112768002Y-80898438D01*
X112764044Y-80898500D01*
X112736017Y-80898500D01*
X112731971Y-80899011D01*
X112720143Y-80899942D01*
X112675795Y-80901336D01*
X112668178Y-80903549D01*
X112656253Y-80907013D01*
X112636894Y-80911022D01*
X112635633Y-80911181D01*
X112616701Y-80913573D01*
X112609337Y-80916489D01*
X112609332Y-80916490D01*
X112587421Y-80925166D01*
X112575428Y-80929914D01*
X112564224Y-80933751D01*
X112521607Y-80946132D01*
X112508093Y-80954124D01*
X112504094Y-80956489D01*
X112486343Y-80965185D01*
X112474785Y-80969761D01*
X112474780Y-80969764D01*
X112467412Y-80972681D01*
X112460997Y-80977342D01*
X112431507Y-80998767D01*
X112421585Y-81005284D01*
X112390228Y-81023828D01*
X112390225Y-81023830D01*
X112383401Y-81027866D01*
X112369014Y-81042253D01*
X112353980Y-81055094D01*
X112337513Y-81067058D01*
X112332460Y-81073166D01*
X112309228Y-81101249D01*
X112301238Y-81110029D01*
X111869538Y-81541729D01*
X111851264Y-81556847D01*
X111850956Y-81557056D01*
X111850952Y-81557060D01*
X111844396Y-81561515D01*
X111839152Y-81567463D01*
X111839151Y-81567464D01*
X111807125Y-81603791D01*
X111801706Y-81609561D01*
X111790361Y-81620906D01*
X111787938Y-81624030D01*
X111787935Y-81624033D01*
X111780512Y-81633602D01*
X111775470Y-81639696D01*
X111738213Y-81681957D01*
X111734614Y-81689021D01*
X111734449Y-81689344D01*
X111721739Y-81709373D01*
X111716650Y-81715933D01*
X111694252Y-81767693D01*
X111690909Y-81774796D01*
X111665318Y-81825021D01*
X111663506Y-81833128D01*
X111656179Y-81855675D01*
X111652883Y-81863292D01*
X111651643Y-81871118D01*
X111651643Y-81871120D01*
X111644066Y-81918960D01*
X111642585Y-81926726D01*
X111630292Y-81981719D01*
X111630541Y-81989642D01*
X111630541Y-81989643D01*
X111630553Y-81990010D01*
X111629063Y-82013682D01*
X111627765Y-82021879D01*
X111628511Y-82029771D01*
X111628511Y-82029774D01*
X111633068Y-82077979D01*
X111633565Y-82085879D01*
X111635085Y-82134248D01*
X111635335Y-82142205D01*
X111636444Y-82146023D01*
X111637500Y-82159440D01*
X111637500Y-82288733D01*
X111617498Y-82356854D01*
X111569680Y-82400496D01*
X111546607Y-82412507D01*
X111542474Y-82415610D01*
X111542471Y-82415612D01*
X111459450Y-82477946D01*
X111367965Y-82546635D01*
X111213629Y-82708138D01*
X111106201Y-82865621D01*
X111051293Y-82910621D01*
X110980768Y-82918792D01*
X110917021Y-82887538D01*
X110896324Y-82863054D01*
X110815822Y-82738617D01*
X110815820Y-82738614D01*
X110813014Y-82734277D01*
X110662670Y-82569051D01*
X110538407Y-82470914D01*
X110497345Y-82412998D01*
X110490500Y-82372033D01*
X110490500Y-81057558D01*
X110942000Y-81057558D01*
X110945973Y-81071089D01*
X110953871Y-81072224D01*
X111079784Y-81035643D01*
X111094220Y-81029396D01*
X111221499Y-80954124D01*
X111233926Y-80944484D01*
X111338484Y-80839926D01*
X111348124Y-80827499D01*
X111423396Y-80700220D01*
X111429643Y-80685784D01*
X111471312Y-80542359D01*
X111472768Y-80534391D01*
X111469948Y-80520969D01*
X111458487Y-80518000D01*
X110960115Y-80518000D01*
X110944876Y-80522475D01*
X110943671Y-80523865D01*
X110942000Y-80531548D01*
X110942000Y-81057558D01*
X110490500Y-81057558D01*
X110490500Y-80633718D01*
X110495503Y-80598565D01*
X110511812Y-80542431D01*
X110511813Y-80542426D01*
X110513606Y-80536254D01*
X110514582Y-80523865D01*
X110516307Y-80501940D01*
X110516307Y-80501932D01*
X110516500Y-80499484D01*
X110516500Y-80028516D01*
X110516307Y-80026060D01*
X110514111Y-79998156D01*
X110514110Y-79998151D01*
X110513617Y-79991885D01*
X110942000Y-79991885D01*
X110946475Y-80007124D01*
X110947865Y-80008329D01*
X110955548Y-80010000D01*
X111456424Y-80010000D01*
X111471219Y-80005656D01*
X111473063Y-79995225D01*
X111471312Y-79985641D01*
X111429643Y-79842216D01*
X111423393Y-79827774D01*
X111418878Y-79820139D01*
X111401418Y-79751323D01*
X111418878Y-79691861D01*
X111423393Y-79684226D01*
X111429643Y-79669784D01*
X111471312Y-79526359D01*
X111472768Y-79518391D01*
X111469948Y-79504969D01*
X111458487Y-79502000D01*
X110960115Y-79502000D01*
X110944876Y-79506475D01*
X110943671Y-79507865D01*
X110942000Y-79515548D01*
X110942000Y-79991885D01*
X110513617Y-79991885D01*
X110513606Y-79991746D01*
X110511813Y-79985574D01*
X110511812Y-79985569D01*
X110495503Y-79929435D01*
X110490500Y-79894282D01*
X110490500Y-79617718D01*
X110495503Y-79582565D01*
X110511812Y-79526431D01*
X110511813Y-79526426D01*
X110513606Y-79520254D01*
X110514582Y-79507865D01*
X110516307Y-79485940D01*
X110516307Y-79485932D01*
X110516500Y-79483484D01*
X110516500Y-79012516D01*
X110515043Y-78994000D01*
X110514111Y-78982156D01*
X110514110Y-78982151D01*
X110513617Y-78975885D01*
X110942000Y-78975885D01*
X110946475Y-78991124D01*
X110947865Y-78992329D01*
X110955548Y-78994000D01*
X111456424Y-78994000D01*
X111471219Y-78989656D01*
X111473063Y-78979225D01*
X111471312Y-78969641D01*
X111429643Y-78826216D01*
X111423396Y-78811780D01*
X111348124Y-78684501D01*
X111338484Y-78672074D01*
X111233926Y-78567516D01*
X111221499Y-78557876D01*
X111094220Y-78482604D01*
X111079784Y-78476357D01*
X110959395Y-78441381D01*
X110945295Y-78441421D01*
X110942000Y-78448691D01*
X110942000Y-78975885D01*
X110513617Y-78975885D01*
X110513606Y-78975746D01*
X110482082Y-78867238D01*
X110470106Y-78826016D01*
X110470105Y-78826014D01*
X110467894Y-78818403D01*
X110451546Y-78790760D01*
X110434000Y-78726621D01*
X110434000Y-78454442D01*
X110430027Y-78440911D01*
X110422129Y-78439776D01*
X110296216Y-78476357D01*
X110281778Y-78482605D01*
X110272628Y-78488016D01*
X110203812Y-78505474D01*
X110144353Y-78488015D01*
X110134423Y-78482143D01*
X110134424Y-78482143D01*
X110127597Y-78478106D01*
X110119986Y-78475895D01*
X110119984Y-78475894D01*
X110046144Y-78454442D01*
X109970254Y-78432394D01*
X109963849Y-78431890D01*
X109963844Y-78431889D01*
X109935940Y-78429693D01*
X109935932Y-78429693D01*
X109933484Y-78429500D01*
X109522516Y-78429500D01*
X109520068Y-78429693D01*
X109520060Y-78429693D01*
X109492156Y-78431889D01*
X109492151Y-78431890D01*
X109485746Y-78432394D01*
X109479573Y-78434188D01*
X109479570Y-78434188D01*
X109460337Y-78439776D01*
X109431386Y-78448187D01*
X109360391Y-78447984D01*
X109300775Y-78409431D01*
X109271466Y-78344766D01*
X109272970Y-78302555D01*
X109274238Y-78298731D01*
X109284500Y-78198572D01*
X109284500Y-77664428D01*
X109273978Y-77563018D01*
X109237563Y-77453871D01*
X114253776Y-77453871D01*
X114290357Y-77579784D01*
X114296604Y-77594220D01*
X114371876Y-77721499D01*
X114381516Y-77733926D01*
X114486074Y-77838484D01*
X114498501Y-77848124D01*
X114625780Y-77923396D01*
X114640216Y-77929643D01*
X114783641Y-77971312D01*
X114791609Y-77972768D01*
X114805031Y-77969948D01*
X114808000Y-77958487D01*
X114808000Y-77956424D01*
X115316000Y-77956424D01*
X115320344Y-77971219D01*
X115330775Y-77973063D01*
X115340359Y-77971312D01*
X115483784Y-77929643D01*
X115498226Y-77923393D01*
X115505861Y-77918878D01*
X115574677Y-77901418D01*
X115634139Y-77918878D01*
X115641774Y-77923393D01*
X115656216Y-77929643D01*
X115799641Y-77971312D01*
X115807609Y-77972768D01*
X115821031Y-77969948D01*
X115824000Y-77958487D01*
X115824000Y-77956424D01*
X116332000Y-77956424D01*
X116336344Y-77971219D01*
X116346775Y-77973063D01*
X116356359Y-77971312D01*
X116499784Y-77929643D01*
X116514220Y-77923396D01*
X116641499Y-77848124D01*
X116653926Y-77838484D01*
X116758484Y-77733926D01*
X116768124Y-77721499D01*
X116843396Y-77594220D01*
X116849643Y-77579784D01*
X116884619Y-77459395D01*
X116884579Y-77445295D01*
X116877309Y-77442000D01*
X116350115Y-77442000D01*
X116334876Y-77446475D01*
X116333671Y-77447865D01*
X116332000Y-77455548D01*
X116332000Y-77956424D01*
X115824000Y-77956424D01*
X115824000Y-77460115D01*
X115819525Y-77444876D01*
X115818135Y-77443671D01*
X115810452Y-77442000D01*
X115334115Y-77442000D01*
X115318876Y-77446475D01*
X115317671Y-77447865D01*
X115316000Y-77455548D01*
X115316000Y-77956424D01*
X114808000Y-77956424D01*
X114808000Y-77460115D01*
X114803525Y-77444876D01*
X114802135Y-77443671D01*
X114794452Y-77442000D01*
X114268442Y-77442000D01*
X114254911Y-77445973D01*
X114253776Y-77453871D01*
X109237563Y-77453871D01*
X109220308Y-77402151D01*
X109131071Y-77257945D01*
X109011053Y-77138136D01*
X108866692Y-77049151D01*
X108859743Y-77046846D01*
X108712262Y-76997928D01*
X108712260Y-76997928D01*
X108705731Y-76995762D01*
X108605572Y-76985500D01*
X107746428Y-76985500D01*
X107743182Y-76985837D01*
X107743178Y-76985837D01*
X107717803Y-76988470D01*
X107645018Y-76996022D01*
X107484151Y-77049692D01*
X107339945Y-77138929D01*
X107334776Y-77144107D01*
X107329661Y-77148161D01*
X107263851Y-77174799D01*
X107211564Y-77166362D01*
X107210858Y-77168536D01*
X107204578Y-77166496D01*
X107198546Y-77163810D01*
X107081490Y-77138929D01*
X107029943Y-77127972D01*
X107029939Y-77127972D01*
X107023486Y-77126600D01*
X106844514Y-77126600D01*
X106838061Y-77127972D01*
X106838057Y-77127972D01*
X106786510Y-77138929D01*
X106669454Y-77163810D01*
X106663424Y-77166495D01*
X106663423Y-77166495D01*
X106577822Y-77204607D01*
X106526573Y-77215500D01*
X106071427Y-77215500D01*
X106020178Y-77204607D01*
X105934577Y-77166495D01*
X105934576Y-77166495D01*
X105928546Y-77163810D01*
X105811490Y-77138929D01*
X105759943Y-77127972D01*
X105759939Y-77127972D01*
X105753486Y-77126600D01*
X105574514Y-77126600D01*
X105568061Y-77127972D01*
X105568057Y-77127972D01*
X105516510Y-77138929D01*
X105399454Y-77163810D01*
X105393424Y-77166495D01*
X105393423Y-77166495D01*
X105241985Y-77233919D01*
X105241983Y-77233920D01*
X105235955Y-77236604D01*
X105230614Y-77240484D01*
X105230613Y-77240485D01*
X105198021Y-77264165D01*
X105091164Y-77341801D01*
X105086743Y-77346711D01*
X105086742Y-77346712D01*
X104996916Y-77446475D01*
X104971409Y-77474803D01*
X104881923Y-77629797D01*
X104879881Y-77636082D01*
X104842324Y-77751672D01*
X104826618Y-77800009D01*
X104807910Y-77978000D01*
X104808600Y-77984565D01*
X104816758Y-78062177D01*
X104826618Y-78155991D01*
X104828658Y-78162269D01*
X104828658Y-78162270D01*
X104839408Y-78195355D01*
X104881923Y-78326203D01*
X104971409Y-78481197D01*
X104975827Y-78486104D01*
X104975828Y-78486105D01*
X105086742Y-78609288D01*
X105091164Y-78614199D01*
X105096506Y-78618080D01*
X105096508Y-78618082D01*
X105187926Y-78684501D01*
X105235955Y-78719396D01*
X105241983Y-78722080D01*
X105241985Y-78722081D01*
X105331733Y-78762039D01*
X105399454Y-78792190D01*
X105483277Y-78810007D01*
X105568057Y-78828028D01*
X105568061Y-78828028D01*
X105574514Y-78829400D01*
X105753486Y-78829400D01*
X105759939Y-78828028D01*
X105759943Y-78828028D01*
X105844723Y-78810007D01*
X105928546Y-78792190D01*
X105996267Y-78762039D01*
X106020178Y-78751393D01*
X106071427Y-78740500D01*
X106526573Y-78740500D01*
X106577822Y-78751393D01*
X106601734Y-78762039D01*
X106669454Y-78792190D01*
X106753277Y-78810007D01*
X106838057Y-78828028D01*
X106838061Y-78828028D01*
X106844514Y-78829400D01*
X107023486Y-78829400D01*
X107029939Y-78828028D01*
X107029943Y-78828028D01*
X107114723Y-78810007D01*
X107198546Y-78792190D01*
X107283891Y-78754192D01*
X107354258Y-78744758D01*
X107401256Y-78762039D01*
X107485308Y-78813849D01*
X107492256Y-78816154D01*
X107492257Y-78816154D01*
X107639738Y-78865072D01*
X107639740Y-78865072D01*
X107646269Y-78867238D01*
X107660656Y-78868712D01*
X107726383Y-78895554D01*
X107767164Y-78953669D01*
X107770052Y-79024607D01*
X107734130Y-79085845D01*
X107670802Y-79117941D01*
X107660814Y-79119383D01*
X107651876Y-79120310D01*
X107651872Y-79120311D01*
X107645018Y-79121022D01*
X107484151Y-79174692D01*
X107339945Y-79263929D01*
X107220136Y-79383947D01*
X107131151Y-79528308D01*
X107128846Y-79535256D01*
X107128846Y-79535257D01*
X107101495Y-79617718D01*
X107077762Y-79689269D01*
X107067500Y-79789428D01*
X107067500Y-80323572D01*
X107078022Y-80424982D01*
X107131692Y-80585849D01*
X107220929Y-80730055D01*
X107340947Y-80849864D01*
X107485308Y-80938849D01*
X107492256Y-80941154D01*
X107492257Y-80941154D01*
X107639738Y-80990072D01*
X107639740Y-80990072D01*
X107646269Y-80992238D01*
X107746428Y-81002500D01*
X108605572Y-81002500D01*
X108608818Y-81002163D01*
X108608822Y-81002163D01*
X108642603Y-80998658D01*
X108706982Y-80991978D01*
X108799624Y-80961070D01*
X108870573Y-80958484D01*
X108931657Y-80994668D01*
X108963482Y-81058132D01*
X108965500Y-81080593D01*
X108965500Y-82380413D01*
X108945498Y-82448534D01*
X108915158Y-82481169D01*
X108827965Y-82546635D01*
X108824393Y-82550373D01*
X108746898Y-82631466D01*
X108685374Y-82666895D01*
X108614462Y-82663438D01*
X108556676Y-82622192D01*
X108537823Y-82588644D01*
X108496324Y-82477946D01*
X108487786Y-82462351D01*
X108411285Y-82360276D01*
X108398724Y-82347715D01*
X108296649Y-82271214D01*
X108281054Y-82262676D01*
X108160606Y-82217522D01*
X108145351Y-82213895D01*
X108094486Y-82208369D01*
X108087672Y-82208000D01*
X107465115Y-82208000D01*
X107449876Y-82212475D01*
X107448671Y-82213865D01*
X107447000Y-82221548D01*
X107447000Y-84905884D01*
X107451475Y-84921123D01*
X107452865Y-84922328D01*
X107460548Y-84923999D01*
X108087669Y-84923999D01*
X108094490Y-84923629D01*
X108145352Y-84918105D01*
X108160604Y-84914479D01*
X108281054Y-84869324D01*
X108296649Y-84860786D01*
X108398724Y-84784285D01*
X108411285Y-84771724D01*
X108487786Y-84669649D01*
X108496324Y-84654054D01*
X108537225Y-84544952D01*
X108579867Y-84488188D01*
X108646428Y-84463488D01*
X108715777Y-84478696D01*
X108750444Y-84506684D01*
X108775865Y-84536031D01*
X108775869Y-84536035D01*
X108779250Y-84539938D01*
X108951126Y-84682632D01*
X109144000Y-84795338D01*
X109352692Y-84875030D01*
X109357760Y-84876061D01*
X109357763Y-84876062D01*
X109465017Y-84897883D01*
X109571597Y-84919567D01*
X109576772Y-84919757D01*
X109576774Y-84919757D01*
X109789673Y-84927564D01*
X109789677Y-84927564D01*
X109794837Y-84927753D01*
X109799957Y-84927097D01*
X109799959Y-84927097D01*
X110011288Y-84900025D01*
X110011289Y-84900025D01*
X110016416Y-84899368D01*
X110021366Y-84897883D01*
X110225429Y-84836661D01*
X110225434Y-84836659D01*
X110230384Y-84835174D01*
X110430994Y-84736896D01*
X110612860Y-84607173D01*
X110771096Y-84449489D01*
X110901453Y-84268077D01*
X110902776Y-84269028D01*
X110949645Y-84225857D01*
X111019580Y-84213625D01*
X111085026Y-84241144D01*
X111112875Y-84272994D01*
X111172987Y-84371088D01*
X111319250Y-84539938D01*
X111491126Y-84682632D01*
X111684000Y-84795338D01*
X111892692Y-84875030D01*
X111897760Y-84876061D01*
X111897763Y-84876062D01*
X112005017Y-84897883D01*
X112111597Y-84919567D01*
X112116772Y-84919757D01*
X112116774Y-84919757D01*
X112329673Y-84927564D01*
X112329677Y-84927564D01*
X112334837Y-84927753D01*
X112339957Y-84927097D01*
X112339959Y-84927097D01*
X112551288Y-84900025D01*
X112551289Y-84900025D01*
X112556416Y-84899368D01*
X112561366Y-84897883D01*
X112765429Y-84836661D01*
X112765434Y-84836659D01*
X112770384Y-84835174D01*
X112970994Y-84736896D01*
X113152860Y-84607173D01*
X113311096Y-84449489D01*
X113441453Y-84268077D01*
X113442776Y-84269028D01*
X113489645Y-84225857D01*
X113559580Y-84213625D01*
X113625026Y-84241144D01*
X113652875Y-84272994D01*
X113712987Y-84371088D01*
X113859250Y-84539938D01*
X114031126Y-84682632D01*
X114224000Y-84795338D01*
X114432692Y-84875030D01*
X114437760Y-84876061D01*
X114437763Y-84876062D01*
X114545017Y-84897883D01*
X114651597Y-84919567D01*
X114656772Y-84919757D01*
X114656774Y-84919757D01*
X114869673Y-84927564D01*
X114869677Y-84927564D01*
X114874837Y-84927753D01*
X114879957Y-84927097D01*
X114879959Y-84927097D01*
X115091288Y-84900025D01*
X115091289Y-84900025D01*
X115096416Y-84899368D01*
X115101366Y-84897883D01*
X115305429Y-84836661D01*
X115305434Y-84836659D01*
X115310384Y-84835174D01*
X115510994Y-84736896D01*
X115692860Y-84607173D01*
X115851096Y-84449489D01*
X115981453Y-84268077D01*
X115982776Y-84269028D01*
X116029645Y-84225857D01*
X116099580Y-84213625D01*
X116165026Y-84241144D01*
X116192875Y-84272994D01*
X116252987Y-84371088D01*
X116399250Y-84539938D01*
X116571126Y-84682632D01*
X116764000Y-84795338D01*
X116972692Y-84875030D01*
X116977760Y-84876061D01*
X116977763Y-84876062D01*
X117085017Y-84897883D01*
X117191597Y-84919567D01*
X117196772Y-84919757D01*
X117196774Y-84919757D01*
X117409673Y-84927564D01*
X117409677Y-84927564D01*
X117414837Y-84927753D01*
X117419957Y-84927097D01*
X117419959Y-84927097D01*
X117631288Y-84900025D01*
X117631289Y-84900025D01*
X117636416Y-84899368D01*
X117641366Y-84897883D01*
X117845429Y-84836661D01*
X117845434Y-84836659D01*
X117850384Y-84835174D01*
X118050994Y-84736896D01*
X118232860Y-84607173D01*
X118391096Y-84449489D01*
X118521453Y-84268077D01*
X118542320Y-84225857D01*
X118618136Y-84072453D01*
X118618137Y-84072451D01*
X118620430Y-84067811D01*
X118685370Y-83854069D01*
X118714529Y-83632590D01*
X118716156Y-83566000D01*
X118697852Y-83343361D01*
X118670389Y-83234024D01*
X118673194Y-83163083D01*
X118703498Y-83114234D01*
X119855562Y-81962171D01*
X121043483Y-80774250D01*
X121051809Y-80766674D01*
X121058303Y-80762553D01*
X121105086Y-80712734D01*
X121107840Y-80709893D01*
X121127639Y-80690094D01*
X121130068Y-80686963D01*
X121130072Y-80686958D01*
X121130139Y-80686872D01*
X121137847Y-80677847D01*
X121162791Y-80651285D01*
X121162794Y-80651281D01*
X121168217Y-80645506D01*
X121172036Y-80638560D01*
X121172039Y-80638555D01*
X121178022Y-80627672D01*
X121188878Y-80611144D01*
X121196492Y-80601329D01*
X121196494Y-80601326D01*
X121201349Y-80595067D01*
X121204495Y-80587797D01*
X121204498Y-80587792D01*
X121218969Y-80554350D01*
X121224192Y-80543689D01*
X121241748Y-80511755D01*
X121241750Y-80511749D01*
X121245569Y-80504803D01*
X121245782Y-80503972D01*
X121287522Y-80450478D01*
X121354525Y-80427001D01*
X121423584Y-80443477D01*
X121472773Y-80494672D01*
X121487000Y-80552835D01*
X121487000Y-86304000D01*
X121466998Y-86372121D01*
X121413342Y-86418614D01*
X121361000Y-86430000D01*
X92629000Y-86430000D01*
X92560879Y-86409998D01*
X92514386Y-86356342D01*
X92503000Y-86304000D01*
X92503000Y-84460669D01*
X105835001Y-84460669D01*
X105835371Y-84467490D01*
X105840895Y-84518352D01*
X105844521Y-84533604D01*
X105889676Y-84654054D01*
X105898214Y-84669649D01*
X105974715Y-84771724D01*
X105987276Y-84784285D01*
X106089351Y-84860786D01*
X106104946Y-84869324D01*
X106225394Y-84914478D01*
X106240649Y-84918105D01*
X106291514Y-84923631D01*
X106298328Y-84924000D01*
X106920885Y-84924000D01*
X106936124Y-84919525D01*
X106937329Y-84918135D01*
X106939000Y-84910452D01*
X106939000Y-83838115D01*
X106934525Y-83822876D01*
X106933135Y-83821671D01*
X106925452Y-83820000D01*
X105853116Y-83820000D01*
X105837877Y-83824475D01*
X105836672Y-83825865D01*
X105835001Y-83833548D01*
X105835001Y-84460669D01*
X92503000Y-84460669D01*
X92503000Y-83293885D01*
X105835000Y-83293885D01*
X105839475Y-83309124D01*
X105840865Y-83310329D01*
X105848548Y-83312000D01*
X106920885Y-83312000D01*
X106936124Y-83307525D01*
X106937329Y-83306135D01*
X106939000Y-83298452D01*
X106939000Y-82226116D01*
X106934525Y-82210877D01*
X106933135Y-82209672D01*
X106925452Y-82208001D01*
X106298331Y-82208001D01*
X106291510Y-82208371D01*
X106240648Y-82213895D01*
X106225396Y-82217521D01*
X106104946Y-82262676D01*
X106089351Y-82271214D01*
X105987276Y-82347715D01*
X105974715Y-82360276D01*
X105898214Y-82462351D01*
X105889676Y-82477946D01*
X105844522Y-82598394D01*
X105840895Y-82613649D01*
X105835369Y-82664514D01*
X105835000Y-82671328D01*
X105835000Y-83293885D01*
X92503000Y-83293885D01*
X92503000Y-76518502D01*
X93298500Y-76518502D01*
X93298693Y-76520950D01*
X93298693Y-76520958D01*
X93300927Y-76549333D01*
X93301438Y-76555831D01*
X93303233Y-76562008D01*
X93345586Y-76707790D01*
X93347855Y-76715601D01*
X93351892Y-76722427D01*
X93428509Y-76851980D01*
X93428511Y-76851983D01*
X93432547Y-76858807D01*
X93550193Y-76976453D01*
X93557016Y-76980488D01*
X93557020Y-76980491D01*
X93664589Y-77044107D01*
X93693399Y-77061145D01*
X93701010Y-77063356D01*
X93701012Y-77063357D01*
X93753231Y-77078528D01*
X93853169Y-77107562D01*
X93859574Y-77108066D01*
X93859579Y-77108067D01*
X93888042Y-77110307D01*
X93888050Y-77110307D01*
X93890498Y-77110500D01*
X94323502Y-77110500D01*
X94325950Y-77110307D01*
X94325958Y-77110307D01*
X94354421Y-77108067D01*
X94354426Y-77108066D01*
X94360831Y-77107562D01*
X94460769Y-77078528D01*
X94512988Y-77063357D01*
X94512990Y-77063356D01*
X94520601Y-77061145D01*
X94663807Y-76976453D01*
X94666489Y-76973771D01*
X94730861Y-76948498D01*
X94800484Y-76962400D01*
X94816312Y-76972572D01*
X94820193Y-76976453D01*
X94963399Y-77061145D01*
X94971010Y-77063356D01*
X94971012Y-77063357D01*
X95023231Y-77078528D01*
X95123169Y-77107562D01*
X95129574Y-77108066D01*
X95129579Y-77108067D01*
X95158042Y-77110307D01*
X95158050Y-77110307D01*
X95160498Y-77110500D01*
X95593502Y-77110500D01*
X95595950Y-77110307D01*
X95595958Y-77110307D01*
X95624421Y-77108067D01*
X95624426Y-77108066D01*
X95630831Y-77107562D01*
X95730769Y-77078528D01*
X95782988Y-77063357D01*
X95782990Y-77063356D01*
X95790601Y-77061145D01*
X95933807Y-76976453D01*
X95936489Y-76973771D01*
X96000861Y-76948498D01*
X96070484Y-76962400D01*
X96086312Y-76972572D01*
X96090193Y-76976453D01*
X96233399Y-77061145D01*
X96241010Y-77063356D01*
X96241012Y-77063357D01*
X96293231Y-77078528D01*
X96393169Y-77107562D01*
X96399574Y-77108066D01*
X96399579Y-77108067D01*
X96428042Y-77110307D01*
X96428050Y-77110307D01*
X96430498Y-77110500D01*
X96863502Y-77110500D01*
X96865950Y-77110307D01*
X96865958Y-77110307D01*
X96894421Y-77108067D01*
X96894426Y-77108066D01*
X96900831Y-77107562D01*
X97000769Y-77078528D01*
X97052988Y-77063357D01*
X97052990Y-77063356D01*
X97060601Y-77061145D01*
X97203807Y-76976453D01*
X97206747Y-76973513D01*
X97271271Y-76948179D01*
X97340894Y-76962080D01*
X97359640Y-76974129D01*
X97367323Y-76980089D01*
X97496779Y-77056648D01*
X97511210Y-77062893D01*
X97645605Y-77101939D01*
X97659706Y-77101899D01*
X97663000Y-77094630D01*
X97663000Y-77088878D01*
X98171000Y-77088878D01*
X98174973Y-77102409D01*
X98182871Y-77103544D01*
X98322790Y-77062893D01*
X98337221Y-77056648D01*
X98466678Y-76980089D01*
X98479104Y-76970449D01*
X98585449Y-76864104D01*
X98595089Y-76851678D01*
X98671648Y-76722221D01*
X98677893Y-76707790D01*
X98720269Y-76561935D01*
X98722570Y-76549333D01*
X98724807Y-76520916D01*
X98725000Y-76515986D01*
X98725000Y-75899115D01*
X98720525Y-75883876D01*
X98719135Y-75882671D01*
X98711452Y-75881000D01*
X98189115Y-75881000D01*
X98173876Y-75885475D01*
X98172671Y-75886865D01*
X98171000Y-75894548D01*
X98171000Y-77088878D01*
X97663000Y-77088878D01*
X97663000Y-75354885D01*
X98171000Y-75354885D01*
X98175475Y-75370124D01*
X98176865Y-75371329D01*
X98184548Y-75373000D01*
X98706884Y-75373000D01*
X98722123Y-75368525D01*
X98723328Y-75367135D01*
X98724999Y-75359452D01*
X98724999Y-74738017D01*
X98724805Y-74733080D01*
X98722570Y-74704664D01*
X98720270Y-74692069D01*
X98677893Y-74546210D01*
X98671648Y-74531779D01*
X98615464Y-74436775D01*
X102874937Y-74436775D01*
X102876688Y-74446359D01*
X102918357Y-74589784D01*
X102924604Y-74604220D01*
X102999876Y-74731499D01*
X103009516Y-74743926D01*
X103114074Y-74848484D01*
X103126501Y-74858124D01*
X103253780Y-74933396D01*
X103268216Y-74939643D01*
X103388605Y-74974619D01*
X103402705Y-74974579D01*
X103406000Y-74967309D01*
X103406000Y-74440115D01*
X103401525Y-74424876D01*
X103400135Y-74423671D01*
X103392452Y-74422000D01*
X102891576Y-74422000D01*
X102876781Y-74426344D01*
X102874937Y-74436775D01*
X98615464Y-74436775D01*
X98595089Y-74402322D01*
X98585449Y-74389896D01*
X98479104Y-74283551D01*
X98466678Y-74273911D01*
X98337221Y-74197352D01*
X98322790Y-74191107D01*
X98188395Y-74152061D01*
X98174294Y-74152101D01*
X98171000Y-74159370D01*
X98171000Y-75354885D01*
X97663000Y-75354885D01*
X97663000Y-74165122D01*
X97659027Y-74151591D01*
X97651129Y-74150456D01*
X97511210Y-74191107D01*
X97496779Y-74197352D01*
X97367324Y-74273910D01*
X97359636Y-74279874D01*
X97293551Y-74305821D01*
X97223928Y-74291920D01*
X97207842Y-74281582D01*
X97203807Y-74277547D01*
X97141819Y-74240887D01*
X97080119Y-74204398D01*
X97060601Y-74192855D01*
X97052990Y-74190644D01*
X97052988Y-74190643D01*
X97000769Y-74175472D01*
X96900831Y-74146438D01*
X96894426Y-74145934D01*
X96894421Y-74145933D01*
X96865958Y-74143693D01*
X96865950Y-74143693D01*
X96863502Y-74143500D01*
X96430498Y-74143500D01*
X96428050Y-74143693D01*
X96428042Y-74143693D01*
X96399579Y-74145933D01*
X96399574Y-74145934D01*
X96393169Y-74146438D01*
X96293231Y-74175472D01*
X96241012Y-74190643D01*
X96241010Y-74190644D01*
X96233399Y-74192855D01*
X96090193Y-74277547D01*
X96087511Y-74280229D01*
X96023139Y-74305502D01*
X95953516Y-74291600D01*
X95937688Y-74281428D01*
X95933807Y-74277547D01*
X95790601Y-74192855D01*
X95782990Y-74190644D01*
X95782988Y-74190643D01*
X95730769Y-74175472D01*
X95630831Y-74146438D01*
X95624426Y-74145934D01*
X95624421Y-74145933D01*
X95595958Y-74143693D01*
X95595950Y-74143693D01*
X95593502Y-74143500D01*
X95160498Y-74143500D01*
X95158050Y-74143693D01*
X95158042Y-74143693D01*
X95129579Y-74145933D01*
X95129574Y-74145934D01*
X95123169Y-74146438D01*
X95023231Y-74175472D01*
X94971012Y-74190643D01*
X94971010Y-74190644D01*
X94963399Y-74192855D01*
X94820193Y-74277547D01*
X94817511Y-74280229D01*
X94753139Y-74305502D01*
X94683516Y-74291600D01*
X94667688Y-74281428D01*
X94663807Y-74277547D01*
X94520601Y-74192855D01*
X94512990Y-74190644D01*
X94512988Y-74190643D01*
X94460769Y-74175472D01*
X94360831Y-74146438D01*
X94354426Y-74145934D01*
X94354421Y-74145933D01*
X94325958Y-74143693D01*
X94325950Y-74143693D01*
X94323502Y-74143500D01*
X93890498Y-74143500D01*
X93888050Y-74143693D01*
X93888042Y-74143693D01*
X93859579Y-74145933D01*
X93859574Y-74145934D01*
X93853169Y-74146438D01*
X93753231Y-74175472D01*
X93701012Y-74190643D01*
X93701010Y-74190644D01*
X93693399Y-74192855D01*
X93673881Y-74204398D01*
X93557020Y-74273509D01*
X93557017Y-74273511D01*
X93550193Y-74277547D01*
X93432547Y-74395193D01*
X93428511Y-74402017D01*
X93428509Y-74402020D01*
X93407955Y-74436775D01*
X93347855Y-74538399D01*
X93345644Y-74546010D01*
X93345643Y-74546012D01*
X93332926Y-74589784D01*
X93301438Y-74698169D01*
X93300934Y-74704574D01*
X93300933Y-74704579D01*
X93298693Y-74733042D01*
X93298500Y-74735498D01*
X93298500Y-76518502D01*
X92503000Y-76518502D01*
X92503000Y-73420775D01*
X102874937Y-73420775D01*
X102876688Y-73430359D01*
X102918357Y-73573784D01*
X102924607Y-73588226D01*
X102929122Y-73595861D01*
X102946582Y-73664677D01*
X102929122Y-73724139D01*
X102924607Y-73731774D01*
X102918357Y-73746216D01*
X102876688Y-73889641D01*
X102875232Y-73897609D01*
X102878052Y-73911031D01*
X102889513Y-73914000D01*
X103387885Y-73914000D01*
X103403124Y-73909525D01*
X103404329Y-73908135D01*
X103406000Y-73900452D01*
X103406000Y-73424115D01*
X103401525Y-73408876D01*
X103400135Y-73407671D01*
X103392452Y-73406000D01*
X102891576Y-73406000D01*
X102876781Y-73410344D01*
X102874937Y-73420775D01*
X92503000Y-73420775D01*
X92503000Y-72881609D01*
X102875232Y-72881609D01*
X102878052Y-72895031D01*
X102889513Y-72898000D01*
X103387885Y-72898000D01*
X103403124Y-72893525D01*
X103404329Y-72892135D01*
X103406000Y-72884452D01*
X103406000Y-72358442D01*
X103402027Y-72344911D01*
X103394129Y-72343776D01*
X103268216Y-72380357D01*
X103253780Y-72386604D01*
X103126501Y-72461876D01*
X103114074Y-72471516D01*
X103009516Y-72576074D01*
X102999876Y-72588501D01*
X102924604Y-72715780D01*
X102918357Y-72730216D01*
X102876688Y-72873641D01*
X102875232Y-72881609D01*
X92503000Y-72881609D01*
X92503000Y-66121982D01*
X93243142Y-66121982D01*
X93250668Y-66132415D01*
X93396463Y-66249848D01*
X93402648Y-66254244D01*
X93678363Y-66426195D01*
X93685034Y-66429817D01*
X93979414Y-66567402D01*
X93986468Y-66570195D01*
X94295257Y-66671420D01*
X94302570Y-66673339D01*
X94621298Y-66736738D01*
X94628789Y-66737764D01*
X94952823Y-66762413D01*
X94960386Y-66762531D01*
X95285021Y-66748074D01*
X95292562Y-66747282D01*
X95613115Y-66693926D01*
X95620479Y-66692240D01*
X95932315Y-66600757D01*
X95939424Y-66598198D01*
X96238003Y-66469919D01*
X96244770Y-66466515D01*
X96525764Y-66303301D01*
X96532071Y-66299111D01*
X96750005Y-66134588D01*
X96758461Y-66123197D01*
X96751743Y-66110953D01*
X95012812Y-64372022D01*
X94998868Y-64364408D01*
X94997035Y-64364539D01*
X94990420Y-64368790D01*
X93250257Y-66108953D01*
X93243142Y-66121982D01*
X92503000Y-66121982D01*
X92503000Y-65647024D01*
X92523002Y-65578903D01*
X92576658Y-65532410D01*
X92646932Y-65522306D01*
X92711512Y-65551800D01*
X92729163Y-65570582D01*
X92865792Y-65749608D01*
X92877316Y-65758069D01*
X92889382Y-65751408D01*
X94627978Y-64012812D01*
X94635592Y-63998868D01*
X94635461Y-63997035D01*
X94631210Y-63990420D01*
X92890864Y-62250074D01*
X92877929Y-62243011D01*
X92867367Y-62250671D01*
X92741785Y-62408268D01*
X92737427Y-62414469D01*
X92736261Y-62416360D01*
X92735816Y-62416760D01*
X92735245Y-62417573D01*
X92735059Y-62417442D01*
X92683489Y-62463855D01*
X92613418Y-62475279D01*
X92548294Y-62447006D01*
X92508793Y-62388012D01*
X92503000Y-62350246D01*
X92503000Y-61572000D01*
X92523002Y-61503879D01*
X92576658Y-61457386D01*
X92629000Y-61446000D01*
X93440435Y-61446000D01*
X93508556Y-61466002D01*
G37*
%TD.AperFunction*%
%TA.AperFunction,Conductor*%
G36*
X119928800Y-78429536D02*
G01*
X119986945Y-78470275D01*
X120013834Y-78535983D01*
X120014500Y-78548917D01*
X120014500Y-79953578D01*
X119994498Y-80021699D01*
X119977595Y-80042673D01*
X117807945Y-82212323D01*
X117745633Y-82246349D01*
X117696754Y-82247275D01*
X117486373Y-82209800D01*
X117486367Y-82209799D01*
X117481284Y-82208894D01*
X117407452Y-82207992D01*
X117263081Y-82206228D01*
X117263079Y-82206228D01*
X117257911Y-82206165D01*
X117037091Y-82239955D01*
X116824756Y-82309357D01*
X116751071Y-82347715D01*
X116636679Y-82407264D01*
X116626607Y-82412507D01*
X116622474Y-82415610D01*
X116622471Y-82415612D01*
X116539450Y-82477946D01*
X116447965Y-82546635D01*
X116293629Y-82708138D01*
X116186201Y-82865621D01*
X116131293Y-82910621D01*
X116060768Y-82918792D01*
X115997021Y-82887538D01*
X115976324Y-82863054D01*
X115895822Y-82738617D01*
X115895820Y-82738614D01*
X115893014Y-82734277D01*
X115742670Y-82569051D01*
X115738616Y-82565849D01*
X115738615Y-82565848D01*
X115571414Y-82433800D01*
X115571410Y-82433798D01*
X115567359Y-82430598D01*
X115562835Y-82428100D01*
X115562831Y-82428098D01*
X115522453Y-82405808D01*
X115472483Y-82355376D01*
X115457711Y-82285933D01*
X115482827Y-82219528D01*
X115539858Y-82177243D01*
X115583347Y-82169500D01*
X115744980Y-82169500D01*
X115756214Y-82170030D01*
X115763719Y-82171708D01*
X115832012Y-82169562D01*
X115835969Y-82169500D01*
X115863983Y-82169500D01*
X115867908Y-82169004D01*
X115867909Y-82169004D01*
X115868004Y-82168992D01*
X115879849Y-82168059D01*
X115909670Y-82167122D01*
X115916282Y-82166914D01*
X115916283Y-82166914D01*
X115924205Y-82166665D01*
X115943749Y-82160987D01*
X115963112Y-82156977D01*
X115975440Y-82155420D01*
X115975442Y-82155420D01*
X115983299Y-82154427D01*
X115990663Y-82151511D01*
X115990668Y-82151510D01*
X116024556Y-82138093D01*
X116035785Y-82134248D01*
X116052465Y-82129402D01*
X116078393Y-82121869D01*
X116085220Y-82117831D01*
X116085223Y-82117830D01*
X116095906Y-82111512D01*
X116113664Y-82102812D01*
X116125215Y-82098239D01*
X116125221Y-82098235D01*
X116132588Y-82095319D01*
X116168491Y-82069234D01*
X116178410Y-82062719D01*
X116209768Y-82044174D01*
X116209772Y-82044171D01*
X116216598Y-82040134D01*
X116230982Y-82025750D01*
X116246016Y-82012909D01*
X116256073Y-82005602D01*
X116262487Y-82000942D01*
X116290778Y-81966744D01*
X116298767Y-81957965D01*
X119773477Y-78483255D01*
X119781803Y-78475678D01*
X119788303Y-78471553D01*
X119796649Y-78462665D01*
X119799543Y-78460965D01*
X119799838Y-78460721D01*
X119799877Y-78460769D01*
X119857860Y-78426699D01*
X119928800Y-78429536D01*
G37*
%TD.AperFunction*%
%TA.AperFunction,Conductor*%
G36*
X112223012Y-71692917D02*
G01*
X112249619Y-71725141D01*
X112272979Y-71765601D01*
X112337409Y-71877197D01*
X112341827Y-71882104D01*
X112341828Y-71882105D01*
X112370921Y-71914416D01*
X112457164Y-72010199D01*
X112462506Y-72014080D01*
X112462508Y-72014082D01*
X112596104Y-72111145D01*
X112601955Y-72115396D01*
X112607983Y-72118080D01*
X112607985Y-72118081D01*
X112727920Y-72171479D01*
X112765454Y-72188190D01*
X112771909Y-72189562D01*
X112771912Y-72189563D01*
X112852302Y-72206650D01*
X112909144Y-72218732D01*
X112971618Y-72252460D01*
X113005940Y-72314610D01*
X113001647Y-72384246D01*
X112970338Y-72472171D01*
X112970337Y-72472176D01*
X112967976Y-72478806D01*
X112967143Y-72485794D01*
X112967142Y-72485797D01*
X112965852Y-72496616D01*
X112947030Y-72654460D01*
X112947766Y-72661463D01*
X112947766Y-72661464D01*
X112948929Y-72672532D01*
X112965521Y-72830390D01*
X112967790Y-72837056D01*
X112967791Y-72837059D01*
X113006133Y-72949685D01*
X113022530Y-72997851D01*
X113081616Y-73093895D01*
X113082106Y-73094691D01*
X113100764Y-73163192D01*
X113081173Y-73228227D01*
X113031547Y-73306424D01*
X113025404Y-73319020D01*
X113000509Y-73388933D01*
X112999713Y-73403013D01*
X113005383Y-73406000D01*
X113462354Y-73406000D01*
X113505449Y-73413599D01*
X113553917Y-73431240D01*
X113690540Y-73448500D01*
X114409977Y-73448500D01*
X114541296Y-73433770D01*
X114600919Y-73413007D01*
X114642351Y-73406000D01*
X115093372Y-73406000D01*
X115106903Y-73402027D01*
X115107862Y-73395353D01*
X115085286Y-73329033D01*
X115079323Y-73316361D01*
X115023888Y-73226254D01*
X115005229Y-73157753D01*
X115024820Y-73092717D01*
X115074905Y-73013797D01*
X115074907Y-73013793D01*
X115078683Y-73007843D01*
X115099392Y-72949685D01*
X115135662Y-72847829D01*
X115135663Y-72847824D01*
X115138024Y-72841194D01*
X115138857Y-72834206D01*
X115138858Y-72834203D01*
X115158136Y-72672532D01*
X115158970Y-72665540D01*
X115157806Y-72654460D01*
X115141215Y-72496616D01*
X115140479Y-72489610D01*
X115136801Y-72478806D01*
X115112440Y-72407245D01*
X115109422Y-72336313D01*
X115145232Y-72275009D01*
X115208501Y-72242798D01*
X115279141Y-72249905D01*
X115320810Y-72277542D01*
X116070706Y-73027439D01*
X116088924Y-73050508D01*
X116115814Y-73094218D01*
X116134472Y-73162719D01*
X116114882Y-73227752D01*
X116061317Y-73312157D01*
X116058952Y-73318799D01*
X116004338Y-73472171D01*
X116004337Y-73472176D01*
X116001976Y-73478806D01*
X116001143Y-73485794D01*
X116001142Y-73485797D01*
X115990650Y-73573784D01*
X115981030Y-73654460D01*
X115999521Y-73830390D01*
X116001790Y-73837056D01*
X116001791Y-73837059D01*
X116038336Y-73944406D01*
X116056530Y-73997851D01*
X116060221Y-74003850D01*
X116115814Y-74094217D01*
X116134472Y-74162719D01*
X116114882Y-74227752D01*
X116061317Y-74312157D01*
X116058952Y-74318799D01*
X116004338Y-74472171D01*
X116004337Y-74472176D01*
X116001976Y-74478806D01*
X116001143Y-74485794D01*
X116001142Y-74485797D01*
X115997880Y-74513157D01*
X115981030Y-74654460D01*
X115981766Y-74661463D01*
X115981766Y-74661464D01*
X115982929Y-74672532D01*
X115999521Y-74830390D01*
X116001790Y-74837056D01*
X116001791Y-74837059D01*
X116052666Y-74986500D01*
X116056530Y-74997851D01*
X116149222Y-75148521D01*
X116154151Y-75153554D01*
X116224451Y-75225342D01*
X116257822Y-75288007D01*
X116252016Y-75358766D01*
X116208877Y-75415153D01*
X116142100Y-75439266D01*
X116134428Y-75439500D01*
X115842516Y-75439500D01*
X115840068Y-75439693D01*
X115840060Y-75439693D01*
X115812156Y-75441889D01*
X115812151Y-75441890D01*
X115805746Y-75442394D01*
X115799574Y-75444187D01*
X115799569Y-75444188D01*
X115743435Y-75460497D01*
X115708282Y-75465500D01*
X115431718Y-75465500D01*
X115396565Y-75460497D01*
X115340431Y-75444188D01*
X115340426Y-75444187D01*
X115334254Y-75442394D01*
X115327849Y-75441890D01*
X115327844Y-75441889D01*
X115299940Y-75439693D01*
X115299932Y-75439693D01*
X115297484Y-75439500D01*
X115005321Y-75439500D01*
X114937200Y-75419498D01*
X114890707Y-75365842D01*
X114880603Y-75295568D01*
X114910097Y-75230988D01*
X114916537Y-75224094D01*
X114978899Y-75162166D01*
X114978902Y-75162162D01*
X114983896Y-75157203D01*
X114989406Y-75148521D01*
X115074905Y-75013797D01*
X115074907Y-75013793D01*
X115078683Y-75007843D01*
X115090997Y-74973261D01*
X115135662Y-74847829D01*
X115135663Y-74847824D01*
X115138024Y-74841194D01*
X115139313Y-74830390D01*
X115152909Y-74716366D01*
X115158970Y-74665540D01*
X115157833Y-74654717D01*
X115149449Y-74574953D01*
X115140479Y-74489610D01*
X115138209Y-74482941D01*
X115085740Y-74328816D01*
X115085739Y-74328813D01*
X115083470Y-74322149D01*
X115023894Y-74225309D01*
X115005236Y-74156808D01*
X115024827Y-74091773D01*
X115074453Y-74013576D01*
X115080596Y-74000980D01*
X115105491Y-73931067D01*
X115106287Y-73916987D01*
X115100617Y-73914000D01*
X114643646Y-73914000D01*
X114600551Y-73906401D01*
X114558702Y-73891169D01*
X114558701Y-73891169D01*
X114552083Y-73888760D01*
X114415460Y-73871500D01*
X113696023Y-73871500D01*
X113564704Y-73886230D01*
X113505081Y-73906993D01*
X113463649Y-73914000D01*
X113012628Y-73914000D01*
X112999097Y-73917973D01*
X112998138Y-73924647D01*
X113020714Y-73990967D01*
X113026677Y-74003639D01*
X113082112Y-74093746D01*
X113100771Y-74162247D01*
X113081180Y-74227283D01*
X113031095Y-74306203D01*
X113031093Y-74306207D01*
X113027317Y-74312157D01*
X113024952Y-74318799D01*
X112970338Y-74472171D01*
X112970337Y-74472176D01*
X112967976Y-74478806D01*
X112967143Y-74485792D01*
X112967142Y-74485796D01*
X112963880Y-74513157D01*
X112935953Y-74578430D01*
X112877170Y-74618243D01*
X112806194Y-74619955D01*
X112749671Y-74587333D01*
X112051405Y-73889067D01*
X112017379Y-73826755D01*
X112014500Y-73799972D01*
X112014500Y-71788141D01*
X112034502Y-71720020D01*
X112088158Y-71673527D01*
X112158432Y-71663423D01*
X112223012Y-71692917D01*
G37*
%TD.AperFunction*%
%TA.AperFunction,Conductor*%
G36*
X114763012Y-68418198D02*
G01*
X114769594Y-68424326D01*
X116740711Y-70395444D01*
X118707595Y-72362328D01*
X118741621Y-72424640D01*
X118744500Y-72451423D01*
X118744500Y-73165972D01*
X118724498Y-73234093D01*
X118670842Y-73280586D01*
X118600568Y-73290690D01*
X118535988Y-73261196D01*
X118529405Y-73255067D01*
X118442810Y-73168472D01*
X118430423Y-73154059D01*
X118430281Y-73153866D01*
X118417454Y-73136436D01*
X118376945Y-73102021D01*
X118369429Y-73095091D01*
X118363685Y-73089347D01*
X118360811Y-73087073D01*
X118360804Y-73087067D01*
X118341289Y-73071628D01*
X118337885Y-73068837D01*
X118287528Y-73026055D01*
X118287524Y-73026052D01*
X118281949Y-73021316D01*
X118275432Y-73017988D01*
X118270368Y-73014611D01*
X118265143Y-73011384D01*
X118259400Y-73006840D01*
X118252772Y-73003742D01*
X118252765Y-73003738D01*
X118237597Y-72996649D01*
X118184353Y-72949685D01*
X118164953Y-72881391D01*
X118168278Y-72853728D01*
X118169662Y-72847827D01*
X118172024Y-72841194D01*
X118192970Y-72665540D01*
X118191806Y-72654460D01*
X118175215Y-72496616D01*
X118174479Y-72489610D01*
X118170801Y-72478806D01*
X118119740Y-72328816D01*
X118119739Y-72328813D01*
X118117470Y-72322149D01*
X118024778Y-72171479D01*
X117943128Y-72088101D01*
X117905937Y-72050123D01*
X117905936Y-72050122D01*
X117901008Y-72045090D01*
X117752313Y-71949263D01*
X117710901Y-71934190D01*
X117592702Y-71891169D01*
X117592701Y-71891169D01*
X117586083Y-71888760D01*
X117449460Y-71871500D01*
X116764423Y-71871500D01*
X116696302Y-71851498D01*
X116675328Y-71834595D01*
X115944633Y-71103900D01*
X115910607Y-71041588D01*
X115908418Y-71027976D01*
X115900072Y-70948573D01*
X115900072Y-70948572D01*
X115899382Y-70942009D01*
X115874447Y-70865265D01*
X115846119Y-70778082D01*
X115844077Y-70771797D01*
X115828597Y-70744984D01*
X115774866Y-70651920D01*
X115754591Y-70616803D01*
X115743767Y-70604781D01*
X115639258Y-70488712D01*
X115639257Y-70488711D01*
X115634836Y-70483801D01*
X115612801Y-70467791D01*
X115495387Y-70382485D01*
X115495386Y-70382484D01*
X115490045Y-70378604D01*
X115484017Y-70375920D01*
X115484015Y-70375919D01*
X115332577Y-70308495D01*
X115332576Y-70308495D01*
X115326546Y-70305810D01*
X115239016Y-70287205D01*
X115157943Y-70269972D01*
X115157939Y-70269972D01*
X115151486Y-70268600D01*
X114972514Y-70268600D01*
X114966061Y-70269972D01*
X114966057Y-70269972D01*
X114884984Y-70287205D01*
X114797454Y-70305810D01*
X114791424Y-70308495D01*
X114791423Y-70308495D01*
X114639985Y-70375919D01*
X114639983Y-70375920D01*
X114633955Y-70378604D01*
X114628614Y-70382484D01*
X114628613Y-70382485D01*
X114511200Y-70467791D01*
X114489164Y-70483801D01*
X114484743Y-70488711D01*
X114484742Y-70488712D01*
X114380234Y-70604781D01*
X114369409Y-70616803D01*
X114349134Y-70651920D01*
X114295404Y-70744984D01*
X114279923Y-70771797D01*
X114277881Y-70778082D01*
X114249554Y-70865265D01*
X114224618Y-70942009D01*
X114223928Y-70948572D01*
X114223928Y-70948573D01*
X114208484Y-71095515D01*
X114205910Y-71120000D01*
X114206600Y-71126565D01*
X114215307Y-71209400D01*
X114224618Y-71297991D01*
X114226658Y-71304269D01*
X114226658Y-71304270D01*
X114241432Y-71349740D01*
X114243459Y-71420708D01*
X114206797Y-71481506D01*
X114143084Y-71512831D01*
X114072550Y-71504737D01*
X114032504Y-71477771D01*
X113912633Y-71357900D01*
X113878607Y-71295588D01*
X113876418Y-71281976D01*
X113868072Y-71202573D01*
X113868072Y-71202572D01*
X113867382Y-71196009D01*
X113853941Y-71154640D01*
X113822889Y-71059073D01*
X113812077Y-71025797D01*
X113808535Y-71019661D01*
X113725892Y-70876521D01*
X113722591Y-70870803D01*
X113647165Y-70787033D01*
X113607258Y-70742712D01*
X113607257Y-70742711D01*
X113602836Y-70737801D01*
X113582783Y-70723231D01*
X113463387Y-70636485D01*
X113463386Y-70636484D01*
X113458045Y-70632604D01*
X113452017Y-70629920D01*
X113452015Y-70629919D01*
X113300577Y-70562495D01*
X113300576Y-70562495D01*
X113294546Y-70559810D01*
X113288091Y-70558438D01*
X113288088Y-70558437D01*
X113188343Y-70537236D01*
X113125869Y-70503508D01*
X113091547Y-70441358D01*
X113096275Y-70370519D01*
X113125444Y-70324894D01*
X114283528Y-69166810D01*
X114297941Y-69154423D01*
X114309665Y-69145795D01*
X114315564Y-69141454D01*
X114349979Y-69100945D01*
X114356909Y-69093429D01*
X114362653Y-69087685D01*
X114364927Y-69084811D01*
X114364933Y-69084804D01*
X114380372Y-69065289D01*
X114383163Y-69061885D01*
X114425945Y-69011528D01*
X114425948Y-69011524D01*
X114430684Y-69005949D01*
X114434011Y-68999434D01*
X114437392Y-68994364D01*
X114440617Y-68989142D01*
X114445160Y-68983400D01*
X114476246Y-68916888D01*
X114478152Y-68912988D01*
X114504027Y-68862315D01*
X114511543Y-68847596D01*
X114513284Y-68840479D01*
X114515411Y-68834761D01*
X114517342Y-68828955D01*
X114520443Y-68822321D01*
X114523309Y-68808546D01*
X114535389Y-68750469D01*
X114536359Y-68746181D01*
X114552469Y-68680343D01*
X114553804Y-68674888D01*
X114554500Y-68663670D01*
X114554539Y-68663672D01*
X114554772Y-68659771D01*
X114555161Y-68655412D01*
X114556652Y-68648244D01*
X114554546Y-68570424D01*
X114554500Y-68567015D01*
X114554500Y-68513422D01*
X114574502Y-68445301D01*
X114628158Y-68398808D01*
X114698432Y-68388704D01*
X114763012Y-68418198D01*
G37*
%TD.AperFunction*%
%TA.AperFunction,Conductor*%
G36*
X110323107Y-66060502D02*
G01*
X110369600Y-66114158D01*
X110379704Y-66184432D01*
X110348622Y-66250810D01*
X110305409Y-66298803D01*
X110215923Y-66453797D01*
X110213881Y-66460082D01*
X110165683Y-66608422D01*
X110160618Y-66624009D01*
X110159928Y-66630572D01*
X110159928Y-66630573D01*
X110155635Y-66671420D01*
X110141910Y-66802000D01*
X110160618Y-66979991D01*
X110162658Y-66986269D01*
X110162658Y-66986270D01*
X110178743Y-67035774D01*
X110215923Y-67150203D01*
X110305409Y-67305197D01*
X110330137Y-67332660D01*
X110360853Y-67396666D01*
X110362500Y-67416969D01*
X110362500Y-67756577D01*
X110342498Y-67824698D01*
X110325595Y-67845672D01*
X110263672Y-67907595D01*
X110201360Y-67941621D01*
X110174577Y-67944500D01*
X109553032Y-67944500D01*
X109541793Y-67943970D01*
X109534281Y-67942291D01*
X109526356Y-67942540D01*
X109526355Y-67942540D01*
X109465970Y-67944438D01*
X109462012Y-67944500D01*
X109434017Y-67944500D01*
X109430083Y-67944997D01*
X109430081Y-67944997D01*
X109429994Y-67945008D01*
X109418160Y-67945940D01*
X109373795Y-67947335D01*
X109366182Y-67949547D01*
X109366181Y-67949547D01*
X109354252Y-67953013D01*
X109334888Y-67957023D01*
X109322560Y-67958580D01*
X109322558Y-67958580D01*
X109314701Y-67959573D01*
X109307337Y-67962489D01*
X109307332Y-67962490D01*
X109273444Y-67975907D01*
X109262215Y-67979752D01*
X109245535Y-67984598D01*
X109219607Y-67992131D01*
X109212780Y-67996169D01*
X109212777Y-67996170D01*
X109202094Y-68002488D01*
X109184336Y-68011188D01*
X109172785Y-68015761D01*
X109172779Y-68015765D01*
X109165412Y-68018681D01*
X109159001Y-68023339D01*
X109158999Y-68023340D01*
X109129512Y-68044764D01*
X109119590Y-68051281D01*
X109088232Y-68069826D01*
X109088228Y-68069829D01*
X109081402Y-68073866D01*
X109067018Y-68088250D01*
X109051984Y-68101091D01*
X109035513Y-68113058D01*
X109008870Y-68145264D01*
X109007227Y-68147250D01*
X108999237Y-68156031D01*
X108319401Y-68835866D01*
X106865512Y-70289755D01*
X106857193Y-70297325D01*
X106850697Y-70301447D01*
X106845271Y-70307225D01*
X106845270Y-70307226D01*
X106803915Y-70351265D01*
X106801160Y-70354107D01*
X106781361Y-70373906D01*
X106778937Y-70377031D01*
X106778929Y-70377040D01*
X106778863Y-70377126D01*
X106771155Y-70386151D01*
X106740783Y-70418494D01*
X106736965Y-70425438D01*
X106736964Y-70425440D01*
X106730978Y-70436329D01*
X106720127Y-70452847D01*
X106707650Y-70468933D01*
X106690024Y-70509666D01*
X106684807Y-70520314D01*
X106663431Y-70559197D01*
X106661460Y-70566872D01*
X106661458Y-70566878D01*
X106658369Y-70578911D01*
X106651966Y-70597613D01*
X106643883Y-70616292D01*
X106640966Y-70634711D01*
X106636940Y-70660127D01*
X106634535Y-70671740D01*
X106623500Y-70714718D01*
X106623500Y-70735065D01*
X106621949Y-70754776D01*
X106618765Y-70774879D01*
X106619511Y-70782771D01*
X106622941Y-70819056D01*
X106623500Y-70830914D01*
X106623500Y-72075500D01*
X106603498Y-72143621D01*
X106549842Y-72190114D01*
X106497500Y-72201500D01*
X106335866Y-72201500D01*
X106295280Y-72205909D01*
X106268067Y-72205909D01*
X106235483Y-72202369D01*
X106228672Y-72202000D01*
X106202115Y-72202000D01*
X106186876Y-72206475D01*
X106164611Y-72232170D01*
X106164082Y-72231712D01*
X106157318Y-72244100D01*
X106137161Y-72259207D01*
X106137295Y-72259385D01*
X106020739Y-72346739D01*
X105962356Y-72424640D01*
X105960826Y-72426681D01*
X105903967Y-72469196D01*
X105833149Y-72474222D01*
X105770855Y-72440162D01*
X105736865Y-72377831D01*
X105734000Y-72351116D01*
X105734000Y-72220116D01*
X105729525Y-72204877D01*
X105728135Y-72203672D01*
X105720452Y-72202001D01*
X105689331Y-72202001D01*
X105682510Y-72202371D01*
X105631648Y-72207895D01*
X105616393Y-72211522D01*
X105552729Y-72235388D01*
X105481922Y-72240571D01*
X105419553Y-72206650D01*
X105385424Y-72144394D01*
X105382500Y-72117406D01*
X105382500Y-69738028D01*
X105402502Y-69669907D01*
X105419405Y-69648933D01*
X108990933Y-66077405D01*
X109053245Y-66043379D01*
X109080028Y-66040500D01*
X110254986Y-66040500D01*
X110323107Y-66060502D01*
G37*
%TD.AperFunction*%
%TA.AperFunction,Conductor*%
G36*
X115398012Y-66513198D02*
G01*
X115404595Y-66519327D01*
X119977595Y-71092328D01*
X120011621Y-71154640D01*
X120014500Y-71181423D01*
X120014500Y-71567577D01*
X119994498Y-71635698D01*
X119940842Y-71682191D01*
X119870568Y-71692295D01*
X119805988Y-71662801D01*
X119799405Y-71656672D01*
X115226405Y-67083672D01*
X115192379Y-67021360D01*
X115189500Y-66994577D01*
X115189500Y-66608422D01*
X115209502Y-66540301D01*
X115263158Y-66493808D01*
X115333432Y-66483704D01*
X115398012Y-66513198D01*
G37*
%TD.AperFunction*%
%TA.AperFunction,Conductor*%
G36*
X117508556Y-61466002D02*
G01*
X117555049Y-61519658D01*
X117565153Y-61589932D01*
X117535659Y-61654512D01*
X117504858Y-61680285D01*
X117450196Y-61712805D01*
X117443945Y-61717053D01*
X117250733Y-61866115D01*
X117242267Y-61877773D01*
X117248871Y-61889661D01*
X118987188Y-63627978D01*
X119001132Y-63635592D01*
X119002965Y-63635461D01*
X119009580Y-63631210D01*
X120750162Y-61890628D01*
X120757174Y-61877787D01*
X120749379Y-61867098D01*
X120579886Y-61733481D01*
X120573663Y-61729156D01*
X120492326Y-61679605D01*
X120444557Y-61627082D01*
X120432767Y-61557071D01*
X120460699Y-61491800D01*
X120519485Y-61451992D01*
X120557879Y-61446000D01*
X121361000Y-61446000D01*
X121429121Y-61466002D01*
X121475614Y-61519658D01*
X121487000Y-61572000D01*
X121487000Y-62337698D01*
X121466998Y-62405819D01*
X121413342Y-62452312D01*
X121343068Y-62462416D01*
X121278488Y-62432922D01*
X121261643Y-62415184D01*
X121133617Y-62251022D01*
X121121823Y-62242551D01*
X121110113Y-62249097D01*
X119372022Y-63987188D01*
X119364408Y-64001132D01*
X119364539Y-64002965D01*
X119368790Y-64009580D01*
X121108825Y-65749615D01*
X121121948Y-65756781D01*
X121132250Y-65749391D01*
X121241429Y-65615285D01*
X121245838Y-65609149D01*
X121254437Y-65595520D01*
X121307703Y-65548581D01*
X121377891Y-65537891D01*
X121442715Y-65566844D01*
X121481596Y-65626248D01*
X121487000Y-65662754D01*
X121487000Y-70583799D01*
X121466998Y-70651920D01*
X121413342Y-70698413D01*
X121343068Y-70708517D01*
X121278488Y-70679023D01*
X121244486Y-70625951D01*
X121243229Y-70626495D01*
X121240081Y-70619221D01*
X121237869Y-70611607D01*
X121227510Y-70594091D01*
X121218813Y-70576341D01*
X121211319Y-70557412D01*
X121185238Y-70521514D01*
X121178722Y-70511594D01*
X121160173Y-70480229D01*
X121160171Y-70480226D01*
X121156135Y-70473402D01*
X121141747Y-70459014D01*
X121128906Y-70443980D01*
X121121602Y-70433927D01*
X121116942Y-70427513D01*
X121082750Y-70399227D01*
X121073971Y-70391238D01*
X116804715Y-66121982D01*
X117243142Y-66121982D01*
X117250668Y-66132415D01*
X117396463Y-66249848D01*
X117402648Y-66254244D01*
X117678363Y-66426195D01*
X117685034Y-66429817D01*
X117979414Y-66567402D01*
X117986468Y-66570195D01*
X118295257Y-66671420D01*
X118302570Y-66673339D01*
X118621298Y-66736738D01*
X118628789Y-66737764D01*
X118952823Y-66762413D01*
X118960386Y-66762531D01*
X119285021Y-66748074D01*
X119292562Y-66747282D01*
X119613115Y-66693926D01*
X119620479Y-66692240D01*
X119932315Y-66600757D01*
X119939424Y-66598198D01*
X120238003Y-66469919D01*
X120244770Y-66466515D01*
X120525764Y-66303301D01*
X120532071Y-66299111D01*
X120750005Y-66134588D01*
X120758461Y-66123197D01*
X120751743Y-66110953D01*
X119012812Y-64372022D01*
X118998868Y-64364408D01*
X118997035Y-64364539D01*
X118990420Y-64368790D01*
X117250257Y-66108953D01*
X117243142Y-66121982D01*
X116804715Y-66121982D01*
X116496405Y-65813672D01*
X116462379Y-65751360D01*
X116459500Y-65724577D01*
X116459500Y-65583629D01*
X116479502Y-65515508D01*
X116533158Y-65469015D01*
X116603432Y-65458911D01*
X116668012Y-65488405D01*
X116694121Y-65519774D01*
X116704720Y-65537803D01*
X116708943Y-65544088D01*
X116865792Y-65749608D01*
X116877316Y-65758069D01*
X116889382Y-65751408D01*
X118627978Y-64012812D01*
X118635592Y-63998868D01*
X118635461Y-63997035D01*
X118631210Y-63990420D01*
X116890864Y-62250074D01*
X116877929Y-62243011D01*
X116867367Y-62250671D01*
X116741785Y-62408268D01*
X116737428Y-62414467D01*
X116566913Y-62691094D01*
X116563333Y-62697770D01*
X116427287Y-62992878D01*
X116424537Y-62999929D01*
X116324927Y-63309251D01*
X116323044Y-63316584D01*
X116320813Y-63328118D01*
X116288236Y-63391199D01*
X116226725Y-63426653D01*
X116155812Y-63423225D01*
X116108012Y-63393279D01*
X114375828Y-61661095D01*
X114341802Y-61598783D01*
X114346867Y-61527968D01*
X114389414Y-61471132D01*
X114455934Y-61446321D01*
X114464923Y-61446000D01*
X117440435Y-61446000D01*
X117508556Y-61466002D01*
G37*
%TD.AperFunction*%
%TD*%
M02*
