%TF.GenerationSoftware,KiCad,Pcbnew,(6.0.0-0)*%
%TF.CreationDate,2023-03-06T18:33:43-05:00*%
%TF.ProjectId,module_dev2,6d6f6475-6c65-45f6-9465-76322e6b6963,rev?*%
%TF.SameCoordinates,Original*%
%TF.FileFunction,Soldermask,Bot*%
%TF.FilePolarity,Negative*%
%FSLAX46Y46*%
G04 Gerber Fmt 4.6, Leading zero omitted, Abs format (unit mm)*
G04 Created by KiCad (PCBNEW (6.0.0-0)) date 2023-03-06 18:33:43*
%MOMM*%
%LPD*%
G01*
G04 APERTURE LIST*
%ADD10C,4.500000*%
%ADD11O,1.800000X1.800000*%
%ADD12C,0.760000*%
%ADD13R,1.000000X5.850000*%
%ADD14R,0.610000X2.410000*%
G04 APERTURE END LIST*
D10*
%TO.C,H1*%
X95000000Y-64000000D03*
%TD*%
%TO.C,H2*%
X119000000Y-64000000D03*
%TD*%
D11*
%TO.C,J24*%
X97790000Y-72898000D03*
%TD*%
%TO.C,J25*%
X100330000Y-72898000D03*
%TD*%
%TO.C,J27*%
X95250000Y-70358000D03*
%TD*%
%TO.C,J28*%
X102870000Y-70358000D03*
%TD*%
%TO.C,J29*%
X97790000Y-70358000D03*
%TD*%
%TO.C,J32*%
X102870000Y-72898000D03*
%TD*%
%TO.C,J13*%
X115570000Y-72898000D03*
%TD*%
%TO.C,J14*%
X113030000Y-70358000D03*
%TD*%
%TO.C,J15*%
X113030000Y-72898000D03*
%TD*%
%TO.C,J16*%
X105410000Y-70358000D03*
%TD*%
%TO.C,J18*%
X105410000Y-72898000D03*
%TD*%
%TO.C,J19*%
X107950000Y-72898000D03*
%TD*%
%TO.C,J17*%
X107950000Y-70358000D03*
%TD*%
%TO.C,J22*%
X118110000Y-70358000D03*
%TD*%
%TO.C,J31*%
X118110000Y-67818000D03*
%TD*%
%TO.C,J26*%
X95250000Y-72898000D03*
%TD*%
%TO.C,J21*%
X115570000Y-70358000D03*
%TD*%
%TO.C,J30*%
X115570000Y-67818000D03*
%TD*%
%TO.C,J12*%
X118110000Y-72898000D03*
%TD*%
%TO.C,J2*%
X95250000Y-75438000D03*
X97790000Y-75438000D03*
X100330000Y-75438000D03*
X102870000Y-75438000D03*
X105410000Y-75438000D03*
X107950000Y-75438000D03*
X110490000Y-75438000D03*
X113030000Y-75438000D03*
%TD*%
%TO.C,J3*%
X95250000Y-77978000D03*
X97790000Y-77978000D03*
X100330000Y-77978000D03*
X102870000Y-77978000D03*
X105410000Y-77978000D03*
X107950000Y-77978000D03*
X110490000Y-77978000D03*
X113030000Y-77978000D03*
%TD*%
%TO.C,J4*%
X95250000Y-80518000D03*
X97790000Y-80518000D03*
X100330000Y-80518000D03*
X102870000Y-80518000D03*
X105410000Y-80518000D03*
X107950000Y-80518000D03*
X110490000Y-80518000D03*
X113030000Y-80518000D03*
%TD*%
%TO.C,J5*%
X95250000Y-83058000D03*
X97790000Y-83058000D03*
X100330000Y-83058000D03*
X102870000Y-83058000D03*
X105410000Y-83058000D03*
X107950000Y-83058000D03*
X110490000Y-83058000D03*
X113030000Y-83058000D03*
%TD*%
%TO.C,J6*%
X95250000Y-85598000D03*
X97790000Y-85598000D03*
X100330000Y-85598000D03*
X102870000Y-85598000D03*
X105410000Y-85598000D03*
X107950000Y-85598000D03*
X110490000Y-85598000D03*
X113030000Y-85598000D03*
%TD*%
%TO.C,J7*%
X115570000Y-75438000D03*
X115570000Y-77978000D03*
X115570000Y-80518000D03*
X115570000Y-83058000D03*
X115570000Y-85598000D03*
%TD*%
%TO.C,J8*%
X118110000Y-75438000D03*
X118110000Y-77978000D03*
X118110000Y-80518000D03*
X118110000Y-83058000D03*
X118110000Y-85598000D03*
%TD*%
D12*
%TO.C,J1*%
X112524500Y-63900000D03*
D13*
X100173500Y-65000000D03*
X113826500Y-65000000D03*
D12*
X101475500Y-63900000D03*
D14*
X101996500Y-66720000D03*
X102996500Y-66720000D03*
X103996500Y-66720000D03*
X104996500Y-66720000D03*
X105996500Y-66720000D03*
X106996500Y-66720000D03*
X107996500Y-66720000D03*
X108996500Y-66720000D03*
X109996500Y-66720000D03*
X110996500Y-66720000D03*
X111996500Y-66720000D03*
X111496500Y-63280000D03*
X110496500Y-63280000D03*
X109496500Y-63280000D03*
X108496500Y-63280000D03*
X107496500Y-63280000D03*
X106496500Y-63280000D03*
X105496500Y-63280000D03*
X104496500Y-63280000D03*
X103496500Y-63320000D03*
X102496500Y-63320000D03*
%TD*%
G36*
X121937121Y-74442002D02*
G01*
X121983614Y-74495658D01*
X121995000Y-74548000D01*
X121995000Y-86812000D01*
X121974998Y-86880121D01*
X121921342Y-86926614D01*
X121869000Y-86938000D01*
X92121000Y-86938000D01*
X92052879Y-86917998D01*
X92006386Y-86864342D01*
X91995000Y-86812000D01*
X91995000Y-74548000D01*
X92015002Y-74479879D01*
X92068658Y-74433386D01*
X92121000Y-74422000D01*
X121869000Y-74422000D01*
X121937121Y-74442002D01*
G37*
M02*
