%TF.GenerationSoftware,KiCad,Pcbnew,(6.0.0-0)*%
%TF.CreationDate,2023-03-06T18:33:43-05:00*%
%TF.ProjectId,module_dev2,6d6f6475-6c65-45f6-9465-76322e6b6963,rev?*%
%TF.SameCoordinates,Original*%
%TF.FileFunction,Soldermask,Top*%
%TF.FilePolarity,Negative*%
%FSLAX46Y46*%
G04 Gerber Fmt 4.6, Leading zero omitted, Abs format (unit mm)*
G04 Created by KiCad (PCBNEW (6.0.0-0)) date 2023-03-06 18:33:43*
%MOMM*%
%LPD*%
G01*
G04 APERTURE LIST*
G04 Aperture macros list*
%AMRoundRect*
0 Rectangle with rounded corners*
0 $1 Rounding radius*
0 $2 $3 $4 $5 $6 $7 $8 $9 X,Y pos of 4 corners*
0 Add a 4 corners polygon primitive as box body*
4,1,4,$2,$3,$4,$5,$6,$7,$8,$9,$2,$3,0*
0 Add four circle primitives for the rounded corners*
1,1,$1+$1,$2,$3*
1,1,$1+$1,$4,$5*
1,1,$1+$1,$6,$7*
1,1,$1+$1,$8,$9*
0 Add four rect primitives between the rounded corners*
20,1,$1+$1,$2,$3,$4,$5,0*
20,1,$1+$1,$4,$5,$6,$7,0*
20,1,$1+$1,$6,$7,$8,$9,0*
20,1,$1+$1,$8,$9,$2,$3,0*%
G04 Aperture macros list end*
%ADD10C,4.500000*%
%ADD11O,1.800000X1.800000*%
%ADD12RoundRect,0.135000X-0.185000X0.135000X-0.185000X-0.135000X0.185000X-0.135000X0.185000X0.135000X0*%
%ADD13RoundRect,0.218750X-0.256250X0.218750X-0.256250X-0.218750X0.256250X-0.218750X0.256250X0.218750X0*%
%ADD14C,0.760000*%
G04 APERTURE END LIST*
D10*
%TO.C,H1*%
X95000000Y-64000000D03*
%TD*%
%TO.C,H2*%
X119000000Y-64000000D03*
%TD*%
D11*
%TO.C,J24*%
X97790000Y-72898000D03*
%TD*%
%TO.C,J25*%
X100330000Y-72898000D03*
%TD*%
%TO.C,J27*%
X95250000Y-70358000D03*
%TD*%
%TO.C,J28*%
X102870000Y-70358000D03*
%TD*%
%TO.C,J29*%
X97790000Y-70358000D03*
%TD*%
%TO.C,J32*%
X102870000Y-72898000D03*
%TD*%
%TO.C,J13*%
X115570000Y-72898000D03*
%TD*%
%TO.C,J14*%
X113030000Y-70358000D03*
%TD*%
%TO.C,J15*%
X113030000Y-72898000D03*
%TD*%
%TO.C,J16*%
X105410000Y-70358000D03*
%TD*%
%TO.C,J18*%
X105410000Y-72898000D03*
%TD*%
%TO.C,J19*%
X107950000Y-72898000D03*
%TD*%
%TO.C,J17*%
X107950000Y-70358000D03*
%TD*%
%TO.C,J22*%
X118110000Y-70358000D03*
%TD*%
%TO.C,J31*%
X118110000Y-67818000D03*
%TD*%
%TO.C,J26*%
X95250000Y-72898000D03*
%TD*%
%TO.C,J21*%
X115570000Y-70358000D03*
%TD*%
%TO.C,J30*%
X115570000Y-67818000D03*
%TD*%
%TO.C,J12*%
X118110000Y-72898000D03*
%TD*%
%TO.C,J2*%
X95250000Y-75438000D03*
X97790000Y-75438000D03*
X100330000Y-75438000D03*
X102870000Y-75438000D03*
X105410000Y-75438000D03*
X107950000Y-75438000D03*
X110490000Y-75438000D03*
X113030000Y-75438000D03*
%TD*%
%TO.C,J3*%
X95250000Y-77978000D03*
X97790000Y-77978000D03*
X100330000Y-77978000D03*
X102870000Y-77978000D03*
X105410000Y-77978000D03*
X107950000Y-77978000D03*
X110490000Y-77978000D03*
X113030000Y-77978000D03*
%TD*%
%TO.C,J4*%
X95250000Y-80518000D03*
X97790000Y-80518000D03*
X100330000Y-80518000D03*
X102870000Y-80518000D03*
X105410000Y-80518000D03*
X107950000Y-80518000D03*
X110490000Y-80518000D03*
X113030000Y-80518000D03*
%TD*%
%TO.C,J5*%
X95250000Y-83058000D03*
X97790000Y-83058000D03*
X100330000Y-83058000D03*
X102870000Y-83058000D03*
X105410000Y-83058000D03*
X107950000Y-83058000D03*
X110490000Y-83058000D03*
X113030000Y-83058000D03*
%TD*%
%TO.C,J6*%
X95250000Y-85598000D03*
X97790000Y-85598000D03*
X100330000Y-85598000D03*
X102870000Y-85598000D03*
X105410000Y-85598000D03*
X107950000Y-85598000D03*
X110490000Y-85598000D03*
X113030000Y-85598000D03*
%TD*%
%TO.C,J7*%
X115570000Y-75438000D03*
X115570000Y-77978000D03*
X115570000Y-80518000D03*
X115570000Y-83058000D03*
X115570000Y-85598000D03*
%TD*%
%TO.C,J8*%
X118110000Y-75438000D03*
X118110000Y-77978000D03*
X118110000Y-80518000D03*
X118110000Y-83058000D03*
X118110000Y-85598000D03*
%TD*%
D12*
%TO.C,R1*%
X106299000Y-65403000D03*
X106299000Y-66423000D03*
%TD*%
D13*
%TO.C,D1*%
X107696000Y-64490500D03*
X107696000Y-66065500D03*
%TD*%
D14*
%TO.C,J1*%
X112524500Y-63900000D03*
X101475500Y-63900000D03*
%TD*%
M02*
