%TF.GenerationSoftware,KiCad,Pcbnew,(6.0.0-0)*%
%TF.CreationDate,2023-03-06T18:33:43-05:00*%
%TF.ProjectId,module_dev2,6d6f6475-6c65-45f6-9465-76322e6b6963,rev?*%
%TF.SameCoordinates,Original*%
%TF.FileFunction,Legend,Top*%
%TF.FilePolarity,Positive*%
%FSLAX46Y46*%
G04 Gerber Fmt 4.6, Leading zero omitted, Abs format (unit mm)*
G04 Created by KiCad (PCBNEW (6.0.0-0)) date 2023-03-06 18:33:43*
%MOMM*%
%LPD*%
G01*
G04 APERTURE LIST*
%ADD10C,0.152400*%
%ADD11C,0.150000*%
%ADD12C,0.120000*%
%ADD13C,0.500000*%
%ADD14C,1.000000*%
G04 APERTURE END LIST*
D10*
X98806000Y-71628000D02*
X98425000Y-72009000D01*
X115316000Y-76708000D02*
X115824000Y-76708000D01*
X119126000Y-74168000D02*
X119888000Y-74930000D01*
X94234000Y-74168000D02*
X93472000Y-74930000D01*
X114300000Y-86360000D02*
X114808000Y-86868000D01*
X120904000Y-85852000D02*
X120904000Y-86360000D01*
X119126000Y-72898000D02*
X120142000Y-72898000D01*
X115570000Y-81534000D02*
X115570000Y-82042000D01*
X115316000Y-81788000D02*
X115824000Y-81788000D01*
X119888000Y-85852000D02*
X119888000Y-86360000D01*
X94234000Y-74168000D02*
X93472000Y-73406000D01*
X116713000Y-71628000D02*
X116205000Y-72136000D01*
X115316000Y-79248000D02*
X115824000Y-79248000D01*
X115570000Y-76454000D02*
X115570000Y-76962000D01*
X114300000Y-86360000D02*
X113792000Y-86868000D01*
X114300000Y-74168000D02*
X114300000Y-86360000D01*
X106680000Y-69596000D02*
X107188000Y-69088000D01*
X106172000Y-72263000D02*
X106680000Y-71755000D01*
X115570000Y-84074000D02*
X115570000Y-84582000D01*
X118110000Y-82042000D02*
X118110000Y-81534000D01*
X102235000Y-72009000D02*
X101854000Y-71628000D01*
X118110000Y-79502000D02*
X118110000Y-78994000D01*
X115316000Y-84328000D02*
X115824000Y-84328000D01*
X118872000Y-71628000D02*
X116713000Y-71628000D01*
X100330000Y-72009000D02*
X100330000Y-71755000D01*
X119126000Y-74168000D02*
X119888000Y-73406000D01*
X118110000Y-76962000D02*
X118110000Y-76454000D01*
X94234000Y-74168000D02*
X119126000Y-74168000D01*
X118110000Y-84074000D02*
X118110000Y-84582000D01*
X106680000Y-71755000D02*
X106680000Y-69596000D01*
X119634000Y-86106000D02*
X120142000Y-86106000D01*
X115570000Y-78994000D02*
X115570000Y-79502000D01*
D11*
X120453190Y-71877880D02*
X120415095Y-71992166D01*
X120415095Y-72182642D01*
X120453190Y-72258833D01*
X120491285Y-72296928D01*
X120567476Y-72335023D01*
X120643666Y-72335023D01*
X120719857Y-72296928D01*
X120757952Y-72258833D01*
X120796047Y-72182642D01*
X120834142Y-72030261D01*
X120872238Y-71954071D01*
X120910333Y-71915976D01*
X120986523Y-71877880D01*
X121062714Y-71877880D01*
X121138904Y-71915976D01*
X121177000Y-71954071D01*
X121215095Y-72030261D01*
X121215095Y-72220738D01*
X121177000Y-72335023D01*
X120491285Y-73135023D02*
X120453190Y-73096928D01*
X120415095Y-72982642D01*
X120415095Y-72906452D01*
X120453190Y-72792166D01*
X120529380Y-72715976D01*
X120605571Y-72677880D01*
X120757952Y-72639785D01*
X120872238Y-72639785D01*
X121024619Y-72677880D01*
X121100809Y-72715976D01*
X121177000Y-72792166D01*
X121215095Y-72906452D01*
X121215095Y-72982642D01*
X121177000Y-73096928D01*
X121138904Y-73135023D01*
X120415095Y-73858833D02*
X120415095Y-73477880D01*
X121215095Y-73477880D01*
X111106000Y-73333976D02*
X111067904Y-73410166D01*
X111067904Y-73524452D01*
X111106000Y-73638738D01*
X111182190Y-73714928D01*
X111258380Y-73753023D01*
X111410761Y-73791119D01*
X111525047Y-73791119D01*
X111677428Y-73753023D01*
X111753619Y-73714928D01*
X111829809Y-73638738D01*
X111867904Y-73524452D01*
X111867904Y-73448261D01*
X111829809Y-73333976D01*
X111791714Y-73295880D01*
X111525047Y-73295880D01*
X111525047Y-73448261D01*
X111867904Y-72953023D02*
X111067904Y-72953023D01*
X111867904Y-72495880D01*
X111067904Y-72495880D01*
X111867904Y-72114928D02*
X111067904Y-72114928D01*
X111067904Y-71924452D01*
X111106000Y-71810166D01*
X111182190Y-71733976D01*
X111258380Y-71695880D01*
X111410761Y-71657785D01*
X111525047Y-71657785D01*
X111677428Y-71695880D01*
X111753619Y-71733976D01*
X111829809Y-71810166D01*
X111867904Y-71924452D01*
X111867904Y-72114928D01*
X111067904Y-70781595D02*
X111067904Y-70286357D01*
X111372666Y-70553023D01*
X111372666Y-70438738D01*
X111410761Y-70362547D01*
X111448857Y-70324452D01*
X111525047Y-70286357D01*
X111715523Y-70286357D01*
X111791714Y-70324452D01*
X111829809Y-70362547D01*
X111867904Y-70438738D01*
X111867904Y-70667309D01*
X111829809Y-70743500D01*
X111791714Y-70781595D01*
X111067904Y-70057785D02*
X111867904Y-69791119D01*
X111067904Y-69524452D01*
X119310190Y-70607880D02*
X119272095Y-70722166D01*
X119272095Y-70912642D01*
X119310190Y-70988833D01*
X119348285Y-71026928D01*
X119424476Y-71065023D01*
X119500666Y-71065023D01*
X119576857Y-71026928D01*
X119614952Y-70988833D01*
X119653047Y-70912642D01*
X119691142Y-70760261D01*
X119729238Y-70684071D01*
X119767333Y-70645976D01*
X119843523Y-70607880D01*
X119919714Y-70607880D01*
X119995904Y-70645976D01*
X120034000Y-70684071D01*
X120072095Y-70760261D01*
X120072095Y-70950738D01*
X120034000Y-71065023D01*
X119272095Y-71407880D02*
X120072095Y-71407880D01*
X120072095Y-71598357D01*
X120034000Y-71712642D01*
X119957809Y-71788833D01*
X119881619Y-71826928D01*
X119729238Y-71865023D01*
X119614952Y-71865023D01*
X119462571Y-71826928D01*
X119386380Y-71788833D01*
X119310190Y-71712642D01*
X119272095Y-71598357D01*
X119272095Y-71407880D01*
X119500666Y-72169785D02*
X119500666Y-72550738D01*
X119272095Y-72093595D02*
X120072095Y-72360261D01*
X119272095Y-72626928D01*
X120504000Y-85144976D02*
X120465904Y-85221166D01*
X120465904Y-85335452D01*
X120504000Y-85449738D01*
X120580190Y-85525928D01*
X120656380Y-85564023D01*
X120808761Y-85602119D01*
X120923047Y-85602119D01*
X121075428Y-85564023D01*
X121151619Y-85525928D01*
X121227809Y-85449738D01*
X121265904Y-85335452D01*
X121265904Y-85259261D01*
X121227809Y-85144976D01*
X121189714Y-85106880D01*
X120923047Y-85106880D01*
X120923047Y-85259261D01*
X121265904Y-84764023D02*
X120465904Y-84764023D01*
X121265904Y-84306880D01*
X120465904Y-84306880D01*
X121265904Y-83925928D02*
X120465904Y-83925928D01*
X120465904Y-83735452D01*
X120504000Y-83621166D01*
X120580190Y-83544976D01*
X120656380Y-83506880D01*
X120808761Y-83468785D01*
X120923047Y-83468785D01*
X121075428Y-83506880D01*
X121151619Y-83544976D01*
X121227809Y-83621166D01*
X121265904Y-83735452D01*
X121265904Y-83925928D01*
X110216904Y-73753023D02*
X109416904Y-73753023D01*
X109988333Y-73486357D01*
X109416904Y-73219690D01*
X110216904Y-73219690D01*
X109416904Y-72686357D02*
X109416904Y-72533976D01*
X109455000Y-72457785D01*
X109531190Y-72381595D01*
X109683571Y-72343500D01*
X109950238Y-72343500D01*
X110102619Y-72381595D01*
X110178809Y-72457785D01*
X110216904Y-72533976D01*
X110216904Y-72686357D01*
X110178809Y-72762547D01*
X110102619Y-72838738D01*
X109950238Y-72876833D01*
X109683571Y-72876833D01*
X109531190Y-72838738D01*
X109455000Y-72762547D01*
X109416904Y-72686357D01*
X110178809Y-72038738D02*
X110216904Y-71924452D01*
X110216904Y-71733976D01*
X110178809Y-71657785D01*
X110140714Y-71619690D01*
X110064523Y-71581595D01*
X109988333Y-71581595D01*
X109912142Y-71619690D01*
X109874047Y-71657785D01*
X109835952Y-71733976D01*
X109797857Y-71886357D01*
X109759761Y-71962547D01*
X109721666Y-72000642D01*
X109645476Y-72038738D01*
X109569285Y-72038738D01*
X109493095Y-72000642D01*
X109455000Y-71962547D01*
X109416904Y-71886357D01*
X109416904Y-71695880D01*
X109455000Y-71581595D01*
X110216904Y-71238738D02*
X109416904Y-71238738D01*
X99675904Y-71047976D02*
X99675904Y-71505119D01*
X99675904Y-71276547D02*
X98875904Y-71276547D01*
X98990190Y-71352738D01*
X99066380Y-71428928D01*
X99104476Y-71505119D01*
X98952095Y-70743214D02*
X98914000Y-70705119D01*
X98875904Y-70628928D01*
X98875904Y-70438452D01*
X98914000Y-70362261D01*
X98952095Y-70324166D01*
X99028285Y-70286071D01*
X99104476Y-70286071D01*
X99218761Y-70324166D01*
X99675904Y-70781309D01*
X99675904Y-70286071D01*
X98875904Y-70057500D02*
X99675904Y-69790833D01*
X98875904Y-69524166D01*
X101288857Y-71467023D02*
X101288857Y-71200357D01*
X101707904Y-71086071D02*
X101707904Y-71467023D01*
X100907904Y-71467023D01*
X100907904Y-71086071D01*
X101707904Y-70743214D02*
X100907904Y-70743214D01*
X101707904Y-70286071D01*
X100907904Y-70286071D01*
X97696928Y-68395904D02*
X97315976Y-68395904D01*
X97277880Y-68776857D01*
X97315976Y-68738761D01*
X97392166Y-68700666D01*
X97582642Y-68700666D01*
X97658833Y-68738761D01*
X97696928Y-68776857D01*
X97735023Y-68853047D01*
X97735023Y-69043523D01*
X97696928Y-69119714D01*
X97658833Y-69157809D01*
X97582642Y-69195904D01*
X97392166Y-69195904D01*
X97315976Y-69157809D01*
X97277880Y-69119714D01*
X97963595Y-68395904D02*
X98230261Y-69195904D01*
X98496928Y-68395904D01*
X119375880Y-68141809D02*
X119490166Y-68179904D01*
X119680642Y-68179904D01*
X119756833Y-68141809D01*
X119794928Y-68103714D01*
X119833023Y-68027523D01*
X119833023Y-67951333D01*
X119794928Y-67875142D01*
X119756833Y-67837047D01*
X119680642Y-67798952D01*
X119528261Y-67760857D01*
X119452071Y-67722761D01*
X119413976Y-67684666D01*
X119375880Y-67608476D01*
X119375880Y-67532285D01*
X119413976Y-67456095D01*
X119452071Y-67418000D01*
X119528261Y-67379904D01*
X119718738Y-67379904D01*
X119833023Y-67418000D01*
X120061595Y-67646571D02*
X120366357Y-67646571D01*
X120175880Y-67379904D02*
X120175880Y-68065619D01*
X120213976Y-68141809D01*
X120290166Y-68179904D01*
X120366357Y-68179904D01*
X120975880Y-68179904D02*
X120975880Y-67760857D01*
X120937785Y-67684666D01*
X120861595Y-67646571D01*
X120709214Y-67646571D01*
X120633023Y-67684666D01*
X120975880Y-68141809D02*
X120899690Y-68179904D01*
X120709214Y-68179904D01*
X120633023Y-68141809D01*
X120594928Y-68065619D01*
X120594928Y-67989428D01*
X120633023Y-67913238D01*
X120709214Y-67875142D01*
X120899690Y-67875142D01*
X120975880Y-67837047D01*
X121242547Y-67646571D02*
X121547309Y-67646571D01*
X121356833Y-67379904D02*
X121356833Y-68065619D01*
X121394928Y-68141809D01*
X121471119Y-68179904D01*
X121547309Y-68179904D01*
X114981642Y-66109857D02*
X115095928Y-66147952D01*
X115134023Y-66186047D01*
X115172119Y-66262238D01*
X115172119Y-66376523D01*
X115134023Y-66452714D01*
X115095928Y-66490809D01*
X115019738Y-66528904D01*
X114714976Y-66528904D01*
X114714976Y-65728904D01*
X114981642Y-65728904D01*
X115057833Y-65767000D01*
X115095928Y-65805095D01*
X115134023Y-65881285D01*
X115134023Y-65957476D01*
X115095928Y-66033666D01*
X115057833Y-66071761D01*
X114981642Y-66109857D01*
X114714976Y-66109857D01*
X115476880Y-66300333D02*
X115857833Y-66300333D01*
X115400690Y-66528904D02*
X115667357Y-65728904D01*
X115934023Y-66528904D01*
X116086404Y-65728904D02*
X116543547Y-65728904D01*
X116314976Y-66528904D02*
X116314976Y-65728904D01*
X119449904Y-85132214D02*
X119449904Y-84636976D01*
X119754666Y-84903642D01*
X119754666Y-84789357D01*
X119792761Y-84713166D01*
X119830857Y-84675071D01*
X119907047Y-84636976D01*
X120097523Y-84636976D01*
X120173714Y-84675071D01*
X120211809Y-84713166D01*
X120249904Y-84789357D01*
X120249904Y-85017928D01*
X120211809Y-85094119D01*
X120173714Y-85132214D01*
X119449904Y-84408404D02*
X120249904Y-84141738D01*
X119449904Y-83875071D01*
X113970597Y-68266037D02*
X114293846Y-68589286D01*
X113566536Y-68993347D02*
X114132222Y-68427662D01*
X114428533Y-68723973D02*
X114239971Y-69666782D01*
X114805657Y-69101097D02*
X113862848Y-69289658D01*
X104389880Y-69157809D02*
X104504166Y-69195904D01*
X104694642Y-69195904D01*
X104770833Y-69157809D01*
X104808928Y-69119714D01*
X104847023Y-69043523D01*
X104847023Y-68967333D01*
X104808928Y-68891142D01*
X104770833Y-68853047D01*
X104694642Y-68814952D01*
X104542261Y-68776857D01*
X104466071Y-68738761D01*
X104427976Y-68700666D01*
X104389880Y-68624476D01*
X104389880Y-68548285D01*
X104427976Y-68472095D01*
X104466071Y-68434000D01*
X104542261Y-68395904D01*
X104732738Y-68395904D01*
X104847023Y-68434000D01*
X105647023Y-69119714D02*
X105608928Y-69157809D01*
X105494642Y-69195904D01*
X105418452Y-69195904D01*
X105304166Y-69157809D01*
X105227976Y-69081619D01*
X105189880Y-69005428D01*
X105151785Y-68853047D01*
X105151785Y-68738761D01*
X105189880Y-68586380D01*
X105227976Y-68510190D01*
X105304166Y-68434000D01*
X105418452Y-68395904D01*
X105494642Y-68395904D01*
X105608928Y-68434000D01*
X105647023Y-68472095D01*
X105989880Y-69195904D02*
X105989880Y-68395904D01*
X106447023Y-69195904D02*
X106104166Y-68738761D01*
X106447023Y-68395904D02*
X105989880Y-68853047D01*
X109440909Y-69271151D02*
X109440909Y-69325026D01*
X109387034Y-69432776D01*
X109333159Y-69486650D01*
X109225410Y-69540525D01*
X109117660Y-69540525D01*
X109036848Y-69513588D01*
X108902161Y-69432776D01*
X108821349Y-69351963D01*
X108740536Y-69217276D01*
X108713599Y-69136464D01*
X108713599Y-69028715D01*
X108767474Y-68920965D01*
X108821349Y-68867090D01*
X108929098Y-68813215D01*
X108982973Y-68813215D01*
X109683345Y-69082589D02*
X109791095Y-69028715D01*
X109925782Y-68894028D01*
X109952719Y-68813215D01*
X109952719Y-68759341D01*
X109925782Y-68678528D01*
X109871907Y-68624654D01*
X109791095Y-68597716D01*
X109737220Y-68597716D01*
X109656408Y-68624654D01*
X109521721Y-68705466D01*
X109440909Y-68732403D01*
X109387034Y-68732403D01*
X109306222Y-68705466D01*
X109252347Y-68651591D01*
X109225410Y-68570779D01*
X109225410Y-68516904D01*
X109252347Y-68436092D01*
X109387034Y-68301405D01*
X109494784Y-68247530D01*
X92832880Y-72650333D02*
X93213833Y-72650333D01*
X92756690Y-72878904D02*
X93023357Y-72078904D01*
X93290023Y-72878904D01*
X93709071Y-72078904D02*
X93785261Y-72078904D01*
X93861452Y-72117000D01*
X93899547Y-72155095D01*
X93937642Y-72231285D01*
X93975738Y-72383666D01*
X93975738Y-72574142D01*
X93937642Y-72726523D01*
X93899547Y-72802714D01*
X93861452Y-72840809D01*
X93785261Y-72878904D01*
X93709071Y-72878904D01*
X93632880Y-72840809D01*
X93594785Y-72802714D01*
X93556690Y-72726523D01*
X93518595Y-72574142D01*
X93518595Y-72383666D01*
X93556690Y-72231285D01*
X93594785Y-72155095D01*
X93632880Y-72117000D01*
X93709071Y-72078904D01*
X92832880Y-70491333D02*
X93213833Y-70491333D01*
X92756690Y-70719904D02*
X93023357Y-69919904D01*
X93290023Y-70719904D01*
X93975738Y-70719904D02*
X93518595Y-70719904D01*
X93747166Y-70719904D02*
X93747166Y-69919904D01*
X93670976Y-70034190D01*
X93594785Y-70110380D01*
X93518595Y-70148476D01*
X119744119Y-69830904D02*
X119477452Y-69449952D01*
X119286976Y-69830904D02*
X119286976Y-69030904D01*
X119591738Y-69030904D01*
X119667928Y-69069000D01*
X119706023Y-69107095D01*
X119744119Y-69183285D01*
X119744119Y-69297571D01*
X119706023Y-69373761D01*
X119667928Y-69411857D01*
X119591738Y-69449952D01*
X119286976Y-69449952D01*
X120010785Y-69030904D02*
X120544119Y-69830904D01*
X120544119Y-69030904D02*
X120010785Y-69830904D01*
X107520535Y-69013275D02*
X106954849Y-68447589D01*
X107547472Y-68663089D01*
X107331973Y-68070466D01*
X107897658Y-68636151D01*
X108167032Y-68366777D02*
X107601347Y-67801092D01*
X108382532Y-68097403D02*
X108490281Y-68043528D01*
X108624968Y-67908841D01*
X108651906Y-67828029D01*
X108651906Y-67774154D01*
X108624968Y-67693342D01*
X108571093Y-67639467D01*
X108490281Y-67612530D01*
X108436406Y-67612530D01*
X108355594Y-67639467D01*
X108220907Y-67720280D01*
X108140095Y-67747217D01*
X108086220Y-67747217D01*
X108005408Y-67720280D01*
X107951533Y-67666405D01*
X107924596Y-67585593D01*
X107924596Y-67531718D01*
X107951533Y-67450906D01*
X108086220Y-67316219D01*
X108193970Y-67262344D01*
X108517219Y-66885220D02*
X108624968Y-66777471D01*
X108705780Y-66750533D01*
X108813530Y-66750533D01*
X108948217Y-66831345D01*
X109136779Y-67019907D01*
X109217591Y-67154594D01*
X109217591Y-67262344D01*
X109190654Y-67343156D01*
X109082904Y-67450906D01*
X109002092Y-67477843D01*
X108894342Y-67477843D01*
X108759655Y-67397031D01*
X108571093Y-67208469D01*
X108490281Y-67073782D01*
X108490281Y-66966032D01*
X108517219Y-66885220D01*
X99930000Y-71047976D02*
X99891904Y-71124166D01*
X99891904Y-71238452D01*
X99930000Y-71352738D01*
X100006190Y-71428928D01*
X100082380Y-71467023D01*
X100234761Y-71505119D01*
X100349047Y-71505119D01*
X100501428Y-71467023D01*
X100577619Y-71428928D01*
X100653809Y-71352738D01*
X100691904Y-71238452D01*
X100691904Y-71162261D01*
X100653809Y-71047976D01*
X100615714Y-71009880D01*
X100349047Y-71009880D01*
X100349047Y-71162261D01*
X100691904Y-70667023D02*
X99891904Y-70667023D01*
X100691904Y-70209880D01*
X99891904Y-70209880D01*
X100691904Y-69828928D02*
X99891904Y-69828928D01*
X99891904Y-69638452D01*
X99930000Y-69524166D01*
X100006190Y-69447976D01*
X100082380Y-69409880D01*
X100234761Y-69371785D01*
X100349047Y-69371785D01*
X100501428Y-69409880D01*
X100577619Y-69447976D01*
X100653809Y-69524166D01*
X100691904Y-69638452D01*
X100691904Y-69828928D01*
X101824500Y-68170000D02*
X102624500Y-68170000D01*
X102472119Y-69195904D02*
X102205452Y-68814952D01*
X102014976Y-69195904D02*
X102014976Y-68395904D01*
X102319738Y-68395904D01*
X102395928Y-68434000D01*
X102434023Y-68472095D01*
X102472119Y-68548285D01*
X102472119Y-68662571D01*
X102434023Y-68738761D01*
X102395928Y-68776857D01*
X102319738Y-68814952D01*
X102014976Y-68814952D01*
X102624500Y-68170000D02*
X103386404Y-68170000D01*
X102776880Y-69157809D02*
X102891166Y-69195904D01*
X103081642Y-69195904D01*
X103157833Y-69157809D01*
X103195928Y-69119714D01*
X103234023Y-69043523D01*
X103234023Y-68967333D01*
X103195928Y-68891142D01*
X103157833Y-68853047D01*
X103081642Y-68814952D01*
X102929261Y-68776857D01*
X102853071Y-68738761D01*
X102814976Y-68700666D01*
X102776880Y-68624476D01*
X102776880Y-68548285D01*
X102814976Y-68472095D01*
X102853071Y-68434000D01*
X102929261Y-68395904D01*
X103119738Y-68395904D01*
X103234023Y-68434000D01*
X103386404Y-68170000D02*
X103995928Y-68170000D01*
X103462595Y-68395904D02*
X103919738Y-68395904D01*
X103691166Y-69195904D02*
X103691166Y-68395904D01*
X101252928Y-63607904D02*
X100871976Y-63607904D01*
X100871976Y-62807904D01*
X101824357Y-63569809D02*
X101748166Y-63607904D01*
X101595785Y-63607904D01*
X101519595Y-63569809D01*
X101481500Y-63493619D01*
X101481500Y-63188857D01*
X101519595Y-63112666D01*
X101595785Y-63074571D01*
X101748166Y-63074571D01*
X101824357Y-63112666D01*
X101862452Y-63188857D01*
X101862452Y-63265047D01*
X101481500Y-63341238D01*
X102548166Y-63074571D02*
X102548166Y-63722190D01*
X102510071Y-63798380D01*
X102471976Y-63836476D01*
X102395785Y-63874571D01*
X102281500Y-63874571D01*
X102205309Y-63836476D01*
X102548166Y-63569809D02*
X102471976Y-63607904D01*
X102319595Y-63607904D01*
X102243404Y-63569809D01*
X102205309Y-63531714D01*
X102167214Y-63455523D01*
X102167214Y-63226952D01*
X102205309Y-63150761D01*
X102243404Y-63112666D01*
X102319595Y-63074571D01*
X102471976Y-63074571D01*
X102548166Y-63112666D01*
X103043404Y-63607904D02*
X102967214Y-63569809D01*
X102929119Y-63531714D01*
X102891023Y-63455523D01*
X102891023Y-63226952D01*
X102929119Y-63150761D01*
X102967214Y-63112666D01*
X103043404Y-63074571D01*
X103157690Y-63074571D01*
X103233880Y-63112666D01*
X103271976Y-63150761D01*
X103310071Y-63226952D01*
X103310071Y-63455523D01*
X103271976Y-63531714D01*
X103233880Y-63569809D01*
X103157690Y-63607904D01*
X103043404Y-63607904D01*
X103614833Y-63569809D02*
X103729119Y-63607904D01*
X103919595Y-63607904D01*
X103995785Y-63569809D01*
X104033880Y-63531714D01*
X104071976Y-63455523D01*
X104071976Y-63379333D01*
X104033880Y-63303142D01*
X103995785Y-63265047D01*
X103919595Y-63226952D01*
X103767214Y-63188857D01*
X103691023Y-63150761D01*
X103652928Y-63112666D01*
X103614833Y-63036476D01*
X103614833Y-62960285D01*
X103652928Y-62884095D01*
X103691023Y-62846000D01*
X103767214Y-62807904D01*
X103957690Y-62807904D01*
X104071976Y-62846000D01*
X104414833Y-63188857D02*
X104681500Y-63188857D01*
X104795785Y-63607904D02*
X104414833Y-63607904D01*
X104414833Y-62807904D01*
X104795785Y-62807904D01*
X105138642Y-63607904D02*
X105138642Y-62807904D01*
X105595785Y-63607904D01*
X105595785Y-62807904D01*
X105938642Y-63569809D02*
X106052928Y-63607904D01*
X106243404Y-63607904D01*
X106319595Y-63569809D01*
X106357690Y-63531714D01*
X106395785Y-63455523D01*
X106395785Y-63379333D01*
X106357690Y-63303142D01*
X106319595Y-63265047D01*
X106243404Y-63226952D01*
X106091023Y-63188857D01*
X106014833Y-63150761D01*
X105976738Y-63112666D01*
X105938642Y-63036476D01*
X105938642Y-62960285D01*
X105976738Y-62884095D01*
X106014833Y-62846000D01*
X106091023Y-62807904D01*
X106281500Y-62807904D01*
X106395785Y-62846000D01*
X106738642Y-63188857D02*
X107005309Y-63188857D01*
X107119595Y-63607904D02*
X106738642Y-63607904D01*
X106738642Y-62807904D01*
X107119595Y-62807904D01*
X108071976Y-63607904D02*
X108071976Y-62807904D01*
X108262452Y-62807904D01*
X108376738Y-62846000D01*
X108452928Y-62922190D01*
X108491023Y-62998380D01*
X108529119Y-63150761D01*
X108529119Y-63265047D01*
X108491023Y-63417428D01*
X108452928Y-63493619D01*
X108376738Y-63569809D01*
X108262452Y-63607904D01*
X108071976Y-63607904D01*
X109176738Y-63569809D02*
X109100547Y-63607904D01*
X108948166Y-63607904D01*
X108871976Y-63569809D01*
X108833880Y-63493619D01*
X108833880Y-63188857D01*
X108871976Y-63112666D01*
X108948166Y-63074571D01*
X109100547Y-63074571D01*
X109176738Y-63112666D01*
X109214833Y-63188857D01*
X109214833Y-63265047D01*
X108833880Y-63341238D01*
X109481500Y-63074571D02*
X109671976Y-63607904D01*
X109862452Y-63074571D01*
X110433880Y-63188857D02*
X110548166Y-63226952D01*
X110586261Y-63265047D01*
X110624357Y-63341238D01*
X110624357Y-63455523D01*
X110586261Y-63531714D01*
X110548166Y-63569809D01*
X110471976Y-63607904D01*
X110167214Y-63607904D01*
X110167214Y-62807904D01*
X110433880Y-62807904D01*
X110510071Y-62846000D01*
X110548166Y-62884095D01*
X110586261Y-62960285D01*
X110586261Y-63036476D01*
X110548166Y-63112666D01*
X110510071Y-63150761D01*
X110433880Y-63188857D01*
X110167214Y-63188857D01*
X111538642Y-62884095D02*
X111576738Y-62846000D01*
X111652928Y-62807904D01*
X111843404Y-62807904D01*
X111919595Y-62846000D01*
X111957690Y-62884095D01*
X111995785Y-62960285D01*
X111995785Y-63036476D01*
X111957690Y-63150761D01*
X111500547Y-63607904D01*
X111995785Y-63607904D01*
X112833880Y-62807904D02*
X113100547Y-63607904D01*
X113367214Y-62807904D01*
X114052928Y-63607904D02*
X113595785Y-63607904D01*
X113824357Y-63607904D02*
X113824357Y-62807904D01*
X113748166Y-62922190D01*
X113671976Y-62998380D01*
X113595785Y-63036476D01*
X114395785Y-63531714D02*
X114433880Y-63569809D01*
X114395785Y-63607904D01*
X114357690Y-63569809D01*
X114395785Y-63531714D01*
X114395785Y-63607904D01*
X114929119Y-62807904D02*
X115005309Y-62807904D01*
X115081500Y-62846000D01*
X115119595Y-62884095D01*
X115157690Y-62960285D01*
X115195785Y-63112666D01*
X115195785Y-63303142D01*
X115157690Y-63455523D01*
X115119595Y-63531714D01*
X115081500Y-63569809D01*
X115005309Y-63607904D01*
X114929119Y-63607904D01*
X114852928Y-63569809D01*
X114814833Y-63531714D01*
X114776738Y-63455523D01*
X114738642Y-63303142D01*
X114738642Y-63112666D01*
X114776738Y-62960285D01*
X114814833Y-62884095D01*
X114852928Y-62846000D01*
X114929119Y-62807904D01*
X103615119Y-62261714D02*
X103577023Y-62299809D01*
X103462738Y-62337904D01*
X103386547Y-62337904D01*
X103272261Y-62299809D01*
X103196071Y-62223619D01*
X103157976Y-62147428D01*
X103119880Y-61995047D01*
X103119880Y-61880761D01*
X103157976Y-61728380D01*
X103196071Y-61652190D01*
X103272261Y-61576000D01*
X103386547Y-61537904D01*
X103462738Y-61537904D01*
X103577023Y-61576000D01*
X103615119Y-61614095D01*
X104072261Y-62337904D02*
X103996071Y-62299809D01*
X103957976Y-62261714D01*
X103919880Y-62185523D01*
X103919880Y-61956952D01*
X103957976Y-61880761D01*
X103996071Y-61842666D01*
X104072261Y-61804571D01*
X104186547Y-61804571D01*
X104262738Y-61842666D01*
X104300833Y-61880761D01*
X104338928Y-61956952D01*
X104338928Y-62185523D01*
X104300833Y-62261714D01*
X104262738Y-62299809D01*
X104186547Y-62337904D01*
X104072261Y-62337904D01*
X104796071Y-62337904D02*
X104719880Y-62299809D01*
X104681785Y-62223619D01*
X104681785Y-61537904D01*
X105443690Y-61804571D02*
X105443690Y-62337904D01*
X105100833Y-61804571D02*
X105100833Y-62223619D01*
X105138928Y-62299809D01*
X105215119Y-62337904D01*
X105329404Y-62337904D01*
X105405595Y-62299809D01*
X105443690Y-62261714D01*
X105824642Y-62337904D02*
X105824642Y-61804571D01*
X105824642Y-61880761D02*
X105862738Y-61842666D01*
X105938928Y-61804571D01*
X106053214Y-61804571D01*
X106129404Y-61842666D01*
X106167500Y-61918857D01*
X106167500Y-62337904D01*
X106167500Y-61918857D02*
X106205595Y-61842666D01*
X106281785Y-61804571D01*
X106396071Y-61804571D01*
X106472261Y-61842666D01*
X106510357Y-61918857D01*
X106510357Y-62337904D01*
X106891309Y-62337904D02*
X106891309Y-61537904D01*
X106891309Y-61842666D02*
X106967500Y-61804571D01*
X107119880Y-61804571D01*
X107196071Y-61842666D01*
X107234166Y-61880761D01*
X107272261Y-61956952D01*
X107272261Y-62185523D01*
X107234166Y-62261714D01*
X107196071Y-62299809D01*
X107119880Y-62337904D01*
X106967500Y-62337904D01*
X106891309Y-62299809D01*
X107615119Y-62337904D02*
X107615119Y-61804571D01*
X107615119Y-61537904D02*
X107577023Y-61576000D01*
X107615119Y-61614095D01*
X107653214Y-61576000D01*
X107615119Y-61537904D01*
X107615119Y-61614095D01*
X108338928Y-62337904D02*
X108338928Y-61918857D01*
X108300833Y-61842666D01*
X108224642Y-61804571D01*
X108072261Y-61804571D01*
X107996071Y-61842666D01*
X108338928Y-62299809D02*
X108262738Y-62337904D01*
X108072261Y-62337904D01*
X107996071Y-62299809D01*
X107957976Y-62223619D01*
X107957976Y-62147428D01*
X107996071Y-62071238D01*
X108072261Y-62033142D01*
X108262738Y-62033142D01*
X108338928Y-61995047D01*
X109329404Y-62337904D02*
X109329404Y-61537904D01*
X110167500Y-62261714D02*
X110129404Y-62299809D01*
X110015119Y-62337904D01*
X109938928Y-62337904D01*
X109824642Y-62299809D01*
X109748452Y-62223619D01*
X109710357Y-62147428D01*
X109672261Y-61995047D01*
X109672261Y-61880761D01*
X109710357Y-61728380D01*
X109748452Y-61652190D01*
X109824642Y-61576000D01*
X109938928Y-61537904D01*
X110015119Y-61537904D01*
X110129404Y-61576000D01*
X110167500Y-61614095D01*
X110472261Y-62299809D02*
X110586547Y-62337904D01*
X110777023Y-62337904D01*
X110853214Y-62299809D01*
X110891309Y-62261714D01*
X110929404Y-62185523D01*
X110929404Y-62109333D01*
X110891309Y-62033142D01*
X110853214Y-61995047D01*
X110777023Y-61956952D01*
X110624642Y-61918857D01*
X110548452Y-61880761D01*
X110510357Y-61842666D01*
X110472261Y-61766476D01*
X110472261Y-61690285D01*
X110510357Y-61614095D01*
X110548452Y-61576000D01*
X110624642Y-61537904D01*
X110815119Y-61537904D01*
X110929404Y-61576000D01*
X111653214Y-62337904D02*
X111272261Y-62337904D01*
X111272261Y-61537904D01*
%TO.C,R1*%
X109672380Y-65698666D02*
X109196190Y-66032000D01*
X109672380Y-66270095D02*
X108672380Y-66270095D01*
X108672380Y-65889142D01*
X108720000Y-65793904D01*
X108767619Y-65746285D01*
X108862857Y-65698666D01*
X109005714Y-65698666D01*
X109100952Y-65746285D01*
X109148571Y-65793904D01*
X109196190Y-65889142D01*
X109196190Y-66270095D01*
X109672380Y-64746285D02*
X109672380Y-65317714D01*
X109672380Y-65032000D02*
X108672380Y-65032000D01*
X108815238Y-65127238D01*
X108910476Y-65222476D01*
X108958095Y-65317714D01*
%TO.C,D1*%
X105608380Y-66524095D02*
X104608380Y-66524095D01*
X104608380Y-66286000D01*
X104656000Y-66143142D01*
X104751238Y-66047904D01*
X104846476Y-66000285D01*
X105036952Y-65952666D01*
X105179809Y-65952666D01*
X105370285Y-66000285D01*
X105465523Y-66047904D01*
X105560761Y-66143142D01*
X105608380Y-66286000D01*
X105608380Y-66524095D01*
X105608380Y-65000285D02*
X105608380Y-65571714D01*
X105608380Y-65286000D02*
X104608380Y-65286000D01*
X104751238Y-65381238D01*
X104846476Y-65476476D01*
X104894095Y-65571714D01*
D12*
%TO.C,R1*%
X106679000Y-65759359D02*
X106679000Y-66066641D01*
X105919000Y-65759359D02*
X105919000Y-66066641D01*
D13*
%TO.C,G\u002A\u002A\u002A*%
X99654000Y-66640000D02*
G75*
G03*
X99654000Y-66640000I0J0D01*
G01*
D14*
X99654000Y-67840000D02*
G75*
G03*
X99654000Y-67840000I0J0D01*
G01*
D13*
X99454000Y-65640000D02*
G75*
G03*
X99454000Y-65640000I0J0D01*
G01*
X99054000Y-65040000D02*
G75*
G03*
X99054000Y-65040000I0J0D01*
G01*
X100654000Y-66840000D02*
G75*
G03*
X100654000Y-66840000I0J0D01*
G01*
D14*
X99654000Y-64440000D02*
G75*
G03*
X99654000Y-64440000I0J0D01*
G01*
D13*
X99054000Y-67240000D02*
G75*
G03*
X99054000Y-67240000I0J0D01*
G01*
X100654000Y-65440000D02*
G75*
G03*
X100654000Y-65440000I0J0D01*
G01*
X100254000Y-67240000D02*
G75*
G03*
X100254000Y-67240000I0J0D01*
G01*
X100254000Y-65040000D02*
G75*
G03*
X100254000Y-65040000I0J0D01*
G01*
X100054000Y-66040000D02*
G75*
G03*
X100054000Y-66040000I0J0D01*
G01*
D14*
X98054000Y-66240000D02*
G75*
G03*
X98054000Y-66240000I0J0D01*
G01*
D13*
X99054000Y-66240000D02*
G75*
G03*
X99054000Y-66240000I0J0D01*
G01*
X98654000Y-65640000D02*
G75*
G03*
X98654000Y-65640000I0J0D01*
G01*
X98654000Y-66840000D02*
G75*
G03*
X98654000Y-66840000I0J0D01*
G01*
D14*
X101254000Y-66240000D02*
G75*
G03*
X101254000Y-66240000I0J0D01*
G01*
D12*
%TO.C,D1*%
X106961000Y-63793000D02*
X106961000Y-65024000D01*
X108431000Y-65024000D02*
X108431000Y-63793000D01*
X108431000Y-66548000D02*
X108431000Y-65532000D01*
X107188000Y-66802000D02*
X106961000Y-66548000D01*
X108431000Y-66548000D02*
X108204000Y-66802000D01*
X108431000Y-63793000D02*
X106961000Y-63793000D01*
X107315000Y-65151000D02*
X108077000Y-65151000D01*
X108204000Y-66802000D02*
X107188000Y-66802000D01*
X106961000Y-65532000D02*
X106961000Y-66548000D01*
X107696000Y-65151000D02*
X107696000Y-65405000D01*
%TD*%
M02*
