%TF.GenerationSoftware,KiCad,Pcbnew,(6.0.0-0)*%
%TF.CreationDate,2023-03-06T17:41:45-05:00*%
%TF.ProjectId,module_dev1,6d6f6475-6c65-45f6-9465-76312e6b6963,rev?*%
%TF.SameCoordinates,Original*%
%TF.FileFunction,Copper,L2,Bot*%
%TF.FilePolarity,Positive*%
%FSLAX46Y46*%
G04 Gerber Fmt 4.6, Leading zero omitted, Abs format (unit mm)*
G04 Created by KiCad (PCBNEW (6.0.0-0)) date 2023-03-06 17:41:45*
%MOMM*%
%LPD*%
G01*
G04 APERTURE LIST*
%TA.AperFunction,ComponentPad*%
%ADD10C,4.500000*%
%TD*%
%TA.AperFunction,ComponentPad*%
%ADD11O,1.800000X1.800000*%
%TD*%
%TA.AperFunction,SMDPad,CuDef*%
%ADD12R,1.000000X5.850000*%
%TD*%
%TA.AperFunction,SMDPad,CuDef*%
%ADD13R,0.610000X2.410000*%
%TD*%
%TA.AperFunction,ViaPad*%
%ADD14C,0.685800*%
%TD*%
%TA.AperFunction,Conductor*%
%ADD15C,0.381000*%
%TD*%
%TA.AperFunction,Conductor*%
%ADD16C,0.508000*%
%TD*%
%TA.AperFunction,Conductor*%
%ADD17C,0.762000*%
%TD*%
%TA.AperFunction,Conductor*%
%ADD18C,0.254000*%
%TD*%
%TA.AperFunction,Conductor*%
%ADD19C,0.406400*%
%TD*%
%TA.AperFunction,Conductor*%
%ADD20C,0.127000*%
%TD*%
G04 APERTURE END LIST*
D10*
%TO.P,H1,1,1*%
%TO.N,GND*%
X95000000Y-64000000D03*
%TD*%
%TO.P,H2,1,1*%
%TO.N,GND*%
X119000000Y-64000000D03*
%TD*%
D11*
%TO.P,J11,1,Pin_1*%
%TO.N,Net-(J11-Pad1)*%
X110490000Y-75438000D03*
%TO.P,J11,2,Pin_2*%
X113030000Y-75438000D03*
%TO.P,J11,3,Pin_3*%
X115570000Y-75438000D03*
%TO.P,J11,4,Pin_4*%
X118110000Y-75438000D03*
%TD*%
%TO.P,J10,1,Pin_1*%
%TO.N,Net-(J10-Pad1)*%
X110490000Y-77978000D03*
%TO.P,J10,2,Pin_2*%
X113030000Y-77978000D03*
%TO.P,J10,3,Pin_3*%
X115570000Y-77978000D03*
%TO.P,J10,4,Pin_4*%
X118110000Y-77978000D03*
%TD*%
%TO.P,J9,1,Pin_1*%
%TO.N,Net-(J9-Pad1)*%
X110490000Y-80518000D03*
%TO.P,J9,2,Pin_2*%
X113030000Y-80518000D03*
%TO.P,J9,3,Pin_3*%
X115570000Y-80518000D03*
%TO.P,J9,4,Pin_4*%
X118110000Y-80518000D03*
%TD*%
%TO.P,J8,1,Pin_1*%
%TO.N,Net-(J8-Pad1)*%
X110490000Y-83058000D03*
%TO.P,J8,2,Pin_2*%
X113030000Y-83058000D03*
%TO.P,J8,3,Pin_3*%
X115570000Y-83058000D03*
%TO.P,J8,4,Pin_4*%
X118110000Y-83058000D03*
%TD*%
%TO.P,J7,1,Pin_1*%
%TO.N,Net-(J7-Pad1)*%
X110490000Y-85598000D03*
%TO.P,J7,2,Pin_2*%
X113030000Y-85598000D03*
%TO.P,J7,3,Pin_3*%
X115570000Y-85598000D03*
%TO.P,J7,4,Pin_4*%
X118110000Y-85598000D03*
%TD*%
%TO.P,J4,1,Pin_1*%
%TO.N,Net-(J4-Pad1)*%
X95250000Y-80518000D03*
%TO.P,J4,2,Pin_2*%
X97790000Y-80518000D03*
%TO.P,J4,3,Pin_3*%
X100330000Y-80518000D03*
%TO.P,J4,4,Pin_4*%
X102870000Y-80518000D03*
%TD*%
%TO.P,J3,1,Pin_1*%
%TO.N,Net-(J3-Pad1)*%
X95250000Y-83058000D03*
%TO.P,J3,2,Pin_2*%
X97790000Y-83058000D03*
%TO.P,J3,3,Pin_3*%
X100330000Y-83058000D03*
%TO.P,J3,4,Pin_4*%
X102870000Y-83058000D03*
%TD*%
%TO.P,J2,1,Pin_1*%
%TO.N,Net-(J2-Pad1)*%
X95250000Y-85598000D03*
%TO.P,J2,2,Pin_2*%
X97790000Y-85598000D03*
%TO.P,J2,3,Pin_3*%
X100330000Y-85598000D03*
%TO.P,J2,4,Pin_4*%
X102870000Y-85598000D03*
%TD*%
%TO.P,J5,1,Pin_1*%
%TO.N,Net-(J5-Pad1)*%
X95250000Y-77978000D03*
%TO.P,J5,2,Pin_2*%
X97790000Y-77978000D03*
%TO.P,J5,3,Pin_3*%
X100330000Y-77978000D03*
%TO.P,J5,4,Pin_4*%
X102870000Y-77978000D03*
%TD*%
%TO.P,J6,1,Pin_1*%
%TO.N,Net-(J6-Pad1)*%
X95250000Y-75438000D03*
%TO.P,J6,2,Pin_2*%
X97790000Y-75438000D03*
%TO.P,J6,3,Pin_3*%
X100330000Y-75438000D03*
%TO.P,J6,4,Pin_4*%
X102870000Y-75438000D03*
%TD*%
%TO.P,J24,1,Pin_1*%
%TO.N,/12V*%
X97790000Y-72898000D03*
%TD*%
%TO.P,J25,1,Pin_1*%
%TO.N,GND*%
X100330000Y-72898000D03*
%TD*%
%TO.P,J27,1,Pin_1*%
%TO.N,/A1*%
X95250000Y-70358000D03*
%TD*%
%TO.P,J28,1,Pin_1*%
%TO.N,/~{RST}*%
X102870000Y-70358000D03*
%TD*%
%TO.P,J29,1,Pin_1*%
%TO.N,/5V*%
X97790000Y-70358000D03*
%TD*%
%TO.P,J32,1,Pin_1*%
%TO.N,/EN*%
X102870000Y-72898000D03*
%TD*%
%TO.P,J13,1,Pin_1*%
%TO.N,/SDA*%
X115570000Y-72898000D03*
%TD*%
%TO.P,J14,1,Pin_1*%
%TO.N,/3V3*%
X113030000Y-70358000D03*
%TD*%
%TO.P,J15,1,Pin_1*%
%TO.N,GND*%
X113030000Y-72898000D03*
%TD*%
%TO.P,J16,1,Pin_1*%
%TO.N,/SCK*%
X105410000Y-70358000D03*
%TD*%
%TO.P,J18,1,Pin_1*%
%TO.N,/MISO*%
X105410000Y-72898000D03*
%TD*%
%TO.P,J19,1,Pin_1*%
%TO.N,/MOSI*%
X107950000Y-72898000D03*
%TD*%
%TO.P,J17,1,Pin_1*%
%TO.N,/CS*%
X107950000Y-70358000D03*
%TD*%
%TO.P,J22,1,Pin_1*%
%TO.N,/RX*%
X118110000Y-70358000D03*
%TD*%
%TO.P,J31,1,Pin_1*%
%TO.N,/Status*%
X118110000Y-67818000D03*
%TD*%
%TO.P,J26,1,Pin_1*%
%TO.N,/A0*%
X95250000Y-72898000D03*
%TD*%
%TO.P,J21,1,Pin_1*%
%TO.N,/TX*%
X115570000Y-70358000D03*
%TD*%
%TO.P,J30,1,Pin_1*%
%TO.N,/BAT*%
X115570000Y-67818000D03*
%TD*%
%TO.P,J12,1,Pin_1*%
%TO.N,/SCL*%
X118110000Y-72898000D03*
%TD*%
D12*
%TO.P,J1,*%
%TO.N,*%
X100173500Y-65000000D03*
X113826500Y-65000000D03*
D13*
%TO.P,J1,1,12V*%
%TO.N,/12V*%
X101996500Y-66720000D03*
%TO.P,J1,2,12V*%
X102996500Y-66720000D03*
%TO.P,J1,3,GND*%
%TO.N,GND*%
X103996500Y-66720000D03*
%TO.P,J1,4,EN*%
%TO.N,/EN*%
X104996500Y-66720000D03*
%TO.P,J1,5,~{RST}*%
%TO.N,/~{RST}*%
X105996500Y-66720000D03*
%TO.P,J1,6,SCK*%
%TO.N,/SCK*%
X106996500Y-66720000D03*
%TO.P,J1,7,MISO*%
%TO.N,/MISO*%
X107996500Y-66720000D03*
%TO.P,J1,8,MOSI*%
%TO.N,/MOSI*%
X108996500Y-66720000D03*
%TO.P,J1,9,CS*%
%TO.N,/CS*%
X109996500Y-66720000D03*
%TO.P,J1,10,SDA*%
%TO.N,/SDA*%
X110996500Y-66720000D03*
%TO.P,J1,11,SCL*%
%TO.N,/SCL*%
X111996500Y-66720000D03*
%TO.P,J1,12,BAT*%
%TO.N,/BAT*%
X111496500Y-63280000D03*
%TO.P,J1,13,RX*%
%TO.N,/RX*%
X110496500Y-63280000D03*
%TO.P,J1,14,TX*%
%TO.N,/TX*%
X109496500Y-63280000D03*
%TO.P,J1,15,Stat*%
%TO.N,/Status*%
X108496500Y-63280000D03*
%TO.P,J1,16,A0*%
%TO.N,/A0*%
X107496500Y-63280000D03*
%TO.P,J1,17,A1*%
%TO.N,/A1*%
X106496500Y-63280000D03*
%TO.P,J1,18,NC*%
%TO.N,N/C*%
X105496500Y-63280000D03*
%TO.P,J1,19,3V3*%
%TO.N,/3V3*%
X104496500Y-63280000D03*
%TO.P,J1,20,NC*%
%TO.N,N/C*%
X103496500Y-63320000D03*
%TO.P,J1,21,5V*%
%TO.N,/5V*%
X102496500Y-63320000D03*
%TD*%
D14*
%TO.N,GND*%
X121285000Y-76200000D03*
X121285000Y-82550000D03*
X92710000Y-76200000D03*
X100965000Y-68834000D03*
X101600000Y-69342000D03*
X92710000Y-69850000D03*
X121285000Y-73025000D03*
X104013000Y-65786000D03*
X104013000Y-67564000D03*
X121285000Y-85725000D03*
X92710000Y-73025000D03*
X121285000Y-66675000D03*
X92710000Y-66675000D03*
X121285000Y-69850000D03*
X92710000Y-85725000D03*
X121285000Y-79375000D03*
X100965000Y-69977000D03*
X92710000Y-79375000D03*
X92710000Y-82550000D03*
X104013000Y-66675000D03*
%TO.N,/12V*%
X101999500Y-66720000D03*
X101981000Y-67564000D03*
X102996500Y-66720000D03*
X102997000Y-67564000D03*
%TO.N,/3V3*%
X104521000Y-64262000D03*
%TO.N,/~{RST}*%
X105918000Y-67691000D03*
%TO.N,/CS*%
X110399600Y-68834000D03*
%TO.N,/5V*%
X102489000Y-64262000D03*
%TO.N,/TX*%
X109474000Y-64262000D03*
%TO.N,/RX*%
X110490000Y-63500000D03*
%TO.N,/Status*%
X108458000Y-62484000D03*
%TO.N,/A0*%
X107442000Y-62357000D03*
%TO.N,/A1*%
X106426000Y-63246000D03*
%TO.N,/BAT*%
X111506000Y-62738000D03*
%TD*%
D15*
%TO.N,GND*%
X116696599Y-61696599D02*
X119000000Y-64000000D01*
X101092000Y-65405000D02*
X101092000Y-68707000D01*
X103996500Y-66720000D02*
X103996500Y-68342500D01*
X101473000Y-65024000D02*
X101092000Y-65405000D01*
D16*
X104140000Y-65024000D02*
X112268000Y-65024000D01*
D17*
X104013000Y-66675000D02*
X104013000Y-65151000D01*
D15*
X97303401Y-61696599D02*
X116696599Y-61696599D01*
D16*
X103886000Y-65024000D02*
X101473000Y-65024000D01*
D15*
X95000000Y-64000000D02*
X97303401Y-61696599D01*
D18*
X93472000Y-71628000D02*
X99187000Y-71628000D01*
D15*
X101092000Y-68707000D02*
X100965000Y-68834000D01*
X103996500Y-68342500D02*
X103759000Y-68580000D01*
D16*
X104013000Y-65151000D02*
X103886000Y-65024000D01*
X104013000Y-65151000D02*
X104140000Y-65024000D01*
D19*
%TO.N,/12V*%
X101999500Y-66720000D02*
X101996500Y-66720000D01*
X102996500Y-66720000D02*
X102996500Y-66720000D01*
D15*
%TO.N,/3V3*%
X104496500Y-63280000D02*
X104496500Y-64237500D01*
D20*
X104496500Y-63280000D02*
X104496500Y-63348500D01*
X104496500Y-63348500D02*
X104521000Y-63373000D01*
D15*
X104496500Y-64237500D02*
X104521000Y-64262000D01*
D17*
%TO.N,Net-(J2-Pad1)*%
X97790000Y-85598000D02*
X95250000Y-85598000D01*
X100330000Y-85598000D02*
X97790000Y-85598000D01*
X102870000Y-85598000D02*
X100330000Y-85598000D01*
%TO.N,Net-(J3-Pad1)*%
X100330000Y-83058000D02*
X102870000Y-83058000D01*
X97790000Y-83058000D02*
X100330000Y-83058000D01*
X95250000Y-83058000D02*
X97790000Y-83058000D01*
%TO.N,Net-(J4-Pad1)*%
X100330000Y-80518000D02*
X102870000Y-80518000D01*
X97790000Y-80518000D02*
X100330000Y-80518000D01*
X95250000Y-80518000D02*
X97790000Y-80518000D01*
%TO.N,Net-(J5-Pad1)*%
X100330000Y-77978000D02*
X102870000Y-77978000D01*
X97790000Y-77978000D02*
X100330000Y-77978000D01*
X95250000Y-77978000D02*
X97790000Y-77978000D01*
%TO.N,Net-(J6-Pad1)*%
X100330000Y-75438000D02*
X102870000Y-75438000D01*
X97790000Y-75438000D02*
X100330000Y-75438000D01*
X95250000Y-75438000D02*
X97790000Y-75438000D01*
%TO.N,Net-(J7-Pad1)*%
X115570000Y-85598000D02*
X118110000Y-85598000D01*
X113030000Y-85598000D02*
X115570000Y-85598000D01*
X110490000Y-85598000D02*
X113030000Y-85598000D01*
%TO.N,Net-(J8-Pad1)*%
X113030000Y-83058000D02*
X110490000Y-83058000D01*
X115570000Y-83058000D02*
X113030000Y-83058000D01*
X118110000Y-83058000D02*
X115570000Y-83058000D01*
%TO.N,Net-(J9-Pad1)*%
X115570000Y-80518000D02*
X118110000Y-80518000D01*
X113030000Y-80518000D02*
X115570000Y-80518000D01*
X110490000Y-80518000D02*
X113030000Y-80518000D01*
%TO.N,Net-(J10-Pad1)*%
X113030000Y-77978000D02*
X110490000Y-77978000D01*
X115570000Y-77978000D02*
X113030000Y-77978000D01*
X118110000Y-77978000D02*
X115570000Y-77978000D01*
%TO.N,Net-(J11-Pad1)*%
X115570000Y-75438000D02*
X118110000Y-75438000D01*
X113030000Y-75438000D02*
X115570000Y-75438000D01*
X110490000Y-75438000D02*
X113030000Y-75438000D01*
D18*
%TO.N,/~{RST}*%
X105996500Y-67612500D02*
X105918000Y-67691000D01*
X105996500Y-66720000D02*
X105996500Y-67612500D01*
%TO.N,/SCK*%
X105410000Y-69596000D02*
X105410000Y-70358000D01*
X106996500Y-68009500D02*
X105410000Y-69596000D01*
X106996500Y-66720000D02*
X106996500Y-68009500D01*
%TO.N,/MISO*%
X106680000Y-71755000D02*
X105537000Y-72898000D01*
X106680000Y-69469000D02*
X106680000Y-71755000D01*
X107996500Y-66720000D02*
X107996500Y-68152500D01*
X105537000Y-72898000D02*
X105410000Y-72898000D01*
X107996500Y-68152500D02*
X106680000Y-69469000D01*
%TO.N,/MOSI*%
X109728000Y-71120000D02*
X107950000Y-72898000D01*
X108996500Y-69118500D02*
X109728000Y-69850000D01*
X108996500Y-66720000D02*
X108996500Y-67787500D01*
X108996500Y-66720000D02*
X108996500Y-69118500D01*
X108996500Y-67787500D02*
X108966000Y-67818000D01*
X109728000Y-69850000D02*
X109728000Y-71120000D01*
%TO.N,/CS*%
X109996500Y-68311500D02*
X109996500Y-68430900D01*
X109996500Y-68430900D02*
X110399600Y-68834000D01*
X109996500Y-66720000D02*
X109996500Y-68311500D01*
%TO.N,/SDA*%
X114935000Y-72898000D02*
X115570000Y-72898000D01*
X112268000Y-71628000D02*
X110996500Y-70356500D01*
X110996500Y-70356500D02*
X110996500Y-66720000D01*
X113665000Y-71628000D02*
X114935000Y-72898000D01*
X113665000Y-71628000D02*
X112268000Y-71628000D01*
%TO.N,/SCL*%
X114681000Y-71628000D02*
X116840000Y-71628000D01*
X116840000Y-71628000D02*
X118110000Y-72898000D01*
X111996500Y-68179000D02*
X112524500Y-68707000D01*
X111996500Y-66720000D02*
X111996500Y-68179000D01*
X112524500Y-68707000D02*
X113665000Y-68707000D01*
X114300000Y-69342000D02*
X114300000Y-71247000D01*
X114300000Y-71247000D02*
X114681000Y-71628000D01*
X113665000Y-68707000D02*
X114300000Y-69342000D01*
D15*
%TO.N,/5V*%
X102496500Y-63320000D02*
X102496500Y-64254500D01*
X102496500Y-64254500D02*
X102489000Y-64262000D01*
D18*
%TO.N,/TX*%
X109496500Y-63280000D02*
X109496500Y-64239500D01*
X109496500Y-64239500D02*
X109474000Y-64262000D01*
%TO.N,/RX*%
X110496500Y-63493500D02*
X110490000Y-63500000D01*
X110496500Y-63280000D02*
X110496500Y-63493500D01*
%TO.N,/EN*%
X104140000Y-69342000D02*
X104140000Y-71755000D01*
X104996500Y-68485500D02*
X104140000Y-69342000D01*
X102997000Y-72898000D02*
X102870000Y-72898000D01*
X104140000Y-71755000D02*
X102997000Y-72898000D01*
X104996500Y-66720000D02*
X104996500Y-68485500D01*
%TO.N,/Status*%
X108496500Y-63280000D02*
X108496500Y-62522500D01*
X108496500Y-62522500D02*
X108458000Y-62484000D01*
%TO.N,/A0*%
X107496500Y-62411500D02*
X107442000Y-62357000D01*
X107496500Y-63280000D02*
X107496500Y-62411500D01*
%TO.N,/A1*%
X106496500Y-63280000D02*
X106460000Y-63280000D01*
X106460000Y-63280000D02*
X106426000Y-63246000D01*
%TO.N,/BAT*%
X111496500Y-63280000D02*
X111496500Y-62747500D01*
X111496500Y-62747500D02*
X111506000Y-62738000D01*
%TD*%
%TA.AperFunction,Conductor*%
%TO.N,GND*%
G36*
X93508556Y-61466002D02*
G01*
X93555049Y-61519658D01*
X93565153Y-61589932D01*
X93535659Y-61654512D01*
X93504858Y-61680285D01*
X93450196Y-61712805D01*
X93443945Y-61717053D01*
X93250733Y-61866115D01*
X93242267Y-61877773D01*
X93248871Y-61889661D01*
X94987188Y-63627978D01*
X95001132Y-63635592D01*
X95002965Y-63635461D01*
X95009580Y-63631210D01*
X96750162Y-61890628D01*
X96757174Y-61877787D01*
X96749379Y-61867098D01*
X96579886Y-61733481D01*
X96573663Y-61729156D01*
X96492326Y-61679605D01*
X96444557Y-61627082D01*
X96432767Y-61557071D01*
X96460699Y-61491800D01*
X96519485Y-61451992D01*
X96557879Y-61446000D01*
X99286595Y-61446000D01*
X99354716Y-61466002D01*
X99401209Y-61519658D01*
X99411313Y-61589932D01*
X99381819Y-61654512D01*
X99362163Y-61672824D01*
X99310239Y-61711739D01*
X99222885Y-61828295D01*
X99171755Y-61964684D01*
X99165000Y-62026866D01*
X99165000Y-67973134D01*
X99171755Y-68035316D01*
X99222885Y-68171705D01*
X99310239Y-68288261D01*
X99426795Y-68375615D01*
X99563184Y-68426745D01*
X99625366Y-68433500D01*
X100721634Y-68433500D01*
X100783816Y-68426745D01*
X100920205Y-68375615D01*
X101036761Y-68288261D01*
X101081674Y-68228334D01*
X101138533Y-68185819D01*
X101209352Y-68180793D01*
X101271645Y-68214853D01*
X101283326Y-68228334D01*
X101328239Y-68288261D01*
X101444795Y-68375615D01*
X101581184Y-68426745D01*
X101643366Y-68433500D01*
X102349634Y-68433500D01*
X102411816Y-68426745D01*
X102452271Y-68411579D01*
X102523076Y-68406396D01*
X102540723Y-68411577D01*
X102581184Y-68426745D01*
X102643366Y-68433500D01*
X103349634Y-68433500D01*
X103411816Y-68426745D01*
X103419217Y-68423970D01*
X103419219Y-68423970D01*
X103452981Y-68411313D01*
X103523788Y-68406129D01*
X103541443Y-68411313D01*
X103573890Y-68423477D01*
X103589149Y-68427105D01*
X103640014Y-68432631D01*
X103646828Y-68433000D01*
X103846077Y-68433000D01*
X103914198Y-68453002D01*
X103960691Y-68506658D01*
X103970795Y-68576932D01*
X103941301Y-68641512D01*
X103935172Y-68648095D01*
X103746517Y-68836750D01*
X103738191Y-68844326D01*
X103731697Y-68848447D01*
X103726274Y-68854222D01*
X103684915Y-68898265D01*
X103682160Y-68901107D01*
X103662361Y-68920906D01*
X103659937Y-68924031D01*
X103659929Y-68924040D01*
X103659863Y-68924126D01*
X103652155Y-68933151D01*
X103621783Y-68965494D01*
X103617965Y-68972438D01*
X103617964Y-68972440D01*
X103611978Y-68983329D01*
X103601127Y-68999847D01*
X103588650Y-69015933D01*
X103588649Y-69015935D01*
X103588140Y-69015540D01*
X103540486Y-69060039D01*
X103470636Y-69072747D01*
X103441861Y-69066222D01*
X103235903Y-68993288D01*
X103235899Y-68993287D01*
X103231028Y-68991562D01*
X103225935Y-68990655D01*
X103225932Y-68990654D01*
X103008095Y-68951851D01*
X103008089Y-68951850D01*
X103003006Y-68950945D01*
X102930096Y-68950054D01*
X102776581Y-68948179D01*
X102776579Y-68948179D01*
X102771411Y-68948116D01*
X102542464Y-68983150D01*
X102322314Y-69055106D01*
X102317726Y-69057494D01*
X102317722Y-69057496D01*
X102196245Y-69120733D01*
X102116872Y-69162052D01*
X102112739Y-69165155D01*
X102112736Y-69165157D01*
X101961947Y-69278373D01*
X101931655Y-69301117D01*
X101771639Y-69468564D01*
X101768730Y-69472829D01*
X101768724Y-69472837D01*
X101750192Y-69500004D01*
X101641119Y-69659899D01*
X101543602Y-69869981D01*
X101481707Y-70093169D01*
X101457095Y-70323469D01*
X101457392Y-70328622D01*
X101457392Y-70328625D01*
X101463067Y-70427041D01*
X101470427Y-70554697D01*
X101471564Y-70559743D01*
X101471565Y-70559749D01*
X101495305Y-70665088D01*
X101521346Y-70780642D01*
X101523288Y-70785424D01*
X101523289Y-70785428D01*
X101580541Y-70926422D01*
X101608484Y-70995237D01*
X101729501Y-71192719D01*
X101881147Y-71367784D01*
X102059349Y-71515730D01*
X102063819Y-71518342D01*
X102067511Y-71520500D01*
X102116232Y-71572140D01*
X102129301Y-71641924D01*
X102102566Y-71707694D01*
X102079589Y-71730045D01*
X101931655Y-71841117D01*
X101771639Y-72008564D01*
X101768730Y-72012829D01*
X101768724Y-72012837D01*
X101704002Y-72107716D01*
X101649091Y-72152719D01*
X101578566Y-72160890D01*
X101514819Y-72129636D01*
X101494122Y-72105152D01*
X101452177Y-72040315D01*
X101445885Y-72032144D01*
X101297023Y-71868547D01*
X101289490Y-71861521D01*
X101115901Y-71724429D01*
X101107323Y-71718730D01*
X100913678Y-71611833D01*
X100904272Y-71607606D01*
X100695772Y-71533772D01*
X100685809Y-71531140D01*
X100601836Y-71516182D01*
X100588541Y-71517641D01*
X100584000Y-71532199D01*
X100584000Y-73026000D01*
X100563998Y-73094121D01*
X100510342Y-73140614D01*
X100458000Y-73152000D01*
X100202000Y-73152000D01*
X100133879Y-73131998D01*
X100087386Y-73078342D01*
X100076000Y-73026000D01*
X100076000Y-71530517D01*
X100072082Y-71517173D01*
X100057806Y-71515186D01*
X100007694Y-71522855D01*
X99997666Y-71525244D01*
X99787426Y-71593961D01*
X99777916Y-71597958D01*
X99581728Y-71700087D01*
X99573003Y-71705581D01*
X99396123Y-71838386D01*
X99388416Y-71845229D01*
X99235600Y-72005143D01*
X99229113Y-72013153D01*
X99164602Y-72107723D01*
X99109691Y-72152726D01*
X99039166Y-72160897D01*
X98975419Y-72129643D01*
X98954722Y-72105159D01*
X98912575Y-72040009D01*
X98912570Y-72040003D01*
X98909764Y-72035665D01*
X98904850Y-72030264D01*
X98860134Y-71981122D01*
X98753887Y-71864358D01*
X98749836Y-71861159D01*
X98749832Y-71861155D01*
X98577077Y-71724722D01*
X98536014Y-71666805D01*
X98532782Y-71595882D01*
X98568407Y-71534470D01*
X98582001Y-71523261D01*
X98702243Y-71437494D01*
X98866303Y-71274005D01*
X99001458Y-71085917D01*
X99048641Y-70990450D01*
X99101784Y-70882922D01*
X99101785Y-70882920D01*
X99104078Y-70878280D01*
X99171408Y-70656671D01*
X99201640Y-70427041D01*
X99203327Y-70358000D01*
X99197032Y-70281434D01*
X99184773Y-70132318D01*
X99184772Y-70132312D01*
X99184349Y-70127167D01*
X99127925Y-69902533D01*
X99125866Y-69897797D01*
X99037630Y-69694868D01*
X99037628Y-69694865D01*
X99035570Y-69690131D01*
X98909764Y-69495665D01*
X98753887Y-69324358D01*
X98749836Y-69321159D01*
X98749832Y-69321155D01*
X98576177Y-69184011D01*
X98576172Y-69184008D01*
X98572123Y-69180810D01*
X98567607Y-69178317D01*
X98567604Y-69178315D01*
X98373879Y-69071373D01*
X98373875Y-69071371D01*
X98369355Y-69068876D01*
X98364486Y-69067152D01*
X98364482Y-69067150D01*
X98155903Y-68993288D01*
X98155899Y-68993287D01*
X98151028Y-68991562D01*
X98145935Y-68990655D01*
X98145932Y-68990654D01*
X97928095Y-68951851D01*
X97928089Y-68951850D01*
X97923006Y-68950945D01*
X97850096Y-68950054D01*
X97696581Y-68948179D01*
X97696579Y-68948179D01*
X97691411Y-68948116D01*
X97462464Y-68983150D01*
X97242314Y-69055106D01*
X97237726Y-69057494D01*
X97237722Y-69057496D01*
X97116245Y-69120733D01*
X97036872Y-69162052D01*
X97032739Y-69165155D01*
X97032736Y-69165157D01*
X96881947Y-69278373D01*
X96851655Y-69301117D01*
X96691639Y-69468564D01*
X96624306Y-69567271D01*
X96569397Y-69612271D01*
X96498872Y-69620442D01*
X96435125Y-69589188D01*
X96414428Y-69564705D01*
X96372571Y-69500004D01*
X96369764Y-69495665D01*
X96213887Y-69324358D01*
X96209836Y-69321159D01*
X96209832Y-69321155D01*
X96036177Y-69184011D01*
X96036172Y-69184008D01*
X96032123Y-69180810D01*
X96027607Y-69178317D01*
X96027604Y-69178315D01*
X95833879Y-69071373D01*
X95833875Y-69071371D01*
X95829355Y-69068876D01*
X95824486Y-69067152D01*
X95824482Y-69067150D01*
X95615903Y-68993288D01*
X95615899Y-68993287D01*
X95611028Y-68991562D01*
X95605935Y-68990655D01*
X95605932Y-68990654D01*
X95388095Y-68951851D01*
X95388089Y-68951850D01*
X95383006Y-68950945D01*
X95310096Y-68950054D01*
X95156581Y-68948179D01*
X95156579Y-68948179D01*
X95151411Y-68948116D01*
X94922464Y-68983150D01*
X94702314Y-69055106D01*
X94697726Y-69057494D01*
X94697722Y-69057496D01*
X94576245Y-69120733D01*
X94496872Y-69162052D01*
X94492739Y-69165155D01*
X94492736Y-69165157D01*
X94341947Y-69278373D01*
X94311655Y-69301117D01*
X94151639Y-69468564D01*
X94148730Y-69472829D01*
X94148724Y-69472837D01*
X94130192Y-69500004D01*
X94021119Y-69659899D01*
X93923602Y-69869981D01*
X93861707Y-70093169D01*
X93837095Y-70323469D01*
X93837392Y-70328622D01*
X93837392Y-70328625D01*
X93843067Y-70427041D01*
X93850427Y-70554697D01*
X93851564Y-70559743D01*
X93851565Y-70559749D01*
X93875305Y-70665088D01*
X93901346Y-70780642D01*
X93903288Y-70785424D01*
X93903289Y-70785428D01*
X93960541Y-70926422D01*
X93988484Y-70995237D01*
X94109501Y-71192719D01*
X94261147Y-71367784D01*
X94439349Y-71515730D01*
X94443819Y-71518342D01*
X94447511Y-71520500D01*
X94496232Y-71572140D01*
X94509301Y-71641924D01*
X94482566Y-71707694D01*
X94459589Y-71730045D01*
X94311655Y-71841117D01*
X94151639Y-72008564D01*
X94148730Y-72012829D01*
X94148724Y-72012837D01*
X94135554Y-72032144D01*
X94021119Y-72199899D01*
X93923602Y-72409981D01*
X93861707Y-72633169D01*
X93837095Y-72863469D01*
X93837392Y-72868622D01*
X93837392Y-72868625D01*
X93843067Y-72967041D01*
X93850427Y-73094697D01*
X93851564Y-73099743D01*
X93851565Y-73099749D01*
X93883741Y-73242523D01*
X93901346Y-73320642D01*
X93903288Y-73325424D01*
X93903289Y-73325428D01*
X93978467Y-73510568D01*
X93988484Y-73535237D01*
X94109501Y-73732719D01*
X94261147Y-73907784D01*
X94439349Y-74055730D01*
X94443816Y-74058340D01*
X94443819Y-74058342D01*
X94447511Y-74060500D01*
X94496232Y-74112140D01*
X94509301Y-74181924D01*
X94482566Y-74247694D01*
X94459589Y-74270045D01*
X94311655Y-74381117D01*
X94151639Y-74548564D01*
X94148725Y-74552836D01*
X94148724Y-74552837D01*
X94133152Y-74575665D01*
X94021119Y-74739899D01*
X93923602Y-74949981D01*
X93861707Y-75173169D01*
X93837095Y-75403469D01*
X93837392Y-75408622D01*
X93837392Y-75408625D01*
X93843067Y-75507041D01*
X93850427Y-75634697D01*
X93851564Y-75639743D01*
X93851565Y-75639749D01*
X93883741Y-75782523D01*
X93901346Y-75860642D01*
X93903288Y-75865424D01*
X93903289Y-75865428D01*
X93970743Y-76031546D01*
X93980000Y-76078950D01*
X93980000Y-77340662D01*
X93968288Y-77393712D01*
X93925776Y-77485296D01*
X93925773Y-77485303D01*
X93923602Y-77489981D01*
X93861707Y-77713169D01*
X93837095Y-77943469D01*
X93837392Y-77948622D01*
X93837392Y-77948625D01*
X93843067Y-78047041D01*
X93850427Y-78174697D01*
X93851564Y-78179743D01*
X93851565Y-78179749D01*
X93883741Y-78322523D01*
X93901346Y-78400642D01*
X93903288Y-78405424D01*
X93903289Y-78405428D01*
X93970743Y-78571546D01*
X93980000Y-78618950D01*
X93980000Y-79880662D01*
X93968288Y-79933712D01*
X93925776Y-80025296D01*
X93925773Y-80025303D01*
X93923602Y-80029981D01*
X93861707Y-80253169D01*
X93837095Y-80483469D01*
X93837392Y-80488622D01*
X93837392Y-80488625D01*
X93843067Y-80587041D01*
X93850427Y-80714697D01*
X93851564Y-80719743D01*
X93851565Y-80719749D01*
X93883741Y-80862523D01*
X93901346Y-80940642D01*
X93903288Y-80945424D01*
X93903289Y-80945428D01*
X93970743Y-81111546D01*
X93980000Y-81158950D01*
X93980000Y-82420662D01*
X93968288Y-82473712D01*
X93925776Y-82565296D01*
X93925773Y-82565303D01*
X93923602Y-82569981D01*
X93861707Y-82793169D01*
X93837095Y-83023469D01*
X93837392Y-83028622D01*
X93837392Y-83028625D01*
X93843067Y-83127041D01*
X93850427Y-83254697D01*
X93851564Y-83259743D01*
X93851565Y-83259749D01*
X93883741Y-83402523D01*
X93901346Y-83480642D01*
X93903288Y-83485424D01*
X93903289Y-83485428D01*
X93970743Y-83651546D01*
X93980000Y-83698950D01*
X93980000Y-84960662D01*
X93968288Y-85013712D01*
X93925776Y-85105296D01*
X93925773Y-85105303D01*
X93923602Y-85109981D01*
X93861707Y-85333169D01*
X93837095Y-85563469D01*
X93837392Y-85568622D01*
X93837392Y-85568625D01*
X93843067Y-85667041D01*
X93850427Y-85794697D01*
X93851564Y-85799743D01*
X93851565Y-85799749D01*
X93883741Y-85942523D01*
X93901346Y-86020642D01*
X93903288Y-86025424D01*
X93903289Y-86025428D01*
X93986540Y-86230450D01*
X93988484Y-86235237D01*
X93991183Y-86239641D01*
X93993517Y-86244262D01*
X93992120Y-86244968D01*
X94008816Y-86306707D01*
X93987355Y-86374383D01*
X93932712Y-86419712D01*
X93882845Y-86430000D01*
X92629000Y-86430000D01*
X92560879Y-86409998D01*
X92514386Y-86356342D01*
X92503000Y-86304000D01*
X92503000Y-66121982D01*
X93243142Y-66121982D01*
X93250668Y-66132415D01*
X93396463Y-66249848D01*
X93402648Y-66254244D01*
X93678363Y-66426195D01*
X93685034Y-66429817D01*
X93979414Y-66567402D01*
X93986468Y-66570195D01*
X94295257Y-66671420D01*
X94302570Y-66673339D01*
X94621298Y-66736738D01*
X94628789Y-66737764D01*
X94952823Y-66762413D01*
X94960386Y-66762531D01*
X95285021Y-66748074D01*
X95292562Y-66747282D01*
X95613115Y-66693926D01*
X95620479Y-66692240D01*
X95932315Y-66600757D01*
X95939424Y-66598198D01*
X96238003Y-66469919D01*
X96244770Y-66466515D01*
X96525764Y-66303301D01*
X96532071Y-66299111D01*
X96750005Y-66134588D01*
X96758461Y-66123197D01*
X96751743Y-66110953D01*
X95012812Y-64372022D01*
X94998868Y-64364408D01*
X94997035Y-64364539D01*
X94990420Y-64368790D01*
X93250257Y-66108953D01*
X93243142Y-66121982D01*
X92503000Y-66121982D01*
X92503000Y-65647024D01*
X92523002Y-65578903D01*
X92576658Y-65532410D01*
X92646932Y-65522306D01*
X92711512Y-65551800D01*
X92729163Y-65570582D01*
X92865792Y-65749608D01*
X92877316Y-65758069D01*
X92889382Y-65751408D01*
X94627978Y-64012812D01*
X94634356Y-64001132D01*
X95364408Y-64001132D01*
X95364539Y-64002965D01*
X95368790Y-64009580D01*
X97108825Y-65749615D01*
X97121948Y-65756781D01*
X97132250Y-65749391D01*
X97241429Y-65615285D01*
X97245842Y-65609144D01*
X97419248Y-65334312D01*
X97422895Y-65327677D01*
X97562025Y-65034011D01*
X97564850Y-65026984D01*
X97667696Y-64718715D01*
X97669650Y-64711424D01*
X97734716Y-64393033D01*
X97735784Y-64385529D01*
X97762253Y-64060100D01*
X97762458Y-64055625D01*
X97763018Y-64002221D01*
X97762908Y-63997789D01*
X97743257Y-63671835D01*
X97742349Y-63664333D01*
X97683967Y-63344663D01*
X97682154Y-63337284D01*
X97585797Y-63026966D01*
X97583116Y-63019869D01*
X97450172Y-62723363D01*
X97446655Y-62716636D01*
X97279054Y-62438252D01*
X97274757Y-62431999D01*
X97133617Y-62251022D01*
X97121823Y-62242551D01*
X97110113Y-62249097D01*
X95372022Y-63987188D01*
X95364408Y-64001132D01*
X94634356Y-64001132D01*
X94635592Y-63998868D01*
X94635461Y-63997035D01*
X94631210Y-63990420D01*
X92890864Y-62250074D01*
X92877929Y-62243011D01*
X92867367Y-62250671D01*
X92741785Y-62408268D01*
X92737427Y-62414469D01*
X92736261Y-62416360D01*
X92735816Y-62416760D01*
X92735245Y-62417573D01*
X92735059Y-62417442D01*
X92683489Y-62463855D01*
X92613418Y-62475279D01*
X92548294Y-62447006D01*
X92508793Y-62388012D01*
X92503000Y-62350246D01*
X92503000Y-61572000D01*
X92523002Y-61503879D01*
X92576658Y-61457386D01*
X92629000Y-61446000D01*
X93440435Y-61446000D01*
X93508556Y-61466002D01*
G37*
%TD.AperFunction*%
%TA.AperFunction,Conductor*%
G36*
X117508556Y-61466002D02*
G01*
X117555049Y-61519658D01*
X117565153Y-61589932D01*
X117535659Y-61654512D01*
X117504858Y-61680285D01*
X117450196Y-61712805D01*
X117443945Y-61717053D01*
X117250733Y-61866115D01*
X117242267Y-61877773D01*
X117248871Y-61889661D01*
X118987188Y-63627978D01*
X119001132Y-63635592D01*
X119002965Y-63635461D01*
X119009580Y-63631210D01*
X120750162Y-61890628D01*
X120757174Y-61877787D01*
X120749379Y-61867098D01*
X120579886Y-61733481D01*
X120573663Y-61729156D01*
X120492326Y-61679605D01*
X120444557Y-61627082D01*
X120432767Y-61557071D01*
X120460699Y-61491800D01*
X120519485Y-61451992D01*
X120557879Y-61446000D01*
X121361000Y-61446000D01*
X121429121Y-61466002D01*
X121475614Y-61519658D01*
X121487000Y-61572000D01*
X121487000Y-62337698D01*
X121466998Y-62405819D01*
X121413342Y-62452312D01*
X121343068Y-62462416D01*
X121278488Y-62432922D01*
X121261643Y-62415184D01*
X121133617Y-62251022D01*
X121121823Y-62242551D01*
X121110113Y-62249097D01*
X119372022Y-63987188D01*
X119364408Y-64001132D01*
X119364539Y-64002965D01*
X119368790Y-64009580D01*
X121108825Y-65749615D01*
X121121948Y-65756781D01*
X121132250Y-65749391D01*
X121241429Y-65615285D01*
X121245838Y-65609149D01*
X121254437Y-65595520D01*
X121307703Y-65548581D01*
X121377891Y-65537891D01*
X121442715Y-65566844D01*
X121481596Y-65626248D01*
X121487000Y-65662754D01*
X121487000Y-86304000D01*
X121466998Y-86372121D01*
X121413342Y-86418614D01*
X121361000Y-86430000D01*
X119472838Y-86430000D01*
X119404717Y-86409998D01*
X119358224Y-86356342D01*
X119348120Y-86286068D01*
X119359881Y-86248173D01*
X119366275Y-86235237D01*
X119424078Y-86118280D01*
X119491408Y-85896671D01*
X119521640Y-85667041D01*
X119523327Y-85598000D01*
X119517032Y-85521434D01*
X119504773Y-85372318D01*
X119504772Y-85372312D01*
X119504349Y-85367167D01*
X119447925Y-85142533D01*
X119435934Y-85114954D01*
X119390450Y-85010349D01*
X119380000Y-84960107D01*
X119380000Y-83696903D01*
X119393043Y-83641076D01*
X119421785Y-83582921D01*
X119421788Y-83582914D01*
X119424078Y-83578280D01*
X119491408Y-83356671D01*
X119521640Y-83127041D01*
X119523327Y-83058000D01*
X119517032Y-82981434D01*
X119504773Y-82832318D01*
X119504772Y-82832312D01*
X119504349Y-82827167D01*
X119447925Y-82602533D01*
X119435934Y-82574954D01*
X119390450Y-82470349D01*
X119380000Y-82420107D01*
X119380000Y-81156903D01*
X119393043Y-81101076D01*
X119421785Y-81042921D01*
X119421788Y-81042914D01*
X119424078Y-81038280D01*
X119491408Y-80816671D01*
X119521640Y-80587041D01*
X119523327Y-80518000D01*
X119517032Y-80441434D01*
X119504773Y-80292318D01*
X119504772Y-80292312D01*
X119504349Y-80287167D01*
X119447925Y-80062533D01*
X119435934Y-80034954D01*
X119390450Y-79930349D01*
X119380000Y-79880107D01*
X119380000Y-78616903D01*
X119393043Y-78561076D01*
X119421785Y-78502921D01*
X119421788Y-78502914D01*
X119424078Y-78498280D01*
X119491408Y-78276671D01*
X119521640Y-78047041D01*
X119523327Y-77978000D01*
X119517032Y-77901434D01*
X119504773Y-77752318D01*
X119504772Y-77752312D01*
X119504349Y-77747167D01*
X119447925Y-77522533D01*
X119435934Y-77494954D01*
X119390450Y-77390349D01*
X119380000Y-77340107D01*
X119380000Y-76076903D01*
X119393043Y-76021076D01*
X119421785Y-75962921D01*
X119421788Y-75962914D01*
X119424078Y-75958280D01*
X119491408Y-75736671D01*
X119521640Y-75507041D01*
X119523327Y-75438000D01*
X119517032Y-75361434D01*
X119504773Y-75212318D01*
X119504772Y-75212312D01*
X119504349Y-75207167D01*
X119447925Y-74982533D01*
X119445866Y-74977797D01*
X119357630Y-74774868D01*
X119357628Y-74774865D01*
X119355570Y-74770131D01*
X119229764Y-74575665D01*
X119073887Y-74404358D01*
X119069836Y-74401159D01*
X119069832Y-74401155D01*
X118897077Y-74264722D01*
X118856014Y-74206805D01*
X118852782Y-74135882D01*
X118888407Y-74074470D01*
X118902001Y-74063261D01*
X118905872Y-74060500D01*
X119022243Y-73977494D01*
X119186303Y-73814005D01*
X119321458Y-73625917D01*
X119368641Y-73530450D01*
X119421784Y-73422922D01*
X119421785Y-73422920D01*
X119424078Y-73418280D01*
X119491408Y-73196671D01*
X119521640Y-72967041D01*
X119523327Y-72898000D01*
X119517032Y-72821434D01*
X119504773Y-72672318D01*
X119504772Y-72672312D01*
X119504349Y-72667167D01*
X119447925Y-72442533D01*
X119436017Y-72415146D01*
X119357630Y-72234868D01*
X119357628Y-72234865D01*
X119355570Y-72230131D01*
X119229764Y-72035665D01*
X119224850Y-72030264D01*
X119180134Y-71981122D01*
X119073887Y-71864358D01*
X119069836Y-71861159D01*
X119069832Y-71861155D01*
X118897077Y-71724722D01*
X118856014Y-71666805D01*
X118852782Y-71595882D01*
X118888407Y-71534470D01*
X118902001Y-71523261D01*
X119022243Y-71437494D01*
X119186303Y-71274005D01*
X119321458Y-71085917D01*
X119368641Y-70990450D01*
X119421784Y-70882922D01*
X119421785Y-70882920D01*
X119424078Y-70878280D01*
X119491408Y-70656671D01*
X119521640Y-70427041D01*
X119523327Y-70358000D01*
X119517032Y-70281434D01*
X119504773Y-70132318D01*
X119504772Y-70132312D01*
X119504349Y-70127167D01*
X119447925Y-69902533D01*
X119445866Y-69897797D01*
X119357630Y-69694868D01*
X119357628Y-69694865D01*
X119355570Y-69690131D01*
X119229764Y-69495665D01*
X119073887Y-69324358D01*
X119069836Y-69321159D01*
X119069832Y-69321155D01*
X118897077Y-69184722D01*
X118856014Y-69126805D01*
X118852782Y-69055882D01*
X118888407Y-68994470D01*
X118902001Y-68983261D01*
X118905872Y-68980500D01*
X119022243Y-68897494D01*
X119186303Y-68734005D01*
X119321458Y-68545917D01*
X119396047Y-68394998D01*
X119421784Y-68342922D01*
X119421785Y-68342920D01*
X119424078Y-68338280D01*
X119491408Y-68116671D01*
X119521640Y-67887041D01*
X119523327Y-67818000D01*
X119517032Y-67741434D01*
X119504773Y-67592318D01*
X119504772Y-67592312D01*
X119504349Y-67587167D01*
X119447925Y-67362533D01*
X119445866Y-67357797D01*
X119357630Y-67154868D01*
X119357628Y-67154865D01*
X119355570Y-67150131D01*
X119229764Y-66955665D01*
X119226282Y-66951838D01*
X119223129Y-66947744D01*
X119224899Y-66946381D01*
X119197983Y-66890964D01*
X119206414Y-66820470D01*
X119251620Y-66765725D01*
X119301551Y-66745785D01*
X119613115Y-66693926D01*
X119620479Y-66692240D01*
X119932315Y-66600757D01*
X119939424Y-66598198D01*
X120238003Y-66469919D01*
X120244770Y-66466515D01*
X120525764Y-66303301D01*
X120532071Y-66299111D01*
X120750005Y-66134588D01*
X120758461Y-66123197D01*
X120751743Y-66110953D01*
X119012812Y-64372022D01*
X118998868Y-64364408D01*
X118997035Y-64364539D01*
X118990420Y-64368790D01*
X117250257Y-66108953D01*
X117243142Y-66121982D01*
X117250668Y-66132415D01*
X117396463Y-66249848D01*
X117402640Y-66254239D01*
X117516024Y-66324951D01*
X117563240Y-66377971D01*
X117574296Y-66448101D01*
X117545682Y-66513076D01*
X117507527Y-66543626D01*
X117402695Y-66598198D01*
X117356872Y-66622052D01*
X117352739Y-66625155D01*
X117352736Y-66625157D01*
X117175790Y-66758012D01*
X117171655Y-66761117D01*
X117011639Y-66928564D01*
X116944306Y-67027271D01*
X116889397Y-67072271D01*
X116818872Y-67080442D01*
X116755125Y-67049188D01*
X116734428Y-67024705D01*
X116692571Y-66960004D01*
X116689764Y-66955665D01*
X116682557Y-66947744D01*
X116566746Y-66820470D01*
X116533887Y-66784358D01*
X116529836Y-66781159D01*
X116529832Y-66781155D01*
X116356177Y-66644011D01*
X116356172Y-66644008D01*
X116352123Y-66640810D01*
X116347607Y-66638317D01*
X116347604Y-66638315D01*
X116153879Y-66531373D01*
X116153875Y-66531371D01*
X116149355Y-66528876D01*
X116144486Y-66527152D01*
X116144482Y-66527150D01*
X115935903Y-66453288D01*
X115935899Y-66453287D01*
X115931028Y-66451562D01*
X115925935Y-66450655D01*
X115925932Y-66450654D01*
X115708095Y-66411851D01*
X115708089Y-66411850D01*
X115703006Y-66410945D01*
X115630096Y-66410054D01*
X115476581Y-66408179D01*
X115476579Y-66408179D01*
X115471411Y-66408116D01*
X115242464Y-66443150D01*
X115022314Y-66515106D01*
X115017721Y-66517497D01*
X115012963Y-66519497D01*
X115012368Y-66518082D01*
X114949506Y-66530449D01*
X114883494Y-66504316D01*
X114842090Y-66446643D01*
X114835000Y-66404974D01*
X114835000Y-63974858D01*
X116237299Y-63974858D01*
X116253456Y-64299410D01*
X116254287Y-64306939D01*
X116309318Y-64627198D01*
X116311051Y-64634585D01*
X116404156Y-64945909D01*
X116406759Y-64953022D01*
X116536595Y-65250913D01*
X116540037Y-65257669D01*
X116704720Y-65537803D01*
X116708943Y-65544088D01*
X116865792Y-65749608D01*
X116877316Y-65758069D01*
X116889382Y-65751408D01*
X118627978Y-64012812D01*
X118635592Y-63998868D01*
X118635461Y-63997035D01*
X118631210Y-63990420D01*
X116890864Y-62250074D01*
X116877929Y-62243011D01*
X116867367Y-62250671D01*
X116741785Y-62408268D01*
X116737428Y-62414467D01*
X116566913Y-62691094D01*
X116563333Y-62697770D01*
X116427287Y-62992878D01*
X116424537Y-62999929D01*
X116324927Y-63309251D01*
X116323044Y-63316584D01*
X116261316Y-63635632D01*
X116260329Y-63643132D01*
X116237378Y-63967277D01*
X116237299Y-63974858D01*
X114835000Y-63974858D01*
X114835000Y-62026866D01*
X114828245Y-61964684D01*
X114777115Y-61828295D01*
X114689761Y-61711739D01*
X114637838Y-61672825D01*
X114595325Y-61615966D01*
X114590300Y-61545148D01*
X114624359Y-61482855D01*
X114686691Y-61448865D01*
X114713405Y-61446000D01*
X117440435Y-61446000D01*
X117508556Y-61466002D01*
G37*
%TD.AperFunction*%
%TA.AperFunction,Conductor*%
G36*
X110572012Y-70831198D02*
G01*
X110578595Y-70837327D01*
X111762750Y-72021483D01*
X111770326Y-72029809D01*
X111774447Y-72036303D01*
X111780222Y-72041726D01*
X111780226Y-72041731D01*
X111780866Y-72042332D01*
X111781216Y-72042927D01*
X111785279Y-72047839D01*
X111784486Y-72048495D01*
X111816827Y-72103547D01*
X111813985Y-72174486D01*
X111804162Y-72196415D01*
X111799378Y-72204836D01*
X111706252Y-72405459D01*
X111702689Y-72415146D01*
X111643581Y-72628279D01*
X111643484Y-72628788D01*
X111645625Y-72640609D01*
X111658001Y-72644000D01*
X113158000Y-72644000D01*
X113226121Y-72664002D01*
X113272614Y-72717658D01*
X113284000Y-72770000D01*
X113284000Y-73026000D01*
X113263998Y-73094121D01*
X113210342Y-73140614D01*
X113158000Y-73152000D01*
X111661968Y-73152000D01*
X111648437Y-73155973D01*
X111647000Y-73165966D01*
X111680685Y-73315439D01*
X111683773Y-73325292D01*
X111766989Y-73530226D01*
X111771629Y-73539413D01*
X111887208Y-73728022D01*
X111893286Y-73736326D01*
X112038113Y-73903519D01*
X112045474Y-73910728D01*
X112086822Y-73945055D01*
X112126458Y-74003958D01*
X112127956Y-74074939D01*
X112090842Y-74135462D01*
X112026898Y-74166311D01*
X112006338Y-74168000D01*
X111136466Y-74168000D01*
X111078759Y-74153129D01*
X111078595Y-74153494D01*
X111076473Y-74152540D01*
X111075572Y-74152308D01*
X111069355Y-74148876D01*
X110951333Y-74107082D01*
X110855903Y-74073288D01*
X110855899Y-74073287D01*
X110851028Y-74071562D01*
X110845935Y-74070655D01*
X110845932Y-74070654D01*
X110628095Y-74031851D01*
X110628089Y-74031850D01*
X110623006Y-74030945D01*
X110550096Y-74030054D01*
X110396581Y-74028179D01*
X110396579Y-74028179D01*
X110391411Y-74028116D01*
X110162464Y-74063150D01*
X109942314Y-74135106D01*
X109937726Y-74137494D01*
X109937722Y-74137496D01*
X109741461Y-74239663D01*
X109736872Y-74242052D01*
X109732739Y-74245155D01*
X109732736Y-74245157D01*
X109657596Y-74301574D01*
X109551655Y-74381117D01*
X109391639Y-74548564D01*
X109388725Y-74552836D01*
X109388724Y-74552837D01*
X109373152Y-74575665D01*
X109261119Y-74739899D01*
X109163602Y-74949981D01*
X109101707Y-75173169D01*
X109077095Y-75403469D01*
X109077392Y-75408622D01*
X109077392Y-75408625D01*
X109083067Y-75507041D01*
X109090427Y-75634697D01*
X109091564Y-75639743D01*
X109091565Y-75639749D01*
X109123741Y-75782523D01*
X109141346Y-75860642D01*
X109143288Y-75865424D01*
X109143289Y-75865428D01*
X109210743Y-76031546D01*
X109220000Y-76078950D01*
X109220000Y-77340662D01*
X109208288Y-77393712D01*
X109165776Y-77485296D01*
X109165773Y-77485303D01*
X109163602Y-77489981D01*
X109101707Y-77713169D01*
X109077095Y-77943469D01*
X109077392Y-77948622D01*
X109077392Y-77948625D01*
X109083067Y-78047041D01*
X109090427Y-78174697D01*
X109091564Y-78179743D01*
X109091565Y-78179749D01*
X109123741Y-78322523D01*
X109141346Y-78400642D01*
X109143288Y-78405424D01*
X109143289Y-78405428D01*
X109210743Y-78571546D01*
X109220000Y-78618950D01*
X109220000Y-79880662D01*
X109208288Y-79933712D01*
X109165776Y-80025296D01*
X109165773Y-80025303D01*
X109163602Y-80029981D01*
X109101707Y-80253169D01*
X109077095Y-80483469D01*
X109077392Y-80488622D01*
X109077392Y-80488625D01*
X109083067Y-80587041D01*
X109090427Y-80714697D01*
X109091564Y-80719743D01*
X109091565Y-80719749D01*
X109123741Y-80862523D01*
X109141346Y-80940642D01*
X109143288Y-80945424D01*
X109143289Y-80945428D01*
X109210743Y-81111546D01*
X109220000Y-81158950D01*
X109220000Y-82420662D01*
X109208288Y-82473712D01*
X109165776Y-82565296D01*
X109165773Y-82565303D01*
X109163602Y-82569981D01*
X109101707Y-82793169D01*
X109077095Y-83023469D01*
X109077392Y-83028622D01*
X109077392Y-83028625D01*
X109083067Y-83127041D01*
X109090427Y-83254697D01*
X109091564Y-83259743D01*
X109091565Y-83259749D01*
X109123741Y-83402523D01*
X109141346Y-83480642D01*
X109143288Y-83485424D01*
X109143289Y-83485428D01*
X109210743Y-83651546D01*
X109220000Y-83698950D01*
X109220000Y-84960662D01*
X109208288Y-85013712D01*
X109165776Y-85105296D01*
X109165773Y-85105303D01*
X109163602Y-85109981D01*
X109101707Y-85333169D01*
X109077095Y-85563469D01*
X109077392Y-85568622D01*
X109077392Y-85568625D01*
X109083067Y-85667041D01*
X109090427Y-85794697D01*
X109091564Y-85799743D01*
X109091565Y-85799749D01*
X109123741Y-85942523D01*
X109141346Y-86020642D01*
X109143288Y-86025424D01*
X109143289Y-86025428D01*
X109226540Y-86230450D01*
X109228484Y-86235237D01*
X109231183Y-86239641D01*
X109233517Y-86244262D01*
X109232120Y-86244968D01*
X109248816Y-86306707D01*
X109227355Y-86374383D01*
X109172712Y-86419712D01*
X109122845Y-86430000D01*
X104232838Y-86430000D01*
X104164717Y-86409998D01*
X104118224Y-86356342D01*
X104108120Y-86286068D01*
X104119881Y-86248173D01*
X104126275Y-86235237D01*
X104184078Y-86118280D01*
X104251408Y-85896671D01*
X104281640Y-85667041D01*
X104283327Y-85598000D01*
X104277032Y-85521434D01*
X104264773Y-85372318D01*
X104264772Y-85372312D01*
X104264349Y-85367167D01*
X104207925Y-85142533D01*
X104195934Y-85114954D01*
X104150450Y-85010349D01*
X104140000Y-84960107D01*
X104140000Y-83696903D01*
X104153043Y-83641076D01*
X104181785Y-83582921D01*
X104181788Y-83582914D01*
X104184078Y-83578280D01*
X104251408Y-83356671D01*
X104281640Y-83127041D01*
X104283327Y-83058000D01*
X104277032Y-82981434D01*
X104264773Y-82832318D01*
X104264772Y-82832312D01*
X104264349Y-82827167D01*
X104207925Y-82602533D01*
X104195934Y-82574954D01*
X104150450Y-82470349D01*
X104140000Y-82420107D01*
X104140000Y-81156903D01*
X104153043Y-81101076D01*
X104181785Y-81042921D01*
X104181788Y-81042914D01*
X104184078Y-81038280D01*
X104251408Y-80816671D01*
X104281640Y-80587041D01*
X104283327Y-80518000D01*
X104277032Y-80441434D01*
X104264773Y-80292318D01*
X104264772Y-80292312D01*
X104264349Y-80287167D01*
X104207925Y-80062533D01*
X104195934Y-80034954D01*
X104150450Y-79930349D01*
X104140000Y-79880107D01*
X104140000Y-78616903D01*
X104153043Y-78561076D01*
X104181785Y-78502921D01*
X104181788Y-78502914D01*
X104184078Y-78498280D01*
X104251408Y-78276671D01*
X104281640Y-78047041D01*
X104283327Y-77978000D01*
X104277032Y-77901434D01*
X104264773Y-77752318D01*
X104264772Y-77752312D01*
X104264349Y-77747167D01*
X104207925Y-77522533D01*
X104195934Y-77494954D01*
X104150450Y-77390349D01*
X104140000Y-77340107D01*
X104140000Y-76076903D01*
X104153043Y-76021076D01*
X104181785Y-75962921D01*
X104181788Y-75962914D01*
X104184078Y-75958280D01*
X104251408Y-75736671D01*
X104281640Y-75507041D01*
X104283327Y-75438000D01*
X104277032Y-75361434D01*
X104264773Y-75212318D01*
X104264772Y-75212312D01*
X104264349Y-75207167D01*
X104207925Y-74982533D01*
X104205866Y-74977797D01*
X104117630Y-74774868D01*
X104117628Y-74774865D01*
X104115570Y-74770131D01*
X103989764Y-74575665D01*
X103833887Y-74404358D01*
X103829836Y-74401159D01*
X103829832Y-74401155D01*
X103657077Y-74264722D01*
X103616014Y-74206805D01*
X103612782Y-74135882D01*
X103648407Y-74074470D01*
X103662001Y-74063261D01*
X103665872Y-74060500D01*
X103782243Y-73977494D01*
X103946303Y-73814005D01*
X103949319Y-73809808D01*
X103949326Y-73809800D01*
X104036960Y-73687844D01*
X104092954Y-73644196D01*
X104163658Y-73637750D01*
X104226622Y-73670553D01*
X104246715Y-73695536D01*
X104266800Y-73728313D01*
X104266804Y-73728318D01*
X104269501Y-73732719D01*
X104421147Y-73907784D01*
X104599349Y-74055730D01*
X104799322Y-74172584D01*
X105015694Y-74255209D01*
X105020760Y-74256240D01*
X105020761Y-74256240D01*
X105062452Y-74264722D01*
X105242656Y-74301385D01*
X105373324Y-74306176D01*
X105468949Y-74309683D01*
X105468953Y-74309683D01*
X105474113Y-74309872D01*
X105479233Y-74309216D01*
X105479235Y-74309216D01*
X105552270Y-74299860D01*
X105703847Y-74280442D01*
X105708795Y-74278957D01*
X105708802Y-74278956D01*
X105920747Y-74215369D01*
X105925690Y-74213886D01*
X105930324Y-74211616D01*
X106129049Y-74114262D01*
X106129052Y-74114260D01*
X106133684Y-74111991D01*
X106322243Y-73977494D01*
X106486303Y-73814005D01*
X106489319Y-73809808D01*
X106489326Y-73809800D01*
X106576960Y-73687844D01*
X106632954Y-73644196D01*
X106703658Y-73637750D01*
X106766622Y-73670553D01*
X106786715Y-73695536D01*
X106806800Y-73728313D01*
X106806804Y-73728318D01*
X106809501Y-73732719D01*
X106961147Y-73907784D01*
X107139349Y-74055730D01*
X107339322Y-74172584D01*
X107555694Y-74255209D01*
X107560760Y-74256240D01*
X107560761Y-74256240D01*
X107602452Y-74264722D01*
X107782656Y-74301385D01*
X107913324Y-74306176D01*
X108008949Y-74309683D01*
X108008953Y-74309683D01*
X108014113Y-74309872D01*
X108019233Y-74309216D01*
X108019235Y-74309216D01*
X108092270Y-74299860D01*
X108243847Y-74280442D01*
X108248795Y-74278957D01*
X108248802Y-74278956D01*
X108460747Y-74215369D01*
X108465690Y-74213886D01*
X108470324Y-74211616D01*
X108669049Y-74114262D01*
X108669052Y-74114260D01*
X108673684Y-74111991D01*
X108862243Y-73977494D01*
X109026303Y-73814005D01*
X109161458Y-73625917D01*
X109208641Y-73530450D01*
X109261784Y-73422922D01*
X109261785Y-73422920D01*
X109264078Y-73418280D01*
X109331408Y-73196671D01*
X109361640Y-72967041D01*
X109363327Y-72898000D01*
X109357032Y-72821434D01*
X109344773Y-72672318D01*
X109344772Y-72672312D01*
X109344349Y-72667167D01*
X109308594Y-72524820D01*
X109311398Y-72453879D01*
X109341703Y-72405029D01*
X109710430Y-72036303D01*
X110121488Y-71625245D01*
X110129807Y-71617675D01*
X110136303Y-71613553D01*
X110183086Y-71563734D01*
X110185840Y-71560893D01*
X110205639Y-71541094D01*
X110208063Y-71537969D01*
X110208071Y-71537960D01*
X110208137Y-71537874D01*
X110215845Y-71528849D01*
X110227740Y-71516182D01*
X110246217Y-71496506D01*
X110256023Y-71478669D01*
X110266873Y-71462153D01*
X110279350Y-71446067D01*
X110296976Y-71405334D01*
X110302193Y-71394686D01*
X110319749Y-71362751D01*
X110323569Y-71355803D01*
X110325540Y-71348128D01*
X110325542Y-71348122D01*
X110328631Y-71336089D01*
X110335034Y-71317387D01*
X110343117Y-71298708D01*
X110350060Y-71254873D01*
X110352467Y-71243251D01*
X110363500Y-71200282D01*
X110363500Y-71179935D01*
X110365051Y-71160224D01*
X110366995Y-71147950D01*
X110368235Y-71140121D01*
X110364059Y-71095944D01*
X110363500Y-71084086D01*
X110363500Y-70926422D01*
X110383502Y-70858301D01*
X110437158Y-70811808D01*
X110507432Y-70801704D01*
X110572012Y-70831198D01*
G37*
%TD.AperFunction*%
%TA.AperFunction,Conductor*%
G36*
X112748667Y-64789945D02*
G01*
X112800514Y-64838447D01*
X112818000Y-64902483D01*
X112818000Y-65014695D01*
X112797998Y-65082816D01*
X112744342Y-65129309D01*
X112674068Y-65139413D01*
X112616436Y-65115521D01*
X112548205Y-65064385D01*
X112467183Y-65034011D01*
X112463104Y-65032482D01*
X112406340Y-64989840D01*
X112381640Y-64923279D01*
X112396847Y-64853930D01*
X112447133Y-64803812D01*
X112507334Y-64788500D01*
X112571063Y-64788500D01*
X112678830Y-64777173D01*
X112748667Y-64789945D01*
G37*
%TD.AperFunction*%
%TA.AperFunction,Conductor*%
G36*
X101428937Y-64788500D02*
G01*
X101485666Y-64788500D01*
X101553787Y-64808502D01*
X101600280Y-64862158D01*
X101610384Y-64932432D01*
X101580890Y-64997012D01*
X101529896Y-65032482D01*
X101525817Y-65034011D01*
X101444795Y-65064385D01*
X101437610Y-65069770D01*
X101437608Y-65069771D01*
X101383565Y-65110274D01*
X101317058Y-65135122D01*
X101247676Y-65120069D01*
X101197446Y-65069894D01*
X101182000Y-65009448D01*
X101182000Y-64902483D01*
X101202002Y-64834362D01*
X101255658Y-64787869D01*
X101321170Y-64777173D01*
X101428937Y-64788500D01*
G37*
%TD.AperFunction*%
%TD*%
M02*
