%TF.GenerationSoftware,KiCad,Pcbnew,(6.0.0-0)*%
%TF.CreationDate,2023-03-06T17:41:45-05:00*%
%TF.ProjectId,module_dev1,6d6f6475-6c65-45f6-9465-76312e6b6963,rev?*%
%TF.SameCoordinates,Original*%
%TF.FileFunction,Copper,L1,Top*%
%TF.FilePolarity,Positive*%
%FSLAX46Y46*%
G04 Gerber Fmt 4.6, Leading zero omitted, Abs format (unit mm)*
G04 Created by KiCad (PCBNEW (6.0.0-0)) date 2023-03-06 17:41:45*
%MOMM*%
%LPD*%
G01*
G04 APERTURE LIST*
G04 Aperture macros list*
%AMRoundRect*
0 Rectangle with rounded corners*
0 $1 Rounding radius*
0 $2 $3 $4 $5 $6 $7 $8 $9 X,Y pos of 4 corners*
0 Add a 4 corners polygon primitive as box body*
4,1,4,$2,$3,$4,$5,$6,$7,$8,$9,$2,$3,0*
0 Add four circle primitives for the rounded corners*
1,1,$1+$1,$2,$3*
1,1,$1+$1,$4,$5*
1,1,$1+$1,$6,$7*
1,1,$1+$1,$8,$9*
0 Add four rect primitives between the rounded corners*
20,1,$1+$1,$2,$3,$4,$5,0*
20,1,$1+$1,$4,$5,$6,$7,0*
20,1,$1+$1,$6,$7,$8,$9,0*
20,1,$1+$1,$8,$9,$2,$3,0*%
G04 Aperture macros list end*
%TA.AperFunction,ComponentPad*%
%ADD10C,4.500000*%
%TD*%
%TA.AperFunction,ComponentPad*%
%ADD11O,1.800000X1.800000*%
%TD*%
%TA.AperFunction,SMDPad,CuDef*%
%ADD12RoundRect,0.135000X-0.185000X0.135000X-0.185000X-0.135000X0.185000X-0.135000X0.185000X0.135000X0*%
%TD*%
%TA.AperFunction,SMDPad,CuDef*%
%ADD13RoundRect,0.218750X-0.256250X0.218750X-0.256250X-0.218750X0.256250X-0.218750X0.256250X0.218750X0*%
%TD*%
%TA.AperFunction,ViaPad*%
%ADD14C,0.685800*%
%TD*%
%TA.AperFunction,Conductor*%
%ADD15C,0.254000*%
%TD*%
%TA.AperFunction,Conductor*%
%ADD16C,0.203200*%
%TD*%
%TA.AperFunction,Conductor*%
%ADD17C,0.508000*%
%TD*%
%TA.AperFunction,Conductor*%
%ADD18C,0.762000*%
%TD*%
%TA.AperFunction,Conductor*%
%ADD19C,0.381000*%
%TD*%
G04 APERTURE END LIST*
D10*
%TO.P,H1,1,1*%
%TO.N,GND*%
X95000000Y-64000000D03*
%TD*%
%TO.P,H2,1,1*%
%TO.N,GND*%
X119000000Y-64000000D03*
%TD*%
D11*
%TO.P,J11,1,Pin_1*%
%TO.N,Net-(J11-Pad1)*%
X110490000Y-75438000D03*
%TO.P,J11,2,Pin_2*%
X113030000Y-75438000D03*
%TO.P,J11,3,Pin_3*%
X115570000Y-75438000D03*
%TO.P,J11,4,Pin_4*%
X118110000Y-75438000D03*
%TD*%
%TO.P,J10,1,Pin_1*%
%TO.N,Net-(J10-Pad1)*%
X110490000Y-77978000D03*
%TO.P,J10,2,Pin_2*%
X113030000Y-77978000D03*
%TO.P,J10,3,Pin_3*%
X115570000Y-77978000D03*
%TO.P,J10,4,Pin_4*%
X118110000Y-77978000D03*
%TD*%
%TO.P,J9,1,Pin_1*%
%TO.N,Net-(J9-Pad1)*%
X110490000Y-80518000D03*
%TO.P,J9,2,Pin_2*%
X113030000Y-80518000D03*
%TO.P,J9,3,Pin_3*%
X115570000Y-80518000D03*
%TO.P,J9,4,Pin_4*%
X118110000Y-80518000D03*
%TD*%
%TO.P,J8,1,Pin_1*%
%TO.N,Net-(J8-Pad1)*%
X110490000Y-83058000D03*
%TO.P,J8,2,Pin_2*%
X113030000Y-83058000D03*
%TO.P,J8,3,Pin_3*%
X115570000Y-83058000D03*
%TO.P,J8,4,Pin_4*%
X118110000Y-83058000D03*
%TD*%
%TO.P,J7,1,Pin_1*%
%TO.N,Net-(J7-Pad1)*%
X110490000Y-85598000D03*
%TO.P,J7,2,Pin_2*%
X113030000Y-85598000D03*
%TO.P,J7,3,Pin_3*%
X115570000Y-85598000D03*
%TO.P,J7,4,Pin_4*%
X118110000Y-85598000D03*
%TD*%
%TO.P,J4,1,Pin_1*%
%TO.N,Net-(J4-Pad1)*%
X95250000Y-80518000D03*
%TO.P,J4,2,Pin_2*%
X97790000Y-80518000D03*
%TO.P,J4,3,Pin_3*%
X100330000Y-80518000D03*
%TO.P,J4,4,Pin_4*%
X102870000Y-80518000D03*
%TD*%
%TO.P,J3,1,Pin_1*%
%TO.N,Net-(J3-Pad1)*%
X95250000Y-83058000D03*
%TO.P,J3,2,Pin_2*%
X97790000Y-83058000D03*
%TO.P,J3,3,Pin_3*%
X100330000Y-83058000D03*
%TO.P,J3,4,Pin_4*%
X102870000Y-83058000D03*
%TD*%
%TO.P,J2,1,Pin_1*%
%TO.N,Net-(J2-Pad1)*%
X95250000Y-85598000D03*
%TO.P,J2,2,Pin_2*%
X97790000Y-85598000D03*
%TO.P,J2,3,Pin_3*%
X100330000Y-85598000D03*
%TO.P,J2,4,Pin_4*%
X102870000Y-85598000D03*
%TD*%
%TO.P,J5,1,Pin_1*%
%TO.N,Net-(J5-Pad1)*%
X95250000Y-77978000D03*
%TO.P,J5,2,Pin_2*%
X97790000Y-77978000D03*
%TO.P,J5,3,Pin_3*%
X100330000Y-77978000D03*
%TO.P,J5,4,Pin_4*%
X102870000Y-77978000D03*
%TD*%
%TO.P,J6,1,Pin_1*%
%TO.N,Net-(J6-Pad1)*%
X95250000Y-75438000D03*
%TO.P,J6,2,Pin_2*%
X97790000Y-75438000D03*
%TO.P,J6,3,Pin_3*%
X100330000Y-75438000D03*
%TO.P,J6,4,Pin_4*%
X102870000Y-75438000D03*
%TD*%
%TO.P,J24,1,Pin_1*%
%TO.N,/12V*%
X97790000Y-72898000D03*
%TD*%
%TO.P,J25,1,Pin_1*%
%TO.N,GND*%
X100330000Y-72898000D03*
%TD*%
%TO.P,J27,1,Pin_1*%
%TO.N,/A1*%
X95250000Y-70358000D03*
%TD*%
%TO.P,J28,1,Pin_1*%
%TO.N,/~{RST}*%
X102870000Y-70358000D03*
%TD*%
%TO.P,J29,1,Pin_1*%
%TO.N,/5V*%
X97790000Y-70358000D03*
%TD*%
%TO.P,J32,1,Pin_1*%
%TO.N,/EN*%
X102870000Y-72898000D03*
%TD*%
%TO.P,J13,1,Pin_1*%
%TO.N,/SDA*%
X115570000Y-72898000D03*
%TD*%
%TO.P,J14,1,Pin_1*%
%TO.N,/3V3*%
X113030000Y-70358000D03*
%TD*%
%TO.P,J15,1,Pin_1*%
%TO.N,GND*%
X113030000Y-72898000D03*
%TD*%
%TO.P,J16,1,Pin_1*%
%TO.N,/SCK*%
X105410000Y-70358000D03*
%TD*%
%TO.P,J18,1,Pin_1*%
%TO.N,/MISO*%
X105410000Y-72898000D03*
%TD*%
%TO.P,J19,1,Pin_1*%
%TO.N,/MOSI*%
X107950000Y-72898000D03*
%TD*%
%TO.P,J17,1,Pin_1*%
%TO.N,/CS*%
X107950000Y-70358000D03*
%TD*%
%TO.P,J22,1,Pin_1*%
%TO.N,/RX*%
X118110000Y-70358000D03*
%TD*%
%TO.P,J31,1,Pin_1*%
%TO.N,/Status*%
X118110000Y-67818000D03*
%TD*%
%TO.P,J26,1,Pin_1*%
%TO.N,/A0*%
X95250000Y-72898000D03*
%TD*%
%TO.P,J21,1,Pin_1*%
%TO.N,/TX*%
X115570000Y-70358000D03*
%TD*%
%TO.P,J30,1,Pin_1*%
%TO.N,/BAT*%
X115570000Y-67818000D03*
%TD*%
%TO.P,J12,1,Pin_1*%
%TO.N,/SCL*%
X118110000Y-72898000D03*
%TD*%
D12*
%TO.P,R1,1*%
%TO.N,/3V3*%
X106299000Y-65403000D03*
%TO.P,R1,2*%
%TO.N,Net-(R1-Pad2)*%
X106299000Y-66423000D03*
%TD*%
D13*
%TO.P,D1,1,K*%
%TO.N,GND*%
X107696000Y-64490500D03*
%TO.P,D1,2,A*%
%TO.N,Net-(R1-Pad2)*%
X107696000Y-66065500D03*
%TD*%
D14*
%TO.N,GND*%
X121285000Y-76200000D03*
X121285000Y-82550000D03*
X92710000Y-76200000D03*
X100965000Y-68834000D03*
X101600000Y-69342000D03*
X92710000Y-69850000D03*
X121285000Y-73025000D03*
X104013000Y-65786000D03*
X104013000Y-67564000D03*
X121285000Y-85725000D03*
X92710000Y-73025000D03*
X121285000Y-66675000D03*
X92710000Y-66675000D03*
X121285000Y-69850000D03*
X92710000Y-85725000D03*
X121285000Y-79375000D03*
X100965000Y-69977000D03*
X92710000Y-79375000D03*
X92710000Y-82550000D03*
X104013000Y-66675000D03*
%TO.N,/12V*%
X101999500Y-66720000D03*
X101981000Y-67564000D03*
X102996500Y-66720000D03*
X102997000Y-67564000D03*
%TO.N,/3V3*%
X104521000Y-64262000D03*
%TO.N,/~{RST}*%
X105918000Y-67691000D03*
%TO.N,/CS*%
X110399600Y-68834000D03*
%TO.N,/5V*%
X102489000Y-64262000D03*
%TO.N,/TX*%
X109474000Y-64262000D03*
%TO.N,/RX*%
X110490000Y-63500000D03*
%TO.N,/Status*%
X108458000Y-62484000D03*
%TO.N,/A0*%
X107442000Y-62357000D03*
%TO.N,/A1*%
X106426000Y-63246000D03*
%TO.N,/BAT*%
X111506000Y-62738000D03*
%TD*%
D15*
%TO.N,GND*%
X106680000Y-71882000D02*
X106426000Y-71628000D01*
X110998000Y-71628000D02*
X120269000Y-71628000D01*
X105029000Y-63373000D02*
X103759000Y-63373000D01*
X106426000Y-71628000D02*
X105918000Y-71628000D01*
X107696000Y-64490500D02*
X106146500Y-64490500D01*
X110744000Y-71628000D02*
X110998000Y-71628000D01*
X101600000Y-71628000D02*
X101346000Y-71374000D01*
X105918000Y-64262000D02*
X105029000Y-63373000D01*
X105918000Y-71628000D02*
X110998000Y-71628000D01*
X106146500Y-64490500D02*
X105918000Y-64262000D01*
X103759000Y-63373000D02*
X103505000Y-63627000D01*
X105918000Y-71628000D02*
X101600000Y-71628000D01*
D16*
X117500000Y-62500000D02*
X119000000Y-64000000D01*
D15*
X106680000Y-74549000D02*
X106680000Y-71882000D01*
D17*
%TO.N,/12V*%
X101999500Y-67545500D02*
X101981000Y-67564000D01*
X101999500Y-66720000D02*
X101999500Y-67545500D01*
X102843500Y-67564000D02*
X101999500Y-66720000D01*
X102997000Y-66720500D02*
X102996500Y-66720000D01*
D18*
X102489000Y-67056000D02*
X100711000Y-67056000D01*
X97790000Y-72898000D02*
X99949000Y-70739000D01*
D17*
X102997000Y-67564000D02*
X101981000Y-67564000D01*
X102489000Y-67056000D02*
X101981000Y-67564000D01*
X102996500Y-66720000D02*
X101999500Y-66720000D01*
D18*
X99949000Y-67818000D02*
X99949000Y-70739000D01*
X100711000Y-67056000D02*
X99949000Y-67818000D01*
D17*
X102997000Y-67564000D02*
X102997000Y-66720500D01*
X102825000Y-66720000D02*
X102489000Y-67056000D01*
X102996500Y-66720000D02*
X102825000Y-66720000D01*
X102997000Y-67564000D02*
X102843500Y-67564000D01*
D19*
%TO.N,/3V3*%
X105664000Y-65405000D02*
X108077000Y-65405000D01*
X108077000Y-65405000D02*
X110617000Y-67945000D01*
X104521000Y-64262000D02*
X105664000Y-65405000D01*
X110617000Y-67945000D02*
X113030000Y-70358000D01*
D15*
%TO.N,/~{RST}*%
X102870000Y-70358000D02*
X104775000Y-68453000D01*
X104775000Y-68453000D02*
X105156000Y-68453000D01*
X105156000Y-68453000D02*
X105918000Y-67691000D01*
%TO.N,/CS*%
X108875600Y-70358000D02*
X107950000Y-70358000D01*
X110399600Y-68834000D02*
X108875600Y-70358000D01*
D19*
%TO.N,/5V*%
X102489000Y-64770000D02*
X101854000Y-65405000D01*
X102489000Y-64262000D02*
X102489000Y-64770000D01*
X97790000Y-68580000D02*
X100965000Y-65405000D01*
X97790000Y-70358000D02*
X97790000Y-68580000D01*
X101854000Y-65405000D02*
X100965000Y-65405000D01*
D15*
%TO.N,/TX*%
X115570000Y-70358000D02*
X115062000Y-70358000D01*
X110871000Y-65659000D02*
X109474000Y-64262000D01*
X110871000Y-66167000D02*
X110871000Y-65659000D01*
X115062000Y-70358000D02*
X110871000Y-66167000D01*
%TO.N,/RX*%
X114900080Y-69088000D02*
X112395000Y-66582920D01*
X117094000Y-69088000D02*
X118110000Y-70104000D01*
X116955999Y-69088000D02*
X116967000Y-69088000D01*
X112395000Y-66582920D02*
X112395000Y-65405000D01*
X112395000Y-65405000D02*
X110490000Y-63500000D01*
X118110000Y-70104000D02*
X118110000Y-70358000D01*
X116955999Y-69088000D02*
X114900080Y-69088000D01*
X116955999Y-69088000D02*
X117094000Y-69088000D01*
%TO.N,/Status*%
X109220000Y-61722000D02*
X112776000Y-61722000D01*
X108458000Y-62484000D02*
X109220000Y-61722000D01*
X112776000Y-61722000D02*
X116332000Y-65278000D01*
X116332000Y-65278000D02*
X116332000Y-66040000D01*
X116332000Y-66040000D02*
X118110000Y-67818000D01*
%TO.N,/A0*%
X107442000Y-62357000D02*
X107061000Y-61976000D01*
X93472000Y-71120000D02*
X95250000Y-72898000D01*
X107061000Y-61976000D02*
X100584000Y-61976000D01*
X94361000Y-68453000D02*
X93472000Y-69342000D01*
X100584000Y-61976000D02*
X98552000Y-64008000D01*
X98552000Y-64897000D02*
X94996000Y-68453000D01*
X94996000Y-68453000D02*
X94361000Y-68453000D01*
X93472000Y-69342000D02*
X93472000Y-71120000D01*
X98552000Y-64008000D02*
X98552000Y-64897000D01*
%TO.N,/A1*%
X99695000Y-64135000D02*
X99695000Y-65278000D01*
X106426000Y-63246000D02*
X105918000Y-62738000D01*
X101092000Y-62738000D02*
X99695000Y-64135000D01*
X99695000Y-65278000D02*
X95250000Y-69723000D01*
X95250000Y-69723000D02*
X95250000Y-70358000D01*
X105918000Y-62738000D02*
X101092000Y-62738000D01*
%TO.N,/BAT*%
X111760000Y-62484000D02*
X112776000Y-62484000D01*
X115570000Y-65278000D02*
X112776000Y-62484000D01*
X111506000Y-62738000D02*
X111760000Y-62484000D01*
X115570000Y-67818000D02*
X115570000Y-65278000D01*
%TO.N,Net-(R1-Pad2)*%
X106299000Y-66423000D02*
X107338500Y-66423000D01*
X107338500Y-66423000D02*
X107696000Y-66065500D01*
%TD*%
%TA.AperFunction,Conductor*%
%TO.N,GND*%
G36*
X117508556Y-61466002D02*
G01*
X117555049Y-61519658D01*
X117565153Y-61589932D01*
X117535659Y-61654512D01*
X117504858Y-61680285D01*
X117450196Y-61712805D01*
X117443945Y-61717053D01*
X117250733Y-61866115D01*
X117242267Y-61877773D01*
X117248871Y-61889661D01*
X118987188Y-63627978D01*
X119001132Y-63635592D01*
X119002965Y-63635461D01*
X119009580Y-63631210D01*
X120750162Y-61890628D01*
X120757174Y-61877787D01*
X120749379Y-61867098D01*
X120579886Y-61733481D01*
X120573663Y-61729156D01*
X120492326Y-61679605D01*
X120444557Y-61627082D01*
X120432767Y-61557071D01*
X120460699Y-61491800D01*
X120519485Y-61451992D01*
X120557879Y-61446000D01*
X121361000Y-61446000D01*
X121429121Y-61466002D01*
X121475614Y-61519658D01*
X121487000Y-61572000D01*
X121487000Y-62337698D01*
X121466998Y-62405819D01*
X121413342Y-62452312D01*
X121343068Y-62462416D01*
X121278488Y-62432922D01*
X121261643Y-62415184D01*
X121133617Y-62251022D01*
X121121823Y-62242551D01*
X121110113Y-62249097D01*
X119372022Y-63987188D01*
X119364408Y-64001132D01*
X119364539Y-64002965D01*
X119368790Y-64009580D01*
X121108825Y-65749615D01*
X121121948Y-65756781D01*
X121132250Y-65749391D01*
X121241429Y-65615285D01*
X121245838Y-65609149D01*
X121254437Y-65595520D01*
X121307703Y-65548581D01*
X121377891Y-65537891D01*
X121442715Y-65566844D01*
X121481596Y-65626248D01*
X121487000Y-65662754D01*
X121487000Y-86304000D01*
X121466998Y-86372121D01*
X121413342Y-86418614D01*
X121361000Y-86430000D01*
X119472838Y-86430000D01*
X119404717Y-86409998D01*
X119358224Y-86356342D01*
X119348120Y-86286068D01*
X119359881Y-86248173D01*
X119366275Y-86235237D01*
X119424078Y-86118280D01*
X119491408Y-85896671D01*
X119521640Y-85667041D01*
X119523327Y-85598000D01*
X119517032Y-85521434D01*
X119504773Y-85372318D01*
X119504772Y-85372312D01*
X119504349Y-85367167D01*
X119447925Y-85142533D01*
X119445866Y-85137797D01*
X119357630Y-84934868D01*
X119357628Y-84934865D01*
X119355570Y-84930131D01*
X119229764Y-84735665D01*
X119073887Y-84564358D01*
X119069836Y-84561159D01*
X119069832Y-84561155D01*
X118897077Y-84424722D01*
X118856014Y-84366805D01*
X118852782Y-84295882D01*
X118888407Y-84234470D01*
X118902001Y-84223261D01*
X118905872Y-84220500D01*
X119022243Y-84137494D01*
X119186303Y-83974005D01*
X119321458Y-83785917D01*
X119368641Y-83690450D01*
X119421784Y-83582922D01*
X119421785Y-83582920D01*
X119424078Y-83578280D01*
X119491408Y-83356671D01*
X119521640Y-83127041D01*
X119523327Y-83058000D01*
X119517032Y-82981434D01*
X119504773Y-82832318D01*
X119504772Y-82832312D01*
X119504349Y-82827167D01*
X119447925Y-82602533D01*
X119445866Y-82597797D01*
X119357630Y-82394868D01*
X119357628Y-82394865D01*
X119355570Y-82390131D01*
X119229764Y-82195665D01*
X119073887Y-82024358D01*
X119069836Y-82021159D01*
X119069832Y-82021155D01*
X118897077Y-81884722D01*
X118856014Y-81826805D01*
X118852782Y-81755882D01*
X118888407Y-81694470D01*
X118902001Y-81683261D01*
X118905872Y-81680500D01*
X119022243Y-81597494D01*
X119186303Y-81434005D01*
X119321458Y-81245917D01*
X119368641Y-81150450D01*
X119421784Y-81042922D01*
X119421785Y-81042920D01*
X119424078Y-81038280D01*
X119491408Y-80816671D01*
X119521640Y-80587041D01*
X119523327Y-80518000D01*
X119517032Y-80441434D01*
X119504773Y-80292318D01*
X119504772Y-80292312D01*
X119504349Y-80287167D01*
X119447925Y-80062533D01*
X119445866Y-80057797D01*
X119357630Y-79854868D01*
X119357628Y-79854865D01*
X119355570Y-79850131D01*
X119229764Y-79655665D01*
X119073887Y-79484358D01*
X119069836Y-79481159D01*
X119069832Y-79481155D01*
X118897077Y-79344722D01*
X118856014Y-79286805D01*
X118852782Y-79215882D01*
X118888407Y-79154470D01*
X118902001Y-79143261D01*
X118905872Y-79140500D01*
X119022243Y-79057494D01*
X119186303Y-78894005D01*
X119321458Y-78705917D01*
X119368641Y-78610450D01*
X119421784Y-78502922D01*
X119421785Y-78502920D01*
X119424078Y-78498280D01*
X119491408Y-78276671D01*
X119521640Y-78047041D01*
X119523327Y-77978000D01*
X119517032Y-77901434D01*
X119504773Y-77752318D01*
X119504772Y-77752312D01*
X119504349Y-77747167D01*
X119447925Y-77522533D01*
X119445866Y-77517797D01*
X119357630Y-77314868D01*
X119357628Y-77314865D01*
X119355570Y-77310131D01*
X119229764Y-77115665D01*
X119073887Y-76944358D01*
X119069836Y-76941159D01*
X119069832Y-76941155D01*
X118897077Y-76804722D01*
X118856014Y-76746805D01*
X118852782Y-76675882D01*
X118888407Y-76614470D01*
X118902001Y-76603261D01*
X118905872Y-76600500D01*
X119022243Y-76517494D01*
X119186303Y-76354005D01*
X119321458Y-76165917D01*
X119368641Y-76070450D01*
X119421784Y-75962922D01*
X119421785Y-75962920D01*
X119424078Y-75958280D01*
X119491408Y-75736671D01*
X119521640Y-75507041D01*
X119523327Y-75438000D01*
X119517032Y-75361434D01*
X119504773Y-75212318D01*
X119504772Y-75212312D01*
X119504349Y-75207167D01*
X119447925Y-74982533D01*
X119445866Y-74977797D01*
X119357630Y-74774868D01*
X119357628Y-74774865D01*
X119355570Y-74770131D01*
X119229764Y-74575665D01*
X119073887Y-74404358D01*
X119069836Y-74401159D01*
X119069832Y-74401155D01*
X118897077Y-74264722D01*
X118856014Y-74206805D01*
X118852782Y-74135882D01*
X118888407Y-74074470D01*
X118902001Y-74063261D01*
X118902157Y-74063150D01*
X119022243Y-73977494D01*
X119186303Y-73814005D01*
X119321458Y-73625917D01*
X119368641Y-73530450D01*
X119421784Y-73422922D01*
X119421785Y-73422920D01*
X119424078Y-73418280D01*
X119491408Y-73196671D01*
X119521640Y-72967041D01*
X119523327Y-72898000D01*
X119517032Y-72821434D01*
X119504773Y-72672318D01*
X119504772Y-72672312D01*
X119504349Y-72667167D01*
X119469403Y-72528039D01*
X119449184Y-72447544D01*
X119449183Y-72447540D01*
X119447925Y-72442533D01*
X119431805Y-72405459D01*
X119357630Y-72234868D01*
X119357628Y-72234865D01*
X119355570Y-72230131D01*
X119229764Y-72035665D01*
X119073887Y-71864358D01*
X119069836Y-71861159D01*
X119069832Y-71861155D01*
X118897077Y-71724722D01*
X118856014Y-71666805D01*
X118852782Y-71595882D01*
X118888407Y-71534470D01*
X118902001Y-71523261D01*
X119022243Y-71437494D01*
X119186303Y-71274005D01*
X119204076Y-71249272D01*
X119261099Y-71169915D01*
X119321458Y-71085917D01*
X119337654Y-71053148D01*
X119421784Y-70882922D01*
X119421785Y-70882920D01*
X119424078Y-70878280D01*
X119491408Y-70656671D01*
X119521640Y-70427041D01*
X119523327Y-70358000D01*
X119517032Y-70281434D01*
X119504773Y-70132318D01*
X119504772Y-70132312D01*
X119504349Y-70127167D01*
X119447925Y-69902533D01*
X119445866Y-69897797D01*
X119357630Y-69694868D01*
X119357628Y-69694865D01*
X119355570Y-69690131D01*
X119229764Y-69495665D01*
X119204949Y-69468393D01*
X119119818Y-69374836D01*
X119073887Y-69324358D01*
X119069836Y-69321159D01*
X119069832Y-69321155D01*
X118897077Y-69184722D01*
X118856014Y-69126805D01*
X118852782Y-69055882D01*
X118888407Y-68994470D01*
X118902001Y-68983261D01*
X118918149Y-68971743D01*
X119022243Y-68897494D01*
X119186303Y-68734005D01*
X119321458Y-68545917D01*
X119323875Y-68541028D01*
X119421784Y-68342922D01*
X119421785Y-68342920D01*
X119424078Y-68338280D01*
X119491408Y-68116671D01*
X119521640Y-67887041D01*
X119522081Y-67868991D01*
X119523245Y-67821365D01*
X119523245Y-67821361D01*
X119523327Y-67818000D01*
X119516538Y-67735427D01*
X119504773Y-67592318D01*
X119504772Y-67592312D01*
X119504349Y-67587167D01*
X119452245Y-67379730D01*
X119449184Y-67367544D01*
X119449183Y-67367540D01*
X119447925Y-67362533D01*
X119445734Y-67357494D01*
X119357630Y-67154868D01*
X119357628Y-67154865D01*
X119355570Y-67150131D01*
X119229764Y-66955665D01*
X119226282Y-66951838D01*
X119223129Y-66947744D01*
X119224899Y-66946381D01*
X119197983Y-66890964D01*
X119206414Y-66820470D01*
X119251620Y-66765725D01*
X119301551Y-66745785D01*
X119613115Y-66693926D01*
X119620479Y-66692240D01*
X119932315Y-66600757D01*
X119939424Y-66598198D01*
X120238003Y-66469919D01*
X120244770Y-66466515D01*
X120525764Y-66303301D01*
X120532071Y-66299111D01*
X120750005Y-66134588D01*
X120758461Y-66123197D01*
X120751743Y-66110953D01*
X116890864Y-62250074D01*
X116877929Y-62243011D01*
X116867367Y-62250671D01*
X116741785Y-62408268D01*
X116737428Y-62414467D01*
X116566913Y-62691094D01*
X116563333Y-62697770D01*
X116427287Y-62992878D01*
X116424537Y-62999929D01*
X116324927Y-63309251D01*
X116323044Y-63316584D01*
X116261316Y-63635632D01*
X116260329Y-63643132D01*
X116237378Y-63967277D01*
X116237259Y-63978652D01*
X116236208Y-63978641D01*
X116220682Y-64043261D01*
X116169407Y-64092367D01*
X116099723Y-64105957D01*
X116033754Y-64079715D01*
X116022329Y-64069596D01*
X113613828Y-61661095D01*
X113579802Y-61598783D01*
X113584867Y-61527968D01*
X113627414Y-61471132D01*
X113693934Y-61446321D01*
X113702923Y-61446000D01*
X117440435Y-61446000D01*
X117508556Y-61466002D01*
G37*
%TD.AperFunction*%
%TA.AperFunction,Conductor*%
G36*
X111112910Y-69441897D02*
G01*
X111151858Y-69468393D01*
X111619042Y-69935577D01*
X111653068Y-69997889D01*
X111651365Y-70058342D01*
X111641707Y-70093169D01*
X111617095Y-70323469D01*
X111617392Y-70328622D01*
X111617392Y-70328625D01*
X111623067Y-70427041D01*
X111630427Y-70554697D01*
X111631564Y-70559743D01*
X111631565Y-70559749D01*
X111656185Y-70668993D01*
X111681346Y-70780642D01*
X111683288Y-70785424D01*
X111683289Y-70785428D01*
X111739946Y-70924956D01*
X111768484Y-70995237D01*
X111889501Y-71192719D01*
X112041147Y-71367784D01*
X112219349Y-71515730D01*
X112223816Y-71518340D01*
X112227974Y-71520770D01*
X112276698Y-71572408D01*
X112289769Y-71642191D01*
X112263038Y-71707963D01*
X112240057Y-71730318D01*
X112096123Y-71838386D01*
X112088416Y-71845229D01*
X111935600Y-72005143D01*
X111929113Y-72013153D01*
X111804474Y-72195867D01*
X111799376Y-72204841D01*
X111706252Y-72405459D01*
X111702689Y-72415146D01*
X111643581Y-72628279D01*
X111643484Y-72628788D01*
X111645625Y-72640609D01*
X111658001Y-72644000D01*
X113158000Y-72644000D01*
X113226121Y-72664002D01*
X113272614Y-72717658D01*
X113284000Y-72770000D01*
X113284000Y-73026000D01*
X113263998Y-73094121D01*
X113210342Y-73140614D01*
X113158000Y-73152000D01*
X111661968Y-73152000D01*
X111648437Y-73155973D01*
X111647000Y-73165966D01*
X111680685Y-73315439D01*
X111683773Y-73325292D01*
X111766989Y-73530226D01*
X111771629Y-73539413D01*
X111887208Y-73728022D01*
X111893286Y-73736326D01*
X112038113Y-73903519D01*
X112045475Y-73910728D01*
X112215660Y-74052018D01*
X112224099Y-74057927D01*
X112227936Y-74060169D01*
X112276662Y-74111805D01*
X112289736Y-74181587D01*
X112263007Y-74247360D01*
X112240023Y-74269719D01*
X112227721Y-74278956D01*
X112091655Y-74381117D01*
X111931639Y-74548564D01*
X111864306Y-74647271D01*
X111809397Y-74692271D01*
X111738872Y-74700442D01*
X111675125Y-74669188D01*
X111654428Y-74644705D01*
X111612571Y-74580004D01*
X111609764Y-74575665D01*
X111453887Y-74404358D01*
X111449836Y-74401159D01*
X111449832Y-74401155D01*
X111276177Y-74264011D01*
X111276172Y-74264008D01*
X111272123Y-74260810D01*
X111267607Y-74258317D01*
X111267604Y-74258315D01*
X111073879Y-74151373D01*
X111073875Y-74151371D01*
X111069355Y-74148876D01*
X111064486Y-74147152D01*
X111064482Y-74147150D01*
X110855903Y-74073288D01*
X110855899Y-74073287D01*
X110851028Y-74071562D01*
X110845935Y-74070655D01*
X110845932Y-74070654D01*
X110628095Y-74031851D01*
X110628089Y-74031850D01*
X110623006Y-74030945D01*
X110550096Y-74030054D01*
X110396581Y-74028179D01*
X110396579Y-74028179D01*
X110391411Y-74028116D01*
X110162464Y-74063150D01*
X109942314Y-74135106D01*
X109937726Y-74137494D01*
X109937722Y-74137496D01*
X109741461Y-74239663D01*
X109736872Y-74242052D01*
X109732739Y-74245155D01*
X109732736Y-74245157D01*
X109657596Y-74301574D01*
X109551655Y-74381117D01*
X109391639Y-74548564D01*
X109388730Y-74552829D01*
X109388724Y-74552837D01*
X109373152Y-74575665D01*
X109261119Y-74739899D01*
X109163602Y-74949981D01*
X109101707Y-75173169D01*
X109077095Y-75403469D01*
X109077392Y-75408622D01*
X109077392Y-75408625D01*
X109083067Y-75507041D01*
X109090427Y-75634697D01*
X109091564Y-75639743D01*
X109091565Y-75639749D01*
X109123741Y-75782523D01*
X109141346Y-75860642D01*
X109143288Y-75865424D01*
X109143289Y-75865428D01*
X109218467Y-76050568D01*
X109228484Y-76075237D01*
X109349501Y-76272719D01*
X109501147Y-76447784D01*
X109679349Y-76595730D01*
X109683819Y-76598342D01*
X109687511Y-76600500D01*
X109736232Y-76652140D01*
X109749301Y-76721924D01*
X109722566Y-76787694D01*
X109699589Y-76810045D01*
X109551655Y-76921117D01*
X109391639Y-77088564D01*
X109388730Y-77092829D01*
X109388724Y-77092837D01*
X109373152Y-77115665D01*
X109261119Y-77279899D01*
X109163602Y-77489981D01*
X109101707Y-77713169D01*
X109077095Y-77943469D01*
X109077392Y-77948622D01*
X109077392Y-77948625D01*
X109083067Y-78047041D01*
X109090427Y-78174697D01*
X109091564Y-78179743D01*
X109091565Y-78179749D01*
X109123741Y-78322523D01*
X109141346Y-78400642D01*
X109143288Y-78405424D01*
X109143289Y-78405428D01*
X109218467Y-78590568D01*
X109228484Y-78615237D01*
X109349501Y-78812719D01*
X109501147Y-78987784D01*
X109679349Y-79135730D01*
X109683819Y-79138342D01*
X109687511Y-79140500D01*
X109736232Y-79192140D01*
X109749301Y-79261924D01*
X109722566Y-79327694D01*
X109699589Y-79350045D01*
X109551655Y-79461117D01*
X109391639Y-79628564D01*
X109388730Y-79632829D01*
X109388724Y-79632837D01*
X109373152Y-79655665D01*
X109261119Y-79819899D01*
X109163602Y-80029981D01*
X109101707Y-80253169D01*
X109077095Y-80483469D01*
X109077392Y-80488622D01*
X109077392Y-80488625D01*
X109083067Y-80587041D01*
X109090427Y-80714697D01*
X109091564Y-80719743D01*
X109091565Y-80719749D01*
X109123741Y-80862523D01*
X109141346Y-80940642D01*
X109143288Y-80945424D01*
X109143289Y-80945428D01*
X109218467Y-81130568D01*
X109228484Y-81155237D01*
X109349501Y-81352719D01*
X109501147Y-81527784D01*
X109679349Y-81675730D01*
X109683819Y-81678342D01*
X109687511Y-81680500D01*
X109736232Y-81732140D01*
X109749301Y-81801924D01*
X109722566Y-81867694D01*
X109699589Y-81890045D01*
X109551655Y-82001117D01*
X109391639Y-82168564D01*
X109388730Y-82172829D01*
X109388724Y-82172837D01*
X109373152Y-82195665D01*
X109261119Y-82359899D01*
X109163602Y-82569981D01*
X109101707Y-82793169D01*
X109077095Y-83023469D01*
X109077392Y-83028622D01*
X109077392Y-83028625D01*
X109083067Y-83127041D01*
X109090427Y-83254697D01*
X109091564Y-83259743D01*
X109091565Y-83259749D01*
X109123741Y-83402523D01*
X109141346Y-83480642D01*
X109143288Y-83485424D01*
X109143289Y-83485428D01*
X109218467Y-83670568D01*
X109228484Y-83695237D01*
X109349501Y-83892719D01*
X109501147Y-84067784D01*
X109679349Y-84215730D01*
X109683819Y-84218342D01*
X109687511Y-84220500D01*
X109736232Y-84272140D01*
X109749301Y-84341924D01*
X109722566Y-84407694D01*
X109699589Y-84430045D01*
X109551655Y-84541117D01*
X109391639Y-84708564D01*
X109388730Y-84712829D01*
X109388724Y-84712837D01*
X109373152Y-84735665D01*
X109261119Y-84899899D01*
X109163602Y-85109981D01*
X109101707Y-85333169D01*
X109077095Y-85563469D01*
X109077392Y-85568622D01*
X109077392Y-85568625D01*
X109083067Y-85667041D01*
X109090427Y-85794697D01*
X109091564Y-85799743D01*
X109091565Y-85799749D01*
X109123741Y-85942523D01*
X109141346Y-86020642D01*
X109143288Y-86025424D01*
X109143289Y-86025428D01*
X109218467Y-86210568D01*
X109228484Y-86235237D01*
X109231183Y-86239641D01*
X109233517Y-86244262D01*
X109232120Y-86244968D01*
X109248816Y-86306707D01*
X109227355Y-86374383D01*
X109172712Y-86419712D01*
X109122845Y-86430000D01*
X104232838Y-86430000D01*
X104164717Y-86409998D01*
X104118224Y-86356342D01*
X104108120Y-86286068D01*
X104119881Y-86248173D01*
X104126275Y-86235237D01*
X104184078Y-86118280D01*
X104251408Y-85896671D01*
X104281640Y-85667041D01*
X104283327Y-85598000D01*
X104277032Y-85521434D01*
X104264773Y-85372318D01*
X104264772Y-85372312D01*
X104264349Y-85367167D01*
X104207925Y-85142533D01*
X104205866Y-85137797D01*
X104117630Y-84934868D01*
X104117628Y-84934865D01*
X104115570Y-84930131D01*
X103989764Y-84735665D01*
X103833887Y-84564358D01*
X103829836Y-84561159D01*
X103829832Y-84561155D01*
X103657077Y-84424722D01*
X103616014Y-84366805D01*
X103612782Y-84295882D01*
X103648407Y-84234470D01*
X103662001Y-84223261D01*
X103665872Y-84220500D01*
X103782243Y-84137494D01*
X103946303Y-83974005D01*
X104081458Y-83785917D01*
X104128641Y-83690450D01*
X104181784Y-83582922D01*
X104181785Y-83582920D01*
X104184078Y-83578280D01*
X104251408Y-83356671D01*
X104281640Y-83127041D01*
X104283327Y-83058000D01*
X104277032Y-82981434D01*
X104264773Y-82832318D01*
X104264772Y-82832312D01*
X104264349Y-82827167D01*
X104207925Y-82602533D01*
X104205866Y-82597797D01*
X104117630Y-82394868D01*
X104117628Y-82394865D01*
X104115570Y-82390131D01*
X103989764Y-82195665D01*
X103833887Y-82024358D01*
X103829836Y-82021159D01*
X103829832Y-82021155D01*
X103657077Y-81884722D01*
X103616014Y-81826805D01*
X103612782Y-81755882D01*
X103648407Y-81694470D01*
X103662001Y-81683261D01*
X103665872Y-81680500D01*
X103782243Y-81597494D01*
X103946303Y-81434005D01*
X104081458Y-81245917D01*
X104128641Y-81150450D01*
X104181784Y-81042922D01*
X104181785Y-81042920D01*
X104184078Y-81038280D01*
X104251408Y-80816671D01*
X104281640Y-80587041D01*
X104283327Y-80518000D01*
X104277032Y-80441434D01*
X104264773Y-80292318D01*
X104264772Y-80292312D01*
X104264349Y-80287167D01*
X104207925Y-80062533D01*
X104205866Y-80057797D01*
X104117630Y-79854868D01*
X104117628Y-79854865D01*
X104115570Y-79850131D01*
X103989764Y-79655665D01*
X103833887Y-79484358D01*
X103829836Y-79481159D01*
X103829832Y-79481155D01*
X103657077Y-79344722D01*
X103616014Y-79286805D01*
X103612782Y-79215882D01*
X103648407Y-79154470D01*
X103662001Y-79143261D01*
X103665872Y-79140500D01*
X103782243Y-79057494D01*
X103946303Y-78894005D01*
X104081458Y-78705917D01*
X104128641Y-78610450D01*
X104181784Y-78502922D01*
X104181785Y-78502920D01*
X104184078Y-78498280D01*
X104251408Y-78276671D01*
X104281640Y-78047041D01*
X104283327Y-77978000D01*
X104277032Y-77901434D01*
X104264773Y-77752318D01*
X104264772Y-77752312D01*
X104264349Y-77747167D01*
X104207925Y-77522533D01*
X104205866Y-77517797D01*
X104117630Y-77314868D01*
X104117628Y-77314865D01*
X104115570Y-77310131D01*
X103989764Y-77115665D01*
X103833887Y-76944358D01*
X103829836Y-76941159D01*
X103829832Y-76941155D01*
X103657077Y-76804722D01*
X103616014Y-76746805D01*
X103612782Y-76675882D01*
X103648407Y-76614470D01*
X103662001Y-76603261D01*
X103665872Y-76600500D01*
X103782243Y-76517494D01*
X103946303Y-76354005D01*
X104081458Y-76165917D01*
X104128641Y-76070450D01*
X104181784Y-75962922D01*
X104181785Y-75962920D01*
X104184078Y-75958280D01*
X104251408Y-75736671D01*
X104281640Y-75507041D01*
X104283327Y-75438000D01*
X104277032Y-75361434D01*
X104264773Y-75212318D01*
X104264772Y-75212312D01*
X104264349Y-75207167D01*
X104207925Y-74982533D01*
X104205866Y-74977797D01*
X104117630Y-74774868D01*
X104117628Y-74774865D01*
X104115570Y-74770131D01*
X103989764Y-74575665D01*
X103833887Y-74404358D01*
X103829836Y-74401159D01*
X103829832Y-74401155D01*
X103657077Y-74264722D01*
X103616014Y-74206805D01*
X103612782Y-74135882D01*
X103648407Y-74074470D01*
X103662001Y-74063261D01*
X103662157Y-74063150D01*
X103782243Y-73977494D01*
X103946303Y-73814005D01*
X103949319Y-73809808D01*
X103949326Y-73809800D01*
X104036960Y-73687844D01*
X104092954Y-73644196D01*
X104163658Y-73637750D01*
X104226622Y-73670553D01*
X104246715Y-73695536D01*
X104266800Y-73728313D01*
X104266804Y-73728318D01*
X104269501Y-73732719D01*
X104421147Y-73907784D01*
X104599349Y-74055730D01*
X104799322Y-74172584D01*
X105015694Y-74255209D01*
X105020760Y-74256240D01*
X105020761Y-74256240D01*
X105058957Y-74264011D01*
X105242656Y-74301385D01*
X105373324Y-74306176D01*
X105468949Y-74309683D01*
X105468953Y-74309683D01*
X105474113Y-74309872D01*
X105479233Y-74309216D01*
X105479235Y-74309216D01*
X105552270Y-74299860D01*
X105703847Y-74280442D01*
X105708795Y-74278957D01*
X105708802Y-74278956D01*
X105920747Y-74215369D01*
X105925690Y-74213886D01*
X105930324Y-74211616D01*
X106129049Y-74114262D01*
X106129052Y-74114260D01*
X106133684Y-74111991D01*
X106322243Y-73977494D01*
X106486303Y-73814005D01*
X106489319Y-73809808D01*
X106489326Y-73809800D01*
X106576960Y-73687844D01*
X106632954Y-73644196D01*
X106703658Y-73637750D01*
X106766622Y-73670553D01*
X106786715Y-73695536D01*
X106806800Y-73728313D01*
X106806804Y-73728318D01*
X106809501Y-73732719D01*
X106961147Y-73907784D01*
X107139349Y-74055730D01*
X107339322Y-74172584D01*
X107555694Y-74255209D01*
X107560760Y-74256240D01*
X107560761Y-74256240D01*
X107598957Y-74264011D01*
X107782656Y-74301385D01*
X107913324Y-74306176D01*
X108008949Y-74309683D01*
X108008953Y-74309683D01*
X108014113Y-74309872D01*
X108019233Y-74309216D01*
X108019235Y-74309216D01*
X108092270Y-74299860D01*
X108243847Y-74280442D01*
X108248795Y-74278957D01*
X108248802Y-74278956D01*
X108460747Y-74215369D01*
X108465690Y-74213886D01*
X108470324Y-74211616D01*
X108669049Y-74114262D01*
X108669052Y-74114260D01*
X108673684Y-74111991D01*
X108862243Y-73977494D01*
X109026303Y-73814005D01*
X109161458Y-73625917D01*
X109208641Y-73530450D01*
X109261784Y-73422922D01*
X109261785Y-73422920D01*
X109264078Y-73418280D01*
X109331408Y-73196671D01*
X109361640Y-72967041D01*
X109363327Y-72898000D01*
X109357032Y-72821434D01*
X109344773Y-72672318D01*
X109344772Y-72672312D01*
X109344349Y-72667167D01*
X109309403Y-72528039D01*
X109289184Y-72447544D01*
X109289183Y-72447540D01*
X109287925Y-72442533D01*
X109271805Y-72405459D01*
X109197630Y-72234868D01*
X109197628Y-72234865D01*
X109195570Y-72230131D01*
X109069764Y-72035665D01*
X108913887Y-71864358D01*
X108909836Y-71861159D01*
X108909832Y-71861155D01*
X108737077Y-71724722D01*
X108696014Y-71666805D01*
X108692782Y-71595882D01*
X108728407Y-71534470D01*
X108742001Y-71523261D01*
X108862243Y-71437494D01*
X109026303Y-71274005D01*
X109044076Y-71249272D01*
X109101099Y-71169915D01*
X109161458Y-71085917D01*
X109263428Y-70879596D01*
X109302324Y-70833488D01*
X109314087Y-70824942D01*
X109342378Y-70790744D01*
X109350367Y-70781965D01*
X110411206Y-69721126D01*
X110473518Y-69687100D01*
X110484094Y-69685400D01*
X110489086Y-69685400D01*
X110664146Y-69648190D01*
X110670177Y-69645505D01*
X110821615Y-69578081D01*
X110821617Y-69578080D01*
X110827645Y-69575396D01*
X110842360Y-69564705D01*
X110967092Y-69474082D01*
X110967094Y-69474080D01*
X110972436Y-69470199D01*
X110976859Y-69465287D01*
X110978449Y-69463855D01*
X111042456Y-69433135D01*
X111112910Y-69441897D01*
G37*
%TD.AperFunction*%
%TA.AperFunction,Conductor*%
G36*
X93508556Y-61466002D02*
G01*
X93555049Y-61519658D01*
X93565153Y-61589932D01*
X93535659Y-61654512D01*
X93504858Y-61680285D01*
X93450196Y-61712805D01*
X93443945Y-61717053D01*
X93250733Y-61866115D01*
X93242267Y-61877773D01*
X93248871Y-61889661D01*
X94987188Y-63627978D01*
X95001132Y-63635592D01*
X95002965Y-63635461D01*
X95009580Y-63631210D01*
X96750162Y-61890628D01*
X96757174Y-61877787D01*
X96749379Y-61867098D01*
X96579886Y-61733481D01*
X96573663Y-61729156D01*
X96492326Y-61679605D01*
X96444557Y-61627082D01*
X96432767Y-61557071D01*
X96460699Y-61491800D01*
X96519485Y-61451992D01*
X96557879Y-61446000D01*
X99911078Y-61446000D01*
X99979199Y-61466002D01*
X100025692Y-61519658D01*
X100035796Y-61589932D01*
X100006302Y-61654512D01*
X100000174Y-61661094D01*
X99049973Y-62611294D01*
X98158517Y-63502750D01*
X98150191Y-63510326D01*
X98143697Y-63514447D01*
X98138274Y-63520222D01*
X98096915Y-63564265D01*
X98094160Y-63567107D01*
X98074361Y-63586906D01*
X98071937Y-63590031D01*
X98071929Y-63590040D01*
X98071863Y-63590126D01*
X98064155Y-63599151D01*
X98033783Y-63631494D01*
X98029965Y-63638438D01*
X98029964Y-63638440D01*
X98023978Y-63649329D01*
X98013127Y-63665847D01*
X98000650Y-63681933D01*
X97991663Y-63702702D01*
X97984908Y-63718311D01*
X97939497Y-63772886D01*
X97871790Y-63794246D01*
X97803283Y-63775610D01*
X97755727Y-63722894D01*
X97743499Y-63675853D01*
X97743257Y-63671835D01*
X97742349Y-63664333D01*
X97683967Y-63344663D01*
X97682154Y-63337284D01*
X97585797Y-63026966D01*
X97583116Y-63019869D01*
X97450172Y-62723363D01*
X97446655Y-62716636D01*
X97279054Y-62438252D01*
X97274757Y-62431999D01*
X97133617Y-62251022D01*
X97121823Y-62242551D01*
X97110113Y-62249097D01*
X93250257Y-66108953D01*
X93243142Y-66121982D01*
X93250668Y-66132415D01*
X93396463Y-66249848D01*
X93402648Y-66254244D01*
X93678363Y-66426195D01*
X93685034Y-66429817D01*
X93979414Y-66567402D01*
X93986468Y-66570195D01*
X94295257Y-66671420D01*
X94302570Y-66673339D01*
X94621298Y-66736738D01*
X94628789Y-66737764D01*
X94952823Y-66762413D01*
X94960386Y-66762531D01*
X95285021Y-66748074D01*
X95292562Y-66747282D01*
X95517209Y-66709890D01*
X95587690Y-66718436D01*
X95642361Y-66763730D01*
X95663866Y-66831391D01*
X95645377Y-66899938D01*
X95626992Y-66923275D01*
X94769672Y-67780595D01*
X94707360Y-67814621D01*
X94680577Y-67817500D01*
X94440032Y-67817500D01*
X94428793Y-67816970D01*
X94421281Y-67815291D01*
X94413356Y-67815540D01*
X94413355Y-67815540D01*
X94352970Y-67817438D01*
X94349012Y-67817500D01*
X94321017Y-67817500D01*
X94317083Y-67817997D01*
X94317081Y-67817997D01*
X94316994Y-67818008D01*
X94305160Y-67818940D01*
X94260795Y-67820335D01*
X94253182Y-67822547D01*
X94253181Y-67822547D01*
X94241252Y-67826013D01*
X94221888Y-67830023D01*
X94209560Y-67831580D01*
X94209558Y-67831580D01*
X94201701Y-67832573D01*
X94194337Y-67835489D01*
X94194332Y-67835490D01*
X94160444Y-67848907D01*
X94149215Y-67852752D01*
X94132535Y-67857598D01*
X94106607Y-67865131D01*
X94099780Y-67869169D01*
X94099777Y-67869170D01*
X94089094Y-67875488D01*
X94071336Y-67884188D01*
X94059785Y-67888761D01*
X94059779Y-67888765D01*
X94052412Y-67891681D01*
X94046001Y-67896339D01*
X94045999Y-67896340D01*
X94016512Y-67917764D01*
X94006590Y-67924281D01*
X93975232Y-67942826D01*
X93975228Y-67942829D01*
X93968402Y-67946866D01*
X93954018Y-67961250D01*
X93938984Y-67974091D01*
X93922513Y-67986058D01*
X93895870Y-68018264D01*
X93894227Y-68020250D01*
X93886237Y-68029031D01*
X93078512Y-68836755D01*
X93070193Y-68844325D01*
X93063697Y-68848447D01*
X93058271Y-68854225D01*
X93058270Y-68854226D01*
X93016915Y-68898265D01*
X93014160Y-68901107D01*
X92994361Y-68920906D01*
X92991937Y-68924031D01*
X92991929Y-68924040D01*
X92991863Y-68924126D01*
X92984155Y-68933151D01*
X92953783Y-68965494D01*
X92949965Y-68972438D01*
X92949964Y-68972440D01*
X92943978Y-68983329D01*
X92933127Y-68999847D01*
X92920650Y-69015933D01*
X92903024Y-69056666D01*
X92897807Y-69067314D01*
X92876431Y-69106197D01*
X92874460Y-69113872D01*
X92874458Y-69113878D01*
X92871369Y-69125911D01*
X92864966Y-69144613D01*
X92856883Y-69163292D01*
X92853601Y-69184012D01*
X92849940Y-69207127D01*
X92847535Y-69218740D01*
X92836500Y-69261718D01*
X92836500Y-69282065D01*
X92834949Y-69301776D01*
X92831765Y-69321879D01*
X92832511Y-69329771D01*
X92835941Y-69366056D01*
X92836500Y-69377914D01*
X92836500Y-71040980D01*
X92835970Y-71052214D01*
X92834292Y-71059719D01*
X92834970Y-71081283D01*
X92836438Y-71128012D01*
X92836500Y-71131969D01*
X92836500Y-71159983D01*
X92836996Y-71163908D01*
X92836996Y-71163909D01*
X92837008Y-71164004D01*
X92837941Y-71175849D01*
X92839335Y-71220205D01*
X92844119Y-71236670D01*
X92845013Y-71239748D01*
X92849023Y-71259112D01*
X92851573Y-71279299D01*
X92854489Y-71286663D01*
X92854490Y-71286668D01*
X92867907Y-71320556D01*
X92871752Y-71331785D01*
X92884131Y-71374393D01*
X92888169Y-71381220D01*
X92888170Y-71381223D01*
X92894488Y-71391906D01*
X92903188Y-71409664D01*
X92907761Y-71421215D01*
X92907765Y-71421221D01*
X92910681Y-71428588D01*
X92915339Y-71434999D01*
X92915340Y-71435001D01*
X92936764Y-71464488D01*
X92943281Y-71474410D01*
X92961826Y-71505768D01*
X92961829Y-71505772D01*
X92965866Y-71512598D01*
X92980250Y-71526982D01*
X92993091Y-71542016D01*
X93005058Y-71558487D01*
X93011166Y-71563540D01*
X93039255Y-71586777D01*
X93048035Y-71594767D01*
X93858540Y-72405272D01*
X93892566Y-72467584D01*
X93890862Y-72528039D01*
X93861707Y-72633169D01*
X93837095Y-72863469D01*
X93837392Y-72868622D01*
X93837392Y-72868625D01*
X93843067Y-72967041D01*
X93850427Y-73094697D01*
X93851564Y-73099743D01*
X93851565Y-73099749D01*
X93883741Y-73242523D01*
X93901346Y-73320642D01*
X93903288Y-73325424D01*
X93903289Y-73325428D01*
X93978467Y-73510568D01*
X93988484Y-73535237D01*
X94109501Y-73732719D01*
X94261147Y-73907784D01*
X94439349Y-74055730D01*
X94443816Y-74058340D01*
X94443819Y-74058342D01*
X94447511Y-74060500D01*
X94496232Y-74112140D01*
X94509301Y-74181924D01*
X94482566Y-74247694D01*
X94459589Y-74270045D01*
X94311655Y-74381117D01*
X94151639Y-74548564D01*
X94148730Y-74552829D01*
X94148724Y-74552837D01*
X94133152Y-74575665D01*
X94021119Y-74739899D01*
X93923602Y-74949981D01*
X93861707Y-75173169D01*
X93837095Y-75403469D01*
X93837392Y-75408622D01*
X93837392Y-75408625D01*
X93843067Y-75507041D01*
X93850427Y-75634697D01*
X93851564Y-75639743D01*
X93851565Y-75639749D01*
X93883741Y-75782523D01*
X93901346Y-75860642D01*
X93903288Y-75865424D01*
X93903289Y-75865428D01*
X93978467Y-76050568D01*
X93988484Y-76075237D01*
X94109501Y-76272719D01*
X94261147Y-76447784D01*
X94439349Y-76595730D01*
X94443819Y-76598342D01*
X94447511Y-76600500D01*
X94496232Y-76652140D01*
X94509301Y-76721924D01*
X94482566Y-76787694D01*
X94459589Y-76810045D01*
X94311655Y-76921117D01*
X94151639Y-77088564D01*
X94148730Y-77092829D01*
X94148724Y-77092837D01*
X94133152Y-77115665D01*
X94021119Y-77279899D01*
X93923602Y-77489981D01*
X93861707Y-77713169D01*
X93837095Y-77943469D01*
X93837392Y-77948622D01*
X93837392Y-77948625D01*
X93843067Y-78047041D01*
X93850427Y-78174697D01*
X93851564Y-78179743D01*
X93851565Y-78179749D01*
X93883741Y-78322523D01*
X93901346Y-78400642D01*
X93903288Y-78405424D01*
X93903289Y-78405428D01*
X93978467Y-78590568D01*
X93988484Y-78615237D01*
X94109501Y-78812719D01*
X94261147Y-78987784D01*
X94439349Y-79135730D01*
X94443819Y-79138342D01*
X94447511Y-79140500D01*
X94496232Y-79192140D01*
X94509301Y-79261924D01*
X94482566Y-79327694D01*
X94459589Y-79350045D01*
X94311655Y-79461117D01*
X94151639Y-79628564D01*
X94148730Y-79632829D01*
X94148724Y-79632837D01*
X94133152Y-79655665D01*
X94021119Y-79819899D01*
X93923602Y-80029981D01*
X93861707Y-80253169D01*
X93837095Y-80483469D01*
X93837392Y-80488622D01*
X93837392Y-80488625D01*
X93843067Y-80587041D01*
X93850427Y-80714697D01*
X93851564Y-80719743D01*
X93851565Y-80719749D01*
X93883741Y-80862523D01*
X93901346Y-80940642D01*
X93903288Y-80945424D01*
X93903289Y-80945428D01*
X93978467Y-81130568D01*
X93988484Y-81155237D01*
X94109501Y-81352719D01*
X94261147Y-81527784D01*
X94439349Y-81675730D01*
X94443819Y-81678342D01*
X94447511Y-81680500D01*
X94496232Y-81732140D01*
X94509301Y-81801924D01*
X94482566Y-81867694D01*
X94459589Y-81890045D01*
X94311655Y-82001117D01*
X94151639Y-82168564D01*
X94148730Y-82172829D01*
X94148724Y-82172837D01*
X94133152Y-82195665D01*
X94021119Y-82359899D01*
X93923602Y-82569981D01*
X93861707Y-82793169D01*
X93837095Y-83023469D01*
X93837392Y-83028622D01*
X93837392Y-83028625D01*
X93843067Y-83127041D01*
X93850427Y-83254697D01*
X93851564Y-83259743D01*
X93851565Y-83259749D01*
X93883741Y-83402523D01*
X93901346Y-83480642D01*
X93903288Y-83485424D01*
X93903289Y-83485428D01*
X93978467Y-83670568D01*
X93988484Y-83695237D01*
X94109501Y-83892719D01*
X94261147Y-84067784D01*
X94439349Y-84215730D01*
X94443819Y-84218342D01*
X94447511Y-84220500D01*
X94496232Y-84272140D01*
X94509301Y-84341924D01*
X94482566Y-84407694D01*
X94459589Y-84430045D01*
X94311655Y-84541117D01*
X94151639Y-84708564D01*
X94148730Y-84712829D01*
X94148724Y-84712837D01*
X94133152Y-84735665D01*
X94021119Y-84899899D01*
X93923602Y-85109981D01*
X93861707Y-85333169D01*
X93837095Y-85563469D01*
X93837392Y-85568622D01*
X93837392Y-85568625D01*
X93843067Y-85667041D01*
X93850427Y-85794697D01*
X93851564Y-85799743D01*
X93851565Y-85799749D01*
X93883741Y-85942523D01*
X93901346Y-86020642D01*
X93903288Y-86025424D01*
X93903289Y-86025428D01*
X93978467Y-86210568D01*
X93988484Y-86235237D01*
X93991183Y-86239641D01*
X93993517Y-86244262D01*
X93992120Y-86244968D01*
X94008816Y-86306707D01*
X93987355Y-86374383D01*
X93932712Y-86419712D01*
X93882845Y-86430000D01*
X92629000Y-86430000D01*
X92560879Y-86409998D01*
X92514386Y-86356342D01*
X92503000Y-86304000D01*
X92503000Y-65647024D01*
X92523002Y-65578903D01*
X92576658Y-65532410D01*
X92646932Y-65522306D01*
X92711512Y-65551800D01*
X92729163Y-65570582D01*
X92865792Y-65749608D01*
X92877316Y-65758069D01*
X92889382Y-65751408D01*
X94627978Y-64012812D01*
X94635592Y-63998868D01*
X94635461Y-63997035D01*
X94631210Y-63990420D01*
X92890864Y-62250074D01*
X92877929Y-62243011D01*
X92867367Y-62250671D01*
X92741785Y-62408268D01*
X92737427Y-62414469D01*
X92736261Y-62416360D01*
X92735816Y-62416760D01*
X92735245Y-62417573D01*
X92735059Y-62417442D01*
X92683489Y-62463855D01*
X92613418Y-62475279D01*
X92548294Y-62447006D01*
X92508793Y-62388012D01*
X92503000Y-62350246D01*
X92503000Y-61572000D01*
X92523002Y-61503879D01*
X92576658Y-61457386D01*
X92629000Y-61446000D01*
X93440435Y-61446000D01*
X93508556Y-61466002D01*
G37*
%TD.AperFunction*%
%TA.AperFunction,Conductor*%
G36*
X103975759Y-63393502D02*
G01*
X104022252Y-63447158D01*
X104032356Y-63517432D01*
X104002862Y-63582012D01*
X103981702Y-63601434D01*
X103948164Y-63625801D01*
X103828409Y-63758803D01*
X103807946Y-63794246D01*
X103760002Y-63877288D01*
X103738923Y-63913797D01*
X103683618Y-64084009D01*
X103682928Y-64090572D01*
X103682928Y-64090573D01*
X103667766Y-64234829D01*
X103664910Y-64262000D01*
X103683618Y-64439991D01*
X103738923Y-64610203D01*
X103828409Y-64765197D01*
X103832827Y-64770104D01*
X103832828Y-64770105D01*
X103845739Y-64784444D01*
X103948164Y-64898199D01*
X103953506Y-64902080D01*
X103953508Y-64902082D01*
X104085553Y-64998018D01*
X104092955Y-65003396D01*
X104098983Y-65006080D01*
X104098985Y-65006081D01*
X104250423Y-65073505D01*
X104256454Y-65076190D01*
X104304845Y-65086476D01*
X104334498Y-65092779D01*
X104397396Y-65126931D01*
X105149503Y-65879038D01*
X105155356Y-65885303D01*
X105192842Y-65928274D01*
X105220396Y-65947639D01*
X105244378Y-65964494D01*
X105249674Y-65968427D01*
X105293263Y-66002606D01*
X105293266Y-66002608D01*
X105299240Y-66007292D01*
X105306164Y-66010418D01*
X105309199Y-66012256D01*
X105321898Y-66019500D01*
X105325046Y-66021188D01*
X105331261Y-66025556D01*
X105389950Y-66048438D01*
X105395999Y-66050980D01*
X105401177Y-66053318D01*
X105455024Y-66099587D01*
X105475310Y-66167623D01*
X105473753Y-66185218D01*
X105473371Y-66186534D01*
X105472867Y-66192943D01*
X105470989Y-66216803D01*
X105470500Y-66223011D01*
X105470501Y-66622988D01*
X105473371Y-66659466D01*
X105490503Y-66718436D01*
X105509656Y-66784358D01*
X105516747Y-66808766D01*
X105516747Y-66808768D01*
X105518731Y-66815596D01*
X105517629Y-66815916D01*
X105525396Y-66878871D01*
X105494614Y-66942848D01*
X105475124Y-66960379D01*
X105422248Y-66998796D01*
X105345164Y-67054801D01*
X105340743Y-67059711D01*
X105340742Y-67059712D01*
X105272947Y-67135007D01*
X105225409Y-67187803D01*
X105135923Y-67342797D01*
X105080618Y-67513009D01*
X105079928Y-67519572D01*
X105079928Y-67519573D01*
X105071582Y-67598976D01*
X105044568Y-67664633D01*
X105035367Y-67674900D01*
X104930834Y-67779433D01*
X104868522Y-67813459D01*
X104835855Y-67815419D01*
X104835281Y-67815291D01*
X104782783Y-67816941D01*
X104766970Y-67817438D01*
X104763012Y-67817500D01*
X104735017Y-67817500D01*
X104731083Y-67817997D01*
X104731081Y-67817997D01*
X104730994Y-67818008D01*
X104719160Y-67818940D01*
X104674795Y-67820335D01*
X104667182Y-67822547D01*
X104667181Y-67822547D01*
X104655252Y-67826013D01*
X104635888Y-67830023D01*
X104623560Y-67831580D01*
X104623558Y-67831580D01*
X104615701Y-67832573D01*
X104608337Y-67835489D01*
X104608332Y-67835490D01*
X104574444Y-67848907D01*
X104563215Y-67852752D01*
X104546535Y-67857598D01*
X104520607Y-67865131D01*
X104513780Y-67869169D01*
X104513777Y-67869170D01*
X104503094Y-67875488D01*
X104485336Y-67884188D01*
X104473785Y-67888761D01*
X104473779Y-67888765D01*
X104466412Y-67891681D01*
X104460001Y-67896339D01*
X104459999Y-67896340D01*
X104430512Y-67917764D01*
X104420590Y-67924281D01*
X104389232Y-67942826D01*
X104389228Y-67942829D01*
X104382402Y-67946866D01*
X104368018Y-67961250D01*
X104352984Y-67974091D01*
X104336513Y-67986058D01*
X104331460Y-67992166D01*
X104308223Y-68020255D01*
X104300233Y-68029035D01*
X103366024Y-68963244D01*
X103303712Y-68997270D01*
X103241245Y-68993325D01*
X103240906Y-68994610D01*
X103235902Y-68993288D01*
X103231028Y-68991562D01*
X103225935Y-68990655D01*
X103225932Y-68990654D01*
X103008095Y-68951851D01*
X103008089Y-68951850D01*
X103003006Y-68950945D01*
X102924007Y-68949980D01*
X102776581Y-68948179D01*
X102776579Y-68948179D01*
X102771411Y-68948116D01*
X102542464Y-68983150D01*
X102322314Y-69055106D01*
X102317726Y-69057494D01*
X102317722Y-69057496D01*
X102121461Y-69159663D01*
X102116872Y-69162052D01*
X102112739Y-69165155D01*
X102112736Y-69165157D01*
X101949455Y-69287752D01*
X101931655Y-69301117D01*
X101928083Y-69304855D01*
X101797123Y-69441897D01*
X101771639Y-69468564D01*
X101768730Y-69472829D01*
X101768724Y-69472837D01*
X101753152Y-69495665D01*
X101641119Y-69659899D01*
X101543602Y-69869981D01*
X101481707Y-70093169D01*
X101457095Y-70323469D01*
X101457392Y-70328622D01*
X101457392Y-70328625D01*
X101463067Y-70427041D01*
X101470427Y-70554697D01*
X101471564Y-70559743D01*
X101471565Y-70559749D01*
X101496185Y-70668993D01*
X101521346Y-70780642D01*
X101523288Y-70785424D01*
X101523289Y-70785428D01*
X101579946Y-70924956D01*
X101608484Y-70995237D01*
X101729501Y-71192719D01*
X101881147Y-71367784D01*
X102059349Y-71515730D01*
X102063816Y-71518340D01*
X102063819Y-71518342D01*
X102067511Y-71520500D01*
X102116232Y-71572140D01*
X102129301Y-71641924D01*
X102102566Y-71707694D01*
X102079589Y-71730045D01*
X101931655Y-71841117D01*
X101771639Y-72008564D01*
X101768730Y-72012829D01*
X101768724Y-72012837D01*
X101704002Y-72107716D01*
X101649091Y-72152719D01*
X101578566Y-72160890D01*
X101514819Y-72129636D01*
X101494122Y-72105152D01*
X101452177Y-72040315D01*
X101445885Y-72032144D01*
X101297023Y-71868547D01*
X101289490Y-71861521D01*
X101115901Y-71724429D01*
X101107323Y-71718730D01*
X100913678Y-71611833D01*
X100904272Y-71607606D01*
X100695778Y-71533774D01*
X100681608Y-71530031D01*
X100620855Y-71493293D01*
X100589609Y-71429542D01*
X100597789Y-71359018D01*
X100615864Y-71328922D01*
X100623534Y-71319449D01*
X100627825Y-71314425D01*
X100668170Y-71269619D01*
X100668173Y-71269615D01*
X100672585Y-71264715D01*
X100675881Y-71259005D01*
X100675884Y-71259002D01*
X100679375Y-71252955D01*
X100690568Y-71236670D01*
X100694950Y-71231258D01*
X100699107Y-71226125D01*
X100729477Y-71166520D01*
X100732624Y-71160724D01*
X100740060Y-71147844D01*
X100766075Y-71102785D01*
X100770270Y-71089875D01*
X100777833Y-71071616D01*
X100783994Y-71059524D01*
X100801320Y-70994862D01*
X100803172Y-70988614D01*
X100823855Y-70924956D01*
X100825273Y-70911463D01*
X100828877Y-70892020D01*
X100830679Y-70885295D01*
X100830680Y-70885290D01*
X100832388Y-70878915D01*
X100834285Y-70842735D01*
X100835889Y-70812120D01*
X100836406Y-70805546D01*
X100838156Y-70788893D01*
X100838500Y-70785620D01*
X100838500Y-70765586D01*
X100838673Y-70758992D01*
X100841829Y-70698782D01*
X100841829Y-70698777D01*
X100842174Y-70692190D01*
X100840051Y-70678785D01*
X100838500Y-70659075D01*
X100838500Y-68238633D01*
X100858502Y-68170512D01*
X100875405Y-68149538D01*
X101042538Y-67982405D01*
X101104850Y-67948379D01*
X101131633Y-67945500D01*
X101145401Y-67945500D01*
X101213522Y-67965502D01*
X101254520Y-68008500D01*
X101285107Y-68061479D01*
X101285110Y-68061484D01*
X101288409Y-68067197D01*
X101408164Y-68200199D01*
X101413506Y-68204080D01*
X101413508Y-68204082D01*
X101487691Y-68257979D01*
X101552955Y-68305396D01*
X101558983Y-68308080D01*
X101558985Y-68308081D01*
X101626814Y-68338280D01*
X101716454Y-68378190D01*
X101803984Y-68396795D01*
X101885057Y-68414028D01*
X101885061Y-68414028D01*
X101891514Y-68415400D01*
X102070486Y-68415400D01*
X102076939Y-68414028D01*
X102076943Y-68414028D01*
X102158016Y-68396795D01*
X102245546Y-68378190D01*
X102324760Y-68342922D01*
X102337178Y-68337393D01*
X102388427Y-68326500D01*
X102589573Y-68326500D01*
X102640822Y-68337393D01*
X102653241Y-68342922D01*
X102732454Y-68378190D01*
X102819984Y-68396795D01*
X102901057Y-68414028D01*
X102901061Y-68414028D01*
X102907514Y-68415400D01*
X103086486Y-68415400D01*
X103092939Y-68414028D01*
X103092943Y-68414028D01*
X103174016Y-68396795D01*
X103261546Y-68378190D01*
X103351186Y-68338280D01*
X103419015Y-68308081D01*
X103419017Y-68308080D01*
X103425045Y-68305396D01*
X103490309Y-68257979D01*
X103564492Y-68204082D01*
X103564494Y-68204080D01*
X103569836Y-68200199D01*
X103689591Y-68067197D01*
X103779077Y-67912203D01*
X103810485Y-67815540D01*
X103832342Y-67748270D01*
X103832342Y-67748269D01*
X103834382Y-67741991D01*
X103839052Y-67697565D01*
X103852400Y-67570565D01*
X103853090Y-67564000D01*
X103847071Y-67506730D01*
X103835072Y-67392573D01*
X103835072Y-67392572D01*
X103834382Y-67386009D01*
X103828383Y-67367544D01*
X103781119Y-67222082D01*
X103779077Y-67215797D01*
X103775773Y-67210074D01*
X103773089Y-67204046D01*
X103774334Y-67203492D01*
X103759500Y-67148127D01*
X103759500Y-67135007D01*
X103774073Y-67080615D01*
X103772589Y-67079954D01*
X103775273Y-67073926D01*
X103778577Y-67068203D01*
X103815143Y-66955665D01*
X103831842Y-66904270D01*
X103831842Y-66904269D01*
X103833882Y-66897991D01*
X103836066Y-66877217D01*
X103851900Y-66726565D01*
X103852590Y-66720000D01*
X103847484Y-66671420D01*
X103834572Y-66548573D01*
X103834572Y-66548572D01*
X103833882Y-66542009D01*
X103825528Y-66516296D01*
X103780619Y-66378082D01*
X103778577Y-66371797D01*
X103773636Y-66363238D01*
X103736612Y-66299111D01*
X103689091Y-66216803D01*
X103667608Y-66192943D01*
X103573758Y-66088712D01*
X103573757Y-66088711D01*
X103569336Y-66083801D01*
X103559856Y-66076913D01*
X103429887Y-65982485D01*
X103429886Y-65982484D01*
X103424545Y-65978604D01*
X103418517Y-65975920D01*
X103418515Y-65975919D01*
X103267077Y-65908495D01*
X103267076Y-65908495D01*
X103261046Y-65905810D01*
X103164681Y-65885327D01*
X103092443Y-65869972D01*
X103092439Y-65869972D01*
X103085986Y-65868600D01*
X102907014Y-65868600D01*
X102900561Y-65869972D01*
X102900557Y-65869972D01*
X102828319Y-65885327D01*
X102731954Y-65905810D01*
X102725927Y-65908493D01*
X102725919Y-65908496D01*
X102649610Y-65942471D01*
X102579243Y-65951905D01*
X102514946Y-65921798D01*
X102477133Y-65861709D01*
X102477809Y-65790716D01*
X102509267Y-65738268D01*
X102668633Y-65578903D01*
X102963053Y-65284483D01*
X102969319Y-65278630D01*
X103006547Y-65246154D01*
X103012274Y-65241158D01*
X103048498Y-65189617D01*
X103052423Y-65184332D01*
X103086607Y-65140735D01*
X103091292Y-65134760D01*
X103094416Y-65127842D01*
X103096245Y-65124821D01*
X103103500Y-65112102D01*
X103105188Y-65108954D01*
X103109556Y-65102739D01*
X103132438Y-65044050D01*
X103134978Y-65038005D01*
X103160913Y-64980565D01*
X103162298Y-64973092D01*
X103163369Y-64969674D01*
X103167355Y-64955681D01*
X103168251Y-64952193D01*
X103171012Y-64945111D01*
X103173608Y-64925394D01*
X103179233Y-64882670D01*
X103180265Y-64876157D01*
X103190361Y-64821681D01*
X103190361Y-64821680D01*
X103191745Y-64814213D01*
X103190422Y-64791277D01*
X103207093Y-64721025D01*
X103271077Y-64610203D01*
X103326382Y-64439991D01*
X103345090Y-64262000D01*
X103342234Y-64234829D01*
X103327072Y-64090573D01*
X103327072Y-64090572D01*
X103326382Y-64084009D01*
X103271077Y-63913797D01*
X103249999Y-63877288D01*
X103202054Y-63794246D01*
X103181591Y-63758803D01*
X103061836Y-63625801D01*
X103028299Y-63601435D01*
X102984947Y-63545213D01*
X102978872Y-63474477D01*
X103012004Y-63411685D01*
X103073824Y-63376774D01*
X103102362Y-63373500D01*
X103907638Y-63373500D01*
X103975759Y-63393502D01*
G37*
%TD.AperFunction*%
%TA.AperFunction,Conductor*%
G36*
X106766622Y-71130553D02*
G01*
X106786715Y-71155536D01*
X106806800Y-71188313D01*
X106806804Y-71188318D01*
X106809501Y-71192719D01*
X106961147Y-71367784D01*
X107139349Y-71515730D01*
X107143816Y-71518340D01*
X107143819Y-71518342D01*
X107147511Y-71520500D01*
X107196232Y-71572140D01*
X107209301Y-71641924D01*
X107182566Y-71707694D01*
X107159589Y-71730045D01*
X107011655Y-71841117D01*
X106851639Y-72008564D01*
X106784306Y-72107271D01*
X106729397Y-72152271D01*
X106658872Y-72160442D01*
X106595125Y-72129188D01*
X106574428Y-72104705D01*
X106532571Y-72040004D01*
X106529764Y-72035665D01*
X106373887Y-71864358D01*
X106369836Y-71861159D01*
X106369832Y-71861155D01*
X106197077Y-71724722D01*
X106156014Y-71666805D01*
X106152782Y-71595882D01*
X106188407Y-71534470D01*
X106202001Y-71523261D01*
X106322243Y-71437494D01*
X106486303Y-71274005D01*
X106489319Y-71269808D01*
X106489326Y-71269800D01*
X106576960Y-71147844D01*
X106632954Y-71104196D01*
X106703658Y-71097750D01*
X106766622Y-71130553D01*
G37*
%TD.AperFunction*%
%TA.AperFunction,Conductor*%
G36*
X110629114Y-62377502D02*
G01*
X110675607Y-62431158D01*
X110685711Y-62501432D01*
X110680826Y-62522436D01*
X110668618Y-62560009D01*
X110666102Y-62559192D01*
X110637955Y-62611294D01*
X110575796Y-62645599D01*
X110548460Y-62648600D01*
X110400514Y-62648600D01*
X110394061Y-62649972D01*
X110394057Y-62649972D01*
X110312984Y-62667205D01*
X110225454Y-62685810D01*
X110219424Y-62688495D01*
X110219423Y-62688495D01*
X110067985Y-62755919D01*
X110067983Y-62755920D01*
X110061955Y-62758604D01*
X110056614Y-62762484D01*
X110056613Y-62762485D01*
X109952778Y-62837926D01*
X109917164Y-62863801D01*
X109797409Y-62996803D01*
X109742832Y-63091332D01*
X109729002Y-63115288D01*
X109707923Y-63151797D01*
X109652618Y-63322009D01*
X109650102Y-63321192D01*
X109621955Y-63373294D01*
X109559796Y-63407599D01*
X109532460Y-63410600D01*
X109384514Y-63410600D01*
X109378061Y-63411972D01*
X109378057Y-63411972D01*
X109296984Y-63429205D01*
X109209454Y-63447810D01*
X109203424Y-63450495D01*
X109203423Y-63450495D01*
X109051985Y-63517919D01*
X109051983Y-63517920D01*
X109045955Y-63520604D01*
X109040614Y-63524484D01*
X109040613Y-63524485D01*
X108928001Y-63606303D01*
X108901164Y-63625801D01*
X108781409Y-63758803D01*
X108760946Y-63794246D01*
X108745885Y-63820332D01*
X108694502Y-63869325D01*
X108624789Y-63882761D01*
X108558878Y-63856374D01*
X108534388Y-63828968D01*
X108534073Y-63829218D01*
X108529848Y-63823887D01*
X108529620Y-63823632D01*
X108529528Y-63823484D01*
X108520494Y-63812085D01*
X108410920Y-63702702D01*
X108399509Y-63693690D01*
X108267709Y-63612447D01*
X108254532Y-63606303D01*
X108107157Y-63557421D01*
X108093790Y-63554555D01*
X108003730Y-63545328D01*
X107997315Y-63545000D01*
X107968115Y-63545000D01*
X107952876Y-63549475D01*
X107951671Y-63550865D01*
X107950000Y-63558548D01*
X107950000Y-64580000D01*
X107929998Y-64648121D01*
X107876342Y-64694614D01*
X107824000Y-64706000D01*
X106832321Y-64706000D01*
X106768182Y-64688453D01*
X106748425Y-64676769D01*
X106748421Y-64676767D01*
X106741596Y-64672731D01*
X106733985Y-64670520D01*
X106733983Y-64670519D01*
X106591644Y-64629166D01*
X106591645Y-64629166D01*
X106585466Y-64627371D01*
X106579059Y-64626867D01*
X106579055Y-64626866D01*
X106551444Y-64624693D01*
X106551438Y-64624693D01*
X106548989Y-64624500D01*
X106299152Y-64624500D01*
X106049012Y-64624501D01*
X106012534Y-64627371D01*
X105977446Y-64637565D01*
X105906450Y-64637362D01*
X105853198Y-64605663D01*
X105391122Y-64143587D01*
X105358715Y-64083901D01*
X105358382Y-64084009D01*
X105357799Y-64082215D01*
X105303077Y-63913797D01*
X105281999Y-63877288D01*
X105234054Y-63794246D01*
X105213591Y-63758803D01*
X105093836Y-63625801D01*
X105060299Y-63601435D01*
X105016947Y-63545213D01*
X105010872Y-63474477D01*
X105044004Y-63411685D01*
X105105824Y-63376774D01*
X105134362Y-63373500D01*
X105480668Y-63373500D01*
X105548789Y-63393502D01*
X105595282Y-63447158D01*
X105600501Y-63460564D01*
X105643923Y-63594203D01*
X105647226Y-63599925D01*
X105647227Y-63599926D01*
X105665289Y-63631210D01*
X105733409Y-63749197D01*
X105737827Y-63754104D01*
X105737828Y-63754105D01*
X105829911Y-63856374D01*
X105853164Y-63882199D01*
X105858506Y-63886080D01*
X105858508Y-63886082D01*
X105985905Y-63978641D01*
X105997955Y-63987396D01*
X106003983Y-63990080D01*
X106003985Y-63990081D01*
X106155423Y-64057505D01*
X106161454Y-64060190D01*
X106243950Y-64077725D01*
X106330057Y-64096028D01*
X106330061Y-64096028D01*
X106336514Y-64097400D01*
X106515486Y-64097400D01*
X106521939Y-64096028D01*
X106521943Y-64096028D01*
X106561446Y-64087631D01*
X106632237Y-64093033D01*
X106688870Y-64135850D01*
X106713363Y-64202488D01*
X106713479Y-64217305D01*
X106713361Y-64219614D01*
X106717475Y-64233624D01*
X106718865Y-64234829D01*
X106726548Y-64236500D01*
X107423885Y-64236500D01*
X107439124Y-64232025D01*
X107440329Y-64230635D01*
X107442000Y-64222952D01*
X107442000Y-63563115D01*
X107437525Y-63547876D01*
X107436135Y-63546671D01*
X107428452Y-63545000D01*
X107391468Y-63545000D01*
X107391468Y-63543538D01*
X107328029Y-63528413D01*
X107278832Y-63477225D01*
X107265286Y-63405874D01*
X107266587Y-63393502D01*
X107274183Y-63321229D01*
X107301197Y-63255572D01*
X107359418Y-63214943D01*
X107399493Y-63208400D01*
X107531486Y-63208400D01*
X107537939Y-63207028D01*
X107537943Y-63207028D01*
X107619016Y-63189795D01*
X107706546Y-63171190D01*
X107712573Y-63168507D01*
X107712581Y-63168504D01*
X107794357Y-63132095D01*
X107864724Y-63122661D01*
X107919665Y-63145266D01*
X107951650Y-63168504D01*
X108015568Y-63214943D01*
X108029955Y-63225396D01*
X108035983Y-63228080D01*
X108035985Y-63228081D01*
X108187423Y-63295505D01*
X108193454Y-63298190D01*
X108279991Y-63316584D01*
X108362057Y-63334028D01*
X108362061Y-63334028D01*
X108368514Y-63335400D01*
X108547486Y-63335400D01*
X108553939Y-63334028D01*
X108553943Y-63334028D01*
X108636009Y-63316584D01*
X108722546Y-63298190D01*
X108728577Y-63295505D01*
X108880015Y-63228081D01*
X108880017Y-63228080D01*
X108886045Y-63225396D01*
X108891387Y-63221515D01*
X109025492Y-63124082D01*
X109025494Y-63124080D01*
X109030836Y-63120199D01*
X109150591Y-62987197D01*
X109205168Y-62892668D01*
X109236773Y-62837926D01*
X109236774Y-62837925D01*
X109240077Y-62832203D01*
X109295382Y-62661991D01*
X109304418Y-62576024D01*
X109331432Y-62510367D01*
X109340633Y-62500100D01*
X109446328Y-62394405D01*
X109508640Y-62360379D01*
X109535423Y-62357500D01*
X110560993Y-62357500D01*
X110629114Y-62377502D01*
G37*
%TD.AperFunction*%
%TD*%
M02*
