%TF.GenerationSoftware,KiCad,Pcbnew,(6.0.0-0)*%
%TF.CreationDate,2023-03-06T17:41:45-05:00*%
%TF.ProjectId,module_dev1,6d6f6475-6c65-45f6-9465-76312e6b6963,rev?*%
%TF.SameCoordinates,Original*%
%TF.FileFunction,Legend,Bot*%
%TF.FilePolarity,Positive*%
%FSLAX46Y46*%
G04 Gerber Fmt 4.6, Leading zero omitted, Abs format (unit mm)*
G04 Created by KiCad (PCBNEW (6.0.0-0)) date 2023-03-06 17:41:45*
%MOMM*%
%LPD*%
G01*
G04 APERTURE LIST*
%ADD10C,0.150000*%
%ADD11C,0.080000*%
%ADD12C,0.120000*%
G04 APERTURE END LIST*
D10*
X106397904Y-75598928D02*
X106397904Y-75217976D01*
X105597904Y-75217976D01*
X106359809Y-76170357D02*
X106397904Y-76094166D01*
X106397904Y-75941785D01*
X106359809Y-75865595D01*
X106283619Y-75827500D01*
X105978857Y-75827500D01*
X105902666Y-75865595D01*
X105864571Y-75941785D01*
X105864571Y-76094166D01*
X105902666Y-76170357D01*
X105978857Y-76208452D01*
X106055047Y-76208452D01*
X106131238Y-75827500D01*
X105864571Y-76894166D02*
X106512190Y-76894166D01*
X106588380Y-76856071D01*
X106626476Y-76817976D01*
X106664571Y-76741785D01*
X106664571Y-76627500D01*
X106626476Y-76551309D01*
X106359809Y-76894166D02*
X106397904Y-76817976D01*
X106397904Y-76665595D01*
X106359809Y-76589404D01*
X106321714Y-76551309D01*
X106245523Y-76513214D01*
X106016952Y-76513214D01*
X105940761Y-76551309D01*
X105902666Y-76589404D01*
X105864571Y-76665595D01*
X105864571Y-76817976D01*
X105902666Y-76894166D01*
X106397904Y-77389404D02*
X106359809Y-77313214D01*
X106321714Y-77275119D01*
X106245523Y-77237023D01*
X106016952Y-77237023D01*
X105940761Y-77275119D01*
X105902666Y-77313214D01*
X105864571Y-77389404D01*
X105864571Y-77503690D01*
X105902666Y-77579880D01*
X105940761Y-77617976D01*
X106016952Y-77656071D01*
X106245523Y-77656071D01*
X106321714Y-77617976D01*
X106359809Y-77579880D01*
X106397904Y-77503690D01*
X106397904Y-77389404D01*
X106359809Y-77960833D02*
X106397904Y-78075119D01*
X106397904Y-78265595D01*
X106359809Y-78341785D01*
X106321714Y-78379880D01*
X106245523Y-78417976D01*
X106169333Y-78417976D01*
X106093142Y-78379880D01*
X106055047Y-78341785D01*
X106016952Y-78265595D01*
X105978857Y-78113214D01*
X105940761Y-78037023D01*
X105902666Y-77998928D01*
X105826476Y-77960833D01*
X105750285Y-77960833D01*
X105674095Y-77998928D01*
X105636000Y-78037023D01*
X105597904Y-78113214D01*
X105597904Y-78303690D01*
X105636000Y-78417976D01*
X105978857Y-78760833D02*
X105978857Y-79027500D01*
X106397904Y-79141785D02*
X106397904Y-78760833D01*
X105597904Y-78760833D01*
X105597904Y-79141785D01*
X106397904Y-79484642D02*
X105597904Y-79484642D01*
X106397904Y-79941785D01*
X105597904Y-79941785D01*
X106359809Y-80284642D02*
X106397904Y-80398928D01*
X106397904Y-80589404D01*
X106359809Y-80665595D01*
X106321714Y-80703690D01*
X106245523Y-80741785D01*
X106169333Y-80741785D01*
X106093142Y-80703690D01*
X106055047Y-80665595D01*
X106016952Y-80589404D01*
X105978857Y-80437023D01*
X105940761Y-80360833D01*
X105902666Y-80322738D01*
X105826476Y-80284642D01*
X105750285Y-80284642D01*
X105674095Y-80322738D01*
X105636000Y-80360833D01*
X105597904Y-80437023D01*
X105597904Y-80627500D01*
X105636000Y-80741785D01*
X105978857Y-81084642D02*
X105978857Y-81351309D01*
X106397904Y-81465595D02*
X106397904Y-81084642D01*
X105597904Y-81084642D01*
X105597904Y-81465595D01*
X106397904Y-82417976D02*
X105597904Y-82417976D01*
X106169333Y-82684642D01*
X105597904Y-82951309D01*
X106397904Y-82951309D01*
X106397904Y-83446547D02*
X106359809Y-83370357D01*
X106321714Y-83332261D01*
X106245523Y-83294166D01*
X106016952Y-83294166D01*
X105940761Y-83332261D01*
X105902666Y-83370357D01*
X105864571Y-83446547D01*
X105864571Y-83560833D01*
X105902666Y-83637023D01*
X105940761Y-83675119D01*
X106016952Y-83713214D01*
X106245523Y-83713214D01*
X106321714Y-83675119D01*
X106359809Y-83637023D01*
X106397904Y-83560833D01*
X106397904Y-83446547D01*
X106397904Y-84398928D02*
X105597904Y-84398928D01*
X106359809Y-84398928D02*
X106397904Y-84322738D01*
X106397904Y-84170357D01*
X106359809Y-84094166D01*
X106321714Y-84056071D01*
X106245523Y-84017976D01*
X106016952Y-84017976D01*
X105940761Y-84056071D01*
X105902666Y-84094166D01*
X105864571Y-84170357D01*
X105864571Y-84322738D01*
X105902666Y-84398928D01*
X105864571Y-85122738D02*
X106397904Y-85122738D01*
X105864571Y-84779880D02*
X106283619Y-84779880D01*
X106359809Y-84817976D01*
X106397904Y-84894166D01*
X106397904Y-85008452D01*
X106359809Y-85084642D01*
X106321714Y-85122738D01*
X106397904Y-85617976D02*
X106359809Y-85541785D01*
X106283619Y-85503690D01*
X105597904Y-85503690D01*
X106359809Y-86227500D02*
X106397904Y-86151309D01*
X106397904Y-85998928D01*
X106359809Y-85922738D01*
X106283619Y-85884642D01*
X105978857Y-85884642D01*
X105902666Y-85922738D01*
X105864571Y-85998928D01*
X105864571Y-86151309D01*
X105902666Y-86227500D01*
X105978857Y-86265595D01*
X106055047Y-86265595D01*
X106131238Y-85884642D01*
X107685904Y-75217976D02*
X106885904Y-75217976D01*
X106885904Y-75408452D01*
X106924000Y-75522738D01*
X107000190Y-75598928D01*
X107076380Y-75637023D01*
X107228761Y-75675119D01*
X107343047Y-75675119D01*
X107495428Y-75637023D01*
X107571619Y-75598928D01*
X107647809Y-75522738D01*
X107685904Y-75408452D01*
X107685904Y-75217976D01*
X107647809Y-76322738D02*
X107685904Y-76246547D01*
X107685904Y-76094166D01*
X107647809Y-76017976D01*
X107571619Y-75979880D01*
X107266857Y-75979880D01*
X107190666Y-76017976D01*
X107152571Y-76094166D01*
X107152571Y-76246547D01*
X107190666Y-76322738D01*
X107266857Y-76360833D01*
X107343047Y-76360833D01*
X107419238Y-75979880D01*
X107152571Y-76627500D02*
X107685904Y-76817976D01*
X107152571Y-77008452D01*
X107266857Y-78189404D02*
X107304952Y-78303690D01*
X107343047Y-78341785D01*
X107419238Y-78379880D01*
X107533523Y-78379880D01*
X107609714Y-78341785D01*
X107647809Y-78303690D01*
X107685904Y-78227500D01*
X107685904Y-77922738D01*
X106885904Y-77922738D01*
X106885904Y-78189404D01*
X106924000Y-78265595D01*
X106962095Y-78303690D01*
X107038285Y-78341785D01*
X107114476Y-78341785D01*
X107190666Y-78303690D01*
X107228761Y-78265595D01*
X107266857Y-78189404D01*
X107266857Y-77922738D01*
X107685904Y-78837023D02*
X107647809Y-78760833D01*
X107609714Y-78722738D01*
X107533523Y-78684642D01*
X107304952Y-78684642D01*
X107228761Y-78722738D01*
X107190666Y-78760833D01*
X107152571Y-78837023D01*
X107152571Y-78951309D01*
X107190666Y-79027500D01*
X107228761Y-79065595D01*
X107304952Y-79103690D01*
X107533523Y-79103690D01*
X107609714Y-79065595D01*
X107647809Y-79027500D01*
X107685904Y-78951309D01*
X107685904Y-78837023D01*
X107685904Y-79789404D02*
X107266857Y-79789404D01*
X107190666Y-79751309D01*
X107152571Y-79675119D01*
X107152571Y-79522738D01*
X107190666Y-79446547D01*
X107647809Y-79789404D02*
X107685904Y-79713214D01*
X107685904Y-79522738D01*
X107647809Y-79446547D01*
X107571619Y-79408452D01*
X107495428Y-79408452D01*
X107419238Y-79446547D01*
X107381142Y-79522738D01*
X107381142Y-79713214D01*
X107343047Y-79789404D01*
X107685904Y-80170357D02*
X107152571Y-80170357D01*
X107304952Y-80170357D02*
X107228761Y-80208452D01*
X107190666Y-80246547D01*
X107152571Y-80322738D01*
X107152571Y-80398928D01*
X107685904Y-81008452D02*
X106885904Y-81008452D01*
X107647809Y-81008452D02*
X107685904Y-80932261D01*
X107685904Y-80779880D01*
X107647809Y-80703690D01*
X107609714Y-80665595D01*
X107533523Y-80627500D01*
X107304952Y-80627500D01*
X107228761Y-80665595D01*
X107190666Y-80703690D01*
X107152571Y-80779880D01*
X107152571Y-80932261D01*
X107190666Y-81008452D01*
X106885904Y-81884642D02*
X107685904Y-82151309D01*
X106885904Y-82417976D01*
X107685904Y-83103690D02*
X107685904Y-82646547D01*
X107685904Y-82875119D02*
X106885904Y-82875119D01*
X107000190Y-82798928D01*
X107076380Y-82722738D01*
X107114476Y-82646547D01*
X107609714Y-83446547D02*
X107647809Y-83484642D01*
X107685904Y-83446547D01*
X107647809Y-83408452D01*
X107609714Y-83446547D01*
X107685904Y-83446547D01*
X106885904Y-83979880D02*
X106885904Y-84056071D01*
X106924000Y-84132261D01*
X106962095Y-84170357D01*
X107038285Y-84208452D01*
X107190666Y-84246547D01*
X107381142Y-84246547D01*
X107533523Y-84208452D01*
X107609714Y-84170357D01*
X107647809Y-84132261D01*
X107685904Y-84056071D01*
X107685904Y-83979880D01*
X107647809Y-83903690D01*
X107609714Y-83865595D01*
X107533523Y-83827500D01*
X107381142Y-83789404D01*
X107190666Y-83789404D01*
X107038285Y-83827500D01*
X106962095Y-83865595D01*
X106924000Y-83903690D01*
X106885904Y-83979880D01*
D11*
%TO.C,J1*%
X107134000Y-64695428D02*
X107134000Y-65124000D01*
X107162571Y-65209714D01*
X107219714Y-65266857D01*
X107305428Y-65295428D01*
X107362571Y-65295428D01*
X106534000Y-65295428D02*
X106876857Y-65295428D01*
X106705428Y-65295428D02*
X106705428Y-64695428D01*
X106762571Y-64781142D01*
X106819714Y-64838285D01*
X106876857Y-64866857D01*
D12*
X113996500Y-62500000D02*
X113996500Y-67500000D01*
X100000000Y-62500000D02*
X113996500Y-62500000D01*
X100000000Y-67500000D02*
X100000000Y-62500000D01*
X113996500Y-67500000D02*
X100000000Y-67500000D01*
%TD*%
M02*
