%TF.GenerationSoftware,KiCad,Pcbnew,(6.0.0-0)*%
%TF.CreationDate,2022-03-07T15:49:25-05:00*%
%TF.ProjectId,qwiic,71776969-632e-46b6-9963-61645f706362,rev?*%
%TF.SameCoordinates,Original*%
%TF.FileFunction,Copper,L1,Top*%
%TF.FilePolarity,Positive*%
%FSLAX46Y46*%
G04 Gerber Fmt 4.6, Leading zero omitted, Abs format (unit mm)*
G04 Created by KiCad (PCBNEW (6.0.0-0)) date 2022-03-07 15:49:25*
%MOMM*%
%LPD*%
G01*
G04 APERTURE LIST*
G04 Aperture macros list*
%AMRoundRect*
0 Rectangle with rounded corners*
0 $1 Rounding radius*
0 $2 $3 $4 $5 $6 $7 $8 $9 X,Y pos of 4 corners*
0 Add a 4 corners polygon primitive as box body*
4,1,4,$2,$3,$4,$5,$6,$7,$8,$9,$2,$3,0*
0 Add four circle primitives for the rounded corners*
1,1,$1+$1,$2,$3*
1,1,$1+$1,$4,$5*
1,1,$1+$1,$6,$7*
1,1,$1+$1,$8,$9*
0 Add four rect primitives between the rounded corners*
20,1,$1+$1,$2,$3,$4,$5,0*
20,1,$1+$1,$4,$5,$6,$7,0*
20,1,$1+$1,$6,$7,$8,$9,0*
20,1,$1+$1,$8,$9,$2,$3,0*%
G04 Aperture macros list end*
%TA.AperFunction,ComponentPad*%
%ADD10C,4.500000*%
%TD*%
%TA.AperFunction,SMDPad,CuDef*%
%ADD11RoundRect,0.200000X-0.200000X-0.450000X0.200000X-0.450000X0.200000X0.450000X-0.200000X0.450000X0*%
%TD*%
%TA.AperFunction,SMDPad,CuDef*%
%ADD12RoundRect,0.250001X-0.799999X-1.249999X0.799999X-1.249999X0.799999X1.249999X-0.799999X1.249999X0*%
%TD*%
%TA.AperFunction,SMDPad,CuDef*%
%ADD13RoundRect,0.135000X0.135000X0.185000X-0.135000X0.185000X-0.135000X-0.185000X0.135000X-0.185000X0*%
%TD*%
%TA.AperFunction,SMDPad,CuDef*%
%ADD14RoundRect,0.150000X0.150000X0.625000X-0.150000X0.625000X-0.150000X-0.625000X0.150000X-0.625000X0*%
%TD*%
%TA.AperFunction,SMDPad,CuDef*%
%ADD15RoundRect,0.250000X0.350000X0.650000X-0.350000X0.650000X-0.350000X-0.650000X0.350000X-0.650000X0*%
%TD*%
%TA.AperFunction,SMDPad,CuDef*%
%ADD16RoundRect,0.150000X0.150000X-0.825000X0.150000X0.825000X-0.150000X0.825000X-0.150000X-0.825000X0*%
%TD*%
%TA.AperFunction,SMDPad,CuDef*%
%ADD17RoundRect,0.218750X-0.256250X0.218750X-0.256250X-0.218750X0.256250X-0.218750X0.256250X0.218750X0*%
%TD*%
%TA.AperFunction,ViaPad*%
%ADD18C,0.685800*%
%TD*%
%TA.AperFunction,Conductor*%
%ADD19C,0.254000*%
%TD*%
%TA.AperFunction,Conductor*%
%ADD20C,0.508000*%
%TD*%
G04 APERTURE END LIST*
D10*
%TO.P,H1,1,1*%
%TO.N,GND*%
X95000000Y-64000000D03*
%TD*%
%TO.P,H2,1,1*%
%TO.N,GND*%
X119000000Y-64000000D03*
%TD*%
D11*
%TO.P,J2,1*%
%TO.N,unconnected-(J2-Pad1)*%
X96082000Y-82189000D03*
%TO.P,J2,2*%
%TO.N,unconnected-(J2-Pad2)*%
X97332000Y-82189000D03*
%TO.P,J2,3*%
%TO.N,/~{RST}*%
X98582000Y-82189000D03*
%TO.P,J2,4*%
%TO.N,/RXD*%
X99832000Y-82189000D03*
%TO.P,J2,5*%
%TO.N,/TXD*%
X101082000Y-82189000D03*
%TO.P,J2,6*%
%TO.N,unconnected-(J2-Pad6)*%
X102332000Y-82189000D03*
%TO.P,J2,7*%
%TO.N,GND*%
X103582000Y-82189000D03*
%TO.P,J2,8*%
%TO.N,/5V*%
X104832000Y-82189000D03*
D12*
%TO.P,J2,MP*%
%TO.N,N/C*%
X107382000Y-84939000D03*
X93532000Y-84939000D03*
%TD*%
D13*
%TO.P,R1,1*%
%TO.N,/3V3*%
X99062000Y-63754000D03*
%TO.P,R1,2*%
%TO.N,Net-(D1-Pad2)*%
X98042000Y-63754000D03*
%TD*%
D14*
%TO.P,J1,1,GND*%
%TO.N,GND*%
X111530000Y-82895000D03*
%TO.P,J1,2,VCC*%
%TO.N,/3V3*%
X112530000Y-82895000D03*
%TO.P,J1,3,SDA*%
%TO.N,/SDA*%
X113530000Y-82895000D03*
%TO.P,J1,4,SCL*%
%TO.N,/SCL*%
X114530000Y-82895000D03*
D15*
%TO.P,J1,MP*%
%TO.N,N/C*%
X115830000Y-85420000D03*
X110230000Y-85420000D03*
%TD*%
D16*
%TO.P,U2,1,E0*%
%TO.N,unconnected-(U2-Pad1)*%
X94107000Y-75627000D03*
%TO.P,U2,2,E1*%
%TO.N,unconnected-(U2-Pad2)*%
X95377000Y-75627000D03*
%TO.P,U2,3,E2*%
%TO.N,unconnected-(U2-Pad3)*%
X96647000Y-75627000D03*
%TO.P,U2,4,VSS*%
%TO.N,GND*%
X97917000Y-75627000D03*
%TO.P,U2,5,SDA*%
%TO.N,/SDA_EEPROM*%
X97917000Y-70677000D03*
%TO.P,U2,6,SCL*%
%TO.N,/SCL_EEPROM*%
X96647000Y-70677000D03*
%TO.P,U2,7,~{WC}*%
%TO.N,unconnected-(U2-Pad7)*%
X95377000Y-70677000D03*
%TO.P,U2,8,VCC*%
%TO.N,/3V3*%
X94107000Y-70677000D03*
%TD*%
D17*
%TO.P,D1,1,K*%
%TO.N,GND*%
X98552000Y-66827500D03*
%TO.P,D1,2,A*%
%TO.N,Net-(D1-Pad2)*%
X98552000Y-65252500D03*
%TD*%
D10*
%TO.P,H3,1,1*%
%TO.N,GND*%
X119000000Y-78232000D03*
%TD*%
D18*
%TO.N,GND*%
X104902000Y-74168000D03*
X115316000Y-74930000D03*
X102362000Y-76454000D03*
X103124000Y-80137000D03*
X108331000Y-71120000D03*
X101219000Y-65024000D03*
X111760000Y-77470000D03*
X102108000Y-70358000D03*
X104013000Y-66675000D03*
X109220000Y-74930000D03*
X115316000Y-77470000D03*
X96012000Y-73152000D03*
X109220000Y-77470000D03*
X104013000Y-67564000D03*
X107315000Y-80391000D03*
X104902000Y-70104000D03*
X112903000Y-74930000D03*
X104902000Y-78740000D03*
X99949000Y-79248000D03*
X104013000Y-65786000D03*
%TO.N,/3V3*%
X104495600Y-64363600D03*
X104495600Y-62357000D03*
X104495600Y-63296800D03*
%TO.N,/SDA_EEPROM*%
X98806000Y-70358000D03*
%TO.N,/~{RST}*%
X105996500Y-66720000D03*
%TO.N,/SDA*%
X113538000Y-77343000D03*
%TO.N,/SCL*%
X112014000Y-66802000D03*
%TO.N,/SCL_EEPROM*%
X102108000Y-68834000D03*
%TO.N,/5V*%
X102489000Y-64135000D03*
X102496500Y-63320000D03*
%TO.N,/TXD*%
X108204000Y-69342000D03*
X109496500Y-63280000D03*
X101092000Y-76454000D03*
%TO.N,/RXD*%
X110496500Y-63280000D03*
X98298000Y-79502000D03*
X109982000Y-70612000D03*
%TD*%
D19*
%TO.N,Net-(D1-Pad2)*%
X98042000Y-64514000D02*
X98042000Y-63754000D01*
X98552000Y-65024000D02*
X98042000Y-64514000D01*
X98552000Y-65252500D02*
X98552000Y-65024000D01*
D20*
%TO.N,/3V3*%
X104495600Y-63296800D02*
X104495600Y-62357000D01*
D19*
X99062000Y-63754000D02*
X99062000Y-62990000D01*
X99314000Y-63754000D02*
X100330000Y-64770000D01*
X99822000Y-62230000D02*
X104368600Y-62230000D01*
X95250000Y-68072000D02*
X94107000Y-69215000D01*
X100330000Y-67564000D02*
X99822000Y-68072000D01*
D20*
X106934000Y-77724000D02*
X106934000Y-65532000D01*
X106172000Y-64770000D02*
X104902000Y-64770000D01*
D19*
X99822000Y-68072000D02*
X95250000Y-68072000D01*
X99062000Y-62990000D02*
X99822000Y-62230000D01*
X100330000Y-64770000D02*
X100330000Y-67564000D01*
D20*
X104495600Y-64363600D02*
X104495600Y-63296800D01*
D19*
X104368600Y-62230000D02*
X104495600Y-62357000D01*
D20*
X111252000Y-79121000D02*
X112530000Y-80399000D01*
D19*
X99062000Y-63754000D02*
X99314000Y-63754000D01*
D20*
X108331000Y-79121000D02*
X111252000Y-79121000D01*
X106934000Y-65532000D02*
X106172000Y-64770000D01*
X112530000Y-80399000D02*
X112530000Y-82895000D01*
D19*
X94107000Y-69215000D02*
X94107000Y-70677000D01*
D20*
X106934000Y-77724000D02*
X108331000Y-79121000D01*
X104902000Y-64770000D02*
X104495600Y-64363600D01*
D19*
%TO.N,/SDA_EEPROM*%
X98806000Y-70358000D02*
X98236000Y-70358000D01*
X98236000Y-70358000D02*
X97917000Y-70677000D01*
%TO.N,/~{RST}*%
X105996500Y-82979500D02*
X105996500Y-66720000D01*
X98582000Y-82189000D02*
X98582000Y-82961000D01*
X98582000Y-82961000D02*
X99695000Y-84074000D01*
X104902000Y-84074000D02*
X105996500Y-82979500D01*
X99695000Y-84074000D02*
X104902000Y-84074000D01*
%TO.N,/SDA*%
X113530000Y-82895000D02*
X113530000Y-77351000D01*
X113530000Y-77351000D02*
X113538000Y-77343000D01*
%TO.N,/SCL*%
X112014000Y-68834000D02*
X114554000Y-71374000D01*
X112014000Y-66802000D02*
X112014000Y-68834000D01*
X114554000Y-82871000D02*
X114530000Y-82895000D01*
X114554000Y-71374000D02*
X114554000Y-82871000D01*
%TO.N,/SCL_EEPROM*%
X97282000Y-68834000D02*
X96647000Y-69469000D01*
X102108000Y-68834000D02*
X97282000Y-68834000D01*
X96647000Y-69469000D02*
X96647000Y-70677000D01*
D20*
%TO.N,/5V*%
X102489000Y-67691000D02*
X103689000Y-68891000D01*
X104902000Y-80391000D02*
X104902000Y-82119000D01*
X104902000Y-82119000D02*
X104832000Y-82189000D01*
X103689000Y-68891000D02*
X103689000Y-79178000D01*
X103689000Y-79178000D02*
X104902000Y-80391000D01*
X102489000Y-63322200D02*
X102489000Y-64135000D01*
X102489000Y-64135000D02*
X102489000Y-67691000D01*
D19*
%TO.N,/TXD*%
X109496500Y-64747500D02*
X109496500Y-63280000D01*
X101082000Y-76464000D02*
X101092000Y-76454000D01*
X108204000Y-69342000D02*
X108204000Y-66040000D01*
X108204000Y-66040000D02*
X109496500Y-64747500D01*
X101082000Y-82189000D02*
X101082000Y-76464000D01*
%TO.N,/RXD*%
X109982000Y-70612000D02*
X109982000Y-67310000D01*
X99822000Y-82179000D02*
X99832000Y-82189000D01*
X110490000Y-63286500D02*
X110496500Y-63280000D01*
X110490000Y-66802000D02*
X110490000Y-63286500D01*
X109982000Y-67310000D02*
X110490000Y-66802000D01*
X98298000Y-79502000D02*
X99822000Y-81026000D01*
X99822000Y-81026000D02*
X99822000Y-82179000D01*
%TD*%
%TA.AperFunction,Conductor*%
%TO.N,GND*%
G36*
X106840512Y-78709304D02*
G01*
X106847095Y-78715433D01*
X107744190Y-79612528D01*
X107756577Y-79626941D01*
X107769546Y-79644564D01*
X107799455Y-79669973D01*
X107810055Y-79678979D01*
X107817571Y-79685909D01*
X107823315Y-79691653D01*
X107826189Y-79693927D01*
X107826196Y-79693933D01*
X107845711Y-79709372D01*
X107849115Y-79712163D01*
X107899472Y-79754945D01*
X107899476Y-79754948D01*
X107905051Y-79759684D01*
X107911566Y-79763011D01*
X107916636Y-79766392D01*
X107921858Y-79769617D01*
X107927600Y-79774160D01*
X107994112Y-79805246D01*
X107998006Y-79807149D01*
X108063404Y-79840543D01*
X108070521Y-79842284D01*
X108076239Y-79844411D01*
X108082045Y-79846342D01*
X108088679Y-79849443D01*
X108095847Y-79850934D01*
X108095850Y-79850935D01*
X108119845Y-79855926D01*
X108160539Y-79864391D01*
X108164797Y-79865354D01*
X108236112Y-79882804D01*
X108241718Y-79883152D01*
X108241719Y-79883152D01*
X108247330Y-79883500D01*
X108247328Y-79883539D01*
X108251229Y-79883772D01*
X108255588Y-79884161D01*
X108262756Y-79885652D01*
X108270073Y-79885454D01*
X108340577Y-79883546D01*
X108343986Y-79883500D01*
X110883972Y-79883500D01*
X110952093Y-79903502D01*
X110973067Y-79920405D01*
X111730595Y-80677933D01*
X111764621Y-80740245D01*
X111767500Y-80767028D01*
X111767500Y-82000015D01*
X111762497Y-82035167D01*
X111724438Y-82166169D01*
X111723934Y-82172574D01*
X111723933Y-82172579D01*
X111721693Y-82201042D01*
X111721500Y-82203498D01*
X111721500Y-83586502D01*
X111721693Y-83588950D01*
X111721693Y-83588958D01*
X111723927Y-83617336D01*
X111724438Y-83623831D01*
X111726233Y-83630008D01*
X111768643Y-83775989D01*
X111768645Y-83775993D01*
X111770855Y-83783601D01*
X111773885Y-83788725D01*
X111784000Y-83837570D01*
X111784000Y-84156878D01*
X111787973Y-84170409D01*
X111795871Y-84171544D01*
X111935790Y-84130893D01*
X111950221Y-84124648D01*
X111965370Y-84115689D01*
X112034186Y-84098230D01*
X112093648Y-84115690D01*
X112116399Y-84129145D01*
X112124010Y-84131356D01*
X112124012Y-84131357D01*
X112176231Y-84146528D01*
X112276169Y-84175562D01*
X112282574Y-84176066D01*
X112282579Y-84176067D01*
X112311042Y-84178307D01*
X112311050Y-84178307D01*
X112313498Y-84178500D01*
X112746502Y-84178500D01*
X112748950Y-84178307D01*
X112748958Y-84178307D01*
X112777421Y-84176067D01*
X112777426Y-84176066D01*
X112783831Y-84175562D01*
X112883769Y-84146528D01*
X112935988Y-84131357D01*
X112935990Y-84131356D01*
X112943601Y-84129145D01*
X112950426Y-84125109D01*
X112965863Y-84115980D01*
X113034679Y-84098522D01*
X113094137Y-84115980D01*
X113109574Y-84125109D01*
X113116399Y-84129145D01*
X113124010Y-84131356D01*
X113124012Y-84131357D01*
X113176231Y-84146528D01*
X113276169Y-84175562D01*
X113282574Y-84176066D01*
X113282579Y-84176067D01*
X113311042Y-84178307D01*
X113311050Y-84178307D01*
X113313498Y-84178500D01*
X113746502Y-84178500D01*
X113748950Y-84178307D01*
X113748958Y-84178307D01*
X113777421Y-84176067D01*
X113777426Y-84176066D01*
X113783831Y-84175562D01*
X113883769Y-84146528D01*
X113935988Y-84131357D01*
X113935990Y-84131356D01*
X113943601Y-84129145D01*
X113950426Y-84125109D01*
X113965863Y-84115980D01*
X114034679Y-84098522D01*
X114094137Y-84115980D01*
X114109574Y-84125109D01*
X114116399Y-84129145D01*
X114124010Y-84131356D01*
X114124012Y-84131357D01*
X114176231Y-84146528D01*
X114276169Y-84175562D01*
X114282574Y-84176066D01*
X114282579Y-84176067D01*
X114311042Y-84178307D01*
X114311050Y-84178307D01*
X114313498Y-84178500D01*
X114727870Y-84178500D01*
X114795991Y-84198502D01*
X114842484Y-84252158D01*
X114852588Y-84322432D01*
X114835130Y-84370616D01*
X114792470Y-84439824D01*
X114787885Y-84447262D01*
X114766736Y-84511024D01*
X114736323Y-84602719D01*
X114732203Y-84615139D01*
X114731503Y-84621975D01*
X114731502Y-84621978D01*
X114729109Y-84645333D01*
X114721500Y-84719600D01*
X114721500Y-86120400D01*
X114732474Y-86226166D01*
X114734657Y-86232708D01*
X114734657Y-86232710D01*
X114745137Y-86264123D01*
X114747723Y-86335073D01*
X114711539Y-86396157D01*
X114648075Y-86427982D01*
X114625614Y-86430000D01*
X111434298Y-86430000D01*
X111366177Y-86409998D01*
X111319684Y-86356342D01*
X111309580Y-86286068D01*
X111314705Y-86264333D01*
X111325632Y-86231389D01*
X111325632Y-86231387D01*
X111327797Y-86224861D01*
X111338500Y-86120400D01*
X111338500Y-84719600D01*
X111338163Y-84716350D01*
X111328238Y-84620692D01*
X111328237Y-84620688D01*
X111327526Y-84613834D01*
X111325179Y-84606797D01*
X111273868Y-84453002D01*
X111271550Y-84446054D01*
X111215335Y-84355212D01*
X111196497Y-84286760D01*
X111217658Y-84218991D01*
X111254057Y-84183105D01*
X111271971Y-84171520D01*
X111276000Y-84162630D01*
X111276000Y-83167115D01*
X111271525Y-83151876D01*
X111270135Y-83150671D01*
X111262452Y-83149000D01*
X110740116Y-83149000D01*
X110724877Y-83153475D01*
X110723672Y-83154865D01*
X110722001Y-83162548D01*
X110722001Y-83583984D01*
X110722195Y-83588920D01*
X110724430Y-83617336D01*
X110726730Y-83629931D01*
X110769107Y-83775790D01*
X110775354Y-83790226D01*
X110796894Y-83826649D01*
X110814353Y-83895466D01*
X110791835Y-83962797D01*
X110736490Y-84007265D01*
X110675598Y-84016131D01*
X110630400Y-84011500D01*
X109829600Y-84011500D01*
X109826354Y-84011837D01*
X109826350Y-84011837D01*
X109730692Y-84021762D01*
X109730688Y-84021763D01*
X109723834Y-84022474D01*
X109717298Y-84024655D01*
X109717296Y-84024655D01*
X109657955Y-84044453D01*
X109556054Y-84078450D01*
X109405652Y-84171522D01*
X109280695Y-84296697D01*
X109276855Y-84302927D01*
X109276854Y-84302928D01*
X109264832Y-84322432D01*
X109187885Y-84447262D01*
X109185581Y-84454209D01*
X109182487Y-84460844D01*
X109180930Y-84460118D01*
X109145664Y-84511024D01*
X109080100Y-84538262D01*
X109010218Y-84525729D01*
X108958206Y-84477406D01*
X108940500Y-84412998D01*
X108940500Y-83638600D01*
X108938294Y-83617336D01*
X108930238Y-83539693D01*
X108930237Y-83539689D01*
X108929526Y-83532835D01*
X108897142Y-83435767D01*
X108875868Y-83372003D01*
X108873550Y-83365055D01*
X108780478Y-83214652D01*
X108655303Y-83089695D01*
X108504738Y-82996885D01*
X108410941Y-82965774D01*
X108343389Y-82943368D01*
X108343387Y-82943368D01*
X108336861Y-82941203D01*
X108330025Y-82940503D01*
X108330022Y-82940502D01*
X108286969Y-82936091D01*
X108232400Y-82930500D01*
X106758000Y-82930500D01*
X106689879Y-82910498D01*
X106643386Y-82856842D01*
X106632000Y-82804500D01*
X106632000Y-82622885D01*
X110722000Y-82622885D01*
X110726475Y-82638124D01*
X110727865Y-82639329D01*
X110735548Y-82641000D01*
X111257885Y-82641000D01*
X111273124Y-82636525D01*
X111274329Y-82635135D01*
X111276000Y-82627452D01*
X111276000Y-81633122D01*
X111272027Y-81619591D01*
X111264129Y-81618456D01*
X111124210Y-81659107D01*
X111109779Y-81665352D01*
X110980322Y-81741911D01*
X110967896Y-81751551D01*
X110861551Y-81857896D01*
X110851911Y-81870322D01*
X110775352Y-81999779D01*
X110769107Y-82014210D01*
X110726731Y-82160065D01*
X110724430Y-82172667D01*
X110722193Y-82201084D01*
X110722000Y-82206014D01*
X110722000Y-82622885D01*
X106632000Y-82622885D01*
X106632000Y-78804528D01*
X106652002Y-78736407D01*
X106705658Y-78689914D01*
X106775932Y-78679810D01*
X106840512Y-78709304D01*
G37*
%TD.AperFunction*%
%TA.AperFunction,Conductor*%
G36*
X93508556Y-61466002D02*
G01*
X93555049Y-61519658D01*
X93565153Y-61589932D01*
X93535659Y-61654512D01*
X93504858Y-61680285D01*
X93450196Y-61712805D01*
X93443945Y-61717053D01*
X93250733Y-61866115D01*
X93242267Y-61877773D01*
X93248871Y-61889661D01*
X94987188Y-63627978D01*
X95001132Y-63635592D01*
X95002965Y-63635461D01*
X95009580Y-63631210D01*
X96750162Y-61890628D01*
X96757174Y-61877787D01*
X96749379Y-61867098D01*
X96579886Y-61733481D01*
X96573663Y-61729156D01*
X96492326Y-61679605D01*
X96444557Y-61627082D01*
X96432767Y-61557071D01*
X96460699Y-61491800D01*
X96519485Y-61451992D01*
X96557879Y-61446000D01*
X99432118Y-61446000D01*
X99500239Y-61466002D01*
X99546732Y-61519658D01*
X99556836Y-61589932D01*
X99527342Y-61654512D01*
X99506180Y-61673935D01*
X99477519Y-61694759D01*
X99467595Y-61701278D01*
X99436224Y-61719830D01*
X99436219Y-61719834D01*
X99429401Y-61723866D01*
X99415014Y-61738253D01*
X99399980Y-61751094D01*
X99383513Y-61763058D01*
X99378460Y-61769166D01*
X99355228Y-61797249D01*
X99347238Y-61806029D01*
X98668517Y-62484750D01*
X98660191Y-62492326D01*
X98653697Y-62496447D01*
X98614109Y-62538604D01*
X98606915Y-62546265D01*
X98604160Y-62549107D01*
X98584361Y-62568906D01*
X98581937Y-62572031D01*
X98581929Y-62572040D01*
X98581863Y-62572126D01*
X98574155Y-62581151D01*
X98543783Y-62613494D01*
X98539965Y-62620438D01*
X98539964Y-62620440D01*
X98533978Y-62631329D01*
X98523127Y-62647847D01*
X98510650Y-62663933D01*
X98493024Y-62704666D01*
X98487807Y-62715314D01*
X98486601Y-62717508D01*
X98466431Y-62754197D01*
X98464460Y-62761872D01*
X98464458Y-62761878D01*
X98461369Y-62773911D01*
X98454966Y-62792613D01*
X98446883Y-62811292D01*
X98445644Y-62819114D01*
X98445643Y-62819118D01*
X98444104Y-62828838D01*
X98413692Y-62892991D01*
X98353425Y-62930518D01*
X98291191Y-62930161D01*
X98290979Y-62931323D01*
X98284643Y-62930165D01*
X98278466Y-62928371D01*
X98272059Y-62927867D01*
X98272055Y-62927866D01*
X98244444Y-62925693D01*
X98244438Y-62925693D01*
X98241989Y-62925500D01*
X98042122Y-62925500D01*
X97842012Y-62925501D01*
X97805534Y-62928371D01*
X97765562Y-62939984D01*
X97677727Y-62965502D01*
X97606730Y-62965299D01*
X97547114Y-62926745D01*
X97527602Y-62896055D01*
X97450172Y-62723363D01*
X97446655Y-62716636D01*
X97279054Y-62438252D01*
X97274757Y-62431999D01*
X97133617Y-62251022D01*
X97121823Y-62242551D01*
X97110113Y-62249097D01*
X95372022Y-63987188D01*
X95364408Y-64001132D01*
X95364539Y-64002965D01*
X95368790Y-64009580D01*
X97108825Y-65749615D01*
X97121948Y-65756781D01*
X97132250Y-65749391D01*
X97241429Y-65615285D01*
X97245842Y-65609144D01*
X97336608Y-65465287D01*
X97389874Y-65418349D01*
X97460062Y-65407659D01*
X97524886Y-65436613D01*
X97563766Y-65496018D01*
X97567934Y-65519631D01*
X97568500Y-65519572D01*
X97579022Y-65620982D01*
X97632692Y-65781849D01*
X97721929Y-65926055D01*
X97727107Y-65931224D01*
X97747159Y-65951241D01*
X97781238Y-66013523D01*
X97776235Y-66084343D01*
X97747314Y-66129432D01*
X97726702Y-66150080D01*
X97717690Y-66161491D01*
X97636447Y-66293291D01*
X97630303Y-66306468D01*
X97581421Y-66453843D01*
X97578555Y-66467210D01*
X97569386Y-66556700D01*
X97573475Y-66570624D01*
X97574865Y-66571829D01*
X97582548Y-66573500D01*
X98680000Y-66573500D01*
X98748121Y-66593502D01*
X98794614Y-66647158D01*
X98806000Y-66699500D01*
X98806000Y-66955500D01*
X98785998Y-67023621D01*
X98732342Y-67070114D01*
X98680000Y-67081500D01*
X97587115Y-67081500D01*
X97571876Y-67085975D01*
X97570671Y-67087365D01*
X97569158Y-67094321D01*
X97569337Y-67097782D01*
X97578804Y-67189021D01*
X97581697Y-67202417D01*
X97604453Y-67270624D01*
X97607037Y-67341573D01*
X97570854Y-67402657D01*
X97507390Y-67434482D01*
X97484929Y-67436500D01*
X95329020Y-67436500D01*
X95317786Y-67435970D01*
X95310281Y-67434292D01*
X95242571Y-67436420D01*
X95241988Y-67436438D01*
X95238031Y-67436500D01*
X95210017Y-67436500D01*
X95206092Y-67436996D01*
X95206091Y-67436996D01*
X95205996Y-67437008D01*
X95194151Y-67437941D01*
X95164330Y-67438878D01*
X95157718Y-67439086D01*
X95157717Y-67439086D01*
X95149795Y-67439335D01*
X95130252Y-67445013D01*
X95110888Y-67449023D01*
X95098560Y-67450580D01*
X95098558Y-67450580D01*
X95090701Y-67451573D01*
X95083337Y-67454489D01*
X95083332Y-67454490D01*
X95049444Y-67467907D01*
X95038215Y-67471752D01*
X95021535Y-67476598D01*
X94995607Y-67484131D01*
X94988780Y-67488169D01*
X94988777Y-67488170D01*
X94978094Y-67494488D01*
X94960336Y-67503188D01*
X94948785Y-67507761D01*
X94948779Y-67507765D01*
X94941412Y-67510681D01*
X94909274Y-67534031D01*
X94905512Y-67536764D01*
X94895590Y-67543281D01*
X94864232Y-67561826D01*
X94864228Y-67561829D01*
X94857402Y-67565866D01*
X94843018Y-67580250D01*
X94827984Y-67593091D01*
X94811513Y-67605058D01*
X94806460Y-67611166D01*
X94783223Y-67639255D01*
X94775233Y-67648035D01*
X93713517Y-68709750D01*
X93705191Y-68717326D01*
X93698697Y-68721447D01*
X93693274Y-68727222D01*
X93651915Y-68771265D01*
X93649160Y-68774107D01*
X93629361Y-68793906D01*
X93626937Y-68797031D01*
X93626929Y-68797040D01*
X93626863Y-68797126D01*
X93619155Y-68806151D01*
X93588783Y-68838494D01*
X93584965Y-68845438D01*
X93584964Y-68845440D01*
X93578978Y-68856329D01*
X93568127Y-68872847D01*
X93555650Y-68888933D01*
X93538024Y-68929666D01*
X93532807Y-68940314D01*
X93511431Y-68979197D01*
X93509460Y-68986872D01*
X93509458Y-68986878D01*
X93506369Y-68998911D01*
X93499966Y-69017613D01*
X93491883Y-69036292D01*
X93488790Y-69055819D01*
X93484940Y-69080127D01*
X93482535Y-69091740D01*
X93471500Y-69134718D01*
X93471500Y-69155065D01*
X93469949Y-69174776D01*
X93466765Y-69194879D01*
X93467511Y-69202771D01*
X93470941Y-69239056D01*
X93471500Y-69250914D01*
X93471500Y-69354050D01*
X93451498Y-69422171D01*
X93442702Y-69433085D01*
X93443011Y-69433325D01*
X93438155Y-69439585D01*
X93432547Y-69445193D01*
X93428511Y-69452017D01*
X93428509Y-69452020D01*
X93403940Y-69493564D01*
X93347855Y-69588399D01*
X93301438Y-69748169D01*
X93298500Y-69785498D01*
X93298500Y-71568502D01*
X93301438Y-71605831D01*
X93347855Y-71765601D01*
X93351892Y-71772427D01*
X93428509Y-71901980D01*
X93428511Y-71901983D01*
X93432547Y-71908807D01*
X93550193Y-72026453D01*
X93557017Y-72030489D01*
X93557020Y-72030491D01*
X93664589Y-72094107D01*
X93693399Y-72111145D01*
X93701010Y-72113356D01*
X93701012Y-72113357D01*
X93753231Y-72128528D01*
X93853169Y-72157562D01*
X93859574Y-72158066D01*
X93859579Y-72158067D01*
X93888042Y-72160307D01*
X93888050Y-72160307D01*
X93890498Y-72160500D01*
X94323502Y-72160500D01*
X94325950Y-72160307D01*
X94325958Y-72160307D01*
X94354421Y-72158067D01*
X94354426Y-72158066D01*
X94360831Y-72157562D01*
X94460769Y-72128528D01*
X94512988Y-72113357D01*
X94512990Y-72113356D01*
X94520601Y-72111145D01*
X94663807Y-72026453D01*
X94666489Y-72023771D01*
X94730861Y-71998498D01*
X94800484Y-72012400D01*
X94816312Y-72022572D01*
X94820193Y-72026453D01*
X94963399Y-72111145D01*
X94971010Y-72113356D01*
X94971012Y-72113357D01*
X95023231Y-72128528D01*
X95123169Y-72157562D01*
X95129574Y-72158066D01*
X95129579Y-72158067D01*
X95158042Y-72160307D01*
X95158050Y-72160307D01*
X95160498Y-72160500D01*
X95593502Y-72160500D01*
X95595950Y-72160307D01*
X95595958Y-72160307D01*
X95624421Y-72158067D01*
X95624426Y-72158066D01*
X95630831Y-72157562D01*
X95730769Y-72128528D01*
X95782988Y-72113357D01*
X95782990Y-72113356D01*
X95790601Y-72111145D01*
X95933807Y-72026453D01*
X95936489Y-72023771D01*
X96000861Y-71998498D01*
X96070484Y-72012400D01*
X96086312Y-72022572D01*
X96090193Y-72026453D01*
X96233399Y-72111145D01*
X96241010Y-72113356D01*
X96241012Y-72113357D01*
X96293231Y-72128528D01*
X96393169Y-72157562D01*
X96399574Y-72158066D01*
X96399579Y-72158067D01*
X96428042Y-72160307D01*
X96428050Y-72160307D01*
X96430498Y-72160500D01*
X96863502Y-72160500D01*
X96865950Y-72160307D01*
X96865958Y-72160307D01*
X96894421Y-72158067D01*
X96894426Y-72158066D01*
X96900831Y-72157562D01*
X97000769Y-72128528D01*
X97052988Y-72113357D01*
X97052990Y-72113356D01*
X97060601Y-72111145D01*
X97203807Y-72026453D01*
X97206489Y-72023771D01*
X97270861Y-71998498D01*
X97340484Y-72012400D01*
X97356312Y-72022572D01*
X97360193Y-72026453D01*
X97503399Y-72111145D01*
X97511010Y-72113356D01*
X97511012Y-72113357D01*
X97563231Y-72128528D01*
X97663169Y-72157562D01*
X97669574Y-72158066D01*
X97669579Y-72158067D01*
X97698042Y-72160307D01*
X97698050Y-72160307D01*
X97700498Y-72160500D01*
X98133502Y-72160500D01*
X98135950Y-72160307D01*
X98135958Y-72160307D01*
X98164421Y-72158067D01*
X98164426Y-72158066D01*
X98170831Y-72157562D01*
X98270769Y-72128528D01*
X98322988Y-72113357D01*
X98322990Y-72113356D01*
X98330601Y-72111145D01*
X98359411Y-72094107D01*
X98466980Y-72030491D01*
X98466983Y-72030489D01*
X98473807Y-72026453D01*
X98591453Y-71908807D01*
X98595489Y-71901983D01*
X98595491Y-71901980D01*
X98672108Y-71772427D01*
X98676145Y-71765601D01*
X98722562Y-71605831D01*
X98725500Y-71568502D01*
X98725500Y-71335400D01*
X98745502Y-71267279D01*
X98799158Y-71220786D01*
X98851500Y-71209400D01*
X98895486Y-71209400D01*
X98901939Y-71208028D01*
X98901943Y-71208028D01*
X98983016Y-71190795D01*
X99070546Y-71172190D01*
X99076577Y-71169505D01*
X99228015Y-71102081D01*
X99228017Y-71102080D01*
X99234045Y-71099396D01*
X99239387Y-71095515D01*
X99373492Y-70998082D01*
X99373494Y-70998080D01*
X99378836Y-70994199D01*
X99395410Y-70975792D01*
X99494172Y-70866105D01*
X99494173Y-70866104D01*
X99498591Y-70861197D01*
X99588077Y-70706203D01*
X99643382Y-70535991D01*
X99662090Y-70358000D01*
X99649902Y-70242043D01*
X99644072Y-70186573D01*
X99644072Y-70186572D01*
X99643382Y-70180009D01*
X99588077Y-70009797D01*
X99566999Y-69973288D01*
X99501892Y-69860521D01*
X99498591Y-69854803D01*
X99433978Y-69783042D01*
X99383258Y-69726712D01*
X99383257Y-69726711D01*
X99378836Y-69721801D01*
X99345299Y-69697435D01*
X99301947Y-69641213D01*
X99295872Y-69570477D01*
X99329004Y-69507685D01*
X99390824Y-69472774D01*
X99419362Y-69469500D01*
X101493262Y-69469500D01*
X101561383Y-69489502D01*
X101567323Y-69493564D01*
X101673185Y-69570477D01*
X101679955Y-69575396D01*
X101685983Y-69578080D01*
X101685985Y-69578081D01*
X101772510Y-69616604D01*
X101843454Y-69648190D01*
X101930984Y-69666795D01*
X102012057Y-69684028D01*
X102012061Y-69684028D01*
X102018514Y-69685400D01*
X102197486Y-69685400D01*
X102203939Y-69684028D01*
X102203943Y-69684028D01*
X102285016Y-69666795D01*
X102372546Y-69648190D01*
X102443490Y-69616604D01*
X102530015Y-69578081D01*
X102530017Y-69578080D01*
X102536045Y-69575396D01*
X102541387Y-69571515D01*
X102675492Y-69474082D01*
X102675494Y-69474080D01*
X102680836Y-69470199D01*
X102685258Y-69465288D01*
X102706864Y-69441292D01*
X102767310Y-69404052D01*
X102838294Y-69405404D01*
X102897278Y-69444918D01*
X102925536Y-69510048D01*
X102926500Y-69525602D01*
X102926500Y-79110624D01*
X102925067Y-79129574D01*
X102922876Y-79143973D01*
X102922876Y-79143979D01*
X102921776Y-79151208D01*
X102922369Y-79158500D01*
X102922369Y-79158503D01*
X102926085Y-79204183D01*
X102926500Y-79214398D01*
X102926500Y-79222525D01*
X102929811Y-79250924D01*
X102930238Y-79255244D01*
X102936191Y-79328426D01*
X102938447Y-79335388D01*
X102939643Y-79341376D01*
X102941051Y-79347333D01*
X102941899Y-79354607D01*
X102944397Y-79361489D01*
X102944398Y-79361493D01*
X102966945Y-79423607D01*
X102968355Y-79427711D01*
X102990987Y-79497575D01*
X102994787Y-79503838D01*
X102997325Y-79509380D01*
X103000067Y-79514856D01*
X103002566Y-79521741D01*
X103006581Y-79527865D01*
X103042815Y-79583132D01*
X103045130Y-79586800D01*
X103083227Y-79649581D01*
X103086941Y-79653786D01*
X103086943Y-79653789D01*
X103090667Y-79658005D01*
X103090638Y-79658031D01*
X103093238Y-79660962D01*
X103096042Y-79664316D01*
X103100054Y-79670435D01*
X103105366Y-79675467D01*
X103156586Y-79723988D01*
X103159028Y-79726366D01*
X104102595Y-80669933D01*
X104136621Y-80732245D01*
X104139500Y-80759028D01*
X104139500Y-80937518D01*
X104119498Y-81005639D01*
X104065842Y-81052132D01*
X103995568Y-81062236D01*
X103975822Y-81057753D01*
X103918350Y-81039743D01*
X103905306Y-81037131D01*
X103850414Y-81032087D01*
X103838876Y-81035475D01*
X103837671Y-81036865D01*
X103836000Y-81044548D01*
X103836000Y-82317000D01*
X103815998Y-82385121D01*
X103762342Y-82431614D01*
X103710000Y-82443000D01*
X103454000Y-82443000D01*
X103385879Y-82422998D01*
X103339386Y-82369342D01*
X103328000Y-82317000D01*
X103328000Y-81049116D01*
X103323525Y-81033877D01*
X103322135Y-81032672D01*
X103317706Y-81031709D01*
X103258685Y-81037132D01*
X103245649Y-81039743D01*
X103095757Y-81086715D01*
X103082008Y-81092923D01*
X103022753Y-81128809D01*
X102954124Y-81146988D01*
X102892211Y-81128809D01*
X102832956Y-81092923D01*
X102825699Y-81088528D01*
X102818452Y-81086257D01*
X102818450Y-81086256D01*
X102752164Y-81065483D01*
X102662062Y-81037247D01*
X102588635Y-81030500D01*
X102585737Y-81030500D01*
X102331335Y-81030501D01*
X102075366Y-81030501D01*
X102072508Y-81030764D01*
X102072499Y-81030764D01*
X102038619Y-81033877D01*
X102001938Y-81037247D01*
X101881178Y-81075091D01*
X101810195Y-81076376D01*
X101749784Y-81039079D01*
X101719127Y-80975042D01*
X101717500Y-80954857D01*
X101717500Y-77080076D01*
X101737502Y-77011955D01*
X101749864Y-76995765D01*
X101780172Y-76962105D01*
X101780173Y-76962104D01*
X101784591Y-76957197D01*
X101874077Y-76802203D01*
X101924446Y-76647184D01*
X101927342Y-76638270D01*
X101927342Y-76638269D01*
X101929382Y-76631991D01*
X101945077Y-76482671D01*
X101947400Y-76460565D01*
X101948090Y-76454000D01*
X101929382Y-76276009D01*
X101874077Y-76105797D01*
X101870210Y-76099098D01*
X101787892Y-75956521D01*
X101784591Y-75950803D01*
X101779191Y-75944805D01*
X101669258Y-75822712D01*
X101669257Y-75822711D01*
X101664836Y-75817801D01*
X101629446Y-75792088D01*
X101525387Y-75716485D01*
X101525386Y-75716484D01*
X101520045Y-75712604D01*
X101514017Y-75709920D01*
X101514015Y-75709919D01*
X101362577Y-75642495D01*
X101362576Y-75642495D01*
X101356546Y-75639810D01*
X101269016Y-75621205D01*
X101187943Y-75603972D01*
X101187939Y-75603972D01*
X101181486Y-75602600D01*
X101002514Y-75602600D01*
X100996061Y-75603972D01*
X100996057Y-75603972D01*
X100914984Y-75621205D01*
X100827454Y-75639810D01*
X100821424Y-75642495D01*
X100821423Y-75642495D01*
X100669985Y-75709919D01*
X100669983Y-75709920D01*
X100663955Y-75712604D01*
X100658614Y-75716484D01*
X100658613Y-75716485D01*
X100554555Y-75792088D01*
X100519164Y-75817801D01*
X100514743Y-75822711D01*
X100514742Y-75822712D01*
X100404810Y-75944805D01*
X100399409Y-75950803D01*
X100396108Y-75956521D01*
X100313791Y-76099098D01*
X100309923Y-76105797D01*
X100254618Y-76276009D01*
X100235910Y-76454000D01*
X100236600Y-76460565D01*
X100238924Y-76482671D01*
X100254618Y-76631991D01*
X100256658Y-76638269D01*
X100256658Y-76638270D01*
X100259554Y-76647184D01*
X100309923Y-76802203D01*
X100399409Y-76957197D01*
X100403827Y-76962104D01*
X100403828Y-76962105D01*
X100414136Y-76973553D01*
X100444854Y-77037560D01*
X100446500Y-77057863D01*
X100446500Y-80447577D01*
X100426498Y-80515698D01*
X100372842Y-80562191D01*
X100302568Y-80572295D01*
X100237988Y-80542801D01*
X100231405Y-80536672D01*
X99180633Y-79485900D01*
X99146607Y-79423588D01*
X99144418Y-79409976D01*
X99136072Y-79330573D01*
X99136072Y-79330572D01*
X99135382Y-79324009D01*
X99113046Y-79255264D01*
X99082119Y-79160082D01*
X99080077Y-79153797D01*
X98990591Y-78998803D01*
X98870836Y-78865801D01*
X98726045Y-78760604D01*
X98720017Y-78757920D01*
X98720015Y-78757919D01*
X98568577Y-78690495D01*
X98568576Y-78690495D01*
X98562546Y-78687810D01*
X98475016Y-78669205D01*
X98393943Y-78651972D01*
X98393939Y-78651972D01*
X98387486Y-78650600D01*
X98208514Y-78650600D01*
X98202061Y-78651972D01*
X98202057Y-78651972D01*
X98120984Y-78669205D01*
X98033454Y-78687810D01*
X98027424Y-78690495D01*
X98027423Y-78690495D01*
X97875985Y-78757919D01*
X97875983Y-78757920D01*
X97869955Y-78760604D01*
X97725164Y-78865801D01*
X97605409Y-78998803D01*
X97515923Y-79153797D01*
X97513881Y-79160082D01*
X97482955Y-79255264D01*
X97460618Y-79324009D01*
X97441910Y-79502000D01*
X97442600Y-79508565D01*
X97451390Y-79592190D01*
X97460618Y-79679991D01*
X97515923Y-79850203D01*
X97519226Y-79855925D01*
X97519227Y-79855926D01*
X97541645Y-79894754D01*
X97605409Y-80005197D01*
X97725164Y-80138199D01*
X97869955Y-80243396D01*
X97875983Y-80246080D01*
X97875985Y-80246081D01*
X98027423Y-80313505D01*
X98033454Y-80316190D01*
X98208514Y-80353400D01*
X98211653Y-80353400D01*
X98276122Y-80379921D01*
X98286394Y-80389126D01*
X98712673Y-80815405D01*
X98746699Y-80877717D01*
X98741634Y-80948532D01*
X98699087Y-81005368D01*
X98632567Y-81030179D01*
X98623578Y-81030500D01*
X98332156Y-81030501D01*
X98325366Y-81030501D01*
X98322508Y-81030764D01*
X98322499Y-81030764D01*
X98288619Y-81033877D01*
X98251938Y-81037247D01*
X98245560Y-81039246D01*
X98245559Y-81039246D01*
X98095550Y-81086256D01*
X98095548Y-81086257D01*
X98088301Y-81088528D01*
X98081044Y-81092923D01*
X98022271Y-81128517D01*
X97953641Y-81146696D01*
X97891729Y-81128517D01*
X97832956Y-81092923D01*
X97825699Y-81088528D01*
X97818452Y-81086257D01*
X97818450Y-81086256D01*
X97752164Y-81065483D01*
X97662062Y-81037247D01*
X97588635Y-81030500D01*
X97585737Y-81030500D01*
X97331335Y-81030501D01*
X97075366Y-81030501D01*
X97072508Y-81030764D01*
X97072499Y-81030764D01*
X97038619Y-81033877D01*
X97001938Y-81037247D01*
X96995560Y-81039246D01*
X96995559Y-81039246D01*
X96845550Y-81086256D01*
X96845548Y-81086257D01*
X96838301Y-81088528D01*
X96831044Y-81092923D01*
X96772271Y-81128517D01*
X96703641Y-81146696D01*
X96641729Y-81128517D01*
X96582956Y-81092923D01*
X96575699Y-81088528D01*
X96568452Y-81086257D01*
X96568450Y-81086256D01*
X96502164Y-81065483D01*
X96412062Y-81037247D01*
X96338635Y-81030500D01*
X96335737Y-81030500D01*
X96081335Y-81030501D01*
X95825366Y-81030501D01*
X95822508Y-81030764D01*
X95822499Y-81030764D01*
X95788619Y-81033877D01*
X95751938Y-81037247D01*
X95745560Y-81039246D01*
X95745559Y-81039246D01*
X95595550Y-81086256D01*
X95595548Y-81086257D01*
X95588301Y-81088528D01*
X95441619Y-81177361D01*
X95320361Y-81298619D01*
X95231528Y-81445301D01*
X95180247Y-81608938D01*
X95173500Y-81682365D01*
X95173501Y-82695634D01*
X95180247Y-82769062D01*
X95182246Y-82775440D01*
X95182246Y-82775441D01*
X95228095Y-82921743D01*
X95231528Y-82932699D01*
X95320361Y-83079381D01*
X95441619Y-83200639D01*
X95588301Y-83289472D01*
X95595548Y-83291743D01*
X95595550Y-83291744D01*
X95639408Y-83305488D01*
X95751938Y-83340753D01*
X95825365Y-83347500D01*
X95828263Y-83347500D01*
X96082665Y-83347499D01*
X96338634Y-83347499D01*
X96341492Y-83347236D01*
X96341501Y-83347236D01*
X96377004Y-83343974D01*
X96412062Y-83340753D01*
X96418447Y-83338752D01*
X96568450Y-83291744D01*
X96568452Y-83291743D01*
X96575699Y-83289472D01*
X96641729Y-83249483D01*
X96710359Y-83231304D01*
X96772270Y-83249483D01*
X96838301Y-83289472D01*
X96845548Y-83291743D01*
X96845550Y-83291744D01*
X96889408Y-83305488D01*
X97001938Y-83340753D01*
X97075365Y-83347500D01*
X97078263Y-83347500D01*
X97332665Y-83347499D01*
X97588634Y-83347499D01*
X97591492Y-83347236D01*
X97591501Y-83347236D01*
X97627004Y-83343974D01*
X97662062Y-83340753D01*
X97668447Y-83338752D01*
X97818450Y-83291744D01*
X97818452Y-83291743D01*
X97825699Y-83289472D01*
X97872031Y-83261413D01*
X97940659Y-83243234D01*
X98008223Y-83265044D01*
X98039237Y-83295128D01*
X98046764Y-83305488D01*
X98053281Y-83315410D01*
X98071826Y-83346768D01*
X98071829Y-83346772D01*
X98075866Y-83353598D01*
X98090250Y-83367982D01*
X98103091Y-83383016D01*
X98115058Y-83399487D01*
X98121166Y-83404540D01*
X98149255Y-83427777D01*
X98158035Y-83435767D01*
X99189750Y-84467483D01*
X99197326Y-84475809D01*
X99201447Y-84482303D01*
X99207222Y-84487726D01*
X99251265Y-84529085D01*
X99254107Y-84531840D01*
X99273906Y-84551639D01*
X99277031Y-84554063D01*
X99277040Y-84554071D01*
X99277126Y-84554137D01*
X99286151Y-84561845D01*
X99318494Y-84592217D01*
X99325438Y-84596035D01*
X99325440Y-84596036D01*
X99336329Y-84602022D01*
X99352847Y-84612873D01*
X99368933Y-84625350D01*
X99409666Y-84642976D01*
X99420314Y-84648193D01*
X99431942Y-84654585D01*
X99459197Y-84669569D01*
X99466872Y-84671540D01*
X99466878Y-84671542D01*
X99478911Y-84674631D01*
X99497613Y-84681034D01*
X99516292Y-84689117D01*
X99549818Y-84694427D01*
X99560127Y-84696060D01*
X99571740Y-84698465D01*
X99614718Y-84709500D01*
X99635065Y-84709500D01*
X99654777Y-84711051D01*
X99674879Y-84714235D01*
X99682771Y-84713489D01*
X99719056Y-84710059D01*
X99730914Y-84709500D01*
X104822980Y-84709500D01*
X104834214Y-84710030D01*
X104841719Y-84711708D01*
X104910012Y-84709562D01*
X104913969Y-84709500D01*
X104941983Y-84709500D01*
X104945908Y-84709004D01*
X104945909Y-84709004D01*
X104946004Y-84708992D01*
X104957849Y-84708059D01*
X104987670Y-84707122D01*
X104994282Y-84706914D01*
X104994283Y-84706914D01*
X105002205Y-84706665D01*
X105021749Y-84700987D01*
X105041112Y-84696977D01*
X105053440Y-84695420D01*
X105053442Y-84695420D01*
X105061299Y-84694427D01*
X105068663Y-84691511D01*
X105068668Y-84691510D01*
X105102556Y-84678093D01*
X105113785Y-84674248D01*
X105130465Y-84669402D01*
X105156393Y-84661869D01*
X105163220Y-84657831D01*
X105163223Y-84657830D01*
X105173906Y-84651512D01*
X105191664Y-84642812D01*
X105203215Y-84638239D01*
X105203221Y-84638235D01*
X105210588Y-84635319D01*
X105219977Y-84628498D01*
X105246488Y-84609236D01*
X105256410Y-84602719D01*
X105287768Y-84584174D01*
X105287772Y-84584171D01*
X105294598Y-84580134D01*
X105308982Y-84565750D01*
X105324016Y-84552909D01*
X105334073Y-84545602D01*
X105340487Y-84540942D01*
X105368778Y-84506744D01*
X105376767Y-84497965D01*
X105608405Y-84266327D01*
X105670717Y-84232301D01*
X105741532Y-84237366D01*
X105798368Y-84279913D01*
X105823179Y-84346433D01*
X105823500Y-84355422D01*
X105823500Y-86239400D01*
X105828854Y-86290997D01*
X105815990Y-86360817D01*
X105767419Y-86412599D01*
X105703527Y-86430000D01*
X95210541Y-86430000D01*
X95142420Y-86409998D01*
X95095927Y-86356342D01*
X95085197Y-86291157D01*
X95090172Y-86242598D01*
X95090500Y-86239400D01*
X95090500Y-83638600D01*
X95088294Y-83617336D01*
X95080238Y-83539693D01*
X95080237Y-83539689D01*
X95079526Y-83532835D01*
X95047142Y-83435767D01*
X95025868Y-83372003D01*
X95023550Y-83365055D01*
X94930478Y-83214652D01*
X94805303Y-83089695D01*
X94654738Y-82996885D01*
X94560941Y-82965774D01*
X94493389Y-82943368D01*
X94493387Y-82943368D01*
X94486861Y-82941203D01*
X94480025Y-82940503D01*
X94480022Y-82940502D01*
X94436969Y-82936091D01*
X94382400Y-82930500D01*
X92681600Y-82930500D01*
X92678359Y-82930836D01*
X92678345Y-82930837D01*
X92642002Y-82934608D01*
X92572181Y-82921743D01*
X92520400Y-82873171D01*
X92503000Y-82809281D01*
X92503000Y-76518502D01*
X93298500Y-76518502D01*
X93298693Y-76520950D01*
X93298693Y-76520958D01*
X93300927Y-76549333D01*
X93301438Y-76555831D01*
X93325969Y-76640268D01*
X93345586Y-76707790D01*
X93347855Y-76715601D01*
X93351892Y-76722427D01*
X93428509Y-76851980D01*
X93428511Y-76851983D01*
X93432547Y-76858807D01*
X93550193Y-76976453D01*
X93557016Y-76980488D01*
X93557020Y-76980491D01*
X93653519Y-77037560D01*
X93693399Y-77061145D01*
X93701010Y-77063356D01*
X93701012Y-77063357D01*
X93753231Y-77078528D01*
X93853169Y-77107562D01*
X93859574Y-77108066D01*
X93859579Y-77108067D01*
X93888042Y-77110307D01*
X93888050Y-77110307D01*
X93890498Y-77110500D01*
X94323502Y-77110500D01*
X94325950Y-77110307D01*
X94325958Y-77110307D01*
X94354421Y-77108067D01*
X94354426Y-77108066D01*
X94360831Y-77107562D01*
X94460769Y-77078528D01*
X94512988Y-77063357D01*
X94512990Y-77063356D01*
X94520601Y-77061145D01*
X94663807Y-76976453D01*
X94666489Y-76973771D01*
X94730861Y-76948498D01*
X94800484Y-76962400D01*
X94816312Y-76972572D01*
X94820193Y-76976453D01*
X94963399Y-77061145D01*
X94971010Y-77063356D01*
X94971012Y-77063357D01*
X95023231Y-77078528D01*
X95123169Y-77107562D01*
X95129574Y-77108066D01*
X95129579Y-77108067D01*
X95158042Y-77110307D01*
X95158050Y-77110307D01*
X95160498Y-77110500D01*
X95593502Y-77110500D01*
X95595950Y-77110307D01*
X95595958Y-77110307D01*
X95624421Y-77108067D01*
X95624426Y-77108066D01*
X95630831Y-77107562D01*
X95730769Y-77078528D01*
X95782988Y-77063357D01*
X95782990Y-77063356D01*
X95790601Y-77061145D01*
X95933807Y-76976453D01*
X95936489Y-76973771D01*
X96000861Y-76948498D01*
X96070484Y-76962400D01*
X96086312Y-76972572D01*
X96090193Y-76976453D01*
X96233399Y-77061145D01*
X96241010Y-77063356D01*
X96241012Y-77063357D01*
X96293231Y-77078528D01*
X96393169Y-77107562D01*
X96399574Y-77108066D01*
X96399579Y-77108067D01*
X96428042Y-77110307D01*
X96428050Y-77110307D01*
X96430498Y-77110500D01*
X96863502Y-77110500D01*
X96865950Y-77110307D01*
X96865958Y-77110307D01*
X96894421Y-77108067D01*
X96894426Y-77108066D01*
X96900831Y-77107562D01*
X97000769Y-77078528D01*
X97052988Y-77063357D01*
X97052990Y-77063356D01*
X97060601Y-77061145D01*
X97203807Y-76976453D01*
X97206747Y-76973513D01*
X97271271Y-76948179D01*
X97340894Y-76962080D01*
X97359640Y-76974129D01*
X97367323Y-76980089D01*
X97496779Y-77056648D01*
X97511210Y-77062893D01*
X97645605Y-77101939D01*
X97659706Y-77101899D01*
X97663000Y-77094630D01*
X97663000Y-77088878D01*
X98171000Y-77088878D01*
X98174973Y-77102409D01*
X98182871Y-77103544D01*
X98322790Y-77062893D01*
X98337221Y-77056648D01*
X98466678Y-76980089D01*
X98479104Y-76970449D01*
X98585449Y-76864104D01*
X98595089Y-76851678D01*
X98671648Y-76722221D01*
X98677893Y-76707790D01*
X98720269Y-76561935D01*
X98722570Y-76549333D01*
X98724807Y-76520916D01*
X98725000Y-76515986D01*
X98725000Y-75899115D01*
X98720525Y-75883876D01*
X98719135Y-75882671D01*
X98711452Y-75881000D01*
X98189115Y-75881000D01*
X98173876Y-75885475D01*
X98172671Y-75886865D01*
X98171000Y-75894548D01*
X98171000Y-77088878D01*
X97663000Y-77088878D01*
X97663000Y-75354885D01*
X98171000Y-75354885D01*
X98175475Y-75370124D01*
X98176865Y-75371329D01*
X98184548Y-75373000D01*
X98706884Y-75373000D01*
X98722123Y-75368525D01*
X98723328Y-75367135D01*
X98724999Y-75359452D01*
X98724999Y-74738017D01*
X98724805Y-74733080D01*
X98722570Y-74704664D01*
X98720270Y-74692069D01*
X98677893Y-74546210D01*
X98671648Y-74531779D01*
X98595089Y-74402322D01*
X98585449Y-74389896D01*
X98479104Y-74283551D01*
X98466678Y-74273911D01*
X98337221Y-74197352D01*
X98322790Y-74191107D01*
X98188395Y-74152061D01*
X98174294Y-74152101D01*
X98171000Y-74159370D01*
X98171000Y-75354885D01*
X97663000Y-75354885D01*
X97663000Y-74165122D01*
X97659027Y-74151591D01*
X97651129Y-74150456D01*
X97511210Y-74191107D01*
X97496779Y-74197352D01*
X97367324Y-74273910D01*
X97359636Y-74279874D01*
X97293551Y-74305821D01*
X97223928Y-74291920D01*
X97207842Y-74281582D01*
X97203807Y-74277547D01*
X97060601Y-74192855D01*
X97052990Y-74190644D01*
X97052988Y-74190643D01*
X96965142Y-74165122D01*
X96900831Y-74146438D01*
X96894426Y-74145934D01*
X96894421Y-74145933D01*
X96865958Y-74143693D01*
X96865950Y-74143693D01*
X96863502Y-74143500D01*
X96430498Y-74143500D01*
X96428050Y-74143693D01*
X96428042Y-74143693D01*
X96399579Y-74145933D01*
X96399574Y-74145934D01*
X96393169Y-74146438D01*
X96328858Y-74165122D01*
X96241012Y-74190643D01*
X96241010Y-74190644D01*
X96233399Y-74192855D01*
X96090193Y-74277547D01*
X96087511Y-74280229D01*
X96023139Y-74305502D01*
X95953516Y-74291600D01*
X95937688Y-74281428D01*
X95933807Y-74277547D01*
X95790601Y-74192855D01*
X95782990Y-74190644D01*
X95782988Y-74190643D01*
X95695142Y-74165122D01*
X95630831Y-74146438D01*
X95624426Y-74145934D01*
X95624421Y-74145933D01*
X95595958Y-74143693D01*
X95595950Y-74143693D01*
X95593502Y-74143500D01*
X95160498Y-74143500D01*
X95158050Y-74143693D01*
X95158042Y-74143693D01*
X95129579Y-74145933D01*
X95129574Y-74145934D01*
X95123169Y-74146438D01*
X95058858Y-74165122D01*
X94971012Y-74190643D01*
X94971010Y-74190644D01*
X94963399Y-74192855D01*
X94820193Y-74277547D01*
X94817511Y-74280229D01*
X94753139Y-74305502D01*
X94683516Y-74291600D01*
X94667688Y-74281428D01*
X94663807Y-74277547D01*
X94520601Y-74192855D01*
X94512990Y-74190644D01*
X94512988Y-74190643D01*
X94425142Y-74165122D01*
X94360831Y-74146438D01*
X94354426Y-74145934D01*
X94354421Y-74145933D01*
X94325958Y-74143693D01*
X94325950Y-74143693D01*
X94323502Y-74143500D01*
X93890498Y-74143500D01*
X93888050Y-74143693D01*
X93888042Y-74143693D01*
X93859579Y-74145933D01*
X93859574Y-74145934D01*
X93853169Y-74146438D01*
X93788858Y-74165122D01*
X93701012Y-74190643D01*
X93701010Y-74190644D01*
X93693399Y-74192855D01*
X93686572Y-74196892D01*
X93686573Y-74196892D01*
X93557020Y-74273509D01*
X93557017Y-74273511D01*
X93550193Y-74277547D01*
X93432547Y-74395193D01*
X93428511Y-74402017D01*
X93428509Y-74402020D01*
X93364893Y-74509589D01*
X93347855Y-74538399D01*
X93345644Y-74546010D01*
X93345643Y-74546012D01*
X93330472Y-74598231D01*
X93301438Y-74698169D01*
X93300934Y-74704574D01*
X93300933Y-74704579D01*
X93298693Y-74733042D01*
X93298500Y-74735498D01*
X93298500Y-76518502D01*
X92503000Y-76518502D01*
X92503000Y-66121982D01*
X93243142Y-66121982D01*
X93250668Y-66132415D01*
X93396463Y-66249848D01*
X93402648Y-66254244D01*
X93678363Y-66426195D01*
X93685034Y-66429817D01*
X93979414Y-66567402D01*
X93986468Y-66570195D01*
X94295257Y-66671420D01*
X94302570Y-66673339D01*
X94621298Y-66736738D01*
X94628789Y-66737764D01*
X94952823Y-66762413D01*
X94960386Y-66762531D01*
X95285021Y-66748074D01*
X95292562Y-66747282D01*
X95613115Y-66693926D01*
X95620479Y-66692240D01*
X95932315Y-66600757D01*
X95939424Y-66598198D01*
X96238003Y-66469919D01*
X96244770Y-66466515D01*
X96525764Y-66303301D01*
X96532071Y-66299111D01*
X96750005Y-66134588D01*
X96758461Y-66123197D01*
X96751743Y-66110953D01*
X95012812Y-64372022D01*
X94998868Y-64364408D01*
X94997035Y-64364539D01*
X94990420Y-64368790D01*
X93250257Y-66108953D01*
X93243142Y-66121982D01*
X92503000Y-66121982D01*
X92503000Y-65647024D01*
X92523002Y-65578903D01*
X92576658Y-65532410D01*
X92646932Y-65522306D01*
X92711512Y-65551800D01*
X92729163Y-65570582D01*
X92865792Y-65749608D01*
X92877316Y-65758069D01*
X92889382Y-65751408D01*
X94627978Y-64012812D01*
X94635592Y-63998868D01*
X94635461Y-63997035D01*
X94631210Y-63990420D01*
X92890864Y-62250074D01*
X92877929Y-62243011D01*
X92867367Y-62250671D01*
X92741785Y-62408268D01*
X92737427Y-62414469D01*
X92736261Y-62416360D01*
X92735816Y-62416760D01*
X92735245Y-62417573D01*
X92735059Y-62417442D01*
X92683489Y-62463855D01*
X92613418Y-62475279D01*
X92548294Y-62447006D01*
X92508793Y-62388012D01*
X92503000Y-62350246D01*
X92503000Y-61572000D01*
X92523002Y-61503879D01*
X92576658Y-61457386D01*
X92629000Y-61446000D01*
X93440435Y-61446000D01*
X93508556Y-61466002D01*
G37*
%TD.AperFunction*%
%TA.AperFunction,Conductor*%
G36*
X117508556Y-61466002D02*
G01*
X117555049Y-61519658D01*
X117565153Y-61589932D01*
X117535659Y-61654512D01*
X117504858Y-61680285D01*
X117450196Y-61712805D01*
X117443945Y-61717053D01*
X117250733Y-61866115D01*
X117242267Y-61877773D01*
X117248871Y-61889661D01*
X118987188Y-63627978D01*
X119001132Y-63635592D01*
X119002965Y-63635461D01*
X119009580Y-63631210D01*
X120750162Y-61890628D01*
X120757174Y-61877787D01*
X120749379Y-61867098D01*
X120579886Y-61733481D01*
X120573663Y-61729156D01*
X120492326Y-61679605D01*
X120444557Y-61627082D01*
X120432767Y-61557071D01*
X120460699Y-61491800D01*
X120519485Y-61451992D01*
X120557879Y-61446000D01*
X121361000Y-61446000D01*
X121429121Y-61466002D01*
X121475614Y-61519658D01*
X121487000Y-61572000D01*
X121487000Y-62337698D01*
X121466998Y-62405819D01*
X121413342Y-62452312D01*
X121343068Y-62462416D01*
X121278488Y-62432922D01*
X121261643Y-62415184D01*
X121133617Y-62251022D01*
X121121823Y-62242551D01*
X121110113Y-62249097D01*
X119372022Y-63987188D01*
X119364408Y-64001132D01*
X119364539Y-64002965D01*
X119368790Y-64009580D01*
X121108825Y-65749615D01*
X121121948Y-65756781D01*
X121132250Y-65749391D01*
X121241429Y-65615285D01*
X121245838Y-65609149D01*
X121254437Y-65595520D01*
X121307703Y-65548581D01*
X121377891Y-65537891D01*
X121442715Y-65566844D01*
X121481596Y-65626248D01*
X121487000Y-65662754D01*
X121487000Y-76569698D01*
X121466998Y-76637819D01*
X121413342Y-76684312D01*
X121343068Y-76694416D01*
X121278488Y-76664922D01*
X121261643Y-76647184D01*
X121133617Y-76483022D01*
X121121823Y-76474551D01*
X121110113Y-76481097D01*
X119372022Y-78219188D01*
X119364408Y-78233132D01*
X119364539Y-78234965D01*
X119368790Y-78241580D01*
X121108825Y-79981615D01*
X121121948Y-79988781D01*
X121132250Y-79981391D01*
X121241429Y-79847285D01*
X121245838Y-79841149D01*
X121254437Y-79827520D01*
X121307703Y-79780581D01*
X121377891Y-79769891D01*
X121442715Y-79798844D01*
X121481596Y-79858248D01*
X121487000Y-79894754D01*
X121487000Y-86304000D01*
X121466998Y-86372121D01*
X121413342Y-86418614D01*
X121361000Y-86430000D01*
X117034298Y-86430000D01*
X116966177Y-86409998D01*
X116919684Y-86356342D01*
X116909580Y-86286068D01*
X116914705Y-86264333D01*
X116925632Y-86231389D01*
X116925632Y-86231387D01*
X116927797Y-86224861D01*
X116938500Y-86120400D01*
X116938500Y-84719600D01*
X116938163Y-84716350D01*
X116928238Y-84620692D01*
X116928237Y-84620688D01*
X116927526Y-84613834D01*
X116925179Y-84606797D01*
X116873868Y-84453002D01*
X116871550Y-84446054D01*
X116778478Y-84295652D01*
X116769571Y-84286760D01*
X116701683Y-84218991D01*
X116653303Y-84170695D01*
X116630888Y-84156878D01*
X116508968Y-84081725D01*
X116508966Y-84081724D01*
X116502738Y-84077885D01*
X116342254Y-84024655D01*
X116341389Y-84024368D01*
X116341387Y-84024368D01*
X116334861Y-84022203D01*
X116328025Y-84021503D01*
X116328022Y-84021502D01*
X116275598Y-84016131D01*
X116230400Y-84011500D01*
X115429600Y-84011500D01*
X115385144Y-84016113D01*
X115315325Y-84003249D01*
X115263542Y-83954678D01*
X115246239Y-83885823D01*
X115263686Y-83826649D01*
X115289145Y-83783601D01*
X115291356Y-83775990D01*
X115291357Y-83775988D01*
X115333767Y-83630008D01*
X115335562Y-83623831D01*
X115336074Y-83617336D01*
X115338307Y-83588958D01*
X115338307Y-83588950D01*
X115338500Y-83586502D01*
X115338500Y-82203498D01*
X115338307Y-82201042D01*
X115336067Y-82172579D01*
X115336066Y-82172574D01*
X115335562Y-82166169D01*
X115292500Y-82017947D01*
X115291357Y-82014012D01*
X115291356Y-82014010D01*
X115289145Y-82006399D01*
X115207047Y-81867579D01*
X115189500Y-81803440D01*
X115189500Y-80353982D01*
X117243142Y-80353982D01*
X117250668Y-80364415D01*
X117396463Y-80481848D01*
X117402648Y-80486244D01*
X117678363Y-80658195D01*
X117685034Y-80661817D01*
X117979414Y-80799402D01*
X117986468Y-80802195D01*
X118295257Y-80903420D01*
X118302570Y-80905339D01*
X118621298Y-80968738D01*
X118628789Y-80969764D01*
X118952823Y-80994413D01*
X118960386Y-80994531D01*
X119285021Y-80980074D01*
X119292562Y-80979282D01*
X119613115Y-80925926D01*
X119620479Y-80924240D01*
X119932315Y-80832757D01*
X119939424Y-80830198D01*
X120238003Y-80701919D01*
X120244770Y-80698515D01*
X120525764Y-80535301D01*
X120532071Y-80531111D01*
X120750005Y-80366588D01*
X120758461Y-80355197D01*
X120751743Y-80342953D01*
X119012812Y-78604022D01*
X118998868Y-78596408D01*
X118997035Y-78596539D01*
X118990420Y-78600790D01*
X117250257Y-80340953D01*
X117243142Y-80353982D01*
X115189500Y-80353982D01*
X115189500Y-78206858D01*
X116237299Y-78206858D01*
X116253456Y-78531410D01*
X116254287Y-78538939D01*
X116309318Y-78859198D01*
X116311051Y-78866585D01*
X116404156Y-79177909D01*
X116406759Y-79185022D01*
X116536595Y-79482913D01*
X116540037Y-79489669D01*
X116704720Y-79769803D01*
X116708943Y-79776088D01*
X116865792Y-79981608D01*
X116877316Y-79990069D01*
X116889382Y-79983408D01*
X118627978Y-78244812D01*
X118635592Y-78230868D01*
X118635461Y-78229035D01*
X118631210Y-78222420D01*
X116890864Y-76482074D01*
X116877929Y-76475011D01*
X116867367Y-76482671D01*
X116741785Y-76640268D01*
X116737428Y-76646467D01*
X116566913Y-76923094D01*
X116563333Y-76929770D01*
X116427287Y-77224878D01*
X116424537Y-77231929D01*
X116324927Y-77541251D01*
X116323044Y-77548584D01*
X116261316Y-77867632D01*
X116260329Y-77875132D01*
X116237378Y-78199277D01*
X116237299Y-78206858D01*
X115189500Y-78206858D01*
X115189500Y-76109773D01*
X117242267Y-76109773D01*
X117248871Y-76121661D01*
X118987188Y-77859978D01*
X119001132Y-77867592D01*
X119002965Y-77867461D01*
X119009580Y-77863210D01*
X120750162Y-76122628D01*
X120757174Y-76109787D01*
X120749379Y-76099098D01*
X120579886Y-75965481D01*
X120573663Y-75961156D01*
X120296140Y-75792088D01*
X120289465Y-75788553D01*
X119993637Y-75654049D01*
X119986567Y-75651335D01*
X119676740Y-75553350D01*
X119669389Y-75551503D01*
X119350024Y-75491446D01*
X119342515Y-75490498D01*
X119018251Y-75469245D01*
X119010686Y-75469205D01*
X118686207Y-75487062D01*
X118678693Y-75487931D01*
X118358713Y-75544641D01*
X118351357Y-75546406D01*
X118040503Y-75641147D01*
X118033409Y-75643786D01*
X117736207Y-75775178D01*
X117729470Y-75778655D01*
X117450196Y-75944805D01*
X117443945Y-75949053D01*
X117250733Y-76098115D01*
X117242267Y-76109773D01*
X115189500Y-76109773D01*
X115189500Y-71453020D01*
X115190029Y-71441791D01*
X115191708Y-71434281D01*
X115189562Y-71366001D01*
X115189500Y-71362044D01*
X115189500Y-71334017D01*
X115188989Y-71329971D01*
X115188057Y-71318136D01*
X115186913Y-71281720D01*
X115186664Y-71273795D01*
X115180987Y-71254253D01*
X115176978Y-71234894D01*
X115176819Y-71233633D01*
X115174427Y-71214701D01*
X115171511Y-71207337D01*
X115171510Y-71207332D01*
X115162834Y-71185421D01*
X115158086Y-71173428D01*
X115154249Y-71162224D01*
X115141868Y-71119607D01*
X115131511Y-71102093D01*
X115122815Y-71084343D01*
X115118239Y-71072785D01*
X115118236Y-71072780D01*
X115115319Y-71065412D01*
X115089233Y-71029507D01*
X115082716Y-71019585D01*
X115064172Y-70988228D01*
X115064170Y-70988225D01*
X115060134Y-70981401D01*
X115045747Y-70967014D01*
X115032906Y-70951980D01*
X115025602Y-70941927D01*
X115020942Y-70935513D01*
X114986750Y-70907227D01*
X114977971Y-70899238D01*
X112686405Y-68607672D01*
X112652379Y-68545360D01*
X112649500Y-68518577D01*
X112649500Y-67416969D01*
X112669502Y-67348848D01*
X112681858Y-67332665D01*
X112706591Y-67305197D01*
X112796077Y-67150203D01*
X112837206Y-67023621D01*
X112849342Y-66986270D01*
X112849342Y-66986269D01*
X112851382Y-66979991D01*
X112870090Y-66802000D01*
X112851382Y-66624009D01*
X112835677Y-66575672D01*
X112798119Y-66460082D01*
X112796077Y-66453797D01*
X112706591Y-66298803D01*
X112586836Y-66165801D01*
X112579513Y-66160480D01*
X112526525Y-66121982D01*
X117243142Y-66121982D01*
X117250668Y-66132415D01*
X117396463Y-66249848D01*
X117402648Y-66254244D01*
X117678363Y-66426195D01*
X117685034Y-66429817D01*
X117979414Y-66567402D01*
X117986468Y-66570195D01*
X118295257Y-66671420D01*
X118302570Y-66673339D01*
X118621298Y-66736738D01*
X118628789Y-66737764D01*
X118952823Y-66762413D01*
X118960386Y-66762531D01*
X119285021Y-66748074D01*
X119292562Y-66747282D01*
X119613115Y-66693926D01*
X119620479Y-66692240D01*
X119932315Y-66600757D01*
X119939424Y-66598198D01*
X120238003Y-66469919D01*
X120244770Y-66466515D01*
X120525764Y-66303301D01*
X120532071Y-66299111D01*
X120750005Y-66134588D01*
X120758461Y-66123197D01*
X120751743Y-66110953D01*
X119012812Y-64372022D01*
X118998868Y-64364408D01*
X118997035Y-64364539D01*
X118990420Y-64368790D01*
X117250257Y-66108953D01*
X117243142Y-66121982D01*
X112526525Y-66121982D01*
X112447387Y-66064485D01*
X112447386Y-66064484D01*
X112442045Y-66060604D01*
X112436017Y-66057920D01*
X112436015Y-66057919D01*
X112284577Y-65990495D01*
X112284576Y-65990495D01*
X112278546Y-65987810D01*
X112191016Y-65969205D01*
X112109943Y-65951972D01*
X112109939Y-65951972D01*
X112103486Y-65950600D01*
X111924514Y-65950600D01*
X111918061Y-65951972D01*
X111918057Y-65951972D01*
X111836984Y-65969205D01*
X111749454Y-65987810D01*
X111743424Y-65990495D01*
X111743423Y-65990495D01*
X111591985Y-66057919D01*
X111591983Y-66057920D01*
X111585955Y-66060604D01*
X111580614Y-66064484D01*
X111580613Y-66064485D01*
X111448488Y-66160480D01*
X111441164Y-66165801D01*
X111436743Y-66170711D01*
X111436742Y-66170712D01*
X111345136Y-66272451D01*
X111284690Y-66309691D01*
X111213706Y-66308339D01*
X111154722Y-66268826D01*
X111126464Y-66203695D01*
X111125500Y-66188141D01*
X111125500Y-63993385D01*
X111636000Y-63993385D01*
X111637372Y-63999837D01*
X111637372Y-63999842D01*
X111645922Y-64040066D01*
X111674832Y-64176074D01*
X111677517Y-64182104D01*
X111677517Y-64182105D01*
X111738587Y-64319270D01*
X111750798Y-64346697D01*
X111754678Y-64352038D01*
X111754679Y-64352039D01*
X111828554Y-64453719D01*
X111860579Y-64497797D01*
X111865481Y-64502210D01*
X111865482Y-64502212D01*
X111994468Y-64618352D01*
X111999376Y-64622771D01*
X112005097Y-64626074D01*
X112030479Y-64640728D01*
X112161124Y-64716156D01*
X112180086Y-64722317D01*
X112332474Y-64771831D01*
X112332475Y-64771831D01*
X112338753Y-64773871D01*
X112345316Y-64774561D01*
X112345317Y-64774561D01*
X112368097Y-64776955D01*
X112477937Y-64788500D01*
X112571063Y-64788500D01*
X112680903Y-64776955D01*
X112703683Y-64774561D01*
X112703684Y-64774561D01*
X112710247Y-64773871D01*
X112716525Y-64771831D01*
X112716526Y-64771831D01*
X112868914Y-64722317D01*
X112887876Y-64716156D01*
X113018522Y-64640728D01*
X113043903Y-64626074D01*
X113049624Y-64622771D01*
X113054532Y-64618352D01*
X113183518Y-64502212D01*
X113183519Y-64502210D01*
X113188421Y-64497797D01*
X113220446Y-64453719D01*
X113294321Y-64352039D01*
X113294322Y-64352038D01*
X113298202Y-64346697D01*
X113310414Y-64319270D01*
X113371483Y-64182105D01*
X113371483Y-64182104D01*
X113374168Y-64176074D01*
X113403078Y-64040066D01*
X113411628Y-63999842D01*
X113411628Y-63999837D01*
X113413000Y-63993385D01*
X113413000Y-63974858D01*
X116237299Y-63974858D01*
X116253456Y-64299410D01*
X116254287Y-64306939D01*
X116309318Y-64627198D01*
X116311051Y-64634585D01*
X116404156Y-64945909D01*
X116406759Y-64953022D01*
X116536595Y-65250913D01*
X116540037Y-65257669D01*
X116704720Y-65537803D01*
X116708943Y-65544088D01*
X116865792Y-65749608D01*
X116877316Y-65758069D01*
X116889382Y-65751408D01*
X118627978Y-64012812D01*
X118635592Y-63998868D01*
X118635461Y-63997035D01*
X118631210Y-63990420D01*
X116890864Y-62250074D01*
X116877929Y-62243011D01*
X116867367Y-62250671D01*
X116741785Y-62408268D01*
X116737428Y-62414467D01*
X116566913Y-62691094D01*
X116563333Y-62697770D01*
X116427287Y-62992878D01*
X116424537Y-62999929D01*
X116324927Y-63309251D01*
X116323044Y-63316584D01*
X116261316Y-63635632D01*
X116260329Y-63643132D01*
X116237378Y-63967277D01*
X116237299Y-63974858D01*
X113413000Y-63974858D01*
X113413000Y-63806615D01*
X113410124Y-63793082D01*
X113383579Y-63668203D01*
X113374168Y-63623926D01*
X113320779Y-63504011D01*
X113300887Y-63459333D01*
X113300886Y-63459331D01*
X113298202Y-63453303D01*
X113188421Y-63302203D01*
X113182421Y-63296800D01*
X113054532Y-63181648D01*
X113054531Y-63181647D01*
X113049624Y-63177229D01*
X112988621Y-63142009D01*
X112893599Y-63087148D01*
X112893598Y-63087147D01*
X112887876Y-63083844D01*
X112723503Y-63030436D01*
X112716526Y-63028169D01*
X112716525Y-63028169D01*
X112710247Y-63026129D01*
X112703684Y-63025439D01*
X112703683Y-63025439D01*
X112680903Y-63023045D01*
X112571063Y-63011500D01*
X112477937Y-63011500D01*
X112368097Y-63023045D01*
X112345317Y-63025439D01*
X112345316Y-63025439D01*
X112338753Y-63026129D01*
X112332475Y-63028169D01*
X112332474Y-63028169D01*
X112325497Y-63030436D01*
X112161124Y-63083844D01*
X112155402Y-63087147D01*
X112155401Y-63087148D01*
X112060379Y-63142009D01*
X111999376Y-63177229D01*
X111994469Y-63181647D01*
X111994468Y-63181648D01*
X111866580Y-63296800D01*
X111860579Y-63302203D01*
X111750798Y-63453303D01*
X111748114Y-63459331D01*
X111748113Y-63459333D01*
X111728221Y-63504011D01*
X111674832Y-63623926D01*
X111665421Y-63668203D01*
X111638877Y-63793082D01*
X111636000Y-63806615D01*
X111636000Y-63993385D01*
X111125500Y-63993385D01*
X111125500Y-63902188D01*
X111145502Y-63834067D01*
X111157858Y-63817884D01*
X111189091Y-63783197D01*
X111248492Y-63680312D01*
X111275273Y-63633926D01*
X111275274Y-63633925D01*
X111278577Y-63628203D01*
X111326383Y-63481070D01*
X111331842Y-63464270D01*
X111331842Y-63464269D01*
X111333882Y-63457991D01*
X111344787Y-63354244D01*
X111351900Y-63286565D01*
X111352590Y-63280000D01*
X111333882Y-63102009D01*
X111329054Y-63087148D01*
X111290992Y-62970007D01*
X111278577Y-62931797D01*
X111274942Y-62925500D01*
X111219133Y-62828838D01*
X111189091Y-62776803D01*
X111129043Y-62710112D01*
X111073758Y-62648712D01*
X111073757Y-62648711D01*
X111069336Y-62643801D01*
X111037183Y-62620440D01*
X110929887Y-62542485D01*
X110929886Y-62542484D01*
X110924545Y-62538604D01*
X110918517Y-62535920D01*
X110918515Y-62535919D01*
X110767077Y-62468495D01*
X110767076Y-62468495D01*
X110761046Y-62465810D01*
X110672580Y-62447006D01*
X110592443Y-62429972D01*
X110592439Y-62429972D01*
X110585986Y-62428600D01*
X110407014Y-62428600D01*
X110400561Y-62429972D01*
X110400557Y-62429972D01*
X110320420Y-62447006D01*
X110231954Y-62465810D01*
X110225924Y-62468495D01*
X110225923Y-62468495D01*
X110074485Y-62535919D01*
X110074483Y-62535920D01*
X110068455Y-62538604D01*
X110063114Y-62542485D01*
X110059502Y-62544570D01*
X109990506Y-62561309D01*
X109933498Y-62544570D01*
X109929886Y-62542485D01*
X109924545Y-62538604D01*
X109918517Y-62535920D01*
X109918515Y-62535919D01*
X109767077Y-62468495D01*
X109767076Y-62468495D01*
X109761046Y-62465810D01*
X109672580Y-62447006D01*
X109592443Y-62429972D01*
X109592439Y-62429972D01*
X109585986Y-62428600D01*
X109407014Y-62428600D01*
X109400561Y-62429972D01*
X109400557Y-62429972D01*
X109320420Y-62447006D01*
X109231954Y-62465810D01*
X109225924Y-62468495D01*
X109225923Y-62468495D01*
X109074485Y-62535919D01*
X109074483Y-62535920D01*
X109068455Y-62538604D01*
X109063114Y-62542484D01*
X109063113Y-62542485D01*
X108955818Y-62620440D01*
X108923664Y-62643801D01*
X108919243Y-62648711D01*
X108919242Y-62648712D01*
X108863958Y-62710112D01*
X108803909Y-62776803D01*
X108773867Y-62828838D01*
X108718059Y-62925500D01*
X108714423Y-62931797D01*
X108702008Y-62970007D01*
X108663947Y-63087148D01*
X108659118Y-63102009D01*
X108640410Y-63280000D01*
X108641100Y-63286565D01*
X108648214Y-63354244D01*
X108659118Y-63457991D01*
X108661158Y-63464269D01*
X108661158Y-63464270D01*
X108666617Y-63481070D01*
X108714423Y-63628203D01*
X108717726Y-63633925D01*
X108717727Y-63633926D01*
X108744508Y-63680312D01*
X108803909Y-63783197D01*
X108828637Y-63810660D01*
X108859353Y-63874666D01*
X108861000Y-63894969D01*
X108861000Y-64432078D01*
X108840998Y-64500199D01*
X108824099Y-64521169D01*
X107898710Y-65446557D01*
X107836400Y-65480581D01*
X107765584Y-65475516D01*
X107708749Y-65432969D01*
X107687033Y-65384330D01*
X107686809Y-65381574D01*
X107684554Y-65374612D01*
X107683356Y-65368619D01*
X107681949Y-65362666D01*
X107681101Y-65355393D01*
X107678603Y-65348511D01*
X107678602Y-65348507D01*
X107656055Y-65286393D01*
X107654645Y-65282289D01*
X107632013Y-65212425D01*
X107628213Y-65206162D01*
X107625675Y-65200620D01*
X107622933Y-65195144D01*
X107620434Y-65188259D01*
X107580185Y-65126868D01*
X107577870Y-65123200D01*
X107539773Y-65060419D01*
X107532333Y-65051995D01*
X107532362Y-65051969D01*
X107529762Y-65049038D01*
X107526958Y-65045684D01*
X107522946Y-65039565D01*
X107466413Y-64986011D01*
X107463972Y-64983634D01*
X106758810Y-64278472D01*
X106746423Y-64264059D01*
X106737795Y-64252335D01*
X106733454Y-64246436D01*
X106692945Y-64212021D01*
X106685429Y-64205091D01*
X106679685Y-64199347D01*
X106676811Y-64197073D01*
X106676804Y-64197067D01*
X106657289Y-64181628D01*
X106653885Y-64178837D01*
X106603528Y-64136055D01*
X106603524Y-64136052D01*
X106597949Y-64131316D01*
X106591432Y-64127988D01*
X106586368Y-64124611D01*
X106581144Y-64121384D01*
X106575400Y-64116840D01*
X106549109Y-64104552D01*
X106508918Y-64085768D01*
X106504967Y-64083837D01*
X106446117Y-64053787D01*
X106439596Y-64050457D01*
X106432481Y-64048716D01*
X106426735Y-64046579D01*
X106420952Y-64044655D01*
X106414321Y-64041556D01*
X106342443Y-64026606D01*
X106338171Y-64025639D01*
X106266888Y-64008196D01*
X106261289Y-64007849D01*
X106261285Y-64007848D01*
X106255670Y-64007500D01*
X106255672Y-64007461D01*
X106251771Y-64007228D01*
X106247412Y-64006839D01*
X106240244Y-64005348D01*
X106232927Y-64005546D01*
X106162423Y-64007454D01*
X106159014Y-64007500D01*
X105384100Y-64007500D01*
X105315979Y-63987498D01*
X105269486Y-63933842D01*
X105258100Y-63881500D01*
X105258100Y-63712673D01*
X105272934Y-63657308D01*
X105271689Y-63656754D01*
X105274373Y-63650726D01*
X105277677Y-63645003D01*
X105332982Y-63474791D01*
X105351690Y-63296800D01*
X105335860Y-63146189D01*
X105333672Y-63125373D01*
X105333672Y-63125372D01*
X105332982Y-63118809D01*
X105327524Y-63102009D01*
X105285215Y-62971797D01*
X105277677Y-62948597D01*
X105274373Y-62942874D01*
X105271689Y-62936846D01*
X105272934Y-62936292D01*
X105258100Y-62880927D01*
X105258100Y-62772873D01*
X105272934Y-62717508D01*
X105271689Y-62716954D01*
X105274373Y-62710926D01*
X105277677Y-62705203D01*
X105320944Y-62572040D01*
X105330942Y-62541270D01*
X105330942Y-62541269D01*
X105332982Y-62534991D01*
X105345575Y-62415184D01*
X105351000Y-62363565D01*
X105351690Y-62357000D01*
X105332982Y-62179009D01*
X105277677Y-62008797D01*
X105188191Y-61853803D01*
X105076244Y-61729472D01*
X105072858Y-61725712D01*
X105072857Y-61725711D01*
X105068436Y-61720801D01*
X105057431Y-61712805D01*
X105003932Y-61673936D01*
X104960578Y-61617714D01*
X104954503Y-61546977D01*
X104987634Y-61484186D01*
X105049455Y-61449274D01*
X105077993Y-61446000D01*
X117440435Y-61446000D01*
X117508556Y-61466002D01*
G37*
%TD.AperFunction*%
%TA.AperFunction,Conductor*%
G36*
X103635220Y-62885502D02*
G01*
X103681713Y-62939158D01*
X103691817Y-63009432D01*
X103686932Y-63030436D01*
X103663677Y-63102009D01*
X103658218Y-63118809D01*
X103657528Y-63125372D01*
X103657528Y-63125373D01*
X103655340Y-63146189D01*
X103639510Y-63296800D01*
X103658218Y-63474791D01*
X103713523Y-63645003D01*
X103716827Y-63650726D01*
X103719511Y-63656754D01*
X103718266Y-63657308D01*
X103733100Y-63712673D01*
X103733100Y-63947727D01*
X103718266Y-64003092D01*
X103719511Y-64003646D01*
X103716827Y-64009674D01*
X103713523Y-64015397D01*
X103658218Y-64185609D01*
X103657528Y-64192172D01*
X103657528Y-64192173D01*
X103646257Y-64299410D01*
X103639510Y-64363600D01*
X103658218Y-64541591D01*
X103713523Y-64711803D01*
X103716826Y-64717525D01*
X103716827Y-64717526D01*
X103724039Y-64730017D01*
X103803009Y-64866797D01*
X103922764Y-64999799D01*
X103928106Y-65003680D01*
X103928108Y-65003682D01*
X104000408Y-65056211D01*
X104067555Y-65104996D01*
X104073581Y-65107679D01*
X104073588Y-65107683D01*
X104210439Y-65168612D01*
X104248286Y-65194624D01*
X104315190Y-65261528D01*
X104327577Y-65275941D01*
X104340546Y-65293564D01*
X104346129Y-65298307D01*
X104381055Y-65327979D01*
X104388571Y-65334909D01*
X104394315Y-65340653D01*
X104397189Y-65342927D01*
X104397196Y-65342933D01*
X104416711Y-65358372D01*
X104420115Y-65361163D01*
X104470472Y-65403945D01*
X104470476Y-65403948D01*
X104476051Y-65408684D01*
X104482566Y-65412011D01*
X104487636Y-65415392D01*
X104492858Y-65418617D01*
X104498600Y-65423160D01*
X104565112Y-65454246D01*
X104569006Y-65456149D01*
X104634404Y-65489543D01*
X104641521Y-65491284D01*
X104647239Y-65493411D01*
X104653045Y-65495342D01*
X104659679Y-65498443D01*
X104666847Y-65499934D01*
X104666850Y-65499935D01*
X104711867Y-65509299D01*
X104731539Y-65513391D01*
X104735797Y-65514354D01*
X104807112Y-65531804D01*
X104812718Y-65532152D01*
X104812719Y-65532152D01*
X104818330Y-65532500D01*
X104818328Y-65532539D01*
X104822229Y-65532772D01*
X104826588Y-65533161D01*
X104833756Y-65534652D01*
X104841073Y-65534454D01*
X104911577Y-65532546D01*
X104914986Y-65532500D01*
X105803972Y-65532500D01*
X105872093Y-65552502D01*
X105893067Y-65569405D01*
X105978968Y-65655306D01*
X106012994Y-65717618D01*
X106007929Y-65788433D01*
X105965382Y-65845269D01*
X105906927Y-65868189D01*
X105907014Y-65868600D01*
X105731954Y-65905810D01*
X105725924Y-65908495D01*
X105725923Y-65908495D01*
X105574485Y-65975919D01*
X105574483Y-65975920D01*
X105568455Y-65978604D01*
X105563114Y-65982484D01*
X105563113Y-65982485D01*
X105455592Y-66060604D01*
X105423664Y-66083801D01*
X105303909Y-66216803D01*
X105271781Y-66272451D01*
X105231953Y-66341435D01*
X105214423Y-66371797D01*
X105159118Y-66542009D01*
X105140410Y-66720000D01*
X105141100Y-66726565D01*
X105143278Y-66747282D01*
X105159118Y-66897991D01*
X105161158Y-66904269D01*
X105161158Y-66904270D01*
X105185007Y-66977669D01*
X105214423Y-67068203D01*
X105217726Y-67073925D01*
X105217727Y-67073926D01*
X105229502Y-67094321D01*
X105303909Y-67223197D01*
X105328637Y-67250660D01*
X105359353Y-67314666D01*
X105361000Y-67334969D01*
X105361000Y-79467472D01*
X105340998Y-79535593D01*
X105287342Y-79582086D01*
X105217068Y-79592190D01*
X105152488Y-79562696D01*
X105145905Y-79556567D01*
X104488405Y-78899067D01*
X104454379Y-78836755D01*
X104451500Y-78809972D01*
X104451500Y-68958368D01*
X104452933Y-68939417D01*
X104455123Y-68925024D01*
X104455123Y-68925022D01*
X104456223Y-68917792D01*
X104451915Y-68864825D01*
X104451500Y-68854611D01*
X104451500Y-68846475D01*
X104450606Y-68838803D01*
X104448190Y-68818088D01*
X104447757Y-68813709D01*
X104442403Y-68747872D01*
X104442402Y-68747869D01*
X104441809Y-68740573D01*
X104439554Y-68733611D01*
X104438354Y-68727607D01*
X104436948Y-68721660D01*
X104436101Y-68714393D01*
X104411053Y-68645387D01*
X104409625Y-68641227D01*
X104389269Y-68578391D01*
X104389268Y-68578389D01*
X104387012Y-68571425D01*
X104383215Y-68565168D01*
X104380660Y-68559587D01*
X104377929Y-68554134D01*
X104375434Y-68547259D01*
X104335163Y-68485835D01*
X104332842Y-68482155D01*
X104297690Y-68424225D01*
X104297686Y-68424220D01*
X104294773Y-68419419D01*
X104287332Y-68410995D01*
X104287362Y-68410969D01*
X104284764Y-68408041D01*
X104281960Y-68404687D01*
X104277946Y-68398565D01*
X104221414Y-68345012D01*
X104218972Y-68342635D01*
X103288404Y-67412066D01*
X103254379Y-67349754D01*
X103251500Y-67322971D01*
X103251500Y-64550873D01*
X103266334Y-64495508D01*
X103265089Y-64494954D01*
X103267773Y-64488926D01*
X103271077Y-64483203D01*
X103326382Y-64312991D01*
X103327810Y-64299410D01*
X103344400Y-64141565D01*
X103345090Y-64135000D01*
X103326382Y-63957009D01*
X103271077Y-63786797D01*
X103269998Y-63784927D01*
X103260782Y-63716197D01*
X103273393Y-63680312D01*
X103272589Y-63679954D01*
X103275273Y-63673926D01*
X103278577Y-63668203D01*
X103333882Y-63497991D01*
X103336321Y-63474791D01*
X103351900Y-63326565D01*
X103352590Y-63320000D01*
X103333882Y-63142009D01*
X103297630Y-63030436D01*
X103295603Y-62959468D01*
X103332265Y-62898670D01*
X103395977Y-62867345D01*
X103417463Y-62865500D01*
X103567099Y-62865500D01*
X103635220Y-62885502D01*
G37*
%TD.AperFunction*%
%TA.AperFunction,Conductor*%
G36*
X109772533Y-65474367D02*
G01*
X109829368Y-65516914D01*
X109854179Y-65583434D01*
X109854500Y-65592423D01*
X109854500Y-66486577D01*
X109834498Y-66554698D01*
X109817595Y-66575672D01*
X109588517Y-66804750D01*
X109580191Y-66812326D01*
X109573697Y-66816447D01*
X109568274Y-66822222D01*
X109526915Y-66866265D01*
X109524160Y-66869107D01*
X109504361Y-66888906D01*
X109501937Y-66892031D01*
X109501929Y-66892040D01*
X109501863Y-66892126D01*
X109494155Y-66901151D01*
X109463783Y-66933494D01*
X109459965Y-66940438D01*
X109459964Y-66940440D01*
X109453978Y-66951329D01*
X109443127Y-66967847D01*
X109430650Y-66983933D01*
X109413024Y-67024666D01*
X109407807Y-67035314D01*
X109386431Y-67074197D01*
X109384460Y-67081872D01*
X109384458Y-67081878D01*
X109381369Y-67093911D01*
X109374966Y-67112613D01*
X109366883Y-67131292D01*
X109363888Y-67150203D01*
X109359940Y-67175127D01*
X109357535Y-67186740D01*
X109346500Y-67229718D01*
X109346500Y-67250065D01*
X109344949Y-67269776D01*
X109341765Y-67289879D01*
X109342511Y-67297771D01*
X109345941Y-67334056D01*
X109346500Y-67345914D01*
X109346500Y-69997031D01*
X109326498Y-70065152D01*
X109314142Y-70081335D01*
X109289409Y-70108803D01*
X109199923Y-70263797D01*
X109144618Y-70434009D01*
X109125910Y-70612000D01*
X109144618Y-70789991D01*
X109199923Y-70960203D01*
X109289409Y-71115197D01*
X109293827Y-71120104D01*
X109293828Y-71120105D01*
X109336874Y-71167913D01*
X109409164Y-71248199D01*
X109414506Y-71252080D01*
X109414508Y-71252082D01*
X109532727Y-71337973D01*
X109553955Y-71353396D01*
X109559983Y-71356080D01*
X109559985Y-71356081D01*
X109711423Y-71423505D01*
X109717454Y-71426190D01*
X109787883Y-71441160D01*
X109886057Y-71462028D01*
X109886061Y-71462028D01*
X109892514Y-71463400D01*
X110071486Y-71463400D01*
X110077939Y-71462028D01*
X110077943Y-71462028D01*
X110176117Y-71441160D01*
X110246546Y-71426190D01*
X110252577Y-71423505D01*
X110404015Y-71356081D01*
X110404017Y-71356080D01*
X110410045Y-71353396D01*
X110431273Y-71337973D01*
X110549492Y-71252082D01*
X110549494Y-71252080D01*
X110554836Y-71248199D01*
X110627126Y-71167913D01*
X110670172Y-71120105D01*
X110670173Y-71120104D01*
X110674591Y-71115197D01*
X110764077Y-70960203D01*
X110819382Y-70789991D01*
X110838090Y-70612000D01*
X110819382Y-70434009D01*
X110764077Y-70263797D01*
X110674591Y-70108803D01*
X110649863Y-70081340D01*
X110619147Y-70017334D01*
X110617500Y-69997031D01*
X110617500Y-67625422D01*
X110637502Y-67557301D01*
X110654405Y-67536327D01*
X110883477Y-67307255D01*
X110891803Y-67299678D01*
X110898303Y-67295553D01*
X110945101Y-67245718D01*
X110947855Y-67242877D01*
X110967638Y-67223094D01*
X110970129Y-67219883D01*
X110977838Y-67210856D01*
X111002789Y-67184286D01*
X111008217Y-67178506D01*
X111017574Y-67161485D01*
X111067918Y-67111426D01*
X111137335Y-67096532D01*
X111203784Y-67121532D01*
X111237108Y-67159184D01*
X111321409Y-67305197D01*
X111346137Y-67332660D01*
X111376853Y-67396666D01*
X111378500Y-67416969D01*
X111378500Y-68754980D01*
X111377970Y-68766214D01*
X111376292Y-68773719D01*
X111376541Y-68781638D01*
X111378438Y-68842012D01*
X111378500Y-68845969D01*
X111378500Y-68873983D01*
X111378996Y-68877908D01*
X111378996Y-68877909D01*
X111379008Y-68878004D01*
X111379941Y-68889849D01*
X111380590Y-68910497D01*
X111381047Y-68925024D01*
X111381335Y-68934205D01*
X111387013Y-68953748D01*
X111391023Y-68973112D01*
X111393573Y-68993299D01*
X111396489Y-69000663D01*
X111396490Y-69000668D01*
X111409907Y-69034556D01*
X111413752Y-69045785D01*
X111414851Y-69049568D01*
X111426131Y-69088393D01*
X111430169Y-69095220D01*
X111430170Y-69095223D01*
X111436488Y-69105906D01*
X111445188Y-69123664D01*
X111449761Y-69135215D01*
X111449765Y-69135221D01*
X111452681Y-69142588D01*
X111457339Y-69148999D01*
X111457340Y-69149001D01*
X111478764Y-69178488D01*
X111485281Y-69188410D01*
X111503826Y-69219768D01*
X111503829Y-69219772D01*
X111507866Y-69226598D01*
X111522250Y-69240982D01*
X111535091Y-69256016D01*
X111547058Y-69272487D01*
X111553166Y-69277540D01*
X111581255Y-69300777D01*
X111590035Y-69308767D01*
X113881595Y-71600327D01*
X113915621Y-71662639D01*
X113918500Y-71689422D01*
X113918500Y-76397859D01*
X113898498Y-76465980D01*
X113844842Y-76512473D01*
X113774568Y-76522577D01*
X113766304Y-76521106D01*
X113633945Y-76492973D01*
X113633946Y-76492973D01*
X113627486Y-76491600D01*
X113448514Y-76491600D01*
X113442061Y-76492972D01*
X113442057Y-76492972D01*
X113360984Y-76510205D01*
X113273454Y-76528810D01*
X113267424Y-76531495D01*
X113267423Y-76531495D01*
X113115985Y-76598919D01*
X113115983Y-76598920D01*
X113109955Y-76601604D01*
X113104614Y-76605484D01*
X113104613Y-76605485D01*
X113047220Y-76647184D01*
X112965164Y-76706801D01*
X112845409Y-76839803D01*
X112842108Y-76845521D01*
X112764183Y-76980491D01*
X112755923Y-76994797D01*
X112700618Y-77165009D01*
X112681910Y-77343000D01*
X112682600Y-77349565D01*
X112686089Y-77382755D01*
X112700618Y-77520991D01*
X112755923Y-77691203D01*
X112845409Y-77846197D01*
X112857818Y-77859978D01*
X112862136Y-77864774D01*
X112892853Y-77928781D01*
X112894500Y-77949085D01*
X112894500Y-79380972D01*
X112874498Y-79449093D01*
X112820842Y-79495586D01*
X112750568Y-79505690D01*
X112685988Y-79476196D01*
X112679405Y-79470067D01*
X111838810Y-78629472D01*
X111826423Y-78615059D01*
X111817795Y-78603335D01*
X111813454Y-78597436D01*
X111772945Y-78563021D01*
X111765429Y-78556091D01*
X111759685Y-78550347D01*
X111756811Y-78548073D01*
X111756804Y-78548067D01*
X111737289Y-78532628D01*
X111733885Y-78529837D01*
X111683528Y-78487055D01*
X111683524Y-78487052D01*
X111677949Y-78482316D01*
X111671432Y-78478988D01*
X111666368Y-78475611D01*
X111661144Y-78472384D01*
X111655400Y-78467840D01*
X111629109Y-78455552D01*
X111588918Y-78436768D01*
X111584967Y-78434837D01*
X111526117Y-78404787D01*
X111519596Y-78401457D01*
X111512481Y-78399716D01*
X111506735Y-78397579D01*
X111500952Y-78395655D01*
X111494321Y-78392556D01*
X111422443Y-78377606D01*
X111418171Y-78376639D01*
X111346888Y-78359196D01*
X111341289Y-78358849D01*
X111341285Y-78358848D01*
X111335670Y-78358500D01*
X111335672Y-78358461D01*
X111331771Y-78358228D01*
X111327412Y-78357839D01*
X111320244Y-78356348D01*
X111312927Y-78356546D01*
X111242423Y-78358454D01*
X111239014Y-78358500D01*
X108699028Y-78358500D01*
X108630907Y-78338498D01*
X108609933Y-78321595D01*
X107733405Y-77445067D01*
X107699379Y-77382755D01*
X107696500Y-77355972D01*
X107696500Y-70242043D01*
X107716502Y-70173922D01*
X107770158Y-70127429D01*
X107840432Y-70117325D01*
X107873746Y-70126935D01*
X107939454Y-70156190D01*
X108021974Y-70173730D01*
X108108057Y-70192028D01*
X108108061Y-70192028D01*
X108114514Y-70193400D01*
X108293486Y-70193400D01*
X108299939Y-70192028D01*
X108299943Y-70192028D01*
X108386026Y-70173730D01*
X108468546Y-70156190D01*
X108574980Y-70108803D01*
X108626015Y-70086081D01*
X108626017Y-70086080D01*
X108632045Y-70083396D01*
X108711501Y-70025668D01*
X108771492Y-69982082D01*
X108771494Y-69982080D01*
X108776836Y-69978199D01*
X108896591Y-69845197D01*
X108956177Y-69741992D01*
X108982773Y-69695926D01*
X108982774Y-69695925D01*
X108986077Y-69690203D01*
X109021373Y-69581573D01*
X109039342Y-69526270D01*
X109039342Y-69526269D01*
X109041382Y-69519991D01*
X109042676Y-69507685D01*
X109059400Y-69348565D01*
X109060090Y-69342000D01*
X109048550Y-69232209D01*
X109042072Y-69170573D01*
X109042072Y-69170572D01*
X109041382Y-69164009D01*
X109034441Y-69142645D01*
X108997225Y-69028107D01*
X108986077Y-68993797D01*
X108974135Y-68973112D01*
X108929734Y-68896209D01*
X108896591Y-68838803D01*
X108871863Y-68811340D01*
X108841147Y-68747334D01*
X108839500Y-68727031D01*
X108839500Y-66355422D01*
X108859502Y-66287301D01*
X108876401Y-66266331D01*
X109639407Y-65503326D01*
X109701717Y-65469302D01*
X109772533Y-65474367D01*
G37*
%TD.AperFunction*%
%TA.AperFunction,Conductor*%
G36*
X101131077Y-64722314D02*
G01*
X101224500Y-64752669D01*
X101283474Y-64771831D01*
X101283475Y-64771831D01*
X101289753Y-64773871D01*
X101296316Y-64774561D01*
X101296317Y-64774561D01*
X101319097Y-64776955D01*
X101428937Y-64788500D01*
X101522063Y-64788500D01*
X101587330Y-64781640D01*
X101657167Y-64794412D01*
X101709014Y-64842914D01*
X101726500Y-64906950D01*
X101726500Y-67623624D01*
X101725067Y-67642574D01*
X101722876Y-67656973D01*
X101722876Y-67656979D01*
X101721776Y-67664208D01*
X101722369Y-67671500D01*
X101722369Y-67671503D01*
X101726085Y-67717183D01*
X101726500Y-67727398D01*
X101726500Y-67735525D01*
X101729811Y-67763924D01*
X101730238Y-67768244D01*
X101736191Y-67841426D01*
X101738447Y-67848388D01*
X101739643Y-67854376D01*
X101741051Y-67860333D01*
X101741899Y-67867607D01*
X101744398Y-67874491D01*
X101744399Y-67874496D01*
X101763533Y-67927209D01*
X101767975Y-67998066D01*
X101733403Y-68060077D01*
X101696343Y-68085308D01*
X101690035Y-68088116D01*
X101685985Y-68089919D01*
X101685983Y-68089920D01*
X101679955Y-68092604D01*
X101674614Y-68096484D01*
X101674613Y-68096485D01*
X101567323Y-68174436D01*
X101500455Y-68198295D01*
X101493262Y-68198500D01*
X100898222Y-68198500D01*
X100830101Y-68178498D01*
X100783608Y-68124842D01*
X100773504Y-68054568D01*
X100803710Y-67989173D01*
X100804835Y-67987897D01*
X100807638Y-67985094D01*
X100810129Y-67981883D01*
X100817838Y-67972856D01*
X100842789Y-67946286D01*
X100848217Y-67940506D01*
X100858022Y-67922671D01*
X100868876Y-67906147D01*
X100876491Y-67896330D01*
X100876492Y-67896329D01*
X100881349Y-67890067D01*
X100898969Y-67849350D01*
X100904192Y-67838689D01*
X100921749Y-67806753D01*
X100921751Y-67806748D01*
X100925569Y-67799803D01*
X100927539Y-67792129D01*
X100927542Y-67792122D01*
X100930632Y-67780087D01*
X100937036Y-67761382D01*
X100941967Y-67749987D01*
X100945117Y-67742708D01*
X100952060Y-67698873D01*
X100954467Y-67687251D01*
X100965500Y-67644282D01*
X100965500Y-67623935D01*
X100967051Y-67604224D01*
X100968995Y-67591950D01*
X100970235Y-67584121D01*
X100966059Y-67539944D01*
X100965500Y-67528086D01*
X100965500Y-64849032D01*
X100966031Y-64837789D01*
X100967709Y-64830281D01*
X100967636Y-64827967D01*
X100993039Y-64764350D01*
X101050835Y-64723116D01*
X101121748Y-64719675D01*
X101131077Y-64722314D01*
G37*
%TD.AperFunction*%
%TD*%
M02*
