%TF.GenerationSoftware,KiCad,Pcbnew,(6.0.0-0)*%
%TF.CreationDate,2022-03-07T15:49:25-05:00*%
%TF.ProjectId,qwiic,71776969-632e-46b6-9963-61645f706362,rev?*%
%TF.SameCoordinates,Original*%
%TF.FileFunction,Legend,Top*%
%TF.FilePolarity,Positive*%
%FSLAX46Y46*%
G04 Gerber Fmt 4.6, Leading zero omitted, Abs format (unit mm)*
G04 Created by KiCad (PCBNEW (6.0.0-0)) date 2022-03-07 15:49:25*
%MOMM*%
%LPD*%
G01*
G04 APERTURE LIST*
%ADD10C,0.152400*%
%ADD11C,0.080000*%
%ADD12C,0.150000*%
%ADD13C,0.200000*%
%ADD14C,0.120000*%
%ADD15C,0.500000*%
%ADD16C,1.000000*%
G04 APERTURE END LIST*
D10*
X112522000Y-81788000D02*
X112522000Y-81534000D01*
X114554000Y-81788000D02*
X114808000Y-81534000D01*
X111506000Y-81788000D02*
X111252000Y-81534000D01*
X113538000Y-81788000D02*
X113538000Y-81534000D01*
D11*
X93412857Y-78299428D02*
X93412857Y-77699428D01*
X93670000Y-77756571D02*
X93698571Y-77728000D01*
X93755714Y-77699428D01*
X93898571Y-77699428D01*
X93955714Y-77728000D01*
X93984285Y-77756571D01*
X94012857Y-77813714D01*
X94012857Y-77870857D01*
X93984285Y-77956571D01*
X93641428Y-78299428D01*
X94012857Y-78299428D01*
X94612857Y-78242285D02*
X94584285Y-78270857D01*
X94498571Y-78299428D01*
X94441428Y-78299428D01*
X94355714Y-78270857D01*
X94298571Y-78213714D01*
X94270000Y-78156571D01*
X94241428Y-78042285D01*
X94241428Y-77956571D01*
X94270000Y-77842285D01*
X94298571Y-77785142D01*
X94355714Y-77728000D01*
X94441428Y-77699428D01*
X94498571Y-77699428D01*
X94584285Y-77728000D01*
X94612857Y-77756571D01*
X95327142Y-78299428D02*
X95327142Y-77699428D01*
X95527142Y-78128000D01*
X95727142Y-77699428D01*
X95727142Y-78299428D01*
X96098571Y-78299428D02*
X96041428Y-78270857D01*
X96012857Y-78242285D01*
X95984285Y-78185142D01*
X95984285Y-78013714D01*
X96012857Y-77956571D01*
X96041428Y-77928000D01*
X96098571Y-77899428D01*
X96184285Y-77899428D01*
X96241428Y-77928000D01*
X96270000Y-77956571D01*
X96298571Y-78013714D01*
X96298571Y-78185142D01*
X96270000Y-78242285D01*
X96241428Y-78270857D01*
X96184285Y-78299428D01*
X96098571Y-78299428D01*
X96812857Y-78299428D02*
X96812857Y-77699428D01*
X96812857Y-78270857D02*
X96755714Y-78299428D01*
X96641428Y-78299428D01*
X96584285Y-78270857D01*
X96555714Y-78242285D01*
X96527142Y-78185142D01*
X96527142Y-78013714D01*
X96555714Y-77956571D01*
X96584285Y-77928000D01*
X96641428Y-77899428D01*
X96755714Y-77899428D01*
X96812857Y-77928000D01*
X97355714Y-77899428D02*
X97355714Y-78299428D01*
X97098571Y-77899428D02*
X97098571Y-78213714D01*
X97127142Y-78270857D01*
X97184285Y-78299428D01*
X97270000Y-78299428D01*
X97327142Y-78270857D01*
X97355714Y-78242285D01*
X97727142Y-78299428D02*
X97670000Y-78270857D01*
X97641428Y-78213714D01*
X97641428Y-77699428D01*
X98184285Y-78270857D02*
X98127142Y-78299428D01*
X98012857Y-78299428D01*
X97955714Y-78270857D01*
X97927142Y-78213714D01*
X97927142Y-77985142D01*
X97955714Y-77928000D01*
X98012857Y-77899428D01*
X98127142Y-77899428D01*
X98184285Y-77928000D01*
X98212857Y-77985142D01*
X98212857Y-78042285D01*
X97927142Y-78099428D01*
X98841428Y-77699428D02*
X99041428Y-78299428D01*
X99241428Y-77699428D01*
X99755714Y-78299428D02*
X99412857Y-78299428D01*
X99584285Y-78299428D02*
X99584285Y-77699428D01*
X99527142Y-77785142D01*
X99470000Y-77842285D01*
X99412857Y-77870857D01*
X100012857Y-78242285D02*
X100041428Y-78270857D01*
X100012857Y-78299428D01*
X99984285Y-78270857D01*
X100012857Y-78242285D01*
X100012857Y-78299428D01*
X100412857Y-77699428D02*
X100470000Y-77699428D01*
X100527142Y-77728000D01*
X100555714Y-77756571D01*
X100584285Y-77813714D01*
X100612857Y-77928000D01*
X100612857Y-78070857D01*
X100584285Y-78185142D01*
X100555714Y-78242285D01*
X100527142Y-78270857D01*
X100470000Y-78299428D01*
X100412857Y-78299428D01*
X100355714Y-78270857D01*
X100327142Y-78242285D01*
X100298571Y-78185142D01*
X100270000Y-78070857D01*
X100270000Y-77928000D01*
X100298571Y-77813714D01*
X100327142Y-77756571D01*
X100355714Y-77728000D01*
X100412857Y-77699428D01*
X93384285Y-79236857D02*
X93470000Y-79265428D01*
X93612857Y-79265428D01*
X93670000Y-79236857D01*
X93698571Y-79208285D01*
X93727142Y-79151142D01*
X93727142Y-79094000D01*
X93698571Y-79036857D01*
X93670000Y-79008285D01*
X93612857Y-78979714D01*
X93498571Y-78951142D01*
X93441428Y-78922571D01*
X93412857Y-78894000D01*
X93384285Y-78836857D01*
X93384285Y-78779714D01*
X93412857Y-78722571D01*
X93441428Y-78694000D01*
X93498571Y-78665428D01*
X93641428Y-78665428D01*
X93727142Y-78694000D01*
X94241428Y-79236857D02*
X94184285Y-79265428D01*
X94070000Y-79265428D01*
X94012857Y-79236857D01*
X93984285Y-79208285D01*
X93955714Y-79151142D01*
X93955714Y-78979714D01*
X93984285Y-78922571D01*
X94012857Y-78894000D01*
X94070000Y-78865428D01*
X94184285Y-78865428D01*
X94241428Y-78894000D01*
X94584285Y-79265428D02*
X94527142Y-79236857D01*
X94498571Y-79208285D01*
X94470000Y-79151142D01*
X94470000Y-78979714D01*
X94498571Y-78922571D01*
X94527142Y-78894000D01*
X94584285Y-78865428D01*
X94670000Y-78865428D01*
X94727142Y-78894000D01*
X94755714Y-78922571D01*
X94784285Y-78979714D01*
X94784285Y-79151142D01*
X94755714Y-79208285D01*
X94727142Y-79236857D01*
X94670000Y-79265428D01*
X94584285Y-79265428D01*
X94955714Y-78865428D02*
X95184285Y-78865428D01*
X95041428Y-78665428D02*
X95041428Y-79179714D01*
X95070000Y-79236857D01*
X95127142Y-79265428D01*
X95184285Y-79265428D01*
X95298571Y-78865428D02*
X95527142Y-78865428D01*
X95384285Y-78665428D02*
X95384285Y-79179714D01*
X95412857Y-79236857D01*
X95470000Y-79265428D01*
X95527142Y-79265428D01*
X96127142Y-78665428D02*
X96527142Y-78665428D01*
X96127142Y-79265428D01*
X96527142Y-79265428D01*
X96755714Y-79265428D02*
X96755714Y-78665428D01*
X97012857Y-79265428D02*
X97012857Y-78951142D01*
X96984285Y-78894000D01*
X96927142Y-78865428D01*
X96841428Y-78865428D01*
X96784285Y-78894000D01*
X96755714Y-78922571D01*
X97555714Y-79265428D02*
X97555714Y-78951142D01*
X97527142Y-78894000D01*
X97470000Y-78865428D01*
X97355714Y-78865428D01*
X97298571Y-78894000D01*
X97555714Y-79236857D02*
X97498571Y-79265428D01*
X97355714Y-79265428D01*
X97298571Y-79236857D01*
X97270000Y-79179714D01*
X97270000Y-79122571D01*
X97298571Y-79065428D01*
X97355714Y-79036857D01*
X97498571Y-79036857D01*
X97555714Y-79008285D01*
X97927142Y-79265428D02*
X97870000Y-79236857D01*
X97841428Y-79208285D01*
X97812857Y-79151142D01*
X97812857Y-78979714D01*
X97841428Y-78922571D01*
X97870000Y-78894000D01*
X97927142Y-78865428D01*
X98012857Y-78865428D01*
X98070000Y-78894000D01*
X98098571Y-78922571D01*
X98127142Y-78979714D01*
X98127142Y-79151142D01*
X98098571Y-79208285D01*
X98070000Y-79236857D01*
X98012857Y-79265428D01*
X97927142Y-79265428D01*
X93412857Y-80231428D02*
X93412857Y-79631428D01*
X93612857Y-80060000D01*
X93812857Y-79631428D01*
X93812857Y-80231428D01*
X94355714Y-80231428D02*
X94355714Y-79917142D01*
X94327142Y-79860000D01*
X94270000Y-79831428D01*
X94155714Y-79831428D01*
X94098571Y-79860000D01*
X94355714Y-80202857D02*
X94298571Y-80231428D01*
X94155714Y-80231428D01*
X94098571Y-80202857D01*
X94070000Y-80145714D01*
X94070000Y-80088571D01*
X94098571Y-80031428D01*
X94155714Y-80002857D01*
X94298571Y-80002857D01*
X94355714Y-79974285D01*
X94641428Y-80231428D02*
X94641428Y-79831428D01*
X94641428Y-79945714D02*
X94670000Y-79888571D01*
X94698571Y-79860000D01*
X94755714Y-79831428D01*
X94812857Y-79831428D01*
X95012857Y-80174285D02*
X95041428Y-80202857D01*
X95012857Y-80231428D01*
X94984285Y-80202857D01*
X95012857Y-80174285D01*
X95012857Y-80231428D01*
X96070000Y-80231428D02*
X95727142Y-80231428D01*
X95898571Y-80231428D02*
X95898571Y-79631428D01*
X95841428Y-79717142D01*
X95784285Y-79774285D01*
X95727142Y-79802857D01*
X96355714Y-80202857D02*
X96355714Y-80231428D01*
X96327142Y-80288571D01*
X96298571Y-80317142D01*
X97041428Y-79688571D02*
X97070000Y-79660000D01*
X97127142Y-79631428D01*
X97270000Y-79631428D01*
X97327142Y-79660000D01*
X97355714Y-79688571D01*
X97384285Y-79745714D01*
X97384285Y-79802857D01*
X97355714Y-79888571D01*
X97012857Y-80231428D01*
X97384285Y-80231428D01*
X97755714Y-79631428D02*
X97812857Y-79631428D01*
X97870000Y-79660000D01*
X97898571Y-79688571D01*
X97927142Y-79745714D01*
X97955714Y-79860000D01*
X97955714Y-80002857D01*
X97927142Y-80117142D01*
X97898571Y-80174285D01*
X97870000Y-80202857D01*
X97812857Y-80231428D01*
X97755714Y-80231428D01*
X97698571Y-80202857D01*
X97670000Y-80174285D01*
X97641428Y-80117142D01*
X97612857Y-80002857D01*
X97612857Y-79860000D01*
X97641428Y-79745714D01*
X97670000Y-79688571D01*
X97698571Y-79660000D01*
X97755714Y-79631428D01*
X98184285Y-79688571D02*
X98212857Y-79660000D01*
X98270000Y-79631428D01*
X98412857Y-79631428D01*
X98470000Y-79660000D01*
X98498571Y-79688571D01*
X98527142Y-79745714D01*
X98527142Y-79802857D01*
X98498571Y-79888571D01*
X98155714Y-80231428D01*
X98527142Y-80231428D01*
X98755714Y-79688571D02*
X98784285Y-79660000D01*
X98841428Y-79631428D01*
X98984285Y-79631428D01*
X99041428Y-79660000D01*
X99070000Y-79688571D01*
X99098571Y-79745714D01*
X99098571Y-79802857D01*
X99070000Y-79888571D01*
X98727142Y-80231428D01*
X99098571Y-80231428D01*
D12*
X111720380Y-81248095D02*
X111720380Y-80629047D01*
X112101333Y-80962380D01*
X112101333Y-80819523D01*
X112148952Y-80724285D01*
X112196571Y-80676666D01*
X112291809Y-80629047D01*
X112529904Y-80629047D01*
X112625142Y-80676666D01*
X112672761Y-80724285D01*
X112720380Y-80819523D01*
X112720380Y-81105238D01*
X112672761Y-81200476D01*
X112625142Y-81248095D01*
X111720380Y-80343333D02*
X112720380Y-80010000D01*
X111720380Y-79676666D01*
X111720380Y-79438571D02*
X111720380Y-78819523D01*
X112101333Y-79152857D01*
X112101333Y-79010000D01*
X112148952Y-78914761D01*
X112196571Y-78867142D01*
X112291809Y-78819523D01*
X112529904Y-78819523D01*
X112625142Y-78867142D01*
X112672761Y-78914761D01*
X112720380Y-79010000D01*
X112720380Y-79295714D01*
X112672761Y-79390952D01*
X112625142Y-79438571D01*
X110498000Y-80771904D02*
X110450380Y-80867142D01*
X110450380Y-81010000D01*
X110498000Y-81152857D01*
X110593238Y-81248095D01*
X110688476Y-81295714D01*
X110878952Y-81343333D01*
X111021809Y-81343333D01*
X111212285Y-81295714D01*
X111307523Y-81248095D01*
X111402761Y-81152857D01*
X111450380Y-81010000D01*
X111450380Y-80914761D01*
X111402761Y-80771904D01*
X111355142Y-80724285D01*
X111021809Y-80724285D01*
X111021809Y-80914761D01*
X111450380Y-80295714D02*
X110450380Y-80295714D01*
X111450380Y-79724285D01*
X110450380Y-79724285D01*
X111450380Y-79248095D02*
X110450380Y-79248095D01*
X110450380Y-79010000D01*
X110498000Y-78867142D01*
X110593238Y-78771904D01*
X110688476Y-78724285D01*
X110878952Y-78676666D01*
X111021809Y-78676666D01*
X111212285Y-78724285D01*
X111307523Y-78771904D01*
X111402761Y-78867142D01*
X111450380Y-79010000D01*
X111450380Y-79248095D01*
X115466761Y-81200476D02*
X115514380Y-81057619D01*
X115514380Y-80819523D01*
X115466761Y-80724285D01*
X115419142Y-80676666D01*
X115323904Y-80629047D01*
X115228666Y-80629047D01*
X115133428Y-80676666D01*
X115085809Y-80724285D01*
X115038190Y-80819523D01*
X114990571Y-81010000D01*
X114942952Y-81105238D01*
X114895333Y-81152857D01*
X114800095Y-81200476D01*
X114704857Y-81200476D01*
X114609619Y-81152857D01*
X114562000Y-81105238D01*
X114514380Y-81010000D01*
X114514380Y-80771904D01*
X114562000Y-80629047D01*
X115419142Y-79629047D02*
X115466761Y-79676666D01*
X115514380Y-79819523D01*
X115514380Y-79914761D01*
X115466761Y-80057619D01*
X115371523Y-80152857D01*
X115276285Y-80200476D01*
X115085809Y-80248095D01*
X114942952Y-80248095D01*
X114752476Y-80200476D01*
X114657238Y-80152857D01*
X114562000Y-80057619D01*
X114514380Y-79914761D01*
X114514380Y-79819523D01*
X114562000Y-79676666D01*
X114609619Y-79629047D01*
X115514380Y-78724285D02*
X115514380Y-79200476D01*
X114514380Y-79200476D01*
X114196761Y-81224285D02*
X114244380Y-81081428D01*
X114244380Y-80843333D01*
X114196761Y-80748095D01*
X114149142Y-80700476D01*
X114053904Y-80652857D01*
X113958666Y-80652857D01*
X113863428Y-80700476D01*
X113815809Y-80748095D01*
X113768190Y-80843333D01*
X113720571Y-81033809D01*
X113672952Y-81129047D01*
X113625333Y-81176666D01*
X113530095Y-81224285D01*
X113434857Y-81224285D01*
X113339619Y-81176666D01*
X113292000Y-81129047D01*
X113244380Y-81033809D01*
X113244380Y-80795714D01*
X113292000Y-80652857D01*
X114244380Y-80224285D02*
X113244380Y-80224285D01*
X113244380Y-79986190D01*
X113292000Y-79843333D01*
X113387238Y-79748095D01*
X113482476Y-79700476D01*
X113672952Y-79652857D01*
X113815809Y-79652857D01*
X114006285Y-79700476D01*
X114101523Y-79748095D01*
X114196761Y-79843333D01*
X114244380Y-79986190D01*
X114244380Y-80224285D01*
X113958666Y-79271904D02*
X113958666Y-78795714D01*
X114244380Y-79367142D02*
X113244380Y-79033809D01*
X114244380Y-78700476D01*
%TO.C,J2*%
X100123666Y-83272380D02*
X100123666Y-83986666D01*
X100076047Y-84129523D01*
X99980809Y-84224761D01*
X99837952Y-84272380D01*
X99742714Y-84272380D01*
X100552238Y-83367619D02*
X100599857Y-83320000D01*
X100695095Y-83272380D01*
X100933190Y-83272380D01*
X101028428Y-83320000D01*
X101076047Y-83367619D01*
X101123666Y-83462857D01*
X101123666Y-83558095D01*
X101076047Y-83700952D01*
X100504619Y-84272380D01*
X101123666Y-84272380D01*
%TO.C,J1*%
X112696666Y-83907380D02*
X112696666Y-84621666D01*
X112649047Y-84764523D01*
X112553809Y-84859761D01*
X112410952Y-84907380D01*
X112315714Y-84907380D01*
X113696666Y-84907380D02*
X113125238Y-84907380D01*
X113410952Y-84907380D02*
X113410952Y-83907380D01*
X113315714Y-84050238D01*
X113220476Y-84145476D01*
X113125238Y-84193095D01*
D13*
%TO.C,U1*%
X107137047Y-75566380D02*
X107137047Y-74566380D01*
X108184666Y-75471142D02*
X108137047Y-75518761D01*
X107994190Y-75566380D01*
X107898952Y-75566380D01*
X107756095Y-75518761D01*
X107660857Y-75423523D01*
X107613238Y-75328285D01*
X107565619Y-75137809D01*
X107565619Y-74994952D01*
X107613238Y-74804476D01*
X107660857Y-74709238D01*
X107756095Y-74614000D01*
X107898952Y-74566380D01*
X107994190Y-74566380D01*
X108137047Y-74614000D01*
X108184666Y-74661619D01*
X108565619Y-75518761D02*
X108708476Y-75566380D01*
X108946571Y-75566380D01*
X109041809Y-75518761D01*
X109089428Y-75471142D01*
X109137047Y-75375904D01*
X109137047Y-75280666D01*
X109089428Y-75185428D01*
X109041809Y-75137809D01*
X108946571Y-75090190D01*
X108756095Y-75042571D01*
X108660857Y-74994952D01*
X108613238Y-74947333D01*
X108565619Y-74852095D01*
X108565619Y-74756857D01*
X108613238Y-74661619D01*
X108660857Y-74614000D01*
X108756095Y-74566380D01*
X108994190Y-74566380D01*
X109137047Y-74614000D01*
X110041809Y-75566380D02*
X109565619Y-75566380D01*
X109565619Y-74566380D01*
X105851333Y-73271142D02*
X105803714Y-73318761D01*
X105660857Y-73366380D01*
X105565619Y-73366380D01*
X105422761Y-73318761D01*
X105327523Y-73223523D01*
X105279904Y-73128285D01*
X105232285Y-72937809D01*
X105232285Y-72794952D01*
X105279904Y-72604476D01*
X105327523Y-72509238D01*
X105422761Y-72414000D01*
X105565619Y-72366380D01*
X105660857Y-72366380D01*
X105803714Y-72414000D01*
X105851333Y-72461619D01*
X106422761Y-73366380D02*
X106327523Y-73318761D01*
X106279904Y-73271142D01*
X106232285Y-73175904D01*
X106232285Y-72890190D01*
X106279904Y-72794952D01*
X106327523Y-72747333D01*
X106422761Y-72699714D01*
X106565619Y-72699714D01*
X106660857Y-72747333D01*
X106708476Y-72794952D01*
X106756095Y-72890190D01*
X106756095Y-73175904D01*
X106708476Y-73271142D01*
X106660857Y-73318761D01*
X106565619Y-73366380D01*
X106422761Y-73366380D01*
X107327523Y-73366380D02*
X107232285Y-73318761D01*
X107184666Y-73223523D01*
X107184666Y-72366380D01*
X108137047Y-72699714D02*
X108137047Y-73366380D01*
X107708476Y-72699714D02*
X107708476Y-73223523D01*
X107756095Y-73318761D01*
X107851333Y-73366380D01*
X107994190Y-73366380D01*
X108089428Y-73318761D01*
X108137047Y-73271142D01*
X108613238Y-73366380D02*
X108613238Y-72699714D01*
X108613238Y-72794952D02*
X108660857Y-72747333D01*
X108756095Y-72699714D01*
X108898952Y-72699714D01*
X108994190Y-72747333D01*
X109041809Y-72842571D01*
X109041809Y-73366380D01*
X109041809Y-72842571D02*
X109089428Y-72747333D01*
X109184666Y-72699714D01*
X109327523Y-72699714D01*
X109422761Y-72747333D01*
X109470380Y-72842571D01*
X109470380Y-73366380D01*
X109946571Y-73366380D02*
X109946571Y-72366380D01*
X109946571Y-72747333D02*
X110041809Y-72699714D01*
X110232285Y-72699714D01*
X110327523Y-72747333D01*
X110375142Y-72794952D01*
X110422761Y-72890190D01*
X110422761Y-73175904D01*
X110375142Y-73271142D01*
X110327523Y-73318761D01*
X110232285Y-73366380D01*
X110041809Y-73366380D01*
X109946571Y-73318761D01*
X110851333Y-73366380D02*
X110851333Y-72699714D01*
X110851333Y-72366380D02*
X110803714Y-72414000D01*
X110851333Y-72461619D01*
X110898952Y-72414000D01*
X110851333Y-72366380D01*
X110851333Y-72461619D01*
X111756095Y-73366380D02*
X111756095Y-72842571D01*
X111708476Y-72747333D01*
X111613238Y-72699714D01*
X111422761Y-72699714D01*
X111327523Y-72747333D01*
X111756095Y-73318761D02*
X111660857Y-73366380D01*
X111422761Y-73366380D01*
X111327523Y-73318761D01*
X111279904Y-73223523D01*
X111279904Y-73128285D01*
X111327523Y-73033047D01*
X111422761Y-72985428D01*
X111660857Y-72985428D01*
X111756095Y-72937809D01*
D14*
%TO.C,J2*%
X94472000Y-83179000D02*
X94472000Y-82229000D01*
X106442000Y-82229000D02*
X105492000Y-82229000D01*
X95422000Y-82229000D02*
X95422000Y-81539000D01*
X106442000Y-83179000D02*
X106442000Y-82229000D01*
X94472000Y-82229000D02*
X95422000Y-82229000D01*
X94842000Y-86149000D02*
X106072000Y-86149000D01*
%TO.C,R1*%
X98705641Y-64134000D02*
X98398359Y-64134000D01*
X98705641Y-63374000D02*
X98398359Y-63374000D01*
%TO.C,J1*%
X110970000Y-83110000D02*
X110970000Y-82120000D01*
X116140000Y-84260000D02*
X116140000Y-83110000D01*
X109920000Y-84260000D02*
X109920000Y-83110000D01*
X109920000Y-83110000D02*
X110970000Y-83110000D01*
X111090000Y-86230000D02*
X114970000Y-86230000D01*
X116140000Y-83110000D02*
X115090000Y-83110000D01*
%TO.C,U2*%
X93452000Y-73152000D02*
X93452000Y-76602000D01*
X98572000Y-73152000D02*
X98572000Y-71202000D01*
X93452000Y-73152000D02*
X93452000Y-71202000D01*
X98572000Y-73152000D02*
X98572000Y-75102000D01*
D15*
%TO.C,U1*%
X104318000Y-75114000D02*
G75*
G03*
X104318000Y-75114000I0J0D01*
G01*
X103118000Y-75114000D02*
G75*
G03*
X103118000Y-75114000I0J0D01*
G01*
X102718000Y-74714000D02*
G75*
G03*
X102718000Y-74714000I0J0D01*
G01*
X104718000Y-74714000D02*
G75*
G03*
X104718000Y-74714000I0J0D01*
G01*
X103518000Y-73514000D02*
G75*
G03*
X103518000Y-73514000I0J0D01*
G01*
X104318000Y-72914000D02*
G75*
G03*
X104318000Y-72914000I0J0D01*
G01*
X102718000Y-73514000D02*
G75*
G03*
X102718000Y-73514000I0J0D01*
G01*
D16*
X102118000Y-74114000D02*
G75*
G03*
X102118000Y-74114000I0J0D01*
G01*
D15*
X104718000Y-73314000D02*
G75*
G03*
X104718000Y-73314000I0J0D01*
G01*
D16*
X105318000Y-74114000D02*
G75*
G03*
X105318000Y-74114000I0J0D01*
G01*
D15*
X103118000Y-72914000D02*
G75*
G03*
X103118000Y-72914000I0J0D01*
G01*
X103718000Y-74514000D02*
G75*
G03*
X103718000Y-74514000I0J0D01*
G01*
X103118000Y-74114000D02*
G75*
G03*
X103118000Y-74114000I0J0D01*
G01*
D16*
X103718000Y-75714000D02*
G75*
G03*
X103718000Y-75714000I0J0D01*
G01*
D15*
X104118000Y-73914000D02*
G75*
G03*
X104118000Y-73914000I0J0D01*
G01*
D16*
X103718000Y-72314000D02*
G75*
G03*
X103718000Y-72314000I0J0D01*
G01*
D14*
%TO.C,D1*%
X99287000Y-67310000D02*
X99060000Y-67564000D01*
X98552000Y-65913000D02*
X98552000Y-66167000D01*
X98171000Y-65913000D02*
X98933000Y-65913000D01*
X99287000Y-65786000D02*
X99287000Y-64555000D01*
X97817000Y-66294000D02*
X97817000Y-67310000D01*
X97817000Y-64555000D02*
X97817000Y-65786000D01*
X98044000Y-67564000D02*
X97817000Y-67310000D01*
X99060000Y-67564000D02*
X98044000Y-67564000D01*
X99287000Y-67310000D02*
X99287000Y-66294000D01*
X99287000Y-64555000D02*
X97817000Y-64555000D01*
%TD*%
M02*
