%TF.GenerationSoftware,KiCad,Pcbnew,(6.0.0-0)*%
%TF.CreationDate,2022-03-07T15:49:25-05:00*%
%TF.ProjectId,qwiic,71776969-632e-46b6-9963-61645f706362,rev?*%
%TF.SameCoordinates,Original*%
%TF.FileFunction,Copper,L4,Bot*%
%TF.FilePolarity,Positive*%
%FSLAX46Y46*%
G04 Gerber Fmt 4.6, Leading zero omitted, Abs format (unit mm)*
G04 Created by KiCad (PCBNEW (6.0.0-0)) date 2022-03-07 15:49:25*
%MOMM*%
%LPD*%
G01*
G04 APERTURE LIST*
%TA.AperFunction,ComponentPad*%
%ADD10C,4.500000*%
%TD*%
%TA.AperFunction,SMDPad,CuDef*%
%ADD11R,1.000000X5.850000*%
%TD*%
%TA.AperFunction,SMDPad,CuDef*%
%ADD12R,0.610000X2.410000*%
%TD*%
%TA.AperFunction,ViaPad*%
%ADD13C,0.685800*%
%TD*%
%TA.AperFunction,Conductor*%
%ADD14C,0.254000*%
%TD*%
G04 APERTURE END LIST*
D10*
%TO.P,H1,1,1*%
%TO.N,GND*%
X95000000Y-64000000D03*
%TD*%
%TO.P,H2,1,1*%
%TO.N,GND*%
X119000000Y-64000000D03*
%TD*%
%TO.P,H3,1,1*%
%TO.N,GND*%
X119000000Y-78232000D03*
%TD*%
D11*
%TO.P,J3,*%
%TO.N,*%
X100173500Y-65000000D03*
X113826500Y-65000000D03*
D12*
%TO.P,J3,1,SDA(E)*%
%TO.N,/SDA_EEPROM*%
X101996500Y-66720000D03*
%TO.P,J3,2,SCL(E)*%
%TO.N,/SCL_EEPROM*%
X102996500Y-66720000D03*
%TO.P,J3,3,GND*%
%TO.N,GND*%
X103996500Y-66720000D03*
%TO.P,J3,4,NC*%
%TO.N,unconnected-(J3-Pad4)*%
X104996500Y-66720000D03*
%TO.P,J3,5,~{RST}*%
%TO.N,/~{RST}*%
X105996500Y-66720000D03*
%TO.P,J3,6,SCK*%
%TO.N,/SPI_SCLK*%
X106996500Y-66720000D03*
%TO.P,J3,7,MISO*%
%TO.N,/MISO*%
X107996500Y-66720000D03*
%TO.P,J3,8,MOSI*%
%TO.N,/MOSI*%
X108996500Y-66720000D03*
%TO.P,J3,9,CE*%
%TO.N,/CE*%
X109996500Y-66720000D03*
%TO.P,J3,10,SDA*%
%TO.N,/SDA*%
X110996500Y-66720000D03*
%TO.P,J3,11,SCL*%
%TO.N,/SCL*%
X111996500Y-66720000D03*
%TO.P,J3,12,NC*%
%TO.N,unconnected-(J3-Pad12)*%
X111496500Y-63280000D03*
%TO.P,J3,13,RX*%
%TO.N,/RXD*%
X110496500Y-63280000D03*
%TO.P,J3,14,TX*%
%TO.N,/TXD*%
X109496500Y-63280000D03*
%TO.P,J3,15,STAT*%
%TO.N,/Status*%
X108496500Y-63280000D03*
%TO.P,J3,16,A0*%
%TO.N,/A0*%
X107496500Y-63280000D03*
%TO.P,J3,17,A1*%
%TO.N,/A1*%
X106496500Y-63280000D03*
%TO.P,J3,18,NC*%
%TO.N,unconnected-(J3-Pad18)*%
X105496500Y-63280000D03*
%TO.P,J3,19,3V3*%
%TO.N,/3V3*%
X104496500Y-63280000D03*
%TO.P,J3,20,NC*%
%TO.N,unconnected-(J3-Pad20)*%
X103496500Y-63320000D03*
%TO.P,J3,21,5V*%
%TO.N,/5V*%
X102496500Y-63320000D03*
%TD*%
D13*
%TO.N,GND*%
X104902000Y-74168000D03*
X115316000Y-74930000D03*
X102362000Y-76454000D03*
X103124000Y-80137000D03*
X108331000Y-71120000D03*
X101219000Y-65024000D03*
X111760000Y-77470000D03*
X102108000Y-70358000D03*
X104013000Y-66675000D03*
X109220000Y-74930000D03*
X115316000Y-77470000D03*
X96012000Y-73152000D03*
X109220000Y-77470000D03*
X104013000Y-67564000D03*
X107315000Y-80391000D03*
X104902000Y-70104000D03*
X112903000Y-74930000D03*
X104902000Y-78740000D03*
X99949000Y-79248000D03*
X104013000Y-65786000D03*
%TO.N,/3V3*%
X104495600Y-64363600D03*
X104495600Y-62357000D03*
X104495600Y-63296800D03*
%TO.N,/SDA_EEPROM*%
X98806000Y-70358000D03*
%TO.N,/~{RST}*%
X105996500Y-66720000D03*
%TO.N,/SDA*%
X113538000Y-77343000D03*
%TO.N,/SCL*%
X112014000Y-66802000D03*
%TO.N,/SCL_EEPROM*%
X102108000Y-68834000D03*
%TO.N,/5V*%
X102489000Y-64135000D03*
X102496500Y-63320000D03*
%TO.N,/TXD*%
X108204000Y-69342000D03*
X109496500Y-63280000D03*
X101092000Y-76454000D03*
%TO.N,/RXD*%
X110496500Y-63280000D03*
X98298000Y-79502000D03*
X109982000Y-70612000D03*
%TD*%
D14*
%TO.N,/SDA_EEPROM*%
X101996500Y-66720000D02*
X101996500Y-67620000D01*
X101996500Y-67620000D02*
X99258500Y-70358000D01*
X99258500Y-70358000D02*
X98806000Y-70358000D01*
%TO.N,/SDA*%
X110996500Y-75009954D02*
X110996500Y-66720000D01*
X113538000Y-77343000D02*
X113329546Y-77343000D01*
X113329546Y-77343000D02*
X110996500Y-75009954D01*
%TO.N,/SCL_EEPROM*%
X102996500Y-67945500D02*
X102108000Y-68834000D01*
X102996500Y-66720000D02*
X102996500Y-67945500D01*
%TO.N,/TXD*%
X101092000Y-76454000D02*
X108204000Y-69342000D01*
%TO.N,/RXD*%
X102870000Y-78232000D02*
X98806000Y-78232000D01*
X109982000Y-70612000D02*
X109982000Y-71120000D01*
X109982000Y-71120000D02*
X102870000Y-78232000D01*
X98298000Y-78740000D02*
X98298000Y-79502000D01*
X98806000Y-78232000D02*
X98298000Y-78740000D01*
%TD*%
%TA.AperFunction,Conductor*%
%TO.N,GND*%
G36*
X93508556Y-61466002D02*
G01*
X93555049Y-61519658D01*
X93565153Y-61589932D01*
X93535659Y-61654512D01*
X93504858Y-61680285D01*
X93450196Y-61712805D01*
X93443945Y-61717053D01*
X93250733Y-61866115D01*
X93242267Y-61877773D01*
X93248871Y-61889661D01*
X94987188Y-63627978D01*
X95001132Y-63635592D01*
X95002965Y-63635461D01*
X95009580Y-63631210D01*
X96750162Y-61890628D01*
X96757174Y-61877787D01*
X96749379Y-61867098D01*
X96579886Y-61733481D01*
X96573663Y-61729156D01*
X96492326Y-61679605D01*
X96444557Y-61627082D01*
X96432767Y-61557071D01*
X96460699Y-61491800D01*
X96519485Y-61451992D01*
X96557879Y-61446000D01*
X99286595Y-61446000D01*
X99354716Y-61466002D01*
X99401209Y-61519658D01*
X99411313Y-61589932D01*
X99381819Y-61654512D01*
X99362163Y-61672824D01*
X99310239Y-61711739D01*
X99222885Y-61828295D01*
X99171755Y-61964684D01*
X99165000Y-62026866D01*
X99165000Y-67973134D01*
X99171755Y-68035316D01*
X99222885Y-68171705D01*
X99310239Y-68288261D01*
X99426795Y-68375615D01*
X99563184Y-68426745D01*
X99625366Y-68433500D01*
X99980078Y-68433500D01*
X100048199Y-68453502D01*
X100094692Y-68507158D01*
X100104796Y-68577432D01*
X100075302Y-68642012D01*
X100069173Y-68648595D01*
X99202648Y-69515120D01*
X99140336Y-69549146D01*
X99075213Y-69545888D01*
X99070546Y-69543810D01*
X98983016Y-69525205D01*
X98901943Y-69507972D01*
X98901939Y-69507972D01*
X98895486Y-69506600D01*
X98716514Y-69506600D01*
X98710061Y-69507972D01*
X98710057Y-69507972D01*
X98628984Y-69525205D01*
X98541454Y-69543810D01*
X98535424Y-69546495D01*
X98535423Y-69546495D01*
X98383985Y-69613919D01*
X98383983Y-69613920D01*
X98377955Y-69616604D01*
X98372614Y-69620484D01*
X98372613Y-69620485D01*
X98268778Y-69695926D01*
X98233164Y-69721801D01*
X98228743Y-69726711D01*
X98228742Y-69726712D01*
X98171949Y-69789788D01*
X98113409Y-69854803D01*
X98102046Y-69874485D01*
X98045002Y-69973288D01*
X98023923Y-70009797D01*
X97968618Y-70180009D01*
X97967928Y-70186572D01*
X97967928Y-70186573D01*
X97967032Y-70195100D01*
X97949910Y-70358000D01*
X97968618Y-70535991D01*
X98023923Y-70706203D01*
X98113409Y-70861197D01*
X98117827Y-70866104D01*
X98117828Y-70866105D01*
X98202554Y-70960203D01*
X98233164Y-70994199D01*
X98238506Y-70998080D01*
X98238508Y-70998082D01*
X98372613Y-71095515D01*
X98377955Y-71099396D01*
X98383983Y-71102080D01*
X98383985Y-71102081D01*
X98535423Y-71169505D01*
X98541454Y-71172190D01*
X98628984Y-71190795D01*
X98710057Y-71208028D01*
X98710061Y-71208028D01*
X98716514Y-71209400D01*
X98895486Y-71209400D01*
X98901939Y-71208028D01*
X98901943Y-71208028D01*
X98983016Y-71190795D01*
X99070546Y-71172190D01*
X99076577Y-71169505D01*
X99228015Y-71102081D01*
X99228017Y-71102080D01*
X99234045Y-71099396D01*
X99373854Y-70997818D01*
X99414061Y-70978899D01*
X99417799Y-70978427D01*
X99425172Y-70975508D01*
X99425175Y-70975507D01*
X99459056Y-70962093D01*
X99470285Y-70958248D01*
X99486965Y-70953402D01*
X99512893Y-70945869D01*
X99519720Y-70941831D01*
X99519723Y-70941830D01*
X99530406Y-70935512D01*
X99548164Y-70926812D01*
X99559715Y-70922239D01*
X99559721Y-70922235D01*
X99567088Y-70919319D01*
X99602991Y-70893234D01*
X99612910Y-70886719D01*
X99644268Y-70868174D01*
X99644272Y-70868171D01*
X99651098Y-70864134D01*
X99665482Y-70849750D01*
X99680516Y-70836909D01*
X99690573Y-70829602D01*
X99696987Y-70824942D01*
X99725278Y-70790744D01*
X99733267Y-70781965D01*
X101212413Y-69302819D01*
X101274725Y-69268793D01*
X101345540Y-69273858D01*
X101402376Y-69316405D01*
X101410628Y-69328916D01*
X101412107Y-69331479D01*
X101412110Y-69331484D01*
X101415409Y-69337197D01*
X101535164Y-69470199D01*
X101540506Y-69474080D01*
X101540508Y-69474082D01*
X101640176Y-69546495D01*
X101679955Y-69575396D01*
X101685983Y-69578080D01*
X101685985Y-69578081D01*
X101772510Y-69616604D01*
X101843454Y-69648190D01*
X101929789Y-69666541D01*
X102012057Y-69684028D01*
X102012061Y-69684028D01*
X102018514Y-69685400D01*
X102197486Y-69685400D01*
X102203939Y-69684028D01*
X102203943Y-69684028D01*
X102286211Y-69666541D01*
X102372546Y-69648190D01*
X102443490Y-69616604D01*
X102530015Y-69578081D01*
X102530017Y-69578080D01*
X102536045Y-69575396D01*
X102575824Y-69546495D01*
X102675492Y-69474082D01*
X102675494Y-69474080D01*
X102680836Y-69470199D01*
X102800591Y-69337197D01*
X102890077Y-69182203D01*
X102945382Y-69011991D01*
X102954418Y-68926024D01*
X102981432Y-68860367D01*
X102990633Y-68850100D01*
X103389983Y-68450750D01*
X103398305Y-68443176D01*
X103404803Y-68439053D01*
X103408610Y-68434999D01*
X103443142Y-68415001D01*
X103445146Y-68414250D01*
X103452980Y-68411313D01*
X103523786Y-68406128D01*
X103541441Y-68411312D01*
X103573894Y-68423478D01*
X103589149Y-68427105D01*
X103640014Y-68432631D01*
X103646828Y-68433000D01*
X103724385Y-68433000D01*
X103739624Y-68428525D01*
X103740829Y-68427135D01*
X103742500Y-68419452D01*
X103742500Y-68218852D01*
X103754347Y-68172542D01*
X103752115Y-68171705D01*
X103800471Y-68042715D01*
X103803245Y-68035316D01*
X103810000Y-67973134D01*
X103810000Y-66592000D01*
X103830002Y-66523879D01*
X103883658Y-66477386D01*
X103936000Y-66466000D01*
X104057000Y-66466000D01*
X104125121Y-66486002D01*
X104171614Y-66539658D01*
X104183000Y-66592000D01*
X104183000Y-67973134D01*
X104189755Y-68035316D01*
X104192529Y-68042715D01*
X104240885Y-68171705D01*
X104238653Y-68172542D01*
X104250500Y-68218852D01*
X104250500Y-68414884D01*
X104254975Y-68430123D01*
X104256365Y-68431328D01*
X104264048Y-68432999D01*
X104346169Y-68432999D01*
X104352990Y-68432629D01*
X104403852Y-68427105D01*
X104419107Y-68423478D01*
X104451557Y-68411313D01*
X104522364Y-68406129D01*
X104540019Y-68411313D01*
X104573781Y-68423970D01*
X104573783Y-68423970D01*
X104581184Y-68426745D01*
X104643366Y-68433500D01*
X105349634Y-68433500D01*
X105411816Y-68426745D01*
X105452271Y-68411579D01*
X105523076Y-68406396D01*
X105540723Y-68411577D01*
X105581184Y-68426745D01*
X105643366Y-68433500D01*
X106349634Y-68433500D01*
X106411816Y-68426745D01*
X106452271Y-68411579D01*
X106523076Y-68406396D01*
X106540723Y-68411577D01*
X106581184Y-68426745D01*
X106643366Y-68433500D01*
X107349634Y-68433500D01*
X107411816Y-68426745D01*
X107452271Y-68411579D01*
X107523076Y-68406396D01*
X107540723Y-68411577D01*
X107581184Y-68426745D01*
X107634164Y-68432500D01*
X107699725Y-68459741D01*
X107740152Y-68518104D01*
X107742608Y-68589058D01*
X107706313Y-68650076D01*
X107694619Y-68659698D01*
X107631164Y-68705801D01*
X107511409Y-68838803D01*
X107421923Y-68993797D01*
X107366618Y-69164009D01*
X107365928Y-69170572D01*
X107365928Y-69170573D01*
X107357582Y-69249977D01*
X107330568Y-69315634D01*
X107321367Y-69325901D01*
X101080393Y-75566874D01*
X101018081Y-75600900D01*
X101007506Y-75602600D01*
X101002514Y-75602600D01*
X100827454Y-75639810D01*
X100821424Y-75642495D01*
X100821423Y-75642495D01*
X100669985Y-75709919D01*
X100669983Y-75709920D01*
X100663955Y-75712604D01*
X100658614Y-75716484D01*
X100658613Y-75716485D01*
X100554555Y-75792088D01*
X100519164Y-75817801D01*
X100514743Y-75822711D01*
X100514742Y-75822712D01*
X100404810Y-75944805D01*
X100399409Y-75950803D01*
X100396108Y-75956521D01*
X100313791Y-76099098D01*
X100309923Y-76105797D01*
X100254618Y-76276009D01*
X100235910Y-76454000D01*
X100236600Y-76460565D01*
X100238924Y-76482671D01*
X100254618Y-76631991D01*
X100256658Y-76638269D01*
X100256658Y-76638270D01*
X100259554Y-76647184D01*
X100309923Y-76802203D01*
X100399409Y-76957197D01*
X100519164Y-77090199D01*
X100524506Y-77094080D01*
X100524508Y-77094082D01*
X100658613Y-77191515D01*
X100663955Y-77195396D01*
X100669983Y-77198080D01*
X100669985Y-77198081D01*
X100821423Y-77265505D01*
X100827454Y-77268190D01*
X100914984Y-77286795D01*
X100996057Y-77304028D01*
X100996061Y-77304028D01*
X101002514Y-77305400D01*
X101181486Y-77305400D01*
X101187939Y-77304028D01*
X101187943Y-77304028D01*
X101269016Y-77286795D01*
X101356546Y-77268190D01*
X101362577Y-77265505D01*
X101514015Y-77198081D01*
X101514017Y-77198080D01*
X101520045Y-77195396D01*
X101525387Y-77191515D01*
X101659492Y-77094082D01*
X101659494Y-77094080D01*
X101664836Y-77090199D01*
X101784591Y-76957197D01*
X101874077Y-76802203D01*
X101924446Y-76647184D01*
X101927342Y-76638270D01*
X101927342Y-76638269D01*
X101929382Y-76631991D01*
X101938418Y-76546023D01*
X101965432Y-76480366D01*
X101974633Y-76470099D01*
X108215607Y-70229126D01*
X108277919Y-70195100D01*
X108288494Y-70193400D01*
X108293486Y-70193400D01*
X108468546Y-70156190D01*
X108574980Y-70108803D01*
X108626015Y-70086081D01*
X108626017Y-70086080D01*
X108632045Y-70083396D01*
X108724695Y-70016082D01*
X108771492Y-69982082D01*
X108771494Y-69982080D01*
X108776836Y-69978199D01*
X108781258Y-69973288D01*
X108892172Y-69850105D01*
X108892173Y-69850104D01*
X108896591Y-69845197D01*
X108960409Y-69734662D01*
X108982773Y-69695926D01*
X108982774Y-69695925D01*
X108986077Y-69690203D01*
X109010863Y-69613919D01*
X109039342Y-69526270D01*
X109039342Y-69526269D01*
X109041382Y-69519991D01*
X109042790Y-69506600D01*
X109059400Y-69348565D01*
X109060090Y-69342000D01*
X109052928Y-69273858D01*
X109042072Y-69170573D01*
X109042072Y-69170572D01*
X109041382Y-69164009D01*
X108986077Y-68993797D01*
X108896591Y-68838803D01*
X108776836Y-68705801D01*
X108715773Y-68661436D01*
X108672419Y-68605214D01*
X108666344Y-68534477D01*
X108699476Y-68471686D01*
X108761296Y-68436774D01*
X108789834Y-68433500D01*
X109349634Y-68433500D01*
X109411816Y-68426745D01*
X109452271Y-68411579D01*
X109523076Y-68406396D01*
X109540723Y-68411577D01*
X109581184Y-68426745D01*
X109643366Y-68433500D01*
X110235000Y-68433500D01*
X110303121Y-68453502D01*
X110349614Y-68507158D01*
X110361000Y-68559500D01*
X110361000Y-69666541D01*
X110340998Y-69734662D01*
X110287342Y-69781155D01*
X110217068Y-69791259D01*
X110208817Y-69789791D01*
X110142184Y-69775627D01*
X110077943Y-69761972D01*
X110077939Y-69761972D01*
X110071486Y-69760600D01*
X109892514Y-69760600D01*
X109886061Y-69761972D01*
X109886057Y-69761972D01*
X109804984Y-69779205D01*
X109717454Y-69797810D01*
X109711424Y-69800495D01*
X109711423Y-69800495D01*
X109559985Y-69867919D01*
X109559983Y-69867920D01*
X109553955Y-69870604D01*
X109409164Y-69975801D01*
X109404743Y-69980711D01*
X109404742Y-69980712D01*
X109403509Y-69982082D01*
X109289409Y-70108803D01*
X109199923Y-70263797D01*
X109144618Y-70434009D01*
X109125910Y-70612000D01*
X109144618Y-70789991D01*
X109146658Y-70796269D01*
X109146658Y-70796270D01*
X109186643Y-70919332D01*
X109188670Y-70990300D01*
X109155905Y-71047363D01*
X102643672Y-77559595D01*
X102581360Y-77593621D01*
X102554577Y-77596500D01*
X98885020Y-77596500D01*
X98873791Y-77595971D01*
X98866281Y-77594292D01*
X98858355Y-77594541D01*
X98858354Y-77594541D01*
X98798002Y-77596438D01*
X98794044Y-77596500D01*
X98766017Y-77596500D01*
X98761971Y-77597011D01*
X98750143Y-77597942D01*
X98705795Y-77599336D01*
X98698178Y-77601549D01*
X98686253Y-77605013D01*
X98666894Y-77609022D01*
X98665633Y-77609181D01*
X98646701Y-77611573D01*
X98639337Y-77614489D01*
X98639332Y-77614490D01*
X98617421Y-77623166D01*
X98605428Y-77627914D01*
X98594224Y-77631751D01*
X98551607Y-77644132D01*
X98534094Y-77654489D01*
X98516343Y-77663185D01*
X98504785Y-77667761D01*
X98504780Y-77667764D01*
X98497412Y-77670681D01*
X98477816Y-77684918D01*
X98461507Y-77696767D01*
X98451585Y-77703284D01*
X98420228Y-77721828D01*
X98420225Y-77721830D01*
X98413401Y-77725866D01*
X98399014Y-77740253D01*
X98383980Y-77753094D01*
X98367513Y-77765058D01*
X98362460Y-77771166D01*
X98339228Y-77799249D01*
X98331238Y-77808029D01*
X97904517Y-78234750D01*
X97896191Y-78242326D01*
X97889697Y-78246447D01*
X97884274Y-78252222D01*
X97842915Y-78296265D01*
X97840160Y-78299107D01*
X97820361Y-78318906D01*
X97817937Y-78322031D01*
X97817929Y-78322040D01*
X97817863Y-78322126D01*
X97810155Y-78331151D01*
X97779783Y-78363494D01*
X97775965Y-78370438D01*
X97775964Y-78370440D01*
X97769978Y-78381329D01*
X97759127Y-78397847D01*
X97746650Y-78413933D01*
X97729024Y-78454666D01*
X97723807Y-78465314D01*
X97702431Y-78504197D01*
X97700460Y-78511872D01*
X97700458Y-78511878D01*
X97697369Y-78523911D01*
X97690966Y-78542613D01*
X97682883Y-78561292D01*
X97681644Y-78569117D01*
X97675940Y-78605127D01*
X97673535Y-78616740D01*
X97662500Y-78659718D01*
X97662500Y-78680065D01*
X97660949Y-78699776D01*
X97657765Y-78719879D01*
X97658511Y-78727771D01*
X97661941Y-78764056D01*
X97662500Y-78775914D01*
X97662500Y-78887031D01*
X97642498Y-78955152D01*
X97630142Y-78971335D01*
X97605409Y-78998803D01*
X97515923Y-79153797D01*
X97460618Y-79324009D01*
X97441910Y-79502000D01*
X97460618Y-79679991D01*
X97515923Y-79850203D01*
X97605409Y-80005197D01*
X97725164Y-80138199D01*
X97869955Y-80243396D01*
X97875983Y-80246080D01*
X97875985Y-80246081D01*
X98027423Y-80313505D01*
X98033454Y-80316190D01*
X98120984Y-80334795D01*
X98202057Y-80352028D01*
X98202061Y-80352028D01*
X98208514Y-80353400D01*
X98387486Y-80353400D01*
X98393939Y-80352028D01*
X98393943Y-80352028D01*
X98475016Y-80334795D01*
X98562546Y-80316190D01*
X98568577Y-80313505D01*
X98720015Y-80246081D01*
X98720017Y-80246080D01*
X98726045Y-80243396D01*
X98870836Y-80138199D01*
X98990591Y-80005197D01*
X99080077Y-79850203D01*
X99135382Y-79679991D01*
X99154090Y-79502000D01*
X99135382Y-79324009D01*
X99080077Y-79153797D01*
X99023902Y-79056499D01*
X99007164Y-78987505D01*
X99030384Y-78920413D01*
X99086191Y-78876526D01*
X99133021Y-78867500D01*
X102790980Y-78867500D01*
X102802214Y-78868030D01*
X102809719Y-78869708D01*
X102878012Y-78867562D01*
X102881969Y-78867500D01*
X102909983Y-78867500D01*
X102913908Y-78867004D01*
X102913909Y-78867004D01*
X102914004Y-78866992D01*
X102925849Y-78866059D01*
X102955670Y-78865122D01*
X102962282Y-78864914D01*
X102962283Y-78864914D01*
X102970205Y-78864665D01*
X102989749Y-78858987D01*
X103009112Y-78854977D01*
X103021440Y-78853420D01*
X103021442Y-78853420D01*
X103029299Y-78852427D01*
X103036663Y-78849511D01*
X103036668Y-78849510D01*
X103070556Y-78836093D01*
X103081785Y-78832248D01*
X103098465Y-78827402D01*
X103124393Y-78819869D01*
X103131220Y-78815831D01*
X103131223Y-78815830D01*
X103141906Y-78809512D01*
X103159664Y-78800812D01*
X103171215Y-78796239D01*
X103171221Y-78796235D01*
X103178588Y-78793319D01*
X103214491Y-78767234D01*
X103224410Y-78760719D01*
X103255768Y-78742174D01*
X103255772Y-78742171D01*
X103262598Y-78738134D01*
X103276982Y-78723750D01*
X103292016Y-78710909D01*
X103302073Y-78703602D01*
X103308487Y-78698942D01*
X103336778Y-78664744D01*
X103344767Y-78655965D01*
X103793874Y-78206858D01*
X116237299Y-78206858D01*
X116253456Y-78531410D01*
X116254287Y-78538939D01*
X116309318Y-78859198D01*
X116311051Y-78866585D01*
X116404156Y-79177909D01*
X116406759Y-79185022D01*
X116536595Y-79482913D01*
X116540037Y-79489669D01*
X116704720Y-79769803D01*
X116708943Y-79776088D01*
X116865792Y-79981608D01*
X116877316Y-79990069D01*
X116889382Y-79983408D01*
X118627978Y-78244812D01*
X118635592Y-78230868D01*
X118635461Y-78229035D01*
X118631210Y-78222420D01*
X116890864Y-76482074D01*
X116877929Y-76475011D01*
X116867367Y-76482671D01*
X116741785Y-76640268D01*
X116737428Y-76646467D01*
X116566913Y-76923094D01*
X116563333Y-76929770D01*
X116427287Y-77224878D01*
X116424537Y-77231929D01*
X116324927Y-77541251D01*
X116323044Y-77548584D01*
X116261316Y-77867632D01*
X116260329Y-77875132D01*
X116237378Y-78199277D01*
X116237299Y-78206858D01*
X103793874Y-78206858D01*
X110145905Y-71854828D01*
X110208217Y-71820802D01*
X110279032Y-71825867D01*
X110335868Y-71868414D01*
X110360679Y-71934934D01*
X110361000Y-71943923D01*
X110361000Y-74930934D01*
X110360470Y-74942168D01*
X110358792Y-74949673D01*
X110359041Y-74957592D01*
X110360938Y-75017966D01*
X110361000Y-75021923D01*
X110361000Y-75049937D01*
X110361496Y-75053862D01*
X110361496Y-75053863D01*
X110361508Y-75053958D01*
X110362441Y-75065803D01*
X110363835Y-75110159D01*
X110366047Y-75117771D01*
X110369513Y-75129702D01*
X110373523Y-75149066D01*
X110376073Y-75169253D01*
X110378989Y-75176617D01*
X110378990Y-75176622D01*
X110392407Y-75210510D01*
X110396252Y-75221739D01*
X110408631Y-75264347D01*
X110412669Y-75271174D01*
X110412670Y-75271177D01*
X110418988Y-75281860D01*
X110427688Y-75299618D01*
X110432261Y-75311169D01*
X110432265Y-75311175D01*
X110435181Y-75318542D01*
X110439839Y-75324953D01*
X110439840Y-75324955D01*
X110461264Y-75354442D01*
X110467781Y-75364364D01*
X110486326Y-75395722D01*
X110486329Y-75395726D01*
X110490366Y-75402552D01*
X110504750Y-75416936D01*
X110517591Y-75431970D01*
X110529558Y-75448441D01*
X110554658Y-75469205D01*
X110563755Y-75476731D01*
X110572535Y-75484721D01*
X112723417Y-77635603D01*
X112750213Y-77679328D01*
X112751197Y-77678890D01*
X112753881Y-77684918D01*
X112755923Y-77691203D01*
X112845409Y-77846197D01*
X112849827Y-77851104D01*
X112849828Y-77851105D01*
X112864555Y-77867461D01*
X112965164Y-77979199D01*
X113109955Y-78084396D01*
X113115983Y-78087080D01*
X113115985Y-78087081D01*
X113267423Y-78154505D01*
X113273454Y-78157190D01*
X113360984Y-78175795D01*
X113442057Y-78193028D01*
X113442061Y-78193028D01*
X113448514Y-78194400D01*
X113627486Y-78194400D01*
X113633939Y-78193028D01*
X113633943Y-78193028D01*
X113715016Y-78175795D01*
X113802546Y-78157190D01*
X113808577Y-78154505D01*
X113960015Y-78087081D01*
X113960017Y-78087080D01*
X113966045Y-78084396D01*
X114110836Y-77979199D01*
X114211445Y-77867461D01*
X114226172Y-77851105D01*
X114226173Y-77851104D01*
X114230591Y-77846197D01*
X114320077Y-77691203D01*
X114375382Y-77520991D01*
X114394090Y-77343000D01*
X114375382Y-77165009D01*
X114320077Y-76994797D01*
X114230591Y-76839803D01*
X114110836Y-76706801D01*
X114028781Y-76647184D01*
X113971387Y-76605485D01*
X113971386Y-76605484D01*
X113966045Y-76601604D01*
X113960017Y-76598920D01*
X113960015Y-76598919D01*
X113808577Y-76531495D01*
X113808576Y-76531495D01*
X113802546Y-76528810D01*
X113715016Y-76510205D01*
X113633943Y-76492972D01*
X113633939Y-76492972D01*
X113627486Y-76491600D01*
X113448514Y-76491600D01*
X113443535Y-76492658D01*
X113374248Y-76479986D01*
X113341823Y-76456544D01*
X112995052Y-76109773D01*
X117242267Y-76109773D01*
X117248871Y-76121661D01*
X118987188Y-77859978D01*
X119001132Y-77867592D01*
X119002965Y-77867461D01*
X119009580Y-77863210D01*
X120750162Y-76122628D01*
X120757174Y-76109787D01*
X120749379Y-76099098D01*
X120579886Y-75965481D01*
X120573663Y-75961156D01*
X120296140Y-75792088D01*
X120289465Y-75788553D01*
X119993637Y-75654049D01*
X119986567Y-75651335D01*
X119676740Y-75553350D01*
X119669389Y-75551503D01*
X119350024Y-75491446D01*
X119342515Y-75490498D01*
X119018251Y-75469245D01*
X119010686Y-75469205D01*
X118686207Y-75487062D01*
X118678693Y-75487931D01*
X118358713Y-75544641D01*
X118351357Y-75546406D01*
X118040503Y-75641147D01*
X118033409Y-75643786D01*
X117736207Y-75775178D01*
X117729470Y-75778655D01*
X117450196Y-75944805D01*
X117443945Y-75949053D01*
X117250733Y-76098115D01*
X117242267Y-76109773D01*
X112995052Y-76109773D01*
X111668905Y-74783626D01*
X111634879Y-74721314D01*
X111632000Y-74694531D01*
X111632000Y-68559500D01*
X111652002Y-68491379D01*
X111705658Y-68444886D01*
X111758000Y-68433500D01*
X112349634Y-68433500D01*
X112411816Y-68426745D01*
X112548205Y-68375615D01*
X112664761Y-68288261D01*
X112713174Y-68223664D01*
X112770033Y-68181149D01*
X112840852Y-68176123D01*
X112903145Y-68210183D01*
X112914826Y-68223664D01*
X112963239Y-68288261D01*
X113079795Y-68375615D01*
X113216184Y-68426745D01*
X113278366Y-68433500D01*
X114374634Y-68433500D01*
X114436816Y-68426745D01*
X114573205Y-68375615D01*
X114689761Y-68288261D01*
X114777115Y-68171705D01*
X114828245Y-68035316D01*
X114835000Y-67973134D01*
X114835000Y-66121982D01*
X117243142Y-66121982D01*
X117250668Y-66132415D01*
X117396463Y-66249848D01*
X117402648Y-66254244D01*
X117678363Y-66426195D01*
X117685034Y-66429817D01*
X117979414Y-66567402D01*
X117986468Y-66570195D01*
X118295257Y-66671420D01*
X118302570Y-66673339D01*
X118621298Y-66736738D01*
X118628789Y-66737764D01*
X118952823Y-66762413D01*
X118960386Y-66762531D01*
X119285021Y-66748074D01*
X119292562Y-66747282D01*
X119613115Y-66693926D01*
X119620479Y-66692240D01*
X119932315Y-66600757D01*
X119939424Y-66598198D01*
X120238003Y-66469919D01*
X120244770Y-66466515D01*
X120525764Y-66303301D01*
X120532071Y-66299111D01*
X120750005Y-66134588D01*
X120758461Y-66123197D01*
X120751743Y-66110953D01*
X119012812Y-64372022D01*
X118998868Y-64364408D01*
X118997035Y-64364539D01*
X118990420Y-64368790D01*
X117250257Y-66108953D01*
X117243142Y-66121982D01*
X114835000Y-66121982D01*
X114835000Y-63974858D01*
X116237299Y-63974858D01*
X116253456Y-64299410D01*
X116254287Y-64306939D01*
X116309318Y-64627198D01*
X116311051Y-64634585D01*
X116404156Y-64945909D01*
X116406759Y-64953022D01*
X116536595Y-65250913D01*
X116540037Y-65257669D01*
X116704720Y-65537803D01*
X116708943Y-65544088D01*
X116865792Y-65749608D01*
X116877316Y-65758069D01*
X116889382Y-65751408D01*
X118627978Y-64012812D01*
X118635592Y-63998868D01*
X118635461Y-63997035D01*
X118631210Y-63990420D01*
X116890864Y-62250074D01*
X116877929Y-62243011D01*
X116867367Y-62250671D01*
X116741785Y-62408268D01*
X116737428Y-62414467D01*
X116566913Y-62691094D01*
X116563333Y-62697770D01*
X116427287Y-62992878D01*
X116424537Y-62999929D01*
X116324927Y-63309251D01*
X116323044Y-63316584D01*
X116261316Y-63635632D01*
X116260329Y-63643132D01*
X116237378Y-63967277D01*
X116237299Y-63974858D01*
X114835000Y-63974858D01*
X114835000Y-62026866D01*
X114828245Y-61964684D01*
X114777115Y-61828295D01*
X114689761Y-61711739D01*
X114637838Y-61672825D01*
X114595325Y-61615966D01*
X114590300Y-61545148D01*
X114624359Y-61482855D01*
X114686691Y-61448865D01*
X114713405Y-61446000D01*
X117440435Y-61446000D01*
X117508556Y-61466002D01*
X117555049Y-61519658D01*
X117565153Y-61589932D01*
X117535659Y-61654512D01*
X117504858Y-61680285D01*
X117450196Y-61712805D01*
X117443945Y-61717053D01*
X117250733Y-61866115D01*
X117242267Y-61877773D01*
X117248871Y-61889661D01*
X118987188Y-63627978D01*
X119001132Y-63635592D01*
X119002965Y-63635461D01*
X119009580Y-63631210D01*
X120750162Y-61890628D01*
X120757174Y-61877787D01*
X120749379Y-61867098D01*
X120579886Y-61733481D01*
X120573663Y-61729156D01*
X120492326Y-61679605D01*
X120444557Y-61627082D01*
X120432767Y-61557071D01*
X120460699Y-61491800D01*
X120519485Y-61451992D01*
X120557879Y-61446000D01*
X121361000Y-61446000D01*
X121429121Y-61466002D01*
X121475614Y-61519658D01*
X121487000Y-61572000D01*
X121487000Y-62337698D01*
X121466998Y-62405819D01*
X121413342Y-62452312D01*
X121343068Y-62462416D01*
X121278488Y-62432922D01*
X121261643Y-62415184D01*
X121133617Y-62251022D01*
X121121823Y-62242551D01*
X121110113Y-62249097D01*
X119372022Y-63987188D01*
X119364408Y-64001132D01*
X119364539Y-64002965D01*
X119368790Y-64009580D01*
X121108825Y-65749615D01*
X121121948Y-65756781D01*
X121132250Y-65749391D01*
X121241429Y-65615285D01*
X121245838Y-65609149D01*
X121254437Y-65595520D01*
X121307703Y-65548581D01*
X121377891Y-65537891D01*
X121442715Y-65566844D01*
X121481596Y-65626248D01*
X121487000Y-65662754D01*
X121487000Y-76569698D01*
X121466998Y-76637819D01*
X121413342Y-76684312D01*
X121343068Y-76694416D01*
X121278488Y-76664922D01*
X121261643Y-76647184D01*
X121133617Y-76483022D01*
X121121823Y-76474551D01*
X121110113Y-76481097D01*
X119372022Y-78219188D01*
X119364408Y-78233132D01*
X119364539Y-78234965D01*
X119368790Y-78241580D01*
X121108825Y-79981615D01*
X121121948Y-79988781D01*
X121132250Y-79981391D01*
X121241429Y-79847285D01*
X121245838Y-79841149D01*
X121254437Y-79827520D01*
X121307703Y-79780581D01*
X121377891Y-79769891D01*
X121442715Y-79798844D01*
X121481596Y-79858248D01*
X121487000Y-79894754D01*
X121487000Y-86304000D01*
X121466998Y-86372121D01*
X121413342Y-86418614D01*
X121361000Y-86430000D01*
X92629000Y-86430000D01*
X92560879Y-86409998D01*
X92514386Y-86356342D01*
X92503000Y-86304000D01*
X92503000Y-80353982D01*
X117243142Y-80353982D01*
X117250668Y-80364415D01*
X117396463Y-80481848D01*
X117402648Y-80486244D01*
X117678363Y-80658195D01*
X117685034Y-80661817D01*
X117979414Y-80799402D01*
X117986468Y-80802195D01*
X118295257Y-80903420D01*
X118302570Y-80905339D01*
X118621298Y-80968738D01*
X118628789Y-80969764D01*
X118952823Y-80994413D01*
X118960386Y-80994531D01*
X119285021Y-80980074D01*
X119292562Y-80979282D01*
X119613115Y-80925926D01*
X119620479Y-80924240D01*
X119932315Y-80832757D01*
X119939424Y-80830198D01*
X120238003Y-80701919D01*
X120244770Y-80698515D01*
X120525764Y-80535301D01*
X120532071Y-80531111D01*
X120750005Y-80366588D01*
X120758461Y-80355197D01*
X120751743Y-80342953D01*
X119012812Y-78604022D01*
X118998868Y-78596408D01*
X118997035Y-78596539D01*
X118990420Y-78600790D01*
X117250257Y-80340953D01*
X117243142Y-80353982D01*
X92503000Y-80353982D01*
X92503000Y-66121982D01*
X93243142Y-66121982D01*
X93250668Y-66132415D01*
X93396463Y-66249848D01*
X93402648Y-66254244D01*
X93678363Y-66426195D01*
X93685034Y-66429817D01*
X93979414Y-66567402D01*
X93986468Y-66570195D01*
X94295257Y-66671420D01*
X94302570Y-66673339D01*
X94621298Y-66736738D01*
X94628789Y-66737764D01*
X94952823Y-66762413D01*
X94960386Y-66762531D01*
X95285021Y-66748074D01*
X95292562Y-66747282D01*
X95613115Y-66693926D01*
X95620479Y-66692240D01*
X95932315Y-66600757D01*
X95939424Y-66598198D01*
X96238003Y-66469919D01*
X96244770Y-66466515D01*
X96525764Y-66303301D01*
X96532071Y-66299111D01*
X96750005Y-66134588D01*
X96758461Y-66123197D01*
X96751743Y-66110953D01*
X95012812Y-64372022D01*
X94998868Y-64364408D01*
X94997035Y-64364539D01*
X94990420Y-64368790D01*
X93250257Y-66108953D01*
X93243142Y-66121982D01*
X92503000Y-66121982D01*
X92503000Y-65647024D01*
X92523002Y-65578903D01*
X92576658Y-65532410D01*
X92646932Y-65522306D01*
X92711512Y-65551800D01*
X92729163Y-65570582D01*
X92865792Y-65749608D01*
X92877316Y-65758069D01*
X92889382Y-65751408D01*
X94627978Y-64012812D01*
X94634356Y-64001132D01*
X95364408Y-64001132D01*
X95364539Y-64002965D01*
X95368790Y-64009580D01*
X97108825Y-65749615D01*
X97121948Y-65756781D01*
X97132250Y-65749391D01*
X97241429Y-65615285D01*
X97245842Y-65609144D01*
X97419248Y-65334312D01*
X97422895Y-65327677D01*
X97562025Y-65034011D01*
X97564850Y-65026984D01*
X97667696Y-64718715D01*
X97669650Y-64711424D01*
X97734716Y-64393033D01*
X97735784Y-64385529D01*
X97762253Y-64060100D01*
X97762458Y-64055625D01*
X97763018Y-64002221D01*
X97762908Y-63997789D01*
X97743257Y-63671835D01*
X97742349Y-63664333D01*
X97683967Y-63344663D01*
X97682154Y-63337284D01*
X97585797Y-63026966D01*
X97583116Y-63019869D01*
X97450172Y-62723363D01*
X97446655Y-62716636D01*
X97279054Y-62438252D01*
X97274757Y-62431999D01*
X97133617Y-62251022D01*
X97121823Y-62242551D01*
X97110113Y-62249097D01*
X95372022Y-63987188D01*
X95364408Y-64001132D01*
X94634356Y-64001132D01*
X94635592Y-63998868D01*
X94635461Y-63997035D01*
X94631210Y-63990420D01*
X92890864Y-62250074D01*
X92877929Y-62243011D01*
X92867367Y-62250671D01*
X92741785Y-62408268D01*
X92737427Y-62414469D01*
X92736261Y-62416360D01*
X92735816Y-62416760D01*
X92735245Y-62417573D01*
X92735059Y-62417442D01*
X92683489Y-62463855D01*
X92613418Y-62475279D01*
X92548294Y-62447006D01*
X92508793Y-62388012D01*
X92503000Y-62350246D01*
X92503000Y-61572000D01*
X92523002Y-61503879D01*
X92576658Y-61457386D01*
X92629000Y-61446000D01*
X93440435Y-61446000D01*
X93508556Y-61466002D01*
G37*
%TD.AperFunction*%
%TA.AperFunction,Conductor*%
G36*
X101428937Y-64788500D02*
G01*
X101485666Y-64788500D01*
X101553787Y-64808502D01*
X101600280Y-64862158D01*
X101610384Y-64932432D01*
X101580890Y-64997012D01*
X101529896Y-65032482D01*
X101525817Y-65034011D01*
X101444795Y-65064385D01*
X101437610Y-65069770D01*
X101437608Y-65069771D01*
X101383565Y-65110274D01*
X101317058Y-65135122D01*
X101247676Y-65120069D01*
X101197446Y-65069894D01*
X101182000Y-65009448D01*
X101182000Y-64902483D01*
X101202002Y-64834362D01*
X101255658Y-64787869D01*
X101321170Y-64777173D01*
X101428937Y-64788500D01*
G37*
%TD.AperFunction*%
%TD*%
M02*
