%TF.GenerationSoftware,KiCad,Pcbnew,(6.0.0-0)*%
%TF.CreationDate,2023-03-08T15:11:31-05:00*%
%TF.ProjectId,carrier-board,63617272-6965-4722-9d62-6f6172642e6b,rev?*%
%TF.SameCoordinates,Original*%
%TF.FileFunction,Legend,Top*%
%TF.FilePolarity,Positive*%
%FSLAX46Y46*%
G04 Gerber Fmt 4.6, Leading zero omitted, Abs format (unit mm)*
G04 Created by KiCad (PCBNEW (6.0.0-0)) date 2023-03-08 15:11:31*
%MOMM*%
%LPD*%
G01*
G04 APERTURE LIST*
%ADD10C,0.120000*%
%ADD11C,0.300000*%
%ADD12C,0.150000*%
%ADD13C,0.100000*%
%ADD14C,0.080000*%
%ADD15C,0.200000*%
%ADD16C,1.000000*%
%ADD17C,0.500000*%
G04 APERTURE END LIST*
D10*
X107308800Y-105296000D02*
X107308800Y-143142000D01*
X75500000Y-121755200D02*
X139500000Y-121755200D01*
D11*
X86322657Y-113340571D02*
X86322657Y-111840571D01*
X86822657Y-112912000D01*
X87322657Y-111840571D01*
X87322657Y-113340571D01*
X88251228Y-113340571D02*
X88108371Y-113269142D01*
X88036942Y-113197714D01*
X87965514Y-113054857D01*
X87965514Y-112626285D01*
X88036942Y-112483428D01*
X88108371Y-112412000D01*
X88251228Y-112340571D01*
X88465514Y-112340571D01*
X88608371Y-112412000D01*
X88679800Y-112483428D01*
X88751228Y-112626285D01*
X88751228Y-113054857D01*
X88679800Y-113197714D01*
X88608371Y-113269142D01*
X88465514Y-113340571D01*
X88251228Y-113340571D01*
X90036942Y-113340571D02*
X90036942Y-111840571D01*
X90036942Y-113269142D02*
X89894085Y-113340571D01*
X89608371Y-113340571D01*
X89465514Y-113269142D01*
X89394085Y-113197714D01*
X89322657Y-113054857D01*
X89322657Y-112626285D01*
X89394085Y-112483428D01*
X89465514Y-112412000D01*
X89608371Y-112340571D01*
X89894085Y-112340571D01*
X90036942Y-112412000D01*
X91394085Y-112340571D02*
X91394085Y-113340571D01*
X90751228Y-112340571D02*
X90751228Y-113126285D01*
X90822657Y-113269142D01*
X90965514Y-113340571D01*
X91179800Y-113340571D01*
X91322657Y-113269142D01*
X91394085Y-113197714D01*
X92322657Y-113340571D02*
X92179800Y-113269142D01*
X92108371Y-113126285D01*
X92108371Y-111840571D01*
X93465514Y-113269142D02*
X93322657Y-113340571D01*
X93036942Y-113340571D01*
X92894085Y-113269142D01*
X92822657Y-113126285D01*
X92822657Y-112554857D01*
X92894085Y-112412000D01*
X93036942Y-112340571D01*
X93322657Y-112340571D01*
X93465514Y-112412000D01*
X93536942Y-112554857D01*
X93536942Y-112697714D01*
X92822657Y-112840571D01*
X96108371Y-113340571D02*
X95251228Y-113340571D01*
X95679800Y-113340571D02*
X95679800Y-111840571D01*
X95536942Y-112054857D01*
X95394085Y-112197714D01*
X95251228Y-112269142D01*
X118707657Y-113086571D02*
X118707657Y-111586571D01*
X119207657Y-112658000D01*
X119707657Y-111586571D01*
X119707657Y-113086571D01*
X120636228Y-113086571D02*
X120493371Y-113015142D01*
X120421942Y-112943714D01*
X120350514Y-112800857D01*
X120350514Y-112372285D01*
X120421942Y-112229428D01*
X120493371Y-112158000D01*
X120636228Y-112086571D01*
X120850514Y-112086571D01*
X120993371Y-112158000D01*
X121064800Y-112229428D01*
X121136228Y-112372285D01*
X121136228Y-112800857D01*
X121064800Y-112943714D01*
X120993371Y-113015142D01*
X120850514Y-113086571D01*
X120636228Y-113086571D01*
X122421942Y-113086571D02*
X122421942Y-111586571D01*
X122421942Y-113015142D02*
X122279085Y-113086571D01*
X121993371Y-113086571D01*
X121850514Y-113015142D01*
X121779085Y-112943714D01*
X121707657Y-112800857D01*
X121707657Y-112372285D01*
X121779085Y-112229428D01*
X121850514Y-112158000D01*
X121993371Y-112086571D01*
X122279085Y-112086571D01*
X122421942Y-112158000D01*
X123779085Y-112086571D02*
X123779085Y-113086571D01*
X123136228Y-112086571D02*
X123136228Y-112872285D01*
X123207657Y-113015142D01*
X123350514Y-113086571D01*
X123564800Y-113086571D01*
X123707657Y-113015142D01*
X123779085Y-112943714D01*
X124707657Y-113086571D02*
X124564800Y-113015142D01*
X124493371Y-112872285D01*
X124493371Y-111586571D01*
X125850514Y-113015142D02*
X125707657Y-113086571D01*
X125421942Y-113086571D01*
X125279085Y-113015142D01*
X125207657Y-112872285D01*
X125207657Y-112300857D01*
X125279085Y-112158000D01*
X125421942Y-112086571D01*
X125707657Y-112086571D01*
X125850514Y-112158000D01*
X125921942Y-112300857D01*
X125921942Y-112443714D01*
X125207657Y-112586571D01*
X127636228Y-111729428D02*
X127707657Y-111658000D01*
X127850514Y-111586571D01*
X128207657Y-111586571D01*
X128350514Y-111658000D01*
X128421942Y-111729428D01*
X128493371Y-111872285D01*
X128493371Y-112015142D01*
X128421942Y-112229428D01*
X127564800Y-113086571D01*
X128493371Y-113086571D01*
X118707657Y-131755571D02*
X118707657Y-130255571D01*
X119207657Y-131327000D01*
X119707657Y-130255571D01*
X119707657Y-131755571D01*
X120636228Y-131755571D02*
X120493371Y-131684142D01*
X120421942Y-131612714D01*
X120350514Y-131469857D01*
X120350514Y-131041285D01*
X120421942Y-130898428D01*
X120493371Y-130827000D01*
X120636228Y-130755571D01*
X120850514Y-130755571D01*
X120993371Y-130827000D01*
X121064800Y-130898428D01*
X121136228Y-131041285D01*
X121136228Y-131469857D01*
X121064800Y-131612714D01*
X120993371Y-131684142D01*
X120850514Y-131755571D01*
X120636228Y-131755571D01*
X122421942Y-131755571D02*
X122421942Y-130255571D01*
X122421942Y-131684142D02*
X122279085Y-131755571D01*
X121993371Y-131755571D01*
X121850514Y-131684142D01*
X121779085Y-131612714D01*
X121707657Y-131469857D01*
X121707657Y-131041285D01*
X121779085Y-130898428D01*
X121850514Y-130827000D01*
X121993371Y-130755571D01*
X122279085Y-130755571D01*
X122421942Y-130827000D01*
X123779085Y-130755571D02*
X123779085Y-131755571D01*
X123136228Y-130755571D02*
X123136228Y-131541285D01*
X123207657Y-131684142D01*
X123350514Y-131755571D01*
X123564800Y-131755571D01*
X123707657Y-131684142D01*
X123779085Y-131612714D01*
X124707657Y-131755571D02*
X124564800Y-131684142D01*
X124493371Y-131541285D01*
X124493371Y-130255571D01*
X125850514Y-131684142D02*
X125707657Y-131755571D01*
X125421942Y-131755571D01*
X125279085Y-131684142D01*
X125207657Y-131541285D01*
X125207657Y-130969857D01*
X125279085Y-130827000D01*
X125421942Y-130755571D01*
X125707657Y-130755571D01*
X125850514Y-130827000D01*
X125921942Y-130969857D01*
X125921942Y-131112714D01*
X125207657Y-131255571D01*
X128350514Y-130755571D02*
X128350514Y-131755571D01*
X127993371Y-130184142D02*
X127636228Y-131255571D01*
X128564800Y-131255571D01*
X86322657Y-131628571D02*
X86322657Y-130128571D01*
X86822657Y-131200000D01*
X87322657Y-130128571D01*
X87322657Y-131628571D01*
X88251228Y-131628571D02*
X88108371Y-131557142D01*
X88036942Y-131485714D01*
X87965514Y-131342857D01*
X87965514Y-130914285D01*
X88036942Y-130771428D01*
X88108371Y-130700000D01*
X88251228Y-130628571D01*
X88465514Y-130628571D01*
X88608371Y-130700000D01*
X88679800Y-130771428D01*
X88751228Y-130914285D01*
X88751228Y-131342857D01*
X88679800Y-131485714D01*
X88608371Y-131557142D01*
X88465514Y-131628571D01*
X88251228Y-131628571D01*
X90036942Y-131628571D02*
X90036942Y-130128571D01*
X90036942Y-131557142D02*
X89894085Y-131628571D01*
X89608371Y-131628571D01*
X89465514Y-131557142D01*
X89394085Y-131485714D01*
X89322657Y-131342857D01*
X89322657Y-130914285D01*
X89394085Y-130771428D01*
X89465514Y-130700000D01*
X89608371Y-130628571D01*
X89894085Y-130628571D01*
X90036942Y-130700000D01*
X91394085Y-130628571D02*
X91394085Y-131628571D01*
X90751228Y-130628571D02*
X90751228Y-131414285D01*
X90822657Y-131557142D01*
X90965514Y-131628571D01*
X91179800Y-131628571D01*
X91322657Y-131557142D01*
X91394085Y-131485714D01*
X92322657Y-131628571D02*
X92179800Y-131557142D01*
X92108371Y-131414285D01*
X92108371Y-130128571D01*
X93465514Y-131557142D02*
X93322657Y-131628571D01*
X93036942Y-131628571D01*
X92894085Y-131557142D01*
X92822657Y-131414285D01*
X92822657Y-130842857D01*
X92894085Y-130700000D01*
X93036942Y-130628571D01*
X93322657Y-130628571D01*
X93465514Y-130700000D01*
X93536942Y-130842857D01*
X93536942Y-130985714D01*
X92822657Y-131128571D01*
X95179800Y-130128571D02*
X96108371Y-130128571D01*
X95608371Y-130700000D01*
X95822657Y-130700000D01*
X95965514Y-130771428D01*
X96036942Y-130842857D01*
X96108371Y-130985714D01*
X96108371Y-131342857D01*
X96036942Y-131485714D01*
X95965514Y-131557142D01*
X95822657Y-131628571D01*
X95394085Y-131628571D01*
X95251228Y-131557142D01*
X95179800Y-131485714D01*
D12*
X82965800Y-145329380D02*
X82489609Y-145329380D01*
X82489609Y-144329380D01*
X83680085Y-145281761D02*
X83584847Y-145329380D01*
X83394371Y-145329380D01*
X83299133Y-145281761D01*
X83251514Y-145186523D01*
X83251514Y-144805571D01*
X83299133Y-144710333D01*
X83394371Y-144662714D01*
X83584847Y-144662714D01*
X83680085Y-144710333D01*
X83727704Y-144805571D01*
X83727704Y-144900809D01*
X83251514Y-144996047D01*
X84584847Y-144662714D02*
X84584847Y-145472238D01*
X84537228Y-145567476D01*
X84489609Y-145615095D01*
X84394371Y-145662714D01*
X84251514Y-145662714D01*
X84156276Y-145615095D01*
X84584847Y-145281761D02*
X84489609Y-145329380D01*
X84299133Y-145329380D01*
X84203895Y-145281761D01*
X84156276Y-145234142D01*
X84108657Y-145138904D01*
X84108657Y-144853190D01*
X84156276Y-144757952D01*
X84203895Y-144710333D01*
X84299133Y-144662714D01*
X84489609Y-144662714D01*
X84584847Y-144710333D01*
X85203895Y-145329380D02*
X85108657Y-145281761D01*
X85061038Y-145234142D01*
X85013419Y-145138904D01*
X85013419Y-144853190D01*
X85061038Y-144757952D01*
X85108657Y-144710333D01*
X85203895Y-144662714D01*
X85346752Y-144662714D01*
X85441990Y-144710333D01*
X85489609Y-144757952D01*
X85537228Y-144853190D01*
X85537228Y-145138904D01*
X85489609Y-145234142D01*
X85441990Y-145281761D01*
X85346752Y-145329380D01*
X85203895Y-145329380D01*
X85918180Y-145281761D02*
X86061038Y-145329380D01*
X86299133Y-145329380D01*
X86394371Y-145281761D01*
X86441990Y-145234142D01*
X86489609Y-145138904D01*
X86489609Y-145043666D01*
X86441990Y-144948428D01*
X86394371Y-144900809D01*
X86299133Y-144853190D01*
X86108657Y-144805571D01*
X86013419Y-144757952D01*
X85965800Y-144710333D01*
X85918180Y-144615095D01*
X85918180Y-144519857D01*
X85965800Y-144424619D01*
X86013419Y-144377000D01*
X86108657Y-144329380D01*
X86346752Y-144329380D01*
X86489609Y-144377000D01*
X86918180Y-144805571D02*
X87251514Y-144805571D01*
X87394371Y-145329380D02*
X86918180Y-145329380D01*
X86918180Y-144329380D01*
X87394371Y-144329380D01*
X87822942Y-145329380D02*
X87822942Y-144329380D01*
X88394371Y-145329380D01*
X88394371Y-144329380D01*
X88822942Y-145281761D02*
X88965800Y-145329380D01*
X89203895Y-145329380D01*
X89299133Y-145281761D01*
X89346752Y-145234142D01*
X89394371Y-145138904D01*
X89394371Y-145043666D01*
X89346752Y-144948428D01*
X89299133Y-144900809D01*
X89203895Y-144853190D01*
X89013419Y-144805571D01*
X88918180Y-144757952D01*
X88870561Y-144710333D01*
X88822942Y-144615095D01*
X88822942Y-144519857D01*
X88870561Y-144424619D01*
X88918180Y-144377000D01*
X89013419Y-144329380D01*
X89251514Y-144329380D01*
X89394371Y-144377000D01*
X89822942Y-144805571D02*
X90156276Y-144805571D01*
X90299133Y-145329380D02*
X89822942Y-145329380D01*
X89822942Y-144329380D01*
X90299133Y-144329380D01*
X92061038Y-145234142D02*
X92013419Y-145281761D01*
X91870561Y-145329380D01*
X91775323Y-145329380D01*
X91632466Y-145281761D01*
X91537228Y-145186523D01*
X91489609Y-145091285D01*
X91441990Y-144900809D01*
X91441990Y-144757952D01*
X91489609Y-144567476D01*
X91537228Y-144472238D01*
X91632466Y-144377000D01*
X91775323Y-144329380D01*
X91870561Y-144329380D01*
X92013419Y-144377000D01*
X92061038Y-144424619D01*
X92918180Y-145329380D02*
X92918180Y-144805571D01*
X92870561Y-144710333D01*
X92775323Y-144662714D01*
X92584847Y-144662714D01*
X92489609Y-144710333D01*
X92918180Y-145281761D02*
X92822942Y-145329380D01*
X92584847Y-145329380D01*
X92489609Y-145281761D01*
X92441990Y-145186523D01*
X92441990Y-145091285D01*
X92489609Y-144996047D01*
X92584847Y-144948428D01*
X92822942Y-144948428D01*
X92918180Y-144900809D01*
X93394371Y-145329380D02*
X93394371Y-144662714D01*
X93394371Y-144853190D02*
X93441990Y-144757952D01*
X93489609Y-144710333D01*
X93584847Y-144662714D01*
X93680085Y-144662714D01*
X94013419Y-145329380D02*
X94013419Y-144662714D01*
X94013419Y-144853190D02*
X94061038Y-144757952D01*
X94108657Y-144710333D01*
X94203895Y-144662714D01*
X94299133Y-144662714D01*
X94632466Y-145329380D02*
X94632466Y-144662714D01*
X94632466Y-144329380D02*
X94584847Y-144377000D01*
X94632466Y-144424619D01*
X94680085Y-144377000D01*
X94632466Y-144329380D01*
X94632466Y-144424619D01*
X95489609Y-145281761D02*
X95394371Y-145329380D01*
X95203895Y-145329380D01*
X95108657Y-145281761D01*
X95061038Y-145186523D01*
X95061038Y-144805571D01*
X95108657Y-144710333D01*
X95203895Y-144662714D01*
X95394371Y-144662714D01*
X95489609Y-144710333D01*
X95537228Y-144805571D01*
X95537228Y-144900809D01*
X95061038Y-144996047D01*
X95965800Y-145329380D02*
X95965800Y-144662714D01*
X95965800Y-144853190D02*
X96013419Y-144757952D01*
X96061038Y-144710333D01*
X96156276Y-144662714D01*
X96251514Y-144662714D01*
X96918180Y-144805571D02*
X97061038Y-144853190D01*
X97108657Y-144900809D01*
X97156276Y-144996047D01*
X97156276Y-145138904D01*
X97108657Y-145234142D01*
X97061038Y-145281761D01*
X96965800Y-145329380D01*
X96584847Y-145329380D01*
X96584847Y-144329380D01*
X96918180Y-144329380D01*
X97013419Y-144377000D01*
X97061038Y-144424619D01*
X97108657Y-144519857D01*
X97108657Y-144615095D01*
X97061038Y-144710333D01*
X97013419Y-144757952D01*
X96918180Y-144805571D01*
X96584847Y-144805571D01*
X97727704Y-145329380D02*
X97632466Y-145281761D01*
X97584847Y-145234142D01*
X97537228Y-145138904D01*
X97537228Y-144853190D01*
X97584847Y-144757952D01*
X97632466Y-144710333D01*
X97727704Y-144662714D01*
X97870561Y-144662714D01*
X97965800Y-144710333D01*
X98013419Y-144757952D01*
X98061038Y-144853190D01*
X98061038Y-145138904D01*
X98013419Y-145234142D01*
X97965800Y-145281761D01*
X97870561Y-145329380D01*
X97727704Y-145329380D01*
X98918180Y-145329380D02*
X98918180Y-144805571D01*
X98870561Y-144710333D01*
X98775323Y-144662714D01*
X98584847Y-144662714D01*
X98489609Y-144710333D01*
X98918180Y-145281761D02*
X98822942Y-145329380D01*
X98584847Y-145329380D01*
X98489609Y-145281761D01*
X98441990Y-145186523D01*
X98441990Y-145091285D01*
X98489609Y-144996047D01*
X98584847Y-144948428D01*
X98822942Y-144948428D01*
X98918180Y-144900809D01*
X99394371Y-145329380D02*
X99394371Y-144662714D01*
X99394371Y-144853190D02*
X99441990Y-144757952D01*
X99489609Y-144710333D01*
X99584847Y-144662714D01*
X99680085Y-144662714D01*
X100441990Y-145329380D02*
X100441990Y-144329380D01*
X100441990Y-145281761D02*
X100346752Y-145329380D01*
X100156276Y-145329380D01*
X100061038Y-145281761D01*
X100013419Y-145234142D01*
X99965800Y-145138904D01*
X99965800Y-144853190D01*
X100013419Y-144757952D01*
X100061038Y-144710333D01*
X100156276Y-144662714D01*
X100346752Y-144662714D01*
X100441990Y-144710333D01*
X101537228Y-144329380D02*
X101870561Y-145329380D01*
X102203895Y-144329380D01*
X102489609Y-144424619D02*
X102537228Y-144377000D01*
X102632466Y-144329380D01*
X102870561Y-144329380D01*
X102965800Y-144377000D01*
X103013419Y-144424619D01*
X103061038Y-144519857D01*
X103061038Y-144615095D01*
X103013419Y-144757952D01*
X102441990Y-145329380D01*
X103061038Y-145329380D01*
X103489609Y-145234142D02*
X103537228Y-145281761D01*
X103489609Y-145329380D01*
X103441990Y-145281761D01*
X103489609Y-145234142D01*
X103489609Y-145329380D01*
X104489609Y-145329380D02*
X103918180Y-145329380D01*
X104203895Y-145329380D02*
X104203895Y-144329380D01*
X104108657Y-144472238D01*
X104013419Y-144567476D01*
X103918180Y-144615095D01*
X89132466Y-146939380D02*
X89132466Y-145939380D01*
X89465800Y-146653666D01*
X89799133Y-145939380D01*
X89799133Y-146939380D01*
X90703895Y-146939380D02*
X90703895Y-146415571D01*
X90656276Y-146320333D01*
X90561038Y-146272714D01*
X90370561Y-146272714D01*
X90275323Y-146320333D01*
X90703895Y-146891761D02*
X90608657Y-146939380D01*
X90370561Y-146939380D01*
X90275323Y-146891761D01*
X90227704Y-146796523D01*
X90227704Y-146701285D01*
X90275323Y-146606047D01*
X90370561Y-146558428D01*
X90608657Y-146558428D01*
X90703895Y-146510809D01*
X91180085Y-146939380D02*
X91180085Y-146272714D01*
X91180085Y-146463190D02*
X91227704Y-146367952D01*
X91275323Y-146320333D01*
X91370561Y-146272714D01*
X91465800Y-146272714D01*
X91799133Y-146844142D02*
X91846752Y-146891761D01*
X91799133Y-146939380D01*
X91751514Y-146891761D01*
X91799133Y-146844142D01*
X91799133Y-146939380D01*
X92799133Y-146939380D02*
X92227704Y-146939380D01*
X92513419Y-146939380D02*
X92513419Y-145939380D01*
X92418180Y-146082238D01*
X92322942Y-146177476D01*
X92227704Y-146225095D01*
X93275323Y-146891761D02*
X93275323Y-146939380D01*
X93227704Y-147034619D01*
X93180085Y-147082238D01*
X94418180Y-146034619D02*
X94465800Y-145987000D01*
X94561038Y-145939380D01*
X94799133Y-145939380D01*
X94894371Y-145987000D01*
X94941990Y-146034619D01*
X94989609Y-146129857D01*
X94989609Y-146225095D01*
X94941990Y-146367952D01*
X94370561Y-146939380D01*
X94989609Y-146939380D01*
X95608657Y-145939380D02*
X95703895Y-145939380D01*
X95799133Y-145987000D01*
X95846752Y-146034619D01*
X95894371Y-146129857D01*
X95941990Y-146320333D01*
X95941990Y-146558428D01*
X95894371Y-146748904D01*
X95846752Y-146844142D01*
X95799133Y-146891761D01*
X95703895Y-146939380D01*
X95608657Y-146939380D01*
X95513419Y-146891761D01*
X95465800Y-146844142D01*
X95418180Y-146748904D01*
X95370561Y-146558428D01*
X95370561Y-146320333D01*
X95418180Y-146129857D01*
X95465800Y-146034619D01*
X95513419Y-145987000D01*
X95608657Y-145939380D01*
X96322942Y-146034619D02*
X96370561Y-145987000D01*
X96465800Y-145939380D01*
X96703895Y-145939380D01*
X96799133Y-145987000D01*
X96846752Y-146034619D01*
X96894371Y-146129857D01*
X96894371Y-146225095D01*
X96846752Y-146367952D01*
X96275323Y-146939380D01*
X96894371Y-146939380D01*
X97275323Y-146034619D02*
X97322942Y-145987000D01*
X97418180Y-145939380D01*
X97656276Y-145939380D01*
X97751514Y-145987000D01*
X97799133Y-146034619D01*
X97846752Y-146129857D01*
X97846752Y-146225095D01*
X97799133Y-146367952D01*
X97227704Y-146939380D01*
X97846752Y-146939380D01*
D13*
%TO.C,J1*%
X90956333Y-117476190D02*
X90956333Y-117833333D01*
X90932523Y-117904761D01*
X90884904Y-117952380D01*
X90813476Y-117976190D01*
X90765857Y-117976190D01*
X91456333Y-117976190D02*
X91170619Y-117976190D01*
X91313476Y-117976190D02*
X91313476Y-117476190D01*
X91265857Y-117547619D01*
X91218238Y-117595238D01*
X91170619Y-117619047D01*
%TO.C,J2*%
X122956333Y-117476190D02*
X122956333Y-117833333D01*
X122932523Y-117904761D01*
X122884904Y-117952380D01*
X122813476Y-117976190D01*
X122765857Y-117976190D01*
X123170619Y-117523809D02*
X123194428Y-117500000D01*
X123242047Y-117476190D01*
X123361095Y-117476190D01*
X123408714Y-117500000D01*
X123432523Y-117523809D01*
X123456333Y-117571428D01*
X123456333Y-117619047D01*
X123432523Y-117690476D01*
X123146809Y-117976190D01*
X123456333Y-117976190D01*
%TO.C,J3*%
X91210333Y-125476190D02*
X91210333Y-125833333D01*
X91186523Y-125904761D01*
X91138904Y-125952380D01*
X91067476Y-125976190D01*
X91019857Y-125976190D01*
X91400809Y-125476190D02*
X91710333Y-125476190D01*
X91543666Y-125666666D01*
X91615095Y-125666666D01*
X91662714Y-125690476D01*
X91686523Y-125714285D01*
X91710333Y-125761904D01*
X91710333Y-125880952D01*
X91686523Y-125928571D01*
X91662714Y-125952380D01*
X91615095Y-125976190D01*
X91472238Y-125976190D01*
X91424619Y-125952380D01*
X91400809Y-125928571D01*
%TO.C,J4*%
X123210333Y-125476190D02*
X123210333Y-125833333D01*
X123186523Y-125904761D01*
X123138904Y-125952380D01*
X123067476Y-125976190D01*
X123019857Y-125976190D01*
X123662714Y-125642857D02*
X123662714Y-125976190D01*
X123543666Y-125452380D02*
X123424619Y-125809523D01*
X123734142Y-125809523D01*
D14*
%TO.C,J5*%
X80711428Y-97700000D02*
X81140000Y-97700000D01*
X81225714Y-97728571D01*
X81282857Y-97785714D01*
X81311428Y-97871428D01*
X81311428Y-97928571D01*
X80711428Y-97128571D02*
X80711428Y-97414285D01*
X80997142Y-97442857D01*
X80968571Y-97414285D01*
X80940000Y-97357142D01*
X80940000Y-97214285D01*
X80968571Y-97157142D01*
X80997142Y-97128571D01*
X81054285Y-97100000D01*
X81197142Y-97100000D01*
X81254285Y-97128571D01*
X81282857Y-97157142D01*
X81311428Y-97214285D01*
X81311428Y-97357142D01*
X81282857Y-97414285D01*
X81254285Y-97442857D01*
D12*
%TO.C,U7*%
X110687095Y-141710380D02*
X110687095Y-142519904D01*
X110734714Y-142615142D01*
X110782333Y-142662761D01*
X110877571Y-142710380D01*
X111068047Y-142710380D01*
X111163285Y-142662761D01*
X111210904Y-142615142D01*
X111258523Y-142519904D01*
X111258523Y-141710380D01*
X111639476Y-141710380D02*
X112306142Y-141710380D01*
X111877571Y-142710380D01*
%TO.C,FB1*%
X99744466Y-140276571D02*
X99411133Y-140276571D01*
X99411133Y-140800380D02*
X99411133Y-139800380D01*
X99887323Y-139800380D01*
X100601609Y-140276571D02*
X100744466Y-140324190D01*
X100792085Y-140371809D01*
X100839704Y-140467047D01*
X100839704Y-140609904D01*
X100792085Y-140705142D01*
X100744466Y-140752761D01*
X100649228Y-140800380D01*
X100268276Y-140800380D01*
X100268276Y-139800380D01*
X100601609Y-139800380D01*
X100696847Y-139848000D01*
X100744466Y-139895619D01*
X100792085Y-139990857D01*
X100792085Y-140086095D01*
X100744466Y-140181333D01*
X100696847Y-140228952D01*
X100601609Y-140276571D01*
X100268276Y-140276571D01*
X101792085Y-140800380D02*
X101220657Y-140800380D01*
X101506371Y-140800380D02*
X101506371Y-139800380D01*
X101411133Y-139943238D01*
X101315895Y-140038476D01*
X101220657Y-140086095D01*
%TO.C,C16*%
X97521942Y-134355142D02*
X97474323Y-134402761D01*
X97331466Y-134450380D01*
X97236228Y-134450380D01*
X97093371Y-134402761D01*
X96998133Y-134307523D01*
X96950514Y-134212285D01*
X96902895Y-134021809D01*
X96902895Y-133878952D01*
X96950514Y-133688476D01*
X96998133Y-133593238D01*
X97093371Y-133498000D01*
X97236228Y-133450380D01*
X97331466Y-133450380D01*
X97474323Y-133498000D01*
X97521942Y-133545619D01*
X98474323Y-134450380D02*
X97902895Y-134450380D01*
X98188609Y-134450380D02*
X98188609Y-133450380D01*
X98093371Y-133593238D01*
X97998133Y-133688476D01*
X97902895Y-133736095D01*
X99331466Y-133450380D02*
X99140990Y-133450380D01*
X99045752Y-133498000D01*
X98998133Y-133545619D01*
X98902895Y-133688476D01*
X98855276Y-133878952D01*
X98855276Y-134259904D01*
X98902895Y-134355142D01*
X98950514Y-134402761D01*
X99045752Y-134450380D01*
X99236228Y-134450380D01*
X99331466Y-134402761D01*
X99379085Y-134355142D01*
X99426704Y-134259904D01*
X99426704Y-134021809D01*
X99379085Y-133926571D01*
X99331466Y-133878952D01*
X99236228Y-133831333D01*
X99045752Y-133831333D01*
X98950514Y-133878952D01*
X98902895Y-133926571D01*
X98855276Y-134021809D01*
%TO.C,C2*%
X115016133Y-108447142D02*
X114968514Y-108494761D01*
X114825657Y-108542380D01*
X114730419Y-108542380D01*
X114587561Y-108494761D01*
X114492323Y-108399523D01*
X114444704Y-108304285D01*
X114397085Y-108113809D01*
X114397085Y-107970952D01*
X114444704Y-107780476D01*
X114492323Y-107685238D01*
X114587561Y-107590000D01*
X114730419Y-107542380D01*
X114825657Y-107542380D01*
X114968514Y-107590000D01*
X115016133Y-107637619D01*
X115397085Y-107637619D02*
X115444704Y-107590000D01*
X115539942Y-107542380D01*
X115778038Y-107542380D01*
X115873276Y-107590000D01*
X115920895Y-107637619D01*
X115968514Y-107732857D01*
X115968514Y-107828095D01*
X115920895Y-107970952D01*
X115349466Y-108542380D01*
X115968514Y-108542380D01*
%TO.C,R9*%
X113603180Y-129719666D02*
X113126990Y-130053000D01*
X113603180Y-130291095D02*
X112603180Y-130291095D01*
X112603180Y-129910142D01*
X112650800Y-129814904D01*
X112698419Y-129767285D01*
X112793657Y-129719666D01*
X112936514Y-129719666D01*
X113031752Y-129767285D01*
X113079371Y-129814904D01*
X113126990Y-129910142D01*
X113126990Y-130291095D01*
X113603180Y-129243476D02*
X113603180Y-129053000D01*
X113555561Y-128957761D01*
X113507942Y-128910142D01*
X113365085Y-128814904D01*
X113174609Y-128767285D01*
X112793657Y-128767285D01*
X112698419Y-128814904D01*
X112650800Y-128862523D01*
X112603180Y-128957761D01*
X112603180Y-129148238D01*
X112650800Y-129243476D01*
X112698419Y-129291095D01*
X112793657Y-129338714D01*
X113031752Y-129338714D01*
X113126990Y-129291095D01*
X113174609Y-129243476D01*
X113222228Y-129148238D01*
X113222228Y-128957761D01*
X113174609Y-128862523D01*
X113126990Y-128814904D01*
X113031752Y-128767285D01*
%TO.C,R4*%
X87076133Y-129878380D02*
X86742800Y-129402190D01*
X86504704Y-129878380D02*
X86504704Y-128878380D01*
X86885657Y-128878380D01*
X86980895Y-128926000D01*
X87028514Y-128973619D01*
X87076133Y-129068857D01*
X87076133Y-129211714D01*
X87028514Y-129306952D01*
X86980895Y-129354571D01*
X86885657Y-129402190D01*
X86504704Y-129402190D01*
X87933276Y-129211714D02*
X87933276Y-129878380D01*
X87695180Y-128830761D02*
X87457085Y-129545047D01*
X88076133Y-129545047D01*
%TO.C,U6*%
X121424495Y-135482380D02*
X121424495Y-136291904D01*
X121472114Y-136387142D01*
X121519733Y-136434761D01*
X121614971Y-136482380D01*
X121805447Y-136482380D01*
X121900685Y-136434761D01*
X121948304Y-136387142D01*
X121995923Y-136291904D01*
X121995923Y-135482380D01*
X122900685Y-135482380D02*
X122710209Y-135482380D01*
X122614971Y-135530000D01*
X122567352Y-135577619D01*
X122472114Y-135720476D01*
X122424495Y-135910952D01*
X122424495Y-136291904D01*
X122472114Y-136387142D01*
X122519733Y-136434761D01*
X122614971Y-136482380D01*
X122805447Y-136482380D01*
X122900685Y-136434761D01*
X122948304Y-136387142D01*
X122995923Y-136291904D01*
X122995923Y-136053809D01*
X122948304Y-135958571D01*
X122900685Y-135910952D01*
X122805447Y-135863333D01*
X122614971Y-135863333D01*
X122519733Y-135910952D01*
X122472114Y-135958571D01*
X122424495Y-136053809D01*
%TO.C,R1*%
X100522180Y-110669666D02*
X100045990Y-111003000D01*
X100522180Y-111241095D02*
X99522180Y-111241095D01*
X99522180Y-110860142D01*
X99569800Y-110764904D01*
X99617419Y-110717285D01*
X99712657Y-110669666D01*
X99855514Y-110669666D01*
X99950752Y-110717285D01*
X99998371Y-110764904D01*
X100045990Y-110860142D01*
X100045990Y-111241095D01*
X100522180Y-109717285D02*
X100522180Y-110288714D01*
X100522180Y-110003000D02*
X99522180Y-110003000D01*
X99665038Y-110098238D01*
X99760276Y-110193476D01*
X99807895Y-110288714D01*
%TO.C,R2*%
X92156133Y-114638380D02*
X91822800Y-114162190D01*
X91584704Y-114638380D02*
X91584704Y-113638380D01*
X91965657Y-113638380D01*
X92060895Y-113686000D01*
X92108514Y-113733619D01*
X92156133Y-113828857D01*
X92156133Y-113971714D01*
X92108514Y-114066952D01*
X92060895Y-114114571D01*
X91965657Y-114162190D01*
X91584704Y-114162190D01*
X92537085Y-113733619D02*
X92584704Y-113686000D01*
X92679942Y-113638380D01*
X92918038Y-113638380D01*
X93013276Y-113686000D01*
X93060895Y-113733619D01*
X93108514Y-113828857D01*
X93108514Y-113924095D01*
X93060895Y-114066952D01*
X92489466Y-114638380D01*
X93108514Y-114638380D01*
%TO.C,C13*%
X95616942Y-139562142D02*
X95569323Y-139609761D01*
X95426466Y-139657380D01*
X95331228Y-139657380D01*
X95188371Y-139609761D01*
X95093133Y-139514523D01*
X95045514Y-139419285D01*
X94997895Y-139228809D01*
X94997895Y-139085952D01*
X95045514Y-138895476D01*
X95093133Y-138800238D01*
X95188371Y-138705000D01*
X95331228Y-138657380D01*
X95426466Y-138657380D01*
X95569323Y-138705000D01*
X95616942Y-138752619D01*
X96569323Y-139657380D02*
X95997895Y-139657380D01*
X96283609Y-139657380D02*
X96283609Y-138657380D01*
X96188371Y-138800238D01*
X96093133Y-138895476D01*
X95997895Y-138943095D01*
X96902657Y-138657380D02*
X97521704Y-138657380D01*
X97188371Y-139038333D01*
X97331228Y-139038333D01*
X97426466Y-139085952D01*
X97474085Y-139133571D01*
X97521704Y-139228809D01*
X97521704Y-139466904D01*
X97474085Y-139562142D01*
X97426466Y-139609761D01*
X97331228Y-139657380D01*
X97045514Y-139657380D01*
X96950276Y-139609761D01*
X96902657Y-139562142D01*
%TO.C,U1*%
X105530895Y-107542380D02*
X105530895Y-108351904D01*
X105578514Y-108447142D01*
X105626133Y-108494761D01*
X105721371Y-108542380D01*
X105911847Y-108542380D01*
X106007085Y-108494761D01*
X106054704Y-108447142D01*
X106102323Y-108351904D01*
X106102323Y-107542380D01*
X107102323Y-108542380D02*
X106530895Y-108542380D01*
X106816609Y-108542380D02*
X106816609Y-107542380D01*
X106721371Y-107685238D01*
X106626133Y-107780476D01*
X106530895Y-107828095D01*
%TO.C,C22*%
X131684942Y-139308142D02*
X131637323Y-139355761D01*
X131494466Y-139403380D01*
X131399228Y-139403380D01*
X131256371Y-139355761D01*
X131161133Y-139260523D01*
X131113514Y-139165285D01*
X131065895Y-138974809D01*
X131065895Y-138831952D01*
X131113514Y-138641476D01*
X131161133Y-138546238D01*
X131256371Y-138451000D01*
X131399228Y-138403380D01*
X131494466Y-138403380D01*
X131637323Y-138451000D01*
X131684942Y-138498619D01*
X132065895Y-138498619D02*
X132113514Y-138451000D01*
X132208752Y-138403380D01*
X132446847Y-138403380D01*
X132542085Y-138451000D01*
X132589704Y-138498619D01*
X132637323Y-138593857D01*
X132637323Y-138689095D01*
X132589704Y-138831952D01*
X132018276Y-139403380D01*
X132637323Y-139403380D01*
X133018276Y-138498619D02*
X133065895Y-138451000D01*
X133161133Y-138403380D01*
X133399228Y-138403380D01*
X133494466Y-138451000D01*
X133542085Y-138498619D01*
X133589704Y-138593857D01*
X133589704Y-138689095D01*
X133542085Y-138831952D01*
X132970657Y-139403380D01*
X133589704Y-139403380D01*
%TO.C,RN4*%
X136717323Y-132096380D02*
X136383990Y-131620190D01*
X136145895Y-132096380D02*
X136145895Y-131096380D01*
X136526847Y-131096380D01*
X136622085Y-131144000D01*
X136669704Y-131191619D01*
X136717323Y-131286857D01*
X136717323Y-131429714D01*
X136669704Y-131524952D01*
X136622085Y-131572571D01*
X136526847Y-131620190D01*
X136145895Y-131620190D01*
X137145895Y-132096380D02*
X137145895Y-131096380D01*
X137717323Y-132096380D01*
X137717323Y-131096380D01*
X138622085Y-131429714D02*
X138622085Y-132096380D01*
X138383990Y-131048761D02*
X138145895Y-131763047D01*
X138764942Y-131763047D01*
%TO.C,C15*%
X98283942Y-132831142D02*
X98236323Y-132878761D01*
X98093466Y-132926380D01*
X97998228Y-132926380D01*
X97855371Y-132878761D01*
X97760133Y-132783523D01*
X97712514Y-132688285D01*
X97664895Y-132497809D01*
X97664895Y-132354952D01*
X97712514Y-132164476D01*
X97760133Y-132069238D01*
X97855371Y-131974000D01*
X97998228Y-131926380D01*
X98093466Y-131926380D01*
X98236323Y-131974000D01*
X98283942Y-132021619D01*
X99236323Y-132926380D02*
X98664895Y-132926380D01*
X98950609Y-132926380D02*
X98950609Y-131926380D01*
X98855371Y-132069238D01*
X98760133Y-132164476D01*
X98664895Y-132212095D01*
X100141085Y-131926380D02*
X99664895Y-131926380D01*
X99617276Y-132402571D01*
X99664895Y-132354952D01*
X99760133Y-132307333D01*
X99998228Y-132307333D01*
X100093466Y-132354952D01*
X100141085Y-132402571D01*
X100188704Y-132497809D01*
X100188704Y-132735904D01*
X100141085Y-132831142D01*
X100093466Y-132878761D01*
X99998228Y-132926380D01*
X99760133Y-132926380D01*
X99664895Y-132878761D01*
X99617276Y-132831142D01*
%TO.C,C5*%
X97490133Y-111495142D02*
X97442514Y-111542761D01*
X97299657Y-111590380D01*
X97204419Y-111590380D01*
X97061561Y-111542761D01*
X96966323Y-111447523D01*
X96918704Y-111352285D01*
X96871085Y-111161809D01*
X96871085Y-111018952D01*
X96918704Y-110828476D01*
X96966323Y-110733238D01*
X97061561Y-110638000D01*
X97204419Y-110590380D01*
X97299657Y-110590380D01*
X97442514Y-110638000D01*
X97490133Y-110685619D01*
X98394895Y-110590380D02*
X97918704Y-110590380D01*
X97871085Y-111066571D01*
X97918704Y-111018952D01*
X98013942Y-110971333D01*
X98252038Y-110971333D01*
X98347276Y-111018952D01*
X98394895Y-111066571D01*
X98442514Y-111161809D01*
X98442514Y-111399904D01*
X98394895Y-111495142D01*
X98347276Y-111542761D01*
X98252038Y-111590380D01*
X98013942Y-111590380D01*
X97918704Y-111542761D01*
X97871085Y-111495142D01*
%TO.C,C3*%
X100665133Y-137911142D02*
X100617514Y-137958761D01*
X100474657Y-138006380D01*
X100379419Y-138006380D01*
X100236561Y-137958761D01*
X100141323Y-137863523D01*
X100093704Y-137768285D01*
X100046085Y-137577809D01*
X100046085Y-137434952D01*
X100093704Y-137244476D01*
X100141323Y-137149238D01*
X100236561Y-137054000D01*
X100379419Y-137006380D01*
X100474657Y-137006380D01*
X100617514Y-137054000D01*
X100665133Y-137101619D01*
X100998466Y-137006380D02*
X101617514Y-137006380D01*
X101284180Y-137387333D01*
X101427038Y-137387333D01*
X101522276Y-137434952D01*
X101569895Y-137482571D01*
X101617514Y-137577809D01*
X101617514Y-137815904D01*
X101569895Y-137911142D01*
X101522276Y-137958761D01*
X101427038Y-138006380D01*
X101141323Y-138006380D01*
X101046085Y-137958761D01*
X100998466Y-137911142D01*
%TO.C,Q1*%
X108999419Y-129648238D02*
X108951800Y-129743476D01*
X108856561Y-129838714D01*
X108713704Y-129981571D01*
X108666085Y-130076809D01*
X108666085Y-130172047D01*
X108904180Y-130124428D02*
X108856561Y-130219666D01*
X108761323Y-130314904D01*
X108570847Y-130362523D01*
X108237514Y-130362523D01*
X108047038Y-130314904D01*
X107951800Y-130219666D01*
X107904180Y-130124428D01*
X107904180Y-129933952D01*
X107951800Y-129838714D01*
X108047038Y-129743476D01*
X108237514Y-129695857D01*
X108570847Y-129695857D01*
X108761323Y-129743476D01*
X108856561Y-129838714D01*
X108904180Y-129933952D01*
X108904180Y-130124428D01*
X108904180Y-128743476D02*
X108904180Y-129314904D01*
X108904180Y-129029190D02*
X107904180Y-129029190D01*
X108047038Y-129124428D01*
X108142276Y-129219666D01*
X108189895Y-129314904D01*
%TO.C,C7*%
X96016933Y-103435742D02*
X95969314Y-103483361D01*
X95826457Y-103530980D01*
X95731219Y-103530980D01*
X95588361Y-103483361D01*
X95493123Y-103388123D01*
X95445504Y-103292885D01*
X95397885Y-103102409D01*
X95397885Y-102959552D01*
X95445504Y-102769076D01*
X95493123Y-102673838D01*
X95588361Y-102578600D01*
X95731219Y-102530980D01*
X95826457Y-102530980D01*
X95969314Y-102578600D01*
X96016933Y-102626219D01*
X96350266Y-102530980D02*
X97016933Y-102530980D01*
X96588361Y-103530980D01*
%TO.C,R3*%
X127208133Y-114384380D02*
X126874800Y-113908190D01*
X126636704Y-114384380D02*
X126636704Y-113384380D01*
X127017657Y-113384380D01*
X127112895Y-113432000D01*
X127160514Y-113479619D01*
X127208133Y-113574857D01*
X127208133Y-113717714D01*
X127160514Y-113812952D01*
X127112895Y-113860571D01*
X127017657Y-113908190D01*
X126636704Y-113908190D01*
X127541466Y-113384380D02*
X128160514Y-113384380D01*
X127827180Y-113765333D01*
X127970038Y-113765333D01*
X128065276Y-113812952D01*
X128112895Y-113860571D01*
X128160514Y-113955809D01*
X128160514Y-114193904D01*
X128112895Y-114289142D01*
X128065276Y-114336761D01*
X127970038Y-114384380D01*
X127684323Y-114384380D01*
X127589085Y-114336761D01*
X127541466Y-114289142D01*
%TO.C,RN2*%
X104713323Y-132096380D02*
X104379990Y-131620190D01*
X104141895Y-132096380D02*
X104141895Y-131096380D01*
X104522847Y-131096380D01*
X104618085Y-131144000D01*
X104665704Y-131191619D01*
X104713323Y-131286857D01*
X104713323Y-131429714D01*
X104665704Y-131524952D01*
X104618085Y-131572571D01*
X104522847Y-131620190D01*
X104141895Y-131620190D01*
X105141895Y-132096380D02*
X105141895Y-131096380D01*
X105713323Y-132096380D01*
X105713323Y-131096380D01*
X106141895Y-131191619D02*
X106189514Y-131144000D01*
X106284752Y-131096380D01*
X106522847Y-131096380D01*
X106618085Y-131144000D01*
X106665704Y-131191619D01*
X106713323Y-131286857D01*
X106713323Y-131382095D01*
X106665704Y-131524952D01*
X106094276Y-132096380D01*
X106713323Y-132096380D01*
%TO.C,U2*%
X101339895Y-133196380D02*
X101339895Y-134005904D01*
X101387514Y-134101142D01*
X101435133Y-134148761D01*
X101530371Y-134196380D01*
X101720847Y-134196380D01*
X101816085Y-134148761D01*
X101863704Y-134101142D01*
X101911323Y-134005904D01*
X101911323Y-133196380D01*
X102339895Y-133291619D02*
X102387514Y-133244000D01*
X102482752Y-133196380D01*
X102720847Y-133196380D01*
X102816085Y-133244000D01*
X102863704Y-133291619D01*
X102911323Y-133386857D01*
X102911323Y-133482095D01*
X102863704Y-133624952D01*
X102292276Y-134196380D01*
X102911323Y-134196380D01*
%TO.C,C18*%
X129271942Y-136133142D02*
X129224323Y-136180761D01*
X129081466Y-136228380D01*
X128986228Y-136228380D01*
X128843371Y-136180761D01*
X128748133Y-136085523D01*
X128700514Y-135990285D01*
X128652895Y-135799809D01*
X128652895Y-135656952D01*
X128700514Y-135466476D01*
X128748133Y-135371238D01*
X128843371Y-135276000D01*
X128986228Y-135228380D01*
X129081466Y-135228380D01*
X129224323Y-135276000D01*
X129271942Y-135323619D01*
X130224323Y-136228380D02*
X129652895Y-136228380D01*
X129938609Y-136228380D02*
X129938609Y-135228380D01*
X129843371Y-135371238D01*
X129748133Y-135466476D01*
X129652895Y-135514095D01*
X130795752Y-135656952D02*
X130700514Y-135609333D01*
X130652895Y-135561714D01*
X130605276Y-135466476D01*
X130605276Y-135418857D01*
X130652895Y-135323619D01*
X130700514Y-135276000D01*
X130795752Y-135228380D01*
X130986228Y-135228380D01*
X131081466Y-135276000D01*
X131129085Y-135323619D01*
X131176704Y-135418857D01*
X131176704Y-135466476D01*
X131129085Y-135561714D01*
X131081466Y-135609333D01*
X130986228Y-135656952D01*
X130795752Y-135656952D01*
X130700514Y-135704571D01*
X130652895Y-135752190D01*
X130605276Y-135847428D01*
X130605276Y-136037904D01*
X130652895Y-136133142D01*
X130700514Y-136180761D01*
X130795752Y-136228380D01*
X130986228Y-136228380D01*
X131081466Y-136180761D01*
X131129085Y-136133142D01*
X131176704Y-136037904D01*
X131176704Y-135847428D01*
X131129085Y-135752190D01*
X131081466Y-135704571D01*
X130986228Y-135656952D01*
%TO.C,R5*%
X123144133Y-129878380D02*
X122810800Y-129402190D01*
X122572704Y-129878380D02*
X122572704Y-128878380D01*
X122953657Y-128878380D01*
X123048895Y-128926000D01*
X123096514Y-128973619D01*
X123144133Y-129068857D01*
X123144133Y-129211714D01*
X123096514Y-129306952D01*
X123048895Y-129354571D01*
X122953657Y-129402190D01*
X122572704Y-129402190D01*
X124048895Y-128878380D02*
X123572704Y-128878380D01*
X123525085Y-129354571D01*
X123572704Y-129306952D01*
X123667942Y-129259333D01*
X123906038Y-129259333D01*
X124001276Y-129306952D01*
X124048895Y-129354571D01*
X124096514Y-129449809D01*
X124096514Y-129687904D01*
X124048895Y-129783142D01*
X124001276Y-129830761D01*
X123906038Y-129878380D01*
X123667942Y-129878380D01*
X123572704Y-129830761D01*
X123525085Y-129783142D01*
%TO.C,C12*%
X130414942Y-106161142D02*
X130367323Y-106208761D01*
X130224466Y-106256380D01*
X130129228Y-106256380D01*
X129986371Y-106208761D01*
X129891133Y-106113523D01*
X129843514Y-106018285D01*
X129795895Y-105827809D01*
X129795895Y-105684952D01*
X129843514Y-105494476D01*
X129891133Y-105399238D01*
X129986371Y-105304000D01*
X130129228Y-105256380D01*
X130224466Y-105256380D01*
X130367323Y-105304000D01*
X130414942Y-105351619D01*
X131367323Y-106256380D02*
X130795895Y-106256380D01*
X131081609Y-106256380D02*
X131081609Y-105256380D01*
X130986371Y-105399238D01*
X130891133Y-105494476D01*
X130795895Y-105542095D01*
X131748276Y-105351619D02*
X131795895Y-105304000D01*
X131891133Y-105256380D01*
X132129228Y-105256380D01*
X132224466Y-105304000D01*
X132272085Y-105351619D01*
X132319704Y-105446857D01*
X132319704Y-105542095D01*
X132272085Y-105684952D01*
X131700657Y-106256380D01*
X132319704Y-106256380D01*
%TO.C,C10*%
X130414942Y-107939142D02*
X130367323Y-107986761D01*
X130224466Y-108034380D01*
X130129228Y-108034380D01*
X129986371Y-107986761D01*
X129891133Y-107891523D01*
X129843514Y-107796285D01*
X129795895Y-107605809D01*
X129795895Y-107462952D01*
X129843514Y-107272476D01*
X129891133Y-107177238D01*
X129986371Y-107082000D01*
X130129228Y-107034380D01*
X130224466Y-107034380D01*
X130367323Y-107082000D01*
X130414942Y-107129619D01*
X131367323Y-108034380D02*
X130795895Y-108034380D01*
X131081609Y-108034380D02*
X131081609Y-107034380D01*
X130986371Y-107177238D01*
X130891133Y-107272476D01*
X130795895Y-107320095D01*
X131986371Y-107034380D02*
X132081609Y-107034380D01*
X132176847Y-107082000D01*
X132224466Y-107129619D01*
X132272085Y-107224857D01*
X132319704Y-107415333D01*
X132319704Y-107653428D01*
X132272085Y-107843904D01*
X132224466Y-107939142D01*
X132176847Y-107986761D01*
X132081609Y-108034380D01*
X131986371Y-108034380D01*
X131891133Y-107986761D01*
X131843514Y-107939142D01*
X131795895Y-107843904D01*
X131748276Y-107653428D01*
X131748276Y-107415333D01*
X131795895Y-107224857D01*
X131843514Y-107129619D01*
X131891133Y-107082000D01*
X131986371Y-107034380D01*
%TO.C,R6*%
X109504333Y-136736380D02*
X109171000Y-136260190D01*
X108932904Y-136736380D02*
X108932904Y-135736380D01*
X109313857Y-135736380D01*
X109409095Y-135784000D01*
X109456714Y-135831619D01*
X109504333Y-135926857D01*
X109504333Y-136069714D01*
X109456714Y-136164952D01*
X109409095Y-136212571D01*
X109313857Y-136260190D01*
X108932904Y-136260190D01*
X110361476Y-135736380D02*
X110171000Y-135736380D01*
X110075761Y-135784000D01*
X110028142Y-135831619D01*
X109932904Y-135974476D01*
X109885285Y-136164952D01*
X109885285Y-136545904D01*
X109932904Y-136641142D01*
X109980523Y-136688761D01*
X110075761Y-136736380D01*
X110266238Y-136736380D01*
X110361476Y-136688761D01*
X110409095Y-136641142D01*
X110456714Y-136545904D01*
X110456714Y-136307809D01*
X110409095Y-136212571D01*
X110361476Y-136164952D01*
X110266238Y-136117333D01*
X110075761Y-136117333D01*
X109980523Y-136164952D01*
X109932904Y-136212571D01*
X109885285Y-136307809D01*
%TO.C,C9*%
X129246933Y-111368142D02*
X129199314Y-111415761D01*
X129056457Y-111463380D01*
X128961219Y-111463380D01*
X128818361Y-111415761D01*
X128723123Y-111320523D01*
X128675504Y-111225285D01*
X128627885Y-111034809D01*
X128627885Y-110891952D01*
X128675504Y-110701476D01*
X128723123Y-110606238D01*
X128818361Y-110511000D01*
X128961219Y-110463380D01*
X129056457Y-110463380D01*
X129199314Y-110511000D01*
X129246933Y-110558619D01*
X129723123Y-111463380D02*
X129913600Y-111463380D01*
X130008838Y-111415761D01*
X130056457Y-111368142D01*
X130151695Y-111225285D01*
X130199314Y-111034809D01*
X130199314Y-110653857D01*
X130151695Y-110558619D01*
X130104076Y-110511000D01*
X130008838Y-110463380D01*
X129818361Y-110463380D01*
X129723123Y-110511000D01*
X129675504Y-110558619D01*
X129627885Y-110653857D01*
X129627885Y-110891952D01*
X129675504Y-110987190D01*
X129723123Y-111034809D01*
X129818361Y-111082428D01*
X130008838Y-111082428D01*
X130104076Y-111034809D01*
X130151695Y-110987190D01*
X130199314Y-110891952D01*
%TO.C,U5*%
X89528895Y-135355380D02*
X89528895Y-136164904D01*
X89576514Y-136260142D01*
X89624133Y-136307761D01*
X89719371Y-136355380D01*
X89909847Y-136355380D01*
X90005085Y-136307761D01*
X90052704Y-136260142D01*
X90100323Y-136164904D01*
X90100323Y-135355380D01*
X91052704Y-135355380D02*
X90576514Y-135355380D01*
X90528895Y-135831571D01*
X90576514Y-135783952D01*
X90671752Y-135736333D01*
X90909847Y-135736333D01*
X91005085Y-135783952D01*
X91052704Y-135831571D01*
X91100323Y-135926809D01*
X91100323Y-136164904D01*
X91052704Y-136260142D01*
X91005085Y-136307761D01*
X90909847Y-136355380D01*
X90671752Y-136355380D01*
X90576514Y-136307761D01*
X90528895Y-136260142D01*
%TO.C,C6*%
X97363133Y-108320142D02*
X97315514Y-108367761D01*
X97172657Y-108415380D01*
X97077419Y-108415380D01*
X96934561Y-108367761D01*
X96839323Y-108272523D01*
X96791704Y-108177285D01*
X96744085Y-107986809D01*
X96744085Y-107843952D01*
X96791704Y-107653476D01*
X96839323Y-107558238D01*
X96934561Y-107463000D01*
X97077419Y-107415380D01*
X97172657Y-107415380D01*
X97315514Y-107463000D01*
X97363133Y-107510619D01*
X98220276Y-107415380D02*
X98029800Y-107415380D01*
X97934561Y-107463000D01*
X97886942Y-107510619D01*
X97791704Y-107653476D01*
X97744085Y-107843952D01*
X97744085Y-108224904D01*
X97791704Y-108320142D01*
X97839323Y-108367761D01*
X97934561Y-108415380D01*
X98125038Y-108415380D01*
X98220276Y-108367761D01*
X98267895Y-108320142D01*
X98315514Y-108224904D01*
X98315514Y-107986809D01*
X98267895Y-107891571D01*
X98220276Y-107843952D01*
X98125038Y-107796333D01*
X97934561Y-107796333D01*
X97839323Y-107843952D01*
X97791704Y-107891571D01*
X97744085Y-107986809D01*
%TO.C,FB2*%
X131494466Y-140276571D02*
X131161133Y-140276571D01*
X131161133Y-140800380D02*
X131161133Y-139800380D01*
X131637323Y-139800380D01*
X132351609Y-140276571D02*
X132494466Y-140324190D01*
X132542085Y-140371809D01*
X132589704Y-140467047D01*
X132589704Y-140609904D01*
X132542085Y-140705142D01*
X132494466Y-140752761D01*
X132399228Y-140800380D01*
X132018276Y-140800380D01*
X132018276Y-139800380D01*
X132351609Y-139800380D01*
X132446847Y-139848000D01*
X132494466Y-139895619D01*
X132542085Y-139990857D01*
X132542085Y-140086095D01*
X132494466Y-140181333D01*
X132446847Y-140228952D01*
X132351609Y-140276571D01*
X132018276Y-140276571D01*
X132970657Y-139895619D02*
X133018276Y-139848000D01*
X133113514Y-139800380D01*
X133351609Y-139800380D01*
X133446847Y-139848000D01*
X133494466Y-139895619D01*
X133542085Y-139990857D01*
X133542085Y-140086095D01*
X133494466Y-140228952D01*
X132923038Y-140800380D01*
X133542085Y-140800380D01*
%TO.C,C19*%
X130287942Y-132831142D02*
X130240323Y-132878761D01*
X130097466Y-132926380D01*
X130002228Y-132926380D01*
X129859371Y-132878761D01*
X129764133Y-132783523D01*
X129716514Y-132688285D01*
X129668895Y-132497809D01*
X129668895Y-132354952D01*
X129716514Y-132164476D01*
X129764133Y-132069238D01*
X129859371Y-131974000D01*
X130002228Y-131926380D01*
X130097466Y-131926380D01*
X130240323Y-131974000D01*
X130287942Y-132021619D01*
X131240323Y-132926380D02*
X130668895Y-132926380D01*
X130954609Y-132926380D02*
X130954609Y-131926380D01*
X130859371Y-132069238D01*
X130764133Y-132164476D01*
X130668895Y-132212095D01*
X131716514Y-132926380D02*
X131906990Y-132926380D01*
X132002228Y-132878761D01*
X132049847Y-132831142D01*
X132145085Y-132688285D01*
X132192704Y-132497809D01*
X132192704Y-132116857D01*
X132145085Y-132021619D01*
X132097466Y-131974000D01*
X132002228Y-131926380D01*
X131811752Y-131926380D01*
X131716514Y-131974000D01*
X131668895Y-132021619D01*
X131621276Y-132116857D01*
X131621276Y-132354952D01*
X131668895Y-132450190D01*
X131716514Y-132497809D01*
X131811752Y-132545428D01*
X132002228Y-132545428D01*
X132097466Y-132497809D01*
X132145085Y-132450190D01*
X132192704Y-132354952D01*
%TO.C,C1*%
X115016133Y-107177142D02*
X114968514Y-107224761D01*
X114825657Y-107272380D01*
X114730419Y-107272380D01*
X114587561Y-107224761D01*
X114492323Y-107129523D01*
X114444704Y-107034285D01*
X114397085Y-106843809D01*
X114397085Y-106700952D01*
X114444704Y-106510476D01*
X114492323Y-106415238D01*
X114587561Y-106320000D01*
X114730419Y-106272380D01*
X114825657Y-106272380D01*
X114968514Y-106320000D01*
X115016133Y-106367619D01*
X115968514Y-107272380D02*
X115397085Y-107272380D01*
X115682800Y-107272380D02*
X115682800Y-106272380D01*
X115587561Y-106415238D01*
X115492323Y-106510476D01*
X115397085Y-106558095D01*
%TO.C,C11*%
X128560742Y-103232542D02*
X128513123Y-103280161D01*
X128370266Y-103327780D01*
X128275028Y-103327780D01*
X128132171Y-103280161D01*
X128036933Y-103184923D01*
X127989314Y-103089685D01*
X127941695Y-102899209D01*
X127941695Y-102756352D01*
X127989314Y-102565876D01*
X128036933Y-102470638D01*
X128132171Y-102375400D01*
X128275028Y-102327780D01*
X128370266Y-102327780D01*
X128513123Y-102375400D01*
X128560742Y-102423019D01*
X129513123Y-103327780D02*
X128941695Y-103327780D01*
X129227409Y-103327780D02*
X129227409Y-102327780D01*
X129132171Y-102470638D01*
X129036933Y-102565876D01*
X128941695Y-102613495D01*
X130465504Y-103327780D02*
X129894076Y-103327780D01*
X130179790Y-103327780D02*
X130179790Y-102327780D01*
X130084552Y-102470638D01*
X129989314Y-102565876D01*
X129894076Y-102613495D01*
%TO.C,C8*%
X97363133Y-106288142D02*
X97315514Y-106335761D01*
X97172657Y-106383380D01*
X97077419Y-106383380D01*
X96934561Y-106335761D01*
X96839323Y-106240523D01*
X96791704Y-106145285D01*
X96744085Y-105954809D01*
X96744085Y-105811952D01*
X96791704Y-105621476D01*
X96839323Y-105526238D01*
X96934561Y-105431000D01*
X97077419Y-105383380D01*
X97172657Y-105383380D01*
X97315514Y-105431000D01*
X97363133Y-105478619D01*
X97934561Y-105811952D02*
X97839323Y-105764333D01*
X97791704Y-105716714D01*
X97744085Y-105621476D01*
X97744085Y-105573857D01*
X97791704Y-105478619D01*
X97839323Y-105431000D01*
X97934561Y-105383380D01*
X98125038Y-105383380D01*
X98220276Y-105431000D01*
X98267895Y-105478619D01*
X98315514Y-105573857D01*
X98315514Y-105621476D01*
X98267895Y-105716714D01*
X98220276Y-105764333D01*
X98125038Y-105811952D01*
X97934561Y-105811952D01*
X97839323Y-105859571D01*
X97791704Y-105907190D01*
X97744085Y-106002428D01*
X97744085Y-106192904D01*
X97791704Y-106288142D01*
X97839323Y-106335761D01*
X97934561Y-106383380D01*
X98125038Y-106383380D01*
X98220276Y-106335761D01*
X98267895Y-106288142D01*
X98315514Y-106192904D01*
X98315514Y-106002428D01*
X98267895Y-105907190D01*
X98220276Y-105859571D01*
X98125038Y-105811952D01*
%TO.C,C4*%
X100665133Y-139181142D02*
X100617514Y-139228761D01*
X100474657Y-139276380D01*
X100379419Y-139276380D01*
X100236561Y-139228761D01*
X100141323Y-139133523D01*
X100093704Y-139038285D01*
X100046085Y-138847809D01*
X100046085Y-138704952D01*
X100093704Y-138514476D01*
X100141323Y-138419238D01*
X100236561Y-138324000D01*
X100379419Y-138276380D01*
X100474657Y-138276380D01*
X100617514Y-138324000D01*
X100665133Y-138371619D01*
X101522276Y-138609714D02*
X101522276Y-139276380D01*
X101284180Y-138228761D02*
X101046085Y-138943047D01*
X101665133Y-138943047D01*
%TO.C,D1*%
X100522180Y-104383095D02*
X99522180Y-104383095D01*
X99522180Y-104145000D01*
X99569800Y-104002142D01*
X99665038Y-103906904D01*
X99760276Y-103859285D01*
X99950752Y-103811666D01*
X100093609Y-103811666D01*
X100284085Y-103859285D01*
X100379323Y-103906904D01*
X100474561Y-104002142D01*
X100522180Y-104145000D01*
X100522180Y-104383095D01*
X100522180Y-102859285D02*
X100522180Y-103430714D01*
X100522180Y-103145000D02*
X99522180Y-103145000D01*
X99665038Y-103240238D01*
X99760276Y-103335476D01*
X99807895Y-103430714D01*
%TO.C,RN1*%
X104594380Y-103700476D02*
X104118190Y-104033809D01*
X104594380Y-104271904D02*
X103594380Y-104271904D01*
X103594380Y-103890952D01*
X103642000Y-103795714D01*
X103689619Y-103748095D01*
X103784857Y-103700476D01*
X103927714Y-103700476D01*
X104022952Y-103748095D01*
X104070571Y-103795714D01*
X104118190Y-103890952D01*
X104118190Y-104271904D01*
X104594380Y-103271904D02*
X103594380Y-103271904D01*
X104594380Y-102700476D01*
X103594380Y-102700476D01*
X104594380Y-101700476D02*
X104594380Y-102271904D01*
X104594380Y-101986190D02*
X103594380Y-101986190D01*
X103737238Y-102081428D01*
X103832476Y-102176666D01*
X103880095Y-102271904D01*
%TO.C,U3*%
X89528895Y-107542380D02*
X89528895Y-108351904D01*
X89576514Y-108447142D01*
X89624133Y-108494761D01*
X89719371Y-108542380D01*
X89909847Y-108542380D01*
X90005085Y-108494761D01*
X90052704Y-108447142D01*
X90100323Y-108351904D01*
X90100323Y-107542380D01*
X90481276Y-107542380D02*
X91100323Y-107542380D01*
X90766990Y-107923333D01*
X90909847Y-107923333D01*
X91005085Y-107970952D01*
X91052704Y-108018571D01*
X91100323Y-108113809D01*
X91100323Y-108351904D01*
X91052704Y-108447142D01*
X91005085Y-108494761D01*
X90909847Y-108542380D01*
X90624133Y-108542380D01*
X90528895Y-108494761D01*
X90481276Y-108447142D01*
%TO.C,U8*%
X133343895Y-133323380D02*
X133343895Y-134132904D01*
X133391514Y-134228142D01*
X133439133Y-134275761D01*
X133534371Y-134323380D01*
X133724847Y-134323380D01*
X133820085Y-134275761D01*
X133867704Y-134228142D01*
X133915323Y-134132904D01*
X133915323Y-133323380D01*
X134534371Y-133751952D02*
X134439133Y-133704333D01*
X134391514Y-133656714D01*
X134343895Y-133561476D01*
X134343895Y-133513857D01*
X134391514Y-133418619D01*
X134439133Y-133371000D01*
X134534371Y-133323380D01*
X134724847Y-133323380D01*
X134820085Y-133371000D01*
X134867704Y-133418619D01*
X134915323Y-133513857D01*
X134915323Y-133561476D01*
X134867704Y-133656714D01*
X134820085Y-133704333D01*
X134724847Y-133751952D01*
X134534371Y-133751952D01*
X134439133Y-133799571D01*
X134391514Y-133847190D01*
X134343895Y-133942428D01*
X134343895Y-134132904D01*
X134391514Y-134228142D01*
X134439133Y-134275761D01*
X134534371Y-134323380D01*
X134724847Y-134323380D01*
X134820085Y-134275761D01*
X134867704Y-134228142D01*
X134915323Y-134132904D01*
X134915323Y-133942428D01*
X134867704Y-133847190D01*
X134820085Y-133799571D01*
X134724847Y-133751952D01*
%TO.C,Q2*%
X114968419Y-129648238D02*
X114920800Y-129743476D01*
X114825561Y-129838714D01*
X114682704Y-129981571D01*
X114635085Y-130076809D01*
X114635085Y-130172047D01*
X114873180Y-130124428D02*
X114825561Y-130219666D01*
X114730323Y-130314904D01*
X114539847Y-130362523D01*
X114206514Y-130362523D01*
X114016038Y-130314904D01*
X113920800Y-130219666D01*
X113873180Y-130124428D01*
X113873180Y-129933952D01*
X113920800Y-129838714D01*
X114016038Y-129743476D01*
X114206514Y-129695857D01*
X114539847Y-129695857D01*
X114730323Y-129743476D01*
X114825561Y-129838714D01*
X114873180Y-129933952D01*
X114873180Y-130124428D01*
X113968419Y-129314904D02*
X113920800Y-129267285D01*
X113873180Y-129172047D01*
X113873180Y-128933952D01*
X113920800Y-128838714D01*
X113968419Y-128791095D01*
X114063657Y-128743476D01*
X114158895Y-128743476D01*
X114301752Y-128791095D01*
X114873180Y-129362523D01*
X114873180Y-128743476D01*
%TO.C,R7*%
X113060333Y-136736380D02*
X112727000Y-136260190D01*
X112488904Y-136736380D02*
X112488904Y-135736380D01*
X112869857Y-135736380D01*
X112965095Y-135784000D01*
X113012714Y-135831619D01*
X113060333Y-135926857D01*
X113060333Y-136069714D01*
X113012714Y-136164952D01*
X112965095Y-136212571D01*
X112869857Y-136260190D01*
X112488904Y-136260190D01*
X113393666Y-135736380D02*
X114060333Y-135736380D01*
X113631761Y-136736380D01*
%TO.C,R8*%
X110301180Y-129719666D02*
X109824990Y-130053000D01*
X110301180Y-130291095D02*
X109301180Y-130291095D01*
X109301180Y-129910142D01*
X109348800Y-129814904D01*
X109396419Y-129767285D01*
X109491657Y-129719666D01*
X109634514Y-129719666D01*
X109729752Y-129767285D01*
X109777371Y-129814904D01*
X109824990Y-129910142D01*
X109824990Y-130291095D01*
X109729752Y-129148238D02*
X109682133Y-129243476D01*
X109634514Y-129291095D01*
X109539276Y-129338714D01*
X109491657Y-129338714D01*
X109396419Y-129291095D01*
X109348800Y-129243476D01*
X109301180Y-129148238D01*
X109301180Y-128957761D01*
X109348800Y-128862523D01*
X109396419Y-128814904D01*
X109491657Y-128767285D01*
X109539276Y-128767285D01*
X109634514Y-128814904D01*
X109682133Y-128862523D01*
X109729752Y-128957761D01*
X109729752Y-129148238D01*
X109777371Y-129243476D01*
X109824990Y-129291095D01*
X109920228Y-129338714D01*
X110110704Y-129338714D01*
X110205942Y-129291095D01*
X110253561Y-129243476D01*
X110301180Y-129148238D01*
X110301180Y-128957761D01*
X110253561Y-128862523D01*
X110205942Y-128814904D01*
X110110704Y-128767285D01*
X109920228Y-128767285D01*
X109824990Y-128814904D01*
X109777371Y-128862523D01*
X109729752Y-128957761D01*
%TO.C,C14*%
X97521942Y-136133142D02*
X97474323Y-136180761D01*
X97331466Y-136228380D01*
X97236228Y-136228380D01*
X97093371Y-136180761D01*
X96998133Y-136085523D01*
X96950514Y-135990285D01*
X96902895Y-135799809D01*
X96902895Y-135656952D01*
X96950514Y-135466476D01*
X96998133Y-135371238D01*
X97093371Y-135276000D01*
X97236228Y-135228380D01*
X97331466Y-135228380D01*
X97474323Y-135276000D01*
X97521942Y-135323619D01*
X98474323Y-136228380D02*
X97902895Y-136228380D01*
X98188609Y-136228380D02*
X98188609Y-135228380D01*
X98093371Y-135371238D01*
X97998133Y-135466476D01*
X97902895Y-135514095D01*
X99331466Y-135561714D02*
X99331466Y-136228380D01*
X99093371Y-135180761D02*
X98855276Y-135895047D01*
X99474323Y-135895047D01*
D15*
%TO.C,U9*%
X79868942Y-136350666D02*
X79916561Y-136398285D01*
X79964180Y-136541142D01*
X79964180Y-136636380D01*
X79916561Y-136779238D01*
X79821323Y-136874476D01*
X79726085Y-136922095D01*
X79535609Y-136969714D01*
X79392752Y-136969714D01*
X79202276Y-136922095D01*
X79107038Y-136874476D01*
X79011800Y-136779238D01*
X78964180Y-136636380D01*
X78964180Y-136541142D01*
X79011800Y-136398285D01*
X79059419Y-136350666D01*
X79964180Y-135779238D02*
X79916561Y-135874476D01*
X79868942Y-135922095D01*
X79773704Y-135969714D01*
X79487990Y-135969714D01*
X79392752Y-135922095D01*
X79345133Y-135874476D01*
X79297514Y-135779238D01*
X79297514Y-135636380D01*
X79345133Y-135541142D01*
X79392752Y-135493523D01*
X79487990Y-135445904D01*
X79773704Y-135445904D01*
X79868942Y-135493523D01*
X79916561Y-135541142D01*
X79964180Y-135636380D01*
X79964180Y-135779238D01*
X79964180Y-134874476D02*
X79916561Y-134969714D01*
X79821323Y-135017333D01*
X78964180Y-135017333D01*
X79297514Y-134064952D02*
X79964180Y-134064952D01*
X79297514Y-134493523D02*
X79821323Y-134493523D01*
X79916561Y-134445904D01*
X79964180Y-134350666D01*
X79964180Y-134207809D01*
X79916561Y-134112571D01*
X79868942Y-134064952D01*
X79964180Y-133588761D02*
X79297514Y-133588761D01*
X79392752Y-133588761D02*
X79345133Y-133541142D01*
X79297514Y-133445904D01*
X79297514Y-133303047D01*
X79345133Y-133207809D01*
X79440371Y-133160190D01*
X79964180Y-133160190D01*
X79440371Y-133160190D02*
X79345133Y-133112571D01*
X79297514Y-133017333D01*
X79297514Y-132874476D01*
X79345133Y-132779238D01*
X79440371Y-132731619D01*
X79964180Y-132731619D01*
X79964180Y-132255428D02*
X78964180Y-132255428D01*
X79345133Y-132255428D02*
X79297514Y-132160190D01*
X79297514Y-131969714D01*
X79345133Y-131874476D01*
X79392752Y-131826857D01*
X79487990Y-131779238D01*
X79773704Y-131779238D01*
X79868942Y-131826857D01*
X79916561Y-131874476D01*
X79964180Y-131969714D01*
X79964180Y-132160190D01*
X79916561Y-132255428D01*
X79964180Y-131350666D02*
X79297514Y-131350666D01*
X78964180Y-131350666D02*
X79011800Y-131398285D01*
X79059419Y-131350666D01*
X79011800Y-131303047D01*
X78964180Y-131350666D01*
X79059419Y-131350666D01*
X79964180Y-130445904D02*
X79440371Y-130445904D01*
X79345133Y-130493523D01*
X79297514Y-130588761D01*
X79297514Y-130779238D01*
X79345133Y-130874476D01*
X79916561Y-130445904D02*
X79964180Y-130541142D01*
X79964180Y-130779238D01*
X79916561Y-130874476D01*
X79821323Y-130922095D01*
X79726085Y-130922095D01*
X79630847Y-130874476D01*
X79583228Y-130779238D01*
X79583228Y-130541142D01*
X79535609Y-130445904D01*
X82164180Y-135064952D02*
X81164180Y-135064952D01*
X82068942Y-134017333D02*
X82116561Y-134064952D01*
X82164180Y-134207809D01*
X82164180Y-134303047D01*
X82116561Y-134445904D01*
X82021323Y-134541142D01*
X81926085Y-134588761D01*
X81735609Y-134636380D01*
X81592752Y-134636380D01*
X81402276Y-134588761D01*
X81307038Y-134541142D01*
X81211800Y-134445904D01*
X81164180Y-134303047D01*
X81164180Y-134207809D01*
X81211800Y-134064952D01*
X81259419Y-134017333D01*
X82116561Y-133636380D02*
X82164180Y-133493523D01*
X82164180Y-133255428D01*
X82116561Y-133160190D01*
X82068942Y-133112571D01*
X81973704Y-133064952D01*
X81878466Y-133064952D01*
X81783228Y-133112571D01*
X81735609Y-133160190D01*
X81687990Y-133255428D01*
X81640371Y-133445904D01*
X81592752Y-133541142D01*
X81545133Y-133588761D01*
X81449895Y-133636380D01*
X81354657Y-133636380D01*
X81259419Y-133588761D01*
X81211800Y-133541142D01*
X81164180Y-133445904D01*
X81164180Y-133207809D01*
X81211800Y-133064952D01*
X82164180Y-132160190D02*
X82164180Y-132636380D01*
X81164180Y-132636380D01*
D12*
%TO.C,C17*%
X127697142Y-139562142D02*
X127649523Y-139609761D01*
X127506666Y-139657380D01*
X127411428Y-139657380D01*
X127268571Y-139609761D01*
X127173333Y-139514523D01*
X127125714Y-139419285D01*
X127078095Y-139228809D01*
X127078095Y-139085952D01*
X127125714Y-138895476D01*
X127173333Y-138800238D01*
X127268571Y-138705000D01*
X127411428Y-138657380D01*
X127506666Y-138657380D01*
X127649523Y-138705000D01*
X127697142Y-138752619D01*
X128649523Y-139657380D02*
X128078095Y-139657380D01*
X128363809Y-139657380D02*
X128363809Y-138657380D01*
X128268571Y-138800238D01*
X128173333Y-138895476D01*
X128078095Y-138943095D01*
X128982857Y-138657380D02*
X129649523Y-138657380D01*
X129220952Y-139657380D01*
%TO.C,U4*%
X122498095Y-107288380D02*
X122498095Y-108097904D01*
X122545714Y-108193142D01*
X122593333Y-108240761D01*
X122688571Y-108288380D01*
X122879047Y-108288380D01*
X122974285Y-108240761D01*
X123021904Y-108193142D01*
X123069523Y-108097904D01*
X123069523Y-107288380D01*
X123974285Y-107621714D02*
X123974285Y-108288380D01*
X123736190Y-107240761D02*
X123498095Y-107955047D01*
X124117142Y-107955047D01*
%TO.C,C20*%
X129271942Y-134228142D02*
X129224323Y-134275761D01*
X129081466Y-134323380D01*
X128986228Y-134323380D01*
X128843371Y-134275761D01*
X128748133Y-134180523D01*
X128700514Y-134085285D01*
X128652895Y-133894809D01*
X128652895Y-133751952D01*
X128700514Y-133561476D01*
X128748133Y-133466238D01*
X128843371Y-133371000D01*
X128986228Y-133323380D01*
X129081466Y-133323380D01*
X129224323Y-133371000D01*
X129271942Y-133418619D01*
X129652895Y-133418619D02*
X129700514Y-133371000D01*
X129795752Y-133323380D01*
X130033847Y-133323380D01*
X130129085Y-133371000D01*
X130176704Y-133418619D01*
X130224323Y-133513857D01*
X130224323Y-133609095D01*
X130176704Y-133751952D01*
X129605276Y-134323380D01*
X130224323Y-134323380D01*
X130843371Y-133323380D02*
X130938609Y-133323380D01*
X131033847Y-133371000D01*
X131081466Y-133418619D01*
X131129085Y-133513857D01*
X131176704Y-133704333D01*
X131176704Y-133942428D01*
X131129085Y-134132904D01*
X131081466Y-134228142D01*
X131033847Y-134275761D01*
X130938609Y-134323380D01*
X130843371Y-134323380D01*
X130748133Y-134275761D01*
X130700514Y-134228142D01*
X130652895Y-134132904D01*
X130605276Y-133942428D01*
X130605276Y-133704333D01*
X130652895Y-133513857D01*
X130700514Y-133418619D01*
X130748133Y-133371000D01*
X130843371Y-133323380D01*
%TO.C,RN3*%
X117286323Y-143594380D02*
X116952990Y-143118190D01*
X116714895Y-143594380D02*
X116714895Y-142594380D01*
X117095847Y-142594380D01*
X117191085Y-142642000D01*
X117238704Y-142689619D01*
X117286323Y-142784857D01*
X117286323Y-142927714D01*
X117238704Y-143022952D01*
X117191085Y-143070571D01*
X117095847Y-143118190D01*
X116714895Y-143118190D01*
X117714895Y-143594380D02*
X117714895Y-142594380D01*
X118286323Y-143594380D01*
X118286323Y-142594380D01*
X118667276Y-142594380D02*
X119286323Y-142594380D01*
X118952990Y-142975333D01*
X119095847Y-142975333D01*
X119191085Y-143022952D01*
X119238704Y-143070571D01*
X119286323Y-143165809D01*
X119286323Y-143403904D01*
X119238704Y-143499142D01*
X119191085Y-143546761D01*
X119095847Y-143594380D01*
X118810133Y-143594380D01*
X118714895Y-143546761D01*
X118667276Y-143499142D01*
%TO.C,C21*%
X131684942Y-137911142D02*
X131637323Y-137958761D01*
X131494466Y-138006380D01*
X131399228Y-138006380D01*
X131256371Y-137958761D01*
X131161133Y-137863523D01*
X131113514Y-137768285D01*
X131065895Y-137577809D01*
X131065895Y-137434952D01*
X131113514Y-137244476D01*
X131161133Y-137149238D01*
X131256371Y-137054000D01*
X131399228Y-137006380D01*
X131494466Y-137006380D01*
X131637323Y-137054000D01*
X131684942Y-137101619D01*
X132065895Y-137101619D02*
X132113514Y-137054000D01*
X132208752Y-137006380D01*
X132446847Y-137006380D01*
X132542085Y-137054000D01*
X132589704Y-137101619D01*
X132637323Y-137196857D01*
X132637323Y-137292095D01*
X132589704Y-137434952D01*
X132018276Y-138006380D01*
X132637323Y-138006380D01*
X133589704Y-138006380D02*
X133018276Y-138006380D01*
X133303990Y-138006380D02*
X133303990Y-137006380D01*
X133208752Y-137149238D01*
X133113514Y-137244476D01*
X133018276Y-137292095D01*
D10*
%TO.C,J1*%
X84250000Y-115250000D02*
X84250000Y-120250000D01*
X98246500Y-120250000D02*
X98246500Y-115250000D01*
X84250000Y-120250000D02*
X98246500Y-120250000D01*
X98246500Y-115250000D02*
X84250000Y-115250000D01*
%TO.C,J2*%
X116250000Y-115250000D02*
X116250000Y-120250000D01*
X130246500Y-115250000D02*
X116250000Y-115250000D01*
X116250000Y-120250000D02*
X130246500Y-120250000D01*
X130246500Y-120250000D02*
X130246500Y-115250000D01*
%TO.C,J3*%
X84253500Y-128250000D02*
X98250000Y-128250000D01*
X98250000Y-123250000D02*
X84253500Y-123250000D01*
X98250000Y-128250000D02*
X98250000Y-123250000D01*
X84253500Y-123250000D02*
X84253500Y-128250000D01*
%TO.C,J4*%
X130250000Y-128250000D02*
X130250000Y-123250000D01*
X130250000Y-123250000D02*
X116253500Y-123250000D01*
X116253500Y-123250000D02*
X116253500Y-128250000D01*
X116253500Y-128250000D02*
X130250000Y-128250000D01*
%TO.C,J5*%
X82040000Y-100100000D02*
X82040000Y-98770000D01*
X82040000Y-94900000D02*
X132960000Y-94900000D01*
X84640000Y-100100000D02*
X84640000Y-97500000D01*
X84640000Y-97500000D02*
X82040000Y-97500000D01*
X132960000Y-100100000D02*
X132960000Y-94900000D01*
X83370000Y-100100000D02*
X82040000Y-100100000D01*
X84640000Y-100100000D02*
X132960000Y-100100000D01*
X82040000Y-97500000D02*
X82040000Y-94900000D01*
%TO.C,U7*%
X111449000Y-138223000D02*
X109249000Y-138223000D01*
X111449000Y-146293000D02*
X109249000Y-146293000D01*
X111449000Y-138223000D02*
X113649000Y-138223000D01*
X111449000Y-146293000D02*
X115049000Y-146293000D01*
%TO.C,FB1*%
X103974622Y-139661000D02*
X103175378Y-139661000D01*
X103974622Y-140781000D02*
X103175378Y-140781000D01*
%TO.C,C16*%
X95498364Y-134101000D02*
X95714036Y-134101000D01*
X95498364Y-133381000D02*
X95714036Y-133381000D01*
%TO.C,C2*%
X111788164Y-107904000D02*
X112003836Y-107904000D01*
X111788164Y-108624000D02*
X112003836Y-108624000D01*
%TO.C,R9*%
X111577000Y-129399359D02*
X111577000Y-129706641D01*
X112337000Y-129399359D02*
X112337000Y-129706641D01*
%TO.C,R4*%
X89502159Y-128919000D02*
X89809441Y-128919000D01*
X89502159Y-129679000D02*
X89809441Y-129679000D01*
%TO.C,U6*%
X120276400Y-139440000D02*
X120276400Y-138180000D01*
X126286400Y-139440000D02*
X120276400Y-139440000D01*
X120276400Y-132620000D02*
X120276400Y-133880000D01*
X124036400Y-132620000D02*
X120276400Y-132620000D01*
%TO.C,R1*%
X99689800Y-109005641D02*
X99689800Y-108698359D01*
X100449800Y-109005641D02*
X100449800Y-108698359D01*
%TO.C,R2*%
X94254441Y-114439000D02*
X93947159Y-114439000D01*
X94254441Y-113679000D02*
X93947159Y-113679000D01*
%TO.C,C13*%
X96132348Y-138260600D02*
X96654852Y-138260600D01*
X96132348Y-136790600D02*
X96654852Y-136790600D01*
%TO.C,U1*%
X104332000Y-111500000D02*
X104332000Y-110240000D01*
X104332000Y-104680000D02*
X104332000Y-105940000D01*
X110342000Y-111500000D02*
X104332000Y-111500000D01*
X108092000Y-104680000D02*
X104332000Y-104680000D01*
%TO.C,C22*%
X134963164Y-138464000D02*
X135178836Y-138464000D01*
X134963164Y-139184000D02*
X135178836Y-139184000D01*
%TO.C,RN4*%
X137175200Y-132564000D02*
X136675200Y-132564000D01*
X137175200Y-134924000D02*
X136675200Y-134924000D01*
%TO.C,C15*%
X96043020Y-133006400D02*
X96324180Y-133006400D01*
X96043020Y-131986400D02*
X96324180Y-131986400D01*
%TO.C,C5*%
X96150948Y-108853600D02*
X96673452Y-108853600D01*
X96150948Y-110323600D02*
X96673452Y-110323600D01*
%TO.C,C3*%
X103180420Y-137044000D02*
X103461580Y-137044000D01*
X103180420Y-138064000D02*
X103461580Y-138064000D01*
%TO.C,Q1*%
X111231000Y-132601000D02*
X111231000Y-131951000D01*
X108111000Y-132601000D02*
X108111000Y-131951000D01*
X108111000Y-132601000D02*
X108111000Y-134276000D01*
X111231000Y-132601000D02*
X111231000Y-133251000D01*
%TO.C,C7*%
X96043020Y-105018600D02*
X96324180Y-105018600D01*
X96043020Y-103998600D02*
X96324180Y-103998600D01*
%TO.C,R3*%
X125367441Y-113679000D02*
X125060159Y-113679000D01*
X125367441Y-114439000D02*
X125060159Y-114439000D01*
%TO.C,RN2*%
X105171200Y-132564000D02*
X104671200Y-132564000D01*
X105171200Y-134924000D02*
X104671200Y-134924000D01*
D12*
%TO.C,U2*%
X103676000Y-132119000D02*
X103501000Y-132119000D01*
X100426000Y-135369000D02*
X100701000Y-135369000D01*
X103676000Y-135369000D02*
X103401000Y-135369000D01*
X100426000Y-132119000D02*
X100701000Y-132119000D01*
X103501000Y-132119000D02*
X103501000Y-131044000D01*
X103676000Y-132119000D02*
X103676000Y-135369000D01*
X100426000Y-132119000D02*
X100426000Y-135369000D01*
D10*
%TO.C,C18*%
X127444764Y-136387000D02*
X127660436Y-136387000D01*
X127444764Y-135667000D02*
X127660436Y-135667000D01*
%TO.C,R5*%
X121127159Y-129806000D02*
X121434441Y-129806000D01*
X121127159Y-129046000D02*
X121434441Y-129046000D01*
%TO.C,C12*%
X128518364Y-105910000D02*
X128734036Y-105910000D01*
X128518364Y-105190000D02*
X128734036Y-105190000D01*
%TO.C,C10*%
X128518364Y-107501400D02*
X128734036Y-107501400D01*
X128518364Y-108221400D02*
X128734036Y-108221400D01*
%TO.C,R6*%
X109517359Y-135521000D02*
X109824641Y-135521000D01*
X109517359Y-134761000D02*
X109824641Y-134761000D01*
%TO.C,C9*%
X129152348Y-110095000D02*
X129674852Y-110095000D01*
X129152348Y-108625000D02*
X129674852Y-108625000D01*
%TO.C,U5*%
X88330000Y-139440000D02*
X88330000Y-138180000D01*
X88330000Y-132620000D02*
X88330000Y-133880000D01*
X94340000Y-139440000D02*
X88330000Y-139440000D01*
X92090000Y-132620000D02*
X88330000Y-132620000D01*
%TO.C,C6*%
X95516964Y-108450000D02*
X95732636Y-108450000D01*
X95516964Y-107730000D02*
X95732636Y-107730000D01*
%TO.C,FB2*%
X135978622Y-139661000D02*
X135179378Y-139661000D01*
X135978622Y-140781000D02*
X135179378Y-140781000D01*
%TO.C,C19*%
X127996220Y-133006400D02*
X128277380Y-133006400D01*
X127996220Y-131986400D02*
X128277380Y-131986400D01*
%TO.C,C1*%
X112152948Y-106005000D02*
X112675452Y-106005000D01*
X112152948Y-107475000D02*
X112675452Y-107475000D01*
%TO.C,C11*%
X129063020Y-103795400D02*
X129344180Y-103795400D01*
X129063020Y-104815400D02*
X129344180Y-104815400D01*
%TO.C,C8*%
X95516964Y-106113200D02*
X95732636Y-106113200D01*
X95516964Y-105393200D02*
X95732636Y-105393200D01*
%TO.C,C4*%
X102959164Y-139184000D02*
X103174836Y-139184000D01*
X102959164Y-138464000D02*
X103174836Y-138464000D01*
%TO.C,D1*%
X100577800Y-107836000D02*
X99561800Y-107836000D01*
X100069800Y-106185000D02*
X100069800Y-106439000D01*
X100804800Y-107582000D02*
X100804800Y-106566000D01*
X100804800Y-106058000D02*
X100804800Y-104827000D01*
X99334800Y-106566000D02*
X99334800Y-107582000D01*
X100804800Y-104827000D02*
X99334800Y-104827000D01*
X99688800Y-106185000D02*
X100450800Y-106185000D01*
X99561800Y-107836000D02*
X99334800Y-107582000D01*
X99334800Y-104827000D02*
X99334800Y-106058000D01*
X100804800Y-107582000D02*
X100577800Y-107836000D01*
%TO.C,RN1*%
X107422000Y-102760000D02*
X107422000Y-103260000D01*
X105062000Y-102760000D02*
X105062000Y-103260000D01*
%TO.C,U3*%
X88330000Y-104680000D02*
X88330000Y-105940000D01*
X92090000Y-104680000D02*
X88330000Y-104680000D01*
X88330000Y-111500000D02*
X88330000Y-110240000D01*
X94340000Y-111500000D02*
X88330000Y-111500000D01*
D12*
%TO.C,U8*%
X135680000Y-135369000D02*
X135405000Y-135369000D01*
X135505000Y-132119000D02*
X135505000Y-131044000D01*
X132430000Y-132119000D02*
X132705000Y-132119000D01*
X135680000Y-132119000D02*
X135505000Y-132119000D01*
X132430000Y-135369000D02*
X132705000Y-135369000D01*
X135680000Y-132119000D02*
X135680000Y-135369000D01*
X132430000Y-132119000D02*
X132430000Y-135369000D01*
D10*
%TO.C,Q2*%
X111667000Y-132601000D02*
X111667000Y-134276000D01*
X114787000Y-132601000D02*
X114787000Y-131951000D01*
X114787000Y-132601000D02*
X114787000Y-133251000D01*
X111667000Y-132601000D02*
X111667000Y-131951000D01*
%TO.C,R7*%
X113073359Y-135521000D02*
X113380641Y-135521000D01*
X113073359Y-134761000D02*
X113380641Y-134761000D01*
%TO.C,R8*%
X111321000Y-129399359D02*
X111321000Y-129706641D01*
X110561000Y-129399359D02*
X110561000Y-129706641D01*
%TO.C,C14*%
X95498364Y-136387000D02*
X95714036Y-136387000D01*
X95498364Y-135667000D02*
X95714036Y-135667000D01*
D16*
%TO.C,U9*%
X78911800Y-138484000D02*
G75*
G03*
X78911800Y-138484000I0J0D01*
G01*
D17*
X80711800Y-139084000D02*
G75*
G03*
X80711800Y-139084000I0J0D01*
G01*
X81111800Y-138484000D02*
G75*
G03*
X81111800Y-138484000I0J0D01*
G01*
X81711800Y-139084000D02*
G75*
G03*
X81711800Y-139084000I0J0D01*
G01*
X81311800Y-139484000D02*
G75*
G03*
X81311800Y-139484000I0J0D01*
G01*
D16*
X80711800Y-140084000D02*
G75*
G03*
X80711800Y-140084000I0J0D01*
G01*
D17*
X80111800Y-139484000D02*
G75*
G03*
X80111800Y-139484000I0J0D01*
G01*
D16*
X82311800Y-138484000D02*
G75*
G03*
X82311800Y-138484000I0J0D01*
G01*
D17*
X80511800Y-138084000D02*
G75*
G03*
X80511800Y-138084000I0J0D01*
G01*
D16*
X80711800Y-136884000D02*
G75*
G03*
X80711800Y-136884000I0J0D01*
G01*
D17*
X80111800Y-138684000D02*
G75*
G03*
X80111800Y-138684000I0J0D01*
G01*
X81711800Y-137884000D02*
G75*
G03*
X81711800Y-137884000I0J0D01*
G01*
X79511800Y-137884000D02*
G75*
G03*
X79511800Y-137884000I0J0D01*
G01*
X79511800Y-139084000D02*
G75*
G03*
X79511800Y-139084000I0J0D01*
G01*
X81311800Y-137484000D02*
G75*
G03*
X81311800Y-137484000I0J0D01*
G01*
X79911800Y-137484000D02*
G75*
G03*
X79911800Y-137484000I0J0D01*
G01*
D10*
%TO.C,C17*%
X128078748Y-138260600D02*
X128601252Y-138260600D01*
X128078748Y-136790600D02*
X128601252Y-136790600D01*
%TO.C,U4*%
X125110000Y-104454400D02*
X121350000Y-104454400D01*
X121350000Y-104454400D02*
X121350000Y-105714400D01*
X121350000Y-111274400D02*
X121350000Y-110014400D01*
X127360000Y-111274400D02*
X121350000Y-111274400D01*
%TO.C,C20*%
X127444764Y-133381000D02*
X127660436Y-133381000D01*
X127444764Y-134101000D02*
X127660436Y-134101000D01*
%TO.C,RN3*%
X117726800Y-143994000D02*
X118226800Y-143994000D01*
X117726800Y-146354000D02*
X118226800Y-146354000D01*
%TO.C,C21*%
X135184420Y-138064000D02*
X135465580Y-138064000D01*
X135184420Y-137044000D02*
X135465580Y-137044000D01*
%TD*%
M02*
