M48
; DRILL file {KiCad (6.0.0-0)} date Wednesday, March 08, 2023 at 03:11:31 PM
; FORMAT={-:-/ absolute / inch / decimal}
; #@! TF.CreationDate,2023-03-08T15:11:31-05:00
; #@! TF.GenerationSoftware,Kicad,Pcbnew,(6.0.0-0)
; #@! TF.FileFunction,Plated,1,4,PTH
FMAT,2
INCH
; #@! TA.AperFunction,Plated,PTH,ViaDrill
T1C0.0090
; #@! TA.AperFunction,Plated,PTH,ComponentDrill
T2C0.0394
; #@! TA.AperFunction,Plated,PTH,ComponentDrill
T3C0.1260
; #@! TA.AperFunction,Plated,PTH,ComponentDrill
T4C0.1390
%
G90
G05
T1
X3.2048Y-4.1105
X3.3248Y-4.0655
X3.3823Y-4.433
X3.3948Y-4.5705
X3.4148Y-4.8655
X3.4148Y-4.9055
X3.4298Y-4.2055
X3.4298Y-4.2505
X3.4298Y-4.3005
X3.4298Y-4.4255
X3.4298Y-5.3055
X3.4298Y-5.3555
X3.4298Y-5.4055
X3.4348Y-4.5655
X3.4498Y-4.1505
X3.4548Y-4.6705
X3.4548Y-5.1455
X3.4548Y-5.2055
X3.4748Y-4.5655
X3.4748Y-5.0005
X3.4748Y-5.0355
X3.4748Y-5.1155
X3.4798Y-5.0855
X3.4898Y-4.7655
X3.4948Y-4.8655
X3.4948Y-4.9055
X3.5048Y-5.2055
X3.5048Y-5.3055
X3.5048Y-5.4055
X3.5048Y-5.4555
X3.5148Y-4.5655
X3.5398Y-4.4055
X3.5398Y-4.7955
X3.5533Y-5.0185
X3.5548Y-4.5655
X3.5548Y-5.3055
X3.5548Y-5.4055
X3.5548Y-5.4555
X3.5748Y-4.4355
X3.5748Y-4.7055
X3.5748Y-4.8855
X3.5848Y-4.0955
X3.5898Y-5.0505
X3.6048Y-5.2605
X3.6048Y-5.3055
X3.6048Y-5.4055
X3.6048Y-5.4555
X3.6148Y-4.7055
X3.6148Y-4.8855
X3.6158Y-4.1145
X3.6198Y-4.9505
X3.6348Y-4.9805
X3.6548Y-5.1855
X3.6714Y-4.9905
X3.6798Y-4.4455
X3.6898Y-4.6705
X3.6898Y-4.7055
X3.6898Y-4.9105
X3.6898Y-5.1855
X3.6998Y-4.0305
X3.7105Y-4.5498
X3.7105Y-4.5898
X3.7498Y-4.9805
X3.7548Y-4.6355
X3.7698Y-4.6805
X3.7698Y-4.7255
X3.7898Y-4.9955
X3.8098Y-4.6355
X3.8348Y-4.2205
X3.8748Y-4.2605
X3.8948Y-5.1755
X3.8998Y-4.9605
X3.9498Y-4.5505
X3.9598Y-4.7905
X3.9648Y-5.5005
X3.9798Y-5.1255
X3.9798Y-5.2355
X3.9798Y-5.4155
X3.9848Y-4.4555
X4.0048Y-5.5755
X4.0198Y-5.2655
X4.0526Y-5.3034
X4.0783Y-5.329
X4.0823Y-4.023
X4.1448Y-4.5655
X4.1448Y-5.3605
X4.1548Y-4.9955
X4.1548Y-5.1305
X4.1748Y-4.5355
X4.2348Y-5.2455
X4.2348Y-5.3555
X4.2448Y-5.7755
X4.2648Y-4.9555
X4.2748Y-4.8205
X4.2751Y-5.7159
X4.2798Y-4.1455
X4.2798Y-4.1855
X4.2798Y-5.1755
X4.2898Y-4.9955
X4.2898Y-5.1105
X4.2948Y-5.4055
X4.3048Y-5.4355
X4.3098Y-4.0155
X4.3148Y-5.2855
X4.3178Y-5.1836
X4.3198Y-4.5455
X4.3348Y-5.6655
X4.3448Y-5.3955
X4.3498Y-5.7305
X4.3548Y-5.5005
X4.3552Y-5.2574
X4.3748Y-5.6055
X4.3884Y-4.1855
X4.3884Y-4.2169
X4.3948Y-5.6655
X4.4098Y-5.1805
X4.4348Y-4.3355
X4.4448Y-5.4855
X4.4448Y-5.6055
X4.4548Y-5.2405
X4.5048Y-5.4055
X4.5198Y-4.2955
X4.5198Y-4.3605
X4.5248Y-5.2605
X4.5298Y-5.1105
X4.5348Y-4.6655
X4.5398Y-4.1805
X4.5398Y-4.9455
X4.5548Y-5.3605
X4.5548Y-5.4055
X4.5598Y-5.5355
X4.5748Y-5.5955
X4.5848Y-5.6955
X4.6098Y-5.2105
X4.6098Y-5.5105
X4.6248Y-3.9955
X4.6248Y-4.9605
X4.6448Y-4.4755
X4.6498Y-4.5705
X4.6548Y-4.2805
X4.6748Y-4.8655
X4.6748Y-4.9055
X4.6848Y-5.3205
X4.6848Y-5.3605
X4.6848Y-5.4055
X4.6947Y-4.5681
X4.6948Y-5.6755
X4.7148Y-4.7055
X4.7198Y-4.4755
X4.7248Y-4.1205
X4.7287Y-4.2466
X4.7298Y-4.2005
X4.7298Y-4.2955
X4.7348Y-4.5705
X4.7348Y-4.9905
X4.7498Y-5.2005
X4.7548Y-4.7005
X4.7548Y-4.8655
X4.7548Y-4.9055
X4.7548Y-5.3055
X4.7548Y-5.4055
X4.7548Y-5.4555
X4.7748Y-4.4655
X4.7998Y-4.0205
X4.7998Y-4.1205
X4.8048Y-5.1455
X4.8048Y-5.3055
X4.8048Y-5.4055
X4.8048Y-5.4555
X4.8098Y-5.2355
X4.8129Y-4.5681
X4.8148Y-4.9905
X4.8348Y-4.7055
X4.8348Y-4.8855
X4.8498Y-5.0505
X4.8498Y-5.0855
X4.8548Y-5.4055
X4.8548Y-5.4555
X4.8598Y-5.3055
X4.8648Y-5.1455
X4.8748Y-4.7055
X4.8748Y-4.8855
X4.8898Y-4.9905
X4.9198Y-4.4205
X4.9248Y-5.1455
X4.9298Y-5.0255
X4.9498Y-4.6855
X4.9498Y-4.7255
X4.9498Y-4.8955
X4.9598Y-4.0755
X4.9698Y-4.5355
X4.9698Y-4.5655
X4.9698Y-4.5955
X4.9898Y-4.8555
X4.9998Y-4.0755
X4.9998Y-5.1105
X5.0048Y-4.4555
X5.0098Y-4.5705
X5.0148Y-5.1755
X5.0148Y-5.2955
X5.0298Y-4.6805
X5.0298Y-4.7255
X5.0348Y-5.6255
X5.0498Y-4.5705
X5.0548Y-5.1555
X5.0598Y-4.4005
X5.0598Y-4.4555
X5.0698Y-4.7655
X5.0848Y-5.5955
X5.1148Y-4.7705
X5.1573Y-4.693
X5.1598Y-4.6155
X5.2198Y-5.2855
X5.2348Y-5.1005
X5.2448Y-5.4205
X5.2598Y-5.2355
X5.2798Y-5.2705
X5.2948Y-5.0605
X5.3348Y-5.3055
X5.3398Y-5.1255
X5.3398Y-5.5755
T2
X3.2823Y-3.7886
X3.2823Y-3.8886
X3.3823Y-3.7886
X3.3823Y-3.8886
X3.4823Y-3.7886
X3.4823Y-3.8886
X3.5823Y-3.7886
X3.5823Y-3.8886
X3.6823Y-3.7886
X3.6823Y-3.8886
X3.7823Y-3.7886
X3.7823Y-3.8886
X3.8823Y-3.7886
X3.8823Y-3.8886
X3.9823Y-3.7886
X3.9823Y-3.8886
X4.0823Y-3.7886
X4.0823Y-3.8886
X4.1823Y-3.7886
X4.1823Y-3.8886
X4.2823Y-3.7886
X4.2823Y-3.8886
X4.3823Y-3.7886
X4.3823Y-3.8886
X4.4823Y-3.7886
X4.4823Y-3.8886
X4.5823Y-3.7886
X4.5823Y-3.8886
X4.6823Y-3.7886
X4.6823Y-3.8886
X4.7823Y-3.7886
X4.7823Y-3.8886
X4.8823Y-3.7886
X4.8823Y-3.8886
X4.9823Y-3.7886
X4.9823Y-3.8886
X5.0823Y-3.7886
X5.0823Y-3.8886
X5.1823Y-3.7886
X5.1823Y-3.8886
T3
X3.0906Y-3.8386
X3.0906Y-5.7677
X5.374Y-3.8386
X5.374Y-5.7677
T4
X3.1201Y-4.6752
X3.1201Y-4.9114
X4.065Y-4.6752
X4.065Y-4.9114
X4.3799Y-4.6752
X4.3799Y-4.9114
X5.3248Y-4.6752
X5.3248Y-4.9114
T0
M30
