%TF.GenerationSoftware,KiCad,Pcbnew,(6.0.0-0)*%
%TF.CreationDate,2023-03-08T15:11:31-05:00*%
%TF.ProjectId,carrier-board,63617272-6965-4722-9d62-6f6172642e6b,rev?*%
%TF.SameCoordinates,Original*%
%TF.FileFunction,Soldermask,Top*%
%TF.FilePolarity,Negative*%
%FSLAX46Y46*%
G04 Gerber Fmt 4.6, Leading zero omitted, Abs format (unit mm)*
G04 Created by KiCad (PCBNEW (6.0.0-0)) date 2023-03-08 15:11:31*
%MOMM*%
%LPD*%
G01*
G04 APERTURE LIST*
G04 Aperture macros list*
%AMRoundRect*
0 Rectangle with rounded corners*
0 $1 Rounding radius*
0 $2 $3 $4 $5 $6 $7 $8 $9 X,Y pos of 4 corners*
0 Add a 4 corners polygon primitive as box body*
4,1,4,$2,$3,$4,$5,$6,$7,$8,$9,$2,$3,0*
0 Add four circle primitives for the rounded corners*
1,1,$1+$1,$2,$3*
1,1,$1+$1,$4,$5*
1,1,$1+$1,$6,$7*
1,1,$1+$1,$8,$9*
0 Add four rect primitives between the rounded corners*
20,1,$1+$1,$2,$3,$4,$5,0*
20,1,$1+$1,$4,$5,$6,$7,0*
20,1,$1+$1,$6,$7,$8,$9,0*
20,1,$1+$1,$8,$9,$2,$3,0*%
G04 Aperture macros list end*
%ADD10C,3.600000*%
%ADD11C,5.500000*%
%ADD12C,4.800000*%
%ADD13R,1.000000X5.850000*%
%ADD14C,0.760000*%
%ADD15R,0.610000X2.410000*%
%ADD16R,1.700000X1.700000*%
%ADD17O,1.700000X1.700000*%
%ADD18RoundRect,0.100000X0.637500X0.100000X-0.637500X0.100000X-0.637500X-0.100000X0.637500X-0.100000X0*%
%ADD19RoundRect,0.218750X0.218750X0.381250X-0.218750X0.381250X-0.218750X-0.381250X0.218750X-0.381250X0*%
%ADD20RoundRect,0.140000X-0.140000X-0.170000X0.140000X-0.170000X0.140000X0.170000X-0.140000X0.170000X0*%
%ADD21RoundRect,0.135000X-0.185000X0.135000X-0.185000X-0.135000X0.185000X-0.135000X0.185000X0.135000X0*%
%ADD22RoundRect,0.135000X-0.135000X-0.185000X0.135000X-0.185000X0.135000X0.185000X-0.135000X0.185000X0*%
%ADD23R,2.000000X1.500000*%
%ADD24R,2.000000X3.800000*%
%ADD25RoundRect,0.135000X0.185000X-0.135000X0.185000X0.135000X-0.185000X0.135000X-0.185000X-0.135000X0*%
%ADD26RoundRect,0.135000X0.135000X0.185000X-0.135000X0.185000X-0.135000X-0.185000X0.135000X-0.185000X0*%
%ADD27RoundRect,0.250000X-0.250000X-0.475000X0.250000X-0.475000X0.250000X0.475000X-0.250000X0.475000X0*%
%ADD28R,0.500000X0.400000*%
%ADD29R,0.500000X0.300000*%
%ADD30RoundRect,0.225000X-0.225000X-0.250000X0.225000X-0.250000X0.225000X0.250000X-0.225000X0.250000X0*%
%ADD31RoundRect,0.150000X0.150000X-0.587500X0.150000X0.587500X-0.150000X0.587500X-0.150000X-0.587500X0*%
%ADD32R,0.250000X1.100000*%
%ADD33RoundRect,0.218750X-0.256250X0.218750X-0.256250X-0.218750X0.256250X-0.218750X0.256250X0.218750X0*%
%ADD34R,0.400000X0.500000*%
%ADD35R,0.300000X0.500000*%
G04 APERTURE END LIST*
D10*
%TO.C,H1*%
X78500000Y-97500000D03*
D11*
X78500000Y-97500000D03*
%TD*%
%TO.C,H2*%
X136500000Y-97500000D03*
D10*
X136500000Y-97500000D03*
%TD*%
%TO.C,H3*%
X78500000Y-146500000D03*
D11*
X78500000Y-146500000D03*
%TD*%
D10*
%TO.C,H4*%
X136500000Y-146500000D03*
D11*
X136500000Y-146500000D03*
%TD*%
D12*
%TO.C,H5*%
X79250000Y-118750000D03*
%TD*%
%TO.C,H6*%
X79250000Y-124750000D03*
%TD*%
%TO.C,H7*%
X135250000Y-124750000D03*
%TD*%
%TO.C,H8*%
X135250000Y-118750000D03*
%TD*%
%TO.C,H9*%
X103250000Y-118750000D03*
%TD*%
%TO.C,H10*%
X111250000Y-118750000D03*
%TD*%
%TO.C,H11*%
X103250000Y-124750000D03*
%TD*%
%TO.C,H12*%
X111250000Y-124750000D03*
%TD*%
D13*
%TO.C,J1*%
X84423500Y-117750000D03*
X98076500Y-117750000D03*
D14*
X85725500Y-118850000D03*
X96774500Y-118850000D03*
D15*
X96246500Y-116030000D03*
X95246500Y-116030000D03*
X94246500Y-116030000D03*
X93246500Y-116030000D03*
X92246500Y-116030000D03*
X91246500Y-116030000D03*
X90246500Y-116030000D03*
X89246500Y-116030000D03*
X88246500Y-116030000D03*
X87246500Y-116030000D03*
X86246500Y-116030000D03*
X86746500Y-119430000D03*
X87746500Y-119430000D03*
X88746500Y-119470000D03*
X89746500Y-119470000D03*
X90746500Y-119470000D03*
X91746500Y-119470000D03*
X92746500Y-119470000D03*
X93746500Y-119470000D03*
X94746500Y-119470000D03*
X95746500Y-119470000D03*
%TD*%
D13*
%TO.C,J2*%
X130076500Y-117750000D03*
D14*
X117725500Y-118850000D03*
D13*
X116423500Y-117750000D03*
D14*
X128774500Y-118850000D03*
D15*
X128246500Y-116030000D03*
X127246500Y-116030000D03*
X126246500Y-116030000D03*
X125246500Y-116030000D03*
X124246500Y-116030000D03*
X123246500Y-116030000D03*
X122246500Y-116030000D03*
X121246500Y-116030000D03*
X120246500Y-116030000D03*
X119246500Y-116030000D03*
X118246500Y-116030000D03*
X118746500Y-119430000D03*
X119746500Y-119430000D03*
X120746500Y-119470000D03*
X121746500Y-119470000D03*
X122746500Y-119470000D03*
X123746500Y-119470000D03*
X124746500Y-119470000D03*
X125746500Y-119470000D03*
X126746500Y-119470000D03*
X127746500Y-119470000D03*
%TD*%
D14*
%TO.C,J3*%
X96774500Y-124650000D03*
D13*
X84423500Y-125750000D03*
X98076500Y-125750000D03*
D14*
X85725500Y-124650000D03*
D15*
X86253500Y-127470000D03*
X87253500Y-127470000D03*
X88253500Y-127470000D03*
X89253500Y-127470000D03*
X90253500Y-127470000D03*
X91253500Y-127470000D03*
X92253500Y-127470000D03*
X93253500Y-127470000D03*
X94253500Y-127470000D03*
X95253500Y-127470000D03*
X96253500Y-127470000D03*
X95753500Y-124070000D03*
X94753500Y-124070000D03*
X93753500Y-124030000D03*
X92753500Y-124030000D03*
X91753500Y-124030000D03*
X90753500Y-124030000D03*
X89753500Y-124030000D03*
X88753500Y-124030000D03*
X87753500Y-124030000D03*
X86753500Y-124030000D03*
%TD*%
D14*
%TO.C,J4*%
X117725500Y-124650000D03*
D13*
X130076500Y-125750000D03*
D14*
X128774500Y-124650000D03*
D13*
X116423500Y-125750000D03*
D15*
X118253500Y-127470000D03*
X119253500Y-127470000D03*
X120253500Y-127470000D03*
X121253500Y-127470000D03*
X122253500Y-127470000D03*
X123253500Y-127470000D03*
X124253500Y-127470000D03*
X125253500Y-127470000D03*
X126253500Y-127470000D03*
X127253500Y-127470000D03*
X128253500Y-127470000D03*
X127753500Y-124070000D03*
X126753500Y-124070000D03*
X125753500Y-124030000D03*
X124753500Y-124030000D03*
X123753500Y-124030000D03*
X122753500Y-124030000D03*
X121753500Y-124030000D03*
X120753500Y-124030000D03*
X119753500Y-124030000D03*
X118753500Y-124030000D03*
%TD*%
D16*
%TO.C,J5*%
X83370000Y-98770000D03*
D17*
X83370000Y-96230000D03*
X85910000Y-98770000D03*
X85910000Y-96230000D03*
X88450000Y-98770000D03*
X88450000Y-96230000D03*
X90990000Y-98770000D03*
X90990000Y-96230000D03*
X93530000Y-98770000D03*
X93530000Y-96230000D03*
X96070000Y-98770000D03*
X96070000Y-96230000D03*
X98610000Y-98770000D03*
X98610000Y-96230000D03*
X101150000Y-98770000D03*
X101150000Y-96230000D03*
X103690000Y-98770000D03*
X103690000Y-96230000D03*
X106230000Y-98770000D03*
X106230000Y-96230000D03*
X108770000Y-98770000D03*
X108770000Y-96230000D03*
X111310000Y-98770000D03*
X111310000Y-96230000D03*
X113850000Y-98770000D03*
X113850000Y-96230000D03*
X116390000Y-98770000D03*
X116390000Y-96230000D03*
X118930000Y-98770000D03*
X118930000Y-96230000D03*
X121470000Y-98770000D03*
X121470000Y-96230000D03*
X124010000Y-98770000D03*
X124010000Y-96230000D03*
X126550000Y-98770000D03*
X126550000Y-96230000D03*
X129090000Y-98770000D03*
X129090000Y-96230000D03*
X131630000Y-98770000D03*
X131630000Y-96230000D03*
%TD*%
D18*
%TO.C,U7*%
X114311500Y-145833000D03*
X114311500Y-145183000D03*
X114311500Y-144533000D03*
X114311500Y-143883000D03*
X114311500Y-143233000D03*
X114311500Y-142583000D03*
X114311500Y-141933000D03*
X114311500Y-141283000D03*
X114311500Y-140633000D03*
X114311500Y-139983000D03*
X114311500Y-139333000D03*
X114311500Y-138683000D03*
X108586500Y-138683000D03*
X108586500Y-139333000D03*
X108586500Y-139983000D03*
X108586500Y-140633000D03*
X108586500Y-141283000D03*
X108586500Y-141933000D03*
X108586500Y-142583000D03*
X108586500Y-143233000D03*
X108586500Y-143883000D03*
X108586500Y-144533000D03*
X108586500Y-145183000D03*
X108586500Y-145833000D03*
%TD*%
D19*
%TO.C,FB1*%
X104637500Y-140221000D03*
X102512500Y-140221000D03*
%TD*%
D20*
%TO.C,C16*%
X95126200Y-133741000D03*
X96086200Y-133741000D03*
%TD*%
%TO.C,C2*%
X111416000Y-108264000D03*
X112376000Y-108264000D03*
%TD*%
D21*
%TO.C,R9*%
X111957000Y-129043000D03*
X111957000Y-130063000D03*
%TD*%
D22*
%TO.C,R4*%
X89145800Y-129299000D03*
X90165800Y-129299000D03*
%TD*%
D23*
%TO.C,U6*%
X125336400Y-138330000D03*
X125336400Y-136030000D03*
D24*
X119036400Y-136030000D03*
D23*
X125336400Y-133730000D03*
%TD*%
D25*
%TO.C,R1*%
X100069800Y-109362000D03*
X100069800Y-108342000D03*
%TD*%
D26*
%TO.C,R2*%
X94610800Y-114059000D03*
X93590800Y-114059000D03*
%TD*%
D27*
%TO.C,C13*%
X95443600Y-137525600D03*
X97343600Y-137525600D03*
%TD*%
D23*
%TO.C,U1*%
X109392000Y-110390000D03*
D24*
X103092000Y-108090000D03*
D23*
X109392000Y-108090000D03*
X109392000Y-105790000D03*
%TD*%
D20*
%TO.C,C22*%
X134591000Y-138824000D03*
X135551000Y-138824000D03*
%TD*%
D28*
%TO.C,RN4*%
X137425200Y-132994000D03*
D29*
X137425200Y-133494000D03*
X137425200Y-133994000D03*
D28*
X137425200Y-134494000D03*
X136425200Y-134494000D03*
D29*
X136425200Y-133994000D03*
X136425200Y-133494000D03*
D28*
X136425200Y-132994000D03*
%TD*%
D30*
%TO.C,C15*%
X95408600Y-132496400D03*
X96958600Y-132496400D03*
%TD*%
D27*
%TO.C,C5*%
X95462200Y-109588600D03*
X97362200Y-109588600D03*
%TD*%
D30*
%TO.C,C3*%
X102546000Y-137554000D03*
X104096000Y-137554000D03*
%TD*%
D31*
%TO.C,Q1*%
X108721000Y-133538500D03*
X110621000Y-133538500D03*
X109671000Y-131663500D03*
%TD*%
D30*
%TO.C,C7*%
X95408600Y-104508600D03*
X96958600Y-104508600D03*
%TD*%
D26*
%TO.C,R3*%
X125723800Y-114059000D03*
X124703800Y-114059000D03*
%TD*%
D28*
%TO.C,RN2*%
X105421200Y-132994000D03*
D29*
X105421200Y-133494000D03*
X105421200Y-133994000D03*
D28*
X105421200Y-134494000D03*
X104421200Y-134494000D03*
D29*
X104421200Y-133994000D03*
X104421200Y-133494000D03*
D28*
X104421200Y-132994000D03*
%TD*%
D32*
%TO.C,U2*%
X103051000Y-131594000D03*
X102551000Y-131594000D03*
X102051000Y-131594000D03*
X101551000Y-131594000D03*
X101051000Y-131594000D03*
X101051000Y-135894000D03*
X101551000Y-135894000D03*
X102051000Y-135894000D03*
X102551000Y-135894000D03*
X103051000Y-135894000D03*
%TD*%
D20*
%TO.C,C18*%
X127072600Y-136027000D03*
X128032600Y-136027000D03*
%TD*%
D22*
%TO.C,R5*%
X120770800Y-129426000D03*
X121790800Y-129426000D03*
%TD*%
D20*
%TO.C,C12*%
X128146200Y-105550000D03*
X129106200Y-105550000D03*
%TD*%
%TO.C,C10*%
X128146200Y-107861400D03*
X129106200Y-107861400D03*
%TD*%
D22*
%TO.C,R6*%
X109161000Y-135141000D03*
X110181000Y-135141000D03*
%TD*%
D27*
%TO.C,C9*%
X128463600Y-109360000D03*
X130363600Y-109360000D03*
%TD*%
D23*
%TO.C,U5*%
X93390000Y-138330000D03*
X93390000Y-136030000D03*
D24*
X87090000Y-136030000D03*
D23*
X93390000Y-133730000D03*
%TD*%
D20*
%TO.C,C6*%
X95144800Y-108090000D03*
X96104800Y-108090000D03*
%TD*%
D19*
%TO.C,FB2*%
X136641500Y-140221000D03*
X134516500Y-140221000D03*
%TD*%
D30*
%TO.C,C19*%
X127361800Y-132496400D03*
X128911800Y-132496400D03*
%TD*%
D27*
%TO.C,C1*%
X111464200Y-106740000D03*
X113364200Y-106740000D03*
%TD*%
D30*
%TO.C,C11*%
X128428600Y-104305400D03*
X129978600Y-104305400D03*
%TD*%
D20*
%TO.C,C8*%
X95144800Y-105753200D03*
X96104800Y-105753200D03*
%TD*%
%TO.C,C4*%
X102587000Y-138824000D03*
X103547000Y-138824000D03*
%TD*%
D33*
%TO.C,D1*%
X100069800Y-105524500D03*
X100069800Y-107099500D03*
%TD*%
D34*
%TO.C,RN1*%
X105492000Y-102510000D03*
D35*
X105992000Y-102510000D03*
X106492000Y-102510000D03*
D34*
X106992000Y-102510000D03*
X106992000Y-103510000D03*
D35*
X106492000Y-103510000D03*
X105992000Y-103510000D03*
D34*
X105492000Y-103510000D03*
%TD*%
D23*
%TO.C,U3*%
X93390000Y-110390000D03*
X93390000Y-108090000D03*
D24*
X87090000Y-108090000D03*
D23*
X93390000Y-105790000D03*
%TD*%
D32*
%TO.C,U8*%
X135055000Y-131594000D03*
X134555000Y-131594000D03*
X134055000Y-131594000D03*
X133555000Y-131594000D03*
X133055000Y-131594000D03*
X133055000Y-135894000D03*
X133555000Y-135894000D03*
X134055000Y-135894000D03*
X134555000Y-135894000D03*
X135055000Y-135894000D03*
%TD*%
D31*
%TO.C,Q2*%
X112277000Y-133538500D03*
X114177000Y-133538500D03*
X113227000Y-131663500D03*
%TD*%
D22*
%TO.C,R7*%
X112717000Y-135141000D03*
X113737000Y-135141000D03*
%TD*%
D21*
%TO.C,R8*%
X110941000Y-129043000D03*
X110941000Y-130063000D03*
%TD*%
D20*
%TO.C,C14*%
X95126200Y-136027000D03*
X96086200Y-136027000D03*
%TD*%
D27*
%TO.C,C17*%
X127390000Y-137525600D03*
X129290000Y-137525600D03*
%TD*%
D23*
%TO.C,U4*%
X126410000Y-110164400D03*
X126410000Y-107864400D03*
D24*
X120110000Y-107864400D03*
D23*
X126410000Y-105564400D03*
%TD*%
D20*
%TO.C,C20*%
X127072600Y-133741000D03*
X128032600Y-133741000D03*
%TD*%
D28*
%TO.C,RN3*%
X117476800Y-145924000D03*
D29*
X117476800Y-145424000D03*
X117476800Y-144924000D03*
D28*
X117476800Y-144424000D03*
X118476800Y-144424000D03*
D29*
X118476800Y-144924000D03*
X118476800Y-145424000D03*
D28*
X118476800Y-145924000D03*
%TD*%
D30*
%TO.C,C21*%
X134550000Y-137554000D03*
X136100000Y-137554000D03*
%TD*%
M02*
