%TF.GenerationSoftware,KiCad,Pcbnew,(6.0.0-0)*%
%TF.CreationDate,2023-03-08T15:11:31-05:00*%
%TF.ProjectId,carrier-board,63617272-6965-4722-9d62-6f6172642e6b,rev?*%
%TF.SameCoordinates,Original*%
%TF.FileFunction,Soldermask,Bot*%
%TF.FilePolarity,Negative*%
%FSLAX46Y46*%
G04 Gerber Fmt 4.6, Leading zero omitted, Abs format (unit mm)*
G04 Created by KiCad (PCBNEW (6.0.0-0)) date 2023-03-08 15:11:31*
%MOMM*%
%LPD*%
G01*
G04 APERTURE LIST*
%ADD10C,3.600000*%
%ADD11C,5.500000*%
%ADD12C,4.800000*%
%ADD13C,0.760000*%
%ADD14R,1.700000X1.700000*%
%ADD15O,1.700000X1.700000*%
G04 APERTURE END LIST*
D10*
%TO.C,H1*%
X78500000Y-97500000D03*
D11*
X78500000Y-97500000D03*
%TD*%
D10*
%TO.C,H2*%
X136500000Y-97500000D03*
D11*
X136500000Y-97500000D03*
%TD*%
D10*
%TO.C,H3*%
X78500000Y-146500000D03*
D11*
X78500000Y-146500000D03*
%TD*%
D10*
%TO.C,H4*%
X136500000Y-146500000D03*
D11*
X136500000Y-146500000D03*
%TD*%
D12*
%TO.C,H5*%
X79250000Y-118750000D03*
%TD*%
%TO.C,H6*%
X79250000Y-124750000D03*
%TD*%
%TO.C,H7*%
X135250000Y-124750000D03*
%TD*%
%TO.C,H8*%
X135250000Y-118750000D03*
%TD*%
%TO.C,H9*%
X103250000Y-118750000D03*
%TD*%
%TO.C,H10*%
X111250000Y-118750000D03*
%TD*%
%TO.C,H11*%
X103250000Y-124750000D03*
%TD*%
%TO.C,H12*%
X111250000Y-124750000D03*
%TD*%
D13*
%TO.C,J1*%
X85725500Y-118850000D03*
X96774500Y-118850000D03*
%TD*%
%TO.C,J2*%
X117725500Y-118850000D03*
X128774500Y-118850000D03*
%TD*%
%TO.C,J3*%
X96774500Y-124650000D03*
X85725500Y-124650000D03*
%TD*%
%TO.C,J4*%
X117725500Y-124650000D03*
X128774500Y-124650000D03*
%TD*%
D14*
%TO.C,J5*%
X83370000Y-98770000D03*
D15*
X83370000Y-96230000D03*
X85910000Y-98770000D03*
X85910000Y-96230000D03*
X88450000Y-98770000D03*
X88450000Y-96230000D03*
X90990000Y-98770000D03*
X90990000Y-96230000D03*
X93530000Y-98770000D03*
X93530000Y-96230000D03*
X96070000Y-98770000D03*
X96070000Y-96230000D03*
X98610000Y-98770000D03*
X98610000Y-96230000D03*
X101150000Y-98770000D03*
X101150000Y-96230000D03*
X103690000Y-98770000D03*
X103690000Y-96230000D03*
X106230000Y-98770000D03*
X106230000Y-96230000D03*
X108770000Y-98770000D03*
X108770000Y-96230000D03*
X111310000Y-98770000D03*
X111310000Y-96230000D03*
X113850000Y-98770000D03*
X113850000Y-96230000D03*
X116390000Y-98770000D03*
X116390000Y-96230000D03*
X118930000Y-98770000D03*
X118930000Y-96230000D03*
X121470000Y-98770000D03*
X121470000Y-96230000D03*
X124010000Y-98770000D03*
X124010000Y-96230000D03*
X126550000Y-98770000D03*
X126550000Y-96230000D03*
X129090000Y-98770000D03*
X129090000Y-96230000D03*
X131630000Y-98770000D03*
X131630000Y-96230000D03*
%TD*%
M02*
