M48
; DRILL file {KiCad (6.0.0-0)} date Monday, March 06, 2023 at 07:24:07 PM
; FORMAT={-:-/ absolute / inch / decimal}
; #@! TF.CreationDate,2023-03-06T19:24:07-05:00
; #@! TF.GenerationSoftware,Kicad,Pcbnew,(6.0.0-0)
; #@! TF.FileFunction,Plated,1,2,PTH
FMAT,2
INCH
; #@! TA.AperFunction,Plated,PTH,ViaDrill
T1C0.0130
; #@! TA.AperFunction,Plated,PTH,ComponentDrill
T2C0.0394
; #@! TA.AperFunction,Plated,PTH,ComponentDrill
T3C0.1181
%
G90
G05
T1
X3.65Y-2.625
X3.65Y-2.75
X3.65Y-2.875
X3.7748Y-3.3516
X3.975Y-2.71
X3.975Y-2.755
X4.0Y-2.73
X4.015Y-2.66
X4.0157Y-2.6268
X4.035Y-2.53
X4.0398Y-3.3457
X4.055Y-2.66
X4.0551Y-2.626
X4.095Y-2.59
X4.095Y-2.625
X4.095Y-2.66
X4.115Y-2.53
X4.17Y-2.665
X4.19Y-2.49
X4.2161Y-3.1953
X4.23Y-2.455
X4.27Y-2.46
X4.2835Y-3.1772
X4.31Y-2.53
X4.34Y-2.7
X4.35Y-2.5
X4.36Y-2.82
X4.36Y-2.86
X4.3622Y-3.378
X4.39Y-2.47
X4.5028Y-3.0909
X4.5028Y-3.1736
X4.5303Y-3.3343
X4.775Y-2.625
X4.775Y-2.75
X4.775Y-2.875
T2
X3.7Y-3.04
X3.75Y-2.77
X3.75Y-2.87
X3.8Y-3.04
X3.85Y-2.77
X3.85Y-2.87
X3.9Y-3.04
X3.95Y-2.87
X4.0Y-3.04
X4.05Y-2.77
X4.05Y-2.87
X4.1Y-3.04
X4.15Y-2.77
X4.15Y-2.87
X4.2Y-3.04
X4.25Y-2.77
X4.25Y-2.87
X4.3Y-3.04
X4.4Y-3.04
X4.45Y-2.77
X4.45Y-2.87
X4.55Y-2.67
X4.55Y-2.77
X4.55Y-2.87
X4.5984Y-3.0425
X4.5984Y-3.1425
X4.5984Y-3.2425
X4.5984Y-3.3425
X4.65Y-2.67
X4.65Y-2.77
X4.65Y-2.87
T3
X3.7402Y-2.5197
X4.685Y-2.5197
T0
M30
