%TF.GenerationSoftware,KiCad,Pcbnew,(6.0.0-0)*%
%TF.CreationDate,2023-03-06T19:24:07-05:00*%
%TF.ProjectId,module_dev3,6d6f6475-6c65-45f6-9465-76332e6b6963,rev?*%
%TF.SameCoordinates,Original*%
%TF.FileFunction,Soldermask,Top*%
%TF.FilePolarity,Negative*%
%FSLAX46Y46*%
G04 Gerber Fmt 4.6, Leading zero omitted, Abs format (unit mm)*
G04 Created by KiCad (PCBNEW (6.0.0-0)) date 2023-03-06 19:24:07*
%MOMM*%
%LPD*%
G01*
G04 APERTURE LIST*
G04 Aperture macros list*
%AMRoundRect*
0 Rectangle with rounded corners*
0 $1 Rounding radius*
0 $2 $3 $4 $5 $6 $7 $8 $9 X,Y pos of 4 corners*
0 Add a 4 corners polygon primitive as box body*
4,1,4,$2,$3,$4,$5,$6,$7,$8,$9,$2,$3,0*
0 Add four circle primitives for the rounded corners*
1,1,$1+$1,$2,$3*
1,1,$1+$1,$4,$5*
1,1,$1+$1,$6,$7*
1,1,$1+$1,$8,$9*
0 Add four rect primitives between the rounded corners*
20,1,$1+$1,$2,$3,$4,$5,0*
20,1,$1+$1,$4,$5,$6,$7,0*
20,1,$1+$1,$6,$7,$8,$9,0*
20,1,$1+$1,$8,$9,$2,$3,0*%
G04 Aperture macros list end*
%ADD10C,4.500000*%
%ADD11O,1.800000X1.800000*%
%ADD12RoundRect,0.150000X0.150000X0.625000X-0.150000X0.625000X-0.150000X-0.625000X0.150000X-0.625000X0*%
%ADD13RoundRect,0.250000X0.350000X0.650000X-0.350000X0.650000X-0.350000X-0.650000X0.350000X-0.650000X0*%
%ADD14RoundRect,0.150000X0.150000X0.700000X-0.150000X0.700000X-0.150000X-0.700000X0.150000X-0.700000X0*%
%ADD15RoundRect,0.250000X0.250000X1.150000X-0.250000X1.150000X-0.250000X-1.150000X0.250000X-1.150000X0*%
%ADD16RoundRect,0.135000X-0.185000X0.135000X-0.185000X-0.135000X0.185000X-0.135000X0.185000X0.135000X0*%
%ADD17RoundRect,0.218750X-0.256250X0.218750X-0.256250X-0.218750X0.256250X-0.218750X0.256250X0.218750X0*%
%ADD18C,0.760000*%
G04 APERTURE END LIST*
D10*
%TO.C,H1*%
X95000000Y-64000000D03*
%TD*%
%TO.C,H2*%
X119000000Y-64000000D03*
%TD*%
D11*
%TO.C,J24*%
X97790000Y-72898000D03*
%TD*%
%TO.C,J25*%
X100330000Y-72898000D03*
%TD*%
%TO.C,J27*%
X95250000Y-70358000D03*
%TD*%
%TO.C,J28*%
X102870000Y-70358000D03*
%TD*%
%TO.C,J29*%
X97790000Y-70358000D03*
%TD*%
%TO.C,J32*%
X102870000Y-72898000D03*
%TD*%
%TO.C,J13*%
X115570000Y-72898000D03*
%TD*%
%TO.C,J14*%
X113030000Y-70358000D03*
%TD*%
%TO.C,J15*%
X113030000Y-72898000D03*
%TD*%
%TO.C,J16*%
X105410000Y-70358000D03*
%TD*%
%TO.C,J18*%
X105410000Y-72898000D03*
%TD*%
%TO.C,J19*%
X107950000Y-72898000D03*
%TD*%
%TO.C,J17*%
X107950000Y-70358000D03*
%TD*%
%TO.C,J22*%
X118110000Y-70358000D03*
%TD*%
%TO.C,J31*%
X118110000Y-67818000D03*
%TD*%
%TO.C,J26*%
X95250000Y-72898000D03*
%TD*%
%TO.C,J21*%
X115570000Y-70358000D03*
%TD*%
%TO.C,J30*%
X115570000Y-67818000D03*
%TD*%
%TO.C,J12*%
X118110000Y-72898000D03*
%TD*%
%TO.C,J3*%
X116800000Y-77280000D03*
X116800000Y-79820000D03*
X116800000Y-82360000D03*
X116800000Y-84900000D03*
%TD*%
%TO.C,J4*%
X93980000Y-77216000D03*
X96520000Y-77216000D03*
X99060000Y-77216000D03*
X101600000Y-77216000D03*
X104140000Y-77216000D03*
X106680000Y-77216000D03*
X109220000Y-77216000D03*
X111760000Y-77216000D03*
%TD*%
D12*
%TO.C,J5*%
X112320000Y-82995000D03*
X111320000Y-82995000D03*
X110320000Y-82995000D03*
X109320000Y-82995000D03*
D13*
X108020000Y-85520000D03*
X113620000Y-85520000D03*
%TD*%
D14*
%TO.C,J6*%
X103689000Y-81616000D03*
X102439000Y-81616000D03*
X101189000Y-81616000D03*
X99939000Y-81616000D03*
X98689000Y-81616000D03*
X97439000Y-81616000D03*
X96189000Y-81616000D03*
X94939000Y-81616000D03*
D15*
X93089000Y-84966000D03*
X105539000Y-84966000D03*
%TD*%
D16*
%TO.C,R1*%
X106299000Y-65403000D03*
X106299000Y-66423000D03*
%TD*%
D17*
%TO.C,D1*%
X107696000Y-64612500D03*
X107696000Y-66187500D03*
%TD*%
D18*
%TO.C,J1*%
X101475500Y-63900000D03*
X112524500Y-63900000D03*
%TD*%
M02*
