%TF.GenerationSoftware,KiCad,Pcbnew,(6.0.0-0)*%
%TF.CreationDate,2023-03-06T19:24:07-05:00*%
%TF.ProjectId,module_dev3,6d6f6475-6c65-45f6-9465-76332e6b6963,rev?*%
%TF.SameCoordinates,Original*%
%TF.FileFunction,Copper,L1,Top*%
%TF.FilePolarity,Positive*%
%FSLAX46Y46*%
G04 Gerber Fmt 4.6, Leading zero omitted, Abs format (unit mm)*
G04 Created by KiCad (PCBNEW (6.0.0-0)) date 2023-03-06 19:24:07*
%MOMM*%
%LPD*%
G01*
G04 APERTURE LIST*
G04 Aperture macros list*
%AMRoundRect*
0 Rectangle with rounded corners*
0 $1 Rounding radius*
0 $2 $3 $4 $5 $6 $7 $8 $9 X,Y pos of 4 corners*
0 Add a 4 corners polygon primitive as box body*
4,1,4,$2,$3,$4,$5,$6,$7,$8,$9,$2,$3,0*
0 Add four circle primitives for the rounded corners*
1,1,$1+$1,$2,$3*
1,1,$1+$1,$4,$5*
1,1,$1+$1,$6,$7*
1,1,$1+$1,$8,$9*
0 Add four rect primitives between the rounded corners*
20,1,$1+$1,$2,$3,$4,$5,0*
20,1,$1+$1,$4,$5,$6,$7,0*
20,1,$1+$1,$6,$7,$8,$9,0*
20,1,$1+$1,$8,$9,$2,$3,0*%
G04 Aperture macros list end*
%TA.AperFunction,ComponentPad*%
%ADD10C,4.500000*%
%TD*%
%TA.AperFunction,ComponentPad*%
%ADD11O,1.800000X1.800000*%
%TD*%
%TA.AperFunction,SMDPad,CuDef*%
%ADD12RoundRect,0.150000X0.150000X0.625000X-0.150000X0.625000X-0.150000X-0.625000X0.150000X-0.625000X0*%
%TD*%
%TA.AperFunction,SMDPad,CuDef*%
%ADD13RoundRect,0.250000X0.350000X0.650000X-0.350000X0.650000X-0.350000X-0.650000X0.350000X-0.650000X0*%
%TD*%
%TA.AperFunction,SMDPad,CuDef*%
%ADD14RoundRect,0.150000X0.150000X0.700000X-0.150000X0.700000X-0.150000X-0.700000X0.150000X-0.700000X0*%
%TD*%
%TA.AperFunction,SMDPad,CuDef*%
%ADD15RoundRect,0.250000X0.250000X1.150000X-0.250000X1.150000X-0.250000X-1.150000X0.250000X-1.150000X0*%
%TD*%
%TA.AperFunction,SMDPad,CuDef*%
%ADD16RoundRect,0.135000X-0.185000X0.135000X-0.185000X-0.135000X0.185000X-0.135000X0.185000X0.135000X0*%
%TD*%
%TA.AperFunction,SMDPad,CuDef*%
%ADD17RoundRect,0.218750X-0.256250X0.218750X-0.256250X-0.218750X0.256250X-0.218750X0.256250X0.218750X0*%
%TD*%
%TA.AperFunction,ViaPad*%
%ADD18C,0.685800*%
%TD*%
%TA.AperFunction,Conductor*%
%ADD19C,0.254000*%
%TD*%
%TA.AperFunction,Conductor*%
%ADD20C,0.762000*%
%TD*%
%TA.AperFunction,Conductor*%
%ADD21C,0.508000*%
%TD*%
%TA.AperFunction,Conductor*%
%ADD22C,0.381000*%
%TD*%
G04 APERTURE END LIST*
D10*
%TO.P,H1,1*%
%TO.N,GND*%
X95000000Y-64000000D03*
%TD*%
%TO.P,H2,1*%
%TO.N,GND*%
X119000000Y-64000000D03*
%TD*%
D11*
%TO.P,J24,1*%
%TO.N,/12V*%
X97790000Y-72898000D03*
%TD*%
%TO.P,J25,1*%
%TO.N,GND*%
X100330000Y-72898000D03*
%TD*%
%TO.P,J27,1*%
%TO.N,/A1*%
X95250000Y-70358000D03*
%TD*%
%TO.P,J28,1*%
%TO.N,/~{RST}*%
X102870000Y-70358000D03*
%TD*%
%TO.P,J29,1*%
%TO.N,/5V*%
X97790000Y-70358000D03*
%TD*%
%TO.P,J32,1*%
%TO.N,/EN*%
X102870000Y-72898000D03*
%TD*%
%TO.P,J13,1*%
%TO.N,/SDA*%
X115570000Y-72898000D03*
%TD*%
%TO.P,J14,1*%
%TO.N,/3V3*%
X113030000Y-70358000D03*
%TD*%
%TO.P,J15,1*%
%TO.N,GND*%
X113030000Y-72898000D03*
%TD*%
%TO.P,J16,1*%
%TO.N,/SCK*%
X105410000Y-70358000D03*
%TD*%
%TO.P,J18,1*%
%TO.N,/MISO*%
X105410000Y-72898000D03*
%TD*%
%TO.P,J19,1*%
%TO.N,/MOSI*%
X107950000Y-72898000D03*
%TD*%
%TO.P,J17,1*%
%TO.N,/CS*%
X107950000Y-70358000D03*
%TD*%
%TO.P,J22,1*%
%TO.N,/RX*%
X118110000Y-70358000D03*
%TD*%
%TO.P,J31,1*%
%TO.N,/Status*%
X118110000Y-67818000D03*
%TD*%
%TO.P,J26,1*%
%TO.N,/A0*%
X95250000Y-72898000D03*
%TD*%
%TO.P,J21,1*%
%TO.N,/TX*%
X115570000Y-70358000D03*
%TD*%
%TO.P,J30,1*%
%TO.N,/BAT*%
X115570000Y-67818000D03*
%TD*%
%TO.P,J12,1*%
%TO.N,/SCL*%
X118110000Y-72898000D03*
%TD*%
%TO.P,J3,1*%
%TO.N,Net-(J3-Pad1)*%
X116800000Y-77280000D03*
%TO.P,J3,2*%
%TO.N,Net-(J3-Pad2)*%
X116800000Y-79820000D03*
%TO.P,J3,3*%
%TO.N,Net-(J3-Pad3)*%
X116800000Y-82360000D03*
%TO.P,J3,4*%
%TO.N,Net-(J3-Pad4)*%
X116800000Y-84900000D03*
%TD*%
%TO.P,J4,1*%
%TO.N,Net-(J4-Pad1)*%
X93980000Y-77216000D03*
%TO.P,J4,2*%
%TO.N,Net-(J4-Pad2)*%
X96520000Y-77216000D03*
%TO.P,J4,3*%
%TO.N,Net-(J4-Pad3)*%
X99060000Y-77216000D03*
%TO.P,J4,4*%
%TO.N,Net-(J4-Pad4)*%
X101600000Y-77216000D03*
%TO.P,J4,5*%
%TO.N,Net-(J4-Pad5)*%
X104140000Y-77216000D03*
%TO.P,J4,6*%
%TO.N,Net-(J4-Pad6)*%
X106680000Y-77216000D03*
%TO.P,J4,7*%
%TO.N,Net-(J4-Pad7)*%
X109220000Y-77216000D03*
%TO.P,J4,8*%
%TO.N,Net-(J4-Pad8)*%
X111760000Y-77216000D03*
%TD*%
D12*
%TO.P,J5,1*%
%TO.N,Net-(J3-Pad4)*%
X112320000Y-82995000D03*
%TO.P,J5,2*%
%TO.N,Net-(J3-Pad3)*%
X111320000Y-82995000D03*
%TO.P,J5,3*%
%TO.N,Net-(J3-Pad2)*%
X110320000Y-82995000D03*
%TO.P,J5,4*%
%TO.N,Net-(J3-Pad1)*%
X109320000Y-82995000D03*
D13*
%TO.P,J5,MP*%
%TO.N,N/C*%
X108020000Y-85520000D03*
X113620000Y-85520000D03*
%TD*%
D14*
%TO.P,J6,1*%
%TO.N,Net-(J4-Pad8)*%
X103689000Y-81616000D03*
%TO.P,J6,2*%
%TO.N,Net-(J4-Pad7)*%
X102439000Y-81616000D03*
%TO.P,J6,3*%
%TO.N,Net-(J4-Pad6)*%
X101189000Y-81616000D03*
%TO.P,J6,4*%
%TO.N,Net-(J4-Pad5)*%
X99939000Y-81616000D03*
%TO.P,J6,5*%
%TO.N,Net-(J4-Pad4)*%
X98689000Y-81616000D03*
%TO.P,J6,6*%
%TO.N,Net-(J4-Pad3)*%
X97439000Y-81616000D03*
%TO.P,J6,7*%
%TO.N,Net-(J4-Pad2)*%
X96189000Y-81616000D03*
%TO.P,J6,8*%
%TO.N,Net-(J4-Pad1)*%
X94939000Y-81616000D03*
D15*
%TO.P,J6,MP*%
%TO.N,N/C*%
X93089000Y-84966000D03*
X105539000Y-84966000D03*
%TD*%
D16*
%TO.P,R1,1*%
%TO.N,/3V3*%
X106299000Y-65403000D03*
%TO.P,R1,2*%
%TO.N,N/C*%
X106299000Y-66423000D03*
%TD*%
D17*
%TO.P,D1,1,K*%
%TO.N,GND*%
X107696000Y-64612500D03*
%TO.P,D1,2,A*%
%TO.N,N/C*%
X107696000Y-66187500D03*
%TD*%
D18*
%TO.N,GND*%
X110744000Y-71628000D03*
X110800000Y-85800000D03*
X100965000Y-68834000D03*
X92710000Y-73025000D03*
X115070000Y-84690000D03*
X108800000Y-80700000D03*
X121285000Y-69850000D03*
X110744000Y-72644000D03*
X92710000Y-66675000D03*
X102610000Y-84980000D03*
X100965000Y-69977000D03*
X104013000Y-67564000D03*
X101600000Y-69342000D03*
X121285000Y-66675000D03*
X104013000Y-65786000D03*
X121285000Y-73025000D03*
X92710000Y-69850000D03*
X114370000Y-78510000D03*
X95880000Y-85130000D03*
X114370000Y-80610000D03*
X107090000Y-81160000D03*
X104013000Y-66675000D03*
%TO.N,/12V*%
X102997000Y-67564000D03*
X101999500Y-66720000D03*
X101981000Y-67564000D03*
X103000000Y-66700000D03*
%TO.N,/3V3*%
X104521000Y-64262000D03*
%TO.N,/~{RST}*%
X105918000Y-67691000D03*
%TO.N,/CS*%
X110236000Y-68580000D03*
%TO.N,/5V*%
X102489000Y-64262000D03*
%TO.N,/TX*%
X109474000Y-64262000D03*
%TO.N,/RX*%
X110490000Y-63500000D03*
%TO.N,/Status*%
X108458000Y-62484000D03*
%TO.N,/A0*%
X107442000Y-62357000D03*
%TO.N,/A1*%
X106426000Y-63246000D03*
%TO.N,/BAT*%
X111506000Y-62738000D03*
%TD*%
D19*
%TO.N,*%
X107460500Y-66423000D02*
X107696000Y-66187500D01*
X106299000Y-66423000D02*
X107460500Y-66423000D01*
%TO.N,GND*%
X107569000Y-64617500D02*
X106273500Y-64617500D01*
X103759000Y-63373000D02*
X103505000Y-63627000D01*
X106273500Y-64617500D02*
X105029000Y-63373000D01*
X105029000Y-63373000D02*
X103759000Y-63373000D01*
D20*
%TO.N,/12V*%
X97790000Y-72898000D02*
X99949000Y-70739000D01*
D21*
X103000000Y-66700000D02*
X102845000Y-66700000D01*
X102489000Y-67056000D02*
X101981000Y-67564000D01*
X102997000Y-66703000D02*
X102997000Y-67564000D01*
X103000000Y-66700000D02*
X102980000Y-66720000D01*
D20*
X100711000Y-67056000D02*
X99949000Y-67818000D01*
D21*
X102997000Y-67564000D02*
X102843500Y-67564000D01*
X101999500Y-66720000D02*
X101999500Y-67545500D01*
D20*
X99949000Y-67818000D02*
X99949000Y-70739000D01*
D21*
X102843500Y-67564000D02*
X101999500Y-66720000D01*
D20*
X102489000Y-67056000D02*
X100711000Y-67056000D01*
D21*
X102845000Y-66700000D02*
X102489000Y-67056000D01*
X101999500Y-67545500D02*
X101981000Y-67564000D01*
X103000000Y-66700000D02*
X102997000Y-66703000D01*
X102980000Y-66720000D02*
X101999500Y-66720000D01*
X102997000Y-67564000D02*
X101981000Y-67564000D01*
D19*
%TO.N,/3V3*%
X113030000Y-70030000D02*
X113030000Y-70358000D01*
X108405000Y-65405000D02*
X113030000Y-70030000D01*
X105664000Y-65405000D02*
X108405000Y-65405000D01*
X104521000Y-64262000D02*
X105664000Y-65405000D01*
%TO.N,/~{RST}*%
X104775000Y-68453000D02*
X105156000Y-68453000D01*
X105156000Y-68453000D02*
X105918000Y-67691000D01*
X102870000Y-70358000D02*
X104775000Y-68453000D01*
%TO.N,/CS*%
X109220000Y-70358000D02*
X107950000Y-70358000D01*
X110236000Y-68580000D02*
X110236000Y-69342000D01*
X110236000Y-69342000D02*
X109220000Y-70358000D01*
D22*
%TO.N,/5V*%
X97790000Y-68580000D02*
X100965000Y-65405000D01*
X102489000Y-64262000D02*
X102489000Y-64770000D01*
X97790000Y-70358000D02*
X97790000Y-68580000D01*
X102489000Y-64770000D02*
X101854000Y-65405000D01*
X101854000Y-65405000D02*
X100965000Y-65405000D01*
D19*
%TO.N,/TX*%
X115570000Y-70358000D02*
X115062000Y-70358000D01*
X115062000Y-70358000D02*
X110871000Y-66167000D01*
X110871000Y-66167000D02*
X110871000Y-65659000D01*
X110871000Y-65659000D02*
X109474000Y-64262000D01*
%TO.N,/RX*%
X112395000Y-66582920D02*
X112395000Y-65405000D01*
X116955999Y-69088000D02*
X116967000Y-69088000D01*
X114900080Y-69088000D02*
X112395000Y-66582920D01*
X116955999Y-69088000D02*
X114900080Y-69088000D01*
X117094000Y-69088000D02*
X118110000Y-70104000D01*
X116955999Y-69088000D02*
X117094000Y-69088000D01*
X112395000Y-65405000D02*
X110490000Y-63500000D01*
X118110000Y-70104000D02*
X118110000Y-70358000D01*
%TO.N,/Status*%
X109220000Y-61722000D02*
X112776000Y-61722000D01*
X108458000Y-62484000D02*
X109220000Y-61722000D01*
X116332000Y-66040000D02*
X118110000Y-67818000D01*
X112776000Y-61722000D02*
X116332000Y-65278000D01*
X116332000Y-65278000D02*
X116332000Y-66040000D01*
%TO.N,/A0*%
X107061000Y-61976000D02*
X100584000Y-61976000D01*
X93472000Y-69342000D02*
X93472000Y-71120000D01*
X94996000Y-68453000D02*
X94361000Y-68453000D01*
X93472000Y-71120000D02*
X95250000Y-72898000D01*
X98552000Y-64008000D02*
X98552000Y-64897000D01*
X100584000Y-61976000D02*
X98552000Y-64008000D01*
X98552000Y-64897000D02*
X94996000Y-68453000D01*
X107442000Y-62357000D02*
X107061000Y-61976000D01*
X94361000Y-68453000D02*
X93472000Y-69342000D01*
%TO.N,/A1*%
X105918000Y-62738000D02*
X101092000Y-62738000D01*
X95250000Y-69723000D02*
X95250000Y-70358000D01*
X101092000Y-62738000D02*
X99695000Y-64135000D01*
X99695000Y-65278000D02*
X95250000Y-69723000D01*
X99695000Y-64135000D02*
X99695000Y-65278000D01*
X106426000Y-63246000D02*
X105918000Y-62738000D01*
%TO.N,/BAT*%
X111506000Y-62738000D02*
X111760000Y-62484000D01*
X115570000Y-67818000D02*
X115570000Y-65278000D01*
X111760000Y-62484000D02*
X112776000Y-62484000D01*
X115570000Y-65278000D02*
X112776000Y-62484000D01*
%TO.N,Net-(J3-Pad1)*%
X109320000Y-82995000D02*
X109320000Y-81910000D01*
X113950000Y-77280000D02*
X116800000Y-77280000D01*
X109320000Y-81910000D02*
X113950000Y-77280000D01*
%TO.N,Net-(J3-Pad2)*%
X112510000Y-79820000D02*
X116800000Y-79820000D01*
X110320000Y-82995000D02*
X110320000Y-82010000D01*
X110320000Y-82010000D02*
X112510000Y-79820000D01*
%TO.N,Net-(J3-Pad3)*%
X111320000Y-82995000D02*
X111320000Y-82350000D01*
X115950000Y-81510000D02*
X116800000Y-82360000D01*
X112160000Y-81510000D02*
X115950000Y-81510000D01*
X111320000Y-82350000D02*
X112160000Y-81510000D01*
%TO.N,Net-(J3-Pad4)*%
X114895000Y-82995000D02*
X114755000Y-82995000D01*
X116800000Y-84900000D02*
X114895000Y-82995000D01*
X112320000Y-82995000D02*
X114755000Y-82995000D01*
%TO.N,Net-(J4-Pad8)*%
X109076000Y-79900000D02*
X106900000Y-79900000D01*
X111760000Y-77216000D02*
X109076000Y-79900000D01*
X106900000Y-79900000D02*
X105184000Y-81616000D01*
X105184000Y-81616000D02*
X103689000Y-81616000D01*
%TO.N,Net-(J4-Pad7)*%
X102439000Y-80961000D02*
X102439000Y-81616000D01*
X105500000Y-80000000D02*
X103400000Y-80000000D01*
X108400000Y-79100000D02*
X106400000Y-79100000D01*
X109220000Y-77216000D02*
X109220000Y-78280000D01*
X103400000Y-80000000D02*
X102439000Y-80961000D01*
X106400000Y-79100000D02*
X105500000Y-80000000D01*
X109220000Y-78280000D02*
X108400000Y-79100000D01*
%TO.N,Net-(J4-Pad6)*%
X106680000Y-77216000D02*
X106680000Y-77520000D01*
X102900000Y-79200000D02*
X101189000Y-80911000D01*
X101189000Y-80911000D02*
X101189000Y-81616000D01*
X105000000Y-79200000D02*
X102900000Y-79200000D01*
X106680000Y-77520000D02*
X105000000Y-79200000D01*
%TO.N,Net-(J4-Pad1)*%
X94939000Y-79799000D02*
X94939000Y-81616000D01*
X93980000Y-77216000D02*
X93980000Y-78840000D01*
X93980000Y-78840000D02*
X94939000Y-79799000D01*
%TO.N,Net-(J4-Pad2)*%
X96189000Y-81616000D02*
X96189000Y-79511000D01*
X96520000Y-79180000D02*
X96520000Y-77216000D01*
X96189000Y-79511000D02*
X96520000Y-79180000D01*
%TO.N,Net-(J4-Pad3)*%
X99060000Y-77216000D02*
X99060000Y-78500000D01*
X99060000Y-78500000D02*
X97439000Y-80121000D01*
X97439000Y-80121000D02*
X97439000Y-81616000D01*
%TO.N,Net-(J4-Pad4)*%
X101600000Y-77460000D02*
X98689000Y-80371000D01*
X98689000Y-80371000D02*
X98689000Y-81616000D01*
X101600000Y-77216000D02*
X101600000Y-77460000D01*
%TO.N,Net-(J4-Pad5)*%
X103754000Y-77216000D02*
X99939000Y-81031000D01*
X99939000Y-81031000D02*
X99939000Y-81616000D01*
X104140000Y-77216000D02*
X103754000Y-77216000D01*
%TD*%
%TA.AperFunction,Conductor*%
%TO.N,GND*%
G36*
X114647699Y-83650502D02*
G01*
X114668673Y-83667405D01*
X115408540Y-84407272D01*
X115442566Y-84469584D01*
X115440862Y-84530039D01*
X115436421Y-84546054D01*
X115411707Y-84635169D01*
X115387095Y-84865469D01*
X115387392Y-84870622D01*
X115387392Y-84870625D01*
X115393067Y-84969041D01*
X115400427Y-85096697D01*
X115401564Y-85101743D01*
X115401565Y-85101749D01*
X115433741Y-85244523D01*
X115451346Y-85322642D01*
X115453288Y-85327424D01*
X115453289Y-85327428D01*
X115536540Y-85532450D01*
X115538484Y-85537237D01*
X115659501Y-85734719D01*
X115811147Y-85909784D01*
X115989349Y-86057730D01*
X116189322Y-86174584D01*
X116194147Y-86176426D01*
X116194148Y-86176427D01*
X116219977Y-86186290D01*
X116276480Y-86229277D01*
X116300773Y-86295989D01*
X116285143Y-86365243D01*
X116234552Y-86415054D01*
X116175028Y-86430000D01*
X114846594Y-86430000D01*
X114778473Y-86409998D01*
X114731980Y-86356342D01*
X114721250Y-86291157D01*
X114728500Y-86220400D01*
X114728500Y-84819600D01*
X114717526Y-84713834D01*
X114704343Y-84674318D01*
X114663868Y-84553002D01*
X114661550Y-84546054D01*
X114568478Y-84395652D01*
X114443303Y-84270695D01*
X114380741Y-84232131D01*
X114298968Y-84181725D01*
X114298966Y-84181724D01*
X114292738Y-84177885D01*
X114132254Y-84124655D01*
X114131389Y-84124368D01*
X114131387Y-84124368D01*
X114124861Y-84122203D01*
X114118025Y-84121503D01*
X114118022Y-84121502D01*
X114074969Y-84117091D01*
X114020400Y-84111500D01*
X113219600Y-84111500D01*
X113175144Y-84116113D01*
X113105325Y-84103249D01*
X113053542Y-84054678D01*
X113036239Y-83985823D01*
X113053686Y-83926649D01*
X113079145Y-83883601D01*
X113112493Y-83768817D01*
X113125562Y-83723831D01*
X113127783Y-83724476D01*
X113154990Y-83670432D01*
X113216130Y-83634343D01*
X113247013Y-83630500D01*
X114579578Y-83630500D01*
X114647699Y-83650502D01*
G37*
%TD.AperFunction*%
%TA.AperFunction,Conductor*%
G36*
X92711512Y-77853138D02*
G01*
X92736433Y-77882527D01*
X92839501Y-78050719D01*
X92991147Y-78225784D01*
X93169349Y-78373730D01*
X93260490Y-78426988D01*
X93282070Y-78439598D01*
X93330794Y-78491236D01*
X93344500Y-78548386D01*
X93344500Y-78760980D01*
X93343970Y-78772214D01*
X93342292Y-78779719D01*
X93342541Y-78787638D01*
X93344438Y-78848012D01*
X93344500Y-78851969D01*
X93344500Y-78879983D01*
X93344996Y-78883908D01*
X93344996Y-78883909D01*
X93345008Y-78884004D01*
X93345941Y-78895849D01*
X93347335Y-78940205D01*
X93349547Y-78947817D01*
X93353013Y-78959748D01*
X93357023Y-78979112D01*
X93359573Y-78999299D01*
X93362489Y-79006663D01*
X93362490Y-79006668D01*
X93375907Y-79040556D01*
X93379752Y-79051785D01*
X93392131Y-79094393D01*
X93396169Y-79101220D01*
X93396170Y-79101223D01*
X93402488Y-79111906D01*
X93411188Y-79129664D01*
X93415761Y-79141215D01*
X93415765Y-79141221D01*
X93418681Y-79148588D01*
X93423339Y-79154999D01*
X93423340Y-79155001D01*
X93444764Y-79184488D01*
X93451281Y-79194410D01*
X93469826Y-79225768D01*
X93469829Y-79225772D01*
X93473866Y-79232598D01*
X93488250Y-79246982D01*
X93501091Y-79262016D01*
X93513058Y-79278487D01*
X93544518Y-79304513D01*
X93547250Y-79306773D01*
X93556031Y-79314763D01*
X94266596Y-80025329D01*
X94300621Y-80087641D01*
X94303500Y-80114424D01*
X94303500Y-80418050D01*
X94283498Y-80486171D01*
X94274702Y-80497085D01*
X94275011Y-80497325D01*
X94270155Y-80503585D01*
X94264547Y-80509193D01*
X94260511Y-80516017D01*
X94260509Y-80516020D01*
X94239162Y-80552116D01*
X94179855Y-80652399D01*
X94177644Y-80660010D01*
X94177643Y-80660012D01*
X94163365Y-80709158D01*
X94133438Y-80812169D01*
X94132934Y-80818574D01*
X94132933Y-80818579D01*
X94130693Y-80847042D01*
X94130500Y-80849498D01*
X94130500Y-82382502D01*
X94130693Y-82384950D01*
X94130693Y-82384958D01*
X94131449Y-82394555D01*
X94133438Y-82419831D01*
X94179855Y-82579601D01*
X94183892Y-82586427D01*
X94260509Y-82715980D01*
X94260511Y-82715983D01*
X94264547Y-82722807D01*
X94382193Y-82840453D01*
X94389017Y-82844489D01*
X94389020Y-82844491D01*
X94496589Y-82908107D01*
X94525399Y-82925145D01*
X94533010Y-82927356D01*
X94533012Y-82927357D01*
X94585231Y-82942528D01*
X94685169Y-82971562D01*
X94691574Y-82972066D01*
X94691579Y-82972067D01*
X94720042Y-82974307D01*
X94720050Y-82974307D01*
X94722498Y-82974500D01*
X95155502Y-82974500D01*
X95157950Y-82974307D01*
X95157958Y-82974307D01*
X95186421Y-82972067D01*
X95186426Y-82972066D01*
X95192831Y-82971562D01*
X95292769Y-82942528D01*
X95344988Y-82927357D01*
X95344990Y-82927356D01*
X95352601Y-82925145D01*
X95495807Y-82840453D01*
X95496864Y-82842241D01*
X95552851Y-82820255D01*
X95622475Y-82834151D01*
X95632034Y-82840294D01*
X95632193Y-82840453D01*
X95775399Y-82925145D01*
X95783010Y-82927356D01*
X95783012Y-82927357D01*
X95835231Y-82942528D01*
X95935169Y-82971562D01*
X95941574Y-82972066D01*
X95941579Y-82972067D01*
X95970042Y-82974307D01*
X95970050Y-82974307D01*
X95972498Y-82974500D01*
X96405502Y-82974500D01*
X96407950Y-82974307D01*
X96407958Y-82974307D01*
X96436421Y-82972067D01*
X96436426Y-82972066D01*
X96442831Y-82971562D01*
X96542769Y-82942528D01*
X96594988Y-82927357D01*
X96594990Y-82927356D01*
X96602601Y-82925145D01*
X96745807Y-82840453D01*
X96746864Y-82842241D01*
X96802851Y-82820255D01*
X96872475Y-82834151D01*
X96882034Y-82840294D01*
X96882193Y-82840453D01*
X97025399Y-82925145D01*
X97033010Y-82927356D01*
X97033012Y-82927357D01*
X97085231Y-82942528D01*
X97185169Y-82971562D01*
X97191574Y-82972066D01*
X97191579Y-82972067D01*
X97220042Y-82974307D01*
X97220050Y-82974307D01*
X97222498Y-82974500D01*
X97655502Y-82974500D01*
X97657950Y-82974307D01*
X97657958Y-82974307D01*
X97686421Y-82972067D01*
X97686426Y-82972066D01*
X97692831Y-82971562D01*
X97792769Y-82942528D01*
X97844988Y-82927357D01*
X97844990Y-82927356D01*
X97852601Y-82925145D01*
X97995807Y-82840453D01*
X97996864Y-82842241D01*
X98052851Y-82820255D01*
X98122475Y-82834151D01*
X98132034Y-82840294D01*
X98132193Y-82840453D01*
X98275399Y-82925145D01*
X98283010Y-82927356D01*
X98283012Y-82927357D01*
X98335231Y-82942528D01*
X98435169Y-82971562D01*
X98441574Y-82972066D01*
X98441579Y-82972067D01*
X98470042Y-82974307D01*
X98470050Y-82974307D01*
X98472498Y-82974500D01*
X98905502Y-82974500D01*
X98907950Y-82974307D01*
X98907958Y-82974307D01*
X98936421Y-82972067D01*
X98936426Y-82972066D01*
X98942831Y-82971562D01*
X99042769Y-82942528D01*
X99094988Y-82927357D01*
X99094990Y-82927356D01*
X99102601Y-82925145D01*
X99245807Y-82840453D01*
X99246864Y-82842241D01*
X99302851Y-82820255D01*
X99372475Y-82834151D01*
X99382034Y-82840294D01*
X99382193Y-82840453D01*
X99525399Y-82925145D01*
X99533010Y-82927356D01*
X99533012Y-82927357D01*
X99585231Y-82942528D01*
X99685169Y-82971562D01*
X99691574Y-82972066D01*
X99691579Y-82972067D01*
X99720042Y-82974307D01*
X99720050Y-82974307D01*
X99722498Y-82974500D01*
X100155502Y-82974500D01*
X100157950Y-82974307D01*
X100157958Y-82974307D01*
X100186421Y-82972067D01*
X100186426Y-82972066D01*
X100192831Y-82971562D01*
X100292769Y-82942528D01*
X100344988Y-82927357D01*
X100344990Y-82927356D01*
X100352601Y-82925145D01*
X100495807Y-82840453D01*
X100496864Y-82842241D01*
X100552851Y-82820255D01*
X100622475Y-82834151D01*
X100632034Y-82840294D01*
X100632193Y-82840453D01*
X100775399Y-82925145D01*
X100783010Y-82927356D01*
X100783012Y-82927357D01*
X100835231Y-82942528D01*
X100935169Y-82971562D01*
X100941574Y-82972066D01*
X100941579Y-82972067D01*
X100970042Y-82974307D01*
X100970050Y-82974307D01*
X100972498Y-82974500D01*
X101405502Y-82974500D01*
X101407950Y-82974307D01*
X101407958Y-82974307D01*
X101436421Y-82972067D01*
X101436426Y-82972066D01*
X101442831Y-82971562D01*
X101542769Y-82942528D01*
X101594988Y-82927357D01*
X101594990Y-82927356D01*
X101602601Y-82925145D01*
X101745807Y-82840453D01*
X101746864Y-82842241D01*
X101802851Y-82820255D01*
X101872475Y-82834151D01*
X101882034Y-82840294D01*
X101882193Y-82840453D01*
X102025399Y-82925145D01*
X102033010Y-82927356D01*
X102033012Y-82927357D01*
X102085231Y-82942528D01*
X102185169Y-82971562D01*
X102191574Y-82972066D01*
X102191579Y-82972067D01*
X102220042Y-82974307D01*
X102220050Y-82974307D01*
X102222498Y-82974500D01*
X102655502Y-82974500D01*
X102657950Y-82974307D01*
X102657958Y-82974307D01*
X102686421Y-82972067D01*
X102686426Y-82972066D01*
X102692831Y-82971562D01*
X102792769Y-82942528D01*
X102844988Y-82927357D01*
X102844990Y-82927356D01*
X102852601Y-82925145D01*
X102995807Y-82840453D01*
X102996864Y-82842241D01*
X103052851Y-82820255D01*
X103122475Y-82834151D01*
X103132034Y-82840294D01*
X103132193Y-82840453D01*
X103275399Y-82925145D01*
X103283010Y-82927356D01*
X103283012Y-82927357D01*
X103335231Y-82942528D01*
X103435169Y-82971562D01*
X103441574Y-82972066D01*
X103441579Y-82972067D01*
X103470042Y-82974307D01*
X103470050Y-82974307D01*
X103472498Y-82974500D01*
X103905502Y-82974500D01*
X103907950Y-82974307D01*
X103907958Y-82974307D01*
X103936421Y-82972067D01*
X103936426Y-82972066D01*
X103942831Y-82971562D01*
X104042769Y-82942528D01*
X104094988Y-82927357D01*
X104094990Y-82927356D01*
X104102601Y-82925145D01*
X104131411Y-82908107D01*
X104238980Y-82844491D01*
X104238983Y-82844489D01*
X104245807Y-82840453D01*
X104363453Y-82722807D01*
X104367489Y-82715983D01*
X104367491Y-82715980D01*
X104444108Y-82586427D01*
X104448145Y-82579601D01*
X104494562Y-82419831D01*
X104496552Y-82394555D01*
X104497307Y-82384958D01*
X104497307Y-82384950D01*
X104497500Y-82382502D01*
X104497500Y-82377500D01*
X104517502Y-82309379D01*
X104571158Y-82262886D01*
X104623500Y-82251500D01*
X105104980Y-82251500D01*
X105116214Y-82252030D01*
X105123719Y-82253708D01*
X105192012Y-82251562D01*
X105195969Y-82251500D01*
X105223983Y-82251500D01*
X105227908Y-82251004D01*
X105227909Y-82251004D01*
X105228004Y-82250992D01*
X105239849Y-82250059D01*
X105269670Y-82249122D01*
X105276282Y-82248914D01*
X105276283Y-82248914D01*
X105284205Y-82248665D01*
X105303749Y-82242987D01*
X105323112Y-82238977D01*
X105335440Y-82237420D01*
X105335442Y-82237420D01*
X105343299Y-82236427D01*
X105350663Y-82233511D01*
X105350668Y-82233510D01*
X105384556Y-82220093D01*
X105395785Y-82216248D01*
X105412465Y-82211402D01*
X105438393Y-82203869D01*
X105445220Y-82199831D01*
X105445223Y-82199830D01*
X105455906Y-82193512D01*
X105473664Y-82184812D01*
X105485215Y-82180239D01*
X105485221Y-82180235D01*
X105492588Y-82177319D01*
X105528491Y-82151234D01*
X105538410Y-82144719D01*
X105569768Y-82126174D01*
X105569772Y-82126171D01*
X105576598Y-82122134D01*
X105590982Y-82107750D01*
X105606016Y-82094909D01*
X105616073Y-82087602D01*
X105622487Y-82082942D01*
X105650778Y-82048744D01*
X105658767Y-82039965D01*
X107126327Y-80572405D01*
X107188639Y-80538379D01*
X107215422Y-80535500D01*
X108996980Y-80535500D01*
X109008214Y-80536030D01*
X109015719Y-80537708D01*
X109084012Y-80535562D01*
X109087969Y-80535500D01*
X109115983Y-80535500D01*
X109119908Y-80535004D01*
X109119909Y-80535004D01*
X109120004Y-80534992D01*
X109131849Y-80534059D01*
X109161670Y-80533122D01*
X109168282Y-80532914D01*
X109168283Y-80532914D01*
X109176205Y-80532665D01*
X109195749Y-80526987D01*
X109215112Y-80522977D01*
X109227440Y-80521420D01*
X109227442Y-80521420D01*
X109235299Y-80520427D01*
X109242663Y-80517511D01*
X109242668Y-80517510D01*
X109276556Y-80504093D01*
X109287785Y-80500248D01*
X109304465Y-80495402D01*
X109330393Y-80487869D01*
X109337220Y-80483831D01*
X109337223Y-80483830D01*
X109347906Y-80477512D01*
X109365664Y-80468812D01*
X109377215Y-80464239D01*
X109377221Y-80464235D01*
X109384588Y-80461319D01*
X109392598Y-80455500D01*
X109420488Y-80435236D01*
X109430410Y-80428719D01*
X109461768Y-80410174D01*
X109461772Y-80410171D01*
X109468598Y-80406134D01*
X109482982Y-80391750D01*
X109498016Y-80378909D01*
X109508073Y-80371602D01*
X109514487Y-80366942D01*
X109542778Y-80332744D01*
X109550767Y-80323965D01*
X111264498Y-78610234D01*
X111326810Y-78576208D01*
X111378713Y-78575859D01*
X111461936Y-78592791D01*
X111524702Y-78625972D01*
X111559564Y-78687820D01*
X111555455Y-78758697D01*
X111525911Y-78805356D01*
X108926517Y-81404750D01*
X108918191Y-81412326D01*
X108911697Y-81416447D01*
X108906274Y-81422222D01*
X108864915Y-81466265D01*
X108862160Y-81469107D01*
X108842361Y-81488906D01*
X108839937Y-81492031D01*
X108839929Y-81492040D01*
X108839863Y-81492126D01*
X108832155Y-81501151D01*
X108801783Y-81533494D01*
X108797965Y-81540438D01*
X108797964Y-81540440D01*
X108791978Y-81551329D01*
X108781127Y-81567847D01*
X108768650Y-81583933D01*
X108751024Y-81624666D01*
X108745807Y-81635314D01*
X108724431Y-81674197D01*
X108722460Y-81681872D01*
X108722458Y-81681878D01*
X108719369Y-81693911D01*
X108712966Y-81712613D01*
X108704883Y-81731292D01*
X108703644Y-81739117D01*
X108697940Y-81775127D01*
X108695535Y-81786740D01*
X108684500Y-81829718D01*
X108684500Y-81850065D01*
X108682949Y-81869776D01*
X108679765Y-81889879D01*
X108677558Y-81889529D01*
X108654699Y-81953015D01*
X108651152Y-81957588D01*
X108645547Y-81963193D01*
X108560855Y-82106399D01*
X108558644Y-82114010D01*
X108558643Y-82114012D01*
X108547829Y-82151236D01*
X108514438Y-82266169D01*
X108513934Y-82272574D01*
X108513933Y-82272579D01*
X108511693Y-82301042D01*
X108511500Y-82303498D01*
X108511500Y-83686502D01*
X108514438Y-83723831D01*
X108560855Y-83883601D01*
X108564891Y-83890425D01*
X108586276Y-83926586D01*
X108603735Y-83995402D01*
X108581217Y-84062734D01*
X108525872Y-84107202D01*
X108464980Y-84116068D01*
X108420400Y-84111500D01*
X107619600Y-84111500D01*
X107616354Y-84111837D01*
X107616350Y-84111837D01*
X107520692Y-84121762D01*
X107520688Y-84121763D01*
X107513834Y-84122474D01*
X107507298Y-84124655D01*
X107507296Y-84124655D01*
X107447955Y-84144453D01*
X107346054Y-84178450D01*
X107195652Y-84271522D01*
X107070695Y-84396697D01*
X107066855Y-84402927D01*
X107066854Y-84402928D01*
X107025767Y-84469584D01*
X106977885Y-84547262D01*
X106922203Y-84715139D01*
X106911500Y-84819600D01*
X106911500Y-86220400D01*
X106911837Y-86223646D01*
X106911837Y-86223650D01*
X106918825Y-86290996D01*
X106905960Y-86360817D01*
X106857390Y-86412600D01*
X106793498Y-86430000D01*
X106657790Y-86430000D01*
X106589669Y-86409998D01*
X106543176Y-86356342D01*
X106533072Y-86286068D01*
X106534589Y-86277589D01*
X106534632Y-86277388D01*
X106536797Y-86270861D01*
X106547500Y-86166400D01*
X106547500Y-83765600D01*
X106543166Y-83723831D01*
X106537238Y-83666692D01*
X106537237Y-83666688D01*
X106536526Y-83659834D01*
X106526740Y-83630500D01*
X106482868Y-83499002D01*
X106480550Y-83492054D01*
X106387478Y-83341652D01*
X106262303Y-83216695D01*
X106256072Y-83212854D01*
X106117968Y-83127725D01*
X106117966Y-83127724D01*
X106111738Y-83123885D01*
X105989311Y-83083278D01*
X105950389Y-83070368D01*
X105950387Y-83070368D01*
X105943861Y-83068203D01*
X105937025Y-83067503D01*
X105937022Y-83067502D01*
X105893969Y-83063091D01*
X105839400Y-83057500D01*
X105238600Y-83057500D01*
X105235354Y-83057837D01*
X105235350Y-83057837D01*
X105139692Y-83067762D01*
X105139688Y-83067763D01*
X105132834Y-83068474D01*
X105126298Y-83070655D01*
X105126296Y-83070655D01*
X104994194Y-83114728D01*
X104965054Y-83124450D01*
X104814652Y-83217522D01*
X104689695Y-83342697D01*
X104596885Y-83493262D01*
X104541203Y-83661139D01*
X104540503Y-83667975D01*
X104540502Y-83667978D01*
X104540251Y-83670432D01*
X104530500Y-83765600D01*
X104530500Y-86166400D01*
X104530837Y-86169646D01*
X104530837Y-86169650D01*
X104540629Y-86264020D01*
X104541474Y-86272166D01*
X104543346Y-86277778D01*
X104538204Y-86348207D01*
X104495573Y-86404980D01*
X104429016Y-86429692D01*
X104420214Y-86430000D01*
X94207790Y-86430000D01*
X94139669Y-86409998D01*
X94093176Y-86356342D01*
X94083072Y-86286068D01*
X94084589Y-86277589D01*
X94084632Y-86277388D01*
X94086797Y-86270861D01*
X94097500Y-86166400D01*
X94097500Y-83765600D01*
X94093166Y-83723831D01*
X94087238Y-83666692D01*
X94087237Y-83666688D01*
X94086526Y-83659834D01*
X94076740Y-83630500D01*
X94032868Y-83499002D01*
X94030550Y-83492054D01*
X93937478Y-83341652D01*
X93812303Y-83216695D01*
X93806072Y-83212854D01*
X93667968Y-83127725D01*
X93667966Y-83127724D01*
X93661738Y-83123885D01*
X93539311Y-83083278D01*
X93500389Y-83070368D01*
X93500387Y-83070368D01*
X93493861Y-83068203D01*
X93487025Y-83067503D01*
X93487022Y-83067502D01*
X93443969Y-83063091D01*
X93389400Y-83057500D01*
X92788600Y-83057500D01*
X92785354Y-83057837D01*
X92785350Y-83057837D01*
X92689692Y-83067762D01*
X92689688Y-83067763D01*
X92682834Y-83068474D01*
X92676293Y-83070656D01*
X92676294Y-83070656D01*
X92668878Y-83073130D01*
X92597929Y-83075716D01*
X92536844Y-83039533D01*
X92505018Y-82976069D01*
X92503000Y-82953607D01*
X92503000Y-77948362D01*
X92523002Y-77880241D01*
X92576658Y-77833748D01*
X92646932Y-77823644D01*
X92711512Y-77853138D01*
G37*
%TD.AperFunction*%
%TA.AperFunction,Conductor*%
G36*
X111884137Y-84215980D02*
G01*
X111899574Y-84225109D01*
X111906399Y-84229145D01*
X111914010Y-84231356D01*
X111914012Y-84231357D01*
X111966231Y-84246528D01*
X112066169Y-84275562D01*
X112072574Y-84276066D01*
X112072579Y-84276067D01*
X112101042Y-84278307D01*
X112101050Y-84278307D01*
X112103498Y-84278500D01*
X112517870Y-84278500D01*
X112585991Y-84298502D01*
X112632484Y-84352158D01*
X112642588Y-84422432D01*
X112625130Y-84470616D01*
X112577885Y-84547262D01*
X112522203Y-84715139D01*
X112511500Y-84819600D01*
X112511500Y-86220400D01*
X112511837Y-86223646D01*
X112511837Y-86223650D01*
X112518825Y-86290996D01*
X112505960Y-86360817D01*
X112457390Y-86412600D01*
X112393498Y-86430000D01*
X109246594Y-86430000D01*
X109178473Y-86409998D01*
X109131980Y-86356342D01*
X109121250Y-86291157D01*
X109128500Y-86220400D01*
X109128500Y-84819600D01*
X109117526Y-84713834D01*
X109104343Y-84674318D01*
X109063868Y-84553002D01*
X109061550Y-84546054D01*
X109014983Y-84470803D01*
X108996145Y-84402351D01*
X109017306Y-84334582D01*
X109071747Y-84289010D01*
X109122127Y-84278500D01*
X109536502Y-84278500D01*
X109538950Y-84278307D01*
X109538958Y-84278307D01*
X109567421Y-84276067D01*
X109567426Y-84276066D01*
X109573831Y-84275562D01*
X109673769Y-84246528D01*
X109725988Y-84231357D01*
X109725990Y-84231356D01*
X109733601Y-84229145D01*
X109740426Y-84225109D01*
X109755863Y-84215980D01*
X109824679Y-84198522D01*
X109884137Y-84215980D01*
X109899574Y-84225109D01*
X109906399Y-84229145D01*
X109914010Y-84231356D01*
X109914012Y-84231357D01*
X109966231Y-84246528D01*
X110066169Y-84275562D01*
X110072574Y-84276066D01*
X110072579Y-84276067D01*
X110101042Y-84278307D01*
X110101050Y-84278307D01*
X110103498Y-84278500D01*
X110536502Y-84278500D01*
X110538950Y-84278307D01*
X110538958Y-84278307D01*
X110567421Y-84276067D01*
X110567426Y-84276066D01*
X110573831Y-84275562D01*
X110673769Y-84246528D01*
X110725988Y-84231357D01*
X110725990Y-84231356D01*
X110733601Y-84229145D01*
X110740426Y-84225109D01*
X110755863Y-84215980D01*
X110824679Y-84198522D01*
X110884137Y-84215980D01*
X110899574Y-84225109D01*
X110906399Y-84229145D01*
X110914010Y-84231356D01*
X110914012Y-84231357D01*
X110966231Y-84246528D01*
X111066169Y-84275562D01*
X111072574Y-84276066D01*
X111072579Y-84276067D01*
X111101042Y-84278307D01*
X111101050Y-84278307D01*
X111103498Y-84278500D01*
X111536502Y-84278500D01*
X111538950Y-84278307D01*
X111538958Y-84278307D01*
X111567421Y-84276067D01*
X111567426Y-84276066D01*
X111573831Y-84275562D01*
X111673769Y-84246528D01*
X111725988Y-84231357D01*
X111725990Y-84231356D01*
X111733601Y-84229145D01*
X111740426Y-84225109D01*
X111755863Y-84215980D01*
X111824679Y-84198522D01*
X111884137Y-84215980D01*
G37*
%TD.AperFunction*%
%TA.AperFunction,Conductor*%
G36*
X93508556Y-61466002D02*
G01*
X93555049Y-61519658D01*
X93565153Y-61589932D01*
X93535659Y-61654512D01*
X93504858Y-61680285D01*
X93450196Y-61712805D01*
X93443945Y-61717053D01*
X93250733Y-61866115D01*
X93242267Y-61877773D01*
X93248871Y-61889661D01*
X94987188Y-63627978D01*
X95001132Y-63635592D01*
X95002965Y-63635461D01*
X95009580Y-63631210D01*
X96750162Y-61890628D01*
X96757174Y-61877787D01*
X96749379Y-61867098D01*
X96579886Y-61733481D01*
X96573663Y-61729156D01*
X96492326Y-61679605D01*
X96444557Y-61627082D01*
X96432767Y-61557071D01*
X96460699Y-61491800D01*
X96519485Y-61451992D01*
X96557879Y-61446000D01*
X99911078Y-61446000D01*
X99979199Y-61466002D01*
X100025692Y-61519658D01*
X100035796Y-61589932D01*
X100006302Y-61654512D01*
X100000174Y-61661094D01*
X99049973Y-62611294D01*
X98158517Y-63502750D01*
X98150191Y-63510326D01*
X98143697Y-63514447D01*
X98138274Y-63520222D01*
X98096915Y-63564265D01*
X98094160Y-63567107D01*
X98074361Y-63586906D01*
X98071937Y-63590031D01*
X98071929Y-63590040D01*
X98071863Y-63590126D01*
X98064155Y-63599151D01*
X98033783Y-63631494D01*
X98029965Y-63638438D01*
X98029964Y-63638440D01*
X98023978Y-63649329D01*
X98013127Y-63665847D01*
X98000650Y-63681933D01*
X97997500Y-63689213D01*
X97984908Y-63718311D01*
X97939497Y-63772886D01*
X97871790Y-63794246D01*
X97803283Y-63775610D01*
X97755727Y-63722894D01*
X97743499Y-63675853D01*
X97743257Y-63671835D01*
X97742349Y-63664333D01*
X97683967Y-63344663D01*
X97682154Y-63337284D01*
X97585797Y-63026966D01*
X97583116Y-63019869D01*
X97450172Y-62723363D01*
X97446655Y-62716636D01*
X97279054Y-62438252D01*
X97274757Y-62431999D01*
X97133617Y-62251022D01*
X97121823Y-62242551D01*
X97110113Y-62249097D01*
X93250257Y-66108953D01*
X93243142Y-66121982D01*
X93250668Y-66132415D01*
X93396463Y-66249848D01*
X93402648Y-66254244D01*
X93678363Y-66426195D01*
X93685034Y-66429817D01*
X93979414Y-66567402D01*
X93986468Y-66570195D01*
X94295257Y-66671420D01*
X94302570Y-66673339D01*
X94621298Y-66736738D01*
X94628789Y-66737764D01*
X94952823Y-66762413D01*
X94960386Y-66762531D01*
X95285021Y-66748074D01*
X95292562Y-66747282D01*
X95517209Y-66709890D01*
X95587690Y-66718436D01*
X95642361Y-66763730D01*
X95663866Y-66831391D01*
X95645377Y-66899938D01*
X95626992Y-66923275D01*
X94769672Y-67780595D01*
X94707360Y-67814621D01*
X94680577Y-67817500D01*
X94440032Y-67817500D01*
X94428793Y-67816970D01*
X94421281Y-67815291D01*
X94413356Y-67815540D01*
X94413355Y-67815540D01*
X94352970Y-67817438D01*
X94349012Y-67817500D01*
X94321017Y-67817500D01*
X94317083Y-67817997D01*
X94317081Y-67817997D01*
X94316994Y-67818008D01*
X94305160Y-67818940D01*
X94260795Y-67820335D01*
X94253182Y-67822547D01*
X94253181Y-67822547D01*
X94241252Y-67826013D01*
X94221888Y-67830023D01*
X94209560Y-67831580D01*
X94209558Y-67831580D01*
X94201701Y-67832573D01*
X94194337Y-67835489D01*
X94194332Y-67835490D01*
X94160444Y-67848907D01*
X94149215Y-67852752D01*
X94132535Y-67857598D01*
X94106607Y-67865131D01*
X94099780Y-67869169D01*
X94099777Y-67869170D01*
X94089094Y-67875488D01*
X94071336Y-67884188D01*
X94059785Y-67888761D01*
X94059779Y-67888765D01*
X94052412Y-67891681D01*
X94046001Y-67896339D01*
X94045999Y-67896340D01*
X94016512Y-67917764D01*
X94006590Y-67924281D01*
X93975232Y-67942826D01*
X93975228Y-67942829D01*
X93968402Y-67946866D01*
X93954018Y-67961250D01*
X93938984Y-67974091D01*
X93922513Y-67986058D01*
X93895870Y-68018264D01*
X93894227Y-68020250D01*
X93886237Y-68029031D01*
X93078512Y-68836755D01*
X93070193Y-68844325D01*
X93063697Y-68848447D01*
X93058271Y-68854225D01*
X93058270Y-68854226D01*
X93016915Y-68898265D01*
X93014160Y-68901107D01*
X92994361Y-68920906D01*
X92991937Y-68924031D01*
X92991929Y-68924040D01*
X92991863Y-68924126D01*
X92984155Y-68933151D01*
X92953783Y-68965494D01*
X92949965Y-68972438D01*
X92949964Y-68972440D01*
X92943978Y-68983329D01*
X92933127Y-68999847D01*
X92920650Y-69015933D01*
X92903024Y-69056666D01*
X92897807Y-69067314D01*
X92876431Y-69106197D01*
X92874460Y-69113872D01*
X92874458Y-69113878D01*
X92871369Y-69125911D01*
X92864966Y-69144613D01*
X92856883Y-69163292D01*
X92853601Y-69184012D01*
X92849940Y-69207127D01*
X92847535Y-69218740D01*
X92836500Y-69261718D01*
X92836500Y-69282065D01*
X92834949Y-69301776D01*
X92831765Y-69321879D01*
X92832511Y-69329771D01*
X92835941Y-69366056D01*
X92836500Y-69377914D01*
X92836500Y-71040980D01*
X92835970Y-71052214D01*
X92834292Y-71059719D01*
X92834970Y-71081282D01*
X92836438Y-71128012D01*
X92836500Y-71131969D01*
X92836500Y-71159983D01*
X92836996Y-71163908D01*
X92836996Y-71163909D01*
X92837008Y-71164004D01*
X92837941Y-71175849D01*
X92839335Y-71220205D01*
X92844119Y-71236670D01*
X92845013Y-71239748D01*
X92849023Y-71259112D01*
X92851573Y-71279299D01*
X92854489Y-71286663D01*
X92854490Y-71286668D01*
X92867907Y-71320556D01*
X92871752Y-71331785D01*
X92884131Y-71374393D01*
X92888169Y-71381220D01*
X92888170Y-71381223D01*
X92894488Y-71391906D01*
X92903188Y-71409664D01*
X92907761Y-71421215D01*
X92907765Y-71421221D01*
X92910681Y-71428588D01*
X92915339Y-71434999D01*
X92915340Y-71435001D01*
X92936764Y-71464488D01*
X92943281Y-71474410D01*
X92961826Y-71505768D01*
X92961829Y-71505772D01*
X92965866Y-71512598D01*
X92980250Y-71526982D01*
X92993091Y-71542016D01*
X93005058Y-71558487D01*
X93011166Y-71563540D01*
X93039255Y-71586777D01*
X93048035Y-71594767D01*
X93858540Y-72405272D01*
X93892566Y-72467584D01*
X93890862Y-72528039D01*
X93861707Y-72633169D01*
X93837095Y-72863469D01*
X93837392Y-72868622D01*
X93837392Y-72868625D01*
X93843067Y-72967041D01*
X93850427Y-73094697D01*
X93851564Y-73099743D01*
X93851565Y-73099749D01*
X93883741Y-73242523D01*
X93901346Y-73320642D01*
X93903288Y-73325424D01*
X93903289Y-73325428D01*
X93978467Y-73510568D01*
X93988484Y-73535237D01*
X94109501Y-73732719D01*
X94261147Y-73907784D01*
X94439349Y-74055730D01*
X94639322Y-74172584D01*
X94855694Y-74255209D01*
X94860760Y-74256240D01*
X94860761Y-74256240D01*
X94913295Y-74266928D01*
X95082656Y-74301385D01*
X95213324Y-74306176D01*
X95308949Y-74309683D01*
X95308953Y-74309683D01*
X95314113Y-74309872D01*
X95319233Y-74309216D01*
X95319235Y-74309216D01*
X95392270Y-74299860D01*
X95543847Y-74280442D01*
X95548795Y-74278957D01*
X95548802Y-74278956D01*
X95760747Y-74215369D01*
X95765690Y-74213886D01*
X95847159Y-74173975D01*
X95969049Y-74114262D01*
X95969052Y-74114260D01*
X95973684Y-74111991D01*
X96162243Y-73977494D01*
X96326303Y-73814005D01*
X96329319Y-73809808D01*
X96329326Y-73809800D01*
X96416960Y-73687844D01*
X96472954Y-73644196D01*
X96543658Y-73637750D01*
X96606622Y-73670553D01*
X96626715Y-73695536D01*
X96646800Y-73728313D01*
X96646804Y-73728318D01*
X96649501Y-73732719D01*
X96801147Y-73907784D01*
X96979349Y-74055730D01*
X97179322Y-74172584D01*
X97395694Y-74255209D01*
X97400760Y-74256240D01*
X97400761Y-74256240D01*
X97453295Y-74266928D01*
X97622656Y-74301385D01*
X97753324Y-74306176D01*
X97848949Y-74309683D01*
X97848953Y-74309683D01*
X97854113Y-74309872D01*
X97859233Y-74309216D01*
X97859235Y-74309216D01*
X97932270Y-74299860D01*
X98083847Y-74280442D01*
X98088795Y-74278957D01*
X98088802Y-74278956D01*
X98300747Y-74215369D01*
X98305690Y-74213886D01*
X98387159Y-74173975D01*
X98509049Y-74114262D01*
X98509052Y-74114260D01*
X98513684Y-74111991D01*
X98702243Y-73977494D01*
X98866303Y-73814005D01*
X98957275Y-73687404D01*
X99013270Y-73643756D01*
X99083973Y-73637310D01*
X99146938Y-73670113D01*
X99167031Y-73695096D01*
X99187205Y-73728017D01*
X99193286Y-73736326D01*
X99338113Y-73903519D01*
X99345475Y-73910728D01*
X99515660Y-74052018D01*
X99524099Y-74057927D01*
X99715077Y-74169525D01*
X99724364Y-74173975D01*
X99931003Y-74252883D01*
X99940901Y-74255759D01*
X100058250Y-74279634D01*
X100072299Y-74278438D01*
X100076000Y-74268093D01*
X100076000Y-72770000D01*
X100096002Y-72701879D01*
X100149658Y-72655386D01*
X100202000Y-72644000D01*
X100458000Y-72644000D01*
X100526121Y-72664002D01*
X100572614Y-72717658D01*
X100584000Y-72770000D01*
X100584000Y-74266928D01*
X100588064Y-74280770D01*
X100601479Y-74282804D01*
X100618613Y-74280609D01*
X100628698Y-74278466D01*
X100840557Y-74214905D01*
X100850152Y-74211144D01*
X101048778Y-74113838D01*
X101057636Y-74108559D01*
X101237716Y-73980109D01*
X101245578Y-73973465D01*
X101402260Y-73817329D01*
X101408937Y-73809484D01*
X101496676Y-73687382D01*
X101552671Y-73643734D01*
X101623374Y-73637288D01*
X101686339Y-73670091D01*
X101706432Y-73695074D01*
X101726800Y-73728313D01*
X101726804Y-73728318D01*
X101729501Y-73732719D01*
X101881147Y-73907784D01*
X102059349Y-74055730D01*
X102259322Y-74172584D01*
X102475694Y-74255209D01*
X102480760Y-74256240D01*
X102480761Y-74256240D01*
X102533295Y-74266928D01*
X102702656Y-74301385D01*
X102833324Y-74306176D01*
X102928949Y-74309683D01*
X102928953Y-74309683D01*
X102934113Y-74309872D01*
X102939233Y-74309216D01*
X102939235Y-74309216D01*
X103012270Y-74299860D01*
X103163847Y-74280442D01*
X103168795Y-74278957D01*
X103168802Y-74278956D01*
X103380747Y-74215369D01*
X103385690Y-74213886D01*
X103467159Y-74173975D01*
X103589049Y-74114262D01*
X103589052Y-74114260D01*
X103593684Y-74111991D01*
X103782243Y-73977494D01*
X103946303Y-73814005D01*
X103949319Y-73809808D01*
X103949326Y-73809800D01*
X104036960Y-73687844D01*
X104092954Y-73644196D01*
X104163658Y-73637750D01*
X104226622Y-73670553D01*
X104246715Y-73695536D01*
X104266800Y-73728313D01*
X104266804Y-73728318D01*
X104269501Y-73732719D01*
X104421147Y-73907784D01*
X104599349Y-74055730D01*
X104799322Y-74172584D01*
X105015694Y-74255209D01*
X105020760Y-74256240D01*
X105020761Y-74256240D01*
X105073295Y-74266928D01*
X105242656Y-74301385D01*
X105373324Y-74306176D01*
X105468949Y-74309683D01*
X105468953Y-74309683D01*
X105474113Y-74309872D01*
X105479233Y-74309216D01*
X105479235Y-74309216D01*
X105552270Y-74299860D01*
X105703847Y-74280442D01*
X105708795Y-74278957D01*
X105708802Y-74278956D01*
X105920747Y-74215369D01*
X105925690Y-74213886D01*
X106007159Y-74173975D01*
X106129049Y-74114262D01*
X106129052Y-74114260D01*
X106133684Y-74111991D01*
X106322243Y-73977494D01*
X106486303Y-73814005D01*
X106489319Y-73809808D01*
X106489326Y-73809800D01*
X106576960Y-73687844D01*
X106632954Y-73644196D01*
X106703658Y-73637750D01*
X106766622Y-73670553D01*
X106786715Y-73695536D01*
X106806800Y-73728313D01*
X106806804Y-73728318D01*
X106809501Y-73732719D01*
X106961147Y-73907784D01*
X107139349Y-74055730D01*
X107339322Y-74172584D01*
X107555694Y-74255209D01*
X107560760Y-74256240D01*
X107560761Y-74256240D01*
X107613295Y-74266928D01*
X107782656Y-74301385D01*
X107913324Y-74306176D01*
X108008949Y-74309683D01*
X108008953Y-74309683D01*
X108014113Y-74309872D01*
X108019233Y-74309216D01*
X108019235Y-74309216D01*
X108092270Y-74299860D01*
X108243847Y-74280442D01*
X108248795Y-74278957D01*
X108248802Y-74278956D01*
X108460747Y-74215369D01*
X108465690Y-74213886D01*
X108547159Y-74173975D01*
X108669049Y-74114262D01*
X108669052Y-74114260D01*
X108673684Y-74111991D01*
X108862243Y-73977494D01*
X109026303Y-73814005D01*
X109161458Y-73625917D01*
X109208641Y-73530450D01*
X109261784Y-73422922D01*
X109261785Y-73422920D01*
X109264078Y-73418280D01*
X109331408Y-73196671D01*
X109335450Y-73165966D01*
X111647000Y-73165966D01*
X111680685Y-73315439D01*
X111683773Y-73325292D01*
X111766989Y-73530226D01*
X111771629Y-73539413D01*
X111887208Y-73728022D01*
X111893286Y-73736326D01*
X112038113Y-73903519D01*
X112045475Y-73910728D01*
X112215660Y-74052018D01*
X112224099Y-74057927D01*
X112415077Y-74169525D01*
X112424364Y-74173975D01*
X112631003Y-74252883D01*
X112640901Y-74255759D01*
X112758250Y-74279634D01*
X112772299Y-74278438D01*
X112776000Y-74268093D01*
X112776000Y-73170115D01*
X112771525Y-73154876D01*
X112770135Y-73153671D01*
X112762452Y-73152000D01*
X111661968Y-73152000D01*
X111648437Y-73155973D01*
X111647000Y-73165966D01*
X109335450Y-73165966D01*
X109361640Y-72967041D01*
X109363327Y-72898000D01*
X109357032Y-72821434D01*
X109344773Y-72672318D01*
X109344772Y-72672312D01*
X109344349Y-72667167D01*
X109309403Y-72528039D01*
X109289184Y-72447544D01*
X109289183Y-72447540D01*
X109287925Y-72442533D01*
X109271805Y-72405459D01*
X109197630Y-72234868D01*
X109197628Y-72234865D01*
X109195570Y-72230131D01*
X109069764Y-72035665D01*
X108913887Y-71864358D01*
X108909836Y-71861159D01*
X108909832Y-71861155D01*
X108737077Y-71724722D01*
X108696014Y-71666805D01*
X108692782Y-71595882D01*
X108728407Y-71534470D01*
X108742001Y-71523261D01*
X108862243Y-71437494D01*
X109026303Y-71274005D01*
X109044076Y-71249272D01*
X109101099Y-71169915D01*
X109161458Y-71085917D01*
X109173296Y-71061965D01*
X109221409Y-71009760D01*
X109282295Y-70991856D01*
X109293803Y-70991495D01*
X109312282Y-70990914D01*
X109312283Y-70990914D01*
X109320205Y-70990665D01*
X109339749Y-70984987D01*
X109359112Y-70980977D01*
X109371440Y-70979420D01*
X109371442Y-70979420D01*
X109379299Y-70978427D01*
X109386663Y-70975511D01*
X109386668Y-70975510D01*
X109420556Y-70962093D01*
X109431785Y-70958248D01*
X109448465Y-70953402D01*
X109474393Y-70945869D01*
X109481220Y-70941831D01*
X109481223Y-70941830D01*
X109491906Y-70935512D01*
X109509664Y-70926812D01*
X109521215Y-70922239D01*
X109521221Y-70922235D01*
X109528588Y-70919319D01*
X109564491Y-70893234D01*
X109574410Y-70886719D01*
X109605768Y-70868174D01*
X109605772Y-70868171D01*
X109612598Y-70864134D01*
X109626982Y-70849750D01*
X109642016Y-70836909D01*
X109652073Y-70829602D01*
X109658487Y-70824942D01*
X109686773Y-70790750D01*
X109694763Y-70781969D01*
X110629488Y-69847245D01*
X110637807Y-69839675D01*
X110644303Y-69835553D01*
X110691086Y-69785734D01*
X110693840Y-69782893D01*
X110713639Y-69763094D01*
X110716063Y-69759969D01*
X110716071Y-69759960D01*
X110716137Y-69759874D01*
X110723845Y-69750849D01*
X110748790Y-69724285D01*
X110754217Y-69718506D01*
X110764023Y-69700669D01*
X110774873Y-69684153D01*
X110787350Y-69668067D01*
X110804976Y-69627334D01*
X110810193Y-69616686D01*
X110827749Y-69584751D01*
X110831569Y-69577803D01*
X110833540Y-69570128D01*
X110833542Y-69570122D01*
X110836631Y-69558089D01*
X110843034Y-69539387D01*
X110851117Y-69520708D01*
X110858060Y-69476873D01*
X110860467Y-69465251D01*
X110860576Y-69464827D01*
X110871500Y-69422282D01*
X110871500Y-69401935D01*
X110873051Y-69382224D01*
X110874995Y-69369950D01*
X110876235Y-69362121D01*
X110872431Y-69321879D01*
X110872059Y-69317944D01*
X110871500Y-69306086D01*
X110871500Y-69194969D01*
X110891502Y-69126848D01*
X110903858Y-69110665D01*
X110928591Y-69083197D01*
X110940145Y-69063185D01*
X110991525Y-69014194D01*
X111061238Y-69000756D01*
X111127150Y-69027142D01*
X111138358Y-69037091D01*
X111726183Y-69624916D01*
X111760209Y-69687228D01*
X111755144Y-69758043D01*
X111751376Y-69767061D01*
X111703602Y-69869981D01*
X111641707Y-70093169D01*
X111617095Y-70323469D01*
X111617392Y-70328622D01*
X111617392Y-70328625D01*
X111623067Y-70427041D01*
X111630427Y-70554697D01*
X111631564Y-70559743D01*
X111631565Y-70559749D01*
X111656185Y-70668993D01*
X111681346Y-70780642D01*
X111683288Y-70785424D01*
X111683289Y-70785428D01*
X111763198Y-70982220D01*
X111768484Y-70995237D01*
X111889501Y-71192719D01*
X112041147Y-71367784D01*
X112219349Y-71515730D01*
X112223816Y-71518340D01*
X112227974Y-71520770D01*
X112276698Y-71572408D01*
X112289769Y-71642191D01*
X112263038Y-71707963D01*
X112240057Y-71730318D01*
X112096123Y-71838386D01*
X112088416Y-71845229D01*
X111935600Y-72005143D01*
X111929113Y-72013153D01*
X111804474Y-72195867D01*
X111799376Y-72204841D01*
X111706252Y-72405459D01*
X111702689Y-72415146D01*
X111643581Y-72628279D01*
X111643484Y-72628788D01*
X111645625Y-72640609D01*
X111658001Y-72644000D01*
X113158000Y-72644000D01*
X113226121Y-72664002D01*
X113272614Y-72717658D01*
X113284000Y-72770000D01*
X113284000Y-74266928D01*
X113288064Y-74280770D01*
X113301479Y-74282804D01*
X113318613Y-74280609D01*
X113328698Y-74278466D01*
X113540557Y-74214905D01*
X113550152Y-74211144D01*
X113748778Y-74113838D01*
X113757636Y-74108559D01*
X113937716Y-73980109D01*
X113945578Y-73973465D01*
X114102260Y-73817329D01*
X114108937Y-73809484D01*
X114196676Y-73687382D01*
X114252671Y-73643734D01*
X114323374Y-73637288D01*
X114386339Y-73670091D01*
X114406432Y-73695074D01*
X114426800Y-73728313D01*
X114426804Y-73728318D01*
X114429501Y-73732719D01*
X114581147Y-73907784D01*
X114759349Y-74055730D01*
X114959322Y-74172584D01*
X115175694Y-74255209D01*
X115180760Y-74256240D01*
X115180761Y-74256240D01*
X115233295Y-74266928D01*
X115402656Y-74301385D01*
X115533324Y-74306176D01*
X115628949Y-74309683D01*
X115628953Y-74309683D01*
X115634113Y-74309872D01*
X115639233Y-74309216D01*
X115639235Y-74309216D01*
X115712270Y-74299860D01*
X115863847Y-74280442D01*
X115868795Y-74278957D01*
X115868802Y-74278956D01*
X116080747Y-74215369D01*
X116085690Y-74213886D01*
X116167159Y-74173975D01*
X116289049Y-74114262D01*
X116289052Y-74114260D01*
X116293684Y-74111991D01*
X116482243Y-73977494D01*
X116646303Y-73814005D01*
X116649319Y-73809808D01*
X116649326Y-73809800D01*
X116736960Y-73687844D01*
X116792954Y-73644196D01*
X116863658Y-73637750D01*
X116926622Y-73670553D01*
X116946715Y-73695536D01*
X116966800Y-73728313D01*
X116966804Y-73728318D01*
X116969501Y-73732719D01*
X117121147Y-73907784D01*
X117299349Y-74055730D01*
X117499322Y-74172584D01*
X117715694Y-74255209D01*
X117720760Y-74256240D01*
X117720761Y-74256240D01*
X117773295Y-74266928D01*
X117942656Y-74301385D01*
X118073324Y-74306176D01*
X118168949Y-74309683D01*
X118168953Y-74309683D01*
X118174113Y-74309872D01*
X118179233Y-74309216D01*
X118179235Y-74309216D01*
X118252270Y-74299860D01*
X118403847Y-74280442D01*
X118408795Y-74278957D01*
X118408802Y-74278956D01*
X118620747Y-74215369D01*
X118625690Y-74213886D01*
X118707159Y-74173975D01*
X118829049Y-74114262D01*
X118829052Y-74114260D01*
X118833684Y-74111991D01*
X119022243Y-73977494D01*
X119186303Y-73814005D01*
X119321458Y-73625917D01*
X119368641Y-73530450D01*
X119421784Y-73422922D01*
X119421785Y-73422920D01*
X119424078Y-73418280D01*
X119491408Y-73196671D01*
X119521640Y-72967041D01*
X119523327Y-72898000D01*
X119517032Y-72821434D01*
X119504773Y-72672318D01*
X119504772Y-72672312D01*
X119504349Y-72667167D01*
X119469403Y-72528039D01*
X119449184Y-72447544D01*
X119449183Y-72447540D01*
X119447925Y-72442533D01*
X119431805Y-72405459D01*
X119357630Y-72234868D01*
X119357628Y-72234865D01*
X119355570Y-72230131D01*
X119229764Y-72035665D01*
X119073887Y-71864358D01*
X119069836Y-71861159D01*
X119069832Y-71861155D01*
X118897077Y-71724722D01*
X118856014Y-71666805D01*
X118852782Y-71595882D01*
X118888407Y-71534470D01*
X118902001Y-71523261D01*
X119022243Y-71437494D01*
X119186303Y-71274005D01*
X119204076Y-71249272D01*
X119261099Y-71169915D01*
X119321458Y-71085917D01*
X119333296Y-71061966D01*
X119421784Y-70882922D01*
X119421785Y-70882920D01*
X119424078Y-70878280D01*
X119491408Y-70656671D01*
X119521640Y-70427041D01*
X119523327Y-70358000D01*
X119517032Y-70281434D01*
X119504773Y-70132318D01*
X119504772Y-70132312D01*
X119504349Y-70127167D01*
X119447925Y-69902533D01*
X119435934Y-69874955D01*
X119357630Y-69694868D01*
X119357628Y-69694865D01*
X119355570Y-69690131D01*
X119229764Y-69495665D01*
X119207333Y-69471013D01*
X119180134Y-69441122D01*
X119073887Y-69324358D01*
X119069836Y-69321159D01*
X119069832Y-69321155D01*
X118897077Y-69184722D01*
X118856014Y-69126805D01*
X118852782Y-69055882D01*
X118888407Y-68994470D01*
X118902001Y-68983261D01*
X118917172Y-68972440D01*
X119022243Y-68897494D01*
X119186303Y-68734005D01*
X119321458Y-68545917D01*
X119323875Y-68541028D01*
X119421784Y-68342922D01*
X119421785Y-68342920D01*
X119424078Y-68338280D01*
X119491408Y-68116671D01*
X119521640Y-67887041D01*
X119522081Y-67868991D01*
X119523245Y-67821365D01*
X119523245Y-67821361D01*
X119523327Y-67818000D01*
X119516538Y-67735427D01*
X119504773Y-67592318D01*
X119504772Y-67592312D01*
X119504349Y-67587167D01*
X119452245Y-67379730D01*
X119449184Y-67367544D01*
X119449183Y-67367540D01*
X119447925Y-67362533D01*
X119445734Y-67357494D01*
X119357630Y-67154868D01*
X119357628Y-67154865D01*
X119355570Y-67150131D01*
X119229764Y-66955665D01*
X119226282Y-66951838D01*
X119223129Y-66947744D01*
X119224899Y-66946381D01*
X119197983Y-66890964D01*
X119206414Y-66820470D01*
X119251620Y-66765725D01*
X119301551Y-66745785D01*
X119613115Y-66693926D01*
X119620479Y-66692240D01*
X119932315Y-66600757D01*
X119939424Y-66598198D01*
X120238003Y-66469919D01*
X120244770Y-66466515D01*
X120525764Y-66303301D01*
X120532071Y-66299111D01*
X120750005Y-66134588D01*
X120758461Y-66123197D01*
X120751743Y-66110953D01*
X116890864Y-62250074D01*
X116877929Y-62243011D01*
X116867367Y-62250671D01*
X116741785Y-62408268D01*
X116737428Y-62414467D01*
X116566913Y-62691094D01*
X116563333Y-62697770D01*
X116427287Y-62992878D01*
X116424537Y-62999929D01*
X116324927Y-63309251D01*
X116323044Y-63316584D01*
X116261316Y-63635632D01*
X116260329Y-63643132D01*
X116237378Y-63967277D01*
X116237259Y-63978652D01*
X116236208Y-63978641D01*
X116220682Y-64043261D01*
X116169407Y-64092367D01*
X116099723Y-64105957D01*
X116033754Y-64079715D01*
X116022329Y-64069596D01*
X113613828Y-61661095D01*
X113579802Y-61598783D01*
X113584867Y-61527968D01*
X113627414Y-61471132D01*
X113693934Y-61446321D01*
X113702923Y-61446000D01*
X117440435Y-61446000D01*
X117508556Y-61466002D01*
X117555049Y-61519658D01*
X117565153Y-61589932D01*
X117535659Y-61654512D01*
X117504858Y-61680285D01*
X117450196Y-61712805D01*
X117443945Y-61717053D01*
X117250733Y-61866115D01*
X117242267Y-61877773D01*
X117248871Y-61889661D01*
X118987188Y-63627978D01*
X119001132Y-63635592D01*
X119002965Y-63635461D01*
X119009580Y-63631210D01*
X120750162Y-61890628D01*
X120757174Y-61877787D01*
X120749379Y-61867098D01*
X120579886Y-61733481D01*
X120573663Y-61729156D01*
X120492326Y-61679605D01*
X120444557Y-61627082D01*
X120432767Y-61557071D01*
X120460699Y-61491800D01*
X120519485Y-61451992D01*
X120557879Y-61446000D01*
X121361000Y-61446000D01*
X121429121Y-61466002D01*
X121475614Y-61519658D01*
X121487000Y-61572000D01*
X121487000Y-62337698D01*
X121466998Y-62405819D01*
X121413342Y-62452312D01*
X121343068Y-62462416D01*
X121278488Y-62432922D01*
X121261643Y-62415184D01*
X121133617Y-62251022D01*
X121121823Y-62242551D01*
X121110113Y-62249097D01*
X119372022Y-63987188D01*
X119364408Y-64001132D01*
X119364539Y-64002965D01*
X119368790Y-64009580D01*
X121108825Y-65749615D01*
X121121948Y-65756781D01*
X121132250Y-65749391D01*
X121241429Y-65615285D01*
X121245840Y-65609146D01*
X121252194Y-65599076D01*
X121305461Y-65552139D01*
X121375649Y-65541451D01*
X121440473Y-65570406D01*
X121479352Y-65629811D01*
X121484754Y-65666613D01*
X121434750Y-86304307D01*
X121414584Y-86372377D01*
X121360815Y-86418740D01*
X121308751Y-86430000D01*
X117422231Y-86430000D01*
X117354110Y-86409998D01*
X117307617Y-86356342D01*
X117297513Y-86286068D01*
X117327007Y-86221488D01*
X117366799Y-86190848D01*
X117519049Y-86116262D01*
X117519052Y-86116260D01*
X117523684Y-86113991D01*
X117712243Y-85979494D01*
X117876303Y-85816005D01*
X118011458Y-85627917D01*
X118058641Y-85532450D01*
X118111784Y-85424922D01*
X118111785Y-85424920D01*
X118114078Y-85420280D01*
X118181408Y-85198671D01*
X118211640Y-84969041D01*
X118213327Y-84900000D01*
X118198129Y-84715139D01*
X118194773Y-84674318D01*
X118194772Y-84674312D01*
X118194349Y-84669167D01*
X118144477Y-84470616D01*
X118139184Y-84449544D01*
X118139183Y-84449540D01*
X118137925Y-84444533D01*
X118128315Y-84422432D01*
X118047630Y-84236868D01*
X118047628Y-84236865D01*
X118045570Y-84232131D01*
X117919764Y-84037665D01*
X117763887Y-83866358D01*
X117759836Y-83863159D01*
X117759832Y-83863155D01*
X117587077Y-83726722D01*
X117546014Y-83668805D01*
X117542782Y-83597882D01*
X117578407Y-83536470D01*
X117592001Y-83525261D01*
X117628815Y-83499002D01*
X117712243Y-83439494D01*
X117876303Y-83276005D01*
X118011458Y-83087917D01*
X118019990Y-83070655D01*
X118111784Y-82884922D01*
X118111785Y-82884920D01*
X118114078Y-82880280D01*
X118181408Y-82658671D01*
X118211640Y-82429041D01*
X118212487Y-82394369D01*
X118213245Y-82363365D01*
X118213245Y-82363361D01*
X118213327Y-82360000D01*
X118204365Y-82250992D01*
X118194773Y-82134318D01*
X118194772Y-82134312D01*
X118194349Y-82129167D01*
X118137925Y-81904533D01*
X118135866Y-81899797D01*
X118047630Y-81696868D01*
X118047628Y-81696865D01*
X118045570Y-81692131D01*
X117919764Y-81497665D01*
X117763887Y-81326358D01*
X117759836Y-81323159D01*
X117759832Y-81323155D01*
X117587077Y-81186722D01*
X117546014Y-81128805D01*
X117542782Y-81057882D01*
X117578407Y-80996470D01*
X117592001Y-80985261D01*
X117602712Y-80977621D01*
X117712243Y-80899494D01*
X117876303Y-80736005D01*
X118011458Y-80547917D01*
X118025045Y-80520427D01*
X118111784Y-80344922D01*
X118111785Y-80344920D01*
X118114078Y-80340280D01*
X118181408Y-80118671D01*
X118211640Y-79889041D01*
X118213327Y-79820000D01*
X118204104Y-79707819D01*
X118194773Y-79594318D01*
X118194772Y-79594312D01*
X118194349Y-79589167D01*
X118162152Y-79460984D01*
X118139184Y-79369544D01*
X118139183Y-79369540D01*
X118137925Y-79364533D01*
X118135392Y-79358708D01*
X118047630Y-79156868D01*
X118047628Y-79156865D01*
X118045570Y-79152131D01*
X117919764Y-78957665D01*
X117763887Y-78786358D01*
X117759836Y-78783159D01*
X117759832Y-78783155D01*
X117587077Y-78646722D01*
X117546014Y-78588805D01*
X117542782Y-78517882D01*
X117578407Y-78456470D01*
X117592001Y-78445261D01*
X117595872Y-78442500D01*
X117712243Y-78359494D01*
X117876303Y-78196005D01*
X118011458Y-78007917D01*
X118021029Y-77988553D01*
X118111784Y-77804922D01*
X118111785Y-77804920D01*
X118114078Y-77800280D01*
X118181408Y-77578671D01*
X118211640Y-77349041D01*
X118213327Y-77280000D01*
X118203655Y-77162352D01*
X118194773Y-77054318D01*
X118194772Y-77054312D01*
X118194349Y-77049167D01*
X118145838Y-76856035D01*
X118139184Y-76829544D01*
X118139183Y-76829540D01*
X118137925Y-76824533D01*
X118135866Y-76819797D01*
X118047630Y-76616868D01*
X118047628Y-76616865D01*
X118045570Y-76612131D01*
X117919764Y-76417665D01*
X117763887Y-76246358D01*
X117759836Y-76243159D01*
X117759832Y-76243155D01*
X117586177Y-76106011D01*
X117586172Y-76106008D01*
X117582123Y-76102810D01*
X117577607Y-76100317D01*
X117577604Y-76100315D01*
X117383879Y-75993373D01*
X117383875Y-75993371D01*
X117379355Y-75990876D01*
X117374486Y-75989152D01*
X117374482Y-75989150D01*
X117165903Y-75915288D01*
X117165899Y-75915287D01*
X117161028Y-75913562D01*
X117155935Y-75912655D01*
X117155932Y-75912654D01*
X116938095Y-75873851D01*
X116938089Y-75873850D01*
X116933006Y-75872945D01*
X116860096Y-75872054D01*
X116706581Y-75870179D01*
X116706579Y-75870179D01*
X116701411Y-75870116D01*
X116472464Y-75905150D01*
X116252314Y-75977106D01*
X116247726Y-75979494D01*
X116247722Y-75979496D01*
X116138574Y-76036315D01*
X116046872Y-76084052D01*
X116042739Y-76087155D01*
X116042736Y-76087157D01*
X115910849Y-76186181D01*
X115861655Y-76223117D01*
X115701639Y-76390564D01*
X115698725Y-76394836D01*
X115698724Y-76394837D01*
X115641693Y-76478442D01*
X115571119Y-76581899D01*
X115571089Y-76581879D01*
X115521219Y-76630092D01*
X115462710Y-76644500D01*
X114029032Y-76644500D01*
X114017793Y-76643970D01*
X114010281Y-76642291D01*
X114002356Y-76642540D01*
X114002355Y-76642540D01*
X113941970Y-76644438D01*
X113938012Y-76644500D01*
X113910017Y-76644500D01*
X113906083Y-76644997D01*
X113906081Y-76644997D01*
X113905994Y-76645008D01*
X113894160Y-76645940D01*
X113849795Y-76647335D01*
X113842182Y-76649547D01*
X113842181Y-76649547D01*
X113830252Y-76653013D01*
X113810888Y-76657023D01*
X113798560Y-76658580D01*
X113798558Y-76658580D01*
X113790701Y-76659573D01*
X113783337Y-76662489D01*
X113783332Y-76662490D01*
X113749444Y-76675907D01*
X113738215Y-76679752D01*
X113721535Y-76684598D01*
X113695607Y-76692131D01*
X113688780Y-76696169D01*
X113688777Y-76696170D01*
X113678094Y-76702488D01*
X113660336Y-76711188D01*
X113648785Y-76715761D01*
X113648779Y-76715765D01*
X113641412Y-76718681D01*
X113635001Y-76723339D01*
X113634999Y-76723340D01*
X113605512Y-76744764D01*
X113595590Y-76751281D01*
X113564232Y-76769826D01*
X113564228Y-76769829D01*
X113557402Y-76773866D01*
X113543018Y-76788250D01*
X113527984Y-76801091D01*
X113511513Y-76813058D01*
X113506460Y-76819166D01*
X113483223Y-76847255D01*
X113475233Y-76856035D01*
X113350000Y-76981268D01*
X113287688Y-77015294D01*
X113216873Y-77010229D01*
X113160037Y-76967682D01*
X113138701Y-76922869D01*
X113099183Y-76765541D01*
X113099183Y-76765540D01*
X113097925Y-76760533D01*
X113093902Y-76751281D01*
X113007630Y-76552868D01*
X113007628Y-76552865D01*
X113005570Y-76548131D01*
X112879764Y-76353665D01*
X112723887Y-76182358D01*
X112719836Y-76179159D01*
X112719832Y-76179155D01*
X112546177Y-76042011D01*
X112546172Y-76042008D01*
X112542123Y-76038810D01*
X112537607Y-76036317D01*
X112537604Y-76036315D01*
X112343879Y-75929373D01*
X112343875Y-75929371D01*
X112339355Y-75926876D01*
X112334486Y-75925152D01*
X112334482Y-75925150D01*
X112125903Y-75851288D01*
X112125899Y-75851287D01*
X112121028Y-75849562D01*
X112115935Y-75848655D01*
X112115932Y-75848654D01*
X111898095Y-75809851D01*
X111898089Y-75809850D01*
X111893006Y-75808945D01*
X111820096Y-75808054D01*
X111666581Y-75806179D01*
X111666579Y-75806179D01*
X111661411Y-75806116D01*
X111432464Y-75841150D01*
X111212314Y-75913106D01*
X111207726Y-75915494D01*
X111207722Y-75915496D01*
X111058122Y-75993373D01*
X111006872Y-76020052D01*
X111002739Y-76023155D01*
X111002736Y-76023157D01*
X110892385Y-76106011D01*
X110821655Y-76159117D01*
X110661639Y-76326564D01*
X110594306Y-76425271D01*
X110539397Y-76470271D01*
X110468872Y-76478442D01*
X110405125Y-76447188D01*
X110384428Y-76422705D01*
X110381168Y-76417665D01*
X110339764Y-76353665D01*
X110183887Y-76182358D01*
X110179836Y-76179159D01*
X110179832Y-76179155D01*
X110006177Y-76042011D01*
X110006172Y-76042008D01*
X110002123Y-76038810D01*
X109997607Y-76036317D01*
X109997604Y-76036315D01*
X109803879Y-75929373D01*
X109803875Y-75929371D01*
X109799355Y-75926876D01*
X109794486Y-75925152D01*
X109794482Y-75925150D01*
X109585903Y-75851288D01*
X109585899Y-75851287D01*
X109581028Y-75849562D01*
X109575935Y-75848655D01*
X109575932Y-75848654D01*
X109358095Y-75809851D01*
X109358089Y-75809850D01*
X109353006Y-75808945D01*
X109280096Y-75808054D01*
X109126581Y-75806179D01*
X109126579Y-75806179D01*
X109121411Y-75806116D01*
X108892464Y-75841150D01*
X108672314Y-75913106D01*
X108667726Y-75915494D01*
X108667722Y-75915496D01*
X108518122Y-75993373D01*
X108466872Y-76020052D01*
X108462739Y-76023155D01*
X108462736Y-76023157D01*
X108352385Y-76106011D01*
X108281655Y-76159117D01*
X108121639Y-76326564D01*
X108054306Y-76425271D01*
X107999397Y-76470271D01*
X107928872Y-76478442D01*
X107865125Y-76447188D01*
X107844428Y-76422705D01*
X107841168Y-76417665D01*
X107799764Y-76353665D01*
X107643887Y-76182358D01*
X107639836Y-76179159D01*
X107639832Y-76179155D01*
X107466177Y-76042011D01*
X107466172Y-76042008D01*
X107462123Y-76038810D01*
X107457607Y-76036317D01*
X107457604Y-76036315D01*
X107263879Y-75929373D01*
X107263875Y-75929371D01*
X107259355Y-75926876D01*
X107254486Y-75925152D01*
X107254482Y-75925150D01*
X107045903Y-75851288D01*
X107045899Y-75851287D01*
X107041028Y-75849562D01*
X107035935Y-75848655D01*
X107035932Y-75848654D01*
X106818095Y-75809851D01*
X106818089Y-75809850D01*
X106813006Y-75808945D01*
X106740096Y-75808054D01*
X106586581Y-75806179D01*
X106586579Y-75806179D01*
X106581411Y-75806116D01*
X106352464Y-75841150D01*
X106132314Y-75913106D01*
X106127726Y-75915494D01*
X106127722Y-75915496D01*
X105978122Y-75993373D01*
X105926872Y-76020052D01*
X105922739Y-76023155D01*
X105922736Y-76023157D01*
X105812385Y-76106011D01*
X105741655Y-76159117D01*
X105581639Y-76326564D01*
X105514306Y-76425271D01*
X105459397Y-76470271D01*
X105388872Y-76478442D01*
X105325125Y-76447188D01*
X105304428Y-76422705D01*
X105301168Y-76417665D01*
X105259764Y-76353665D01*
X105103887Y-76182358D01*
X105099836Y-76179159D01*
X105099832Y-76179155D01*
X104926177Y-76042011D01*
X104926172Y-76042008D01*
X104922123Y-76038810D01*
X104917607Y-76036317D01*
X104917604Y-76036315D01*
X104723879Y-75929373D01*
X104723875Y-75929371D01*
X104719355Y-75926876D01*
X104714486Y-75925152D01*
X104714482Y-75925150D01*
X104505903Y-75851288D01*
X104505899Y-75851287D01*
X104501028Y-75849562D01*
X104495935Y-75848655D01*
X104495932Y-75848654D01*
X104278095Y-75809851D01*
X104278089Y-75809850D01*
X104273006Y-75808945D01*
X104200096Y-75808054D01*
X104046581Y-75806179D01*
X104046579Y-75806179D01*
X104041411Y-75806116D01*
X103812464Y-75841150D01*
X103592314Y-75913106D01*
X103587726Y-75915494D01*
X103587722Y-75915496D01*
X103438122Y-75993373D01*
X103386872Y-76020052D01*
X103382739Y-76023155D01*
X103382736Y-76023157D01*
X103272385Y-76106011D01*
X103201655Y-76159117D01*
X103041639Y-76326564D01*
X102974306Y-76425271D01*
X102919397Y-76470271D01*
X102848872Y-76478442D01*
X102785125Y-76447188D01*
X102764428Y-76422705D01*
X102761168Y-76417665D01*
X102719764Y-76353665D01*
X102563887Y-76182358D01*
X102559836Y-76179159D01*
X102559832Y-76179155D01*
X102386177Y-76042011D01*
X102386172Y-76042008D01*
X102382123Y-76038810D01*
X102377607Y-76036317D01*
X102377604Y-76036315D01*
X102183879Y-75929373D01*
X102183875Y-75929371D01*
X102179355Y-75926876D01*
X102174486Y-75925152D01*
X102174482Y-75925150D01*
X101965903Y-75851288D01*
X101965899Y-75851287D01*
X101961028Y-75849562D01*
X101955935Y-75848655D01*
X101955932Y-75848654D01*
X101738095Y-75809851D01*
X101738089Y-75809850D01*
X101733006Y-75808945D01*
X101660096Y-75808054D01*
X101506581Y-75806179D01*
X101506579Y-75806179D01*
X101501411Y-75806116D01*
X101272464Y-75841150D01*
X101052314Y-75913106D01*
X101047726Y-75915494D01*
X101047722Y-75915496D01*
X100898122Y-75993373D01*
X100846872Y-76020052D01*
X100842739Y-76023155D01*
X100842736Y-76023157D01*
X100732385Y-76106011D01*
X100661655Y-76159117D01*
X100501639Y-76326564D01*
X100434306Y-76425271D01*
X100379397Y-76470271D01*
X100308872Y-76478442D01*
X100245125Y-76447188D01*
X100224428Y-76422705D01*
X100221168Y-76417665D01*
X100179764Y-76353665D01*
X100023887Y-76182358D01*
X100019836Y-76179159D01*
X100019832Y-76179155D01*
X99846177Y-76042011D01*
X99846172Y-76042008D01*
X99842123Y-76038810D01*
X99837607Y-76036317D01*
X99837604Y-76036315D01*
X99643879Y-75929373D01*
X99643875Y-75929371D01*
X99639355Y-75926876D01*
X99634486Y-75925152D01*
X99634482Y-75925150D01*
X99425903Y-75851288D01*
X99425899Y-75851287D01*
X99421028Y-75849562D01*
X99415935Y-75848655D01*
X99415932Y-75848654D01*
X99198095Y-75809851D01*
X99198089Y-75809850D01*
X99193006Y-75808945D01*
X99120096Y-75808054D01*
X98966581Y-75806179D01*
X98966579Y-75806179D01*
X98961411Y-75806116D01*
X98732464Y-75841150D01*
X98512314Y-75913106D01*
X98507726Y-75915494D01*
X98507722Y-75915496D01*
X98358122Y-75993373D01*
X98306872Y-76020052D01*
X98302739Y-76023155D01*
X98302736Y-76023157D01*
X98192385Y-76106011D01*
X98121655Y-76159117D01*
X97961639Y-76326564D01*
X97894306Y-76425271D01*
X97839397Y-76470271D01*
X97768872Y-76478442D01*
X97705125Y-76447188D01*
X97684428Y-76422705D01*
X97681168Y-76417665D01*
X97639764Y-76353665D01*
X97483887Y-76182358D01*
X97479836Y-76179159D01*
X97479832Y-76179155D01*
X97306177Y-76042011D01*
X97306172Y-76042008D01*
X97302123Y-76038810D01*
X97297607Y-76036317D01*
X97297604Y-76036315D01*
X97103879Y-75929373D01*
X97103875Y-75929371D01*
X97099355Y-75926876D01*
X97094486Y-75925152D01*
X97094482Y-75925150D01*
X96885903Y-75851288D01*
X96885899Y-75851287D01*
X96881028Y-75849562D01*
X96875935Y-75848655D01*
X96875932Y-75848654D01*
X96658095Y-75809851D01*
X96658089Y-75809850D01*
X96653006Y-75808945D01*
X96580096Y-75808054D01*
X96426581Y-75806179D01*
X96426579Y-75806179D01*
X96421411Y-75806116D01*
X96192464Y-75841150D01*
X95972314Y-75913106D01*
X95967726Y-75915494D01*
X95967722Y-75915496D01*
X95818122Y-75993373D01*
X95766872Y-76020052D01*
X95762739Y-76023155D01*
X95762736Y-76023157D01*
X95652385Y-76106011D01*
X95581655Y-76159117D01*
X95421639Y-76326564D01*
X95354306Y-76425271D01*
X95299397Y-76470271D01*
X95228872Y-76478442D01*
X95165125Y-76447188D01*
X95144428Y-76422705D01*
X95141168Y-76417665D01*
X95099764Y-76353665D01*
X94943887Y-76182358D01*
X94939836Y-76179159D01*
X94939832Y-76179155D01*
X94766177Y-76042011D01*
X94766172Y-76042008D01*
X94762123Y-76038810D01*
X94757607Y-76036317D01*
X94757604Y-76036315D01*
X94563879Y-75929373D01*
X94563875Y-75929371D01*
X94559355Y-75926876D01*
X94554486Y-75925152D01*
X94554482Y-75925150D01*
X94345903Y-75851288D01*
X94345899Y-75851287D01*
X94341028Y-75849562D01*
X94335935Y-75848655D01*
X94335932Y-75848654D01*
X94118095Y-75809851D01*
X94118089Y-75809850D01*
X94113006Y-75808945D01*
X94040096Y-75808054D01*
X93886581Y-75806179D01*
X93886579Y-75806179D01*
X93881411Y-75806116D01*
X93652464Y-75841150D01*
X93432314Y-75913106D01*
X93427726Y-75915494D01*
X93427722Y-75915496D01*
X93278122Y-75993373D01*
X93226872Y-76020052D01*
X93222739Y-76023155D01*
X93222736Y-76023157D01*
X93112385Y-76106011D01*
X93041655Y-76159117D01*
X92881639Y-76326564D01*
X92878730Y-76330829D01*
X92878724Y-76330837D01*
X92863152Y-76353665D01*
X92751119Y-76517899D01*
X92748945Y-76522582D01*
X92748939Y-76522593D01*
X92743287Y-76534770D01*
X92696462Y-76588136D01*
X92628219Y-76607716D01*
X92560224Y-76587292D01*
X92514064Y-76533349D01*
X92503000Y-76481718D01*
X92503000Y-65647024D01*
X92523002Y-65578903D01*
X92576658Y-65532410D01*
X92646932Y-65522306D01*
X92711512Y-65551800D01*
X92729163Y-65570582D01*
X92865792Y-65749608D01*
X92877316Y-65758069D01*
X92889382Y-65751408D01*
X94627978Y-64012812D01*
X94635592Y-63998868D01*
X94635461Y-63997035D01*
X94631210Y-63990420D01*
X92890864Y-62250074D01*
X92877929Y-62243011D01*
X92867367Y-62250671D01*
X92741785Y-62408268D01*
X92737427Y-62414469D01*
X92736261Y-62416360D01*
X92735816Y-62416760D01*
X92735245Y-62417573D01*
X92735059Y-62417442D01*
X92683489Y-62463855D01*
X92613418Y-62475279D01*
X92548294Y-62447006D01*
X92508793Y-62388012D01*
X92503000Y-62350246D01*
X92503000Y-61572000D01*
X92523002Y-61503879D01*
X92576658Y-61457386D01*
X92629000Y-61446000D01*
X93440435Y-61446000D01*
X93508556Y-61466002D01*
G37*
%TD.AperFunction*%
%TA.AperFunction,Conductor*%
G36*
X115534977Y-80475502D02*
G01*
X115574288Y-80515664D01*
X115659501Y-80654719D01*
X115662883Y-80658623D01*
X115669273Y-80666000D01*
X115698758Y-80730585D01*
X115688645Y-80800858D01*
X115642145Y-80854507D01*
X115574038Y-80874500D01*
X112658423Y-80874500D01*
X112590302Y-80854498D01*
X112543809Y-80800842D01*
X112533705Y-80730568D01*
X112563199Y-80665988D01*
X112569328Y-80659405D01*
X112736328Y-80492405D01*
X112798640Y-80458379D01*
X112825423Y-80455500D01*
X115466856Y-80455500D01*
X115534977Y-80475502D01*
G37*
%TD.AperFunction*%
%TA.AperFunction,Conductor*%
G36*
X115534977Y-77935502D02*
G01*
X115574288Y-77975664D01*
X115659501Y-78114719D01*
X115811147Y-78289784D01*
X115989349Y-78437730D01*
X115993819Y-78440342D01*
X115997511Y-78442500D01*
X116046232Y-78494140D01*
X116059301Y-78563924D01*
X116032566Y-78629694D01*
X116009589Y-78652045D01*
X115867542Y-78758697D01*
X115861655Y-78763117D01*
X115794081Y-78833829D01*
X115746224Y-78883909D01*
X115701639Y-78930564D01*
X115698725Y-78934836D01*
X115698724Y-78934837D01*
X115649724Y-79006668D01*
X115571119Y-79121899D01*
X115571089Y-79121879D01*
X115521219Y-79170092D01*
X115462710Y-79184500D01*
X113248423Y-79184500D01*
X113180302Y-79164498D01*
X113133809Y-79110842D01*
X113123705Y-79040568D01*
X113153199Y-78975988D01*
X113159328Y-78969405D01*
X114176328Y-77952405D01*
X114238640Y-77918379D01*
X114265423Y-77915500D01*
X115466856Y-77915500D01*
X115534977Y-77935502D01*
G37*
%TD.AperFunction*%
%TA.AperFunction,Conductor*%
G36*
X103975759Y-63393502D02*
G01*
X104022252Y-63447158D01*
X104032356Y-63517432D01*
X104002862Y-63582012D01*
X103981702Y-63601434D01*
X103948164Y-63625801D01*
X103943743Y-63630711D01*
X103943742Y-63630712D01*
X103899885Y-63679421D01*
X103828409Y-63758803D01*
X103807946Y-63794246D01*
X103750844Y-63893150D01*
X103738923Y-63913797D01*
X103683618Y-64084009D01*
X103682928Y-64090572D01*
X103682928Y-64090573D01*
X103676218Y-64154413D01*
X103664910Y-64262000D01*
X103683618Y-64439991D01*
X103738923Y-64610203D01*
X103742226Y-64615925D01*
X103742227Y-64615926D01*
X103748086Y-64626074D01*
X103828409Y-64765197D01*
X103832827Y-64770104D01*
X103832828Y-64770105D01*
X103843549Y-64782012D01*
X103948164Y-64898199D01*
X103953506Y-64902080D01*
X103953508Y-64902082D01*
X104085553Y-64998018D01*
X104092955Y-65003396D01*
X104098983Y-65006080D01*
X104098985Y-65006081D01*
X104250423Y-65073505D01*
X104256454Y-65076190D01*
X104381358Y-65102739D01*
X104425055Y-65112027D01*
X104431514Y-65113400D01*
X104434653Y-65113400D01*
X104499122Y-65139921D01*
X104509394Y-65149126D01*
X104835430Y-65475163D01*
X105158755Y-65798488D01*
X105166325Y-65806807D01*
X105170447Y-65813303D01*
X105176225Y-65818729D01*
X105176226Y-65818730D01*
X105220265Y-65860085D01*
X105223107Y-65862840D01*
X105242906Y-65882639D01*
X105246037Y-65885068D01*
X105246042Y-65885072D01*
X105246128Y-65885139D01*
X105255153Y-65892847D01*
X105281715Y-65917791D01*
X105281719Y-65917794D01*
X105287494Y-65923217D01*
X105294440Y-65927036D01*
X105294445Y-65927039D01*
X105305328Y-65933022D01*
X105321856Y-65943878D01*
X105331671Y-65951492D01*
X105331674Y-65951494D01*
X105337933Y-65956349D01*
X105345203Y-65959495D01*
X105345208Y-65959498D01*
X105378650Y-65973969D01*
X105389304Y-65979187D01*
X105425279Y-65998965D01*
X105475337Y-66049310D01*
X105490230Y-66118727D01*
X105485575Y-66144528D01*
X105473371Y-66186534D01*
X105472867Y-66192941D01*
X105472866Y-66192945D01*
X105470980Y-66216915D01*
X105470500Y-66223011D01*
X105470501Y-66622988D01*
X105473371Y-66659466D01*
X105479184Y-66679473D01*
X105509656Y-66784358D01*
X105516747Y-66808766D01*
X105516747Y-66808768D01*
X105518731Y-66815596D01*
X105517629Y-66815916D01*
X105525396Y-66878871D01*
X105494614Y-66942848D01*
X105475124Y-66960379D01*
X105448021Y-66980071D01*
X105345164Y-67054801D01*
X105340743Y-67059711D01*
X105340742Y-67059712D01*
X105285494Y-67121072D01*
X105225409Y-67187803D01*
X105135923Y-67342797D01*
X105080618Y-67513009D01*
X105079928Y-67519572D01*
X105079928Y-67519573D01*
X105071582Y-67598976D01*
X105044568Y-67664633D01*
X105035367Y-67674900D01*
X104930834Y-67779433D01*
X104868522Y-67813459D01*
X104835855Y-67815419D01*
X104835281Y-67815291D01*
X104782783Y-67816941D01*
X104766970Y-67817438D01*
X104763012Y-67817500D01*
X104735017Y-67817500D01*
X104731083Y-67817997D01*
X104731081Y-67817997D01*
X104730994Y-67818008D01*
X104719160Y-67818940D01*
X104674795Y-67820335D01*
X104667182Y-67822547D01*
X104667181Y-67822547D01*
X104655252Y-67826013D01*
X104635888Y-67830023D01*
X104623560Y-67831580D01*
X104623558Y-67831580D01*
X104615701Y-67832573D01*
X104608337Y-67835489D01*
X104608332Y-67835490D01*
X104574444Y-67848907D01*
X104563215Y-67852752D01*
X104546535Y-67857598D01*
X104520607Y-67865131D01*
X104513780Y-67869169D01*
X104513777Y-67869170D01*
X104503094Y-67875488D01*
X104485336Y-67884188D01*
X104473785Y-67888761D01*
X104473779Y-67888765D01*
X104466412Y-67891681D01*
X104460001Y-67896339D01*
X104459999Y-67896340D01*
X104430512Y-67917764D01*
X104420590Y-67924281D01*
X104389232Y-67942826D01*
X104389228Y-67942829D01*
X104382402Y-67946866D01*
X104368018Y-67961250D01*
X104352984Y-67974091D01*
X104336513Y-67986058D01*
X104331460Y-67992166D01*
X104308223Y-68020255D01*
X104300233Y-68029035D01*
X103366024Y-68963244D01*
X103303712Y-68997270D01*
X103241245Y-68993325D01*
X103240906Y-68994610D01*
X103235902Y-68993288D01*
X103231028Y-68991562D01*
X103225935Y-68990655D01*
X103225932Y-68990654D01*
X103008095Y-68951851D01*
X103008089Y-68951850D01*
X103003006Y-68950945D01*
X102924007Y-68949980D01*
X102776581Y-68948179D01*
X102776579Y-68948179D01*
X102771411Y-68948116D01*
X102542464Y-68983150D01*
X102322314Y-69055106D01*
X102317726Y-69057494D01*
X102317722Y-69057496D01*
X102121461Y-69159663D01*
X102116872Y-69162052D01*
X102112739Y-69165155D01*
X102112736Y-69165157D01*
X101943819Y-69291984D01*
X101931655Y-69301117D01*
X101771639Y-69468564D01*
X101768730Y-69472829D01*
X101768724Y-69472837D01*
X101753152Y-69495665D01*
X101641119Y-69659899D01*
X101543602Y-69869981D01*
X101481707Y-70093169D01*
X101457095Y-70323469D01*
X101457392Y-70328622D01*
X101457392Y-70328625D01*
X101463067Y-70427041D01*
X101470427Y-70554697D01*
X101471564Y-70559743D01*
X101471565Y-70559749D01*
X101496185Y-70668993D01*
X101521346Y-70780642D01*
X101523288Y-70785424D01*
X101523289Y-70785428D01*
X101603198Y-70982220D01*
X101608484Y-70995237D01*
X101729501Y-71192719D01*
X101881147Y-71367784D01*
X102059349Y-71515730D01*
X102063816Y-71518340D01*
X102063819Y-71518342D01*
X102067511Y-71520500D01*
X102116232Y-71572140D01*
X102129301Y-71641924D01*
X102102566Y-71707694D01*
X102079589Y-71730045D01*
X101931655Y-71841117D01*
X101771639Y-72008564D01*
X101768730Y-72012829D01*
X101768724Y-72012837D01*
X101704002Y-72107716D01*
X101649091Y-72152719D01*
X101578566Y-72160890D01*
X101514819Y-72129636D01*
X101494122Y-72105152D01*
X101452177Y-72040315D01*
X101445885Y-72032144D01*
X101297023Y-71868547D01*
X101289490Y-71861521D01*
X101115901Y-71724429D01*
X101107323Y-71718730D01*
X100913678Y-71611833D01*
X100904272Y-71607606D01*
X100695778Y-71533774D01*
X100681608Y-71530031D01*
X100620855Y-71493293D01*
X100589609Y-71429542D01*
X100597789Y-71359018D01*
X100615864Y-71328922D01*
X100623534Y-71319449D01*
X100627825Y-71314425D01*
X100668170Y-71269619D01*
X100668173Y-71269615D01*
X100672585Y-71264715D01*
X100675881Y-71259005D01*
X100675884Y-71259002D01*
X100679375Y-71252955D01*
X100690568Y-71236670D01*
X100694950Y-71231258D01*
X100699107Y-71226125D01*
X100729477Y-71166520D01*
X100732624Y-71160724D01*
X100740060Y-71147844D01*
X100766075Y-71102785D01*
X100770270Y-71089875D01*
X100777833Y-71071616D01*
X100783994Y-71059524D01*
X100801320Y-70994862D01*
X100803172Y-70988614D01*
X100823855Y-70924956D01*
X100825273Y-70911463D01*
X100828877Y-70892020D01*
X100830679Y-70885295D01*
X100830680Y-70885290D01*
X100832388Y-70878915D01*
X100834285Y-70842735D01*
X100835889Y-70812120D01*
X100836406Y-70805546D01*
X100838156Y-70788893D01*
X100838500Y-70785620D01*
X100838500Y-70765586D01*
X100838673Y-70758992D01*
X100841829Y-70698782D01*
X100841829Y-70698777D01*
X100842174Y-70692190D01*
X100840051Y-70678785D01*
X100838500Y-70659075D01*
X100838500Y-68238633D01*
X100858502Y-68170512D01*
X100875405Y-68149538D01*
X101042538Y-67982405D01*
X101104850Y-67948379D01*
X101131633Y-67945500D01*
X101145401Y-67945500D01*
X101213522Y-67965502D01*
X101254520Y-68008500D01*
X101285107Y-68061479D01*
X101285110Y-68061484D01*
X101288409Y-68067197D01*
X101408164Y-68200199D01*
X101413506Y-68204080D01*
X101413508Y-68204082D01*
X101544200Y-68299035D01*
X101552955Y-68305396D01*
X101558983Y-68308080D01*
X101558985Y-68308081D01*
X101626814Y-68338280D01*
X101716454Y-68378190D01*
X101798974Y-68395730D01*
X101885057Y-68414028D01*
X101885061Y-68414028D01*
X101891514Y-68415400D01*
X102070486Y-68415400D01*
X102076939Y-68414028D01*
X102076943Y-68414028D01*
X102163026Y-68395730D01*
X102245546Y-68378190D01*
X102324760Y-68342922D01*
X102337178Y-68337393D01*
X102388427Y-68326500D01*
X102589573Y-68326500D01*
X102640822Y-68337393D01*
X102653241Y-68342922D01*
X102732454Y-68378190D01*
X102814974Y-68395730D01*
X102901057Y-68414028D01*
X102901061Y-68414028D01*
X102907514Y-68415400D01*
X103086486Y-68415400D01*
X103092939Y-68414028D01*
X103092943Y-68414028D01*
X103179026Y-68395730D01*
X103261546Y-68378190D01*
X103351186Y-68338280D01*
X103419015Y-68308081D01*
X103419017Y-68308080D01*
X103425045Y-68305396D01*
X103433800Y-68299035D01*
X103564492Y-68204082D01*
X103564494Y-68204080D01*
X103569836Y-68200199D01*
X103689591Y-68067197D01*
X103755825Y-67952477D01*
X103775773Y-67917926D01*
X103775774Y-67917925D01*
X103779077Y-67912203D01*
X103810485Y-67815540D01*
X103832342Y-67748270D01*
X103832342Y-67748269D01*
X103834382Y-67741991D01*
X103839052Y-67697565D01*
X103852400Y-67570565D01*
X103853090Y-67564000D01*
X103847071Y-67506730D01*
X103835072Y-67392573D01*
X103835072Y-67392572D01*
X103834382Y-67386009D01*
X103828383Y-67367544D01*
X103781119Y-67222082D01*
X103779077Y-67215797D01*
X103775773Y-67210074D01*
X103773089Y-67204046D01*
X103774334Y-67203492D01*
X103759500Y-67148127D01*
X103759500Y-67121070D01*
X103776380Y-67058071D01*
X103777527Y-67056084D01*
X103782077Y-67048203D01*
X103837382Y-66877991D01*
X103843907Y-66815916D01*
X103855400Y-66706565D01*
X103856090Y-66700000D01*
X103855274Y-66692240D01*
X103838072Y-66528573D01*
X103838072Y-66528572D01*
X103837382Y-66522009D01*
X103825150Y-66484361D01*
X103784119Y-66358082D01*
X103782077Y-66351797D01*
X103692591Y-66196803D01*
X103647921Y-66147191D01*
X103577258Y-66068712D01*
X103577257Y-66068711D01*
X103572836Y-66063801D01*
X103512711Y-66020117D01*
X103433387Y-65962485D01*
X103433386Y-65962484D01*
X103428045Y-65958604D01*
X103422017Y-65955920D01*
X103422015Y-65955919D01*
X103270577Y-65888495D01*
X103270576Y-65888495D01*
X103264546Y-65885810D01*
X103177016Y-65867205D01*
X103095943Y-65849972D01*
X103095939Y-65849972D01*
X103089486Y-65848600D01*
X102910514Y-65848600D01*
X102904061Y-65849972D01*
X102904057Y-65849972D01*
X102822984Y-65867205D01*
X102735454Y-65885810D01*
X102729427Y-65888493D01*
X102729419Y-65888496D01*
X102682852Y-65909229D01*
X102612485Y-65918663D01*
X102548188Y-65888556D01*
X102510375Y-65828467D01*
X102511052Y-65757473D01*
X102542509Y-65705026D01*
X102668633Y-65578903D01*
X102963053Y-65284483D01*
X102969319Y-65278630D01*
X103006547Y-65246154D01*
X103012274Y-65241158D01*
X103048498Y-65189617D01*
X103052423Y-65184332D01*
X103086607Y-65140735D01*
X103091292Y-65134760D01*
X103094416Y-65127842D01*
X103096245Y-65124821D01*
X103103500Y-65112102D01*
X103105188Y-65108954D01*
X103109556Y-65102739D01*
X103132438Y-65044050D01*
X103134978Y-65038005D01*
X103160913Y-64980565D01*
X103162298Y-64973092D01*
X103163369Y-64969674D01*
X103167355Y-64955681D01*
X103168251Y-64952193D01*
X103171012Y-64945111D01*
X103179233Y-64882670D01*
X103180265Y-64876157D01*
X103190361Y-64821681D01*
X103190361Y-64821680D01*
X103191745Y-64814213D01*
X103190422Y-64791277D01*
X103207093Y-64721025D01*
X103271077Y-64610203D01*
X103326382Y-64439991D01*
X103345090Y-64262000D01*
X103333782Y-64154413D01*
X103327072Y-64090573D01*
X103327072Y-64090572D01*
X103326382Y-64084009D01*
X103271077Y-63913797D01*
X103259157Y-63893150D01*
X103202054Y-63794246D01*
X103181591Y-63758803D01*
X103110116Y-63679421D01*
X103066258Y-63630712D01*
X103066257Y-63630711D01*
X103061836Y-63625801D01*
X103028299Y-63601435D01*
X102984947Y-63545213D01*
X102978872Y-63474477D01*
X103012004Y-63411685D01*
X103073824Y-63376774D01*
X103102362Y-63373500D01*
X103907638Y-63373500D01*
X103975759Y-63393502D01*
G37*
%TD.AperFunction*%
%TA.AperFunction,Conductor*%
G36*
X110629114Y-62377502D02*
G01*
X110675607Y-62431158D01*
X110685711Y-62501432D01*
X110680826Y-62522436D01*
X110668618Y-62560009D01*
X110666102Y-62559192D01*
X110637955Y-62611294D01*
X110575796Y-62645599D01*
X110548460Y-62648600D01*
X110400514Y-62648600D01*
X110394061Y-62649972D01*
X110394057Y-62649972D01*
X110312984Y-62667205D01*
X110225454Y-62685810D01*
X110219424Y-62688495D01*
X110219423Y-62688495D01*
X110067985Y-62755919D01*
X110067983Y-62755920D01*
X110061955Y-62758604D01*
X110056614Y-62762484D01*
X110056613Y-62762485D01*
X109952778Y-62837926D01*
X109917164Y-62863801D01*
X109797409Y-62996803D01*
X109742832Y-63091332D01*
X109729002Y-63115288D01*
X109707923Y-63151797D01*
X109652618Y-63322009D01*
X109650102Y-63321192D01*
X109621955Y-63373294D01*
X109559796Y-63407599D01*
X109532460Y-63410600D01*
X109384514Y-63410600D01*
X109378061Y-63411972D01*
X109378057Y-63411972D01*
X109296984Y-63429205D01*
X109209454Y-63447810D01*
X109203424Y-63450495D01*
X109203423Y-63450495D01*
X109051985Y-63517919D01*
X109051983Y-63517920D01*
X109045955Y-63520604D01*
X109040614Y-63524484D01*
X109040613Y-63524485D01*
X108936778Y-63599926D01*
X108901164Y-63625801D01*
X108896743Y-63630711D01*
X108896742Y-63630712D01*
X108852885Y-63679421D01*
X108781409Y-63758803D01*
X108778110Y-63764516D01*
X108778107Y-63764521D01*
X108703843Y-63893150D01*
X108652460Y-63942143D01*
X108582746Y-63955579D01*
X108516836Y-63929192D01*
X108505706Y-63919323D01*
X108410920Y-63824702D01*
X108399509Y-63815690D01*
X108267709Y-63734447D01*
X108254532Y-63728303D01*
X108107157Y-63679421D01*
X108093790Y-63676555D01*
X108003730Y-63667328D01*
X107997315Y-63667000D01*
X107968115Y-63667000D01*
X107952876Y-63671475D01*
X107951671Y-63672865D01*
X107950000Y-63680548D01*
X107950000Y-64643500D01*
X107929998Y-64711621D01*
X107876342Y-64758114D01*
X107824000Y-64769500D01*
X107568000Y-64769500D01*
X107499879Y-64749498D01*
X107453386Y-64695842D01*
X107442000Y-64643500D01*
X107442000Y-63685115D01*
X107437525Y-63669876D01*
X107436135Y-63668671D01*
X107428452Y-63667000D01*
X107394734Y-63667000D01*
X107388213Y-63667337D01*
X107369904Y-63669237D01*
X107300083Y-63656372D01*
X107248302Y-63607800D01*
X107231000Y-63538944D01*
X107237069Y-63504974D01*
X107261342Y-63430270D01*
X107261342Y-63430269D01*
X107263382Y-63423991D01*
X107264676Y-63411685D01*
X107274183Y-63321229D01*
X107301196Y-63255572D01*
X107359418Y-63214943D01*
X107399493Y-63208400D01*
X107531486Y-63208400D01*
X107537939Y-63207028D01*
X107537943Y-63207028D01*
X107619016Y-63189795D01*
X107706546Y-63171190D01*
X107712573Y-63168507D01*
X107712581Y-63168504D01*
X107794357Y-63132095D01*
X107864724Y-63122661D01*
X107919665Y-63145266D01*
X107951650Y-63168504D01*
X108015568Y-63214943D01*
X108029955Y-63225396D01*
X108035983Y-63228080D01*
X108035985Y-63228081D01*
X108187423Y-63295505D01*
X108193454Y-63298190D01*
X108279991Y-63316584D01*
X108362057Y-63334028D01*
X108362061Y-63334028D01*
X108368514Y-63335400D01*
X108547486Y-63335400D01*
X108553939Y-63334028D01*
X108553943Y-63334028D01*
X108636009Y-63316584D01*
X108722546Y-63298190D01*
X108728577Y-63295505D01*
X108880015Y-63228081D01*
X108880017Y-63228080D01*
X108886045Y-63225396D01*
X108891387Y-63221515D01*
X109025492Y-63124082D01*
X109025494Y-63124080D01*
X109030836Y-63120199D01*
X109150591Y-62987197D01*
X109205168Y-62892668D01*
X109236773Y-62837926D01*
X109236774Y-62837925D01*
X109240077Y-62832203D01*
X109295382Y-62661991D01*
X109304418Y-62576024D01*
X109331432Y-62510367D01*
X109340633Y-62500100D01*
X109446328Y-62394405D01*
X109508640Y-62360379D01*
X109535423Y-62357500D01*
X110560993Y-62357500D01*
X110629114Y-62377502D01*
G37*
%TD.AperFunction*%
%TA.AperFunction,Conductor*%
G36*
X105548789Y-63393502D02*
G01*
X105595282Y-63447158D01*
X105600501Y-63460564D01*
X105643923Y-63594203D01*
X105647226Y-63599925D01*
X105647227Y-63599926D01*
X105665289Y-63631210D01*
X105733409Y-63749197D01*
X105737827Y-63754104D01*
X105737828Y-63754105D01*
X105848742Y-63877288D01*
X105853164Y-63882199D01*
X105858506Y-63886080D01*
X105858508Y-63886082D01*
X105985905Y-63978641D01*
X105997955Y-63987396D01*
X106003983Y-63990080D01*
X106003985Y-63990081D01*
X106155423Y-64057505D01*
X106161454Y-64060190D01*
X106243974Y-64077730D01*
X106330057Y-64096028D01*
X106330061Y-64096028D01*
X106336514Y-64097400D01*
X106515486Y-64097400D01*
X106521939Y-64096028D01*
X106521943Y-64096028D01*
X106561693Y-64087578D01*
X106577070Y-64084310D01*
X106647860Y-64089712D01*
X106704492Y-64132529D01*
X106728986Y-64199166D01*
X106726466Y-64233972D01*
X106722555Y-64252213D01*
X106713328Y-64342270D01*
X106713000Y-64348685D01*
X106713000Y-64501102D01*
X106692998Y-64569223D01*
X106639342Y-64615716D01*
X106577112Y-64626713D01*
X106551467Y-64624694D01*
X106551441Y-64624693D01*
X106548989Y-64624500D01*
X106299152Y-64624500D01*
X106049012Y-64624501D01*
X106012534Y-64627371D01*
X105957018Y-64643500D01*
X105907861Y-64657781D01*
X105836864Y-64657578D01*
X105783613Y-64625879D01*
X105403633Y-64245899D01*
X105369607Y-64183587D01*
X105367418Y-64169975D01*
X105359072Y-64090573D01*
X105359072Y-64090572D01*
X105358382Y-64084009D01*
X105303077Y-63913797D01*
X105291157Y-63893150D01*
X105234054Y-63794246D01*
X105213591Y-63758803D01*
X105142116Y-63679421D01*
X105098258Y-63630712D01*
X105098257Y-63630711D01*
X105093836Y-63625801D01*
X105060299Y-63601435D01*
X105016947Y-63545213D01*
X105010872Y-63474477D01*
X105044004Y-63411685D01*
X105105824Y-63376774D01*
X105134362Y-63373500D01*
X105480668Y-63373500D01*
X105548789Y-63393502D01*
G37*
%TD.AperFunction*%
%TD*%
M02*
