M48
; DRILL file {KiCad (6.0.0-0)} date Saturday, March 26, 2022 at 01:05:03 AM
; FORMAT={-:-/ absolute / inch / decimal}
; #@! TF.CreationDate,2022-03-26T01:05:03-04:00
; #@! TF.GenerationSoftware,Kicad,Pcbnew,(6.0.0-0)
; #@! TF.FileFunction,Plated,1,4,PTH
FMAT,2
INCH
; #@! TA.AperFunction,Plated,PTH,ViaDrill
T1C0.0130
; #@! TA.AperFunction,Plated,PTH,ComponentDrill
T2C0.0394
; #@! TA.AperFunction,Plated,PTH,ComponentDrill
T3C0.1181
%
G90
G05
T1
X3.73Y-2.88
X3.78Y-2.88
X3.83Y-2.88
X3.89Y-2.77
X3.96Y-2.77
X3.96Y-2.82
X3.96Y-2.88
X3.96Y-2.94
X3.96Y-3.0
X4.02Y-2.71
X4.02Y-2.75
X4.07Y-2.71
X4.095Y-2.59
X4.095Y-2.625
X4.095Y-2.66
X4.1Y-2.82
X4.1Y-2.88
X4.114Y-2.454
X4.114Y-2.527
X4.114Y-2.4913
X4.19Y-2.71
X4.1929Y-2.811
X4.23Y-2.45
X4.23Y-2.49
X4.23Y-2.53
X4.24Y-2.71
X4.24Y-2.94
X4.2441Y-2.811
X4.29Y-2.71
X4.3Y-2.94
X4.34Y-2.71
X4.35Y-3.18
X4.36Y-2.94
X4.37Y-2.63
X4.4093Y-2.6268
X4.41Y-3.12
X4.41Y-3.28
X4.44Y-2.6
X4.45Y-2.71
X4.46Y-3.07
X4.46Y-3.23
X4.51Y-3.02
X4.51Y-3.18
X4.53Y-2.67
X4.53Y-2.73
X4.53Y-2.8
X4.53Y-2.87
X4.53Y-2.94
X4.55Y-2.52
X4.57Y-3.13
X4.62Y-3.08
X4.67Y-2.64
X4.67Y-2.73
X4.67Y-2.8
X4.67Y-2.87
X4.67Y-2.94
X4.67Y-3.02
T2
X4.255Y-3.0706
X4.255Y-3.1706
X4.255Y-3.2706
T3
X3.7402Y-2.5197
X4.685Y-2.5197
T0
M30
