%TF.GenerationSoftware,KiCad,Pcbnew,(6.0.0-0)*%
%TF.CreationDate,2022-03-26T01:05:03-04:00*%
%TF.ProjectId,human_activity,68756d61-6e5f-4616-9374-69766974792e,rev?*%
%TF.SameCoordinates,Original*%
%TF.FileFunction,Copper,L4,Bot*%
%TF.FilePolarity,Positive*%
%FSLAX46Y46*%
G04 Gerber Fmt 4.6, Leading zero omitted, Abs format (unit mm)*
G04 Created by KiCad (PCBNEW (6.0.0-0)) date 2022-03-26 01:05:03*
%MOMM*%
%LPD*%
G01*
G04 APERTURE LIST*
%TA.AperFunction,ComponentPad*%
%ADD10C,4.500000*%
%TD*%
%TA.AperFunction,ComponentPad*%
%ADD11R,1.700000X1.700000*%
%TD*%
%TA.AperFunction,ComponentPad*%
%ADD12O,1.700000X1.700000*%
%TD*%
%TA.AperFunction,SMDPad,CuDef*%
%ADD13R,1.000000X5.850000*%
%TD*%
%TA.AperFunction,SMDPad,CuDef*%
%ADD14R,0.610000X2.410000*%
%TD*%
%TA.AperFunction,ViaPad*%
%ADD15C,0.685800*%
%TD*%
%TA.AperFunction,Conductor*%
%ADD16C,0.254000*%
%TD*%
G04 APERTURE END LIST*
D10*
%TO.P,H1,1,1*%
%TO.N,GND*%
X95000000Y-64000000D03*
%TD*%
%TO.P,H2,1,1*%
%TO.N,GND*%
X119000000Y-64000000D03*
%TD*%
D11*
%TO.P,J1,1,Pin_1*%
%TO.N,Net-(C1-Pad1)*%
X108077000Y-77993000D03*
D12*
%TO.P,J1,2,Pin_2*%
%TO.N,GND*%
X108077000Y-80533000D03*
%TO.P,J1,3,Pin_3*%
%TO.N,/A0*%
X108077000Y-83073000D03*
%TD*%
D13*
%TO.P,J2,*%
%TO.N,*%
X100173500Y-65000000D03*
X113826500Y-65000000D03*
D14*
%TO.P,J2,1,SDA(E)*%
%TO.N,/SDA_EEPROM*%
X101996500Y-66720000D03*
%TO.P,J2,2,SCL(E)*%
%TO.N,/SCL_EEPROM*%
X102996500Y-66720000D03*
%TO.P,J2,3,GND*%
%TO.N,GND*%
X103996500Y-66720000D03*
%TO.P,J2,4,NC*%
%TO.N,unconnected-(J2-Pad4)*%
X104996500Y-66720000D03*
%TO.P,J2,5,~{RST}*%
%TO.N,/~{RST}*%
X105996500Y-66720000D03*
%TO.P,J2,6,SCK*%
%TO.N,/SPI_SCLK*%
X106996500Y-66720000D03*
%TO.P,J2,7,MISO*%
%TO.N,/MISO*%
X107996500Y-66720000D03*
%TO.P,J2,8,MOSI*%
%TO.N,/MOSI*%
X108996500Y-66720000D03*
%TO.P,J2,9,CE*%
%TO.N,/CE*%
X109996500Y-66720000D03*
%TO.P,J2,10,SDA*%
%TO.N,/SDA*%
X110996500Y-66720000D03*
%TO.P,J2,11,SCL*%
%TO.N,/SCL*%
X111996500Y-66720000D03*
%TO.P,J2,12,NC*%
%TO.N,unconnected-(J2-Pad12)*%
X111496500Y-63280000D03*
%TO.P,J2,13,RX*%
%TO.N,/RXD*%
X110496500Y-63280000D03*
%TO.P,J2,14,TX*%
%TO.N,/TXD*%
X109496500Y-63280000D03*
%TO.P,J2,15,STAT*%
%TO.N,/Status*%
X108496500Y-63280000D03*
%TO.P,J2,16,A0*%
%TO.N,/A0*%
X107496500Y-63280000D03*
%TO.P,J2,17,A1*%
%TO.N,/A1*%
X106496500Y-63280000D03*
%TO.P,J2,18,NC*%
%TO.N,unconnected-(J2-Pad18)*%
X105496500Y-63280000D03*
%TO.P,J2,19,3V3*%
%TO.N,/3V3*%
X104496500Y-63280000D03*
%TO.P,J2,20,NC*%
%TO.N,unconnected-(J2-Pad20)*%
X103496500Y-63320000D03*
%TO.P,J2,21,5V*%
%TO.N,/5V*%
X102496500Y-63320000D03*
%TD*%
D15*
%TO.N,GND*%
X115062000Y-67818000D03*
X100584000Y-74676000D03*
X112014000Y-83312000D03*
X100584000Y-71628000D03*
X113030000Y-68834000D03*
X115570000Y-64008000D03*
X96012000Y-73152000D03*
X110236000Y-68834000D03*
X102108000Y-69850000D03*
X110744000Y-74676000D03*
X112014000Y-79248000D03*
X118618000Y-76708000D03*
X118618000Y-74676000D03*
X108966000Y-68834000D03*
X109220000Y-74676000D03*
X116078000Y-79502000D03*
X118618000Y-67056000D03*
X110490000Y-80772000D03*
X107696000Y-68834000D03*
X118618000Y-69342000D03*
X106500000Y-71400000D03*
X107696000Y-74676000D03*
X115062000Y-69342000D03*
X104140000Y-73152000D03*
X118618000Y-71120000D03*
X104013000Y-66675000D03*
X118618000Y-72898000D03*
X115062000Y-74676000D03*
X115062000Y-71120000D03*
X103378000Y-68834000D03*
X106426000Y-68834000D03*
X114554000Y-76708000D03*
X107800000Y-71400000D03*
X104140000Y-71628000D03*
X114554000Y-80772000D03*
X100584000Y-76200000D03*
X104013000Y-67564000D03*
X113284000Y-77978000D03*
X100584000Y-73152000D03*
X97282000Y-73152000D03*
X94742000Y-73152000D03*
X117348000Y-78232000D03*
X115062000Y-72898000D03*
X113284000Y-82042000D03*
X100584000Y-70358000D03*
X112776000Y-66040000D03*
X104013000Y-65786000D03*
%TO.N,/3V3*%
X104495600Y-64185800D03*
X104496500Y-63280000D03*
X104495600Y-62331600D03*
%TO.N,/SDA_EEPROM*%
X98806000Y-70358000D03*
%TO.N,/SDA*%
X110998000Y-66802000D03*
%TO.N,/SCL*%
X111996500Y-66720000D03*
%TO.N,/SCL_EEPROM*%
X102108000Y-68834000D03*
%TO.N,/A0*%
X107442000Y-63246000D03*
X107442000Y-64262000D03*
X107442000Y-62230000D03*
%TD*%
D16*
%TO.N,/SDA_EEPROM*%
X101996500Y-66720000D02*
X101996500Y-67620000D01*
X101996500Y-67620000D02*
X99258500Y-70358000D01*
X99258500Y-70358000D02*
X98806000Y-70358000D01*
%TO.N,/SCL_EEPROM*%
X102996500Y-67945500D02*
X102108000Y-68834000D01*
X102996500Y-66720000D02*
X102996500Y-67945500D01*
%TD*%
%TA.AperFunction,Conductor*%
%TO.N,GND*%
G36*
X93508556Y-61466002D02*
G01*
X93555049Y-61519658D01*
X93565153Y-61589932D01*
X93535659Y-61654512D01*
X93504858Y-61680285D01*
X93450196Y-61712805D01*
X93443945Y-61717053D01*
X93250733Y-61866115D01*
X93242267Y-61877773D01*
X93248871Y-61889661D01*
X94987188Y-63627978D01*
X95001132Y-63635592D01*
X95002965Y-63635461D01*
X95009580Y-63631210D01*
X96750162Y-61890628D01*
X96757174Y-61877787D01*
X96749379Y-61867098D01*
X96579886Y-61733481D01*
X96573663Y-61729156D01*
X96492326Y-61679605D01*
X96444557Y-61627082D01*
X96432767Y-61557071D01*
X96460699Y-61491800D01*
X96519485Y-61451992D01*
X96557879Y-61446000D01*
X99286595Y-61446000D01*
X99354716Y-61466002D01*
X99401209Y-61519658D01*
X99411313Y-61589932D01*
X99381819Y-61654512D01*
X99362163Y-61672824D01*
X99310239Y-61711739D01*
X99222885Y-61828295D01*
X99171755Y-61964684D01*
X99165000Y-62026866D01*
X99165000Y-67973134D01*
X99171755Y-68035316D01*
X99222885Y-68171705D01*
X99310239Y-68288261D01*
X99426795Y-68375615D01*
X99563184Y-68426745D01*
X99625366Y-68433500D01*
X99980078Y-68433500D01*
X100048199Y-68453502D01*
X100094692Y-68507158D01*
X100104796Y-68577432D01*
X100075302Y-68642012D01*
X100069173Y-68648595D01*
X99202648Y-69515120D01*
X99140336Y-69549146D01*
X99075213Y-69545888D01*
X99070546Y-69543810D01*
X98983016Y-69525205D01*
X98901943Y-69507972D01*
X98901939Y-69507972D01*
X98895486Y-69506600D01*
X98716514Y-69506600D01*
X98710061Y-69507972D01*
X98710057Y-69507972D01*
X98628984Y-69525205D01*
X98541454Y-69543810D01*
X98535424Y-69546495D01*
X98535423Y-69546495D01*
X98383985Y-69613919D01*
X98383983Y-69613920D01*
X98377955Y-69616604D01*
X98372614Y-69620484D01*
X98372613Y-69620485D01*
X98283266Y-69685400D01*
X98233164Y-69721801D01*
X98113409Y-69854803D01*
X98023923Y-70009797D01*
X97968618Y-70180009D01*
X97949910Y-70358000D01*
X97968618Y-70535991D01*
X98023923Y-70706203D01*
X98113409Y-70861197D01*
X98117827Y-70866104D01*
X98117828Y-70866105D01*
X98204256Y-70962093D01*
X98233164Y-70994199D01*
X98377955Y-71099396D01*
X98383983Y-71102080D01*
X98383985Y-71102081D01*
X98535423Y-71169505D01*
X98541454Y-71172190D01*
X98628984Y-71190795D01*
X98710057Y-71208028D01*
X98710061Y-71208028D01*
X98716514Y-71209400D01*
X98895486Y-71209400D01*
X98901939Y-71208028D01*
X98901943Y-71208028D01*
X98983016Y-71190795D01*
X99070546Y-71172190D01*
X99076577Y-71169505D01*
X99228015Y-71102081D01*
X99228017Y-71102080D01*
X99234045Y-71099396D01*
X99373854Y-70997818D01*
X99414061Y-70978899D01*
X99417799Y-70978427D01*
X99425172Y-70975508D01*
X99425175Y-70975507D01*
X99459056Y-70962093D01*
X99470285Y-70958248D01*
X99486965Y-70953402D01*
X99512893Y-70945869D01*
X99519720Y-70941831D01*
X99519723Y-70941830D01*
X99530406Y-70935512D01*
X99548164Y-70926812D01*
X99559715Y-70922239D01*
X99559721Y-70922235D01*
X99567088Y-70919319D01*
X99602991Y-70893234D01*
X99612910Y-70886719D01*
X99644268Y-70868174D01*
X99644272Y-70868171D01*
X99651098Y-70864134D01*
X99665482Y-70849750D01*
X99680516Y-70836909D01*
X99690573Y-70829602D01*
X99696987Y-70824942D01*
X99725278Y-70790744D01*
X99733267Y-70781965D01*
X101212413Y-69302819D01*
X101274725Y-69268793D01*
X101345540Y-69273858D01*
X101402376Y-69316405D01*
X101410628Y-69328916D01*
X101412107Y-69331479D01*
X101412110Y-69331484D01*
X101415409Y-69337197D01*
X101535164Y-69470199D01*
X101540506Y-69474080D01*
X101540508Y-69474082D01*
X101640176Y-69546495D01*
X101679955Y-69575396D01*
X101685983Y-69578080D01*
X101685985Y-69578081D01*
X101772510Y-69616604D01*
X101843454Y-69648190D01*
X101930984Y-69666795D01*
X102012057Y-69684028D01*
X102012061Y-69684028D01*
X102018514Y-69685400D01*
X102197486Y-69685400D01*
X102203939Y-69684028D01*
X102203943Y-69684028D01*
X102285016Y-69666795D01*
X102372546Y-69648190D01*
X102443490Y-69616604D01*
X102530015Y-69578081D01*
X102530017Y-69578080D01*
X102536045Y-69575396D01*
X102575824Y-69546495D01*
X102675492Y-69474082D01*
X102675494Y-69474080D01*
X102680836Y-69470199D01*
X102800591Y-69337197D01*
X102890077Y-69182203D01*
X102945382Y-69011991D01*
X102954418Y-68926024D01*
X102981432Y-68860367D01*
X102990633Y-68850100D01*
X103389983Y-68450750D01*
X103398305Y-68443176D01*
X103404803Y-68439053D01*
X103408610Y-68434999D01*
X103443142Y-68415001D01*
X103445146Y-68414250D01*
X103452980Y-68411313D01*
X103523786Y-68406128D01*
X103541441Y-68411312D01*
X103573894Y-68423478D01*
X103589149Y-68427105D01*
X103640014Y-68432631D01*
X103646828Y-68433000D01*
X103724385Y-68433000D01*
X103739624Y-68428525D01*
X103740829Y-68427135D01*
X103742500Y-68419452D01*
X103742500Y-68218852D01*
X103754347Y-68172542D01*
X103752115Y-68171705D01*
X103800471Y-68042715D01*
X103803245Y-68035316D01*
X103810000Y-67973134D01*
X103810000Y-66592000D01*
X103830002Y-66523879D01*
X103883658Y-66477386D01*
X103936000Y-66466000D01*
X104057000Y-66466000D01*
X104125121Y-66486002D01*
X104171614Y-66539658D01*
X104183000Y-66592000D01*
X104183000Y-67973134D01*
X104189755Y-68035316D01*
X104192529Y-68042715D01*
X104240885Y-68171705D01*
X104238653Y-68172542D01*
X104250500Y-68218852D01*
X104250500Y-68414884D01*
X104254975Y-68430123D01*
X104256365Y-68431328D01*
X104264048Y-68432999D01*
X104346169Y-68432999D01*
X104352990Y-68432629D01*
X104403852Y-68427105D01*
X104419107Y-68423478D01*
X104451557Y-68411313D01*
X104522364Y-68406129D01*
X104540019Y-68411313D01*
X104573781Y-68423970D01*
X104573783Y-68423970D01*
X104581184Y-68426745D01*
X104643366Y-68433500D01*
X105349634Y-68433500D01*
X105411816Y-68426745D01*
X105452271Y-68411579D01*
X105523076Y-68406396D01*
X105540723Y-68411577D01*
X105581184Y-68426745D01*
X105643366Y-68433500D01*
X106349634Y-68433500D01*
X106411816Y-68426745D01*
X106452271Y-68411579D01*
X106523076Y-68406396D01*
X106540723Y-68411577D01*
X106581184Y-68426745D01*
X106643366Y-68433500D01*
X107349634Y-68433500D01*
X107411816Y-68426745D01*
X107452271Y-68411579D01*
X107523076Y-68406396D01*
X107540723Y-68411577D01*
X107581184Y-68426745D01*
X107643366Y-68433500D01*
X108349634Y-68433500D01*
X108411816Y-68426745D01*
X108452271Y-68411579D01*
X108523076Y-68406396D01*
X108540723Y-68411577D01*
X108581184Y-68426745D01*
X108643366Y-68433500D01*
X109349634Y-68433500D01*
X109411816Y-68426745D01*
X109452271Y-68411579D01*
X109523076Y-68406396D01*
X109540723Y-68411577D01*
X109581184Y-68426745D01*
X109643366Y-68433500D01*
X110349634Y-68433500D01*
X110411816Y-68426745D01*
X110452271Y-68411579D01*
X110523076Y-68406396D01*
X110540723Y-68411577D01*
X110581184Y-68426745D01*
X110643366Y-68433500D01*
X111349634Y-68433500D01*
X111411816Y-68426745D01*
X111452271Y-68411579D01*
X111523076Y-68406396D01*
X111540723Y-68411577D01*
X111581184Y-68426745D01*
X111643366Y-68433500D01*
X112349634Y-68433500D01*
X112411816Y-68426745D01*
X112548205Y-68375615D01*
X112664761Y-68288261D01*
X112713174Y-68223664D01*
X112770033Y-68181149D01*
X112840852Y-68176123D01*
X112903145Y-68210183D01*
X112914826Y-68223664D01*
X112963239Y-68288261D01*
X113079795Y-68375615D01*
X113216184Y-68426745D01*
X113278366Y-68433500D01*
X114374634Y-68433500D01*
X114436816Y-68426745D01*
X114573205Y-68375615D01*
X114689761Y-68288261D01*
X114777115Y-68171705D01*
X114828245Y-68035316D01*
X114835000Y-67973134D01*
X114835000Y-66121982D01*
X117243142Y-66121982D01*
X117250668Y-66132415D01*
X117396463Y-66249848D01*
X117402648Y-66254244D01*
X117678363Y-66426195D01*
X117685034Y-66429817D01*
X117979414Y-66567402D01*
X117986468Y-66570195D01*
X118295257Y-66671420D01*
X118302570Y-66673339D01*
X118621298Y-66736738D01*
X118628789Y-66737764D01*
X118952823Y-66762413D01*
X118960386Y-66762531D01*
X119285021Y-66748074D01*
X119292562Y-66747282D01*
X119613115Y-66693926D01*
X119620479Y-66692240D01*
X119932315Y-66600757D01*
X119939424Y-66598198D01*
X120238003Y-66469919D01*
X120244770Y-66466515D01*
X120525764Y-66303301D01*
X120532071Y-66299111D01*
X120750005Y-66134588D01*
X120758461Y-66123197D01*
X120751743Y-66110953D01*
X119012812Y-64372022D01*
X118998868Y-64364408D01*
X118997035Y-64364539D01*
X118990420Y-64368790D01*
X117250257Y-66108953D01*
X117243142Y-66121982D01*
X114835000Y-66121982D01*
X114835000Y-63974858D01*
X116237299Y-63974858D01*
X116253456Y-64299410D01*
X116254287Y-64306939D01*
X116309318Y-64627198D01*
X116311051Y-64634585D01*
X116404156Y-64945909D01*
X116406759Y-64953022D01*
X116536595Y-65250913D01*
X116540037Y-65257669D01*
X116704720Y-65537803D01*
X116708943Y-65544088D01*
X116865792Y-65749608D01*
X116877316Y-65758069D01*
X116889382Y-65751408D01*
X118627978Y-64012812D01*
X118635592Y-63998868D01*
X118635461Y-63997035D01*
X118631210Y-63990420D01*
X116890864Y-62250074D01*
X116877929Y-62243011D01*
X116867367Y-62250671D01*
X116741785Y-62408268D01*
X116737428Y-62414467D01*
X116566913Y-62691094D01*
X116563333Y-62697770D01*
X116427287Y-62992878D01*
X116424537Y-62999929D01*
X116324927Y-63309251D01*
X116323044Y-63316584D01*
X116261316Y-63635632D01*
X116260329Y-63643132D01*
X116237378Y-63967277D01*
X116237299Y-63974858D01*
X114835000Y-63974858D01*
X114835000Y-62026866D01*
X114828245Y-61964684D01*
X114777115Y-61828295D01*
X114689761Y-61711739D01*
X114637838Y-61672825D01*
X114595325Y-61615966D01*
X114590300Y-61545148D01*
X114624359Y-61482855D01*
X114686691Y-61448865D01*
X114713405Y-61446000D01*
X117440435Y-61446000D01*
X117508556Y-61466002D01*
X117555049Y-61519658D01*
X117565153Y-61589932D01*
X117535659Y-61654512D01*
X117504858Y-61680285D01*
X117450196Y-61712805D01*
X117443945Y-61717053D01*
X117250733Y-61866115D01*
X117242267Y-61877773D01*
X117248871Y-61889661D01*
X118987188Y-63627978D01*
X119001132Y-63635592D01*
X119002965Y-63635461D01*
X119009580Y-63631210D01*
X120750162Y-61890628D01*
X120757174Y-61877787D01*
X120749379Y-61867098D01*
X120579886Y-61733481D01*
X120573663Y-61729156D01*
X120492326Y-61679605D01*
X120444557Y-61627082D01*
X120432767Y-61557071D01*
X120460699Y-61491800D01*
X120519485Y-61451992D01*
X120557879Y-61446000D01*
X121361000Y-61446000D01*
X121429121Y-61466002D01*
X121475614Y-61519658D01*
X121487000Y-61572000D01*
X121487000Y-62337698D01*
X121466998Y-62405819D01*
X121413342Y-62452312D01*
X121343068Y-62462416D01*
X121278488Y-62432922D01*
X121261643Y-62415184D01*
X121133617Y-62251022D01*
X121121823Y-62242551D01*
X121110113Y-62249097D01*
X119372022Y-63987188D01*
X119364408Y-64001132D01*
X119364539Y-64002965D01*
X119368790Y-64009580D01*
X121108825Y-65749615D01*
X121121948Y-65756781D01*
X121132250Y-65749391D01*
X121241429Y-65615285D01*
X121245838Y-65609149D01*
X121254437Y-65595520D01*
X121307703Y-65548581D01*
X121377891Y-65537891D01*
X121442715Y-65566844D01*
X121481596Y-65626248D01*
X121487000Y-65662754D01*
X121487000Y-86304000D01*
X121466998Y-86372121D01*
X121413342Y-86418614D01*
X121361000Y-86430000D01*
X92629000Y-86430000D01*
X92560879Y-86409998D01*
X92514386Y-86356342D01*
X92503000Y-86304000D01*
X92503000Y-83039695D01*
X106714251Y-83039695D01*
X106714548Y-83044848D01*
X106714548Y-83044851D01*
X106720011Y-83139590D01*
X106727110Y-83262715D01*
X106728247Y-83267761D01*
X106728248Y-83267767D01*
X106748119Y-83355939D01*
X106776222Y-83480639D01*
X106860266Y-83687616D01*
X106976987Y-83878088D01*
X107123250Y-84046938D01*
X107295126Y-84189632D01*
X107488000Y-84302338D01*
X107696692Y-84382030D01*
X107701760Y-84383061D01*
X107701763Y-84383062D01*
X107809017Y-84404883D01*
X107915597Y-84426567D01*
X107920772Y-84426757D01*
X107920774Y-84426757D01*
X108133673Y-84434564D01*
X108133677Y-84434564D01*
X108138837Y-84434753D01*
X108143957Y-84434097D01*
X108143959Y-84434097D01*
X108355288Y-84407025D01*
X108355289Y-84407025D01*
X108360416Y-84406368D01*
X108365366Y-84404883D01*
X108569429Y-84343661D01*
X108569434Y-84343659D01*
X108574384Y-84342174D01*
X108774994Y-84243896D01*
X108956860Y-84114173D01*
X109115096Y-83956489D01*
X109174594Y-83873689D01*
X109242435Y-83779277D01*
X109245453Y-83775077D01*
X109344430Y-83574811D01*
X109409370Y-83361069D01*
X109438529Y-83139590D01*
X109440156Y-83073000D01*
X109421852Y-82850361D01*
X109367431Y-82633702D01*
X109278354Y-82428840D01*
X109157014Y-82241277D01*
X109006670Y-82076051D01*
X109002619Y-82072852D01*
X109002615Y-82072848D01*
X108835414Y-81940800D01*
X108835410Y-81940798D01*
X108831359Y-81937598D01*
X108789569Y-81914529D01*
X108739598Y-81864097D01*
X108724826Y-81794654D01*
X108749942Y-81728248D01*
X108777294Y-81701641D01*
X108952328Y-81576792D01*
X108960200Y-81570139D01*
X109111052Y-81419812D01*
X109117730Y-81411965D01*
X109242003Y-81239020D01*
X109247313Y-81230183D01*
X109341670Y-81039267D01*
X109345469Y-81029672D01*
X109407377Y-80825910D01*
X109409555Y-80815837D01*
X109410986Y-80804962D01*
X109408775Y-80790778D01*
X109395617Y-80787000D01*
X106760225Y-80787000D01*
X106746694Y-80790973D01*
X106745257Y-80800966D01*
X106775565Y-80935446D01*
X106778645Y-80945275D01*
X106858770Y-81142603D01*
X106863413Y-81151794D01*
X106974694Y-81333388D01*
X106980777Y-81341699D01*
X107120213Y-81502667D01*
X107127580Y-81509883D01*
X107291434Y-81645916D01*
X107299881Y-81651831D01*
X107368969Y-81692203D01*
X107417693Y-81743842D01*
X107430764Y-81813625D01*
X107404033Y-81879396D01*
X107363584Y-81912752D01*
X107350607Y-81919507D01*
X107346474Y-81922610D01*
X107346471Y-81922612D01*
X107322247Y-81940800D01*
X107171965Y-82053635D01*
X107017629Y-82215138D01*
X106891743Y-82399680D01*
X106797688Y-82602305D01*
X106737989Y-82817570D01*
X106714251Y-83039695D01*
X92503000Y-83039695D01*
X92503000Y-78891134D01*
X106718500Y-78891134D01*
X106725255Y-78953316D01*
X106776385Y-79089705D01*
X106863739Y-79206261D01*
X106980295Y-79293615D01*
X106988704Y-79296767D01*
X106988705Y-79296768D01*
X107097960Y-79337726D01*
X107154725Y-79380367D01*
X107179425Y-79446929D01*
X107164218Y-79516278D01*
X107144825Y-79542759D01*
X107021590Y-79671717D01*
X107015104Y-79679727D01*
X106895098Y-79855649D01*
X106890000Y-79864623D01*
X106800338Y-80057783D01*
X106796775Y-80067470D01*
X106741389Y-80267183D01*
X106742912Y-80275607D01*
X106755292Y-80279000D01*
X109395344Y-80279000D01*
X109408875Y-80275027D01*
X109410180Y-80265947D01*
X109368214Y-80098875D01*
X109364894Y-80089124D01*
X109279972Y-79893814D01*
X109275105Y-79884739D01*
X109159426Y-79705926D01*
X109153136Y-79697757D01*
X109009293Y-79539677D01*
X108978241Y-79475831D01*
X108986635Y-79405333D01*
X109031812Y-79350564D01*
X109058256Y-79336895D01*
X109165297Y-79296767D01*
X109173705Y-79293615D01*
X109290261Y-79206261D01*
X109377615Y-79089705D01*
X109428745Y-78953316D01*
X109435500Y-78891134D01*
X109435500Y-77094866D01*
X109428745Y-77032684D01*
X109377615Y-76896295D01*
X109290261Y-76779739D01*
X109173705Y-76692385D01*
X109037316Y-76641255D01*
X108975134Y-76634500D01*
X107178866Y-76634500D01*
X107116684Y-76641255D01*
X106980295Y-76692385D01*
X106863739Y-76779739D01*
X106776385Y-76896295D01*
X106725255Y-77032684D01*
X106718500Y-77094866D01*
X106718500Y-78891134D01*
X92503000Y-78891134D01*
X92503000Y-66121982D01*
X93243142Y-66121982D01*
X93250668Y-66132415D01*
X93396463Y-66249848D01*
X93402648Y-66254244D01*
X93678363Y-66426195D01*
X93685034Y-66429817D01*
X93979414Y-66567402D01*
X93986468Y-66570195D01*
X94295257Y-66671420D01*
X94302570Y-66673339D01*
X94621298Y-66736738D01*
X94628789Y-66737764D01*
X94952823Y-66762413D01*
X94960386Y-66762531D01*
X95285021Y-66748074D01*
X95292562Y-66747282D01*
X95613115Y-66693926D01*
X95620479Y-66692240D01*
X95932315Y-66600757D01*
X95939424Y-66598198D01*
X96238003Y-66469919D01*
X96244770Y-66466515D01*
X96525764Y-66303301D01*
X96532071Y-66299111D01*
X96750005Y-66134588D01*
X96758461Y-66123197D01*
X96751743Y-66110953D01*
X95012812Y-64372022D01*
X94998868Y-64364408D01*
X94997035Y-64364539D01*
X94990420Y-64368790D01*
X93250257Y-66108953D01*
X93243142Y-66121982D01*
X92503000Y-66121982D01*
X92503000Y-65647024D01*
X92523002Y-65578903D01*
X92576658Y-65532410D01*
X92646932Y-65522306D01*
X92711512Y-65551800D01*
X92729163Y-65570582D01*
X92865792Y-65749608D01*
X92877316Y-65758069D01*
X92889382Y-65751408D01*
X94627978Y-64012812D01*
X94634356Y-64001132D01*
X95364408Y-64001132D01*
X95364539Y-64002965D01*
X95368790Y-64009580D01*
X97108825Y-65749615D01*
X97121948Y-65756781D01*
X97132250Y-65749391D01*
X97241429Y-65615285D01*
X97245842Y-65609144D01*
X97419248Y-65334312D01*
X97422895Y-65327677D01*
X97562025Y-65034011D01*
X97564850Y-65026984D01*
X97667696Y-64718715D01*
X97669650Y-64711424D01*
X97734716Y-64393033D01*
X97735784Y-64385529D01*
X97762253Y-64060100D01*
X97762458Y-64055625D01*
X97763018Y-64002221D01*
X97762908Y-63997789D01*
X97743257Y-63671835D01*
X97742349Y-63664333D01*
X97683967Y-63344663D01*
X97682154Y-63337284D01*
X97585797Y-63026966D01*
X97583116Y-63019869D01*
X97450172Y-62723363D01*
X97446655Y-62716636D01*
X97279054Y-62438252D01*
X97274757Y-62431999D01*
X97133617Y-62251022D01*
X97121823Y-62242551D01*
X97110113Y-62249097D01*
X95372022Y-63987188D01*
X95364408Y-64001132D01*
X94634356Y-64001132D01*
X94635592Y-63998868D01*
X94635461Y-63997035D01*
X94631210Y-63990420D01*
X92890864Y-62250074D01*
X92877929Y-62243011D01*
X92867367Y-62250671D01*
X92741785Y-62408268D01*
X92737427Y-62414469D01*
X92736261Y-62416360D01*
X92735816Y-62416760D01*
X92735245Y-62417573D01*
X92735059Y-62417442D01*
X92683489Y-62463855D01*
X92613418Y-62475279D01*
X92548294Y-62447006D01*
X92508793Y-62388012D01*
X92503000Y-62350246D01*
X92503000Y-61572000D01*
X92523002Y-61503879D01*
X92576658Y-61457386D01*
X92629000Y-61446000D01*
X93440435Y-61446000D01*
X93508556Y-61466002D01*
G37*
%TD.AperFunction*%
%TD*%
M02*
