%TF.GenerationSoftware,KiCad,Pcbnew,(6.0.0-0)*%
%TF.CreationDate,2022-03-26T01:05:03-04:00*%
%TF.ProjectId,human_activity,68756d61-6e5f-4616-9374-69766974792e,rev?*%
%TF.SameCoordinates,Original*%
%TF.FileFunction,Copper,L1,Top*%
%TF.FilePolarity,Positive*%
%FSLAX46Y46*%
G04 Gerber Fmt 4.6, Leading zero omitted, Abs format (unit mm)*
G04 Created by KiCad (PCBNEW (6.0.0-0)) date 2022-03-26 01:05:03*
%MOMM*%
%LPD*%
G01*
G04 APERTURE LIST*
G04 Aperture macros list*
%AMRoundRect*
0 Rectangle with rounded corners*
0 $1 Rounding radius*
0 $2 $3 $4 $5 $6 $7 $8 $9 X,Y pos of 4 corners*
0 Add a 4 corners polygon primitive as box body*
4,1,4,$2,$3,$4,$5,$6,$7,$8,$9,$2,$3,0*
0 Add four circle primitives for the rounded corners*
1,1,$1+$1,$2,$3*
1,1,$1+$1,$4,$5*
1,1,$1+$1,$6,$7*
1,1,$1+$1,$8,$9*
0 Add four rect primitives between the rounded corners*
20,1,$1+$1,$2,$3,$4,$5,0*
20,1,$1+$1,$4,$5,$6,$7,0*
20,1,$1+$1,$6,$7,$8,$9,0*
20,1,$1+$1,$8,$9,$2,$3,0*%
G04 Aperture macros list end*
%TA.AperFunction,ComponentPad*%
%ADD10C,4.500000*%
%TD*%
%TA.AperFunction,SMDPad,CuDef*%
%ADD11RoundRect,0.135000X0.135000X0.185000X-0.135000X0.185000X-0.135000X-0.185000X0.135000X-0.185000X0*%
%TD*%
%TA.AperFunction,SMDPad,CuDef*%
%ADD12RoundRect,0.218750X-0.218750X-0.381250X0.218750X-0.381250X0.218750X0.381250X-0.218750X0.381250X0*%
%TD*%
%TA.AperFunction,SMDPad,CuDef*%
%ADD13RoundRect,0.140000X0.140000X0.170000X-0.140000X0.170000X-0.140000X-0.170000X0.140000X-0.170000X0*%
%TD*%
%TA.AperFunction,SMDPad,CuDef*%
%ADD14RoundRect,0.135000X-0.135000X-0.185000X0.135000X-0.185000X0.135000X0.185000X-0.135000X0.185000X0*%
%TD*%
%TA.AperFunction,SMDPad,CuDef*%
%ADD15RoundRect,0.150000X0.150000X-0.825000X0.150000X0.825000X-0.150000X0.825000X-0.150000X-0.825000X0*%
%TD*%
%TA.AperFunction,ComponentPad*%
%ADD16R,1.700000X1.700000*%
%TD*%
%TA.AperFunction,ComponentPad*%
%ADD17O,1.700000X1.700000*%
%TD*%
%TA.AperFunction,SMDPad,CuDef*%
%ADD18RoundRect,0.140000X-0.170000X0.140000X-0.170000X-0.140000X0.170000X-0.140000X0.170000X0.140000X0*%
%TD*%
%TA.AperFunction,SMDPad,CuDef*%
%ADD19R,0.500000X0.500000*%
%TD*%
%TA.AperFunction,SMDPad,CuDef*%
%ADD20RoundRect,0.218750X-0.256250X0.218750X-0.256250X-0.218750X0.256250X-0.218750X0.256250X0.218750X0*%
%TD*%
%TA.AperFunction,ViaPad*%
%ADD21C,0.685800*%
%TD*%
%TA.AperFunction,Conductor*%
%ADD22C,0.508000*%
%TD*%
%TA.AperFunction,Conductor*%
%ADD23C,0.254000*%
%TD*%
%TA.AperFunction,Conductor*%
%ADD24C,0.762000*%
%TD*%
G04 APERTURE END LIST*
D10*
%TO.P,H1,1,1*%
%TO.N,GND*%
X95000000Y-64000000D03*
%TD*%
%TO.P,H2,1,1*%
%TO.N,GND*%
X119000000Y-64000000D03*
%TD*%
D11*
%TO.P,R3,1*%
%TO.N,/3V3*%
X99062000Y-63754000D03*
%TO.P,R3,2*%
%TO.N,Net-(D1-Pad2)*%
X98042000Y-63754000D03*
%TD*%
D12*
%TO.P,FB1,1*%
%TO.N,/3V3*%
X102823500Y-75438000D03*
%TO.P,FB1,2*%
%TO.N,Net-(C1-Pad1)*%
X104948500Y-75438000D03*
%TD*%
D13*
%TO.P,C1,1*%
%TO.N,Net-(C1-Pad1)*%
X104366000Y-76962000D03*
%TO.P,C1,2*%
%TO.N,GND*%
X103406000Y-76962000D03*
%TD*%
D14*
%TO.P,R1,1*%
%TO.N,/3V3*%
X106590000Y-72600000D03*
%TO.P,R1,2*%
%TO.N,Net-(R1-Pad2)*%
X107610000Y-72600000D03*
%TD*%
D13*
%TO.P,C3,1*%
%TO.N,Net-(C1-Pad1)*%
X104366000Y-77978000D03*
%TO.P,C3,2*%
%TO.N,GND*%
X103406000Y-77978000D03*
%TD*%
D15*
%TO.P,U3,1,E0*%
%TO.N,unconnected-(U3-Pad1)*%
X94107000Y-75627000D03*
%TO.P,U3,2,E1*%
%TO.N,unconnected-(U3-Pad2)*%
X95377000Y-75627000D03*
%TO.P,U3,3,E2*%
%TO.N,unconnected-(U3-Pad3)*%
X96647000Y-75627000D03*
%TO.P,U3,4,VSS*%
%TO.N,GND*%
X97917000Y-75627000D03*
%TO.P,U3,5,SDA*%
%TO.N,/SDA_EEPROM*%
X97917000Y-70677000D03*
%TO.P,U3,6,SCL*%
%TO.N,/SCL_EEPROM*%
X96647000Y-70677000D03*
%TO.P,U3,7,~{WC}*%
%TO.N,unconnected-(U3-Pad7)*%
X95377000Y-70677000D03*
%TO.P,U3,8,VCC*%
%TO.N,/3V3*%
X94107000Y-70677000D03*
%TD*%
D16*
%TO.P,J1,1,Pin_1*%
%TO.N,Net-(C1-Pad1)*%
X108077000Y-77993000D03*
D17*
%TO.P,J1,2,Pin_2*%
%TO.N,GND*%
X108077000Y-80533000D03*
%TO.P,J1,3,Pin_3*%
%TO.N,/A0*%
X108077000Y-83073000D03*
%TD*%
D18*
%TO.P,C2,1*%
%TO.N,/3V3*%
X112522000Y-73688000D03*
%TO.P,C2,2*%
%TO.N,GND*%
X112522000Y-74648000D03*
%TD*%
D19*
%TO.P,U1,1,AVDDVCSEL*%
%TO.N,/3V3*%
X112852000Y-72428000D03*
%TO.P,U1,2,AVSSVCSEL*%
%TO.N,GND*%
X112052000Y-72418000D03*
%TO.P,U1,3,GND*%
X111252000Y-72428000D03*
%TO.P,U1,4,GND*%
X110452000Y-72428000D03*
%TO.P,U1,5,XSHUT*%
%TO.N,Net-(R1-Pad2)*%
X109652000Y-72428000D03*
%TO.P,U1,6,GND*%
%TO.N,GND*%
X109652000Y-71628000D03*
%TO.P,U1,7,GPIO1*%
%TO.N,Net-(R2-Pad2)*%
X109652000Y-70828000D03*
%TO.P,U1,8,DNC*%
%TO.N,unconnected-(U1-Pad8)*%
X110452000Y-70828000D03*
%TO.P,U1,9,SDA*%
%TO.N,/SDA*%
X111252000Y-70828000D03*
%TO.P,U1,10,SCL*%
%TO.N,/SCL*%
X112052000Y-70828000D03*
%TO.P,U1,11,AVDD*%
%TO.N,/3V3*%
X112852000Y-70828000D03*
%TO.P,U1,12,GND*%
%TO.N,GND*%
X112852000Y-71628000D03*
%TD*%
D14*
%TO.P,R2,1*%
%TO.N,/3V3*%
X106590000Y-70200000D03*
%TO.P,R2,2*%
%TO.N,Net-(R2-Pad2)*%
X107610000Y-70200000D03*
%TD*%
D20*
%TO.P,D1,1,K*%
%TO.N,GND*%
X98552000Y-66827500D03*
%TO.P,D1,2,A*%
%TO.N,Net-(D1-Pad2)*%
X98552000Y-65252500D03*
%TD*%
D18*
%TO.P,C4,1*%
%TO.N,/3V3*%
X113538000Y-73688000D03*
%TO.P,C4,2*%
%TO.N,GND*%
X113538000Y-74648000D03*
%TD*%
D21*
%TO.N,GND*%
X115062000Y-67818000D03*
X100584000Y-74676000D03*
X112014000Y-83312000D03*
X100584000Y-71628000D03*
X113030000Y-68834000D03*
X115570000Y-64008000D03*
X96012000Y-73152000D03*
X110236000Y-68834000D03*
X102108000Y-69850000D03*
X110744000Y-74676000D03*
X112014000Y-79248000D03*
X118618000Y-76708000D03*
X118618000Y-74676000D03*
X108966000Y-68834000D03*
X109220000Y-74676000D03*
X116078000Y-79502000D03*
X118618000Y-67056000D03*
X110490000Y-80772000D03*
X107696000Y-68834000D03*
X118618000Y-69342000D03*
X106500000Y-71400000D03*
X107696000Y-74676000D03*
X115062000Y-69342000D03*
X104140000Y-73152000D03*
X118618000Y-71120000D03*
X104013000Y-66675000D03*
X118618000Y-72898000D03*
X115062000Y-74676000D03*
X115062000Y-71120000D03*
X103378000Y-68834000D03*
X106426000Y-68834000D03*
X114554000Y-76708000D03*
X107800000Y-71400000D03*
X104140000Y-71628000D03*
X114554000Y-80772000D03*
X100584000Y-76200000D03*
X104013000Y-67564000D03*
X113284000Y-77978000D03*
X100584000Y-73152000D03*
X97282000Y-73152000D03*
X94742000Y-73152000D03*
X117348000Y-78232000D03*
X115062000Y-72898000D03*
X113284000Y-82042000D03*
X100584000Y-70358000D03*
X112776000Y-66040000D03*
X104013000Y-65786000D03*
%TO.N,/3V3*%
X104495600Y-64185800D03*
X104496500Y-63280000D03*
X104495600Y-62331600D03*
%TO.N,/SDA_EEPROM*%
X98806000Y-70358000D03*
%TO.N,/SDA*%
X110998000Y-66802000D03*
%TO.N,/SCL*%
X111996500Y-66720000D03*
%TO.N,/SCL_EEPROM*%
X102108000Y-68834000D03*
%TO.N,/A0*%
X107442000Y-63246000D03*
X107442000Y-64262000D03*
X107442000Y-62230000D03*
%TD*%
D22*
%TO.N,GND*%
X111252000Y-72428000D02*
X111252000Y-71882000D01*
X112052000Y-72418000D02*
X112052000Y-71844000D01*
X112852000Y-71628000D02*
X112268000Y-71628000D01*
X109652000Y-71628000D02*
X108458000Y-71628000D01*
X110490000Y-71628000D02*
X109652000Y-71628000D01*
X111252000Y-71882000D02*
X111506000Y-71628000D01*
X111506000Y-71628000D02*
X110490000Y-71628000D01*
X112052000Y-71844000D02*
X112268000Y-71628000D01*
X110452000Y-71666000D02*
X110490000Y-71628000D01*
X112268000Y-71628000D02*
X111506000Y-71628000D01*
X110452000Y-72428000D02*
X110452000Y-71666000D01*
D23*
%TO.N,Net-(D1-Pad2)*%
X98042000Y-64514000D02*
X98042000Y-63754000D01*
X98552000Y-65024000D02*
X98042000Y-64514000D01*
X98552000Y-65252500D02*
X98552000Y-65024000D01*
%TO.N,/3V3*%
X104496500Y-63905500D02*
X104496500Y-63280000D01*
D22*
X104495600Y-64185800D02*
X104495600Y-62331600D01*
D23*
X99062000Y-62990000D02*
X99062000Y-63754000D01*
D22*
X105156000Y-68326000D02*
X105156000Y-67818000D01*
D23*
X102870000Y-65532000D02*
X104496500Y-63905500D01*
X101346000Y-68072000D02*
X102870000Y-66548000D01*
D22*
X112852000Y-72428000D02*
X112852000Y-72466000D01*
X104495600Y-64617600D02*
X104495600Y-64185800D01*
X113792000Y-71120000D02*
X113500000Y-70828000D01*
X112852000Y-72428000D02*
X113500000Y-72428000D01*
D23*
X102870000Y-66548000D02*
X102870000Y-65532000D01*
X103446500Y-62230000D02*
X99822000Y-62230000D01*
X106590000Y-70200000D02*
X105212000Y-70200000D01*
X105212000Y-70200000D02*
X105156000Y-70144000D01*
D22*
X106200000Y-73688000D02*
X105156000Y-72644000D01*
D23*
X106590000Y-73490000D02*
X106788000Y-73688000D01*
D22*
X113500000Y-70828000D02*
X112852000Y-70828000D01*
D23*
X99822000Y-62230000D02*
X99062000Y-62990000D01*
D22*
X106788000Y-73688000D02*
X106200000Y-73688000D01*
X113792000Y-72136000D02*
X113792000Y-71120000D01*
D23*
X94107000Y-70677000D02*
X94107000Y-70401337D01*
D22*
X112852000Y-72466000D02*
X113538000Y-73152000D01*
D23*
X104496500Y-63280000D02*
X103446500Y-62230000D01*
D22*
X113538000Y-73152000D02*
X113538000Y-73688000D01*
X112522000Y-73688000D02*
X106788000Y-73688000D01*
X105156000Y-70144000D02*
X105156000Y-67818000D01*
X113500000Y-72428000D02*
X113792000Y-72136000D01*
X105156000Y-65278000D02*
X104495600Y-64617600D01*
D23*
X106590000Y-72600000D02*
X106590000Y-73490000D01*
D22*
X102823500Y-75438000D02*
X102823500Y-70658500D01*
X105156000Y-67818000D02*
X105156000Y-65278000D01*
X113538000Y-73688000D02*
X112522000Y-73688000D01*
X105156000Y-72644000D02*
X105156000Y-70144000D01*
D23*
X104394000Y-63382500D02*
X104496500Y-63280000D01*
X96436337Y-68072000D02*
X101346000Y-68072000D01*
X94107000Y-70401337D02*
X96436337Y-68072000D01*
D22*
X102823500Y-70658500D02*
X105156000Y-68326000D01*
D23*
%TO.N,/SDA_EEPROM*%
X98806000Y-70358000D02*
X98236000Y-70358000D01*
X98236000Y-70358000D02*
X97917000Y-70677000D01*
%TO.N,/SDA*%
X111252000Y-70828000D02*
X111252000Y-67056000D01*
X111252000Y-67056000D02*
X110998000Y-66802000D01*
%TO.N,/SCL*%
X112052000Y-66775500D02*
X111996500Y-66720000D01*
X112052000Y-70828000D02*
X112052000Y-66775500D01*
%TO.N,/SCL_EEPROM*%
X97282000Y-68834000D02*
X96647000Y-69469000D01*
X102108000Y-68834000D02*
X97282000Y-68834000D01*
X96647000Y-69469000D02*
X96647000Y-70677000D01*
D24*
%TO.N,/A0*%
X108077000Y-83073000D02*
X110221000Y-83073000D01*
X116840000Y-76454000D02*
X116840000Y-70612000D01*
X113030000Y-80264000D02*
X116840000Y-76454000D01*
X116840000Y-67818000D02*
X114554000Y-65532000D01*
X114046000Y-65024000D02*
X111252000Y-65024000D01*
X116840000Y-70612000D02*
X116840000Y-67818000D01*
X107442000Y-64516000D02*
X107442000Y-64262000D01*
X107442000Y-63246000D02*
X107442000Y-62230000D01*
X107950000Y-65024000D02*
X107442000Y-64516000D01*
X110221000Y-83073000D02*
X113030000Y-80264000D01*
X111252000Y-65024000D02*
X107950000Y-65024000D01*
X107442000Y-64262000D02*
X107442000Y-63246000D01*
X114554000Y-65532000D02*
X114046000Y-65024000D01*
D23*
%TO.N,Net-(R1-Pad2)*%
X109652000Y-72428000D02*
X108772000Y-72428000D01*
X108600000Y-72600000D02*
X108650000Y-72550000D01*
X107610000Y-72600000D02*
X108600000Y-72600000D01*
X108772000Y-72428000D02*
X108650000Y-72550000D01*
%TO.N,Net-(R2-Pad2)*%
X108700000Y-70200000D02*
X107610000Y-70200000D01*
X109328000Y-70828000D02*
X108700000Y-70200000D01*
X109652000Y-70828000D02*
X109328000Y-70828000D01*
D22*
%TO.N,Net-(C1-Pad1)*%
X104366000Y-76962000D02*
X104366000Y-76020500D01*
X104381000Y-77993000D02*
X104366000Y-77978000D01*
X108077000Y-77993000D02*
X104381000Y-77993000D01*
X104366000Y-76020500D02*
X104948500Y-75438000D01*
X104366000Y-77978000D02*
X104366000Y-76962000D01*
%TD*%
%TA.AperFunction,Conductor*%
%TO.N,GND*%
G36*
X93508556Y-61466002D02*
G01*
X93555049Y-61519658D01*
X93565153Y-61589932D01*
X93535659Y-61654512D01*
X93504858Y-61680285D01*
X93450196Y-61712805D01*
X93443945Y-61717053D01*
X93250733Y-61866115D01*
X93242267Y-61877773D01*
X93248871Y-61889661D01*
X94987188Y-63627978D01*
X95001132Y-63635592D01*
X95002965Y-63635461D01*
X95009580Y-63631210D01*
X96750162Y-61890628D01*
X96757174Y-61877787D01*
X96749379Y-61867098D01*
X96579886Y-61733481D01*
X96573663Y-61729156D01*
X96492326Y-61679605D01*
X96444557Y-61627082D01*
X96432767Y-61557071D01*
X96460699Y-61491800D01*
X96519485Y-61451992D01*
X96557879Y-61446000D01*
X99432118Y-61446000D01*
X99500239Y-61466002D01*
X99546732Y-61519658D01*
X99556836Y-61589932D01*
X99527342Y-61654512D01*
X99506180Y-61673935D01*
X99477519Y-61694759D01*
X99467595Y-61701278D01*
X99436224Y-61719830D01*
X99436219Y-61719834D01*
X99429401Y-61723866D01*
X99415014Y-61738253D01*
X99399980Y-61751094D01*
X99383513Y-61763058D01*
X99378460Y-61769166D01*
X99355228Y-61797249D01*
X99347238Y-61806029D01*
X98668517Y-62484750D01*
X98660191Y-62492326D01*
X98653697Y-62496447D01*
X98648274Y-62502222D01*
X98606915Y-62546265D01*
X98604160Y-62549107D01*
X98584361Y-62568906D01*
X98581937Y-62572031D01*
X98581929Y-62572040D01*
X98581863Y-62572126D01*
X98574155Y-62581151D01*
X98543783Y-62613494D01*
X98539965Y-62620438D01*
X98539964Y-62620440D01*
X98533978Y-62631329D01*
X98523127Y-62647847D01*
X98510650Y-62663933D01*
X98493024Y-62704666D01*
X98487807Y-62715314D01*
X98466431Y-62754197D01*
X98464460Y-62761872D01*
X98464458Y-62761878D01*
X98461369Y-62773911D01*
X98454966Y-62792613D01*
X98446883Y-62811292D01*
X98445644Y-62819114D01*
X98445643Y-62819118D01*
X98444104Y-62828838D01*
X98413692Y-62892991D01*
X98353425Y-62930518D01*
X98291191Y-62930161D01*
X98290979Y-62931323D01*
X98284643Y-62930165D01*
X98278466Y-62928371D01*
X98272059Y-62927867D01*
X98272055Y-62927866D01*
X98244444Y-62925693D01*
X98244438Y-62925693D01*
X98241989Y-62925500D01*
X98042122Y-62925500D01*
X97842012Y-62925501D01*
X97805534Y-62928371D01*
X97765562Y-62939984D01*
X97677727Y-62965502D01*
X97606730Y-62965299D01*
X97547114Y-62926745D01*
X97527602Y-62896055D01*
X97450172Y-62723363D01*
X97446655Y-62716636D01*
X97279054Y-62438252D01*
X97274757Y-62431999D01*
X97133617Y-62251022D01*
X97121823Y-62242551D01*
X97110113Y-62249097D01*
X95372022Y-63987188D01*
X95364408Y-64001132D01*
X95364539Y-64002965D01*
X95368790Y-64009580D01*
X97108825Y-65749615D01*
X97121948Y-65756781D01*
X97132250Y-65749391D01*
X97241429Y-65615285D01*
X97245842Y-65609144D01*
X97336608Y-65465287D01*
X97389874Y-65418349D01*
X97460062Y-65407659D01*
X97524886Y-65436613D01*
X97563766Y-65496018D01*
X97567934Y-65519631D01*
X97568500Y-65519572D01*
X97579022Y-65620982D01*
X97632692Y-65781849D01*
X97721929Y-65926055D01*
X97746322Y-65950405D01*
X97747159Y-65951241D01*
X97781238Y-66013523D01*
X97776235Y-66084343D01*
X97747314Y-66129432D01*
X97726702Y-66150080D01*
X97717690Y-66161491D01*
X97636447Y-66293291D01*
X97630303Y-66306468D01*
X97581421Y-66453843D01*
X97578555Y-66467210D01*
X97569386Y-66556700D01*
X97573475Y-66570624D01*
X97574865Y-66571829D01*
X97582548Y-66573500D01*
X99516885Y-66573500D01*
X99532124Y-66569025D01*
X99533329Y-66567635D01*
X99534842Y-66560679D01*
X99534663Y-66557218D01*
X99525196Y-66465979D01*
X99522303Y-66452583D01*
X99473170Y-66305313D01*
X99466996Y-66292134D01*
X99385530Y-66160486D01*
X99376494Y-66149085D01*
X99356842Y-66129467D01*
X99322763Y-66067184D01*
X99327766Y-65996364D01*
X99356686Y-65951277D01*
X99377692Y-65930234D01*
X99382864Y-65925053D01*
X99390198Y-65913156D01*
X99432043Y-65845269D01*
X99471849Y-65780692D01*
X99479780Y-65756781D01*
X99523072Y-65626262D01*
X99523072Y-65626260D01*
X99525238Y-65619731D01*
X99535500Y-65519572D01*
X99535500Y-64985428D01*
X99524978Y-64884018D01*
X99471308Y-64723151D01*
X99467458Y-64716929D01*
X99467454Y-64716921D01*
X99448910Y-64686953D01*
X99430073Y-64618501D01*
X99451235Y-64550732D01*
X99491916Y-64512198D01*
X99587720Y-64455540D01*
X99594541Y-64451506D01*
X99709506Y-64336541D01*
X99764517Y-64243523D01*
X99788234Y-64203419D01*
X99788234Y-64203418D01*
X99792269Y-64196596D01*
X99806467Y-64147728D01*
X99835834Y-64046644D01*
X99837629Y-64040466D01*
X99840200Y-64007809D01*
X99840307Y-64006444D01*
X99840307Y-64006438D01*
X99840500Y-64003989D01*
X99840499Y-63504012D01*
X99837629Y-63467534D01*
X99792269Y-63311404D01*
X99785182Y-63299420D01*
X99767725Y-63230603D01*
X99790244Y-63163272D01*
X99804543Y-63146189D01*
X100048327Y-62902405D01*
X100110639Y-62868379D01*
X100137422Y-62865500D01*
X101020069Y-62865500D01*
X101088190Y-62885502D01*
X101134683Y-62939158D01*
X101144787Y-63009432D01*
X101115293Y-63074012D01*
X101083070Y-63100619D01*
X100950376Y-63177229D01*
X100945469Y-63181647D01*
X100945468Y-63181648D01*
X100828947Y-63286565D01*
X100811579Y-63302203D01*
X100701798Y-63453303D01*
X100625832Y-63623926D01*
X100587000Y-63806615D01*
X100587000Y-63993385D01*
X100588372Y-63999837D01*
X100588372Y-63999842D01*
X100602259Y-64065173D01*
X100625832Y-64176074D01*
X100628517Y-64182104D01*
X100628517Y-64182105D01*
X100684097Y-64306939D01*
X100701798Y-64346697D01*
X100705678Y-64352038D01*
X100705679Y-64352039D01*
X100772879Y-64444531D01*
X100811579Y-64497797D01*
X100816481Y-64502210D01*
X100816482Y-64502212D01*
X100945468Y-64618352D01*
X100950376Y-64622771D01*
X100956097Y-64626074D01*
X100970839Y-64634585D01*
X101112124Y-64716156D01*
X101160924Y-64732012D01*
X101283474Y-64771831D01*
X101283475Y-64771831D01*
X101289753Y-64773871D01*
X101296316Y-64774561D01*
X101296317Y-64774561D01*
X101319097Y-64776955D01*
X101428937Y-64788500D01*
X101522063Y-64788500D01*
X101631903Y-64776955D01*
X101654683Y-64774561D01*
X101654684Y-64774561D01*
X101661247Y-64773871D01*
X101667525Y-64771831D01*
X101667526Y-64771831D01*
X101790076Y-64732012D01*
X101838876Y-64716156D01*
X101980162Y-64634585D01*
X101994903Y-64626074D01*
X102000624Y-64622771D01*
X102005532Y-64618352D01*
X102134518Y-64502212D01*
X102134519Y-64502210D01*
X102139421Y-64497797D01*
X102178121Y-64444531D01*
X102245321Y-64352039D01*
X102245322Y-64352038D01*
X102249202Y-64346697D01*
X102266904Y-64306939D01*
X102322483Y-64182105D01*
X102322483Y-64182104D01*
X102325168Y-64176074D01*
X102348741Y-64065173D01*
X102362628Y-63999842D01*
X102362628Y-63999837D01*
X102364000Y-63993385D01*
X102364000Y-63806615D01*
X102325168Y-63623926D01*
X102249202Y-63453303D01*
X102139421Y-63302203D01*
X102122054Y-63286565D01*
X102005532Y-63181648D01*
X102005531Y-63181647D01*
X102000624Y-63177229D01*
X101867931Y-63100619D01*
X101818938Y-63049237D01*
X101805502Y-62979523D01*
X101831888Y-62913612D01*
X101889720Y-62872430D01*
X101930931Y-62865500D01*
X103131078Y-62865500D01*
X103199199Y-62885502D01*
X103220173Y-62902405D01*
X103613867Y-63296099D01*
X103647893Y-63358411D01*
X103650082Y-63372023D01*
X103659118Y-63457991D01*
X103714423Y-63628203D01*
X103717722Y-63633917D01*
X103720411Y-63639957D01*
X103718735Y-63640703D01*
X103733100Y-63694315D01*
X103733100Y-63717977D01*
X103713098Y-63786098D01*
X103696195Y-63807072D01*
X102476517Y-65026750D01*
X102468191Y-65034326D01*
X102461697Y-65038447D01*
X102456274Y-65044222D01*
X102414915Y-65088265D01*
X102412160Y-65091107D01*
X102392361Y-65110906D01*
X102389937Y-65114031D01*
X102389929Y-65114040D01*
X102389863Y-65114126D01*
X102382155Y-65123151D01*
X102351783Y-65155494D01*
X102347965Y-65162438D01*
X102347964Y-65162440D01*
X102341978Y-65173329D01*
X102331127Y-65189847D01*
X102318650Y-65205933D01*
X102301024Y-65246666D01*
X102295807Y-65257314D01*
X102274431Y-65296197D01*
X102272460Y-65303872D01*
X102272458Y-65303878D01*
X102269369Y-65315911D01*
X102262966Y-65334613D01*
X102254883Y-65353292D01*
X102253644Y-65361117D01*
X102247940Y-65397127D01*
X102245535Y-65408740D01*
X102234500Y-65451718D01*
X102234500Y-65472065D01*
X102232949Y-65491776D01*
X102229765Y-65511879D01*
X102230511Y-65519771D01*
X102233941Y-65556056D01*
X102234500Y-65567914D01*
X102234500Y-66232577D01*
X102214498Y-66300698D01*
X102197595Y-66321672D01*
X101119672Y-67399595D01*
X101057360Y-67433621D01*
X101030577Y-67436500D01*
X99619062Y-67436500D01*
X99550941Y-67416498D01*
X99504448Y-67362842D01*
X99494344Y-67292568D01*
X99499469Y-67270834D01*
X99522578Y-67201160D01*
X99525445Y-67187790D01*
X99534614Y-67098300D01*
X99530525Y-67084376D01*
X99529135Y-67083171D01*
X99521452Y-67081500D01*
X97587115Y-67081500D01*
X97571876Y-67085975D01*
X97570671Y-67087365D01*
X97569158Y-67094321D01*
X97569337Y-67097782D01*
X97578804Y-67189021D01*
X97581697Y-67202417D01*
X97604453Y-67270624D01*
X97607037Y-67341573D01*
X97570854Y-67402657D01*
X97507390Y-67434482D01*
X97484929Y-67436500D01*
X96515369Y-67436500D01*
X96504130Y-67435970D01*
X96496618Y-67434291D01*
X96488693Y-67434540D01*
X96488692Y-67434540D01*
X96428307Y-67436438D01*
X96424349Y-67436500D01*
X96396354Y-67436500D01*
X96392420Y-67436997D01*
X96392418Y-67436997D01*
X96392331Y-67437008D01*
X96380497Y-67437940D01*
X96336132Y-67439335D01*
X96328519Y-67441547D01*
X96328518Y-67441547D01*
X96316589Y-67445013D01*
X96297225Y-67449023D01*
X96284897Y-67450580D01*
X96284895Y-67450580D01*
X96277038Y-67451573D01*
X96269674Y-67454489D01*
X96269669Y-67454490D01*
X96235781Y-67467907D01*
X96224552Y-67471752D01*
X96208042Y-67476549D01*
X96181944Y-67484131D01*
X96175117Y-67488169D01*
X96175114Y-67488170D01*
X96164431Y-67494488D01*
X96146673Y-67503188D01*
X96135122Y-67507761D01*
X96135116Y-67507765D01*
X96127749Y-67510681D01*
X96121338Y-67515339D01*
X96121336Y-67515340D01*
X96091849Y-67536764D01*
X96081927Y-67543281D01*
X96050569Y-67561826D01*
X96050565Y-67561829D01*
X96043739Y-67565866D01*
X96029355Y-67580250D01*
X96014321Y-67593091D01*
X96006409Y-67598839D01*
X95997850Y-67605058D01*
X95992797Y-67611166D01*
X95969560Y-67639255D01*
X95961570Y-67648035D01*
X94450423Y-69159182D01*
X94388111Y-69193208D01*
X94351442Y-69195699D01*
X94325958Y-69193693D01*
X94325950Y-69193693D01*
X94323502Y-69193500D01*
X93890498Y-69193500D01*
X93888050Y-69193693D01*
X93888042Y-69193693D01*
X93859579Y-69195933D01*
X93859574Y-69195934D01*
X93853169Y-69196438D01*
X93765641Y-69221867D01*
X93701012Y-69240643D01*
X93701010Y-69240644D01*
X93693399Y-69242855D01*
X93686572Y-69246892D01*
X93686573Y-69246892D01*
X93557020Y-69323509D01*
X93557017Y-69323511D01*
X93550193Y-69327547D01*
X93432547Y-69445193D01*
X93428511Y-69452017D01*
X93428509Y-69452020D01*
X93406234Y-69489685D01*
X93347855Y-69588399D01*
X93345644Y-69596010D01*
X93345643Y-69596012D01*
X93339661Y-69616604D01*
X93301438Y-69748169D01*
X93298500Y-69785498D01*
X93298500Y-71568502D01*
X93298693Y-71570950D01*
X93298693Y-71570958D01*
X93300177Y-71589804D01*
X93301438Y-71605831D01*
X93347855Y-71765601D01*
X93364505Y-71793755D01*
X93428509Y-71901980D01*
X93428511Y-71901983D01*
X93432547Y-71908807D01*
X93550193Y-72026453D01*
X93557017Y-72030489D01*
X93557020Y-72030491D01*
X93664589Y-72094107D01*
X93693399Y-72111145D01*
X93701010Y-72113356D01*
X93701012Y-72113357D01*
X93740135Y-72124723D01*
X93853169Y-72157562D01*
X93859574Y-72158066D01*
X93859579Y-72158067D01*
X93888042Y-72160307D01*
X93888050Y-72160307D01*
X93890498Y-72160500D01*
X94323502Y-72160500D01*
X94325950Y-72160307D01*
X94325958Y-72160307D01*
X94354421Y-72158067D01*
X94354426Y-72158066D01*
X94360831Y-72157562D01*
X94473865Y-72124723D01*
X94512988Y-72113357D01*
X94512990Y-72113356D01*
X94520601Y-72111145D01*
X94663807Y-72026453D01*
X94666489Y-72023771D01*
X94730861Y-71998498D01*
X94800484Y-72012400D01*
X94816312Y-72022572D01*
X94820193Y-72026453D01*
X94963399Y-72111145D01*
X94971010Y-72113356D01*
X94971012Y-72113357D01*
X95010135Y-72124723D01*
X95123169Y-72157562D01*
X95129574Y-72158066D01*
X95129579Y-72158067D01*
X95158042Y-72160307D01*
X95158050Y-72160307D01*
X95160498Y-72160500D01*
X95593502Y-72160500D01*
X95595950Y-72160307D01*
X95595958Y-72160307D01*
X95624421Y-72158067D01*
X95624426Y-72158066D01*
X95630831Y-72157562D01*
X95743865Y-72124723D01*
X95782988Y-72113357D01*
X95782990Y-72113356D01*
X95790601Y-72111145D01*
X95933807Y-72026453D01*
X95936489Y-72023771D01*
X96000861Y-71998498D01*
X96070484Y-72012400D01*
X96086312Y-72022572D01*
X96090193Y-72026453D01*
X96233399Y-72111145D01*
X96241010Y-72113356D01*
X96241012Y-72113357D01*
X96280135Y-72124723D01*
X96393169Y-72157562D01*
X96399574Y-72158066D01*
X96399579Y-72158067D01*
X96428042Y-72160307D01*
X96428050Y-72160307D01*
X96430498Y-72160500D01*
X96863502Y-72160500D01*
X96865950Y-72160307D01*
X96865958Y-72160307D01*
X96894421Y-72158067D01*
X96894426Y-72158066D01*
X96900831Y-72157562D01*
X97013865Y-72124723D01*
X97052988Y-72113357D01*
X97052990Y-72113356D01*
X97060601Y-72111145D01*
X97203807Y-72026453D01*
X97206489Y-72023771D01*
X97270861Y-71998498D01*
X97340484Y-72012400D01*
X97356312Y-72022572D01*
X97360193Y-72026453D01*
X97503399Y-72111145D01*
X97511010Y-72113356D01*
X97511012Y-72113357D01*
X97550135Y-72124723D01*
X97663169Y-72157562D01*
X97669574Y-72158066D01*
X97669579Y-72158067D01*
X97698042Y-72160307D01*
X97698050Y-72160307D01*
X97700498Y-72160500D01*
X98133502Y-72160500D01*
X98135950Y-72160307D01*
X98135958Y-72160307D01*
X98164421Y-72158067D01*
X98164426Y-72158066D01*
X98170831Y-72157562D01*
X98283865Y-72124723D01*
X98322988Y-72113357D01*
X98322990Y-72113356D01*
X98330601Y-72111145D01*
X98359411Y-72094107D01*
X98466980Y-72030491D01*
X98466983Y-72030489D01*
X98473807Y-72026453D01*
X98591453Y-71908807D01*
X98595489Y-71901983D01*
X98595491Y-71901980D01*
X98659495Y-71793755D01*
X98676145Y-71765601D01*
X98722562Y-71605831D01*
X98723824Y-71589804D01*
X98725307Y-71570958D01*
X98725307Y-71570950D01*
X98725500Y-71568502D01*
X98725500Y-71335400D01*
X98745502Y-71267279D01*
X98799158Y-71220786D01*
X98851500Y-71209400D01*
X98895486Y-71209400D01*
X98901939Y-71208028D01*
X98901943Y-71208028D01*
X98983016Y-71190795D01*
X99070546Y-71172190D01*
X99076577Y-71169505D01*
X99228015Y-71102081D01*
X99228017Y-71102080D01*
X99234045Y-71099396D01*
X99261929Y-71079137D01*
X99373492Y-70998082D01*
X99373494Y-70998080D01*
X99378836Y-70994199D01*
X99395012Y-70976234D01*
X99494172Y-70866105D01*
X99494173Y-70866104D01*
X99498591Y-70861197D01*
X99588077Y-70706203D01*
X99629496Y-70578729D01*
X99641342Y-70542270D01*
X99641342Y-70542269D01*
X99643382Y-70535991D01*
X99659575Y-70381933D01*
X99661400Y-70364565D01*
X99662090Y-70358000D01*
X99652495Y-70266712D01*
X99644072Y-70186573D01*
X99644072Y-70186572D01*
X99643382Y-70180009D01*
X99634833Y-70153696D01*
X99607476Y-70069500D01*
X99588077Y-70009797D01*
X99498591Y-69854803D01*
X99441771Y-69791697D01*
X99383258Y-69726712D01*
X99383257Y-69726711D01*
X99378836Y-69721801D01*
X99345299Y-69697435D01*
X99301947Y-69641213D01*
X99295872Y-69570477D01*
X99329004Y-69507685D01*
X99390824Y-69472774D01*
X99419362Y-69469500D01*
X101493262Y-69469500D01*
X101561383Y-69489502D01*
X101567323Y-69493564D01*
X101673185Y-69570477D01*
X101679955Y-69575396D01*
X101685983Y-69578080D01*
X101685985Y-69578081D01*
X101837421Y-69645504D01*
X101843454Y-69648190D01*
X101904295Y-69661122D01*
X102012057Y-69684028D01*
X102012061Y-69684028D01*
X102018514Y-69685400D01*
X102197486Y-69685400D01*
X102203939Y-69684028D01*
X102203943Y-69684028D01*
X102311705Y-69661122D01*
X102372546Y-69648190D01*
X102378573Y-69645507D01*
X102378581Y-69645504D01*
X102441729Y-69617389D01*
X102512096Y-69607955D01*
X102576393Y-69638062D01*
X102614206Y-69698151D01*
X102613529Y-69769145D01*
X102582075Y-69821587D01*
X102331965Y-70071697D01*
X102317559Y-70084077D01*
X102299936Y-70097046D01*
X102295192Y-70102629D01*
X102295193Y-70102629D01*
X102265521Y-70137555D01*
X102258591Y-70145071D01*
X102252847Y-70150815D01*
X102250573Y-70153689D01*
X102250567Y-70153696D01*
X102235128Y-70173211D01*
X102232337Y-70176615D01*
X102189555Y-70226972D01*
X102189552Y-70226976D01*
X102184816Y-70232551D01*
X102181488Y-70239068D01*
X102178111Y-70244132D01*
X102174884Y-70249356D01*
X102170340Y-70255100D01*
X102167241Y-70261731D01*
X102139268Y-70321582D01*
X102137337Y-70325533D01*
X102131751Y-70336472D01*
X102103957Y-70390904D01*
X102102216Y-70398019D01*
X102100079Y-70403765D01*
X102098155Y-70409548D01*
X102095056Y-70416179D01*
X102093566Y-70423343D01*
X102080108Y-70488047D01*
X102079139Y-70492329D01*
X102061696Y-70563612D01*
X102061000Y-70574830D01*
X102060961Y-70574828D01*
X102060728Y-70578729D01*
X102060339Y-70583088D01*
X102058848Y-70590256D01*
X102059046Y-70597573D01*
X102060954Y-70668077D01*
X102061000Y-70671486D01*
X102061000Y-74521479D01*
X102040998Y-74589600D01*
X102034826Y-74598249D01*
X102030136Y-74602947D01*
X101941151Y-74747308D01*
X101887762Y-74908269D01*
X101877500Y-75008428D01*
X101877500Y-75867572D01*
X101877837Y-75870818D01*
X101877837Y-75870822D01*
X101879502Y-75886865D01*
X101888022Y-75968982D01*
X101941692Y-76129849D01*
X102030929Y-76274055D01*
X102150947Y-76393864D01*
X102295308Y-76482849D01*
X102302256Y-76485154D01*
X102302257Y-76485154D01*
X102449738Y-76534072D01*
X102449740Y-76534072D01*
X102456269Y-76536238D01*
X102510461Y-76541790D01*
X102576187Y-76568631D01*
X102616969Y-76626746D01*
X102621568Y-76689770D01*
X102621232Y-76691609D01*
X102624052Y-76705031D01*
X102635513Y-76708000D01*
X103451500Y-76708000D01*
X103519621Y-76728002D01*
X103566114Y-76781658D01*
X103577500Y-76834000D01*
X103577500Y-77197484D01*
X103577693Y-77199932D01*
X103577693Y-77199940D01*
X103579184Y-77218876D01*
X103580394Y-77234254D01*
X103582187Y-77240426D01*
X103582188Y-77240431D01*
X103598497Y-77296565D01*
X103603500Y-77331718D01*
X103603500Y-77608282D01*
X103598497Y-77643435D01*
X103582188Y-77699569D01*
X103582187Y-77699574D01*
X103580394Y-77705746D01*
X103579890Y-77712151D01*
X103579889Y-77712156D01*
X103579191Y-77721031D01*
X103577500Y-77742516D01*
X103577500Y-78213484D01*
X103577693Y-78215932D01*
X103577693Y-78215940D01*
X103579184Y-78234876D01*
X103580394Y-78250254D01*
X103626106Y-78407597D01*
X103630141Y-78414419D01*
X103630141Y-78414420D01*
X103642454Y-78435240D01*
X103660000Y-78499379D01*
X103660000Y-78771558D01*
X103663973Y-78785089D01*
X103671871Y-78786224D01*
X103797784Y-78749643D01*
X103812222Y-78743395D01*
X103821372Y-78737984D01*
X103890188Y-78720526D01*
X103949647Y-78737985D01*
X103957531Y-78742647D01*
X103966403Y-78747894D01*
X103974014Y-78750105D01*
X103974016Y-78750106D01*
X103992583Y-78755500D01*
X104123746Y-78793606D01*
X104130151Y-78794110D01*
X104130156Y-78794111D01*
X104158060Y-78796307D01*
X104158068Y-78796307D01*
X104160516Y-78796500D01*
X104571484Y-78796500D01*
X104573932Y-78796307D01*
X104573940Y-78796307D01*
X104601844Y-78794111D01*
X104601849Y-78794110D01*
X104608254Y-78793606D01*
X104722197Y-78760503D01*
X104757349Y-78755500D01*
X106592500Y-78755500D01*
X106660621Y-78775502D01*
X106707114Y-78829158D01*
X106718500Y-78881500D01*
X106718500Y-78891134D01*
X106725255Y-78953316D01*
X106776385Y-79089705D01*
X106863739Y-79206261D01*
X106980295Y-79293615D01*
X106988704Y-79296767D01*
X106988705Y-79296768D01*
X107097960Y-79337726D01*
X107154725Y-79380367D01*
X107179425Y-79446929D01*
X107164218Y-79516278D01*
X107144825Y-79542759D01*
X107021590Y-79671717D01*
X107015104Y-79679727D01*
X106895098Y-79855649D01*
X106890000Y-79864623D01*
X106800338Y-80057783D01*
X106796775Y-80067470D01*
X106741389Y-80267183D01*
X106742912Y-80275607D01*
X106755292Y-80279000D01*
X109395344Y-80279000D01*
X109408875Y-80275027D01*
X109410180Y-80265947D01*
X109368214Y-80098875D01*
X109364894Y-80089124D01*
X109279972Y-79893814D01*
X109275105Y-79884739D01*
X109159426Y-79705926D01*
X109153136Y-79697757D01*
X109009293Y-79539677D01*
X108978241Y-79475831D01*
X108986635Y-79405333D01*
X109031812Y-79350564D01*
X109058256Y-79336895D01*
X109165297Y-79296767D01*
X109173705Y-79293615D01*
X109290261Y-79206261D01*
X109377615Y-79089705D01*
X109428745Y-78953316D01*
X109435500Y-78891134D01*
X109435500Y-77094866D01*
X109428745Y-77032684D01*
X109377615Y-76896295D01*
X109290261Y-76779739D01*
X109173705Y-76692385D01*
X109037316Y-76641255D01*
X108975134Y-76634500D01*
X107178866Y-76634500D01*
X107116684Y-76641255D01*
X106980295Y-76692385D01*
X106863739Y-76779739D01*
X106776385Y-76896295D01*
X106725255Y-77032684D01*
X106718500Y-77094866D01*
X106718500Y-77104500D01*
X106698498Y-77172621D01*
X106644842Y-77219114D01*
X106592500Y-77230500D01*
X105280500Y-77230500D01*
X105212379Y-77210498D01*
X105165886Y-77156842D01*
X105154500Y-77104500D01*
X105154500Y-76726516D01*
X105151606Y-76689746D01*
X105151099Y-76688001D01*
X105158359Y-76619059D01*
X105202787Y-76563681D01*
X105261869Y-76541696D01*
X105277477Y-76540077D01*
X105310125Y-76536690D01*
X105310130Y-76536689D01*
X105316982Y-76535978D01*
X105477849Y-76482308D01*
X105622055Y-76393071D01*
X105741864Y-76273053D01*
X105830849Y-76128692D01*
X105839872Y-76101488D01*
X105882072Y-75974262D01*
X105882072Y-75974260D01*
X105884238Y-75967731D01*
X105894500Y-75867572D01*
X105894500Y-75008428D01*
X105884689Y-74913871D01*
X111713776Y-74913871D01*
X111750357Y-75039784D01*
X111756604Y-75054220D01*
X111831876Y-75181499D01*
X111841516Y-75193926D01*
X111946074Y-75298484D01*
X111958501Y-75308124D01*
X112085780Y-75383396D01*
X112100216Y-75389643D01*
X112243641Y-75431312D01*
X112251609Y-75432768D01*
X112265031Y-75429948D01*
X112268000Y-75418487D01*
X112268000Y-75416424D01*
X112776000Y-75416424D01*
X112780344Y-75431219D01*
X112790775Y-75433063D01*
X112800359Y-75431312D01*
X112943784Y-75389643D01*
X112958226Y-75383393D01*
X112965861Y-75378878D01*
X113034677Y-75361418D01*
X113094139Y-75378878D01*
X113101774Y-75383393D01*
X113116216Y-75389643D01*
X113259641Y-75431312D01*
X113267609Y-75432768D01*
X113281031Y-75429948D01*
X113284000Y-75418487D01*
X113284000Y-75416424D01*
X113792000Y-75416424D01*
X113796344Y-75431219D01*
X113806775Y-75433063D01*
X113816359Y-75431312D01*
X113959784Y-75389643D01*
X113974220Y-75383396D01*
X114101499Y-75308124D01*
X114113926Y-75298484D01*
X114218484Y-75193926D01*
X114228124Y-75181499D01*
X114303396Y-75054220D01*
X114309643Y-75039784D01*
X114344619Y-74919395D01*
X114344579Y-74905295D01*
X114337309Y-74902000D01*
X113810115Y-74902000D01*
X113794876Y-74906475D01*
X113793671Y-74907865D01*
X113792000Y-74915548D01*
X113792000Y-75416424D01*
X113284000Y-75416424D01*
X113284000Y-74920115D01*
X113279525Y-74904876D01*
X113278135Y-74903671D01*
X113270452Y-74902000D01*
X112794115Y-74902000D01*
X112778876Y-74906475D01*
X112777671Y-74907865D01*
X112776000Y-74915548D01*
X112776000Y-75416424D01*
X112268000Y-75416424D01*
X112268000Y-74920115D01*
X112263525Y-74904876D01*
X112262135Y-74903671D01*
X112254452Y-74902000D01*
X111728442Y-74902000D01*
X111714911Y-74905973D01*
X111713776Y-74913871D01*
X105884689Y-74913871D01*
X105883978Y-74907018D01*
X105830308Y-74746151D01*
X105741071Y-74601945D01*
X105735893Y-74596776D01*
X105709279Y-74570208D01*
X105675200Y-74507925D01*
X105680203Y-74437105D01*
X105722701Y-74380232D01*
X105789199Y-74355364D01*
X105851650Y-74366889D01*
X105863087Y-74372234D01*
X105867033Y-74374163D01*
X105932404Y-74407543D01*
X105939519Y-74409284D01*
X105945265Y-74411421D01*
X105951048Y-74413345D01*
X105957679Y-74416444D01*
X106029557Y-74431394D01*
X106033829Y-74432361D01*
X106105112Y-74449804D01*
X106110711Y-74450151D01*
X106110715Y-74450152D01*
X106116330Y-74450500D01*
X106116328Y-74450539D01*
X106120229Y-74450772D01*
X106124588Y-74451161D01*
X106131756Y-74452652D01*
X106139073Y-74452454D01*
X106209577Y-74450546D01*
X106212986Y-74450500D01*
X112152282Y-74450500D01*
X112187435Y-74455503D01*
X112243569Y-74471812D01*
X112243574Y-74471813D01*
X112249746Y-74473606D01*
X112256151Y-74474110D01*
X112256156Y-74474111D01*
X112284060Y-74476307D01*
X112284068Y-74476307D01*
X112286516Y-74476500D01*
X112757484Y-74476500D01*
X112759932Y-74476307D01*
X112759940Y-74476307D01*
X112787844Y-74474111D01*
X112787849Y-74474110D01*
X112794254Y-74473606D01*
X112800426Y-74471813D01*
X112800431Y-74471812D01*
X112856565Y-74455503D01*
X112891718Y-74450500D01*
X113168282Y-74450500D01*
X113203435Y-74455503D01*
X113259569Y-74471812D01*
X113259574Y-74471813D01*
X113265746Y-74473606D01*
X113272151Y-74474110D01*
X113272156Y-74474111D01*
X113300060Y-74476307D01*
X113300068Y-74476307D01*
X113302516Y-74476500D01*
X113773484Y-74476500D01*
X113775932Y-74476307D01*
X113775940Y-74476307D01*
X113803844Y-74474111D01*
X113803849Y-74474110D01*
X113810254Y-74473606D01*
X113909005Y-74444916D01*
X113959984Y-74430106D01*
X113959986Y-74430105D01*
X113967597Y-74427894D01*
X113984439Y-74417934D01*
X113995240Y-74411546D01*
X114059379Y-74394000D01*
X114331558Y-74394000D01*
X114345089Y-74390027D01*
X114346224Y-74382129D01*
X114309643Y-74256216D01*
X114303395Y-74241778D01*
X114297984Y-74232628D01*
X114280526Y-74163812D01*
X114297985Y-74104353D01*
X114303857Y-74094423D01*
X114307894Y-74087597D01*
X114353606Y-73930254D01*
X114356500Y-73893484D01*
X114356500Y-73482516D01*
X114353606Y-73445746D01*
X114307894Y-73288403D01*
X114308866Y-73288121D01*
X114300500Y-73247725D01*
X114300500Y-73219376D01*
X114301933Y-73200426D01*
X114304124Y-73186027D01*
X114304124Y-73186023D01*
X114305224Y-73178793D01*
X114300915Y-73125814D01*
X114300500Y-73115600D01*
X114300500Y-73107475D01*
X114297193Y-73079110D01*
X114296760Y-73074735D01*
X114291403Y-73008868D01*
X114290810Y-73001574D01*
X114288556Y-72994617D01*
X114287367Y-72988663D01*
X114285949Y-72982665D01*
X114285101Y-72975393D01*
X114260052Y-72906383D01*
X114258646Y-72902288D01*
X114244590Y-72858901D01*
X114242624Y-72787935D01*
X114275362Y-72730976D01*
X114283528Y-72722810D01*
X114297941Y-72710423D01*
X114309665Y-72701795D01*
X114315564Y-72697454D01*
X114349979Y-72656945D01*
X114356909Y-72649429D01*
X114362653Y-72643685D01*
X114364927Y-72640811D01*
X114364933Y-72640804D01*
X114380372Y-72621289D01*
X114383163Y-72617885D01*
X114425945Y-72567528D01*
X114425948Y-72567524D01*
X114430684Y-72561949D01*
X114434011Y-72555434D01*
X114437392Y-72550364D01*
X114440617Y-72545142D01*
X114445160Y-72539400D01*
X114476246Y-72472888D01*
X114478152Y-72468988D01*
X114484326Y-72456897D01*
X114511543Y-72403596D01*
X114513284Y-72396479D01*
X114515411Y-72390761D01*
X114517342Y-72384955D01*
X114520443Y-72378321D01*
X114535391Y-72306461D01*
X114536359Y-72302181D01*
X114551169Y-72241658D01*
X114553804Y-72230888D01*
X114554500Y-72219670D01*
X114554539Y-72219672D01*
X114554772Y-72215771D01*
X114555161Y-72211412D01*
X114556652Y-72204244D01*
X114554546Y-72126423D01*
X114554500Y-72123014D01*
X114554500Y-71187368D01*
X114555933Y-71168417D01*
X114558123Y-71154024D01*
X114558123Y-71154022D01*
X114559223Y-71146792D01*
X114555587Y-71102081D01*
X114554915Y-71093825D01*
X114554500Y-71083611D01*
X114554500Y-71075475D01*
X114551190Y-71047084D01*
X114550757Y-71042709D01*
X114545403Y-70976872D01*
X114545402Y-70976869D01*
X114544809Y-70969573D01*
X114542554Y-70962611D01*
X114541354Y-70956607D01*
X114539948Y-70950660D01*
X114539101Y-70943393D01*
X114514053Y-70874387D01*
X114512625Y-70870227D01*
X114492268Y-70807387D01*
X114492266Y-70807382D01*
X114490012Y-70800425D01*
X114486218Y-70794173D01*
X114483666Y-70788598D01*
X114480930Y-70783135D01*
X114478434Y-70776259D01*
X114438181Y-70714863D01*
X114435834Y-70711144D01*
X114410732Y-70669777D01*
X114397772Y-70648419D01*
X114390332Y-70639994D01*
X114390360Y-70639969D01*
X114387766Y-70637044D01*
X114384961Y-70633690D01*
X114380946Y-70627565D01*
X114324413Y-70574011D01*
X114321972Y-70571634D01*
X114086810Y-70336472D01*
X114074423Y-70322059D01*
X114065795Y-70310335D01*
X114061454Y-70304436D01*
X114020945Y-70270021D01*
X114013429Y-70263091D01*
X114007685Y-70257347D01*
X114004811Y-70255073D01*
X114004804Y-70255067D01*
X113985289Y-70239628D01*
X113981885Y-70236837D01*
X113931528Y-70194055D01*
X113931524Y-70194052D01*
X113925949Y-70189316D01*
X113919432Y-70185988D01*
X113914368Y-70182611D01*
X113909144Y-70179384D01*
X113903400Y-70174840D01*
X113858160Y-70153696D01*
X113836918Y-70143768D01*
X113832967Y-70141837D01*
X113774117Y-70111787D01*
X113767596Y-70108457D01*
X113760481Y-70106716D01*
X113754735Y-70104579D01*
X113748952Y-70102655D01*
X113742321Y-70099556D01*
X113670443Y-70084606D01*
X113666171Y-70083639D01*
X113594888Y-70066196D01*
X113589289Y-70065849D01*
X113589285Y-70065848D01*
X113583670Y-70065500D01*
X113583672Y-70065461D01*
X113579771Y-70065228D01*
X113575412Y-70064839D01*
X113568244Y-70063348D01*
X113560927Y-70063546D01*
X113490423Y-70065454D01*
X113487014Y-70065500D01*
X112813500Y-70065500D01*
X112745379Y-70045498D01*
X112698886Y-69991842D01*
X112687500Y-69939500D01*
X112687500Y-67259714D01*
X112704381Y-67196714D01*
X112775273Y-67073926D01*
X112775274Y-67073925D01*
X112778577Y-67068203D01*
X112807239Y-66979991D01*
X112831842Y-66904270D01*
X112831842Y-66904269D01*
X112833882Y-66897991D01*
X112834707Y-66890147D01*
X112851900Y-66726565D01*
X112852590Y-66720000D01*
X112839769Y-66598016D01*
X112834572Y-66548573D01*
X112834572Y-66548572D01*
X112833882Y-66542009D01*
X112824160Y-66512086D01*
X112780619Y-66378082D01*
X112778577Y-66371797D01*
X112689091Y-66216803D01*
X112605360Y-66123810D01*
X112574642Y-66059803D01*
X112583407Y-65989349D01*
X112628870Y-65934818D01*
X112698996Y-65913500D01*
X113625367Y-65913500D01*
X113693488Y-65933502D01*
X113714462Y-65950405D01*
X115913595Y-68149538D01*
X115947621Y-68211850D01*
X115950500Y-68238633D01*
X115950500Y-76033367D01*
X115930498Y-76101488D01*
X115913595Y-76122462D01*
X109889462Y-82146595D01*
X109827150Y-82180621D01*
X109800367Y-82183500D01*
X109160146Y-82183500D01*
X109092025Y-82163498D01*
X109066953Y-82142300D01*
X109010152Y-82079876D01*
X109010142Y-82079867D01*
X109006670Y-82076051D01*
X109002619Y-82072852D01*
X109002615Y-82072848D01*
X108835414Y-81940800D01*
X108835410Y-81940798D01*
X108831359Y-81937598D01*
X108789569Y-81914529D01*
X108739598Y-81864097D01*
X108724826Y-81794654D01*
X108749942Y-81728248D01*
X108777294Y-81701641D01*
X108952328Y-81576792D01*
X108960200Y-81570139D01*
X109111052Y-81419812D01*
X109117730Y-81411965D01*
X109242003Y-81239020D01*
X109247313Y-81230183D01*
X109341670Y-81039267D01*
X109345469Y-81029672D01*
X109407377Y-80825910D01*
X109409555Y-80815837D01*
X109410986Y-80804962D01*
X109408775Y-80790778D01*
X109395617Y-80787000D01*
X106760225Y-80787000D01*
X106746694Y-80790973D01*
X106745257Y-80800966D01*
X106775565Y-80935446D01*
X106778645Y-80945275D01*
X106858770Y-81142603D01*
X106863413Y-81151794D01*
X106974694Y-81333388D01*
X106980777Y-81341699D01*
X107120213Y-81502667D01*
X107127580Y-81509883D01*
X107291434Y-81645916D01*
X107299881Y-81651831D01*
X107368969Y-81692203D01*
X107417693Y-81743842D01*
X107430764Y-81813625D01*
X107404033Y-81879396D01*
X107363584Y-81912752D01*
X107350607Y-81919507D01*
X107346474Y-81922610D01*
X107346471Y-81922612D01*
X107322247Y-81940800D01*
X107171965Y-82053635D01*
X107017629Y-82215138D01*
X106891743Y-82399680D01*
X106797688Y-82602305D01*
X106737989Y-82817570D01*
X106714251Y-83039695D01*
X106727110Y-83262715D01*
X106728247Y-83267761D01*
X106728248Y-83267767D01*
X106752304Y-83374508D01*
X106776222Y-83480639D01*
X106837673Y-83631976D01*
X106855503Y-83675885D01*
X106860266Y-83687616D01*
X106862965Y-83692020D01*
X106924337Y-83792170D01*
X106976987Y-83878088D01*
X106980367Y-83881990D01*
X106989138Y-83892116D01*
X107123250Y-84046938D01*
X107295126Y-84189632D01*
X107488000Y-84302338D01*
X107696692Y-84382030D01*
X107701760Y-84383061D01*
X107701763Y-84383062D01*
X107809017Y-84404883D01*
X107915597Y-84426567D01*
X107920772Y-84426757D01*
X107920774Y-84426757D01*
X108133673Y-84434564D01*
X108133677Y-84434564D01*
X108138837Y-84434753D01*
X108143957Y-84434097D01*
X108143959Y-84434097D01*
X108355288Y-84407025D01*
X108355289Y-84407025D01*
X108360416Y-84406368D01*
X108365366Y-84404883D01*
X108569429Y-84343661D01*
X108569434Y-84343659D01*
X108574384Y-84342174D01*
X108774994Y-84243896D01*
X108956860Y-84114173D01*
X109072187Y-83999249D01*
X109134558Y-83965333D01*
X109161126Y-83962500D01*
X110141075Y-83962500D01*
X110160786Y-83964051D01*
X110167673Y-83965142D01*
X110167675Y-83965142D01*
X110174190Y-83966174D01*
X110180778Y-83965829D01*
X110180782Y-83965829D01*
X110240999Y-83962673D01*
X110247593Y-83962500D01*
X110267620Y-83962500D01*
X110270891Y-83962156D01*
X110270895Y-83962156D01*
X110287539Y-83960407D01*
X110294113Y-83959890D01*
X110354316Y-83956735D01*
X110354318Y-83956735D01*
X110360915Y-83956389D01*
X110374028Y-83952875D01*
X110393470Y-83949272D01*
X110394712Y-83949142D01*
X110400385Y-83948546D01*
X110400389Y-83948545D01*
X110406956Y-83947855D01*
X110470581Y-83927182D01*
X110476906Y-83925309D01*
X110484359Y-83923312D01*
X110541524Y-83907994D01*
X110553616Y-83901833D01*
X110571875Y-83894270D01*
X110584785Y-83890075D01*
X110642724Y-83856624D01*
X110648520Y-83853477D01*
X110708125Y-83823107D01*
X110718670Y-83814568D01*
X110734955Y-83803375D01*
X110741002Y-83799884D01*
X110741005Y-83799881D01*
X110746715Y-83796585D01*
X110751615Y-83792173D01*
X110751619Y-83792170D01*
X110796425Y-83751825D01*
X110801446Y-83747537D01*
X110814441Y-83737014D01*
X110817006Y-83734937D01*
X110831153Y-83720790D01*
X110835937Y-83716249D01*
X110880766Y-83675885D01*
X110880767Y-83675883D01*
X110885669Y-83671470D01*
X110893652Y-83660482D01*
X110906489Y-83645454D01*
X117412454Y-77139489D01*
X117427482Y-77126652D01*
X117438470Y-77118669D01*
X117445826Y-77110500D01*
X117483249Y-77068937D01*
X117487790Y-77064153D01*
X117501937Y-77050006D01*
X117514537Y-77034446D01*
X117518825Y-77029425D01*
X117559170Y-76984619D01*
X117559173Y-76984615D01*
X117563585Y-76979715D01*
X117566881Y-76974005D01*
X117566884Y-76974002D01*
X117570375Y-76967955D01*
X117581568Y-76951670D01*
X117590107Y-76941125D01*
X117620477Y-76881520D01*
X117623624Y-76875724D01*
X117633391Y-76858807D01*
X117657075Y-76817785D01*
X117661270Y-76804875D01*
X117668833Y-76786616D01*
X117674994Y-76774524D01*
X117692309Y-76709906D01*
X117694182Y-76703582D01*
X117712813Y-76646240D01*
X117714855Y-76639956D01*
X117716272Y-76626470D01*
X117719876Y-76607023D01*
X117721680Y-76600293D01*
X117721680Y-76600292D01*
X117723389Y-76593915D01*
X117724714Y-76568631D01*
X117726890Y-76527113D01*
X117727407Y-76520539D01*
X117729156Y-76503895D01*
X117729156Y-76503891D01*
X117729500Y-76500620D01*
X117729500Y-76480593D01*
X117729673Y-76473999D01*
X117732829Y-76413782D01*
X117732829Y-76413778D01*
X117733174Y-76407190D01*
X117731051Y-76393785D01*
X117729500Y-76374075D01*
X117729500Y-67897925D01*
X117731051Y-67878214D01*
X117732142Y-67871327D01*
X117732142Y-67871325D01*
X117733174Y-67864810D01*
X117729673Y-67798008D01*
X117729500Y-67791414D01*
X117729500Y-67771380D01*
X117727406Y-67751454D01*
X117726889Y-67744880D01*
X117723734Y-67684681D01*
X117723734Y-67684678D01*
X117723388Y-67678085D01*
X117719876Y-67664977D01*
X117716275Y-67645544D01*
X117715546Y-67638614D01*
X117715545Y-67638610D01*
X117714855Y-67632044D01*
X117694178Y-67568408D01*
X117692307Y-67562091D01*
X117676703Y-67503852D01*
X117676702Y-67503849D01*
X117674994Y-67497475D01*
X117671998Y-67491595D01*
X117671995Y-67491587D01*
X117668832Y-67485379D01*
X117661269Y-67467122D01*
X117659116Y-67460496D01*
X117659116Y-67460495D01*
X117657075Y-67454215D01*
X117623629Y-67396285D01*
X117620483Y-67390491D01*
X117606395Y-67362842D01*
X117590107Y-67330875D01*
X117581568Y-67320330D01*
X117570375Y-67304045D01*
X117566884Y-67297998D01*
X117566881Y-67297995D01*
X117563585Y-67292285D01*
X117559173Y-67287385D01*
X117559170Y-67287381D01*
X117518825Y-67242575D01*
X117514537Y-67237554D01*
X117504014Y-67224559D01*
X117501937Y-67221994D01*
X117487790Y-67207847D01*
X117483249Y-67203063D01*
X117442885Y-67158234D01*
X117442883Y-67158233D01*
X117438470Y-67153331D01*
X117427482Y-67145348D01*
X117412454Y-67132511D01*
X116401925Y-66121982D01*
X117243142Y-66121982D01*
X117250668Y-66132415D01*
X117396463Y-66249848D01*
X117402648Y-66254244D01*
X117678363Y-66426195D01*
X117685034Y-66429817D01*
X117979414Y-66567402D01*
X117986468Y-66570195D01*
X118295257Y-66671420D01*
X118302570Y-66673339D01*
X118621298Y-66736738D01*
X118628789Y-66737764D01*
X118952823Y-66762413D01*
X118960386Y-66762531D01*
X119285021Y-66748074D01*
X119292562Y-66747282D01*
X119613115Y-66693926D01*
X119620479Y-66692240D01*
X119932315Y-66600757D01*
X119939424Y-66598198D01*
X120238003Y-66469919D01*
X120244770Y-66466515D01*
X120525764Y-66303301D01*
X120532071Y-66299111D01*
X120750005Y-66134588D01*
X120758461Y-66123197D01*
X120751743Y-66110953D01*
X119012812Y-64372022D01*
X118998868Y-64364408D01*
X118997035Y-64364539D01*
X118990420Y-64368790D01*
X117250257Y-66108953D01*
X117243142Y-66121982D01*
X116401925Y-66121982D01*
X114731489Y-64451546D01*
X114718652Y-64436518D01*
X114710669Y-64425530D01*
X114660937Y-64380751D01*
X114656153Y-64376210D01*
X114642006Y-64362063D01*
X114626446Y-64349463D01*
X114621425Y-64345175D01*
X114576619Y-64304830D01*
X114576615Y-64304827D01*
X114571715Y-64300415D01*
X114566005Y-64297119D01*
X114566002Y-64297116D01*
X114559955Y-64293625D01*
X114543670Y-64282432D01*
X114533125Y-64273893D01*
X114473520Y-64243523D01*
X114467724Y-64240376D01*
X114461975Y-64237057D01*
X114409785Y-64206925D01*
X114396875Y-64202730D01*
X114378616Y-64195167D01*
X114366524Y-64189006D01*
X114301906Y-64171691D01*
X114295582Y-64169818D01*
X114286981Y-64167023D01*
X114231956Y-64149145D01*
X114225389Y-64148455D01*
X114225385Y-64148454D01*
X114219712Y-64147858D01*
X114218470Y-64147728D01*
X114199028Y-64144125D01*
X114185915Y-64140611D01*
X114179318Y-64140265D01*
X114179316Y-64140265D01*
X114119113Y-64137110D01*
X114112539Y-64136593D01*
X114095895Y-64134844D01*
X114095891Y-64134844D01*
X114092620Y-64134500D01*
X114072593Y-64134500D01*
X114065999Y-64134327D01*
X114005782Y-64131171D01*
X114005778Y-64131171D01*
X113999190Y-64130826D01*
X113992675Y-64131858D01*
X113992673Y-64131858D01*
X113985786Y-64132949D01*
X113966075Y-64134500D01*
X113537412Y-64134500D01*
X113469291Y-64114498D01*
X113422798Y-64060842D01*
X113412312Y-63996621D01*
X113413000Y-63993385D01*
X113413000Y-63974858D01*
X116237299Y-63974858D01*
X116253456Y-64299410D01*
X116254287Y-64306939D01*
X116309318Y-64627198D01*
X116311051Y-64634585D01*
X116404156Y-64945909D01*
X116406759Y-64953022D01*
X116536595Y-65250913D01*
X116540037Y-65257669D01*
X116704720Y-65537803D01*
X116708943Y-65544088D01*
X116865792Y-65749608D01*
X116877316Y-65758069D01*
X116889382Y-65751408D01*
X118627978Y-64012812D01*
X118635592Y-63998868D01*
X118635461Y-63997035D01*
X118631210Y-63990420D01*
X116890864Y-62250074D01*
X116877929Y-62243011D01*
X116867367Y-62250671D01*
X116741785Y-62408268D01*
X116737428Y-62414467D01*
X116566913Y-62691094D01*
X116563333Y-62697770D01*
X116427287Y-62992878D01*
X116424537Y-62999929D01*
X116324927Y-63309251D01*
X116323044Y-63316584D01*
X116261316Y-63635632D01*
X116260329Y-63643132D01*
X116237378Y-63967277D01*
X116237299Y-63974858D01*
X113413000Y-63974858D01*
X113413000Y-63806615D01*
X113374168Y-63623926D01*
X113298202Y-63453303D01*
X113188421Y-63302203D01*
X113171054Y-63286565D01*
X113054532Y-63181648D01*
X113054531Y-63181647D01*
X113049624Y-63177229D01*
X112887876Y-63083844D01*
X112781366Y-63049237D01*
X112716526Y-63028169D01*
X112716525Y-63028169D01*
X112710247Y-63026129D01*
X112703684Y-63025439D01*
X112703683Y-63025439D01*
X112680903Y-63023045D01*
X112571063Y-63011500D01*
X112477937Y-63011500D01*
X112368097Y-63023045D01*
X112345317Y-63025439D01*
X112345316Y-63025439D01*
X112338753Y-63026129D01*
X112332475Y-63028169D01*
X112332474Y-63028169D01*
X112267634Y-63049237D01*
X112161124Y-63083844D01*
X111999376Y-63177229D01*
X111994469Y-63181647D01*
X111994468Y-63181648D01*
X111877947Y-63286565D01*
X111860579Y-63302203D01*
X111750798Y-63453303D01*
X111674832Y-63623926D01*
X111636000Y-63806615D01*
X111636000Y-63993385D01*
X111636674Y-63996558D01*
X111624123Y-64065173D01*
X111575619Y-64117017D01*
X111511588Y-64134500D01*
X108457500Y-64134500D01*
X108389379Y-64114498D01*
X108342886Y-64060842D01*
X108331500Y-64008500D01*
X108331500Y-62183380D01*
X108316855Y-62044044D01*
X108259075Y-61866215D01*
X108199518Y-61763058D01*
X108168888Y-61710006D01*
X108165585Y-61704285D01*
X108161165Y-61699376D01*
X108161162Y-61699372D01*
X108122389Y-61656310D01*
X108091672Y-61592303D01*
X108100436Y-61521849D01*
X108145899Y-61467318D01*
X108216025Y-61446000D01*
X117440435Y-61446000D01*
X117508556Y-61466002D01*
X117555049Y-61519658D01*
X117565153Y-61589932D01*
X117535659Y-61654512D01*
X117504858Y-61680285D01*
X117450196Y-61712805D01*
X117443945Y-61717053D01*
X117250733Y-61866115D01*
X117242267Y-61877773D01*
X117248871Y-61889661D01*
X118987188Y-63627978D01*
X119001132Y-63635592D01*
X119002965Y-63635461D01*
X119009580Y-63631210D01*
X120750162Y-61890628D01*
X120757174Y-61877787D01*
X120749379Y-61867098D01*
X120579886Y-61733481D01*
X120573663Y-61729156D01*
X120492326Y-61679605D01*
X120444557Y-61627082D01*
X120432767Y-61557071D01*
X120460699Y-61491800D01*
X120519485Y-61451992D01*
X120557879Y-61446000D01*
X121361000Y-61446000D01*
X121429121Y-61466002D01*
X121475614Y-61519658D01*
X121487000Y-61572000D01*
X121487000Y-62337698D01*
X121466998Y-62405819D01*
X121413342Y-62452312D01*
X121343068Y-62462416D01*
X121278488Y-62432922D01*
X121261643Y-62415184D01*
X121133617Y-62251022D01*
X121121823Y-62242551D01*
X121110113Y-62249097D01*
X119372022Y-63987188D01*
X119364408Y-64001132D01*
X119364539Y-64002965D01*
X119368790Y-64009580D01*
X121108825Y-65749615D01*
X121121948Y-65756781D01*
X121132250Y-65749391D01*
X121241429Y-65615285D01*
X121245838Y-65609149D01*
X121254437Y-65595520D01*
X121307703Y-65548581D01*
X121377891Y-65537891D01*
X121442715Y-65566844D01*
X121481596Y-65626248D01*
X121487000Y-65662754D01*
X121487000Y-86304000D01*
X121466998Y-86372121D01*
X121413342Y-86418614D01*
X121361000Y-86430000D01*
X92629000Y-86430000D01*
X92560879Y-86409998D01*
X92514386Y-86356342D01*
X92503000Y-86304000D01*
X92503000Y-78246775D01*
X102620937Y-78246775D01*
X102622688Y-78256359D01*
X102664357Y-78399784D01*
X102670604Y-78414220D01*
X102745876Y-78541499D01*
X102755516Y-78553926D01*
X102860074Y-78658484D01*
X102872501Y-78668124D01*
X102999780Y-78743396D01*
X103014216Y-78749643D01*
X103134605Y-78784619D01*
X103148705Y-78784579D01*
X103152000Y-78777309D01*
X103152000Y-78250115D01*
X103147525Y-78234876D01*
X103146135Y-78233671D01*
X103138452Y-78232000D01*
X102637576Y-78232000D01*
X102622781Y-78236344D01*
X102620937Y-78246775D01*
X92503000Y-78246775D01*
X92503000Y-77230775D01*
X102620937Y-77230775D01*
X102622688Y-77240359D01*
X102664357Y-77383784D01*
X102670607Y-77398226D01*
X102675122Y-77405861D01*
X102692582Y-77474677D01*
X102675122Y-77534139D01*
X102670607Y-77541774D01*
X102664357Y-77556216D01*
X102622688Y-77699641D01*
X102621232Y-77707609D01*
X102624052Y-77721031D01*
X102635513Y-77724000D01*
X103133885Y-77724000D01*
X103149124Y-77719525D01*
X103150329Y-77718135D01*
X103152000Y-77710452D01*
X103152000Y-77234115D01*
X103147525Y-77218876D01*
X103146135Y-77217671D01*
X103138452Y-77216000D01*
X102637576Y-77216000D01*
X102622781Y-77220344D01*
X102620937Y-77230775D01*
X92503000Y-77230775D01*
X92503000Y-76518502D01*
X93298500Y-76518502D01*
X93298693Y-76520950D01*
X93298693Y-76520958D01*
X93300927Y-76549333D01*
X93301438Y-76555831D01*
X93325878Y-76639956D01*
X93345586Y-76707790D01*
X93347855Y-76715601D01*
X93351892Y-76722427D01*
X93428509Y-76851980D01*
X93428511Y-76851983D01*
X93432547Y-76858807D01*
X93550193Y-76976453D01*
X93557016Y-76980488D01*
X93557020Y-76980491D01*
X93658558Y-77040540D01*
X93693399Y-77061145D01*
X93701010Y-77063356D01*
X93701012Y-77063357D01*
X93753231Y-77078528D01*
X93853169Y-77107562D01*
X93859574Y-77108066D01*
X93859579Y-77108067D01*
X93888042Y-77110307D01*
X93888050Y-77110307D01*
X93890498Y-77110500D01*
X94323502Y-77110500D01*
X94325950Y-77110307D01*
X94325958Y-77110307D01*
X94354421Y-77108067D01*
X94354426Y-77108066D01*
X94360831Y-77107562D01*
X94460769Y-77078528D01*
X94512988Y-77063357D01*
X94512990Y-77063356D01*
X94520601Y-77061145D01*
X94663807Y-76976453D01*
X94666489Y-76973771D01*
X94730861Y-76948498D01*
X94800484Y-76962400D01*
X94816312Y-76972572D01*
X94820193Y-76976453D01*
X94963399Y-77061145D01*
X94971010Y-77063356D01*
X94971012Y-77063357D01*
X95023231Y-77078528D01*
X95123169Y-77107562D01*
X95129574Y-77108066D01*
X95129579Y-77108067D01*
X95158042Y-77110307D01*
X95158050Y-77110307D01*
X95160498Y-77110500D01*
X95593502Y-77110500D01*
X95595950Y-77110307D01*
X95595958Y-77110307D01*
X95624421Y-77108067D01*
X95624426Y-77108066D01*
X95630831Y-77107562D01*
X95730769Y-77078528D01*
X95782988Y-77063357D01*
X95782990Y-77063356D01*
X95790601Y-77061145D01*
X95933807Y-76976453D01*
X95936489Y-76973771D01*
X96000861Y-76948498D01*
X96070484Y-76962400D01*
X96086312Y-76972572D01*
X96090193Y-76976453D01*
X96233399Y-77061145D01*
X96241010Y-77063356D01*
X96241012Y-77063357D01*
X96293231Y-77078528D01*
X96393169Y-77107562D01*
X96399574Y-77108066D01*
X96399579Y-77108067D01*
X96428042Y-77110307D01*
X96428050Y-77110307D01*
X96430498Y-77110500D01*
X96863502Y-77110500D01*
X96865950Y-77110307D01*
X96865958Y-77110307D01*
X96894421Y-77108067D01*
X96894426Y-77108066D01*
X96900831Y-77107562D01*
X97000769Y-77078528D01*
X97052988Y-77063357D01*
X97052990Y-77063356D01*
X97060601Y-77061145D01*
X97203807Y-76976453D01*
X97206747Y-76973513D01*
X97271271Y-76948179D01*
X97340894Y-76962080D01*
X97359640Y-76974129D01*
X97367323Y-76980089D01*
X97496779Y-77056648D01*
X97511210Y-77062893D01*
X97645605Y-77101939D01*
X97659706Y-77101899D01*
X97663000Y-77094630D01*
X97663000Y-77088878D01*
X98171000Y-77088878D01*
X98174973Y-77102409D01*
X98182871Y-77103544D01*
X98322790Y-77062893D01*
X98337221Y-77056648D01*
X98466678Y-76980089D01*
X98479104Y-76970449D01*
X98585449Y-76864104D01*
X98595089Y-76851678D01*
X98671648Y-76722221D01*
X98677893Y-76707790D01*
X98720269Y-76561935D01*
X98722570Y-76549333D01*
X98724807Y-76520916D01*
X98725000Y-76515986D01*
X98725000Y-75899115D01*
X98720525Y-75883876D01*
X98719135Y-75882671D01*
X98711452Y-75881000D01*
X98189115Y-75881000D01*
X98173876Y-75885475D01*
X98172671Y-75886865D01*
X98171000Y-75894548D01*
X98171000Y-77088878D01*
X97663000Y-77088878D01*
X97663000Y-75354885D01*
X98171000Y-75354885D01*
X98175475Y-75370124D01*
X98176865Y-75371329D01*
X98184548Y-75373000D01*
X98706884Y-75373000D01*
X98722123Y-75368525D01*
X98723328Y-75367135D01*
X98724999Y-75359452D01*
X98724999Y-74738017D01*
X98724805Y-74733080D01*
X98722570Y-74704664D01*
X98720270Y-74692069D01*
X98677893Y-74546210D01*
X98671648Y-74531779D01*
X98595089Y-74402322D01*
X98585449Y-74389896D01*
X98479104Y-74283551D01*
X98466678Y-74273911D01*
X98337221Y-74197352D01*
X98322790Y-74191107D01*
X98188395Y-74152061D01*
X98174294Y-74152101D01*
X98171000Y-74159370D01*
X98171000Y-75354885D01*
X97663000Y-75354885D01*
X97663000Y-74165122D01*
X97659027Y-74151591D01*
X97651129Y-74150456D01*
X97511210Y-74191107D01*
X97496779Y-74197352D01*
X97367324Y-74273910D01*
X97359636Y-74279874D01*
X97293551Y-74305821D01*
X97223928Y-74291920D01*
X97207842Y-74281582D01*
X97203807Y-74277547D01*
X97060601Y-74192855D01*
X97052990Y-74190644D01*
X97052988Y-74190643D01*
X96960633Y-74163812D01*
X96900831Y-74146438D01*
X96894426Y-74145934D01*
X96894421Y-74145933D01*
X96865958Y-74143693D01*
X96865950Y-74143693D01*
X96863502Y-74143500D01*
X96430498Y-74143500D01*
X96428050Y-74143693D01*
X96428042Y-74143693D01*
X96399579Y-74145933D01*
X96399574Y-74145934D01*
X96393169Y-74146438D01*
X96333367Y-74163812D01*
X96241012Y-74190643D01*
X96241010Y-74190644D01*
X96233399Y-74192855D01*
X96090193Y-74277547D01*
X96087511Y-74280229D01*
X96023139Y-74305502D01*
X95953516Y-74291600D01*
X95937688Y-74281428D01*
X95933807Y-74277547D01*
X95790601Y-74192855D01*
X95782990Y-74190644D01*
X95782988Y-74190643D01*
X95690633Y-74163812D01*
X95630831Y-74146438D01*
X95624426Y-74145934D01*
X95624421Y-74145933D01*
X95595958Y-74143693D01*
X95595950Y-74143693D01*
X95593502Y-74143500D01*
X95160498Y-74143500D01*
X95158050Y-74143693D01*
X95158042Y-74143693D01*
X95129579Y-74145933D01*
X95129574Y-74145934D01*
X95123169Y-74146438D01*
X95063367Y-74163812D01*
X94971012Y-74190643D01*
X94971010Y-74190644D01*
X94963399Y-74192855D01*
X94820193Y-74277547D01*
X94817511Y-74280229D01*
X94753139Y-74305502D01*
X94683516Y-74291600D01*
X94667688Y-74281428D01*
X94663807Y-74277547D01*
X94520601Y-74192855D01*
X94512990Y-74190644D01*
X94512988Y-74190643D01*
X94420633Y-74163812D01*
X94360831Y-74146438D01*
X94354426Y-74145934D01*
X94354421Y-74145933D01*
X94325958Y-74143693D01*
X94325950Y-74143693D01*
X94323502Y-74143500D01*
X93890498Y-74143500D01*
X93888050Y-74143693D01*
X93888042Y-74143693D01*
X93859579Y-74145933D01*
X93859574Y-74145934D01*
X93853169Y-74146438D01*
X93793367Y-74163812D01*
X93701012Y-74190643D01*
X93701010Y-74190644D01*
X93693399Y-74192855D01*
X93686572Y-74196892D01*
X93686573Y-74196892D01*
X93557020Y-74273509D01*
X93557017Y-74273511D01*
X93550193Y-74277547D01*
X93432547Y-74395193D01*
X93428511Y-74402017D01*
X93428509Y-74402020D01*
X93385875Y-74474111D01*
X93347855Y-74538399D01*
X93345644Y-74546010D01*
X93345643Y-74546012D01*
X93338085Y-74572029D01*
X93301438Y-74698169D01*
X93300934Y-74704574D01*
X93300933Y-74704579D01*
X93298693Y-74733042D01*
X93298500Y-74735498D01*
X93298500Y-76518502D01*
X92503000Y-76518502D01*
X92503000Y-66121982D01*
X93243142Y-66121982D01*
X93250668Y-66132415D01*
X93396463Y-66249848D01*
X93402648Y-66254244D01*
X93678363Y-66426195D01*
X93685034Y-66429817D01*
X93979414Y-66567402D01*
X93986468Y-66570195D01*
X94295257Y-66671420D01*
X94302570Y-66673339D01*
X94621298Y-66736738D01*
X94628789Y-66737764D01*
X94952823Y-66762413D01*
X94960386Y-66762531D01*
X95285021Y-66748074D01*
X95292562Y-66747282D01*
X95613115Y-66693926D01*
X95620479Y-66692240D01*
X95932315Y-66600757D01*
X95939424Y-66598198D01*
X96238003Y-66469919D01*
X96244770Y-66466515D01*
X96525764Y-66303301D01*
X96532071Y-66299111D01*
X96750005Y-66134588D01*
X96758461Y-66123197D01*
X96751743Y-66110953D01*
X95012812Y-64372022D01*
X94998868Y-64364408D01*
X94997035Y-64364539D01*
X94990420Y-64368790D01*
X93250257Y-66108953D01*
X93243142Y-66121982D01*
X92503000Y-66121982D01*
X92503000Y-65647024D01*
X92523002Y-65578903D01*
X92576658Y-65532410D01*
X92646932Y-65522306D01*
X92711512Y-65551800D01*
X92729163Y-65570582D01*
X92865792Y-65749608D01*
X92877316Y-65758069D01*
X92889382Y-65751408D01*
X94627978Y-64012812D01*
X94635592Y-63998868D01*
X94635461Y-63997035D01*
X94631210Y-63990420D01*
X92890864Y-62250074D01*
X92877929Y-62243011D01*
X92867367Y-62250671D01*
X92741785Y-62408268D01*
X92737427Y-62414469D01*
X92736261Y-62416360D01*
X92735816Y-62416760D01*
X92735245Y-62417573D01*
X92735059Y-62417442D01*
X92683489Y-62463855D01*
X92613418Y-62475279D01*
X92548294Y-62447006D01*
X92508793Y-62388012D01*
X92503000Y-62350246D01*
X92503000Y-61572000D01*
X92523002Y-61503879D01*
X92576658Y-61457386D01*
X92629000Y-61446000D01*
X93440435Y-61446000D01*
X93508556Y-61466002D01*
G37*
%TD.AperFunction*%
%TA.AperFunction,Conductor*%
G36*
X104311532Y-70352972D02*
G01*
X104368368Y-70395519D01*
X104393179Y-70462039D01*
X104393500Y-70471028D01*
X104393500Y-72576624D01*
X104392067Y-72595574D01*
X104389876Y-72609973D01*
X104389876Y-72609979D01*
X104388776Y-72617208D01*
X104389369Y-72624500D01*
X104389369Y-72624503D01*
X104393085Y-72670183D01*
X104393500Y-72680398D01*
X104393500Y-72688525D01*
X104396811Y-72716924D01*
X104397238Y-72721244D01*
X104403191Y-72794426D01*
X104405447Y-72801388D01*
X104406643Y-72807376D01*
X104408051Y-72813333D01*
X104408899Y-72820607D01*
X104411397Y-72827489D01*
X104411398Y-72827493D01*
X104433945Y-72889607D01*
X104435355Y-72893711D01*
X104457987Y-72963575D01*
X104461787Y-72969838D01*
X104464325Y-72975380D01*
X104467067Y-72980856D01*
X104469566Y-72987741D01*
X104473581Y-72993865D01*
X104509815Y-73049132D01*
X104512130Y-73052800D01*
X104550227Y-73115581D01*
X104553941Y-73119786D01*
X104553943Y-73119789D01*
X104557667Y-73124005D01*
X104557638Y-73124031D01*
X104560238Y-73126962D01*
X104563042Y-73130316D01*
X104567054Y-73136435D01*
X104572366Y-73141467D01*
X104623586Y-73189988D01*
X104626028Y-73192366D01*
X105613190Y-74179528D01*
X105625579Y-74193944D01*
X105635149Y-74206949D01*
X105659413Y-74273670D01*
X105643754Y-74342918D01*
X105593141Y-74392707D01*
X105523646Y-74407229D01*
X105481481Y-74396103D01*
X105476692Y-74393151D01*
X105413630Y-74372234D01*
X105322262Y-74341928D01*
X105322260Y-74341928D01*
X105315731Y-74339762D01*
X105215572Y-74329500D01*
X104681428Y-74329500D01*
X104678182Y-74329837D01*
X104678178Y-74329837D01*
X104649555Y-74332807D01*
X104580018Y-74340022D01*
X104419151Y-74393692D01*
X104274945Y-74482929D01*
X104155136Y-74602947D01*
X104066151Y-74747308D01*
X104012762Y-74908269D01*
X104012061Y-74915113D01*
X104011288Y-74922656D01*
X103984446Y-74988383D01*
X103926331Y-75029164D01*
X103855393Y-75032052D01*
X103794155Y-74996130D01*
X103762059Y-74932802D01*
X103760617Y-74922814D01*
X103759690Y-74913876D01*
X103759689Y-74913871D01*
X103758978Y-74907018D01*
X103705308Y-74746151D01*
X103616071Y-74601945D01*
X103612832Y-74598712D01*
X103586617Y-74533946D01*
X103586000Y-74521491D01*
X103586000Y-71026528D01*
X103606002Y-70958407D01*
X103622905Y-70937433D01*
X104178405Y-70381933D01*
X104240717Y-70347907D01*
X104311532Y-70352972D01*
G37*
%TD.AperFunction*%
%TA.AperFunction,Conductor*%
G36*
X112035621Y-72188002D02*
G01*
X112082114Y-72241658D01*
X112093500Y-72294000D01*
X112093500Y-72305181D01*
X112092067Y-72324130D01*
X112091530Y-72327662D01*
X112090196Y-72333112D01*
X112089500Y-72344330D01*
X112089500Y-72398625D01*
X112088067Y-72417575D01*
X112084776Y-72439208D01*
X112085483Y-72447900D01*
X112085563Y-72456242D01*
X112085886Y-72462204D01*
X112085432Y-72469516D01*
X112086672Y-72476731D01*
X112087680Y-72482596D01*
X112089500Y-72503937D01*
X112089500Y-72510525D01*
X112092635Y-72537414D01*
X112080654Y-72607389D01*
X112032743Y-72659782D01*
X111967482Y-72678000D01*
X110536500Y-72678000D01*
X110468379Y-72657998D01*
X110421886Y-72604342D01*
X110410500Y-72552000D01*
X110410500Y-72304000D01*
X110430502Y-72235879D01*
X110484158Y-72189386D01*
X110536500Y-72178000D01*
X111235885Y-72178000D01*
X111252559Y-72173104D01*
X111288057Y-72168000D01*
X111967500Y-72168000D01*
X112035621Y-72188002D01*
G37*
%TD.AperFunction*%
%TA.AperFunction,Conductor*%
G36*
X108452698Y-70855502D02*
G01*
X108473673Y-70872405D01*
X108648355Y-71047088D01*
X108822755Y-71221488D01*
X108830325Y-71229807D01*
X108834447Y-71236303D01*
X108840225Y-71241729D01*
X108840226Y-71241730D01*
X108854253Y-71254902D01*
X108890218Y-71316114D01*
X108894000Y-71346752D01*
X108894000Y-71359885D01*
X108898475Y-71375124D01*
X108899865Y-71376329D01*
X108907548Y-71378000D01*
X108928300Y-71378000D01*
X108996421Y-71398002D01*
X109029127Y-71428436D01*
X109033355Y-71434078D01*
X109033357Y-71434080D01*
X109038739Y-71441261D01*
X109045923Y-71446645D01*
X109153372Y-71527174D01*
X109195887Y-71584033D01*
X109200913Y-71654852D01*
X109166853Y-71717145D01*
X109153372Y-71728826D01*
X109104304Y-71765601D01*
X109102002Y-71767326D01*
X109035496Y-71792174D01*
X109026437Y-71792500D01*
X108851020Y-71792500D01*
X108839786Y-71791970D01*
X108832281Y-71790292D01*
X108764571Y-71792420D01*
X108763988Y-71792438D01*
X108760031Y-71792500D01*
X108732017Y-71792500D01*
X108728092Y-71792996D01*
X108728091Y-71792996D01*
X108727996Y-71793008D01*
X108716151Y-71793941D01*
X108686330Y-71794878D01*
X108679718Y-71795086D01*
X108679717Y-71795086D01*
X108671795Y-71795335D01*
X108652252Y-71801013D01*
X108632888Y-71805023D01*
X108620560Y-71806580D01*
X108620558Y-71806580D01*
X108612701Y-71807573D01*
X108605337Y-71810489D01*
X108605332Y-71810490D01*
X108571444Y-71823907D01*
X108560215Y-71827752D01*
X108543535Y-71832598D01*
X108517607Y-71840131D01*
X108510780Y-71844169D01*
X108510777Y-71844170D01*
X108500094Y-71850488D01*
X108482336Y-71859188D01*
X108470785Y-71863761D01*
X108470779Y-71863765D01*
X108463412Y-71866681D01*
X108457001Y-71871339D01*
X108456999Y-71871340D01*
X108427512Y-71892764D01*
X108417590Y-71899281D01*
X108386232Y-71917826D01*
X108386228Y-71917829D01*
X108379402Y-71921866D01*
X108373673Y-71927595D01*
X108373557Y-71927658D01*
X108367536Y-71932329D01*
X108366782Y-71931358D01*
X108311361Y-71961621D01*
X108284578Y-71964500D01*
X108256737Y-71964500D01*
X108188616Y-71944498D01*
X108167642Y-71927595D01*
X108142541Y-71902494D01*
X108131995Y-71896257D01*
X108009419Y-71823766D01*
X108009418Y-71823766D01*
X108002596Y-71819731D01*
X107994985Y-71817520D01*
X107994983Y-71817519D01*
X107852644Y-71776166D01*
X107852645Y-71776166D01*
X107846466Y-71774371D01*
X107840059Y-71773867D01*
X107840055Y-71773866D01*
X107812444Y-71771693D01*
X107812438Y-71771693D01*
X107809989Y-71771500D01*
X107610122Y-71771500D01*
X107410012Y-71771501D01*
X107373534Y-71774371D01*
X107302233Y-71795086D01*
X107225017Y-71817519D01*
X107225015Y-71817520D01*
X107217404Y-71819731D01*
X107210579Y-71823767D01*
X107210575Y-71823769D01*
X107164139Y-71851231D01*
X107095323Y-71868691D01*
X107035861Y-71851231D01*
X106989425Y-71823769D01*
X106989421Y-71823767D01*
X106982596Y-71819731D01*
X106974985Y-71817520D01*
X106974983Y-71817519D01*
X106832644Y-71776166D01*
X106832645Y-71776166D01*
X106826466Y-71774371D01*
X106820059Y-71773867D01*
X106820055Y-71773866D01*
X106792444Y-71771693D01*
X106792438Y-71771693D01*
X106789989Y-71771500D01*
X106590122Y-71771500D01*
X106390012Y-71771501D01*
X106353534Y-71774371D01*
X106282233Y-71795086D01*
X106205017Y-71817519D01*
X106205015Y-71817520D01*
X106197404Y-71819731D01*
X106190582Y-71823766D01*
X106190581Y-71823766D01*
X106108639Y-71872226D01*
X106039822Y-71889685D01*
X105972491Y-71867168D01*
X105928022Y-71811823D01*
X105918500Y-71763772D01*
X105918500Y-71036228D01*
X105938502Y-70968107D01*
X105992158Y-70921614D01*
X106062432Y-70911510D01*
X106108639Y-70927774D01*
X106157662Y-70956766D01*
X106197404Y-70980269D01*
X106205015Y-70982480D01*
X106205017Y-70982481D01*
X106295750Y-71008841D01*
X106353534Y-71025629D01*
X106359941Y-71026133D01*
X106359945Y-71026134D01*
X106387556Y-71028307D01*
X106387562Y-71028307D01*
X106390011Y-71028500D01*
X106589878Y-71028500D01*
X106789988Y-71028499D01*
X106826466Y-71025629D01*
X106934649Y-70994199D01*
X106974983Y-70982481D01*
X106974985Y-70982480D01*
X106982596Y-70980269D01*
X106989421Y-70976233D01*
X106989425Y-70976231D01*
X107035861Y-70948769D01*
X107104677Y-70931309D01*
X107164139Y-70948769D01*
X107210575Y-70976231D01*
X107210579Y-70976233D01*
X107217404Y-70980269D01*
X107225015Y-70982480D01*
X107225017Y-70982481D01*
X107315750Y-71008841D01*
X107373534Y-71025629D01*
X107379941Y-71026133D01*
X107379945Y-71026134D01*
X107407556Y-71028307D01*
X107407562Y-71028307D01*
X107410011Y-71028500D01*
X107609878Y-71028500D01*
X107809988Y-71028499D01*
X107846466Y-71025629D01*
X107954649Y-70994199D01*
X107994983Y-70982481D01*
X107994985Y-70982480D01*
X108002596Y-70980269D01*
X108042607Y-70956607D01*
X108135720Y-70901540D01*
X108142541Y-70897506D01*
X108167642Y-70872405D01*
X108229954Y-70838379D01*
X108256737Y-70835500D01*
X108384577Y-70835500D01*
X108452698Y-70855502D01*
G37*
%TD.AperFunction*%
%TA.AperFunction,Conductor*%
G36*
X106736096Y-61466002D02*
G01*
X106782589Y-61519658D01*
X106792693Y-61589932D01*
X106761611Y-61656310D01*
X106722838Y-61699372D01*
X106722835Y-61699376D01*
X106718415Y-61704285D01*
X106715112Y-61710006D01*
X106684483Y-61763058D01*
X106624925Y-61866215D01*
X106567145Y-62044044D01*
X106552500Y-62183380D01*
X106552500Y-64436075D01*
X106550949Y-64455785D01*
X106548826Y-64469190D01*
X106549171Y-64475778D01*
X106549171Y-64475782D01*
X106552327Y-64535999D01*
X106552500Y-64542593D01*
X106552500Y-64562620D01*
X106552844Y-64565891D01*
X106552844Y-64565895D01*
X106554593Y-64582539D01*
X106555110Y-64589113D01*
X106558611Y-64655915D01*
X106560320Y-64662292D01*
X106560320Y-64662293D01*
X106562124Y-64669023D01*
X106565728Y-64688470D01*
X106567145Y-64701956D01*
X106576537Y-64730861D01*
X106587818Y-64765582D01*
X106589691Y-64771906D01*
X106607006Y-64836524D01*
X106613167Y-64848616D01*
X106620730Y-64866875D01*
X106624925Y-64879785D01*
X106652760Y-64927997D01*
X106658376Y-64937724D01*
X106661523Y-64943520D01*
X106691893Y-65003125D01*
X106696050Y-65008258D01*
X106700432Y-65013670D01*
X106711625Y-65029955D01*
X106715116Y-65036002D01*
X106715119Y-65036005D01*
X106718415Y-65041715D01*
X106722827Y-65046615D01*
X106722830Y-65046619D01*
X106749669Y-65076425D01*
X106762889Y-65091107D01*
X106763175Y-65091425D01*
X106767463Y-65096446D01*
X106780063Y-65112006D01*
X106794210Y-65126153D01*
X106798751Y-65130937D01*
X106843530Y-65180669D01*
X106854518Y-65188652D01*
X106869546Y-65201489D01*
X107264511Y-65596454D01*
X107277348Y-65611482D01*
X107285331Y-65622470D01*
X107290233Y-65626883D01*
X107290234Y-65626885D01*
X107335063Y-65667249D01*
X107339847Y-65671790D01*
X107353993Y-65685936D01*
X107369555Y-65698537D01*
X107374564Y-65702815D01*
X107419379Y-65743168D01*
X107419382Y-65743170D01*
X107424285Y-65747585D01*
X107430001Y-65750885D01*
X107430005Y-65750888D01*
X107436038Y-65754371D01*
X107452334Y-65765570D01*
X107462874Y-65774106D01*
X107468756Y-65777103D01*
X107468759Y-65777105D01*
X107522486Y-65804481D01*
X107528281Y-65807627D01*
X107586215Y-65841075D01*
X107592499Y-65843117D01*
X107592504Y-65843119D01*
X107599121Y-65845269D01*
X107617385Y-65852834D01*
X107623590Y-65855996D01*
X107623595Y-65855998D01*
X107629475Y-65858994D01*
X107694111Y-65876313D01*
X107700412Y-65878180D01*
X107764044Y-65898855D01*
X107770609Y-65899545D01*
X107770618Y-65899547D01*
X107777543Y-65900275D01*
X107796976Y-65903876D01*
X107801964Y-65905212D01*
X107810084Y-65907388D01*
X107816677Y-65907734D01*
X107816680Y-65907734D01*
X107876881Y-65910889D01*
X107883456Y-65911406D01*
X107903380Y-65913500D01*
X107923413Y-65913500D01*
X107930007Y-65913673D01*
X107990217Y-65916829D01*
X107990222Y-65916829D01*
X107996809Y-65917174D01*
X108003324Y-65916142D01*
X108003326Y-65916142D01*
X108010213Y-65915051D01*
X108029924Y-65913500D01*
X110384638Y-65913500D01*
X110452759Y-65933502D01*
X110499252Y-65987158D01*
X110509356Y-66057432D01*
X110479862Y-66122012D01*
X110458702Y-66141434D01*
X110425164Y-66165801D01*
X110305409Y-66298803D01*
X110215923Y-66453797D01*
X110213881Y-66460082D01*
X110169064Y-66598016D01*
X110160618Y-66624009D01*
X110159928Y-66630572D01*
X110159928Y-66630573D01*
X110155635Y-66671420D01*
X110141910Y-66802000D01*
X110160618Y-66979991D01*
X110162658Y-66986269D01*
X110162658Y-66986270D01*
X110178743Y-67035774D01*
X110215923Y-67150203D01*
X110305409Y-67305197D01*
X110309827Y-67310104D01*
X110309828Y-67310105D01*
X110382208Y-67390491D01*
X110425164Y-67438199D01*
X110430506Y-67442080D01*
X110430508Y-67442082D01*
X110564561Y-67539477D01*
X110607915Y-67595699D01*
X110616500Y-67641413D01*
X110616500Y-69943500D01*
X110596498Y-70011621D01*
X110542842Y-70058114D01*
X110490500Y-70069500D01*
X110153866Y-70069500D01*
X110091684Y-70076255D01*
X110084285Y-70079029D01*
X110081146Y-70079775D01*
X110022854Y-70079775D01*
X110019715Y-70079029D01*
X110012316Y-70076255D01*
X109950134Y-70069500D01*
X109520423Y-70069500D01*
X109452302Y-70049498D01*
X109431328Y-70032595D01*
X109205250Y-69806517D01*
X109197674Y-69798191D01*
X109193553Y-69791697D01*
X109143734Y-69744914D01*
X109140893Y-69742160D01*
X109121094Y-69722361D01*
X109117969Y-69719937D01*
X109117960Y-69719929D01*
X109117874Y-69719863D01*
X109108849Y-69712155D01*
X109082285Y-69687210D01*
X109076506Y-69681783D01*
X109058669Y-69671977D01*
X109042153Y-69661127D01*
X109026067Y-69648650D01*
X108985334Y-69631024D01*
X108974686Y-69625807D01*
X108959373Y-69617389D01*
X108935803Y-69604431D01*
X108928128Y-69602460D01*
X108928122Y-69602458D01*
X108916089Y-69599369D01*
X108897387Y-69592966D01*
X108878708Y-69584883D01*
X108844872Y-69579524D01*
X108834873Y-69577940D01*
X108823260Y-69575535D01*
X108780282Y-69564500D01*
X108759935Y-69564500D01*
X108740224Y-69562949D01*
X108727950Y-69561005D01*
X108720121Y-69559765D01*
X108712229Y-69560511D01*
X108675944Y-69563941D01*
X108664086Y-69564500D01*
X108256737Y-69564500D01*
X108188616Y-69544498D01*
X108167642Y-69527595D01*
X108142541Y-69502494D01*
X108120573Y-69489502D01*
X108009419Y-69423766D01*
X108009418Y-69423766D01*
X108002596Y-69419731D01*
X107994985Y-69417520D01*
X107994983Y-69417519D01*
X107852644Y-69376166D01*
X107852645Y-69376166D01*
X107846466Y-69374371D01*
X107840059Y-69373867D01*
X107840055Y-69373866D01*
X107812444Y-69371693D01*
X107812438Y-69371693D01*
X107809989Y-69371500D01*
X107610122Y-69371500D01*
X107410012Y-69371501D01*
X107373534Y-69374371D01*
X107276730Y-69402495D01*
X107225017Y-69417519D01*
X107225015Y-69417520D01*
X107217404Y-69419731D01*
X107210579Y-69423767D01*
X107210575Y-69423769D01*
X107164139Y-69451231D01*
X107095323Y-69468691D01*
X107035861Y-69451231D01*
X106989425Y-69423769D01*
X106989421Y-69423767D01*
X106982596Y-69419731D01*
X106974985Y-69417520D01*
X106974983Y-69417519D01*
X106832644Y-69376166D01*
X106832645Y-69376166D01*
X106826466Y-69374371D01*
X106820059Y-69373867D01*
X106820055Y-69373866D01*
X106792444Y-69371693D01*
X106792438Y-69371693D01*
X106789989Y-69371500D01*
X106590122Y-69371500D01*
X106390012Y-69371501D01*
X106353534Y-69374371D01*
X106256730Y-69402495D01*
X106205017Y-69417519D01*
X106205015Y-69417520D01*
X106197404Y-69419731D01*
X106190582Y-69423766D01*
X106190581Y-69423766D01*
X106108639Y-69472226D01*
X106039822Y-69489685D01*
X105972491Y-69467168D01*
X105928022Y-69411823D01*
X105918500Y-69363772D01*
X105918500Y-68414435D01*
X105918999Y-68403236D01*
X105919162Y-68401406D01*
X105920652Y-68394244D01*
X105918546Y-68316423D01*
X105918500Y-68313014D01*
X105918500Y-65345377D01*
X105919933Y-65326427D01*
X105922124Y-65312028D01*
X105922124Y-65312022D01*
X105923224Y-65304793D01*
X105918915Y-65251818D01*
X105918500Y-65241603D01*
X105918500Y-65233475D01*
X105918078Y-65229853D01*
X105918077Y-65229840D01*
X105915191Y-65205086D01*
X105914758Y-65200710D01*
X105914674Y-65199669D01*
X105908809Y-65127574D01*
X105906553Y-65120612D01*
X105905357Y-65114624D01*
X105903949Y-65108667D01*
X105903101Y-65101393D01*
X105900603Y-65094511D01*
X105900602Y-65094507D01*
X105878055Y-65032393D01*
X105876645Y-65028289D01*
X105854013Y-64958425D01*
X105850213Y-64952162D01*
X105847675Y-64946620D01*
X105844933Y-64941144D01*
X105842434Y-64934259D01*
X105802185Y-64872868D01*
X105799870Y-64869200D01*
X105761773Y-64806419D01*
X105754333Y-64797995D01*
X105754362Y-64797969D01*
X105751762Y-64795038D01*
X105748958Y-64791684D01*
X105744946Y-64785565D01*
X105688413Y-64732011D01*
X105685972Y-64729634D01*
X105374257Y-64417919D01*
X105340231Y-64355607D01*
X105338042Y-64315654D01*
X105351000Y-64192366D01*
X105351000Y-64192365D01*
X105351690Y-64185800D01*
X105345912Y-64130826D01*
X105333672Y-64014373D01*
X105333672Y-64014372D01*
X105332982Y-64007809D01*
X105330394Y-63999842D01*
X105279719Y-63843882D01*
X105277677Y-63837597D01*
X105274373Y-63831874D01*
X105271689Y-63825846D01*
X105272934Y-63825292D01*
X105258100Y-63769927D01*
X105258100Y-63697431D01*
X105273405Y-63640317D01*
X105272589Y-63639954D01*
X105274883Y-63634802D01*
X105274983Y-63634428D01*
X105275273Y-63633926D01*
X105275274Y-63633925D01*
X105278577Y-63628203D01*
X105333882Y-63457991D01*
X105344349Y-63358411D01*
X105351900Y-63286565D01*
X105352590Y-63280000D01*
X105333882Y-63102009D01*
X105329054Y-63087148D01*
X105290992Y-62970007D01*
X105278577Y-62931797D01*
X105274983Y-62925572D01*
X105274883Y-62925198D01*
X105272589Y-62920046D01*
X105273405Y-62919683D01*
X105258100Y-62862569D01*
X105258100Y-62747473D01*
X105272934Y-62692108D01*
X105271689Y-62691554D01*
X105274373Y-62685526D01*
X105277677Y-62679803D01*
X105312691Y-62572040D01*
X105330942Y-62515870D01*
X105330942Y-62515869D01*
X105332982Y-62509591D01*
X105342668Y-62417442D01*
X105351000Y-62338165D01*
X105351690Y-62331600D01*
X105332982Y-62153609D01*
X105277677Y-61983397D01*
X105188191Y-61828403D01*
X105168046Y-61806029D01*
X105072858Y-61700312D01*
X105072857Y-61700311D01*
X105068436Y-61695401D01*
X105038891Y-61673935D01*
X104995538Y-61617714D01*
X104989463Y-61546978D01*
X105022594Y-61484186D01*
X105084414Y-61449274D01*
X105112953Y-61446000D01*
X106667975Y-61446000D01*
X106736096Y-61466002D01*
G37*
%TD.AperFunction*%
%TA.AperFunction,Conductor*%
G36*
X104094229Y-65310669D02*
G01*
X104139292Y-65339630D01*
X104356595Y-65556933D01*
X104390621Y-65619245D01*
X104393500Y-65646028D01*
X104393500Y-67957973D01*
X104373498Y-68026094D01*
X104356595Y-68047068D01*
X103101689Y-69301973D01*
X103039377Y-69335999D01*
X102968561Y-69330934D01*
X102911726Y-69288387D01*
X102886915Y-69221867D01*
X102892761Y-69173942D01*
X102943342Y-69018270D01*
X102943342Y-69018269D01*
X102945382Y-69011991D01*
X102964090Y-68834000D01*
X102945382Y-68656009D01*
X102890077Y-68485797D01*
X102800591Y-68330803D01*
X102680836Y-68197801D01*
X102665204Y-68186443D01*
X102541387Y-68096485D01*
X102541386Y-68096484D01*
X102536045Y-68092604D01*
X102487701Y-68071080D01*
X102433605Y-68025101D01*
X102412955Y-67957174D01*
X102432307Y-67888865D01*
X102449854Y-67866878D01*
X103263477Y-67053255D01*
X103271803Y-67045678D01*
X103278303Y-67041553D01*
X103325101Y-66991718D01*
X103327855Y-66988877D01*
X103347638Y-66969094D01*
X103350129Y-66965883D01*
X103357838Y-66956856D01*
X103382789Y-66930286D01*
X103388217Y-66924506D01*
X103398022Y-66906671D01*
X103408876Y-66890147D01*
X103416491Y-66880330D01*
X103416492Y-66880329D01*
X103421349Y-66874067D01*
X103438969Y-66833350D01*
X103444192Y-66822689D01*
X103461749Y-66790753D01*
X103461751Y-66790748D01*
X103465569Y-66783803D01*
X103467539Y-66776129D01*
X103467542Y-66776122D01*
X103470632Y-66764087D01*
X103477036Y-66745382D01*
X103481967Y-66733987D01*
X103485117Y-66726708D01*
X103492060Y-66682873D01*
X103494467Y-66671251D01*
X103505500Y-66628282D01*
X103505500Y-66607935D01*
X103507051Y-66588224D01*
X103508995Y-66575950D01*
X103510235Y-66568121D01*
X103506059Y-66523944D01*
X103505500Y-66512086D01*
X103505500Y-65847422D01*
X103525502Y-65779301D01*
X103542405Y-65758327D01*
X103961102Y-65339630D01*
X104023414Y-65305604D01*
X104094229Y-65310669D01*
G37*
%TD.AperFunction*%
%TD*%
M02*
