%TF.GenerationSoftware,KiCad,Pcbnew,(6.0.0-0)*%
%TF.CreationDate,2022-03-07T01:14:35-05:00*%
%TF.ProjectId,air_quality,6169725f-7175-4616-9c69-74792e6b6963,rev?*%
%TF.SameCoordinates,Original*%
%TF.FileFunction,Copper,L1,Top*%
%TF.FilePolarity,Positive*%
%FSLAX46Y46*%
G04 Gerber Fmt 4.6, Leading zero omitted, Abs format (unit mm)*
G04 Created by KiCad (PCBNEW (6.0.0-0)) date 2022-03-07 01:14:35*
%MOMM*%
%LPD*%
G01*
G04 APERTURE LIST*
G04 Aperture macros list*
%AMRoundRect*
0 Rectangle with rounded corners*
0 $1 Rounding radius*
0 $2 $3 $4 $5 $6 $7 $8 $9 X,Y pos of 4 corners*
0 Add a 4 corners polygon primitive as box body*
4,1,4,$2,$3,$4,$5,$6,$7,$8,$9,$2,$3,0*
0 Add four circle primitives for the rounded corners*
1,1,$1+$1,$2,$3*
1,1,$1+$1,$4,$5*
1,1,$1+$1,$6,$7*
1,1,$1+$1,$8,$9*
0 Add four rect primitives between the rounded corners*
20,1,$1+$1,$2,$3,$4,$5,0*
20,1,$1+$1,$4,$5,$6,$7,0*
20,1,$1+$1,$6,$7,$8,$9,0*
20,1,$1+$1,$8,$9,$2,$3,0*%
%AMFreePoly0*
4,1,14,0.625035,0.850035,0.625050,0.850000,0.625050,-0.850000,0.625035,-0.850035,0.625000,-0.850050,-0.625000,-0.850050,-0.625035,-0.850035,-0.625050,-0.850000,-0.625050,0.575000,-0.625035,0.575035,-0.350035,0.850036,-0.350000,0.850050,0.625000,0.850050,0.625035,0.850035,0.625035,0.850035,$1*%
G04 Aperture macros list end*
%TA.AperFunction,SMDPad,CuDef*%
%ADD10RoundRect,0.150000X0.512500X0.150000X-0.512500X0.150000X-0.512500X-0.150000X0.512500X-0.150000X0*%
%TD*%
%TA.AperFunction,SMDPad,CuDef*%
%ADD11R,0.400000X0.600000*%
%TD*%
%TA.AperFunction,SMDPad,CuDef*%
%ADD12FreePoly0,270.000000*%
%TD*%
%TA.AperFunction,SMDPad,CuDef*%
%ADD13RoundRect,0.135000X0.135000X0.185000X-0.135000X0.185000X-0.135000X-0.185000X0.135000X-0.185000X0*%
%TD*%
%TA.AperFunction,SMDPad,CuDef*%
%ADD14RoundRect,0.135000X-0.135000X-0.185000X0.135000X-0.185000X0.135000X0.185000X-0.135000X0.185000X0*%
%TD*%
%TA.AperFunction,SMDPad,CuDef*%
%ADD15RoundRect,0.150000X0.150000X-0.587500X0.150000X0.587500X-0.150000X0.587500X-0.150000X-0.587500X0*%
%TD*%
%TA.AperFunction,SMDPad,CuDef*%
%ADD16RoundRect,0.140000X-0.170000X0.140000X-0.170000X-0.140000X0.170000X-0.140000X0.170000X0.140000X0*%
%TD*%
%TA.AperFunction,SMDPad,CuDef*%
%ADD17RoundRect,0.140000X-0.140000X-0.170000X0.140000X-0.170000X0.140000X0.170000X-0.140000X0.170000X0*%
%TD*%
%TA.AperFunction,SMDPad,CuDef*%
%ADD18RoundRect,0.225000X-0.250000X0.225000X-0.250000X-0.225000X0.250000X-0.225000X0.250000X0.225000X0*%
%TD*%
%TA.AperFunction,ComponentPad*%
%ADD19C,4.500000*%
%TD*%
%TA.AperFunction,SMDPad,CuDef*%
%ADD20RoundRect,0.150000X0.150000X-0.825000X0.150000X0.825000X-0.150000X0.825000X-0.150000X-0.825000X0*%
%TD*%
%TA.AperFunction,SMDPad,CuDef*%
%ADD21RoundRect,0.218750X-0.256250X0.218750X-0.256250X-0.218750X0.256250X-0.218750X0.256250X0.218750X0*%
%TD*%
%TA.AperFunction,ViaPad*%
%ADD22C,0.685800*%
%TD*%
%TA.AperFunction,Conductor*%
%ADD23C,0.254000*%
%TD*%
G04 APERTURE END LIST*
D10*
%TO.P,U2,1,VIN*%
%TO.N,/3V3*%
X116199500Y-81976000D03*
%TO.P,U2,2,GND*%
%TO.N,GND*%
X116199500Y-81026000D03*
%TO.P,U2,3,EN*%
%TO.N,/3V3*%
X116199500Y-80076000D03*
%TO.P,U2,4,NC*%
%TO.N,unconnected-(U2-Pad4)*%
X113924500Y-80076000D03*
%TO.P,U2,5,VOUT*%
%TO.N,/1V8*%
X113924500Y-81976000D03*
%TD*%
D11*
%TO.P,U1,1,VDD*%
%TO.N,/1V8*%
X107734000Y-79572000D03*
%TO.P,U1,2,GND*%
%TO.N,GND*%
X106934000Y-79572000D03*
%TO.P,U1,3,SDA*%
%TO.N,/SDA_1V8*%
X106134000Y-79572000D03*
%TO.P,U1,4,R*%
%TO.N,GND*%
X106134000Y-81872000D03*
%TO.P,U1,5,VDDH*%
%TO.N,/1V8*%
X106934000Y-81872000D03*
%TO.P,U1,6,SCL*%
%TO.N,/SCL_1V8*%
X107734000Y-81872000D03*
D12*
%TO.P,U1,7,EPAD*%
%TO.N,GND*%
X106934000Y-80722000D03*
%TD*%
D13*
%TO.P,R5,1*%
%TO.N,/3V3*%
X109730000Y-71374000D03*
%TO.P,R5,2*%
%TO.N,/SCL*%
X108710000Y-71374000D03*
%TD*%
D14*
%TO.P,R4,1*%
%TO.N,/3V3*%
X104138000Y-71374000D03*
%TO.P,R4,2*%
%TO.N,/SDA*%
X105158000Y-71374000D03*
%TD*%
%TO.P,R3,1*%
%TO.N,/1V8*%
X108202000Y-76454000D03*
%TO.P,R3,2*%
%TO.N,/SCL_1V8*%
X109222000Y-76454000D03*
%TD*%
%TO.P,R2,1*%
%TO.N,/1V8*%
X104646000Y-76454000D03*
%TO.P,R2,2*%
%TO.N,/SDA_1V8*%
X105666000Y-76454000D03*
%TD*%
D15*
%TO.P,Q2,1,G*%
%TO.N,/1V8*%
X107762000Y-74851500D03*
%TO.P,Q2,2,S*%
%TO.N,/SCL_1V8*%
X109662000Y-74851500D03*
%TO.P,Q2,3,D*%
%TO.N,/SCL*%
X108712000Y-72976500D03*
%TD*%
%TO.P,Q1,1,G*%
%TO.N,/1V8*%
X104206000Y-74851500D03*
%TO.P,Q1,2,S*%
%TO.N,/SDA_1V8*%
X106106000Y-74851500D03*
%TO.P,Q1,3,D*%
%TO.N,/SDA*%
X105156000Y-72976500D03*
%TD*%
D16*
%TO.P,C5,2*%
%TO.N,GND*%
X112268000Y-83030000D03*
%TO.P,C5,1*%
%TO.N,/1V8*%
X112268000Y-82070000D03*
%TD*%
%TO.P,C4,1*%
%TO.N,/1V8*%
X111252000Y-82832000D03*
%TO.P,C4,2*%
%TO.N,GND*%
X111252000Y-83792000D03*
%TD*%
%TO.P,C3,1*%
%TO.N,/3V3*%
X118364000Y-82098000D03*
%TO.P,C3,2*%
%TO.N,GND*%
X118364000Y-83058000D03*
%TD*%
D17*
%TO.P,C2,1*%
%TO.N,/1V8*%
X107978000Y-78486000D03*
%TO.P,C2,2*%
%TO.N,GND*%
X108938000Y-78486000D03*
%TD*%
D18*
%TO.P,C1,1*%
%TO.N,/3V3*%
X119634000Y-82283000D03*
%TO.P,C1,2*%
%TO.N,GND*%
X119634000Y-83833000D03*
%TD*%
D19*
%TO.P,H1,1,1*%
%TO.N,GND*%
X95000000Y-64000000D03*
%TD*%
%TO.P,H2,1,1*%
%TO.N,GND*%
X119000000Y-64000000D03*
%TD*%
D13*
%TO.P,R1,1*%
%TO.N,/3V3*%
X99062000Y-63754000D03*
%TO.P,R1,2*%
%TO.N,Net-(D1-Pad2)*%
X98042000Y-63754000D03*
%TD*%
D20*
%TO.P,U4,1,E0*%
%TO.N,unconnected-(U4-Pad1)*%
X94107000Y-75627000D03*
%TO.P,U4,2,E1*%
%TO.N,unconnected-(U4-Pad2)*%
X95377000Y-75627000D03*
%TO.P,U4,3,E2*%
%TO.N,unconnected-(U4-Pad3)*%
X96647000Y-75627000D03*
%TO.P,U4,4,VSS*%
%TO.N,GND*%
X97917000Y-75627000D03*
%TO.P,U4,5,SDA*%
%TO.N,/SDA_EEPROM*%
X97917000Y-70677000D03*
%TO.P,U4,6,SCL*%
%TO.N,/SCL_EEPROM*%
X96647000Y-70677000D03*
%TO.P,U4,7,~{WC}*%
%TO.N,unconnected-(U4-Pad7)*%
X95377000Y-70677000D03*
%TO.P,U4,8,VCC*%
%TO.N,/3V3*%
X94107000Y-70677000D03*
%TD*%
D21*
%TO.P,D1,1,K*%
%TO.N,GND*%
X98552000Y-66827500D03*
%TO.P,D1,2,A*%
%TO.N,Net-(D1-Pad2)*%
X98552000Y-65252500D03*
%TD*%
D22*
%TO.N,/SCL*%
X112014000Y-66802000D03*
%TO.N,GND*%
X116332000Y-83820000D03*
X114046000Y-83820000D03*
X116332000Y-70104000D03*
X118364000Y-72136000D03*
X108712000Y-74422000D03*
X105156000Y-74422000D03*
X103886000Y-69850000D03*
X107696000Y-70104000D03*
X106426000Y-71120000D03*
X105410000Y-68834000D03*
X101092000Y-75184000D03*
X99822000Y-71628000D03*
X102108000Y-71628000D03*
X118364000Y-80010000D03*
X118364000Y-77978000D03*
X116332000Y-77978000D03*
X112268000Y-77978000D03*
X112268000Y-70104000D03*
X112268000Y-72136000D03*
X112268000Y-74168000D03*
X114300000Y-74168000D03*
X112268000Y-76200000D03*
X116332000Y-76200000D03*
X114300000Y-77978000D03*
X114300000Y-76200000D03*
X109220000Y-83058000D03*
X110236000Y-79248000D03*
X109220000Y-80264000D03*
X106934000Y-76454000D03*
X106426000Y-78232000D03*
X104648000Y-80010000D03*
X104648000Y-81280000D03*
X104648000Y-82550000D03*
%TO.N,/1V8*%
X102616000Y-79502000D03*
X109192000Y-84356000D03*
X107978000Y-77498000D03*
%TO.N,/SDA*%
X110998000Y-66802000D03*
%TO.N,GND*%
X96012000Y-73406000D03*
X104013000Y-66675000D03*
X104013000Y-67564000D03*
X97282000Y-73406000D03*
X94742000Y-73406000D03*
X104013000Y-65786000D03*
%TO.N,/3V3*%
X104496500Y-63397500D03*
X104496500Y-62635500D03*
%TO.N,/SDA_EEPROM*%
X98806000Y-70358000D03*
%TO.N,/SCL_EEPROM*%
X102108000Y-68834000D03*
%TD*%
D23*
%TO.N,/SCL*%
X112014000Y-67564000D02*
X112014000Y-66802000D01*
%TO.N,GND*%
X106934000Y-79572000D02*
X106934000Y-80722000D01*
X106134000Y-81872000D02*
X106134000Y-81522000D01*
X106134000Y-81522000D02*
X106934000Y-80722000D01*
%TO.N,/3V3*%
X94107000Y-70677000D02*
X94107000Y-71755000D01*
X94107000Y-71755000D02*
X94907589Y-72555589D01*
X94907589Y-72555589D02*
X102956411Y-72555589D01*
X102956411Y-72555589D02*
X104138000Y-71374000D01*
%TO.N,/1V8*%
X102616000Y-79502000D02*
X102616000Y-78484000D01*
X102616000Y-78484000D02*
X104646000Y-76454000D01*
%TO.N,/SDA*%
X105158000Y-71374000D02*
X105158000Y-70864000D01*
X105158000Y-70864000D02*
X109220000Y-66802000D01*
X109220000Y-66802000D02*
X110998000Y-66802000D01*
%TO.N,/SCL*%
X112014000Y-67564000D02*
X111506000Y-68072000D01*
X110236000Y-68072000D02*
X108710000Y-69598000D01*
X108710000Y-69598000D02*
X108710000Y-71374000D01*
X111506000Y-68072000D02*
X110236000Y-68072000D01*
%TO.N,/3V3*%
X113157000Y-68961000D02*
X111125000Y-68961000D01*
X113157000Y-68961000D02*
X113538000Y-68580000D01*
X109728000Y-70358000D02*
X109728000Y-71372000D01*
X111125000Y-68961000D02*
X109728000Y-70358000D01*
X109728000Y-71372000D02*
X109730000Y-71374000D01*
%TO.N,/1V8*%
X111252000Y-82832000D02*
X110716000Y-82832000D01*
X110716000Y-82832000D02*
X109192000Y-84356000D01*
X112268000Y-82070000D02*
X112014000Y-82070000D01*
X112014000Y-82070000D02*
X111252000Y-82832000D01*
%TO.N,/3V3*%
X113538000Y-68580000D02*
X113538000Y-70612000D01*
X113538000Y-70612000D02*
X119634000Y-76708000D01*
X119634000Y-76708000D02*
X119634000Y-82283000D01*
X116199500Y-81976000D02*
X115504000Y-81976000D01*
X115504000Y-81976000D02*
X115062000Y-81534000D01*
X115062000Y-81534000D02*
X115062000Y-80518000D01*
X115062000Y-80518000D02*
X115504000Y-80076000D01*
X115504000Y-80076000D02*
X116199500Y-80076000D01*
X118364000Y-82098000D02*
X116321500Y-82098000D01*
X116321500Y-82098000D02*
X116199500Y-81976000D01*
X119634000Y-82283000D02*
X118549000Y-82283000D01*
X118549000Y-82283000D02*
X118364000Y-82098000D01*
%TO.N,/SDA_1V8*%
X106134000Y-79572000D02*
X105480000Y-79572000D01*
X105480000Y-79572000D02*
X105156000Y-79248000D01*
X105156000Y-79248000D02*
X105156000Y-77470000D01*
X105156000Y-77470000D02*
X105666000Y-76960000D01*
X105666000Y-76960000D02*
X105666000Y-76454000D01*
%TO.N,/1V8*%
X109192000Y-84356000D02*
X108232000Y-84356000D01*
X108232000Y-84356000D02*
X106934000Y-83058000D01*
X106934000Y-83058000D02*
X106934000Y-81872000D01*
X113924500Y-81976000D02*
X112362000Y-81976000D01*
X112362000Y-81976000D02*
X112268000Y-82070000D01*
%TO.N,/SCL_1V8*%
X107734000Y-81872000D02*
X110406000Y-81872000D01*
X110406000Y-81872000D02*
X110998000Y-81280000D01*
X110998000Y-81280000D02*
X110998000Y-78486000D01*
X110998000Y-78486000D02*
X109222000Y-76710000D01*
X109222000Y-76710000D02*
X109222000Y-76454000D01*
%TO.N,/1V8*%
X107978000Y-78486000D02*
X107978000Y-76678000D01*
X107978000Y-76678000D02*
X108202000Y-76454000D01*
X107734000Y-79572000D02*
X107734000Y-78730000D01*
X107734000Y-78730000D02*
X107978000Y-78486000D01*
%TO.N,/SCL_1V8*%
X109662000Y-75504000D02*
X109220000Y-75946000D01*
X109662000Y-74851500D02*
X109662000Y-75504000D01*
X109220000Y-75946000D02*
X109220000Y-76452000D01*
X109220000Y-76452000D02*
X109222000Y-76454000D01*
%TO.N,/1V8*%
X107762000Y-75504000D02*
X108204000Y-75946000D01*
X107762000Y-74851500D02*
X107762000Y-75504000D01*
X108204000Y-76452000D02*
X108202000Y-76454000D01*
X108204000Y-75946000D02*
X108204000Y-76452000D01*
%TO.N,/SDA_1V8*%
X106106000Y-74851500D02*
X106106000Y-75758000D01*
X106106000Y-75758000D02*
X105666000Y-76198000D01*
X105666000Y-76198000D02*
X105666000Y-76454000D01*
%TO.N,/1V8*%
X104206000Y-74851500D02*
X104206000Y-75758000D01*
X104646000Y-76198000D02*
X104646000Y-76454000D01*
X104206000Y-75758000D02*
X104646000Y-76198000D01*
%TO.N,/SCL*%
X108712000Y-72976500D02*
X108712000Y-71376000D01*
X108712000Y-71376000D02*
X108710000Y-71374000D01*
%TO.N,/SDA*%
X105156000Y-72976500D02*
X105156000Y-71376000D01*
X105156000Y-71376000D02*
X105158000Y-71374000D01*
%TO.N,/3V3*%
X101346000Y-68072000D02*
X101981000Y-67437000D01*
X101981000Y-67437000D02*
X102235000Y-67183000D01*
X113538000Y-66802000D02*
X113538000Y-68580000D01*
X102235000Y-67183000D02*
X102870000Y-66548000D01*
%TO.N,Net-(D1-Pad2)*%
X98042000Y-64514000D02*
X98042000Y-63754000D01*
X98552000Y-65024000D02*
X98042000Y-64514000D01*
X98552000Y-65252500D02*
X98552000Y-65024000D01*
%TO.N,/3V3*%
X103783500Y-64618500D02*
X104496500Y-64618500D01*
X104496500Y-62635500D02*
X104091000Y-62230000D01*
X104496500Y-64159500D02*
X104496500Y-64618500D01*
X102870000Y-66548000D02*
X102870000Y-65532000D01*
X99822000Y-62230000D02*
X99062000Y-62990000D01*
X111354500Y-64618500D02*
X113538000Y-66802000D01*
X104496500Y-63397500D02*
X104496500Y-62635500D01*
X99062000Y-62990000D02*
X99062000Y-63754000D01*
X104496500Y-64159500D02*
X104496500Y-63397500D01*
X94107000Y-70677000D02*
X94107000Y-70401337D01*
X104091000Y-62230000D02*
X99822000Y-62230000D01*
X102870000Y-65532000D02*
X103783500Y-64618500D01*
X96436337Y-68072000D02*
X101346000Y-68072000D01*
X104496500Y-64618500D02*
X111354500Y-64618500D01*
X94107000Y-70401337D02*
X96436337Y-68072000D01*
%TO.N,/SDA_EEPROM*%
X98806000Y-70358000D02*
X98236000Y-70358000D01*
X98236000Y-70358000D02*
X97917000Y-70677000D01*
%TO.N,/SCL_EEPROM*%
X97282000Y-68834000D02*
X96647000Y-69469000D01*
X102108000Y-68834000D02*
X97282000Y-68834000D01*
X96647000Y-69469000D02*
X96647000Y-70677000D01*
%TD*%
%TA.AperFunction,Conductor*%
%TO.N,GND*%
G36*
X93508556Y-61466002D02*
G01*
X93555049Y-61519658D01*
X93565153Y-61589932D01*
X93535659Y-61654512D01*
X93504858Y-61680285D01*
X93450196Y-61712805D01*
X93443945Y-61717053D01*
X93250733Y-61866115D01*
X93242267Y-61877773D01*
X93248871Y-61889661D01*
X94987188Y-63627978D01*
X95001132Y-63635592D01*
X95002965Y-63635461D01*
X95009580Y-63631210D01*
X96750162Y-61890628D01*
X96757174Y-61877787D01*
X96749379Y-61867098D01*
X96579886Y-61733481D01*
X96573663Y-61729156D01*
X96492326Y-61679605D01*
X96444557Y-61627082D01*
X96432767Y-61557071D01*
X96460699Y-61491800D01*
X96519485Y-61451992D01*
X96557879Y-61446000D01*
X99432118Y-61446000D01*
X99500239Y-61466002D01*
X99546732Y-61519658D01*
X99556836Y-61589932D01*
X99527342Y-61654512D01*
X99506180Y-61673935D01*
X99477519Y-61694759D01*
X99467595Y-61701278D01*
X99436224Y-61719830D01*
X99436219Y-61719834D01*
X99429401Y-61723866D01*
X99415014Y-61738253D01*
X99399980Y-61751094D01*
X99383513Y-61763058D01*
X99378460Y-61769166D01*
X99355228Y-61797249D01*
X99347238Y-61806029D01*
X98668517Y-62484750D01*
X98660191Y-62492326D01*
X98653697Y-62496447D01*
X98648274Y-62502222D01*
X98606915Y-62546265D01*
X98604160Y-62549107D01*
X98584361Y-62568906D01*
X98581937Y-62572031D01*
X98581929Y-62572040D01*
X98581863Y-62572126D01*
X98574155Y-62581151D01*
X98543783Y-62613494D01*
X98539965Y-62620438D01*
X98539964Y-62620440D01*
X98533978Y-62631329D01*
X98523127Y-62647847D01*
X98510650Y-62663933D01*
X98493024Y-62704666D01*
X98487807Y-62715314D01*
X98466431Y-62754197D01*
X98464460Y-62761872D01*
X98464458Y-62761878D01*
X98461369Y-62773911D01*
X98454966Y-62792613D01*
X98446883Y-62811292D01*
X98445644Y-62819114D01*
X98445643Y-62819118D01*
X98444104Y-62828838D01*
X98413692Y-62892991D01*
X98353425Y-62930518D01*
X98291191Y-62930161D01*
X98290979Y-62931323D01*
X98284643Y-62930165D01*
X98278466Y-62928371D01*
X98272059Y-62927867D01*
X98272055Y-62927866D01*
X98244444Y-62925693D01*
X98244438Y-62925693D01*
X98241989Y-62925500D01*
X98042122Y-62925500D01*
X97842012Y-62925501D01*
X97805534Y-62928371D01*
X97765562Y-62939984D01*
X97677727Y-62965502D01*
X97606730Y-62965299D01*
X97547114Y-62926745D01*
X97527602Y-62896055D01*
X97450172Y-62723363D01*
X97446655Y-62716636D01*
X97279054Y-62438252D01*
X97274757Y-62431999D01*
X97133617Y-62251022D01*
X97121823Y-62242551D01*
X97110113Y-62249097D01*
X95372022Y-63987188D01*
X95364408Y-64001132D01*
X95364539Y-64002965D01*
X95368790Y-64009580D01*
X97108825Y-65749615D01*
X97121948Y-65756781D01*
X97132250Y-65749391D01*
X97241429Y-65615285D01*
X97245842Y-65609144D01*
X97336608Y-65465287D01*
X97389874Y-65418349D01*
X97460062Y-65407659D01*
X97524886Y-65436613D01*
X97563766Y-65496018D01*
X97567934Y-65519631D01*
X97568500Y-65519572D01*
X97579022Y-65620982D01*
X97632692Y-65781849D01*
X97721929Y-65926055D01*
X97727107Y-65931224D01*
X97747159Y-65951241D01*
X97781238Y-66013523D01*
X97776235Y-66084343D01*
X97747314Y-66129432D01*
X97726702Y-66150080D01*
X97717690Y-66161491D01*
X97636447Y-66293291D01*
X97630303Y-66306468D01*
X97581421Y-66453843D01*
X97578555Y-66467210D01*
X97569386Y-66556700D01*
X97573475Y-66570624D01*
X97574865Y-66571829D01*
X97582548Y-66573500D01*
X99516885Y-66573500D01*
X99532124Y-66569025D01*
X99533329Y-66567635D01*
X99534842Y-66560679D01*
X99534663Y-66557218D01*
X99525196Y-66465979D01*
X99522303Y-66452583D01*
X99473170Y-66305313D01*
X99466996Y-66292134D01*
X99385530Y-66160486D01*
X99376494Y-66149085D01*
X99356842Y-66129467D01*
X99322763Y-66067184D01*
X99327766Y-65996364D01*
X99356686Y-65951277D01*
X99377692Y-65930234D01*
X99382864Y-65925053D01*
X99471849Y-65780692D01*
X99525238Y-65619731D01*
X99535500Y-65519572D01*
X99535500Y-64985428D01*
X99524978Y-64884018D01*
X99471308Y-64723151D01*
X99467458Y-64716929D01*
X99467454Y-64716921D01*
X99448910Y-64686953D01*
X99430073Y-64618501D01*
X99451235Y-64550732D01*
X99491916Y-64512198D01*
X99587720Y-64455540D01*
X99594541Y-64451506D01*
X99709506Y-64336541D01*
X99792269Y-64196596D01*
X99808831Y-64139591D01*
X99835834Y-64046644D01*
X99837629Y-64040466D01*
X99838578Y-64028419D01*
X99840307Y-64006444D01*
X99840307Y-64006438D01*
X99840500Y-64003989D01*
X99840499Y-63504012D01*
X99837629Y-63467534D01*
X99792269Y-63311404D01*
X99785182Y-63299420D01*
X99767725Y-63230603D01*
X99790244Y-63163272D01*
X99804543Y-63146189D01*
X100048327Y-62902405D01*
X100110639Y-62868379D01*
X100137422Y-62865500D01*
X101020069Y-62865500D01*
X101088190Y-62885502D01*
X101134683Y-62939158D01*
X101144787Y-63009432D01*
X101115293Y-63074012D01*
X101083070Y-63100619D01*
X100950376Y-63177229D01*
X100945469Y-63181647D01*
X100945468Y-63181648D01*
X100896130Y-63226073D01*
X100811579Y-63302203D01*
X100701798Y-63453303D01*
X100699114Y-63459331D01*
X100699113Y-63459333D01*
X100644601Y-63581770D01*
X100625832Y-63623926D01*
X100587000Y-63806615D01*
X100587000Y-63993385D01*
X100588372Y-63999837D01*
X100588372Y-63999842D01*
X100599753Y-64053383D01*
X100625832Y-64176074D01*
X100628517Y-64182104D01*
X100628517Y-64182105D01*
X100684097Y-64306939D01*
X100701798Y-64346697D01*
X100705678Y-64352038D01*
X100705679Y-64352039D01*
X100773873Y-64445900D01*
X100811579Y-64497797D01*
X100816481Y-64502210D01*
X100816482Y-64502212D01*
X100945468Y-64618352D01*
X100950376Y-64622771D01*
X100956097Y-64626074D01*
X100970839Y-64634585D01*
X101112124Y-64716156D01*
X101155021Y-64730094D01*
X101283474Y-64771831D01*
X101283475Y-64771831D01*
X101289753Y-64773871D01*
X101296316Y-64774561D01*
X101296317Y-64774561D01*
X101319097Y-64776955D01*
X101428937Y-64788500D01*
X101522063Y-64788500D01*
X101631903Y-64776955D01*
X101654683Y-64774561D01*
X101654684Y-64774561D01*
X101661247Y-64773871D01*
X101667525Y-64771831D01*
X101667526Y-64771831D01*
X101795979Y-64730094D01*
X101838876Y-64716156D01*
X101980162Y-64634585D01*
X101994903Y-64626074D01*
X102000624Y-64622771D01*
X102005532Y-64618352D01*
X102134518Y-64502212D01*
X102134519Y-64502210D01*
X102139421Y-64497797D01*
X102177127Y-64445900D01*
X102245321Y-64352039D01*
X102245322Y-64352038D01*
X102249202Y-64346697D01*
X102266904Y-64306939D01*
X102322483Y-64182105D01*
X102322483Y-64182104D01*
X102325168Y-64176074D01*
X102351247Y-64053383D01*
X102362628Y-63999842D01*
X102362628Y-63999837D01*
X102364000Y-63993385D01*
X102364000Y-63806615D01*
X102325168Y-63623926D01*
X102306399Y-63581770D01*
X102251887Y-63459333D01*
X102251886Y-63459331D01*
X102249202Y-63453303D01*
X102139421Y-63302203D01*
X102054871Y-63226073D01*
X102005532Y-63181648D01*
X102005531Y-63181647D01*
X102000624Y-63177229D01*
X101867931Y-63100619D01*
X101818938Y-63049237D01*
X101805502Y-62979523D01*
X101831888Y-62913612D01*
X101889720Y-62872430D01*
X101930931Y-62865500D01*
X103584472Y-62865500D01*
X103652593Y-62885502D01*
X103699086Y-62939158D01*
X103704305Y-62952564D01*
X103712428Y-62977564D01*
X103712428Y-63055436D01*
X103671420Y-63181648D01*
X103659118Y-63219509D01*
X103658428Y-63226072D01*
X103658428Y-63226073D01*
X103649459Y-63311404D01*
X103640410Y-63397500D01*
X103659118Y-63575491D01*
X103714423Y-63745703D01*
X103717726Y-63751425D01*
X103717727Y-63751426D01*
X103748330Y-63804432D01*
X103765068Y-63873428D01*
X103741847Y-63940519D01*
X103686040Y-63984406D01*
X103674371Y-63988427D01*
X103663758Y-63991511D01*
X103644388Y-63995523D01*
X103632060Y-63997080D01*
X103632058Y-63997080D01*
X103624201Y-63998073D01*
X103616837Y-64000989D01*
X103616832Y-64000990D01*
X103582944Y-64014407D01*
X103571715Y-64018252D01*
X103555611Y-64022931D01*
X103529107Y-64030631D01*
X103522280Y-64034669D01*
X103522277Y-64034670D01*
X103511594Y-64040988D01*
X103493836Y-64049688D01*
X103482285Y-64054261D01*
X103482279Y-64054265D01*
X103474912Y-64057181D01*
X103468501Y-64061839D01*
X103468499Y-64061840D01*
X103439012Y-64083264D01*
X103429090Y-64089781D01*
X103397732Y-64108326D01*
X103397728Y-64108329D01*
X103390902Y-64112366D01*
X103376518Y-64126750D01*
X103361484Y-64139591D01*
X103345013Y-64151558D01*
X103324732Y-64176074D01*
X103316727Y-64185750D01*
X103308737Y-64194531D01*
X102476512Y-65026755D01*
X102468193Y-65034325D01*
X102461697Y-65038447D01*
X102456271Y-65044225D01*
X102456270Y-65044226D01*
X102414915Y-65088265D01*
X102412160Y-65091107D01*
X102392361Y-65110906D01*
X102389937Y-65114031D01*
X102389929Y-65114040D01*
X102389863Y-65114126D01*
X102382155Y-65123151D01*
X102351783Y-65155494D01*
X102347965Y-65162438D01*
X102347964Y-65162440D01*
X102341978Y-65173329D01*
X102331127Y-65189847D01*
X102318650Y-65205933D01*
X102301024Y-65246666D01*
X102295807Y-65257314D01*
X102274431Y-65296197D01*
X102272460Y-65303872D01*
X102272458Y-65303878D01*
X102269369Y-65315911D01*
X102262966Y-65334613D01*
X102254883Y-65353292D01*
X102253644Y-65361117D01*
X102247940Y-65397127D01*
X102245535Y-65408740D01*
X102234500Y-65451718D01*
X102234500Y-65472065D01*
X102232949Y-65491776D01*
X102229765Y-65511879D01*
X102230511Y-65519771D01*
X102233941Y-65556056D01*
X102234500Y-65567914D01*
X102234500Y-66232577D01*
X102214498Y-66300698D01*
X102197595Y-66321672D01*
X101119672Y-67399595D01*
X101057360Y-67433621D01*
X101030577Y-67436500D01*
X99619062Y-67436500D01*
X99550941Y-67416498D01*
X99504448Y-67362842D01*
X99494344Y-67292568D01*
X99499469Y-67270834D01*
X99522578Y-67201160D01*
X99525445Y-67187790D01*
X99534614Y-67098300D01*
X99530525Y-67084376D01*
X99529135Y-67083171D01*
X99521452Y-67081500D01*
X97587115Y-67081500D01*
X97571876Y-67085975D01*
X97570671Y-67087365D01*
X97569158Y-67094321D01*
X97569337Y-67097782D01*
X97578804Y-67189021D01*
X97581697Y-67202417D01*
X97604453Y-67270624D01*
X97607037Y-67341573D01*
X97570854Y-67402657D01*
X97507390Y-67434482D01*
X97484929Y-67436500D01*
X96515369Y-67436500D01*
X96504130Y-67435970D01*
X96496618Y-67434291D01*
X96488693Y-67434540D01*
X96488692Y-67434540D01*
X96428307Y-67436438D01*
X96424349Y-67436500D01*
X96396354Y-67436500D01*
X96392420Y-67436997D01*
X96392418Y-67436997D01*
X96392331Y-67437008D01*
X96380497Y-67437940D01*
X96336132Y-67439335D01*
X96328519Y-67441547D01*
X96328518Y-67441547D01*
X96316589Y-67445013D01*
X96297225Y-67449023D01*
X96284897Y-67450580D01*
X96284895Y-67450580D01*
X96277038Y-67451573D01*
X96269674Y-67454489D01*
X96269669Y-67454490D01*
X96235781Y-67467907D01*
X96224552Y-67471752D01*
X96215421Y-67474405D01*
X96181944Y-67484131D01*
X96175117Y-67488169D01*
X96175114Y-67488170D01*
X96164431Y-67494488D01*
X96146673Y-67503188D01*
X96135122Y-67507761D01*
X96135116Y-67507765D01*
X96127749Y-67510681D01*
X96095611Y-67534031D01*
X96091849Y-67536764D01*
X96081927Y-67543281D01*
X96050569Y-67561826D01*
X96050565Y-67561829D01*
X96043739Y-67565866D01*
X96029355Y-67580250D01*
X96014321Y-67593091D01*
X95997850Y-67605058D01*
X95992797Y-67611166D01*
X95969560Y-67639255D01*
X95961570Y-67648035D01*
X94450423Y-69159182D01*
X94388111Y-69193208D01*
X94351442Y-69195699D01*
X94325958Y-69193693D01*
X94325950Y-69193693D01*
X94323502Y-69193500D01*
X93890498Y-69193500D01*
X93888050Y-69193693D01*
X93888042Y-69193693D01*
X93859579Y-69195933D01*
X93859574Y-69195934D01*
X93853169Y-69196438D01*
X93766925Y-69221494D01*
X93701012Y-69240643D01*
X93701010Y-69240644D01*
X93693399Y-69242855D01*
X93686572Y-69246892D01*
X93686573Y-69246892D01*
X93557020Y-69323509D01*
X93557017Y-69323511D01*
X93550193Y-69327547D01*
X93432547Y-69445193D01*
X93428511Y-69452017D01*
X93428509Y-69452020D01*
X93374225Y-69543810D01*
X93347855Y-69588399D01*
X93301438Y-69748169D01*
X93298500Y-69785498D01*
X93298500Y-71568502D01*
X93301438Y-71605831D01*
X93347855Y-71765601D01*
X93351892Y-71772427D01*
X93428509Y-71901980D01*
X93428511Y-71901983D01*
X93432547Y-71908807D01*
X93493361Y-71969621D01*
X93518190Y-72006156D01*
X93519131Y-72009393D01*
X93523163Y-72016211D01*
X93523166Y-72016217D01*
X93529488Y-72026906D01*
X93538188Y-72044664D01*
X93542761Y-72056215D01*
X93542765Y-72056221D01*
X93545681Y-72063588D01*
X93550339Y-72069999D01*
X93550340Y-72070001D01*
X93571764Y-72099488D01*
X93578281Y-72109410D01*
X93596826Y-72140768D01*
X93596829Y-72140772D01*
X93600866Y-72147598D01*
X93615250Y-72161982D01*
X93628091Y-72177016D01*
X93640058Y-72193487D01*
X93672264Y-72220130D01*
X93674250Y-72221773D01*
X93683031Y-72229763D01*
X94402344Y-72949077D01*
X94409914Y-72957396D01*
X94414036Y-72963892D01*
X94419814Y-72969318D01*
X94419815Y-72969319D01*
X94463854Y-73010674D01*
X94466696Y-73013429D01*
X94486495Y-73033228D01*
X94489620Y-73035652D01*
X94489629Y-73035660D01*
X94489715Y-73035726D01*
X94498740Y-73043434D01*
X94531083Y-73073806D01*
X94538027Y-73077624D01*
X94538029Y-73077625D01*
X94548918Y-73083611D01*
X94565436Y-73094462D01*
X94581522Y-73106939D01*
X94622255Y-73124565D01*
X94632903Y-73129782D01*
X94644531Y-73136174D01*
X94671786Y-73151158D01*
X94679461Y-73153129D01*
X94679467Y-73153131D01*
X94691500Y-73156220D01*
X94710202Y-73162623D01*
X94728881Y-73170706D01*
X94762407Y-73176016D01*
X94772716Y-73177649D01*
X94784329Y-73180054D01*
X94827307Y-73191089D01*
X94847654Y-73191089D01*
X94867366Y-73192640D01*
X94887468Y-73195824D01*
X94895360Y-73195078D01*
X94931645Y-73191648D01*
X94943503Y-73191089D01*
X102877391Y-73191089D01*
X102888625Y-73191619D01*
X102896130Y-73193297D01*
X102964423Y-73191151D01*
X102968380Y-73191089D01*
X102996394Y-73191089D01*
X103000319Y-73190593D01*
X103000320Y-73190593D01*
X103000415Y-73190581D01*
X103012260Y-73189648D01*
X103042081Y-73188711D01*
X103048693Y-73188503D01*
X103048694Y-73188503D01*
X103056616Y-73188254D01*
X103076160Y-73182576D01*
X103095523Y-73178566D01*
X103107851Y-73177009D01*
X103107853Y-73177009D01*
X103115710Y-73176016D01*
X103123074Y-73173100D01*
X103123079Y-73173099D01*
X103156967Y-73159682D01*
X103168196Y-73155837D01*
X103184876Y-73150991D01*
X103210804Y-73143458D01*
X103217631Y-73139420D01*
X103217634Y-73139419D01*
X103228317Y-73133101D01*
X103246075Y-73124401D01*
X103257626Y-73119828D01*
X103257632Y-73119824D01*
X103264999Y-73116908D01*
X103274388Y-73110087D01*
X103300899Y-73090825D01*
X103310821Y-73084308D01*
X103342179Y-73065763D01*
X103342183Y-73065760D01*
X103349009Y-73061723D01*
X103363393Y-73047339D01*
X103378427Y-73034498D01*
X103388484Y-73027191D01*
X103394898Y-73022531D01*
X103423189Y-72988333D01*
X103431178Y-72979554D01*
X104132405Y-72278327D01*
X104194717Y-72244301D01*
X104265532Y-72249366D01*
X104322368Y-72291913D01*
X104347179Y-72358433D01*
X104347500Y-72367422D01*
X104347500Y-73479500D01*
X104327498Y-73547621D01*
X104273842Y-73594114D01*
X104221500Y-73605500D01*
X103989498Y-73605500D01*
X103987050Y-73605693D01*
X103987042Y-73605693D01*
X103958579Y-73607933D01*
X103958574Y-73607934D01*
X103952169Y-73608438D01*
X103852231Y-73637472D01*
X103800012Y-73652643D01*
X103800010Y-73652644D01*
X103792399Y-73654855D01*
X103785572Y-73658892D01*
X103785573Y-73658892D01*
X103656020Y-73735509D01*
X103656017Y-73735511D01*
X103649193Y-73739547D01*
X103531547Y-73857193D01*
X103527511Y-73864017D01*
X103527509Y-73864020D01*
X103486453Y-73933443D01*
X103446855Y-74000399D01*
X103400438Y-74160169D01*
X103399934Y-74166574D01*
X103399933Y-74166579D01*
X103398003Y-74191107D01*
X103397500Y-74197498D01*
X103397500Y-75505502D01*
X103400438Y-75542831D01*
X103427902Y-75637365D01*
X103438468Y-75673731D01*
X103446855Y-75702601D01*
X103450892Y-75709427D01*
X103527509Y-75838980D01*
X103527511Y-75838983D01*
X103531547Y-75845807D01*
X103556545Y-75870805D01*
X103583526Y-75918110D01*
X103585573Y-75917300D01*
X103601907Y-75958556D01*
X103605752Y-75969785D01*
X103618131Y-76012393D01*
X103622169Y-76019220D01*
X103622170Y-76019223D01*
X103628488Y-76029906D01*
X103637188Y-76047664D01*
X103641761Y-76059215D01*
X103641765Y-76059221D01*
X103644681Y-76066588D01*
X103649339Y-76072999D01*
X103649340Y-76073001D01*
X103670764Y-76102488D01*
X103677281Y-76112410D01*
X103695826Y-76143768D01*
X103695829Y-76143772D01*
X103699866Y-76150598D01*
X103714250Y-76164982D01*
X103727091Y-76180016D01*
X103739058Y-76196487D01*
X103745166Y-76201540D01*
X103773249Y-76224772D01*
X103782029Y-76232762D01*
X103786172Y-76236905D01*
X103820198Y-76299217D01*
X103815133Y-76370032D01*
X103786172Y-76415095D01*
X102222517Y-77978750D01*
X102214191Y-77986326D01*
X102207697Y-77990447D01*
X102202274Y-77996222D01*
X102160915Y-78040265D01*
X102158160Y-78043107D01*
X102138361Y-78062906D01*
X102135937Y-78066031D01*
X102135929Y-78066040D01*
X102135863Y-78066126D01*
X102128155Y-78075151D01*
X102097783Y-78107494D01*
X102093965Y-78114438D01*
X102093964Y-78114440D01*
X102087978Y-78125329D01*
X102077127Y-78141847D01*
X102064650Y-78157933D01*
X102047024Y-78198666D01*
X102041807Y-78209314D01*
X102020431Y-78248197D01*
X102018460Y-78255872D01*
X102018458Y-78255878D01*
X102015369Y-78267911D01*
X102008966Y-78286613D01*
X102000883Y-78305292D01*
X101999644Y-78313117D01*
X101993940Y-78349127D01*
X101991535Y-78360740D01*
X101980500Y-78403718D01*
X101980500Y-78424065D01*
X101978949Y-78443776D01*
X101977122Y-78455314D01*
X101975765Y-78463879D01*
X101976511Y-78471771D01*
X101979941Y-78508056D01*
X101980500Y-78519914D01*
X101980500Y-78887031D01*
X101960498Y-78955152D01*
X101948142Y-78971335D01*
X101923409Y-78998803D01*
X101833923Y-79153797D01*
X101831881Y-79160082D01*
X101790324Y-79287983D01*
X101778618Y-79324009D01*
X101759910Y-79502000D01*
X101760600Y-79508565D01*
X101777570Y-79670016D01*
X101778618Y-79679991D01*
X101780658Y-79686269D01*
X101780658Y-79686270D01*
X101791150Y-79718561D01*
X101833923Y-79850203D01*
X101837226Y-79855925D01*
X101837227Y-79855926D01*
X101868832Y-79910668D01*
X101923409Y-80005197D01*
X101927827Y-80010104D01*
X101927828Y-80010105D01*
X102029793Y-80123349D01*
X102043164Y-80138199D01*
X102048506Y-80142080D01*
X102048508Y-80142082D01*
X102175807Y-80234570D01*
X102187955Y-80243396D01*
X102193983Y-80246080D01*
X102193985Y-80246081D01*
X102345423Y-80313505D01*
X102351454Y-80316190D01*
X102438984Y-80334795D01*
X102520057Y-80352028D01*
X102520061Y-80352028D01*
X102526514Y-80353400D01*
X102705486Y-80353400D01*
X102711939Y-80352028D01*
X102711943Y-80352028D01*
X102793016Y-80334795D01*
X102880546Y-80316190D01*
X102886577Y-80313505D01*
X103038015Y-80246081D01*
X103038017Y-80246080D01*
X103044045Y-80243396D01*
X103056193Y-80234570D01*
X103183492Y-80142082D01*
X103183494Y-80142080D01*
X103188836Y-80138199D01*
X103202207Y-80123349D01*
X103304172Y-80010105D01*
X103304173Y-80010104D01*
X103308591Y-80005197D01*
X103363168Y-79910668D01*
X103394773Y-79855926D01*
X103394774Y-79855925D01*
X103398077Y-79850203D01*
X103440850Y-79718561D01*
X103451342Y-79686270D01*
X103451342Y-79686269D01*
X103453382Y-79679991D01*
X103454431Y-79670016D01*
X103471400Y-79508565D01*
X103472090Y-79502000D01*
X103453382Y-79324009D01*
X103441677Y-79287983D01*
X103400119Y-79160082D01*
X103398077Y-79153797D01*
X103308591Y-78998803D01*
X103283863Y-78971340D01*
X103253147Y-78907334D01*
X103251500Y-78887031D01*
X103251500Y-78799422D01*
X103271502Y-78731301D01*
X103288405Y-78710327D01*
X104305405Y-77693328D01*
X104367717Y-77659302D01*
X104438533Y-77664367D01*
X104495368Y-77706914D01*
X104520179Y-77773434D01*
X104520500Y-77782423D01*
X104520500Y-79168980D01*
X104519970Y-79180214D01*
X104518292Y-79187719D01*
X104518541Y-79195638D01*
X104520438Y-79256012D01*
X104520500Y-79259969D01*
X104520500Y-79287983D01*
X104520996Y-79291908D01*
X104520996Y-79291909D01*
X104521008Y-79292004D01*
X104521941Y-79303849D01*
X104523335Y-79348205D01*
X104525547Y-79355817D01*
X104529013Y-79367748D01*
X104533023Y-79387112D01*
X104535573Y-79407299D01*
X104538489Y-79414663D01*
X104538490Y-79414668D01*
X104551907Y-79448556D01*
X104555752Y-79459785D01*
X104568131Y-79502393D01*
X104572169Y-79509220D01*
X104572170Y-79509223D01*
X104578488Y-79519906D01*
X104587188Y-79537664D01*
X104591761Y-79549215D01*
X104591765Y-79549221D01*
X104594681Y-79556588D01*
X104619878Y-79591268D01*
X104620764Y-79592488D01*
X104627281Y-79602410D01*
X104645826Y-79633768D01*
X104645829Y-79633772D01*
X104649866Y-79640598D01*
X104664250Y-79654982D01*
X104677088Y-79670012D01*
X104689058Y-79686487D01*
X104695166Y-79691540D01*
X104723255Y-79714777D01*
X104732035Y-79722767D01*
X104974745Y-79965477D01*
X104982322Y-79973803D01*
X104986447Y-79980303D01*
X104992225Y-79985729D01*
X104992226Y-79985730D01*
X105036281Y-80027100D01*
X105039123Y-80029855D01*
X105058906Y-80049638D01*
X105062114Y-80052126D01*
X105071143Y-80059837D01*
X105103494Y-80090217D01*
X105110443Y-80094037D01*
X105121329Y-80100022D01*
X105137853Y-80110876D01*
X105153933Y-80123349D01*
X105181648Y-80135343D01*
X105194650Y-80140969D01*
X105205311Y-80146192D01*
X105237247Y-80163749D01*
X105237252Y-80163751D01*
X105244197Y-80167569D01*
X105251871Y-80169539D01*
X105251878Y-80169542D01*
X105263913Y-80172632D01*
X105282618Y-80179036D01*
X105294013Y-80183967D01*
X105301292Y-80187117D01*
X105328342Y-80191401D01*
X105345127Y-80194060D01*
X105356740Y-80196465D01*
X105399718Y-80207500D01*
X105420065Y-80207500D01*
X105439776Y-80209051D01*
X105459879Y-80212235D01*
X105459506Y-80214592D01*
X105515628Y-80232999D01*
X105560418Y-80288084D01*
X105570221Y-80336811D01*
X105570221Y-81168289D01*
X105550219Y-81236410D01*
X105545047Y-81243854D01*
X105489214Y-81318352D01*
X105480676Y-81333946D01*
X105435522Y-81454394D01*
X105431895Y-81469649D01*
X105426369Y-81520514D01*
X105426000Y-81527328D01*
X105426000Y-81653885D01*
X105430475Y-81669124D01*
X105431865Y-81670329D01*
X105439548Y-81672000D01*
X105636907Y-81672000D01*
X105705028Y-81692002D01*
X105729095Y-81712108D01*
X105761757Y-81747164D01*
X105769508Y-81751759D01*
X105769509Y-81751760D01*
X105876048Y-81814921D01*
X105875296Y-81816189D01*
X105875458Y-81816249D01*
X105875346Y-81816501D01*
X105875355Y-81816505D01*
X105877663Y-81817183D01*
X105878518Y-81817552D01*
X105879764Y-81817800D01*
X105882025Y-81818464D01*
X105882040Y-81818473D01*
X105881883Y-81819006D01*
X105885777Y-81820689D01*
X105887537Y-81821732D01*
X105887566Y-81821744D01*
X105887665Y-81821504D01*
X105887796Y-81821561D01*
X105888173Y-81820278D01*
X105888176Y-81820270D01*
X105904638Y-81825104D01*
X105926570Y-81839198D01*
X105932159Y-81841512D01*
X105933764Y-81843822D01*
X105964365Y-81863488D01*
X105966968Y-81869187D01*
X105995511Y-81856152D01*
X106014724Y-81854876D01*
X106046557Y-81855200D01*
X106060252Y-81855339D01*
X106084009Y-81858015D01*
X106084009Y-81860779D01*
X106099500Y-81860779D01*
X106105064Y-81862413D01*
X106110793Y-81863659D01*
X106110704Y-81864069D01*
X106167621Y-81880781D01*
X106214114Y-81934437D01*
X106225500Y-81986779D01*
X106225500Y-82220134D01*
X106232255Y-82282316D01*
X106235029Y-82289715D01*
X106280232Y-82410296D01*
X106280234Y-82410299D01*
X106283385Y-82418705D01*
X106284119Y-82419684D01*
X106298500Y-82475897D01*
X106298500Y-82978980D01*
X106297970Y-82990214D01*
X106296292Y-82997719D01*
X106296541Y-83005638D01*
X106298438Y-83066012D01*
X106298500Y-83069969D01*
X106298500Y-83097983D01*
X106298996Y-83101908D01*
X106298996Y-83101909D01*
X106299008Y-83102004D01*
X106299941Y-83113849D01*
X106301335Y-83158205D01*
X106303547Y-83165817D01*
X106307013Y-83177748D01*
X106311023Y-83197112D01*
X106313573Y-83217299D01*
X106316489Y-83224663D01*
X106316490Y-83224668D01*
X106329907Y-83258556D01*
X106333752Y-83269785D01*
X106346131Y-83312393D01*
X106350169Y-83319220D01*
X106350170Y-83319223D01*
X106356488Y-83329906D01*
X106365188Y-83347664D01*
X106369761Y-83359215D01*
X106369765Y-83359221D01*
X106372681Y-83366588D01*
X106377339Y-83372999D01*
X106377340Y-83373001D01*
X106398764Y-83402488D01*
X106405281Y-83412410D01*
X106423826Y-83443768D01*
X106423829Y-83443772D01*
X106427866Y-83450598D01*
X106442250Y-83464982D01*
X106455091Y-83480016D01*
X106467058Y-83496487D01*
X106473166Y-83501540D01*
X106501255Y-83524777D01*
X106510035Y-83532767D01*
X107726745Y-84749477D01*
X107734322Y-84757803D01*
X107738447Y-84764303D01*
X107744225Y-84769729D01*
X107744226Y-84769730D01*
X107788281Y-84811100D01*
X107791123Y-84813855D01*
X107810906Y-84833638D01*
X107814114Y-84836126D01*
X107823143Y-84843837D01*
X107855494Y-84874217D01*
X107862443Y-84878037D01*
X107873329Y-84884022D01*
X107889853Y-84894876D01*
X107905933Y-84907349D01*
X107913210Y-84910498D01*
X107946650Y-84924969D01*
X107957311Y-84930192D01*
X107989247Y-84947749D01*
X107989252Y-84947751D01*
X107996197Y-84951569D01*
X108003871Y-84953539D01*
X108003878Y-84953542D01*
X108015913Y-84956632D01*
X108034618Y-84963036D01*
X108046013Y-84967967D01*
X108053292Y-84971117D01*
X108080342Y-84975401D01*
X108097127Y-84978060D01*
X108108740Y-84980465D01*
X108151718Y-84991500D01*
X108172065Y-84991500D01*
X108191777Y-84993051D01*
X108211879Y-84996235D01*
X108219771Y-84995489D01*
X108256056Y-84992059D01*
X108267914Y-84991500D01*
X108577262Y-84991500D01*
X108645383Y-85011502D01*
X108651323Y-85015564D01*
X108763955Y-85097396D01*
X108769983Y-85100080D01*
X108769985Y-85100081D01*
X108921423Y-85167505D01*
X108927454Y-85170190D01*
X109014984Y-85188795D01*
X109096057Y-85206028D01*
X109096061Y-85206028D01*
X109102514Y-85207400D01*
X109281486Y-85207400D01*
X109287939Y-85206028D01*
X109287943Y-85206028D01*
X109369016Y-85188795D01*
X109456546Y-85170190D01*
X109462577Y-85167505D01*
X109614015Y-85100081D01*
X109614017Y-85100080D01*
X109620045Y-85097396D01*
X109764836Y-84992199D01*
X109769258Y-84987288D01*
X109880172Y-84864105D01*
X109880173Y-84864104D01*
X109884591Y-84859197D01*
X109959673Y-84729151D01*
X109970773Y-84709926D01*
X109970774Y-84709925D01*
X109974077Y-84704203D01*
X110020123Y-84562487D01*
X110027342Y-84540270D01*
X110027342Y-84540269D01*
X110029382Y-84533991D01*
X110031886Y-84510173D01*
X110038418Y-84448023D01*
X110065432Y-84382366D01*
X110074633Y-84372099D01*
X110283592Y-84163140D01*
X110345904Y-84129114D01*
X110416719Y-84134179D01*
X110473555Y-84176726D01*
X110482191Y-84191620D01*
X110482569Y-84191397D01*
X110561876Y-84325499D01*
X110571516Y-84337926D01*
X110676074Y-84442484D01*
X110688501Y-84452124D01*
X110815780Y-84527396D01*
X110830216Y-84533643D01*
X110973641Y-84575312D01*
X110981609Y-84576768D01*
X110995031Y-84573948D01*
X110998000Y-84562487D01*
X110998000Y-84560424D01*
X111506000Y-84560424D01*
X111510344Y-84575219D01*
X111520775Y-84577063D01*
X111530359Y-84575312D01*
X111673784Y-84533643D01*
X111688220Y-84527396D01*
X111815499Y-84452124D01*
X111827926Y-84442484D01*
X111932484Y-84337926D01*
X111942124Y-84325499D01*
X112017396Y-84198220D01*
X112023643Y-84183784D01*
X112046986Y-84103438D01*
X118651000Y-84103438D01*
X118651337Y-84109953D01*
X118660894Y-84202057D01*
X118663788Y-84215456D01*
X118713381Y-84364107D01*
X118719555Y-84377286D01*
X118801788Y-84510173D01*
X118810824Y-84521574D01*
X118921429Y-84631986D01*
X118932840Y-84640998D01*
X119065880Y-84723004D01*
X119079061Y-84729151D01*
X119227814Y-84778491D01*
X119241190Y-84781358D01*
X119332097Y-84790672D01*
X119338513Y-84791000D01*
X119361885Y-84791000D01*
X119377124Y-84786525D01*
X119378329Y-84785135D01*
X119380000Y-84777452D01*
X119380000Y-84772885D01*
X119888000Y-84772885D01*
X119892475Y-84788124D01*
X119893865Y-84789329D01*
X119901548Y-84791000D01*
X119929438Y-84791000D01*
X119935953Y-84790663D01*
X120028057Y-84781106D01*
X120041456Y-84778212D01*
X120190107Y-84728619D01*
X120203286Y-84722445D01*
X120336173Y-84640212D01*
X120347574Y-84631176D01*
X120457986Y-84520571D01*
X120466998Y-84509160D01*
X120549004Y-84376120D01*
X120555151Y-84362939D01*
X120604491Y-84214186D01*
X120607358Y-84200810D01*
X120616672Y-84109903D01*
X120616929Y-84104874D01*
X120612525Y-84089876D01*
X120611135Y-84088671D01*
X120603452Y-84087000D01*
X119906115Y-84087000D01*
X119890876Y-84091475D01*
X119889671Y-84092865D01*
X119888000Y-84100548D01*
X119888000Y-84772885D01*
X119380000Y-84772885D01*
X119380000Y-84105115D01*
X119375525Y-84089876D01*
X119374135Y-84088671D01*
X119366452Y-84087000D01*
X118669115Y-84087000D01*
X118653876Y-84091475D01*
X118652671Y-84092865D01*
X118651000Y-84100548D01*
X118651000Y-84103438D01*
X112046986Y-84103438D01*
X112058619Y-84063395D01*
X112058579Y-84049295D01*
X112051309Y-84046000D01*
X111524115Y-84046000D01*
X111508876Y-84050475D01*
X111507671Y-84051865D01*
X111506000Y-84059548D01*
X111506000Y-84560424D01*
X110998000Y-84560424D01*
X110998000Y-83798424D01*
X112522000Y-83798424D01*
X112526344Y-83813219D01*
X112536775Y-83815063D01*
X112546359Y-83813312D01*
X112689784Y-83771643D01*
X112704220Y-83765396D01*
X112831499Y-83690124D01*
X112843926Y-83680484D01*
X112948484Y-83575926D01*
X112958124Y-83563499D01*
X113033396Y-83436220D01*
X113039643Y-83421784D01*
X113068089Y-83323871D01*
X117555776Y-83323871D01*
X117592357Y-83449784D01*
X117598604Y-83464220D01*
X117673876Y-83591499D01*
X117683516Y-83603926D01*
X117788074Y-83708484D01*
X117800501Y-83718124D01*
X117927780Y-83793396D01*
X117942216Y-83799643D01*
X118085641Y-83841312D01*
X118093609Y-83842768D01*
X118107031Y-83839948D01*
X118110000Y-83828487D01*
X118110000Y-83330115D01*
X118105525Y-83314876D01*
X118104135Y-83313671D01*
X118096452Y-83312000D01*
X117570442Y-83312000D01*
X117556911Y-83315973D01*
X117555776Y-83323871D01*
X113068089Y-83323871D01*
X113074619Y-83301395D01*
X113074579Y-83287295D01*
X113067309Y-83284000D01*
X112540115Y-83284000D01*
X112524876Y-83288475D01*
X112523671Y-83289865D01*
X112522000Y-83297548D01*
X112522000Y-83798424D01*
X110998000Y-83798424D01*
X110998000Y-83746500D01*
X111018002Y-83678379D01*
X111071658Y-83631886D01*
X111124000Y-83620500D01*
X111487484Y-83620500D01*
X111489932Y-83620307D01*
X111489940Y-83620307D01*
X111517844Y-83618111D01*
X111517849Y-83618110D01*
X111524254Y-83617606D01*
X111657138Y-83579000D01*
X111673984Y-83574106D01*
X111673986Y-83574105D01*
X111681597Y-83571894D01*
X111709240Y-83555546D01*
X111773379Y-83538000D01*
X111995885Y-83538000D01*
X112011124Y-83533525D01*
X112012329Y-83532135D01*
X112014000Y-83524452D01*
X112014000Y-83284000D01*
X112017255Y-83284000D01*
X112017255Y-83242205D01*
X112019828Y-83235091D01*
X112021894Y-83231597D01*
X112034772Y-83187272D01*
X112048886Y-83138689D01*
X112067606Y-83074254D01*
X112069912Y-83044965D01*
X112070307Y-83039940D01*
X112070307Y-83039932D01*
X112070500Y-83037484D01*
X112070500Y-82984500D01*
X112090502Y-82916379D01*
X112144158Y-82869886D01*
X112196500Y-82858500D01*
X112503484Y-82858500D01*
X112505932Y-82858307D01*
X112505940Y-82858307D01*
X112533844Y-82856111D01*
X112533849Y-82856110D01*
X112540254Y-82855606D01*
X112641020Y-82826331D01*
X112689984Y-82812106D01*
X112689986Y-82812105D01*
X112697597Y-82809894D01*
X112725240Y-82793546D01*
X112789379Y-82776000D01*
X113061558Y-82776000D01*
X113096247Y-82765814D01*
X113123241Y-82748465D01*
X113193896Y-82748363D01*
X113308169Y-82781562D01*
X113314574Y-82782066D01*
X113314579Y-82782067D01*
X113343042Y-82784307D01*
X113343050Y-82784307D01*
X113345498Y-82784500D01*
X114503502Y-82784500D01*
X114505950Y-82784307D01*
X114505958Y-82784307D01*
X114534421Y-82782067D01*
X114534426Y-82782066D01*
X114540831Y-82781562D01*
X114689043Y-82738503D01*
X114692988Y-82737357D01*
X114692990Y-82737356D01*
X114700601Y-82735145D01*
X114792458Y-82680821D01*
X114836980Y-82654491D01*
X114836983Y-82654489D01*
X114843807Y-82650453D01*
X114961453Y-82532807D01*
X114963706Y-82528998D01*
X115019996Y-82488345D01*
X115090888Y-82484494D01*
X115152609Y-82519582D01*
X115159276Y-82527276D01*
X115162547Y-82532807D01*
X115280193Y-82650453D01*
X115287017Y-82654489D01*
X115287020Y-82654491D01*
X115331542Y-82680821D01*
X115423399Y-82735145D01*
X115431010Y-82737356D01*
X115431012Y-82737357D01*
X115434957Y-82738503D01*
X115583169Y-82781562D01*
X115589574Y-82782066D01*
X115589579Y-82782067D01*
X115618042Y-82784307D01*
X115618050Y-82784307D01*
X115620498Y-82784500D01*
X116778502Y-82784500D01*
X116780950Y-82784307D01*
X116780958Y-82784307D01*
X116809421Y-82782067D01*
X116809426Y-82782066D01*
X116815831Y-82781562D01*
X116822007Y-82779768D01*
X116822011Y-82779767D01*
X116964044Y-82738503D01*
X116999196Y-82733500D01*
X117444245Y-82733500D01*
X117512366Y-82753502D01*
X117550048Y-82791077D01*
X117555799Y-82799970D01*
X117564691Y-82804000D01*
X117842621Y-82804000D01*
X117906760Y-82821546D01*
X117934403Y-82837894D01*
X117942014Y-82840105D01*
X117942016Y-82840106D01*
X117989190Y-82853811D01*
X118091746Y-82883606D01*
X118098151Y-82884110D01*
X118098156Y-82884111D01*
X118126060Y-82886307D01*
X118126068Y-82886307D01*
X118128516Y-82886500D01*
X118317353Y-82886500D01*
X118354961Y-82894289D01*
X118355406Y-82892758D01*
X118363021Y-82894970D01*
X118370293Y-82898117D01*
X118378122Y-82899357D01*
X118378125Y-82899358D01*
X118414120Y-82905060D01*
X118425740Y-82907466D01*
X118460457Y-82916379D01*
X118468718Y-82918500D01*
X118489066Y-82918500D01*
X118508789Y-82920053D01*
X118511723Y-82920518D01*
X118575873Y-82950937D01*
X118613394Y-83011209D01*
X118618000Y-83044965D01*
X118618000Y-83560885D01*
X118622475Y-83576124D01*
X118623865Y-83577329D01*
X118631548Y-83579000D01*
X120598885Y-83579000D01*
X120614124Y-83574525D01*
X120615329Y-83573135D01*
X120617000Y-83565452D01*
X120617000Y-83562562D01*
X120616663Y-83556047D01*
X120607106Y-83463943D01*
X120604212Y-83450544D01*
X120554619Y-83301893D01*
X120548445Y-83288714D01*
X120466212Y-83155827D01*
X120452629Y-83138689D01*
X120454559Y-83137159D01*
X120426097Y-83085120D01*
X120431113Y-83014301D01*
X120454799Y-82977383D01*
X120453843Y-82976628D01*
X120458381Y-82970882D01*
X120463552Y-82965702D01*
X120492648Y-82918500D01*
X120549462Y-82826331D01*
X120549463Y-82826329D01*
X120553302Y-82820101D01*
X120607149Y-82657757D01*
X120607898Y-82650453D01*
X120617172Y-82559930D01*
X120617500Y-82556732D01*
X120617500Y-82009268D01*
X120606887Y-81906981D01*
X120584273Y-81839198D01*
X120555073Y-81751676D01*
X120555072Y-81751674D01*
X120552756Y-81744732D01*
X120462752Y-81599287D01*
X120341702Y-81478448D01*
X120329384Y-81470855D01*
X120281890Y-81418082D01*
X120269500Y-81363595D01*
X120269500Y-76787032D01*
X120270030Y-76775793D01*
X120271709Y-76768281D01*
X120269562Y-76699969D01*
X120269500Y-76696012D01*
X120269500Y-76668017D01*
X120268992Y-76663994D01*
X120268059Y-76652152D01*
X120267300Y-76627984D01*
X120266665Y-76607795D01*
X120260987Y-76588251D01*
X120256977Y-76568888D01*
X120255420Y-76556560D01*
X120255420Y-76556558D01*
X120254427Y-76548701D01*
X120251511Y-76541337D01*
X120251510Y-76541332D01*
X120238093Y-76507444D01*
X120234248Y-76496215D01*
X120227071Y-76471513D01*
X120221869Y-76453607D01*
X120215121Y-76442197D01*
X120211512Y-76436094D01*
X120202812Y-76418336D01*
X120198239Y-76406785D01*
X120198235Y-76406779D01*
X120195319Y-76399412D01*
X120190411Y-76392656D01*
X120169236Y-76363512D01*
X120162719Y-76353590D01*
X120144174Y-76322232D01*
X120144171Y-76322228D01*
X120140134Y-76315402D01*
X120125750Y-76301018D01*
X120112909Y-76285984D01*
X120105602Y-76275927D01*
X120100942Y-76269513D01*
X120066744Y-76241222D01*
X120057965Y-76233233D01*
X114210405Y-70385672D01*
X114176379Y-70323360D01*
X114173500Y-70296577D01*
X114173500Y-68639935D01*
X114175051Y-68620224D01*
X114176995Y-68607950D01*
X114178235Y-68600121D01*
X114174059Y-68555944D01*
X114173500Y-68544086D01*
X114173500Y-66881020D01*
X114174029Y-66869791D01*
X114175708Y-66862281D01*
X114173562Y-66794001D01*
X114173500Y-66790044D01*
X114173500Y-66762017D01*
X114172989Y-66757971D01*
X114172057Y-66746136D01*
X114170913Y-66709722D01*
X114170664Y-66701795D01*
X114164987Y-66682254D01*
X114160978Y-66662894D01*
X114159421Y-66650566D01*
X114159420Y-66650563D01*
X114158427Y-66642701D01*
X114155510Y-66635335D01*
X114155509Y-66635329D01*
X114142091Y-66601439D01*
X114138246Y-66590210D01*
X114131828Y-66568120D01*
X114125869Y-66547607D01*
X114121836Y-66540788D01*
X114121834Y-66540783D01*
X114115510Y-66530091D01*
X114106813Y-66512341D01*
X114099319Y-66493412D01*
X114073240Y-66457517D01*
X114066722Y-66447595D01*
X114048170Y-66416224D01*
X114048166Y-66416219D01*
X114044134Y-66409401D01*
X114029747Y-66395014D01*
X114016906Y-66379980D01*
X114009602Y-66369927D01*
X114004942Y-66363513D01*
X113970750Y-66335227D01*
X113961971Y-66327238D01*
X113756715Y-66121982D01*
X117243142Y-66121982D01*
X117250668Y-66132415D01*
X117396463Y-66249848D01*
X117402648Y-66254244D01*
X117678363Y-66426195D01*
X117685034Y-66429817D01*
X117979414Y-66567402D01*
X117986468Y-66570195D01*
X118295257Y-66671420D01*
X118302570Y-66673339D01*
X118621298Y-66736738D01*
X118628789Y-66737764D01*
X118952823Y-66762413D01*
X118960386Y-66762531D01*
X119285021Y-66748074D01*
X119292562Y-66747282D01*
X119613115Y-66693926D01*
X119620479Y-66692240D01*
X119932315Y-66600757D01*
X119939424Y-66598198D01*
X120238003Y-66469919D01*
X120244770Y-66466515D01*
X120525764Y-66303301D01*
X120532071Y-66299111D01*
X120750005Y-66134588D01*
X120758461Y-66123197D01*
X120751743Y-66110953D01*
X119012812Y-64372022D01*
X118998868Y-64364408D01*
X118997035Y-64364539D01*
X118990420Y-64368790D01*
X117250257Y-66108953D01*
X117243142Y-66121982D01*
X113756715Y-66121982D01*
X112624085Y-64989352D01*
X112590059Y-64927040D01*
X112595124Y-64856225D01*
X112637671Y-64799389D01*
X112697240Y-64776033D01*
X112697219Y-64775935D01*
X112697811Y-64775809D01*
X112700010Y-64774947D01*
X112703682Y-64774561D01*
X112710247Y-64773871D01*
X112716525Y-64771831D01*
X112716526Y-64771831D01*
X112844979Y-64730094D01*
X112887876Y-64716156D01*
X113029162Y-64634585D01*
X113043903Y-64626074D01*
X113049624Y-64622771D01*
X113054532Y-64618352D01*
X113183518Y-64502212D01*
X113183519Y-64502210D01*
X113188421Y-64497797D01*
X113226127Y-64445900D01*
X113294321Y-64352039D01*
X113294322Y-64352038D01*
X113298202Y-64346697D01*
X113315904Y-64306939D01*
X113371483Y-64182105D01*
X113371483Y-64182104D01*
X113374168Y-64176074D01*
X113400247Y-64053383D01*
X113411628Y-63999842D01*
X113411628Y-63999837D01*
X113413000Y-63993385D01*
X113413000Y-63974858D01*
X116237299Y-63974858D01*
X116253456Y-64299410D01*
X116254287Y-64306939D01*
X116309318Y-64627198D01*
X116311051Y-64634585D01*
X116404156Y-64945909D01*
X116406759Y-64953022D01*
X116536595Y-65250913D01*
X116540037Y-65257669D01*
X116704720Y-65537803D01*
X116708943Y-65544088D01*
X116865792Y-65749608D01*
X116877316Y-65758069D01*
X116889382Y-65751408D01*
X118627978Y-64012812D01*
X118635592Y-63998868D01*
X118635461Y-63997035D01*
X118631210Y-63990420D01*
X116890864Y-62250074D01*
X116877929Y-62243011D01*
X116867367Y-62250671D01*
X116741785Y-62408268D01*
X116737428Y-62414467D01*
X116566913Y-62691094D01*
X116563333Y-62697770D01*
X116427287Y-62992878D01*
X116424537Y-62999929D01*
X116324927Y-63309251D01*
X116323044Y-63316584D01*
X116261316Y-63635632D01*
X116260329Y-63643132D01*
X116237378Y-63967277D01*
X116237299Y-63974858D01*
X113413000Y-63974858D01*
X113413000Y-63806615D01*
X113374168Y-63623926D01*
X113355399Y-63581770D01*
X113300887Y-63459333D01*
X113300886Y-63459331D01*
X113298202Y-63453303D01*
X113188421Y-63302203D01*
X113103871Y-63226073D01*
X113054532Y-63181648D01*
X113054531Y-63181647D01*
X113049624Y-63177229D01*
X112887876Y-63083844D01*
X112781366Y-63049237D01*
X112716526Y-63028169D01*
X112716525Y-63028169D01*
X112710247Y-63026129D01*
X112703684Y-63025439D01*
X112703683Y-63025439D01*
X112680903Y-63023045D01*
X112571063Y-63011500D01*
X112477937Y-63011500D01*
X112368097Y-63023045D01*
X112345317Y-63025439D01*
X112345316Y-63025439D01*
X112338753Y-63026129D01*
X112332475Y-63028169D01*
X112332474Y-63028169D01*
X112267634Y-63049237D01*
X112161124Y-63083844D01*
X111999376Y-63177229D01*
X111994469Y-63181647D01*
X111994468Y-63181648D01*
X111945130Y-63226073D01*
X111860579Y-63302203D01*
X111750798Y-63453303D01*
X111748114Y-63459331D01*
X111748113Y-63459333D01*
X111693601Y-63581770D01*
X111674832Y-63623926D01*
X111636000Y-63806615D01*
X111636000Y-63872136D01*
X111615998Y-63940257D01*
X111562342Y-63986750D01*
X111490279Y-63996583D01*
X111489364Y-63996438D01*
X111477760Y-63994035D01*
X111434782Y-63983000D01*
X111414435Y-63983000D01*
X111394724Y-63981449D01*
X111382450Y-63979505D01*
X111374621Y-63978265D01*
X111366729Y-63979011D01*
X111330444Y-63982441D01*
X111318586Y-63983000D01*
X105359812Y-63983000D01*
X105291691Y-63962998D01*
X105245198Y-63909342D01*
X105235094Y-63839068D01*
X105250693Y-63794000D01*
X105275273Y-63751426D01*
X105275274Y-63751425D01*
X105278577Y-63745703D01*
X105333882Y-63575491D01*
X105352590Y-63397500D01*
X105343541Y-63311404D01*
X105334572Y-63226073D01*
X105334572Y-63226072D01*
X105333882Y-63219509D01*
X105321580Y-63181648D01*
X105280572Y-63055436D01*
X105280572Y-62977564D01*
X105331842Y-62819770D01*
X105331842Y-62819769D01*
X105333882Y-62813491D01*
X105336076Y-62792622D01*
X105351900Y-62642065D01*
X105352590Y-62635500D01*
X105333882Y-62457509D01*
X105330470Y-62447006D01*
X105280619Y-62293582D01*
X105278577Y-62287297D01*
X105189091Y-62132303D01*
X105069336Y-61999301D01*
X104924545Y-61894104D01*
X104918517Y-61891420D01*
X104918515Y-61891419D01*
X104767077Y-61823995D01*
X104767076Y-61823995D01*
X104761046Y-61821310D01*
X104647847Y-61797249D01*
X104592442Y-61785472D01*
X104592440Y-61785472D01*
X104585986Y-61784100D01*
X104582459Y-61784100D01*
X104513609Y-61753876D01*
X104512094Y-61752361D01*
X104508959Y-61749930D01*
X104508952Y-61749923D01*
X104508874Y-61749863D01*
X104499849Y-61742155D01*
X104473285Y-61717210D01*
X104467506Y-61711783D01*
X104449669Y-61701977D01*
X104433153Y-61691127D01*
X104417067Y-61678650D01*
X104416083Y-61678224D01*
X104369712Y-61628563D01*
X104357006Y-61558712D01*
X104384080Y-61493081D01*
X104442340Y-61452506D01*
X104482303Y-61446000D01*
X117440435Y-61446000D01*
X117508556Y-61466002D01*
X117555049Y-61519658D01*
X117565153Y-61589932D01*
X117535659Y-61654512D01*
X117504858Y-61680285D01*
X117450196Y-61712805D01*
X117443945Y-61717053D01*
X117250733Y-61866115D01*
X117242267Y-61877773D01*
X117248871Y-61889661D01*
X118987188Y-63627978D01*
X119001132Y-63635592D01*
X119002965Y-63635461D01*
X119009580Y-63631210D01*
X120750162Y-61890628D01*
X120757174Y-61877787D01*
X120749379Y-61867098D01*
X120579886Y-61733481D01*
X120573663Y-61729156D01*
X120492326Y-61679605D01*
X120444557Y-61627082D01*
X120432767Y-61557071D01*
X120460699Y-61491800D01*
X120519485Y-61451992D01*
X120557879Y-61446000D01*
X121361000Y-61446000D01*
X121429121Y-61466002D01*
X121475614Y-61519658D01*
X121487000Y-61572000D01*
X121487000Y-62337698D01*
X121466998Y-62405819D01*
X121413342Y-62452312D01*
X121343068Y-62462416D01*
X121278488Y-62432922D01*
X121261643Y-62415184D01*
X121133617Y-62251022D01*
X121121823Y-62242551D01*
X121110113Y-62249097D01*
X119372022Y-63987188D01*
X119364408Y-64001132D01*
X119364539Y-64002965D01*
X119368790Y-64009580D01*
X121108825Y-65749615D01*
X121121948Y-65756781D01*
X121132250Y-65749391D01*
X121241429Y-65615285D01*
X121245838Y-65609149D01*
X121254437Y-65595520D01*
X121307703Y-65548581D01*
X121377891Y-65537891D01*
X121442715Y-65566844D01*
X121481596Y-65626248D01*
X121487000Y-65662754D01*
X121487000Y-86304000D01*
X121466998Y-86372121D01*
X121413342Y-86418614D01*
X121361000Y-86430000D01*
X92629000Y-86430000D01*
X92560879Y-86409998D01*
X92514386Y-86356342D01*
X92503000Y-86304000D01*
X92503000Y-82216669D01*
X105426001Y-82216669D01*
X105426371Y-82223490D01*
X105431895Y-82274352D01*
X105435521Y-82289604D01*
X105480676Y-82410054D01*
X105489214Y-82425649D01*
X105565715Y-82527724D01*
X105578276Y-82540285D01*
X105680351Y-82616786D01*
X105695946Y-82625324D01*
X105816394Y-82670478D01*
X105831649Y-82674105D01*
X105882514Y-82679631D01*
X105889328Y-82680000D01*
X105915885Y-82680000D01*
X105931124Y-82675525D01*
X105932329Y-82674135D01*
X105934000Y-82666452D01*
X105934000Y-82090115D01*
X105929001Y-82073091D01*
X105918909Y-82057387D01*
X105869140Y-82072000D01*
X105444116Y-82072000D01*
X105428877Y-82076475D01*
X105427672Y-82077865D01*
X105426001Y-82085548D01*
X105426001Y-82216669D01*
X92503000Y-82216669D01*
X92503000Y-76518502D01*
X93298500Y-76518502D01*
X93298693Y-76520950D01*
X93298693Y-76520958D01*
X93300927Y-76549333D01*
X93301438Y-76555831D01*
X93322019Y-76626672D01*
X93345638Y-76707969D01*
X93347855Y-76715601D01*
X93351892Y-76722427D01*
X93428509Y-76851980D01*
X93428511Y-76851983D01*
X93432547Y-76858807D01*
X93550193Y-76976453D01*
X93557016Y-76980488D01*
X93557020Y-76980491D01*
X93640257Y-77029717D01*
X93693399Y-77061145D01*
X93701010Y-77063356D01*
X93701012Y-77063357D01*
X93753231Y-77078528D01*
X93853169Y-77107562D01*
X93859574Y-77108066D01*
X93859579Y-77108067D01*
X93888042Y-77110307D01*
X93888050Y-77110307D01*
X93890498Y-77110500D01*
X94323502Y-77110500D01*
X94325950Y-77110307D01*
X94325958Y-77110307D01*
X94354421Y-77108067D01*
X94354426Y-77108066D01*
X94360831Y-77107562D01*
X94460769Y-77078528D01*
X94512988Y-77063357D01*
X94512990Y-77063356D01*
X94520601Y-77061145D01*
X94663807Y-76976453D01*
X94666489Y-76973771D01*
X94730861Y-76948498D01*
X94800484Y-76962400D01*
X94816312Y-76972572D01*
X94820193Y-76976453D01*
X94963399Y-77061145D01*
X94971010Y-77063356D01*
X94971012Y-77063357D01*
X95023231Y-77078528D01*
X95123169Y-77107562D01*
X95129574Y-77108066D01*
X95129579Y-77108067D01*
X95158042Y-77110307D01*
X95158050Y-77110307D01*
X95160498Y-77110500D01*
X95593502Y-77110500D01*
X95595950Y-77110307D01*
X95595958Y-77110307D01*
X95624421Y-77108067D01*
X95624426Y-77108066D01*
X95630831Y-77107562D01*
X95730769Y-77078528D01*
X95782988Y-77063357D01*
X95782990Y-77063356D01*
X95790601Y-77061145D01*
X95933807Y-76976453D01*
X95936489Y-76973771D01*
X96000861Y-76948498D01*
X96070484Y-76962400D01*
X96086312Y-76972572D01*
X96090193Y-76976453D01*
X96233399Y-77061145D01*
X96241010Y-77063356D01*
X96241012Y-77063357D01*
X96293231Y-77078528D01*
X96393169Y-77107562D01*
X96399574Y-77108066D01*
X96399579Y-77108067D01*
X96428042Y-77110307D01*
X96428050Y-77110307D01*
X96430498Y-77110500D01*
X96863502Y-77110500D01*
X96865950Y-77110307D01*
X96865958Y-77110307D01*
X96894421Y-77108067D01*
X96894426Y-77108066D01*
X96900831Y-77107562D01*
X97000769Y-77078528D01*
X97052988Y-77063357D01*
X97052990Y-77063356D01*
X97060601Y-77061145D01*
X97203807Y-76976453D01*
X97206747Y-76973513D01*
X97271271Y-76948179D01*
X97340894Y-76962080D01*
X97359640Y-76974129D01*
X97367323Y-76980089D01*
X97496779Y-77056648D01*
X97511210Y-77062893D01*
X97645605Y-77101939D01*
X97659706Y-77101899D01*
X97663000Y-77094630D01*
X97663000Y-77088878D01*
X98171000Y-77088878D01*
X98174973Y-77102409D01*
X98182871Y-77103544D01*
X98322790Y-77062893D01*
X98337221Y-77056648D01*
X98466678Y-76980089D01*
X98479104Y-76970449D01*
X98585449Y-76864104D01*
X98595089Y-76851678D01*
X98671648Y-76722221D01*
X98677893Y-76707790D01*
X98720269Y-76561935D01*
X98722570Y-76549333D01*
X98724807Y-76520916D01*
X98725000Y-76515986D01*
X98725000Y-75899115D01*
X98720525Y-75883876D01*
X98719135Y-75882671D01*
X98711452Y-75881000D01*
X98189115Y-75881000D01*
X98173876Y-75885475D01*
X98172671Y-75886865D01*
X98171000Y-75894548D01*
X98171000Y-77088878D01*
X97663000Y-77088878D01*
X97663000Y-75354885D01*
X98171000Y-75354885D01*
X98175475Y-75370124D01*
X98176865Y-75371329D01*
X98184548Y-75373000D01*
X98706884Y-75373000D01*
X98722123Y-75368525D01*
X98723328Y-75367135D01*
X98724999Y-75359452D01*
X98724999Y-74738017D01*
X98724805Y-74733080D01*
X98722570Y-74704664D01*
X98720270Y-74692069D01*
X98677893Y-74546210D01*
X98671648Y-74531779D01*
X98595089Y-74402322D01*
X98585449Y-74389896D01*
X98479104Y-74283551D01*
X98466678Y-74273911D01*
X98337221Y-74197352D01*
X98322790Y-74191107D01*
X98188395Y-74152061D01*
X98174294Y-74152101D01*
X98171000Y-74159370D01*
X98171000Y-75354885D01*
X97663000Y-75354885D01*
X97663000Y-74165122D01*
X97659027Y-74151591D01*
X97651129Y-74150456D01*
X97511210Y-74191107D01*
X97496779Y-74197352D01*
X97367324Y-74273910D01*
X97359636Y-74279874D01*
X97293551Y-74305821D01*
X97223928Y-74291920D01*
X97207842Y-74281582D01*
X97203807Y-74277547D01*
X97060601Y-74192855D01*
X97052990Y-74190644D01*
X97052988Y-74190643D01*
X96965142Y-74165122D01*
X96900831Y-74146438D01*
X96894426Y-74145934D01*
X96894421Y-74145933D01*
X96865958Y-74143693D01*
X96865950Y-74143693D01*
X96863502Y-74143500D01*
X96430498Y-74143500D01*
X96428050Y-74143693D01*
X96428042Y-74143693D01*
X96399579Y-74145933D01*
X96399574Y-74145934D01*
X96393169Y-74146438D01*
X96328858Y-74165122D01*
X96241012Y-74190643D01*
X96241010Y-74190644D01*
X96233399Y-74192855D01*
X96090193Y-74277547D01*
X96087511Y-74280229D01*
X96023139Y-74305502D01*
X95953516Y-74291600D01*
X95937688Y-74281428D01*
X95933807Y-74277547D01*
X95790601Y-74192855D01*
X95782990Y-74190644D01*
X95782988Y-74190643D01*
X95695142Y-74165122D01*
X95630831Y-74146438D01*
X95624426Y-74145934D01*
X95624421Y-74145933D01*
X95595958Y-74143693D01*
X95595950Y-74143693D01*
X95593502Y-74143500D01*
X95160498Y-74143500D01*
X95158050Y-74143693D01*
X95158042Y-74143693D01*
X95129579Y-74145933D01*
X95129574Y-74145934D01*
X95123169Y-74146438D01*
X95058858Y-74165122D01*
X94971012Y-74190643D01*
X94971010Y-74190644D01*
X94963399Y-74192855D01*
X94820193Y-74277547D01*
X94817511Y-74280229D01*
X94753139Y-74305502D01*
X94683516Y-74291600D01*
X94667688Y-74281428D01*
X94663807Y-74277547D01*
X94520601Y-74192855D01*
X94512990Y-74190644D01*
X94512988Y-74190643D01*
X94425142Y-74165122D01*
X94360831Y-74146438D01*
X94354426Y-74145934D01*
X94354421Y-74145933D01*
X94325958Y-74143693D01*
X94325950Y-74143693D01*
X94323502Y-74143500D01*
X93890498Y-74143500D01*
X93888050Y-74143693D01*
X93888042Y-74143693D01*
X93859579Y-74145933D01*
X93859574Y-74145934D01*
X93853169Y-74146438D01*
X93788858Y-74165122D01*
X93701012Y-74190643D01*
X93701010Y-74190644D01*
X93693399Y-74192855D01*
X93686572Y-74196892D01*
X93686573Y-74196892D01*
X93557020Y-74273509D01*
X93557017Y-74273511D01*
X93550193Y-74277547D01*
X93432547Y-74395193D01*
X93428511Y-74402017D01*
X93428509Y-74402020D01*
X93364893Y-74509589D01*
X93347855Y-74538399D01*
X93345644Y-74546010D01*
X93345643Y-74546012D01*
X93330472Y-74598231D01*
X93301438Y-74698169D01*
X93300934Y-74704574D01*
X93300933Y-74704579D01*
X93298693Y-74733042D01*
X93298500Y-74735498D01*
X93298500Y-76518502D01*
X92503000Y-76518502D01*
X92503000Y-66121982D01*
X93243142Y-66121982D01*
X93250668Y-66132415D01*
X93396463Y-66249848D01*
X93402648Y-66254244D01*
X93678363Y-66426195D01*
X93685034Y-66429817D01*
X93979414Y-66567402D01*
X93986468Y-66570195D01*
X94295257Y-66671420D01*
X94302570Y-66673339D01*
X94621298Y-66736738D01*
X94628789Y-66737764D01*
X94952823Y-66762413D01*
X94960386Y-66762531D01*
X95285021Y-66748074D01*
X95292562Y-66747282D01*
X95613115Y-66693926D01*
X95620479Y-66692240D01*
X95932315Y-66600757D01*
X95939424Y-66598198D01*
X96238003Y-66469919D01*
X96244770Y-66466515D01*
X96525764Y-66303301D01*
X96532071Y-66299111D01*
X96750005Y-66134588D01*
X96758461Y-66123197D01*
X96751743Y-66110953D01*
X95012812Y-64372022D01*
X94998868Y-64364408D01*
X94997035Y-64364539D01*
X94990420Y-64368790D01*
X93250257Y-66108953D01*
X93243142Y-66121982D01*
X92503000Y-66121982D01*
X92503000Y-65647024D01*
X92523002Y-65578903D01*
X92576658Y-65532410D01*
X92646932Y-65522306D01*
X92711512Y-65551800D01*
X92729163Y-65570582D01*
X92865792Y-65749608D01*
X92877316Y-65758069D01*
X92889382Y-65751408D01*
X94627978Y-64012812D01*
X94635592Y-63998868D01*
X94635461Y-63997035D01*
X94631210Y-63990420D01*
X92890864Y-62250074D01*
X92877929Y-62243011D01*
X92867367Y-62250671D01*
X92741785Y-62408268D01*
X92737427Y-62414469D01*
X92736261Y-62416360D01*
X92735816Y-62416760D01*
X92735245Y-62417573D01*
X92735059Y-62417442D01*
X92683489Y-62463855D01*
X92613418Y-62475279D01*
X92548294Y-62447006D01*
X92508793Y-62388012D01*
X92503000Y-62350246D01*
X92503000Y-61572000D01*
X92523002Y-61503879D01*
X92576658Y-61457386D01*
X92629000Y-61446000D01*
X93440435Y-61446000D01*
X93508556Y-61466002D01*
G37*
%TD.AperFunction*%
%TA.AperFunction,Conductor*%
G36*
X109905698Y-82527502D02*
G01*
X109952191Y-82581158D01*
X109962295Y-82651432D01*
X109932801Y-82716012D01*
X109926672Y-82722595D01*
X109180393Y-83468874D01*
X109118081Y-83502900D01*
X109107506Y-83504600D01*
X109102514Y-83504600D01*
X108927454Y-83541810D01*
X108921424Y-83544495D01*
X108921423Y-83544495D01*
X108769985Y-83611919D01*
X108769983Y-83611920D01*
X108763955Y-83614604D01*
X108758614Y-83618484D01*
X108758613Y-83618485D01*
X108651323Y-83696436D01*
X108584455Y-83720295D01*
X108577262Y-83720500D01*
X108547423Y-83720500D01*
X108479302Y-83700498D01*
X108458328Y-83683595D01*
X107670328Y-82895595D01*
X107636302Y-82833283D01*
X107641367Y-82762468D01*
X107683914Y-82705632D01*
X107750434Y-82680821D01*
X107759423Y-82680500D01*
X107982134Y-82680500D01*
X108044316Y-82673745D01*
X108180705Y-82622615D01*
X108297261Y-82535261D01*
X108298946Y-82537509D01*
X108348630Y-82510379D01*
X108375413Y-82507500D01*
X109837577Y-82507500D01*
X109905698Y-82527502D01*
G37*
%TD.AperFunction*%
%TA.AperFunction,Conductor*%
G36*
X112844621Y-69616502D02*
G01*
X112891114Y-69670158D01*
X112902500Y-69722500D01*
X112902500Y-70532980D01*
X112901970Y-70544214D01*
X112900292Y-70551719D01*
X112901106Y-70577611D01*
X112902438Y-70620012D01*
X112902500Y-70623969D01*
X112902500Y-70651983D01*
X112902996Y-70655908D01*
X112902996Y-70655909D01*
X112903008Y-70656004D01*
X112903941Y-70667849D01*
X112905335Y-70712205D01*
X112907547Y-70719817D01*
X112911013Y-70731748D01*
X112915023Y-70751112D01*
X112917573Y-70771299D01*
X112920489Y-70778663D01*
X112920490Y-70778668D01*
X112933907Y-70812556D01*
X112937752Y-70823785D01*
X112950131Y-70866393D01*
X112954169Y-70873220D01*
X112954170Y-70873223D01*
X112960488Y-70883906D01*
X112969188Y-70901664D01*
X112973761Y-70913215D01*
X112973765Y-70913221D01*
X112976681Y-70920588D01*
X112981339Y-70926999D01*
X112981340Y-70927001D01*
X113002764Y-70956488D01*
X113009281Y-70966410D01*
X113027826Y-70997768D01*
X113027829Y-70997772D01*
X113031866Y-71004598D01*
X113046250Y-71018982D01*
X113059091Y-71034016D01*
X113071058Y-71050487D01*
X113100714Y-71075020D01*
X113105255Y-71078777D01*
X113114035Y-71086767D01*
X118961595Y-76934328D01*
X118995621Y-76996640D01*
X118998500Y-77023423D01*
X118998500Y-81258383D01*
X118978498Y-81326504D01*
X118924842Y-81372997D01*
X118854568Y-81383101D01*
X118808363Y-81366838D01*
X118800422Y-81362142D01*
X118800420Y-81362141D01*
X118793597Y-81358106D01*
X118785986Y-81355895D01*
X118785984Y-81355894D01*
X118732996Y-81340500D01*
X118636254Y-81312394D01*
X118629849Y-81311890D01*
X118629844Y-81311889D01*
X118601940Y-81309693D01*
X118601932Y-81309693D01*
X118599484Y-81309500D01*
X118128516Y-81309500D01*
X118126068Y-81309693D01*
X118126060Y-81309693D01*
X118098156Y-81311889D01*
X118098151Y-81311890D01*
X118091746Y-81312394D01*
X117995004Y-81340500D01*
X117942016Y-81355894D01*
X117942014Y-81355895D01*
X117934403Y-81358106D01*
X117927581Y-81362141D01*
X117927580Y-81362141D01*
X117919638Y-81366838D01*
X117793371Y-81441512D01*
X117792384Y-81439842D01*
X117735941Y-81462006D01*
X117724795Y-81462500D01*
X117481788Y-81462500D01*
X117413667Y-81442498D01*
X117367174Y-81388842D01*
X117357070Y-81318568D01*
X117360792Y-81301345D01*
X117361939Y-81297397D01*
X117361899Y-81283294D01*
X117354630Y-81280000D01*
X117116842Y-81280000D01*
X117052703Y-81262453D01*
X117003951Y-81233621D01*
X116975601Y-81216855D01*
X116967990Y-81214644D01*
X116967988Y-81214643D01*
X116915769Y-81199472D01*
X116815831Y-81170438D01*
X116809426Y-81169934D01*
X116809421Y-81169933D01*
X116780958Y-81167693D01*
X116780950Y-81167693D01*
X116778502Y-81167500D01*
X116071500Y-81167500D01*
X116003379Y-81147498D01*
X115956886Y-81093842D01*
X115945500Y-81041500D01*
X115945500Y-81010500D01*
X115965502Y-80942379D01*
X116019158Y-80895886D01*
X116071500Y-80884500D01*
X116778502Y-80884500D01*
X116780950Y-80884307D01*
X116780958Y-80884307D01*
X116809421Y-80882067D01*
X116809426Y-80882066D01*
X116815831Y-80881562D01*
X116915769Y-80852528D01*
X116967988Y-80837357D01*
X116967990Y-80837356D01*
X116975601Y-80835145D01*
X117052703Y-80789547D01*
X117116842Y-80772000D01*
X117348878Y-80772000D01*
X117362409Y-80768027D01*
X117363544Y-80760129D01*
X117322893Y-80620210D01*
X117314872Y-80601674D01*
X117306176Y-80531212D01*
X117314872Y-80501596D01*
X117317111Y-80496423D01*
X117321145Y-80489601D01*
X117367562Y-80329831D01*
X117369944Y-80299575D01*
X117370307Y-80294958D01*
X117370307Y-80294950D01*
X117370500Y-80292502D01*
X117370500Y-79859498D01*
X117370219Y-79855926D01*
X117368067Y-79828579D01*
X117368066Y-79828574D01*
X117367562Y-79822169D01*
X117321145Y-79662399D01*
X117262361Y-79563001D01*
X117240491Y-79526020D01*
X117240489Y-79526017D01*
X117236453Y-79519193D01*
X117118807Y-79401547D01*
X117111983Y-79397511D01*
X117111980Y-79397509D01*
X116998797Y-79330573D01*
X116975601Y-79316855D01*
X116967990Y-79314644D01*
X116967988Y-79314643D01*
X116892179Y-79292619D01*
X116815831Y-79270438D01*
X116809426Y-79269934D01*
X116809421Y-79269933D01*
X116780958Y-79267693D01*
X116780950Y-79267693D01*
X116778502Y-79267500D01*
X115620498Y-79267500D01*
X115618050Y-79267693D01*
X115618042Y-79267693D01*
X115589579Y-79269933D01*
X115589574Y-79269934D01*
X115583169Y-79270438D01*
X115506821Y-79292619D01*
X115431012Y-79314643D01*
X115431010Y-79314644D01*
X115423399Y-79316855D01*
X115400203Y-79330573D01*
X115287020Y-79397509D01*
X115287017Y-79397511D01*
X115280193Y-79401547D01*
X115162547Y-79519193D01*
X115160295Y-79523002D01*
X115104000Y-79563655D01*
X115033108Y-79567504D01*
X114971389Y-79532414D01*
X114964721Y-79524719D01*
X114961453Y-79519193D01*
X114843807Y-79401547D01*
X114836983Y-79397511D01*
X114836980Y-79397509D01*
X114723797Y-79330573D01*
X114700601Y-79316855D01*
X114692990Y-79314644D01*
X114692988Y-79314643D01*
X114617179Y-79292619D01*
X114540831Y-79270438D01*
X114534426Y-79269934D01*
X114534421Y-79269933D01*
X114505958Y-79267693D01*
X114505950Y-79267693D01*
X114503502Y-79267500D01*
X113345498Y-79267500D01*
X113343050Y-79267693D01*
X113343042Y-79267693D01*
X113314579Y-79269933D01*
X113314574Y-79269934D01*
X113308169Y-79270438D01*
X113231821Y-79292619D01*
X113156012Y-79314643D01*
X113156010Y-79314644D01*
X113148399Y-79316855D01*
X113125203Y-79330573D01*
X113012020Y-79397509D01*
X113012017Y-79397511D01*
X113005193Y-79401547D01*
X112887547Y-79519193D01*
X112883511Y-79526017D01*
X112883509Y-79526020D01*
X112861639Y-79563001D01*
X112802855Y-79662399D01*
X112756438Y-79822169D01*
X112755934Y-79828574D01*
X112755933Y-79828579D01*
X112753781Y-79855926D01*
X112753500Y-79859498D01*
X112753500Y-80292502D01*
X112753693Y-80294950D01*
X112753693Y-80294958D01*
X112754057Y-80299575D01*
X112756438Y-80329831D01*
X112802855Y-80489601D01*
X112806892Y-80496427D01*
X112883509Y-80625980D01*
X112883511Y-80625983D01*
X112887547Y-80632807D01*
X113005193Y-80750453D01*
X113012017Y-80754489D01*
X113012020Y-80754491D01*
X113071297Y-80789547D01*
X113148399Y-80835145D01*
X113156010Y-80837356D01*
X113156012Y-80837357D01*
X113208231Y-80852528D01*
X113308169Y-80881562D01*
X113314574Y-80882066D01*
X113314579Y-80882067D01*
X113343042Y-80884307D01*
X113343050Y-80884307D01*
X113345498Y-80884500D01*
X114300500Y-80884500D01*
X114368621Y-80904502D01*
X114415114Y-80958158D01*
X114426500Y-81010500D01*
X114426500Y-81041500D01*
X114406498Y-81109621D01*
X114352842Y-81156114D01*
X114300500Y-81167500D01*
X113345498Y-81167500D01*
X113343050Y-81167693D01*
X113343042Y-81167693D01*
X113314579Y-81169933D01*
X113314574Y-81169934D01*
X113308169Y-81170438D01*
X113208231Y-81199472D01*
X113156012Y-81214643D01*
X113156010Y-81214644D01*
X113148399Y-81216855D01*
X113120049Y-81233621D01*
X113012020Y-81297509D01*
X113012017Y-81297511D01*
X113005193Y-81301547D01*
X112999585Y-81307155D01*
X112993325Y-81312011D01*
X112991661Y-81309866D01*
X112940833Y-81337621D01*
X112914050Y-81340500D01*
X112745208Y-81340500D01*
X112698987Y-81330928D01*
X112697597Y-81330106D01*
X112689991Y-81327896D01*
X112689988Y-81327895D01*
X112585396Y-81297509D01*
X112540254Y-81284394D01*
X112533849Y-81283890D01*
X112533844Y-81283889D01*
X112505940Y-81281693D01*
X112505932Y-81281693D01*
X112503484Y-81281500D01*
X112032516Y-81281500D01*
X112030068Y-81281693D01*
X112030060Y-81281693D01*
X112002156Y-81283889D01*
X112002151Y-81283890D01*
X111995746Y-81284394D01*
X111937400Y-81301345D01*
X111846016Y-81327894D01*
X111846014Y-81327895D01*
X111838403Y-81330106D01*
X111831580Y-81334141D01*
X111831578Y-81334142D01*
X111823637Y-81338838D01*
X111754820Y-81356296D01*
X111687490Y-81333778D01*
X111643021Y-81278432D01*
X111633500Y-81230383D01*
X111633500Y-78565020D01*
X111634029Y-78553791D01*
X111635708Y-78546281D01*
X111634993Y-78523513D01*
X111633562Y-78478002D01*
X111633500Y-78474044D01*
X111633500Y-78446017D01*
X111632989Y-78441971D01*
X111632057Y-78430136D01*
X111631867Y-78424065D01*
X111630664Y-78385795D01*
X111624987Y-78366254D01*
X111620978Y-78346894D01*
X111619421Y-78334566D01*
X111619420Y-78334563D01*
X111618427Y-78326701D01*
X111615510Y-78319335D01*
X111615509Y-78319329D01*
X111602091Y-78285439D01*
X111598246Y-78274210D01*
X111591362Y-78250516D01*
X111585869Y-78231607D01*
X111581836Y-78224788D01*
X111581834Y-78224783D01*
X111575510Y-78214091D01*
X111566813Y-78196341D01*
X111559319Y-78177412D01*
X111533240Y-78141517D01*
X111526722Y-78131595D01*
X111508170Y-78100224D01*
X111508166Y-78100219D01*
X111504134Y-78093401D01*
X111489747Y-78079014D01*
X111476906Y-78063980D01*
X111469602Y-78053927D01*
X111464942Y-78047513D01*
X111430750Y-78019227D01*
X111421971Y-78011238D01*
X110037405Y-76626672D01*
X110003379Y-76564360D01*
X110000500Y-76537577D01*
X110000499Y-76206484D01*
X110000499Y-76204012D01*
X109998092Y-76173421D01*
X110012689Y-76103942D01*
X110062533Y-76053383D01*
X110069670Y-76049868D01*
X110075601Y-76048145D01*
X110106441Y-76029906D01*
X110211980Y-75967491D01*
X110211983Y-75967489D01*
X110218807Y-75963453D01*
X110336453Y-75845807D01*
X110340489Y-75838983D01*
X110340491Y-75838980D01*
X110417108Y-75709427D01*
X110421145Y-75702601D01*
X110429533Y-75673731D01*
X110440098Y-75637365D01*
X110467562Y-75542831D01*
X110470500Y-75505502D01*
X110470500Y-74197498D01*
X110469997Y-74191107D01*
X110468067Y-74166579D01*
X110468066Y-74166574D01*
X110467562Y-74160169D01*
X110421145Y-74000399D01*
X110381547Y-73933443D01*
X110340491Y-73864020D01*
X110340489Y-73864017D01*
X110336453Y-73857193D01*
X110218807Y-73739547D01*
X110211983Y-73735511D01*
X110211980Y-73735509D01*
X110082427Y-73658892D01*
X110082428Y-73658892D01*
X110075601Y-73654855D01*
X110067990Y-73652644D01*
X110067988Y-73652643D01*
X110015769Y-73637472D01*
X109915831Y-73608438D01*
X109909426Y-73607934D01*
X109909421Y-73607933D01*
X109880958Y-73605693D01*
X109880950Y-73605693D01*
X109878502Y-73605500D01*
X109646500Y-73605500D01*
X109578379Y-73585498D01*
X109531886Y-73531842D01*
X109520500Y-73479500D01*
X109520500Y-72328500D01*
X109540502Y-72260379D01*
X109594158Y-72213886D01*
X109646500Y-72202500D01*
X109921677Y-72202499D01*
X109929988Y-72202499D01*
X109966466Y-72199629D01*
X110096048Y-72161982D01*
X110114983Y-72156481D01*
X110114985Y-72156480D01*
X110122596Y-72154269D01*
X110262541Y-72071506D01*
X110377506Y-71956541D01*
X110460269Y-71816596D01*
X110475085Y-71765601D01*
X110503834Y-71666644D01*
X110505629Y-71660466D01*
X110506135Y-71654047D01*
X110508307Y-71626444D01*
X110508307Y-71626438D01*
X110508500Y-71623989D01*
X110508499Y-71124012D01*
X110505629Y-71087534D01*
X110470439Y-70966410D01*
X110462481Y-70939017D01*
X110462480Y-70939015D01*
X110460269Y-70931404D01*
X110453873Y-70920588D01*
X110381046Y-70797445D01*
X110363500Y-70733306D01*
X110363500Y-70673422D01*
X110383502Y-70605301D01*
X110400405Y-70584327D01*
X111351327Y-69633405D01*
X111413639Y-69599379D01*
X111440422Y-69596500D01*
X112776500Y-69596500D01*
X112844621Y-69616502D01*
G37*
%TD.AperFunction*%
%TA.AperFunction,Conductor*%
G36*
X109047244Y-77433976D02*
G01*
X109163998Y-77550730D01*
X109198024Y-77613042D01*
X109192959Y-77683857D01*
X109192000Y-77686182D01*
X109192000Y-78213885D01*
X109196475Y-78229124D01*
X109197865Y-78230329D01*
X109205548Y-78232000D01*
X109706424Y-78232000D01*
X109742023Y-78221547D01*
X109813019Y-78221547D01*
X109866616Y-78253348D01*
X110325595Y-78712327D01*
X110359621Y-78774639D01*
X110362500Y-78801422D01*
X110362500Y-80964577D01*
X110342498Y-81032698D01*
X110325595Y-81053672D01*
X110179672Y-81199595D01*
X110117360Y-81233621D01*
X110090577Y-81236500D01*
X108423779Y-81236500D01*
X108355658Y-81216498D01*
X108309165Y-81162842D01*
X108297779Y-81110500D01*
X108297779Y-80372009D01*
X108295975Y-80372009D01*
X108293575Y-80352869D01*
X108294534Y-80326277D01*
X108294859Y-80317268D01*
X108292633Y-80308533D01*
X108291673Y-80299575D01*
X108295389Y-80299177D01*
X108297355Y-80245849D01*
X108316034Y-80210212D01*
X108319544Y-80205529D01*
X108384615Y-80118705D01*
X108435745Y-79982316D01*
X108442500Y-79920134D01*
X108442500Y-79395327D01*
X108462502Y-79327206D01*
X108516158Y-79280713D01*
X108586432Y-79270609D01*
X108603653Y-79274330D01*
X108666605Y-79292619D01*
X108680705Y-79292579D01*
X108684000Y-79285309D01*
X108684000Y-79279558D01*
X109192000Y-79279558D01*
X109195973Y-79293089D01*
X109203871Y-79294224D01*
X109329784Y-79257643D01*
X109344220Y-79251396D01*
X109471499Y-79176124D01*
X109483926Y-79166484D01*
X109588484Y-79061926D01*
X109598124Y-79049499D01*
X109673396Y-78922220D01*
X109679643Y-78907784D01*
X109721312Y-78764359D01*
X109722768Y-78756391D01*
X109719948Y-78742969D01*
X109708487Y-78740000D01*
X109210115Y-78740000D01*
X109194876Y-78744475D01*
X109193671Y-78745865D01*
X109192000Y-78753548D01*
X109192000Y-79279558D01*
X108684000Y-79279558D01*
X108684000Y-79007379D01*
X108701546Y-78943240D01*
X108713859Y-78922420D01*
X108713859Y-78922419D01*
X108717894Y-78915597D01*
X108763606Y-78758254D01*
X108764317Y-78749232D01*
X108766307Y-78723940D01*
X108766307Y-78723932D01*
X108766500Y-78721484D01*
X108766500Y-78250516D01*
X108765012Y-78231607D01*
X108764111Y-78220156D01*
X108764110Y-78220151D01*
X108763606Y-78213746D01*
X108717894Y-78056403D01*
X108713858Y-78049579D01*
X108710710Y-78042304D01*
X108712631Y-78041473D01*
X108697850Y-77983221D01*
X108714643Y-77924898D01*
X108760077Y-77846203D01*
X108805335Y-77706914D01*
X108813342Y-77682270D01*
X108813342Y-77682269D01*
X108815382Y-77675991D01*
X108832839Y-77509899D01*
X108859852Y-77444244D01*
X108918074Y-77403614D01*
X108989019Y-77400911D01*
X109047244Y-77433976D01*
G37*
%TD.AperFunction*%
%TA.AperFunction,Conductor*%
G36*
X107012921Y-75735474D02*
G01*
X107042450Y-75769553D01*
X107087547Y-75845807D01*
X107205193Y-75963453D01*
X107212017Y-75967489D01*
X107212020Y-75967491D01*
X107223177Y-75974089D01*
X107348399Y-76048145D01*
X107351827Y-76049141D01*
X107404910Y-76093311D01*
X107426270Y-76161018D01*
X107425907Y-76173422D01*
X107423693Y-76201551D01*
X107423692Y-76201567D01*
X107423500Y-76204011D01*
X107423500Y-76333119D01*
X107413138Y-76383158D01*
X107409028Y-76392656D01*
X107403805Y-76403318D01*
X107386249Y-76435251D01*
X107386247Y-76435255D01*
X107382431Y-76442197D01*
X107380460Y-76449872D01*
X107380458Y-76449878D01*
X107377369Y-76461911D01*
X107370966Y-76480613D01*
X107362883Y-76499292D01*
X107357524Y-76533128D01*
X107355940Y-76543127D01*
X107353535Y-76554740D01*
X107342500Y-76597718D01*
X107342500Y-76618065D01*
X107340949Y-76637776D01*
X107337765Y-76657879D01*
X107338511Y-76665771D01*
X107341941Y-76702056D01*
X107342500Y-76713914D01*
X107342500Y-76883031D01*
X107322498Y-76951152D01*
X107310142Y-76967335D01*
X107285409Y-76994803D01*
X107249703Y-77056648D01*
X107223283Y-77102409D01*
X107195923Y-77149797D01*
X107140618Y-77320009D01*
X107121910Y-77498000D01*
X107140618Y-77675991D01*
X107142658Y-77682269D01*
X107142658Y-77682270D01*
X107150665Y-77706914D01*
X107195923Y-77846203D01*
X107241357Y-77924897D01*
X107258094Y-77993888D01*
X107243796Y-78041657D01*
X107245290Y-78042304D01*
X107242142Y-78049579D01*
X107238106Y-78056403D01*
X107192394Y-78213746D01*
X107191890Y-78220151D01*
X107191889Y-78220156D01*
X107190988Y-78231607D01*
X107189500Y-78250516D01*
X107189500Y-78362011D01*
X107179138Y-78412048D01*
X107165024Y-78444666D01*
X107159807Y-78455314D01*
X107153415Y-78466942D01*
X107138431Y-78494197D01*
X107136460Y-78501872D01*
X107136458Y-78501878D01*
X107133369Y-78513911D01*
X107126966Y-78532613D01*
X107118883Y-78551292D01*
X107117644Y-78559117D01*
X107111940Y-78595127D01*
X107109535Y-78606740D01*
X107098500Y-78649718D01*
X107098500Y-78670065D01*
X107096949Y-78689776D01*
X107093765Y-78709879D01*
X107094511Y-78717771D01*
X107097941Y-78754056D01*
X107098500Y-78765914D01*
X107098500Y-78968103D01*
X107084119Y-79024316D01*
X107083385Y-79025295D01*
X107080234Y-79033701D01*
X107080232Y-79033704D01*
X107051982Y-79109062D01*
X107009340Y-79165826D01*
X106942779Y-79190526D01*
X106873430Y-79175319D01*
X106823312Y-79125033D01*
X106816018Y-79109062D01*
X106787767Y-79033703D01*
X106784615Y-79025295D01*
X106764761Y-78998803D01*
X106759174Y-78991349D01*
X106734326Y-78924842D01*
X106734000Y-78915784D01*
X106734000Y-78782116D01*
X106729525Y-78766877D01*
X106728135Y-78765672D01*
X106720452Y-78764001D01*
X106689331Y-78764001D01*
X106682510Y-78764371D01*
X106631648Y-78769895D01*
X106616396Y-78773521D01*
X106578942Y-78787562D01*
X106508135Y-78792745D01*
X106490482Y-78787562D01*
X106456010Y-78774639D01*
X106444316Y-78770255D01*
X106382134Y-78763500D01*
X105917500Y-78763500D01*
X105849379Y-78743498D01*
X105802886Y-78689842D01*
X105791500Y-78637500D01*
X105791500Y-77785422D01*
X105811502Y-77717301D01*
X105828405Y-77696327D01*
X106059482Y-77465250D01*
X106067803Y-77457678D01*
X106074303Y-77453553D01*
X106121087Y-77403733D01*
X106123841Y-77400892D01*
X106143639Y-77381094D01*
X106146063Y-77377969D01*
X106146071Y-77377960D01*
X106146137Y-77377874D01*
X106153845Y-77368849D01*
X106178790Y-77342285D01*
X106184217Y-77336506D01*
X106194023Y-77318669D01*
X106204873Y-77302153D01*
X106217350Y-77286067D01*
X106234976Y-77245334D01*
X106240193Y-77234686D01*
X106257749Y-77202751D01*
X106261569Y-77195803D01*
X106263540Y-77188128D01*
X106263542Y-77188122D01*
X106266631Y-77176089D01*
X106273034Y-77157387D01*
X106281117Y-77138708D01*
X106286476Y-77104872D01*
X106288060Y-77094873D01*
X106290458Y-77083288D01*
X106291122Y-77080700D01*
X106312027Y-77038020D01*
X106313506Y-77036541D01*
X106337104Y-76996640D01*
X106392234Y-76903419D01*
X106392234Y-76903418D01*
X106396269Y-76896596D01*
X106441629Y-76740466D01*
X106444500Y-76703989D01*
X106444499Y-76370424D01*
X106464501Y-76302304D01*
X106481404Y-76281329D01*
X106499488Y-76263245D01*
X106507805Y-76255676D01*
X106514303Y-76251553D01*
X106561087Y-76201733D01*
X106563841Y-76198892D01*
X106583639Y-76179094D01*
X106586063Y-76175969D01*
X106586071Y-76175960D01*
X106586137Y-76175874D01*
X106593845Y-76166849D01*
X106618790Y-76140285D01*
X106624217Y-76134506D01*
X106634023Y-76116669D01*
X106644873Y-76100153D01*
X106657350Y-76084067D01*
X106674976Y-76043334D01*
X106680193Y-76032686D01*
X106697749Y-76000751D01*
X106701569Y-75993803D01*
X106703540Y-75986128D01*
X106703542Y-75986122D01*
X106706631Y-75974089D01*
X106713034Y-75955387D01*
X106721117Y-75936708D01*
X106722358Y-75928876D01*
X106723559Y-75924740D01*
X106755461Y-75870799D01*
X106780453Y-75845807D01*
X106825549Y-75769554D01*
X106877439Y-75721104D01*
X106947290Y-75708399D01*
X107012921Y-75735474D01*
G37*
%TD.AperFunction*%
%TA.AperFunction,Conductor*%
G36*
X105239621Y-74242502D02*
G01*
X105286114Y-74296158D01*
X105297500Y-74348500D01*
X105297500Y-75505502D01*
X105300438Y-75542831D01*
X105302233Y-75549008D01*
X105303390Y-75555343D01*
X105301636Y-75555663D01*
X105301460Y-75618031D01*
X105262908Y-75677649D01*
X105244802Y-75690646D01*
X105220138Y-75705232D01*
X105151322Y-75722691D01*
X105091862Y-75705232D01*
X105067198Y-75690646D01*
X105018745Y-75638753D01*
X105006039Y-75568903D01*
X105008703Y-75555360D01*
X105008610Y-75555343D01*
X105009767Y-75549008D01*
X105011562Y-75542831D01*
X105014500Y-75505502D01*
X105014500Y-74348500D01*
X105034502Y-74280379D01*
X105088158Y-74233886D01*
X105140500Y-74222500D01*
X105171500Y-74222500D01*
X105239621Y-74242502D01*
G37*
%TD.AperFunction*%
%TA.AperFunction,Conductor*%
G36*
X108795621Y-74242502D02*
G01*
X108842114Y-74296158D01*
X108853500Y-74348500D01*
X108853500Y-75359863D01*
X108833498Y-75427984D01*
X108811947Y-75452289D01*
X108811697Y-75452447D01*
X108806269Y-75458227D01*
X108806268Y-75458228D01*
X108802623Y-75462109D01*
X108741409Y-75498072D01*
X108670470Y-75495232D01*
X108621681Y-75464948D01*
X108607405Y-75450672D01*
X108573379Y-75388360D01*
X108570500Y-75361577D01*
X108570500Y-74348500D01*
X108590502Y-74280379D01*
X108644158Y-74233886D01*
X108696500Y-74222500D01*
X108727500Y-74222500D01*
X108795621Y-74242502D01*
G37*
%TD.AperFunction*%
%TA.AperFunction,Conductor*%
G36*
X109735699Y-67457502D02*
G01*
X109782192Y-67511158D01*
X109792296Y-67581432D01*
X109762802Y-67646012D01*
X109756673Y-67652595D01*
X108316517Y-69092750D01*
X108308191Y-69100326D01*
X108301697Y-69104447D01*
X108296274Y-69110222D01*
X108254915Y-69154265D01*
X108252160Y-69157107D01*
X108232361Y-69176906D01*
X108229937Y-69180031D01*
X108229929Y-69180040D01*
X108229863Y-69180126D01*
X108222155Y-69189151D01*
X108191783Y-69221494D01*
X108187965Y-69228438D01*
X108187964Y-69228440D01*
X108181978Y-69239329D01*
X108171127Y-69255847D01*
X108158650Y-69271933D01*
X108141024Y-69312666D01*
X108135807Y-69323314D01*
X108114431Y-69362197D01*
X108112460Y-69369872D01*
X108112458Y-69369878D01*
X108109369Y-69381911D01*
X108102966Y-69400613D01*
X108094883Y-69419292D01*
X108093644Y-69427117D01*
X108087940Y-69463127D01*
X108085535Y-69474740D01*
X108074500Y-69517718D01*
X108074500Y-69538065D01*
X108072949Y-69557776D01*
X108069765Y-69577879D01*
X108070511Y-69585771D01*
X108073941Y-69622056D01*
X108074500Y-69633914D01*
X108074500Y-70736688D01*
X108056954Y-70800827D01*
X107986128Y-70920588D01*
X107979731Y-70931404D01*
X107977520Y-70939015D01*
X107977519Y-70939017D01*
X107969561Y-70966410D01*
X107934371Y-71087534D01*
X107933867Y-71093941D01*
X107933866Y-71093945D01*
X107931693Y-71121556D01*
X107931500Y-71124011D01*
X107931501Y-71623988D01*
X107934371Y-71660466D01*
X107979731Y-71816596D01*
X107983766Y-71823419D01*
X107983767Y-71823421D01*
X108019674Y-71884136D01*
X108037134Y-71952953D01*
X108019675Y-72012413D01*
X107952855Y-72125399D01*
X107950644Y-72133010D01*
X107950643Y-72133012D01*
X107943825Y-72156481D01*
X107906438Y-72285169D01*
X107903500Y-72322498D01*
X107903500Y-73479500D01*
X107883498Y-73547621D01*
X107829842Y-73594114D01*
X107777500Y-73605500D01*
X107545498Y-73605500D01*
X107543050Y-73605693D01*
X107543042Y-73605693D01*
X107514579Y-73607933D01*
X107514574Y-73607934D01*
X107508169Y-73608438D01*
X107408231Y-73637472D01*
X107356012Y-73652643D01*
X107356010Y-73652644D01*
X107348399Y-73654855D01*
X107341572Y-73658892D01*
X107341573Y-73658892D01*
X107212020Y-73735509D01*
X107212017Y-73735511D01*
X107205193Y-73739547D01*
X107087547Y-73857193D01*
X107042451Y-73933446D01*
X106990561Y-73981896D01*
X106920710Y-73994601D01*
X106855079Y-73967526D01*
X106825550Y-73933447D01*
X106780453Y-73857193D01*
X106662807Y-73739547D01*
X106655983Y-73735511D01*
X106655980Y-73735509D01*
X106526427Y-73658892D01*
X106526428Y-73658892D01*
X106519601Y-73654855D01*
X106511990Y-73652644D01*
X106511988Y-73652643D01*
X106459769Y-73637472D01*
X106359831Y-73608438D01*
X106353426Y-73607934D01*
X106353421Y-73607933D01*
X106324958Y-73605693D01*
X106324950Y-73605693D01*
X106322502Y-73605500D01*
X106090500Y-73605500D01*
X106022379Y-73585498D01*
X105975886Y-73531842D01*
X105964500Y-73479500D01*
X105964500Y-72322498D01*
X105961562Y-72285169D01*
X105924175Y-72156481D01*
X105917357Y-72133012D01*
X105917356Y-72133010D01*
X105915145Y-72125399D01*
X105848325Y-72012413D01*
X105830866Y-71943599D01*
X105848326Y-71884136D01*
X105884233Y-71823421D01*
X105884234Y-71823419D01*
X105888269Y-71816596D01*
X105903085Y-71765601D01*
X105931834Y-71666644D01*
X105933629Y-71660466D01*
X105934135Y-71654047D01*
X105936307Y-71626444D01*
X105936307Y-71626438D01*
X105936500Y-71623989D01*
X105936499Y-71124012D01*
X105933629Y-71087534D01*
X105931832Y-71081349D01*
X105931831Y-71081343D01*
X105931807Y-71081261D01*
X105931807Y-71081213D01*
X105930676Y-71075020D01*
X105931826Y-71074810D01*
X105932014Y-71010265D01*
X105963711Y-70957021D01*
X109446327Y-67474405D01*
X109508639Y-67440379D01*
X109535422Y-67437500D01*
X109667578Y-67437500D01*
X109735699Y-67457502D01*
G37*
%TD.AperFunction*%
%TA.AperFunction,Conductor*%
G36*
X104448126Y-65256232D02*
G01*
X104448491Y-65256302D01*
X104448496Y-65256302D01*
X104456279Y-65257787D01*
X104512514Y-65254249D01*
X104520425Y-65254000D01*
X111039078Y-65254000D01*
X111107199Y-65274002D01*
X111128173Y-65290905D01*
X111672146Y-65834878D01*
X111706172Y-65897190D01*
X111701107Y-65968005D01*
X111658560Y-66024841D01*
X111634299Y-66039080D01*
X111585955Y-66060604D01*
X111580613Y-66064485D01*
X111580610Y-66064487D01*
X111580058Y-66064888D01*
X111579684Y-66065021D01*
X111574896Y-66067786D01*
X111574390Y-66066910D01*
X111513190Y-66088745D01*
X111444039Y-66072662D01*
X111431942Y-66064888D01*
X111431390Y-66064487D01*
X111431387Y-66064485D01*
X111426045Y-66060604D01*
X111420017Y-66057920D01*
X111420015Y-66057919D01*
X111268577Y-65990495D01*
X111268576Y-65990495D01*
X111262546Y-65987810D01*
X111175016Y-65969205D01*
X111093943Y-65951972D01*
X111093939Y-65951972D01*
X111087486Y-65950600D01*
X110908514Y-65950600D01*
X110902061Y-65951972D01*
X110902057Y-65951972D01*
X110820984Y-65969205D01*
X110733454Y-65987810D01*
X110727424Y-65990495D01*
X110727423Y-65990495D01*
X110575985Y-66057919D01*
X110575983Y-66057920D01*
X110569955Y-66060604D01*
X110564614Y-66064484D01*
X110564613Y-66064485D01*
X110457323Y-66142436D01*
X110390455Y-66166295D01*
X110383262Y-66166500D01*
X109299020Y-66166500D01*
X109287791Y-66165971D01*
X109280281Y-66164292D01*
X109272355Y-66164541D01*
X109272354Y-66164541D01*
X109212002Y-66166438D01*
X109208044Y-66166500D01*
X109180017Y-66166500D01*
X109175971Y-66167011D01*
X109164143Y-66167942D01*
X109119795Y-66169336D01*
X109112178Y-66171549D01*
X109100253Y-66175013D01*
X109080894Y-66179022D01*
X109079633Y-66179181D01*
X109060701Y-66181573D01*
X109053337Y-66184489D01*
X109053332Y-66184490D01*
X109031421Y-66193166D01*
X109019428Y-66197914D01*
X109008224Y-66201751D01*
X108965607Y-66214132D01*
X108948094Y-66224489D01*
X108930343Y-66233185D01*
X108918785Y-66237761D01*
X108918780Y-66237764D01*
X108911412Y-66240681D01*
X108904997Y-66245342D01*
X108875507Y-66266767D01*
X108865585Y-66273284D01*
X108834228Y-66291828D01*
X108834225Y-66291830D01*
X108827401Y-66295866D01*
X108813014Y-66310253D01*
X108797980Y-66323094D01*
X108781513Y-66335058D01*
X108776460Y-66341166D01*
X108753228Y-66369249D01*
X108745238Y-66378029D01*
X104764517Y-70358750D01*
X104756191Y-70366326D01*
X104749697Y-70370447D01*
X104744274Y-70376222D01*
X104702915Y-70420265D01*
X104700160Y-70423107D01*
X104680361Y-70442906D01*
X104677937Y-70446031D01*
X104677929Y-70446040D01*
X104677863Y-70446126D01*
X104670155Y-70455151D01*
X104639783Y-70487494D01*
X104635965Y-70494438D01*
X104635964Y-70494440D01*
X104629978Y-70505329D01*
X104619127Y-70521847D01*
X104613248Y-70529427D01*
X104609822Y-70533844D01*
X104552264Y-70575408D01*
X104475113Y-70577611D01*
X104380647Y-70550166D01*
X104380640Y-70550165D01*
X104374466Y-70548371D01*
X104368059Y-70547867D01*
X104368055Y-70547866D01*
X104340444Y-70545693D01*
X104340438Y-70545693D01*
X104337989Y-70545500D01*
X104138122Y-70545500D01*
X103938012Y-70545501D01*
X103901534Y-70548371D01*
X103808472Y-70575408D01*
X103753017Y-70591519D01*
X103753015Y-70591520D01*
X103745404Y-70593731D01*
X103605459Y-70676494D01*
X103490494Y-70791459D01*
X103486460Y-70798280D01*
X103414128Y-70920588D01*
X103407731Y-70931404D01*
X103405520Y-70939015D01*
X103405519Y-70939017D01*
X103397561Y-70966410D01*
X103362371Y-71087534D01*
X103361867Y-71093941D01*
X103361866Y-71093945D01*
X103359693Y-71121556D01*
X103359500Y-71124011D01*
X103359500Y-71201577D01*
X103339498Y-71269698D01*
X103322595Y-71290672D01*
X102730083Y-71883184D01*
X102667771Y-71917210D01*
X102640988Y-71920089D01*
X98799078Y-71920089D01*
X98730957Y-71900087D01*
X98684464Y-71846431D01*
X98674360Y-71776157D01*
X98678081Y-71758936D01*
X98722562Y-71605831D01*
X98725500Y-71568502D01*
X98725500Y-71335400D01*
X98745502Y-71267279D01*
X98799158Y-71220786D01*
X98851500Y-71209400D01*
X98895486Y-71209400D01*
X98901939Y-71208028D01*
X98901943Y-71208028D01*
X98983016Y-71190795D01*
X99070546Y-71172190D01*
X99076577Y-71169505D01*
X99228015Y-71102081D01*
X99228017Y-71102080D01*
X99234045Y-71099396D01*
X99250372Y-71087534D01*
X99373492Y-70998082D01*
X99373494Y-70998080D01*
X99378836Y-70994199D01*
X99498591Y-70861197D01*
X99567830Y-70741272D01*
X99584773Y-70711926D01*
X99584774Y-70711925D01*
X99588077Y-70706203D01*
X99640292Y-70545501D01*
X99641342Y-70542270D01*
X99641342Y-70542269D01*
X99643382Y-70535991D01*
X99644868Y-70521858D01*
X99661400Y-70364565D01*
X99662090Y-70358000D01*
X99643382Y-70180009D01*
X99588077Y-70009797D01*
X99498591Y-69854803D01*
X99433978Y-69783042D01*
X99383258Y-69726712D01*
X99383257Y-69726711D01*
X99378836Y-69721801D01*
X99345299Y-69697435D01*
X99301947Y-69641213D01*
X99295872Y-69570477D01*
X99329004Y-69507685D01*
X99390824Y-69472774D01*
X99419362Y-69469500D01*
X101493262Y-69469500D01*
X101561383Y-69489502D01*
X101567323Y-69493564D01*
X101673185Y-69570477D01*
X101679955Y-69575396D01*
X101685983Y-69578080D01*
X101685985Y-69578081D01*
X101810246Y-69633405D01*
X101843454Y-69648190D01*
X101930984Y-69666795D01*
X102012057Y-69684028D01*
X102012061Y-69684028D01*
X102018514Y-69685400D01*
X102197486Y-69685400D01*
X102203939Y-69684028D01*
X102203943Y-69684028D01*
X102285016Y-69666795D01*
X102372546Y-69648190D01*
X102405754Y-69633405D01*
X102530015Y-69578081D01*
X102530017Y-69578080D01*
X102536045Y-69575396D01*
X102541387Y-69571515D01*
X102675492Y-69474082D01*
X102675494Y-69474080D01*
X102680836Y-69470199D01*
X102687204Y-69463127D01*
X102796172Y-69342105D01*
X102796173Y-69342104D01*
X102800591Y-69337197D01*
X102880822Y-69198233D01*
X102886773Y-69187926D01*
X102886774Y-69187925D01*
X102890077Y-69182203D01*
X102945382Y-69011991D01*
X102964090Y-68834000D01*
X102945382Y-68656009D01*
X102936937Y-68630016D01*
X102892119Y-68492082D01*
X102890077Y-68485797D01*
X102800591Y-68330803D01*
X102777807Y-68305498D01*
X102685258Y-68202712D01*
X102685257Y-68202711D01*
X102680836Y-68197801D01*
X102658494Y-68181568D01*
X102541387Y-68096485D01*
X102541386Y-68096484D01*
X102536045Y-68092604D01*
X102530017Y-68089920D01*
X102530015Y-68089919D01*
X102487701Y-68071080D01*
X102433606Y-68025100D01*
X102412956Y-67957173D01*
X102432308Y-67888865D01*
X102449855Y-67866878D01*
X102458639Y-67858094D01*
X102458642Y-67858090D01*
X102985209Y-67331523D01*
X103263493Y-67053240D01*
X103271801Y-67045679D01*
X103278303Y-67041553D01*
X103325086Y-66991734D01*
X103327840Y-66988893D01*
X103347639Y-66969094D01*
X103350068Y-66965963D01*
X103350072Y-66965958D01*
X103350139Y-66965872D01*
X103357847Y-66956847D01*
X103382792Y-66930283D01*
X103388217Y-66924506D01*
X103392035Y-66917561D01*
X103392038Y-66917557D01*
X103398026Y-66906666D01*
X103408878Y-66890145D01*
X103410847Y-66887606D01*
X103421350Y-66874066D01*
X103438971Y-66833345D01*
X103444192Y-66822689D01*
X103461748Y-66790755D01*
X103461750Y-66790749D01*
X103465569Y-66783803D01*
X103467540Y-66776128D01*
X103467542Y-66776122D01*
X103470631Y-66764089D01*
X103477034Y-66745387D01*
X103485117Y-66726708D01*
X103486357Y-66718882D01*
X103486358Y-66718877D01*
X103492060Y-66682880D01*
X103494466Y-66671260D01*
X103503528Y-66635963D01*
X103503528Y-66635962D01*
X103505500Y-66628282D01*
X103505500Y-66607934D01*
X103507051Y-66588223D01*
X103508995Y-66575949D01*
X103510235Y-66568120D01*
X103506059Y-66523944D01*
X103505500Y-66512086D01*
X103505500Y-65847423D01*
X103525502Y-65779302D01*
X103542405Y-65758327D01*
X104009829Y-65290904D01*
X104072141Y-65256879D01*
X104098924Y-65254000D01*
X104424517Y-65254000D01*
X104448126Y-65256232D01*
G37*
%TD.AperFunction*%
%TD*%
M02*
