%TF.GenerationSoftware,KiCad,Pcbnew,(6.0.0-0)*%
%TF.CreationDate,2022-03-07T01:14:35-05:00*%
%TF.ProjectId,air_quality,6169725f-7175-4616-9c69-74792e6b6963,rev?*%
%TF.SameCoordinates,Original*%
%TF.FileFunction,Soldermask,Top*%
%TF.FilePolarity,Negative*%
%FSLAX46Y46*%
G04 Gerber Fmt 4.6, Leading zero omitted, Abs format (unit mm)*
G04 Created by KiCad (PCBNEW (6.0.0-0)) date 2022-03-07 01:14:35*
%MOMM*%
%LPD*%
G01*
G04 APERTURE LIST*
G04 Aperture macros list*
%AMRoundRect*
0 Rectangle with rounded corners*
0 $1 Rounding radius*
0 $2 $3 $4 $5 $6 $7 $8 $9 X,Y pos of 4 corners*
0 Add a 4 corners polygon primitive as box body*
4,1,4,$2,$3,$4,$5,$6,$7,$8,$9,$2,$3,0*
0 Add four circle primitives for the rounded corners*
1,1,$1+$1,$2,$3*
1,1,$1+$1,$4,$5*
1,1,$1+$1,$6,$7*
1,1,$1+$1,$8,$9*
0 Add four rect primitives between the rounded corners*
20,1,$1+$1,$2,$3,$4,$5,0*
20,1,$1+$1,$4,$5,$6,$7,0*
20,1,$1+$1,$6,$7,$8,$9,0*
20,1,$1+$1,$8,$9,$2,$3,0*%
G04 Aperture macros list end*
%ADD10C,0.000100*%
%ADD11RoundRect,0.150000X0.512500X0.150000X-0.512500X0.150000X-0.512500X-0.150000X0.512500X-0.150000X0*%
%ADD12R,0.400000X0.600000*%
%ADD13RoundRect,0.135000X0.135000X0.185000X-0.135000X0.185000X-0.135000X-0.185000X0.135000X-0.185000X0*%
%ADD14RoundRect,0.135000X-0.135000X-0.185000X0.135000X-0.185000X0.135000X0.185000X-0.135000X0.185000X0*%
%ADD15RoundRect,0.150000X0.150000X-0.587500X0.150000X0.587500X-0.150000X0.587500X-0.150000X-0.587500X0*%
%ADD16RoundRect,0.140000X-0.170000X0.140000X-0.170000X-0.140000X0.170000X-0.140000X0.170000X0.140000X0*%
%ADD17RoundRect,0.140000X-0.140000X-0.170000X0.140000X-0.170000X0.140000X0.170000X-0.140000X0.170000X0*%
%ADD18RoundRect,0.225000X-0.250000X0.225000X-0.250000X-0.225000X0.250000X-0.225000X0.250000X0.225000X0*%
%ADD19C,4.500000*%
%ADD20RoundRect,0.150000X0.150000X-0.825000X0.150000X0.825000X-0.150000X0.825000X-0.150000X-0.825000X0*%
%ADD21RoundRect,0.218750X-0.256250X0.218750X-0.256250X-0.218750X0.256250X-0.218750X0.256250X0.218750X0*%
%ADD22C,0.760000*%
G04 APERTURE END LIST*
D10*
%TO.C,U1*%
X105984000Y-79997000D02*
X105984000Y-81447000D01*
X105984000Y-81447000D02*
X107884000Y-81447000D01*
X107884000Y-81447000D02*
X107884000Y-80322000D01*
X107884000Y-80322000D02*
X107559000Y-79997000D01*
X107559000Y-79997000D02*
X105984000Y-79997000D01*
G36*
X107884000Y-80322000D02*
G01*
X107884000Y-81447000D01*
X105984000Y-81447000D01*
X105984000Y-79997000D01*
X107559000Y-79997000D01*
X107884000Y-80322000D01*
G37*
X107884000Y-80322000D02*
X107884000Y-81447000D01*
X105984000Y-81447000D01*
X105984000Y-79997000D01*
X107559000Y-79997000D01*
X107884000Y-80322000D01*
X105984000Y-79997000D02*
X105984000Y-81447000D01*
X105984000Y-81447000D02*
X107884000Y-81447000D01*
X107884000Y-81447000D02*
X107884000Y-80322000D01*
X107884000Y-80322000D02*
X107559000Y-79997000D01*
X107559000Y-79997000D02*
X105984000Y-79997000D01*
G36*
X107884000Y-80322000D02*
G01*
X107884000Y-81447000D01*
X105984000Y-81447000D01*
X105984000Y-79997000D01*
X107559000Y-79997000D01*
X107884000Y-80322000D01*
G37*
X107884000Y-80322000D02*
X107884000Y-81447000D01*
X105984000Y-81447000D01*
X105984000Y-79997000D01*
X107559000Y-79997000D01*
X107884000Y-80322000D01*
%TD*%
D11*
%TO.C,U2*%
X116199500Y-81976000D03*
X116199500Y-81026000D03*
X116199500Y-80076000D03*
X113924500Y-80076000D03*
X113924500Y-81976000D03*
%TD*%
D12*
%TO.C,U1*%
X107734000Y-79572000D03*
X106934000Y-79572000D03*
X106134000Y-79572000D03*
X106134000Y-81872000D03*
X106934000Y-81872000D03*
X107734000Y-81872000D03*
%TD*%
D13*
%TO.C,R5*%
X109730000Y-71374000D03*
X108710000Y-71374000D03*
%TD*%
D14*
%TO.C,R4*%
X104138000Y-71374000D03*
X105158000Y-71374000D03*
%TD*%
%TO.C,R3*%
X108202000Y-76454000D03*
X109222000Y-76454000D03*
%TD*%
%TO.C,R2*%
X104646000Y-76454000D03*
X105666000Y-76454000D03*
%TD*%
D15*
%TO.C,Q2*%
X107762000Y-74851500D03*
X109662000Y-74851500D03*
X108712000Y-72976500D03*
%TD*%
%TO.C,Q1*%
X104206000Y-74851500D03*
X106106000Y-74851500D03*
X105156000Y-72976500D03*
%TD*%
D16*
%TO.C,C5*%
X112268000Y-83030000D03*
X112268000Y-82070000D03*
%TD*%
%TO.C,C4*%
X111252000Y-82832000D03*
X111252000Y-83792000D03*
%TD*%
%TO.C,C3*%
X118364000Y-82098000D03*
X118364000Y-83058000D03*
%TD*%
D17*
%TO.C,C2*%
X107978000Y-78486000D03*
X108938000Y-78486000D03*
%TD*%
D18*
%TO.C,C1*%
X119634000Y-82283000D03*
X119634000Y-83833000D03*
%TD*%
D19*
%TO.C,H1*%
X95000000Y-64000000D03*
%TD*%
%TO.C,H2*%
X119000000Y-64000000D03*
%TD*%
D13*
%TO.C,R1*%
X99062000Y-63754000D03*
X98042000Y-63754000D03*
%TD*%
D20*
%TO.C,U4*%
X94107000Y-75627000D03*
X95377000Y-75627000D03*
X96647000Y-75627000D03*
X97917000Y-75627000D03*
X97917000Y-70677000D03*
X96647000Y-70677000D03*
X95377000Y-70677000D03*
X94107000Y-70677000D03*
%TD*%
D21*
%TO.C,D1*%
X98552000Y-66827500D03*
X98552000Y-65252500D03*
%TD*%
D22*
%TO.C,J1*%
X101475500Y-63900000D03*
X112524500Y-63900000D03*
%TD*%
M02*
