M48
; DRILL file {KiCad (6.0.0-0)} date Monday, March 07, 2022 at 01:14:35 AM
; FORMAT={-:-/ absolute / inch / decimal}
; #@! TF.CreationDate,2022-03-07T01:14:35-05:00
; #@! TF.GenerationSoftware,Kicad,Pcbnew,(6.0.0-0)
; #@! TF.FileFunction,Plated,1,4,PTH
FMAT,2
INCH
; #@! TA.AperFunction,Plated,PTH,ViaDrill
T1C0.0130
; #@! TA.AperFunction,Plated,PTH,ComponentDrill
T2C0.1181
%
G90
G05
T1
X3.73Y-2.89
X3.78Y-2.89
X3.83Y-2.89
X3.89Y-2.77
X3.93Y-2.82
X3.98Y-2.96
X4.02Y-2.71
X4.02Y-2.82
X4.04Y-3.13
X4.09Y-2.75
X4.095Y-2.59
X4.095Y-2.625
X4.095Y-2.66
X4.114Y-2.466
X4.114Y-2.496
X4.12Y-3.15
X4.12Y-3.2
X4.12Y-3.25
X4.14Y-2.93
X4.15Y-2.71
X4.19Y-2.8
X4.19Y-3.08
X4.21Y-3.01
X4.24Y-2.76
X4.2511Y-3.0511
X4.28Y-2.93
X4.2989Y-3.3211
X4.3Y-3.16
X4.3Y-3.27
X4.34Y-3.12
X4.37Y-2.63
X4.41Y-2.63
X4.42Y-2.76
X4.42Y-2.84
X4.42Y-2.92
X4.42Y-3.0
X4.42Y-3.07
X4.49Y-3.3
X4.5Y-2.92
X4.5Y-3.0
X4.5Y-3.07
X4.58Y-2.76
X4.58Y-3.0
X4.58Y-3.07
X4.58Y-3.3
X4.66Y-2.84
X4.66Y-3.07
X4.66Y-3.15
T2
X3.7402Y-2.5197
X4.685Y-2.5197
T0
M30
