%TF.GenerationSoftware,KiCad,Pcbnew,(6.0.0-0)*%
%TF.CreationDate,2022-03-07T01:14:35-05:00*%
%TF.ProjectId,air_quality,6169725f-7175-4616-9c69-74792e6b6963,rev?*%
%TF.SameCoordinates,Original*%
%TF.FileFunction,Legend,Top*%
%TF.FilePolarity,Positive*%
%FSLAX46Y46*%
G04 Gerber Fmt 4.6, Leading zero omitted, Abs format (unit mm)*
G04 Created by KiCad (PCBNEW (6.0.0-0)) date 2022-03-07 01:14:35*
%MOMM*%
%LPD*%
G01*
G04 APERTURE LIST*
%ADD10C,0.080000*%
%ADD11C,0.200000*%
%ADD12C,0.120000*%
%ADD13C,0.203200*%
%ADD14C,0.228600*%
%ADD15C,0.500000*%
%ADD16C,1.000000*%
G04 APERTURE END LIST*
D10*
X93892285Y-77874000D02*
X94178000Y-77874000D01*
X93835142Y-78045428D02*
X94035142Y-77445428D01*
X94235142Y-78045428D01*
X94435142Y-78045428D02*
X94435142Y-77645428D01*
X94435142Y-77445428D02*
X94406571Y-77474000D01*
X94435142Y-77502571D01*
X94463714Y-77474000D01*
X94435142Y-77445428D01*
X94435142Y-77502571D01*
X94720857Y-78045428D02*
X94720857Y-77645428D01*
X94720857Y-77759714D02*
X94749428Y-77702571D01*
X94778000Y-77674000D01*
X94835142Y-77645428D01*
X94892285Y-77645428D01*
X95949428Y-78102571D02*
X95892285Y-78074000D01*
X95835142Y-78016857D01*
X95749428Y-77931142D01*
X95692285Y-77902571D01*
X95635142Y-77902571D01*
X95663714Y-78045428D02*
X95606571Y-78016857D01*
X95549428Y-77959714D01*
X95520857Y-77845428D01*
X95520857Y-77645428D01*
X95549428Y-77531142D01*
X95606571Y-77474000D01*
X95663714Y-77445428D01*
X95778000Y-77445428D01*
X95835142Y-77474000D01*
X95892285Y-77531142D01*
X95920857Y-77645428D01*
X95920857Y-77845428D01*
X95892285Y-77959714D01*
X95835142Y-78016857D01*
X95778000Y-78045428D01*
X95663714Y-78045428D01*
X96435142Y-77645428D02*
X96435142Y-78045428D01*
X96178000Y-77645428D02*
X96178000Y-77959714D01*
X96206571Y-78016857D01*
X96263714Y-78045428D01*
X96349428Y-78045428D01*
X96406571Y-78016857D01*
X96435142Y-77988285D01*
X96978000Y-78045428D02*
X96978000Y-77731142D01*
X96949428Y-77674000D01*
X96892285Y-77645428D01*
X96778000Y-77645428D01*
X96720857Y-77674000D01*
X96978000Y-78016857D02*
X96920857Y-78045428D01*
X96778000Y-78045428D01*
X96720857Y-78016857D01*
X96692285Y-77959714D01*
X96692285Y-77902571D01*
X96720857Y-77845428D01*
X96778000Y-77816857D01*
X96920857Y-77816857D01*
X96978000Y-77788285D01*
X97349428Y-78045428D02*
X97292285Y-78016857D01*
X97263714Y-77959714D01*
X97263714Y-77445428D01*
X97578000Y-78045428D02*
X97578000Y-77645428D01*
X97578000Y-77445428D02*
X97549428Y-77474000D01*
X97578000Y-77502571D01*
X97606571Y-77474000D01*
X97578000Y-77445428D01*
X97578000Y-77502571D01*
X97778000Y-77645428D02*
X98006571Y-77645428D01*
X97863714Y-77445428D02*
X97863714Y-77959714D01*
X97892285Y-78016857D01*
X97949428Y-78045428D01*
X98006571Y-78045428D01*
X98149428Y-77645428D02*
X98292285Y-78045428D01*
X98435142Y-77645428D02*
X98292285Y-78045428D01*
X98235142Y-78188285D01*
X98206571Y-78216857D01*
X98149428Y-78245428D01*
X99120857Y-78045428D02*
X99120857Y-77445428D01*
X99320857Y-77874000D01*
X99520857Y-77445428D01*
X99520857Y-78045428D01*
X99892285Y-78045428D02*
X99835142Y-78016857D01*
X99806571Y-77988285D01*
X99778000Y-77931142D01*
X99778000Y-77759714D01*
X99806571Y-77702571D01*
X99835142Y-77674000D01*
X99892285Y-77645428D01*
X99978000Y-77645428D01*
X100035142Y-77674000D01*
X100063714Y-77702571D01*
X100092285Y-77759714D01*
X100092285Y-77931142D01*
X100063714Y-77988285D01*
X100035142Y-78016857D01*
X99978000Y-78045428D01*
X99892285Y-78045428D01*
X100606571Y-78045428D02*
X100606571Y-77445428D01*
X100606571Y-78016857D02*
X100549428Y-78045428D01*
X100435142Y-78045428D01*
X100378000Y-78016857D01*
X100349428Y-77988285D01*
X100320857Y-77931142D01*
X100320857Y-77759714D01*
X100349428Y-77702571D01*
X100378000Y-77674000D01*
X100435142Y-77645428D01*
X100549428Y-77645428D01*
X100606571Y-77674000D01*
X101149428Y-77645428D02*
X101149428Y-78045428D01*
X100892285Y-77645428D02*
X100892285Y-77959714D01*
X100920857Y-78016857D01*
X100978000Y-78045428D01*
X101063714Y-78045428D01*
X101120857Y-78016857D01*
X101149428Y-77988285D01*
X101520857Y-78045428D02*
X101463714Y-78016857D01*
X101435142Y-77959714D01*
X101435142Y-77445428D01*
X101978000Y-78016857D02*
X101920857Y-78045428D01*
X101806571Y-78045428D01*
X101749428Y-78016857D01*
X101720857Y-77959714D01*
X101720857Y-77731142D01*
X101749428Y-77674000D01*
X101806571Y-77645428D01*
X101920857Y-77645428D01*
X101978000Y-77674000D01*
X102006571Y-77731142D01*
X102006571Y-77788285D01*
X101720857Y-77845428D01*
X102635142Y-77445428D02*
X102835142Y-78045428D01*
X103035142Y-77445428D01*
X103549428Y-78045428D02*
X103206571Y-78045428D01*
X103378000Y-78045428D02*
X103378000Y-77445428D01*
X103320857Y-77531142D01*
X103263714Y-77588285D01*
X103206571Y-77616857D01*
X103806571Y-77988285D02*
X103835142Y-78016857D01*
X103806571Y-78045428D01*
X103778000Y-78016857D01*
X103806571Y-77988285D01*
X103806571Y-78045428D01*
X104206571Y-77445428D02*
X104263714Y-77445428D01*
X104320857Y-77474000D01*
X104349428Y-77502571D01*
X104378000Y-77559714D01*
X104406571Y-77674000D01*
X104406571Y-77816857D01*
X104378000Y-77931142D01*
X104349428Y-77988285D01*
X104320857Y-78016857D01*
X104263714Y-78045428D01*
X104206571Y-78045428D01*
X104149428Y-78016857D01*
X104120857Y-77988285D01*
X104092285Y-77931142D01*
X104063714Y-77816857D01*
X104063714Y-77674000D01*
X104092285Y-77559714D01*
X104120857Y-77502571D01*
X104149428Y-77474000D01*
X104206571Y-77445428D01*
X93892285Y-78982857D02*
X93978000Y-79011428D01*
X94120857Y-79011428D01*
X94178000Y-78982857D01*
X94206571Y-78954285D01*
X94235142Y-78897142D01*
X94235142Y-78840000D01*
X94206571Y-78782857D01*
X94178000Y-78754285D01*
X94120857Y-78725714D01*
X94006571Y-78697142D01*
X93949428Y-78668571D01*
X93920857Y-78640000D01*
X93892285Y-78582857D01*
X93892285Y-78525714D01*
X93920857Y-78468571D01*
X93949428Y-78440000D01*
X94006571Y-78411428D01*
X94149428Y-78411428D01*
X94235142Y-78440000D01*
X94749428Y-78982857D02*
X94692285Y-79011428D01*
X94578000Y-79011428D01*
X94520857Y-78982857D01*
X94492285Y-78954285D01*
X94463714Y-78897142D01*
X94463714Y-78725714D01*
X94492285Y-78668571D01*
X94520857Y-78640000D01*
X94578000Y-78611428D01*
X94692285Y-78611428D01*
X94749428Y-78640000D01*
X95092285Y-79011428D02*
X95035142Y-78982857D01*
X95006571Y-78954285D01*
X94978000Y-78897142D01*
X94978000Y-78725714D01*
X95006571Y-78668571D01*
X95035142Y-78640000D01*
X95092285Y-78611428D01*
X95178000Y-78611428D01*
X95235142Y-78640000D01*
X95263714Y-78668571D01*
X95292285Y-78725714D01*
X95292285Y-78897142D01*
X95263714Y-78954285D01*
X95235142Y-78982857D01*
X95178000Y-79011428D01*
X95092285Y-79011428D01*
X95463714Y-78611428D02*
X95692285Y-78611428D01*
X95549428Y-78411428D02*
X95549428Y-78925714D01*
X95578000Y-78982857D01*
X95635142Y-79011428D01*
X95692285Y-79011428D01*
X95806571Y-78611428D02*
X96035142Y-78611428D01*
X95892285Y-78411428D02*
X95892285Y-78925714D01*
X95920857Y-78982857D01*
X95978000Y-79011428D01*
X96035142Y-79011428D01*
X96635142Y-78411428D02*
X97035142Y-78411428D01*
X96635142Y-79011428D01*
X97035142Y-79011428D01*
X97263714Y-79011428D02*
X97263714Y-78411428D01*
X97520857Y-79011428D02*
X97520857Y-78697142D01*
X97492285Y-78640000D01*
X97435142Y-78611428D01*
X97349428Y-78611428D01*
X97292285Y-78640000D01*
X97263714Y-78668571D01*
X98063714Y-79011428D02*
X98063714Y-78697142D01*
X98035142Y-78640000D01*
X97978000Y-78611428D01*
X97863714Y-78611428D01*
X97806571Y-78640000D01*
X98063714Y-78982857D02*
X98006571Y-79011428D01*
X97863714Y-79011428D01*
X97806571Y-78982857D01*
X97778000Y-78925714D01*
X97778000Y-78868571D01*
X97806571Y-78811428D01*
X97863714Y-78782857D01*
X98006571Y-78782857D01*
X98063714Y-78754285D01*
X98435142Y-79011428D02*
X98378000Y-78982857D01*
X98349428Y-78954285D01*
X98320857Y-78897142D01*
X98320857Y-78725714D01*
X98349428Y-78668571D01*
X98378000Y-78640000D01*
X98435142Y-78611428D01*
X98520857Y-78611428D01*
X98578000Y-78640000D01*
X98606571Y-78668571D01*
X98635142Y-78725714D01*
X98635142Y-78897142D01*
X98606571Y-78954285D01*
X98578000Y-78982857D01*
X98520857Y-79011428D01*
X98435142Y-79011428D01*
X93920857Y-79977428D02*
X93920857Y-79377428D01*
X94120857Y-79806000D01*
X94320857Y-79377428D01*
X94320857Y-79977428D01*
X94863714Y-79977428D02*
X94863714Y-79663142D01*
X94835142Y-79606000D01*
X94778000Y-79577428D01*
X94663714Y-79577428D01*
X94606571Y-79606000D01*
X94863714Y-79948857D02*
X94806571Y-79977428D01*
X94663714Y-79977428D01*
X94606571Y-79948857D01*
X94578000Y-79891714D01*
X94578000Y-79834571D01*
X94606571Y-79777428D01*
X94663714Y-79748857D01*
X94806571Y-79748857D01*
X94863714Y-79720285D01*
X95149428Y-79977428D02*
X95149428Y-79577428D01*
X95149428Y-79691714D02*
X95178000Y-79634571D01*
X95206571Y-79606000D01*
X95263714Y-79577428D01*
X95320857Y-79577428D01*
X95520857Y-79920285D02*
X95549428Y-79948857D01*
X95520857Y-79977428D01*
X95492285Y-79948857D01*
X95520857Y-79920285D01*
X95520857Y-79977428D01*
X96578000Y-79977428D02*
X96235142Y-79977428D01*
X96406571Y-79977428D02*
X96406571Y-79377428D01*
X96349428Y-79463142D01*
X96292285Y-79520285D01*
X96235142Y-79548857D01*
X96863714Y-79948857D02*
X96863714Y-79977428D01*
X96835142Y-80034571D01*
X96806571Y-80063142D01*
X97549428Y-79434571D02*
X97578000Y-79406000D01*
X97635142Y-79377428D01*
X97778000Y-79377428D01*
X97835142Y-79406000D01*
X97863714Y-79434571D01*
X97892285Y-79491714D01*
X97892285Y-79548857D01*
X97863714Y-79634571D01*
X97520857Y-79977428D01*
X97892285Y-79977428D01*
X98263714Y-79377428D02*
X98320857Y-79377428D01*
X98378000Y-79406000D01*
X98406571Y-79434571D01*
X98435142Y-79491714D01*
X98463714Y-79606000D01*
X98463714Y-79748857D01*
X98435142Y-79863142D01*
X98406571Y-79920285D01*
X98378000Y-79948857D01*
X98320857Y-79977428D01*
X98263714Y-79977428D01*
X98206571Y-79948857D01*
X98178000Y-79920285D01*
X98149428Y-79863142D01*
X98120857Y-79748857D01*
X98120857Y-79606000D01*
X98149428Y-79491714D01*
X98178000Y-79434571D01*
X98206571Y-79406000D01*
X98263714Y-79377428D01*
X98692285Y-79434571D02*
X98720857Y-79406000D01*
X98778000Y-79377428D01*
X98920857Y-79377428D01*
X98978000Y-79406000D01*
X99006571Y-79434571D01*
X99035142Y-79491714D01*
X99035142Y-79548857D01*
X99006571Y-79634571D01*
X98663714Y-79977428D01*
X99035142Y-79977428D01*
X99263714Y-79434571D02*
X99292285Y-79406000D01*
X99349428Y-79377428D01*
X99492285Y-79377428D01*
X99549428Y-79406000D01*
X99578000Y-79434571D01*
X99606571Y-79491714D01*
X99606571Y-79548857D01*
X99578000Y-79634571D01*
X99235142Y-79977428D01*
X99606571Y-79977428D01*
D11*
%TO.C,U3*%
X98748048Y-84356380D02*
X98748048Y-83356380D01*
X99795667Y-84261142D02*
X99748048Y-84308761D01*
X99605191Y-84356380D01*
X99509953Y-84356380D01*
X99367096Y-84308761D01*
X99271858Y-84213523D01*
X99224239Y-84118285D01*
X99176620Y-83927809D01*
X99176620Y-83784952D01*
X99224239Y-83594476D01*
X99271858Y-83499238D01*
X99367096Y-83404000D01*
X99509953Y-83356380D01*
X99605191Y-83356380D01*
X99748048Y-83404000D01*
X99795667Y-83451619D01*
X100176620Y-84308761D02*
X100319477Y-84356380D01*
X100557572Y-84356380D01*
X100652810Y-84308761D01*
X100700429Y-84261142D01*
X100748048Y-84165904D01*
X100748048Y-84070666D01*
X100700429Y-83975428D01*
X100652810Y-83927809D01*
X100557572Y-83880190D01*
X100367096Y-83832571D01*
X100271858Y-83784952D01*
X100224239Y-83737333D01*
X100176620Y-83642095D01*
X100176620Y-83546857D01*
X100224239Y-83451619D01*
X100271858Y-83404000D01*
X100367096Y-83356380D01*
X100605191Y-83356380D01*
X100748048Y-83404000D01*
X101652810Y-84356380D02*
X101176620Y-84356380D01*
X101176620Y-83356380D01*
X97462334Y-82061142D02*
X97414715Y-82108761D01*
X97271858Y-82156380D01*
X97176620Y-82156380D01*
X97033762Y-82108761D01*
X96938524Y-82013523D01*
X96890905Y-81918285D01*
X96843286Y-81727809D01*
X96843286Y-81584952D01*
X96890905Y-81394476D01*
X96938524Y-81299238D01*
X97033762Y-81204000D01*
X97176620Y-81156380D01*
X97271858Y-81156380D01*
X97414715Y-81204000D01*
X97462334Y-81251619D01*
X98033762Y-82156380D02*
X97938524Y-82108761D01*
X97890905Y-82061142D01*
X97843286Y-81965904D01*
X97843286Y-81680190D01*
X97890905Y-81584952D01*
X97938524Y-81537333D01*
X98033762Y-81489714D01*
X98176620Y-81489714D01*
X98271858Y-81537333D01*
X98319477Y-81584952D01*
X98367096Y-81680190D01*
X98367096Y-81965904D01*
X98319477Y-82061142D01*
X98271858Y-82108761D01*
X98176620Y-82156380D01*
X98033762Y-82156380D01*
X98938524Y-82156380D02*
X98843286Y-82108761D01*
X98795667Y-82013523D01*
X98795667Y-81156380D01*
X99748048Y-81489714D02*
X99748048Y-82156380D01*
X99319477Y-81489714D02*
X99319477Y-82013523D01*
X99367096Y-82108761D01*
X99462334Y-82156380D01*
X99605191Y-82156380D01*
X99700429Y-82108761D01*
X99748048Y-82061142D01*
X100224239Y-82156380D02*
X100224239Y-81489714D01*
X100224239Y-81584952D02*
X100271858Y-81537333D01*
X100367096Y-81489714D01*
X100509953Y-81489714D01*
X100605191Y-81537333D01*
X100652810Y-81632571D01*
X100652810Y-82156380D01*
X100652810Y-81632571D02*
X100700429Y-81537333D01*
X100795667Y-81489714D01*
X100938524Y-81489714D01*
X101033762Y-81537333D01*
X101081381Y-81632571D01*
X101081381Y-82156380D01*
X101557572Y-82156380D02*
X101557572Y-81156380D01*
X101557572Y-81537333D02*
X101652810Y-81489714D01*
X101843286Y-81489714D01*
X101938524Y-81537333D01*
X101986143Y-81584952D01*
X102033762Y-81680190D01*
X102033762Y-81965904D01*
X101986143Y-82061142D01*
X101938524Y-82108761D01*
X101843286Y-82156380D01*
X101652810Y-82156380D01*
X101557572Y-82108761D01*
X102462334Y-82156380D02*
X102462334Y-81489714D01*
X102462334Y-81156380D02*
X102414715Y-81204000D01*
X102462334Y-81251619D01*
X102509953Y-81204000D01*
X102462334Y-81156380D01*
X102462334Y-81251619D01*
X103367096Y-82156380D02*
X103367096Y-81632571D01*
X103319477Y-81537333D01*
X103224239Y-81489714D01*
X103033762Y-81489714D01*
X102938524Y-81537333D01*
X103367096Y-82108761D02*
X103271858Y-82156380D01*
X103033762Y-82156380D01*
X102938524Y-82108761D01*
X102890905Y-82013523D01*
X102890905Y-81918285D01*
X102938524Y-81823047D01*
X103033762Y-81775428D01*
X103271858Y-81775428D01*
X103367096Y-81727809D01*
D12*
%TO.C,U2*%
X115062000Y-79466000D02*
X115862000Y-79466000D01*
X115062000Y-82586000D02*
X114262000Y-82586000D01*
X115062000Y-79466000D02*
X114262000Y-79466000D01*
X115062000Y-82586000D02*
X116862000Y-82586000D01*
D13*
%TO.C,U1*%
X108159000Y-79497000D02*
X108159000Y-81947000D01*
X105709000Y-81947000D02*
X105709000Y-79497000D01*
D14*
X108572300Y-79198000D02*
G75*
G03*
X108572300Y-79198000I-114300J0D01*
G01*
D12*
%TO.C,R5*%
X109373641Y-71754000D02*
X109066359Y-71754000D01*
X109373641Y-70994000D02*
X109066359Y-70994000D01*
%TO.C,R4*%
X104494359Y-70994000D02*
X104801641Y-70994000D01*
X104494359Y-71754000D02*
X104801641Y-71754000D01*
%TO.C,R3*%
X108558359Y-76074000D02*
X108865641Y-76074000D01*
X108558359Y-76834000D02*
X108865641Y-76834000D01*
%TO.C,R2*%
X105002359Y-76074000D02*
X105309641Y-76074000D01*
X105002359Y-76834000D02*
X105309641Y-76834000D01*
%TO.C,Q2*%
X110272000Y-73914000D02*
X110272000Y-73264000D01*
X110272000Y-73914000D02*
X110272000Y-74564000D01*
X107152000Y-73914000D02*
X107152000Y-73264000D01*
X107152000Y-73914000D02*
X107152000Y-75589000D01*
%TO.C,Q1*%
X106716000Y-73914000D02*
X106716000Y-73264000D01*
X106716000Y-73914000D02*
X106716000Y-74564000D01*
X103596000Y-73914000D02*
X103596000Y-73264000D01*
X103596000Y-73914000D02*
X103596000Y-75589000D01*
%TO.C,C5*%
X111908000Y-82442164D02*
X111908000Y-82657836D01*
X112628000Y-82442164D02*
X112628000Y-82657836D01*
%TO.C,C4*%
X111612000Y-83204164D02*
X111612000Y-83419836D01*
X110892000Y-83204164D02*
X110892000Y-83419836D01*
%TO.C,C3*%
X118724000Y-82470164D02*
X118724000Y-82685836D01*
X118004000Y-82470164D02*
X118004000Y-82685836D01*
%TO.C,C2*%
X108350164Y-78126000D02*
X108565836Y-78126000D01*
X108350164Y-78846000D02*
X108565836Y-78846000D01*
%TO.C,C1*%
X120144000Y-82917420D02*
X120144000Y-83198580D01*
X119124000Y-82917420D02*
X119124000Y-83198580D01*
%TO.C,R1*%
X98705641Y-64134000D02*
X98398359Y-64134000D01*
X98705641Y-63374000D02*
X98398359Y-63374000D01*
%TO.C,U4*%
X93452000Y-73152000D02*
X93452000Y-76602000D01*
X98572000Y-73152000D02*
X98572000Y-71202000D01*
X93452000Y-73152000D02*
X93452000Y-71202000D01*
X98572000Y-73152000D02*
X98572000Y-75102000D01*
D15*
%TO.C,U3*%
X95929001Y-83904000D02*
G75*
G03*
X95929001Y-83904000I0J0D01*
G01*
X94729001Y-83904000D02*
G75*
G03*
X94729001Y-83904000I0J0D01*
G01*
X94329001Y-83504000D02*
G75*
G03*
X94329001Y-83504000I0J0D01*
G01*
X96329001Y-83504000D02*
G75*
G03*
X96329001Y-83504000I0J0D01*
G01*
X95129001Y-82304000D02*
G75*
G03*
X95129001Y-82304000I0J0D01*
G01*
X95929001Y-81704000D02*
G75*
G03*
X95929001Y-81704000I0J0D01*
G01*
X94329001Y-82304000D02*
G75*
G03*
X94329001Y-82304000I0J0D01*
G01*
D16*
X93729001Y-82904000D02*
G75*
G03*
X93729001Y-82904000I0J0D01*
G01*
D15*
X96329001Y-82104000D02*
G75*
G03*
X96329001Y-82104000I0J0D01*
G01*
D16*
X96929001Y-82904000D02*
G75*
G03*
X96929001Y-82904000I0J0D01*
G01*
D15*
X94729001Y-81704000D02*
G75*
G03*
X94729001Y-81704000I0J0D01*
G01*
X95329001Y-83304000D02*
G75*
G03*
X95329001Y-83304000I0J0D01*
G01*
X94729001Y-82904000D02*
G75*
G03*
X94729001Y-82904000I0J0D01*
G01*
D16*
X95329001Y-84504000D02*
G75*
G03*
X95329001Y-84504000I0J0D01*
G01*
D15*
X95729001Y-82704000D02*
G75*
G03*
X95729001Y-82704000I0J0D01*
G01*
D16*
X95329001Y-81104000D02*
G75*
G03*
X95329001Y-81104000I0J0D01*
G01*
D12*
%TO.C,D1*%
X99287000Y-67310000D02*
X99060000Y-67564000D01*
X98552000Y-65913000D02*
X98552000Y-66167000D01*
X98171000Y-65913000D02*
X98933000Y-65913000D01*
X99287000Y-65786000D02*
X99287000Y-64555000D01*
X97817000Y-66294000D02*
X97817000Y-67310000D01*
X97817000Y-64555000D02*
X97817000Y-65786000D01*
X98044000Y-67564000D02*
X97817000Y-67310000D01*
X99060000Y-67564000D02*
X98044000Y-67564000D01*
X99287000Y-67310000D02*
X99287000Y-66294000D01*
X99287000Y-64555000D02*
X97817000Y-64555000D01*
%TD*%
M02*
